<svg version="1.1" xmlns="http://www.w3.org/2000/svg" viewBox="0 0 960 320" xml:space="preserve">
	<style type="text/css">
		.st0{fill:none;}
		.st1{fill:#033C5A;}
		.st2{fill:#BFC2CF;}
		.st3{fill:#9097AD;}
		.st4{fill:#022D44;}
		.st5{fill:#3F5879;}
	</style>
	<g id="Layer_2">
		<rect x="-2" y="-2" class="st0" width="964" height="324"/>
		<rect x="-2" y="298" class="st1" width="964" height="24"/>
	</g>
	<g class="st2">
		<path d="M956.9,296.2c-0.2,0.5-0.5,0.9-0.9,1.2c0.2,0.9,0,1.8-0.5,2.6h-26.2c-1.5-1.2-2.5-2.9-2.2-4.7    c-2.4-2.8-2.6-7.5,0.9-9c-0.1-0.4-0.2-0.8-0.2-1.2c0-0.6,0-1.2,0.2-1.8v-0.1c0.1-1.4,0.7-2.7,1.6-3.8c0-0.7,0.2-1.4,0.5-2    c0.3-0.6,0.7-1,1.2-1.4c-0.3-0.4-0.4-1-0.3-1.5c0.5-2.2,1.6-4.4,3.7-5.3c1.5-0.6,3.3-0.7,4.8-0.1c0.1-0.9,1-1.5,1.9-1.4    c3.2,0.2,6,0.9,7.9,3.3c1.5-0.1,2.9,0.4,3.9,1.5c0.4,0.5,0.7,1.1,0.8,1.8c2.5,1.4,2.5,4.2,0.7,6.4l0,0c0.6,0.5,0.9,1.2,1.1,2    c0.2,1.3-0.1,2.5-0.9,3.5c0.9,0.9,1.3,2.2,1.1,3.5c0,0.2,0,0.3-0.1,0.5C957.4,291.9,957.8,294.3,956.9,296.2z"/>
		<polygon points="435.7,271.4 435.7,266.5 419,266.5 419,271.4 409.4,271.4 409.4,270.3 398.1,270.3 398.1,271.4     388.4,271.4 388.4,266.5 371.8,266.5 371.8,271.4 371.4,271.4 371.4,300 436,300 436,271.4   "/>
		<polygon points="288.6,267.1 288.6,264.9 285.1,264.9 285.1,263.7 281,263.7 281,264.9 275.9,264.9 275.9,264     272.1,264 272.1,264.9 266.5,264.9 266.5,267.1 259.5,267.1 259.5,300 293.9,300 293.9,267.1   "/>
		<path d="M760.2,253.1c0.3-0.9,3.2-0.5,6.5,1.1c1.9,0.8,3.5,1.9,5,3.3c3.1,0.7,6,2.2,8.5,4.2c1.3,0.3,2.6,0.8,3.9,1.4    c1.6,0.7,3,1.6,4.3,2.7c18.7,5.4,38.1,8.2,57.6,8.3v-9.9l-1.4-3.3h-7v-1.8h-1v-3.2h0.7v-1h2.7v-1.2h-2v-3.5h1.1v-1h3.8v-1.1h-1.1    v-2.5h4v-0.8h-1.2v-1.4h0.9v-2.7h-1.2v-3.5h3.6v-2.4h1.2v-1.1h-1.2v-2.2h4.9v2.2h-1.2v1.1h1.2v2.4h3.6v3.5h-1.1v2.7h0.9v1.4H855    v0.8h4v2.5h-1.1v1.1h3.8v1h1.1v3.5h-2v1.3h2.7v1h0.7v3.2h-1v1.8h-7l-1.4,3.3v9.9c23.5-0.4,42.9-3.8,57.2-7.9    c1.4-1.3,3-2.3,4.7-3.1c1.2-0.6,2.5-1,3.9-1.4c1.3-1.1,2.8-2.1,4.5-2.8c1.3-0.6,2.7-1.1,4.1-1.4c1.5-1.4,3.1-2.5,5-3.3    c3.3-1.5,6.2-2,6.5-1.1c0.2,0.8-1.5,2.3-4,3.7L925.3,300H771.7l-9.8-44.5C760.7,254.5,760,253.6,760.2,253.1z"/>
		<polygon points="19.2,241.4 17.9,241.4 14.7,241.4 2.9,241.4 2.9,247.3 0,247.3 0,300 17.9,300 17.9,248.5     17.9,247.3 17.9,243.1 19.2,243.1   "/>
		<polygon points="95.3,254.8 95.3,252.8 93.8,252.8 93.8,245 90.8,245 90.8,241.6 87.5,241.6 87.5,240.8 86.3,240.8     86.3,241.6 83,241.6 83,245 80,245 80,252.8 78.6,252.8 78.6,254.8 77.3,254.8 77.3,300 96.5,300 96.5,254.8   "/>
		<polygon points="44.6,254 44.6,248.1 39,248.1 39,254 37.6,254 37.6,248.1 32,248.1 32,254 27.6,254 27.6,300 32,300     37.6,300 39,300 44.6,300 46.3,300 46.3,254   "/>
		<polygon points="213.9,267.5 213.9,265.1 203.5,265.1 203.5,262.5 194.2,262.5 194.2,265.1 166.7,265.1 166.7,262.5     157.4,262.5 157.4,265.1 130,265.1 130,262.5 120.7,262.5 120.7,265.1 110.3,265.1 110.3,267.5 106.4,267.5 106.4,300 217.7,300     217.7,267.5   "/>
		<polygon points="720,264.1 720,263.1 711,263.1 711,264.1 706.9,264.1 706.9,262.1 689.2,262.1 689.2,264.1     675.4,264.1 675.4,300 727.3,300 727.3,264.1   "/>
		<polygon points="611.2,272.8 611.2,269.4 605.2,269.4 605.2,272.8 599.4,272.8 599.4,270.6 597.2,270.6 597.2,267.6     593.9,267.6 593.9,270.6 587.5,270.6 587.5,272.8 585.5,272.8 585.5,271.2 576.8,271.2 576.8,272.8 564.7,272.8 564.7,271.2     560.9,271.2 560.9,272.8 554.8,272.8 554.8,270.4 536.1,270.4 536.1,272.8 527.7,272.8 527.7,269.4 523.8,269.4 523.8,272.8     521.2,272.8 521.2,300 619.7,300 619.7,272.8   "/>
	</g>
	<g class="st3">
		<path d="M413.9,296.9c0.2,0.4,0.4,0.7,0.7,1c-0.1,0.7,0,1.5,0.4,2.1h21.4c1.3-0.8,1.9-2.3,1.8-3.8    c2-2.3,2.1-6.1-0.7-7.3c0.1-0.3,0.2-0.7,0.2-1c0-0.5,0-1-0.2-1.4v-0.1c-0.1-1.1-0.6-2.2-1.3-3.1c0-0.6-0.1-1.2-0.4-1.7    c-0.2-0.5-0.6-0.8-1-1.1c0.2-0.4,0.3-0.8,0.2-1.2c-0.3-1.8-1.4-3.4-3-4.3c-1.3-0.5-2.7-0.5-3.9-0.1c-0.1-0.7-0.8-1.2-1.5-1.1    c-2.6,0.1-4.9,0.7-6.4,2.7c-1.2-0.1-2.4,0.4-3.2,1.3c-0.4,0.4-0.6,0.9-0.7,1.5c-2.1,1.1-2,3.5-0.6,5.2l0,0c-0.5,0.4-0.8,1-0.9,1.7    c-0.2,1,0.1,2.1,0.7,2.9c-0.7,0.8-1,1.8-0.9,2.8c0,0.1,0,0.2,0.1,0.4C413.5,293.5,413.2,295.3,413.9,296.9z"/>
		<polygon points="771.9,272.3 771.9,268.3 765,268.3 765,272.3 763.1,272.3 763.1,269.5 755,269.5 755,266 737.9,266     737.9,272.3 727.9,272.3 727.9,301 774.9,301 774.9,272.3   "/>
		<polygon points="25.6,261.2 25.6,260.2 25.1,260.2 25.1,259.4 23.5,259.4 23.5,260.2 20.8,260.2 20.8,261.2     16.7,261.2 16.7,300 29.1,300 29.1,261.2   "/>
		<polygon points="885.8,276.6 884.6,276.6 884.6,273.4 885.8,273.4 885.8,272 884.8,272 876.8,268.3 823,268.3     814.6,272 813.6,272 813.6,273.4 814.8,273.4 814.8,276.6 813.6,276.6 813.6,278.6 814.8,278.6 814.8,300 884.6,300 884.6,278.6     885.8,278.6   "/>
		<polygon points="254.5,271.3 254.5,265.4 243.1,265.4 243.1,269.7 240.8,269.7 240.8,271.3 236.4,271.3 236.4,267.3     223.4,267.3 223.4,271.3 218.3,271.3 218.3,268.5 207.3,268.5 207.3,271.3 201,271.3 201,300 262.8,300 262.8,271.3   "/>
		<path d="M956.7,290.5c0.2,0.7,0.3,1.4,0.3,2.1c0,0.6-0.3,1.2-0.7,1.6c0,0.5,0,1.1-0.1,1.6c-0.2,0.6-0.6,1.2-1.2,1.5    c-0.2,0.1-0.5,0.2-0.8,0.3c0.1,0.4,0,0.9-0.3,1.3c0,0.4,0,0.7-0.2,1.1h-15.9l-0.1-0.1c-0.3-0.3-0.6-0.6-0.8-1    c-0.1-0.2-0.2-0.4-0.2-0.6c-0.1-0.1-0.2-0.2-0.3-0.3c-0.3-0.4-0.5-0.8-0.8-1.2c-0.4-0.6-0.5-1.5-0.1-2.1v-0.4c0-0.5,0.1-1,0.2-1.5    l0.1-0.6c0-0.2,0-0.3,0.1-0.5c0-0.1,0.1-0.2,0.1-0.2c0-0.1,0.1-0.2,0.2-0.3l0,0c-1.6-1.1-2-3.3-0.9-4.9l0,0l0.2-0.3l0,0    c0.3-1.2,1-2.3,1.8-3.1c0.1-0.1,0.1-0.1,0.2-0.2c0-0.5,0.1-1,0.3-1.4c0.7-1.3,1.6-2.5,2.8-3.3c0.1-0.4,0.1-0.8,0.2-1.2    c0.4-1.3,1.8-2.1,3.2-1.7c0.5,0.2,1,0.5,1.5,0.8c1-2,4.7-1.6,4.8,1h0.1c0.7,0,1.4,0.3,1.9,0.9h0.2c2.6-0.2,4.6,1.8,3.9,4.3    c-0.2,0.7-0.5,1.3-1,1.8c0.5,0.3,0.8,0.8,1,1.3c0.4,1.3,0,2.7-1,3.6l-0.2,0.2c0.1,0.2,0.2,0.4,0.2,0.6    C956.2,289.5,956.5,290,956.7,290.5z"/>
		<path d="M717.6,295.7c-0.1-0.1-0.2-0.2-0.4-0.3c0.6-0.7,0.6-1.7,0.2-2.5c-0.3-0.6-0.9-1.1-1.5-1.4v-0.1    c0.3-0.7,0.3-1.5,0-2.2c-0.4-1-1.2-1.8-2.3-2.2c1.1-2.3-0.3-4.3-2.3-5c-0.5-1.5-2.1-2.4-3.6-2.1c-1.3,0.2-2.4,1.4-2.5,2.7    c-1.7,0.2-2.6,2-2.6,3.9c-1.4,0.3-2.3,1.8-1.9,3.2c0.1,0.4,0.3,0.8,0.6,1.2l0.1,0.2c-0.1,0.1-0.2,0.2-0.3,0.4    c-0.7,1.1-0.6,2.6,0.3,3.6c-0.8,0.9-1,2.1-0.5,3.2c-0.3,0.4-0.4,0.9-0.2,1.4c0.1,0.1,0.1,0.2,0.2,0.3h14.5c1-0.1,1.9-0.6,2.6-1.5    C718.4,297.5,718.3,296.4,717.6,295.7z"/>
		<path d="M769.3,300H803c0.4-0.4,0.7-0.9,0.9-1.4c0.8-1.9-0.7-3.5-1.8-2.8c0.3-0.2-0.5-1.2-1-1.7    c-0.1-0.4-0.2-0.8-0.4-1.2c-0.6-1.6-1.9-2.6-3-1.5c-0.1,0.1-0.2,0.2-0.3,0.4c-0.2-0.3-0.3-0.5-0.5-0.7c-0.2-0.3-0.6-0.5-0.9-0.5    c-0.3-0.6-1-1-1.7-1c-0.9,0.1-1.7,0.7-2.2,1.4c-0.3,0.5-0.4,1-0.4,1.5h-0.1c-0.5-1-1.2-1.7-2-1.7c-0.6-0.5-1.3-0.7-2.1-0.5h-0.1    c-0.1-0.7-0.8-1.1-1.5-0.9l0,0c-0.4,0.2-0.7,0.5-0.8,0.9c-1.1-1.1-2.6-0.8-3.7,0.3c-0.4-1.3-1.4-2.3-2.5-3    c-0.7-0.3-1.3,0.3-1.5,1.2c-0.2-0.1-0.5-0.2-0.8-0.2c-0.6,0-1.1,0.7-1.3,1.5c-1.3-1.4-3.3-1.2-4,1c-0.1,0-0.2,0-0.3,0.1    c-1.6,0.6-1.9,3.1-1.4,5.2v0.1C768.6,296.6,768.5,299,769.3,300z"/>
		<path d="M681.5,299.9v-28.3l-1.3-5.3h-0.4V266h0.2v-0.3h-0.2v-0.5h-0.3v0.5h-0.2v0.3h0.2v0.3H679l-0.3,1.2v-17.3    l-1.3-5.3H677v-0.3h0.2v-0.3H677v-0.4h-0.3v0.4h-0.2v0.3h0.2v0.3h-0.5l-0.1,0.6v-14.6l-0.3-5.3h-0.3l-0.2,3.5v-3.6H675v-1.2h-0.2    l-0.2-4.6l0,0v-0.4h-0.2v0.4h-0.1l-0.4-4.3h-0.1v-0.2h-0.2v0.2l0,0l-0.6-2.3h-0.1v-0.3h0.1c0.1,0,0.3-0.1,0.3-0.3    s-0.1-0.3-0.3-0.3c0,0,0,0,0-0.1c0-0.1-0.1-0.3-0.3-0.3c-0.1,0-0.3,0.1-0.3,0.3c0,0,0,0,0,0.1c-0.1,0-0.3,0.1-0.2,0.3    c0,0.1,0.1,0.3,0.3,0.2h0.1v0.3h-0.1l-0.5,2.3l0,0v-0.2h-0.2v0.2h-0.1l-0.4,4.3h-0.1v-0.4H671v0.4l0,0l-0.2,4.6h-0.6v0.6h-0.3    v-0.6H669v0.6h-0.3v-0.6h-0.8V224h0.1c0,0.1,0.1,0.1,0.2,0c0.1-0.1,0.1-0.1,0-0.2s-0.1-0.1-0.2,0l0,0l0,0h-0.1v-0.4h0.1    c0,0,0.1,0.1,0.2,0c0,0,0.1-0.1,0-0.2s-0.1-0.1-0.2,0l0,0h-0.1v-0.4h0.1c0,0,0.1,0,0.2,0c0,0,0-0.1,0-0.2c0,0-0.1,0-0.2,0h-0.1    v-0.4l0,0c0.1,0,0.1,0,0.1-0.1s-0.1-0.1-0.1-0.1l0,0v-0.4h0.1h0.1v-0.1H668h-0.1v-0.4h0.1h0.1V221H668h-0.1v-0.4h0.1    c0,0,0.1,0,0.1-0.1l0,0c0,0,0-0.1-0.1-0.1h-0.1V220h0.1c0,0,0.1,0,0.1-0.1l0,0c0,0,0-0.1-0.1-0.1l0,0h-0.1v-0.4h-0.2v0.4H667    c0,0-0.1,0-0.1,0.1s0,0.1,0.1,0.1h0.1v0.4H667c0,0-0.1,0-0.1,0.1l0,0c0,0,0,0.1,0.1,0.1h0.1v0.4H667h-0.1v0.1h0.1l0,0v0.4h-0.1    h-0.1v0.1h0.1h0.1v0.4l0,0c-0.1,0-0.1,0-0.1,0.1s0.1,0.1,0.1,0.1l0,0v0.4h-0.1c0,0-0.1,0-0.2,0c0,0,0,0.1,0,0.2c0,0,0.1,0,0.2,0    h0.1v0.4h-0.1c0,0-0.1-0.1-0.2,0c0,0-0.1,0.1,0,0.2s0.1,0.1,0.2,0l0,0h0.1v0.3h-0.1c-0.1,0-0.2,0-0.2,0.1c0.1,0.1,0.1,0.1,0.2,0.1    h0.1v0.2h-1v0.6h-0.3v-0.6h-0.9v0.6h-0.3v-0.6h-0.7l-0.2-4.6l0,0v-0.4h-0.2v0.4h-0.1l-0.4-4.3h-0.1V215h-0.2v0.2h-0.1l-0.6-2.2    h-0.1v-0.3c0.1,0.1,0.3,0.1,0.4-0.1c0.1-0.1,0.1-0.3-0.1-0.4H662c0,0,0,0,0-0.1c0-0.1-0.1-0.3-0.3-0.3c-0.1,0-0.3,0.1-0.3,0.3l0,0    c0,0,0,0,0,0.1c-0.1,0-0.3,0.1-0.3,0.3s0.1,0.3,0.3,0.3l0,0h0.1v0.3h-0.1l-0.5,2.3l0,0v-0.2h-0.2v0.2h-0.1l-0.4,4.3h-0.1v-0.4    h-0.2v0.4l0,0l-0.2,4.6h-0.2v1.3h-0.1v3.6l-0.2-3.5H659l-0.3,5.3v14.6l-0.1-0.6H658v-0.4h0.2v-0.3H658v-0.4h-0.3v0.4h-0.2v0.3h0.2    v0.3h-0.4l-1,4v-0.3h-2.8v-1h-0.2v1H652l-1.1-1.1V246h0.3v-0.4h-0.3v-0.4h-0.3v0.4h-0.3v0.3h0.3v1.5l-1.1,1.1H648v-1h-0.2v1H645    v0.2l-1-4h-0.4v-0.3h0.2v-0.3h-0.2v-0.4h-0.3v0.4H643v0.3h0.2v0.3h-0.5l-0.1,0.6v-14.6l-0.3-5.3H642l-0.2,3.5v-3.6h-0.1v-1.2h-0.2    l-0.2-4.6l0,0v-0.4H641v0.4h-0.1l-0.4-4.3h-0.1V215h-0.2v0.2h-0.1l-0.6-2.3h-0.1v-0.3h0.1c0.1,0,0.3-0.1,0.3-0.3s-0.1-0.3-0.3-0.3    c0,0,0,0,0-0.1s-0.1-0.3-0.3-0.3c-0.1,0-0.3,0.1-0.3,0.3c0,0,0,0,0,0.1c-0.1,0-0.3,0.1-0.3,0.3s0.1,0.3,0.3,0.3l0,0h0.1v0.3h-0.1    l-0.5,2.3l0,0V215h-0.2v0.2h-0.1l-0.4,4.3h-0.1v-0.4h-0.2v0.4l0,0l-0.2,4.6h-0.6v0.6h-0.3v-0.6h-0.9v0.6h-0.3v-0.6h-0.7v-0.2h0.1    c0.1,0,0.2,0,0.2-0.1c-0.1-0.1-0.1-0.1-0.2-0.1h-0.1v-0.4h0.1c0.1,0,0.2,0,0.2-0.1s-0.1-0.1-0.2-0.1h-0.1v-0.4h0.1    c0,0,0.1,0,0.2,0c0,0,0-0.1,0-0.2c0,0-0.1,0-0.2,0h-0.1v-0.4l0,0h0.1V222h-0.1l0,0v-0.4h0.1h0.1v-0.1h-0.1h-0.1v-0.4h0.1h0.1V221    h-0.1h-0.1v-0.4h0.1c0,0,0.1,0,0.1-0.1l0,0c0,0,0-0.1-0.1-0.1h-0.1V220h0.1c0,0,0.1,0,0.1-0.1l0,0c0,0,0-0.1-0.1-0.1l0,0h-0.1    v-0.4h-0.2v0.4h-0.1c0,0-0.1,0-0.1,0.1l0,0l0,0c0,0,0,0.1,0.1,0.1l0,0h0.1v0.4H634c0,0-0.1,0-0.1,0.1l0,0c0,0,0,0.1,0.1,0.1h0.1    v0.4H634h-0.1v0.1h0.1h0.1v0.4H634h-0.1v0.1h0.1h0.1v0.4l0,0c-0.1,0-0.1,0-0.1,0.1s0.1,0.1,0.1,0.1l0,0v0.4H634c0,0-0.1,0-0.2,0    c0,0,0,0.1,0,0.2c0,0,0.1,0,0.2,0h0.1v0.4H634c0,0-0.1-0.1-0.2,0c0,0-0.1,0.1,0,0.2s0.1,0.1,0.2,0l0,0h0.1v0.4H634    c0-0.1-0.1-0.1-0.2,0s-0.1,0.1,0,0.2c0.1,0.1,0.1,0.1,0.2,0l0,0l0,0h0.1v0.2h-0.7v0.6h-0.3v-0.6H632v0.6h-0.3v-0.6H631l-0.2-4.6    l0,0v-0.4H630v0.4h-0.1l-0.4-4.3h-0.1v-0.2h-0.2v0.2l0,0l-0.6-2.4h-0.1v-0.3h0.1c0.1,0,0.3-0.1,0.3-0.3s-0.1-0.3-0.3-0.3l0,0    c0,0,0,0,0-0.1s-0.1-0.3-0.3-0.3c-0.1,0-0.3,0.1-0.3,0.3l0,0l0,0c0,0,0,0,0,0.1c-0.1,0-0.3,0.1-0.3,0.3s0.1,0.3,0.3,0.3h0.1v0.3    H628l-0.5,2.4l0,0v-0.2h-0.2v0.2h-0.1l-0.4,4.3h-0.1v-0.4h-0.2v0.4l0,0l-0.2,4.6h-0.2v1.3H626v3.6l-0.2-3.5h-0.3l-0.3,5.3v14.7    l-0.1-0.6h-0.5v-0.4h0.2v-0.3h-0.2v-0.4h-0.3v0.4h-0.2v0.3h0.2v0.3h-0.4l-1.3,5.3v17.4l-0.3-1.2h-0.5v-0.3h0.2v-0.3h-0.2v-0.5    h-0.3v0.5h-0.2v0.3h0.2v0.3H621l-1.3,5.3V300L681.5,299.9L681.5,299.9z"/>
		<path d="M543.5,299h24.1c0.6-0.3,1.2-0.7,1.7-1.2c0.9-0.9,1.1-2.3,0.5-3.5c-0.2-0.4-0.5-0.8-0.8-1.1    c0.7-1.5,0.6-3.2-0.2-4.7c-0.7-1.3-1.8-2.5-3.1-3.1c-0.2-1.3-0.8-2.6-1.8-3.5c-0.3-0.3-0.7-0.5-1.1-0.7c-1-3.8-4.8-5-8-3.7    c-0.8-0.9-2-1.5-3.2-1.4c-2,0.2-3.8,1.4-4.6,3.3c-1.4-0.4-2.9,0-4,1c-1,1.1-1.5,2.6-1.4,4.1c-1.6,1.3-2.4,3.4-2,5.4l-0.2,0.1    c-1.2,1-1.7,2.8-1,4.3C539,296.6,541.4,297.9,543.5,299z"/>
		<path d="M688,300h13.7c0.4-0.2,0.7-0.5,0.9-0.9c0.5-0.8,0.6-1.7,0.3-2.6c-0.1-0.3-0.3-0.6-0.5-0.8    c0.4-1.1,0.3-2.4-0.1-3.5c-0.3-0.9-1-1.7-1.8-2.3c-0.1-0.9-0.4-1.9-1-2.6c-0.2-0.2-0.4-0.4-0.6-0.5c-0.6-2.8-2.7-3.7-4.6-2.7    c-0.4-0.6-1.1-1-1.8-1.1c-1.2,0-2.2,1.2-2.6,2.4c-0.8-0.3-1.8,0-2.3,0.8c-0.6,0.9-0.9,1.9-0.8,3c-1,1.1-1.4,2.6-1.2,4l-0.1,0.1    c-0.7,0.9-0.9,2.1-0.6,3.1C685.5,298,686.6,299.3,688,300z"/>
		<poly points="74.4,265.3 74.4,263.7 71.1,263.7 71.1,259 51.8,259 51.8,263.7 48.5,263.7 48.5,265.3 44.8,265.3     44.8,300 78.1,300 78.1,265.3   "/>
		<polygon points="104.3,261.8 104.3,260.8 101.8,260.8 101.8,261.8 98.1,261.8 98.1,260.7 94.7,260.7 94.7,261.8     94,261.8 94,300 108.8,300 108.8,261.8   "/>
		<polygon points="769.4,282 769.4,280.1 765.4,280.1 765.4,274.4 761.8,274.4 761.8,280.1 760.1,280.1 760.1,279.5     754.8,279.5 754.8,280.1 750.8,280.1 750.8,282 745.7,282 745.7,280.5 740,280.5 740,279 735.5,279 735.5,280.5 732.2,280.5     732.2,282 729.2,282 729.2,280.7 726.7,280.7 726.7,279.2 720.5,279.2 720.5,280.7 716.3,280.7 716.3,282 711.8,282 711.8,300     771.9,300 771.9,282   "/>
	</g>
	<g class="st5">
		<path d="M816.9,300h55.5c0.6-0.4,1.1-0.9,1.5-1.5c1.3-2-1.2-3.8-3-3c0.5-0.2-0.7-1.2-1.7-1.9    c-0.2-0.5-0.4-0.9-0.6-1.3c-1-1.7-3.2-2.8-5-1.6c-0.2,0.1-0.3,0.2-0.4,0.4c-0.3-0.3-0.6-0.5-0.9-0.8c-0.5-0.3-1-0.5-1.5-0.5    c-0.7-0.7-1.7-1.1-2.7-1.1c-1.3,0.1-2.6,0.6-3.5,1.5c-0.5,0.4-0.7,1-0.6,1.6h-0.1c-0.7-1.1-2-1.7-3.3-1.8c-1-0.6-2.3-0.8-3.4-0.5    h-0.1c-0.5-0.8-1.5-1.2-2.5-1c-0.5,0.1-1,0.5-1.3,1c-1.9-1.1-4.3-1-6.1,0.3c-1-1.5-2.5-2.7-4.2-3.2c-1-0.3-2.2,0.2-2.5,1.3    c-0.4-0.2-0.9-0.2-1.3-0.3c-1,0-1.9,0.7-2.1,1.6c-2.1-1.5-5.4-1.4-6.6,1.1c-0.2,0-0.3,0-0.5,0.1c-2.7,0.7-3.2,3.3-2.3,5.5v0.1    C815.7,296.3,815.5,298.9,816.9,300z"/>
		<path d="M881.2,301h33.1c0-0.1,0.1-0.1,0.1-0.2c0.9-0.9,1.2-2.3,0.8-3.5c-0.6-1.9-2.2-3.7-4.2-3.6h-0.3    c-1.2-0.4-2.5-0.4-3.8-0.1c-0.5,0.1-0.9,0.4-1.1,0.9c-0.2-0.4-0.6-0.8-1.1-0.9c-0.7-0.2-1.5-0.2-2.2,0c-0.8,0.5-1.8,0.2-2.3-0.6    c-0.1-0.2-0.2-0.5-0.2-0.7c-0.1,0-0.3,0-0.4,0c-1.1-0.7-2.5-0.7-3.6,0c-0.4,0.3-0.7,0.7-0.8,1.1c-0.4,0.1-0.7,0.3-1,0.6    c-0.2,0.2-0.4,0.5-0.5,0.7c-0.2,0.3-0.3,0.7-0.2,1.1c-0.2-0.3-0.4-0.5-0.7-0.7s-0.7-0.4-1.2-0.5c0-0.6-0.2-1.2-0.5-1.7    c-0.5-0.9-1.5-1.4-2.6-1.4c-0.9,0-1.7,0.7-1.8,1.6c-0.8-0.1-1.7,0.1-2.4,0.5c-0.9,0.5-1.5,1.4-1.6,2.4c-0.7,0.2-1.2,0.7-1.6,1.2    c-0.6,1-0.6,2.1-0.1,3.1C881,300.7,881.1,300.9,881.2,301z"/>
		<path d="M420.7,293c-0.6,0.4-1,1-1.2,1.7c-0.3,1.2,0.2,2.4,1.2,3.1l0,0c-0.3,0.3-0.4,0.6-0.4,1    c-0.1,0.4,0,0.8,0.1,1.2h19.9c0.3-0.2,0.6-0.4,0.8-0.7c0.3-0.4,0.5-0.8,0.3-1.3c0.3-0.7,0.3-1.4,0.2-2.1c1-1.1,1-2.8-0.1-3.8    c-0.2-0.2-0.3-0.3-0.5-0.4c0-0.3,0-0.7-0.1-1c-0.3-1-1-1.8-1.8-2.4c0-0.1,0-0.2,0-0.2c0.1-0.8-0.2-1.6-0.7-2.2    c-0.1-1.6-1.4-2.3-2.7-2.4c-0.3-1.1-1.4-1.9-2.5-1.9c-0.8,0.1-1.7,0.3-2.3,0.8c-1.2-0.2-2.5,0-3.6,0.5c-0.9,0.4-1.6,1.3-1.7,2.3    c-0.3,0.1-0.6,0.3-0.9,0.5l0,0c-1.5-0.8-3.3-0.2-4,1.3l0,0c-0.4,0.6-0.5,1.3-0.4,2c-0.3,0.3-0.5,0.7-0.6,1.1    C419.3,291.3,419.8,292.4,420.7,293z"/>
		<path d="M530.1,292.7c0.1,1.1,0.6,2.1,1.5,2.7c-1.1,0.6-1.6,1.8-1.3,3c0.1,0.2,0.2,0.4,0.3,0.6h17    c0.2-0.4,0.4-0.8,0.5-1.3c0.1-0.4,0-0.8-0.1-1.2c0.1-0.1,0.3-0.3,0.4-0.4c0.8-0.8,0.8-2,0-2.8c-0.5-0.5-1.1-0.7-1.8-0.6    c0.7-0.5,1.3-1.2,1.6-2c0.7-1.8-0.4-3.6-1.7-4.7c-0.2-0.7-0.4-1.4-0.7-2c-0.5-1-1.5-1.7-2.6-1.7c-0.2,0-0.4,0-0.5,0    c-0.8-1.1-2-1.8-3.4-2.1c-2-0.3-4.1,0.6-5.2,2.4c-0.2,0.2-0.3,0.5-0.3,0.8c-1.7,0.2-3,1.6-3.1,3.3c-0.1,1.2,0.4,2.4,1.3,3.1    C530.8,290.2,530,291.4,530.1,292.7z"/>
	</g>
	<g class="st1">
		<path d="M409,270.6v-4.1h-3.2v-3.3h0.4v-0.8h-1.3v-0.9H404v0.9h-1.3v0.8h0.4v3.3h-4.6v-2H386v-2h-6.4V260h0.4v-0.8    h-0.9v-2.4h-0.5v2.4h-0.2v-1.6h-1v1.6h-0.9v0.8h0.5v2.5h-13.3v-2.9h0.4v-0.8h-1.3v-0.9H362v0.9h-1.3v0.8h0.4v1.6h-5.3v-0.4h-1.7    v-0.7h-1v-15.4c1-0.4,2.2-0.4,3.2,0.1c0.1,0,0.9,0.4,1.3,0.6s1,0.2,0.8-0.2c-0.6-1.6,0.2-3.7,0-3.6c-1.1,0.3-2.3,0.2-3.4-0.2    c-0.6-0.2-1.3-0.2-1.9,0.1v-1.6h-0.4v20.3h-1v0.7H350v0.4h-5.3v-1.6h0.4v-0.8h-1.3V258H343v0.9h-1.3v0.8h0.4v2.8h-13.4V260h0.4    v-0.8h-0.9v-1.6h-1v1.6H327v-2.4h-0.5v2.4h-0.9v0.8h0.4v2.5h-6.4v2h-12.5v2h-4.6v-3.3h0.4v-0.8h-1.3v-0.8H301v0.9h-1.3v0.8h0.4    v3.3h-3.3v4.1H286V301h133.8v-30.4H409L409,270.6z"/>
		<path d="M939.6,296.1v-3.7h-3v-20.9h1.4v-1.4h1.6v-5h-2.1v-2.5h-6.8v-4.5h-3.5v-2.3h-1.8    c-3.3-7.3-11.3-12.4-20.7-12.4s-17.3,5.1-20.7,12.4h-1.8v2.3h-3.6v4.5h-6.9v2.5h-2.1v5h1.6v1.4h1.4v20.8h-3v3.7H853v5h95.7v-5    L939.6,296.1L939.6,296.1z M930.2,292.4v-20.9h1.2v20.9H930.2z M879.2,271.6v20.8H878v-20.9L879.2,271.6z M934.7,292.4h-1.2v-20.9    h1.2V292.4z M874.7,271.6h1.3v20.8h-1.2L874.7,271.6z"/>
		<polygon points="176.2,278.4 176.2,276.4 172.4,276.4 172.4,278.4 170.9,278.4 170.9,276.6 163.6,276.6 163.6,278.4     150.8,278.4 150.8,301 180.9,301 180.9,278.4   "/>
		<path d="M624.9,296.5V282h-0.8v-0.3h0.8v-2.5h-12.7c-1.7-0.5-3.4-0.7-5.1-0.7c-1.6,0-3.3,0.2-4.8,0.6    c-0.5,0-1-0.1-1.6-0.1c-0.9,0-1.8,0.1-2.7,0.2c-2-0.9-4.2-1.3-6.4-1.2c-4,0-7.2,1.1-7.9,2.5c-0.7-0.2-1.4-0.2-2.2-0.2    c-1.5-0.1-3,0.3-4.2,1.1H567c-6.6,0-12,1.1-12,2.3v3.8l0,0c0.1,0.7,1.9,1.4,4.7,1.8v4.6h2.4v3.8h2v3.3h65.1v-4.5L624.9,296.5    L624.9,296.5z"/>
		<path d="M112.3,275.4H-2v26.7h3.2v-2.5h0.5v-1H0.6c0.8-2.7,2.4-5.2,4.5-7c3.4-2.8,7.7-4.4,12.1-4.3    c4.4,0,8.7,1.5,12.1,4.3c2.1,1.8,3.7,4.2,4.5,6.9h-1.1v1h0.5v2.4h1.1v0.1h4.9v-2.5h0.5v-1h-1.2c0.8-2.7,2.4-5.2,4.5-7    c7-5.8,17.1-5.8,24.1,0c2.1,1.8,3.7,4.2,4.5,6.9h-1.1v1H71v2.4h1.1v0.1H77v-2.5h0.5v-1h-1.2c0.8-2.7,2.4-5.2,4.5-7    c7-5.8,17.1-5.8,24.1,0c2.1,1.8,3.7,4.2,4.5,6.9h-1.1v1h0.5v2.4h1.1v0.1h4.9v-2.5h0.5v-1h-1.1c0.8-2.7,2.4-5.2,4.5-7    c7-5.8,17.1-5.8,24.1,0c2.1,1.8,3.7,4.2,4.5,6.9h-1.1v1h0.6v2.4h1.1v0.1h2.1v-26.5L112.3,275.4L112.3,275.4z M0.3,278.5h-1.4v-2.6    h1.5L0.3,278.5z M8.2,275.9h1.4v2.6H8.2V275.9z M1.2,275.9h1.4v2.6H1.2V275.9z M3.7,290.4L3.7,290.4c-1,0.9-1.9,1.9-2.7,3v-10.9    c0.1-0.7,0.6-1.2,1.3-1.1c0.7-0.1,1.3,0.4,1.3,1.1v7.9H3.7z M3.6,278.4v-2.6H5v2.6H3.6z M7.1,288c-1,0.5-1.9,1.1-2.7,1.8v-7.3    c0.1-0.7,0.7-1.1,1.4-1c0.7-0.1,1.3,0.4,1.3,1.1V288L7.1,288z M7.4,278.4H5.9v-2.6h1.4L7.4,278.4z M10.6,286.6    c-0.9,0.3-1.8,0.7-2.7,1.1v-5.1c0.1-0.7,0.7-1.2,1.4-1.1c0.7-0.1,1.3,0.4,1.4,1.1L10.6,286.6L10.6,286.6z M10.6,275.8H12v2.6h-1.4    V275.8L10.6,275.8z M14,285.8c-0.9,0.1-1.8,0.3-2.7,0.6v-3.9c0.1-0.7,0.7-1.2,1.4-1.1c0.7-0.1,1.3,0.4,1.3,1.1V285.8z M14.4,278.4    H13v-2.6h1.5L14.4,278.4L14.4,278.4z M16.7,278.4h-1.4v-2.6h1.5L16.7,278.4L16.7,278.4z M31.7,275.9h1.5v2.5h-1.5V275.9    L31.7,275.9z M24.7,275.9h1.5v2.5h-1.5V275.9L24.7,275.9z M19.1,278.4h-1.5v-2.6h1.5V278.4z M20,275.8h1.5v2.6H20V275.8L20,275.8z     M23.1,286.4c-0.9-0.2-1.8-0.4-2.7-0.6v-3.3c0-0.7,0.6-1.4,1.4-1.4s1.4,0.6,1.4,1.4L23.1,286.4z M23.8,278.5h-1.4v-2.6h1.5    L23.8,278.5L23.8,278.5z M26.5,287.7c-0.9-0.4-1.8-0.8-2.7-1.1v-4.1c0-0.7,0.6-1.4,1.4-1.4s1.4,0.6,1.4,1.4L26.5,287.7L26.5,287.7    z M27,275.9h1.5v2.6H27V275.9L27,275.9z M30,289.8c-0.9-0.7-1.8-1.2-2.7-1.8v-5.5c0-0.7,0.6-1.4,1.4-1.4s1.4,0.6,1.4,1.4l0,0v7.3    H30z M29.4,278.4v-2.6h1.4v2.6H29.4z M33.5,293.3c-0.8-1.1-1.7-2-2.7-2.9l0,0v-7.9c0-0.7,0.6-1.4,1.4-1.4c0.8,0,1.4,0.6,1.4,1.4    L33.5,293.3L33.5,293.3z M35.6,278.4h-1.5v-2.6h1.5V278.4L35.6,278.4z M38.3,278.4h-1.5v-2.6h1.5V278.4L38.3,278.4z M46.2,275.8    h1.5v2.6h-1.5V275.8L46.2,275.8z M39.2,275.8h1.5v2.6h-1.5V275.8L39.2,275.8z M41.7,290.4L41.7,290.4c-1,0.9-1.9,1.9-2.7,3v-10.8    c0-0.7,0.6-1.4,1.4-1.4s1.4,0.6,1.4,1.4v7.8H41.7z M41.5,278.4v-2.6H43v2.6H41.5L41.5,278.4z M45.1,288c-1,0.5-1.9,1.1-2.7,1.8    v-7.3c0-0.7,0.6-1.4,1.4-1.4s1.4,0.6,1.4,1.4v5.5H45.1z M45.3,278.4h-1.5v-2.6h1.5V278.4L45.3,278.4z M48.5,286.6    c-0.9,0.3-1.8,0.7-2.7,1.1v-5.2c0-0.7,0.6-1.4,1.4-1.4s1.4,0.6,1.4,1.4v4.1H48.5z M48.5,275.8H50v2.6h-1.5V275.8L48.5,275.8z     M52,285.8c-0.9,0.1-1.8,0.3-2.7,0.6v-3.9c0-0.7,0.6-1.4,1.4-1.4s1.4,0.6,1.4,1.4v3.3H52z M52.4,278.4h-1.5v-2.6h1.5V278.4    L52.4,278.4z M54.7,278.4h-1.5v-2.6h1.5V278.4L54.7,278.4z M69.7,275.9h1.5v2.6h-1.5V275.9L69.7,275.9z M62.7,275.9h1.4v2.6h-1.5    L62.7,275.9L62.7,275.9z M57,278.4h-1.5v-2.6H57V278.4L57,278.4z M58,275.8h1.5v2.6H58V275.8L58,275.8z M61,286.4    c-0.9-0.2-1.8-0.4-2.7-0.6v-3.3c0-0.7,0.6-1.4,1.4-1.4s1.4,0.6,1.4,1.4v3.9H61z M61.7,278.5h-1.4v-2.6h1.4V278.5L61.7,278.5z     M64.4,287.7c-0.9-0.4-1.8-0.8-2.7-1.1v-4.1c0-0.7,0.6-1.4,1.4-1.4c0.8,0,1.4,0.6,1.4,1.4L64.4,287.7L64.4,287.7z M64.9,275.9h1.5    v2.6H65L64.9,275.9L64.9,275.9z M67.9,289.8c-0.9-0.7-1.8-1.2-2.7-1.8v-5.5c0-0.7,0.6-1.4,1.4-1.4c0.8,0,1.4,0.6,1.4,1.4    C68,282.5,68,289.8,67.9,289.8z M67.3,278.4v-2.6h1.4v2.6H67.3z M71.4,293.3c-0.8-1.1-1.7-2-2.7-2.9l0,0v-7.9    c0-0.7,0.6-1.4,1.4-1.4s1.4,0.6,1.4,1.4L71.4,293.3L71.4,293.3z M73.5,278.4H72v-2.6h1.4L73.5,278.4L73.5,278.4z M76.2,278.4h-1.4    v-2.6h1.4V278.4z M84.2,275.8h1.4v2.6h-1.5L84.2,275.8z M77.2,275.8h1.4v2.6h-1.5L77.2,275.8z M79.6,290.4L79.6,290.4    c-1,0.9-1.9,1.9-2.7,3v-10.8c0-0.7,0.6-1.4,1.4-1.4c0.8,0,1.4,0.6,1.4,1.4C79.6,282.5,79.6,290.4,79.6,290.4z M79.5,278.4v-2.6    h1.4v2.6H79.5z M83,288c-1,0.5-1.9,1.1-2.7,1.8v-7.3c0-0.7,0.6-1.4,1.4-1.4c0.8,0,1.4,0.6,1.4,1.4C83,282.5,83,288,83,288z     M83.3,278.4h-1.4v-2.6h1.4V278.4z M86.5,286.6c-0.9,0.3-1.8,0.7-2.7,1.1v-5.2c0-0.7,0.6-1.4,1.4-1.4c0.8,0,1.4,0.6,1.4,1.4    L86.5,286.6L86.5,286.6z M86.5,275.8h1.4v2.6h-1.4V275.8z M89.9,285.8c-0.9,0.1-1.8,0.3-2.7,0.6v-3.9c0-0.7,0.6-1.4,1.4-1.4    c0.8,0,1.4,0.6,1.4,1.4C89.9,282.5,89.9,285.8,89.9,285.8z M90.3,278.4h-1.4v-2.6h1.4V278.4z M92.6,278.4h-1.4v-2.6h1.4V278.4z     M107.6,275.8h1.5v2.6h-1.4L107.6,275.8L107.6,275.8z M100.6,275.8h1.4v2.6h-1.4V275.8z M95,278.4h-1.5v-2.6H95V278.4z     M95.9,275.8h1.4v2.6h-1.5L95.9,275.8z M98.9,286.4c-0.9-0.2-1.8-0.4-2.7-0.6v-3.3c0-0.7,0.6-1.4,1.4-1.4c0.8,0,1.4,0.6,1.4,1.4    C98.9,282.5,98.9,286.4,98.9,286.4z M99.6,278.5h-1.4v-2.6h1.4V278.5L99.6,278.5z M102.3,287.7c-0.9-0.4-1.8-0.8-2.7-1.1v-4.1    c0-0.7,0.6-1.4,1.4-1.4c0.8,0,1.4,0.6,1.4,1.4L102.3,287.7L102.3,287.7z M102.8,275.9h1.5v2.6h-1.4L102.8,275.9L102.8,275.9z     M105.8,289.8c-0.9-0.7-1.8-1.2-2.7-1.8v-5.5c0-0.7,0.6-1.4,1.4-1.4s1.4,0.6,1.4,1.4C105.9,282.5,105.9,289.8,105.8,289.8z     M105.3,278.4v-2.6h1.4v2.6H105.3z M109.3,293.3c-0.8-1.1-1.7-2.1-2.7-3l0,0v-7.9c0-0.7,0.6-1.4,1.4-1.4c0.8,0,1.4,0.6,1.4,1.4    L109.3,293.3L109.3,293.3z M111.4,278.4H110v-2.6h1.4V278.4L111.4,278.4z M114.1,278.4h-1.4v-2.6h1.4V278.4z M122.1,275.8h1.4v2.6    h-1.4V275.8z M115.1,275.8h1.4v2.6h-1.4V275.8z M117.5,290.4L117.5,290.4c-1,0.9-1.9,1.9-2.7,3v-10.8c0-0.7,0.6-1.4,1.4-1.4    c0.8,0,1.4,0.6,1.4,1.4C117.5,282.5,117.5,290.4,117.5,290.4z M117.4,278.4v-2.6h1.4v2.6H117.4z M121,288c-1,0.5-1.9,1.1-2.7,1.8    v-7.3c0-0.7,0.6-1.4,1.4-1.4c0.8,0,1.4,0.6,1.4,1.4C121,282.5,121,288,121,288z M121.2,278.4h-1.4v-2.6h1.4V278.4z M124.4,286.6    c-0.9,0.3-1.8,0.7-2.7,1.1v-5.2c0-0.7,0.6-1.4,1.4-1.4c0.8,0,1.4,0.6,1.4,1.4L124.4,286.6L124.4,286.6z M124.4,275.8h1.4v2.6h-1.4    V275.8z M127.8,285.8c-0.9,0.1-1.8,0.3-2.7,0.6v-3.9c0-0.7,0.6-1.4,1.4-1.4s1.4,0.6,1.4,1.4L127.8,285.8L127.8,285.8z     M128.2,278.4h-1.4v-2.6h1.4V278.4z M130.6,278.4h-1.4v-2.6h1.4V278.4z M145.6,275.8h1.4v2.6h-1.4V275.8L145.6,275.8z     M138.6,275.8h1.4v2.6h-1.4V275.8z M133,278.4h-1.5v-2.6h1.4L133,278.4L133,278.4z M133.9,275.8h1.4v2.6h-1.4V275.8z M136.9,286.4    c-0.9-0.2-1.8-0.4-2.7-0.6v-3.3c0-0.7,0.6-1.4,1.4-1.4s1.4,0.6,1.4,1.4L136.9,286.4L136.9,286.4z M137.6,278.5h-1.4v-2.6h1.4    V278.5L137.6,278.5z M140.3,287.7c-0.9-0.4-1.8-0.8-2.7-1.1v-4.1c0-0.7,0.6-1.4,1.4-1.4s1.4,0.6,1.4,1.4L140.3,287.7L140.3,287.7    L140.3,287.7z M140.8,275.9h1.5v2.6h-1.4L140.8,275.9L140.8,275.9z M143.8,289.8c-0.9-0.7-1.8-1.2-2.7-1.8v-5.5    c0-0.7,0.6-1.4,1.4-1.4c0.8,0,1.4,0.6,1.4,1.4L143.8,289.8L143.8,289.8z M143.2,278.4v-2.6h1.4v2.6H143.2z M147.3,293.3    c-0.8-1.1-1.7-2.1-2.7-3l0,0v-7.9c0-0.7,0.6-1.4,1.4-1.4c0.8,0,1.4,0.6,1.4,1.4L147.3,293.3L147.3,293.3z M149.4,278.4h-1.5v-2.6    h1.4L149.4,278.4L149.4,278.4z"/>
		<polygon points="690.8,276.4 690.8,275.8 691.3,275.8 691.3,275 690.3,275 690.3,272.3 690.9,272.3 690.9,271.5     690.3,271.5 690.3,269.7 689.7,269.7 689.7,269.2 687.3,269.2 687.3,269.7 683.2,268.8 679.5,269.6 679.5,269.2 677.1,269.2     677.1,269.7 669.4,269.7 669.4,269.2 666.9,269.2 666.9,269.6 663,268.8 659.2,269.6 659.2,269.2 656.7,269.2 656.7,269.7     649,269.7 649,269.2 646.5,269.2 646.5,269.6 642.9,268.8 638.8,269.7 638.8,269.2 636.3,269.2 636.3,269.7 635.8,269.7     635.8,271.5 635.2,271.5 635.2,272.3 635.8,272.3 635.8,275 634.8,275 634.8,275.8 635.3,275.8 635.3,276.4 635.8,276.4     635.8,291.5 635.2,291.5 635.2,292.7 635.8,292.7 635.8,301 690.3,301 690.3,292.7 690.8,292.7 690.8,291.5 690.3,291.5     690.3,276.4   "/>
		<path d="M522.7,259.5v-1.4h-7.3v1.4h-13.6v-2.4h1v-1.7h-1.5v-0.8H499v-1.9h-0.9v-8.3h0.9v-2.6h-0.6v-1.4h-1.8v-0.7    h-0.8V234h0.8v-1.3h-1v-1h-0.8V230h-1.1v-1h-0.5v-0.2c0-5.4-3.2-10.4-8.2-12.5v-1.9h-1.5V214h-0.6v-6.8h0.9v-1.1H483v-0.7h-1    c0-0.1,0-0.2,0-0.2c0-0.6-0.5-1.1-1.1-1.1c0.1-0.2,0.1-0.4,0.1-0.6c0-0.5-0.2-1-0.6-1.4v-0.2c0-0.2,0.1-0.3,0.3-0.4    c0.2-0.1,0.3-0.3,0.3-0.5c0.3-0.5,0.4-1.1,0.4-1.6l0,0c0.1-0.4,0.1-0.9,0-1.3c0.1-0.3,0.1-0.6,0-0.9c0-0.1-0.1-0.3-0.3-0.4    c0-0.2-0.1-0.3-0.1-0.5c0.2-0.7,0-1.4-0.5-1.9c0-0.2,0-0.5,0-0.7c-0.1-0.3-0.3-0.6-0.6-0.8c-0.2-0.1-0.4,0-0.5,0.1    c-0.4,0.3-0.3,0.9-0.2,1.4l-0.1,0.1c-0.3,0.2-0.5,0.5-0.6,0.8c-0.1,0.2-0.1,0.3-0.1,0.5c-0.1,0.2-0.2,0.4-0.2,0.7v0.1    c-0.4,0.5-0.5,1.1-0.2,1.6c-0.1,0.3-0.1,0.6-0.1,0.9v0.1c0,0.1,0,0.2,0,0.2c0,0.3,0.1,0.7,0.3,1c0,0.4,0.2,0.7,0.5,0.9v0.8l0,0    c-0.6,0.4-0.8,1.2-0.6,1.9l0,0c-0.5,0.1-0.9,0.6-0.9,1.1c0,0.1,0,0.2,0,0.2h-1v0.7h-0.6v1.1h0.9v6.8h-0.6v0.3h-1.5v1.9    c-5,2.1-8.3,7.1-8.2,12.5v0.2h-0.5v1.1h-1.1v1.7h-0.8v1h-1v1.2h0.8v5.7h-0.8v0.7h-1.9v1.4h-0.6v2.6h1v8.3h-0.9v1.8H458v0.8h-1.5    v1.7h1v2.5H445v-1.5h-8.4v1.5h-3.4V301h92.9v-41.8L522.7,259.5L522.7,259.5L522.7,259.5z"/>
		<path d="M196.4,264.5v-7.1h-1v-1.7h-0.5v-0.1c-0.1-4.5-3.6-8.3-8.1-8.8h0.2v-1.9h-0.3v-0.7h-0.2v-1.8h0.5v-1.2h-0.5    c-0.3-0.8-1.2-1.1-1.9-0.8c-0.4,0.2-0.6,0.4-0.8,0.8h-0.5v1.2h0.6v1.8h-0.2v0.7h-0.3v1.9h0.2c-4.5,0.5-8,4.3-8.1,8.8h-1.8V301H191    v-29.6h2.2v29.5h2.9v-29.5h0.2v-3h1.6v-3.9H196.4z"/>
		<polygon points="290.7,292.2 290.7,281.5 261.6,281.5 257.6,46.8 257.6,46.8 249.5,23.4 241.4,46.8 241.5,46.8     237.4,281.5 208.3,281.5 208.3,292.2 203.9,292.2 203.9,301 295.1,301 295.1,292.2   "/>
		<path d="M823,300.2v-1.4h-2v-1.4h-0.2l-0.7-23.3l0.7-1v-0.7h-0.3v-3.5l1.5-2.5l0.1-0.7l0.4-0.5l-0.1-0.2h-0.2l0.1-1    v-0.5c-0.2-0.1-0.6,0.4-0.6,0.4l-0.4,0.8h-3.5c0-0.3-0.2-0.6-0.3-0.9c-0.1-0.1-0.3-0.1-0.4,0c-0.2,0.1-0.3,0.9-0.3,0.9h-3.5    c0,0-0.1-0.7-0.3-0.8c-0.2-0.1-0.3-0.1-0.5,0s-0.2,0.8-0.2,0.8h-1l0.1-8.9l0.3-0.9v-0.7h-0.5v-1h-2.7v0.2l-25.9,0.1l-14.5-1.1    l-15.4,1.2l-26,0.2v-0.2h-2.8v1.1h-0.6l0.1,0.6l0.5,0.6c-0.1,0.2,0.1,9.1,0.1,9.1h-1.3c0-0.2-0.1-0.5-0.2-0.7    c-0.1-0.1-0.3-0.1-0.4,0c-0.2,0.1-0.2,0.7-0.2,0.7H718c0,0-0.1-0.6-0.2-0.7c-0.1-0.1-0.3-0.1-0.5,0c-0.1,0.1-0.2,0.7-0.2,0.7h-3.5    l-0.6-0.7c0,0-0.4-0.4-0.5-0.2v0.5l0.1,0.9h-0.3v0.2l0.3,0.5l0.1,0.6l1.3,1.3v4.6h-0.3v0.7c0,0,0.8,0.9,0.8,1s-0.6,23.4-0.6,23.4    h-0.3v1.4h-1.9v1.4h-2v1.4l115.2-0.2v-1.5L823,300.2z M722.6,297.7h-4.4l-0.4-23.3l0.7-0.9l-0.1-0.7h3.6v0.7l0.8,0.9L722.6,297.7z     M816.8,297.3h-4.4l-0.5-23.2l0.7-1v-0.7h3.7v0.7l0.6,1L816.8,297.3z"/>
	</g>
	<g class="st4">
		<path d="M944.4,293v0.1c-0.3,0.2-0.6,0.4-0.8,0.7c-0.4,0.6-0.5,1.3-0.2,2c0.1,0.4,0.4,0.8,0.8,1c0,0.1,0,0.3,0.1,0.4    c-1.3,1.5-0.6,2.8,0.6,3.8h13.7c0.2-0.1,0.5-0.3,0.7-0.5c0.6-0.6,0.7-1.6,0.1-2.3c0-0.2,0-0.4-0.1-0.6c-0.1-0.3-0.3-0.6-0.5-0.9    c0.3-0.4,0.5-0.8,0.7-1.2c0.3-0.8,0.3-1.7,0-2.5c0.8-1.2,0.6-2.9-0.5-3.9c-0.4-0.5-1-0.9-1.5-1.2c0.2-0.4,0.3-0.8,0.3-1.2    c0-0.7-0.3-1.3-0.7-1.7c-0.2-0.2-0.5-0.5-0.8-0.6c0-0.1,0-0.2,0-0.3c-0.7-2.6-3.6-2.6-5.6-1.4l-0.1-0.1l0,0    c-0.2-0.3-0.4-0.5-0.7-0.7c-0.4-0.2-0.9-0.3-1.3-0.2c-0.4,0.1-0.8,0.4-1.1,0.8c-0.1,0.2-0.2,0.4-0.2,0.7c-0.4,0-0.8,0-1.2,0.2    c-1.3,0.3-2.1,1.7-1.7,3l0,0v0.1c-0.3,0.6-0.4,1.2-0.2,1.9c-0.6,0.4-1.1,1-1.2,1.7c-0.2,0.9,0.1,1.8,0.8,2.4    C943.9,292.8,944.2,292.9,944.4,293z"/>
		<path d="M676.9,296.6c-0.6,1.6,0,3.4,1.4,4.3l0.2,0.1h25.2l0.2-0.1c2.2-2.3,1.1-7.2-1.8-8.5c-0.5-0.3-1.2-0.3-1.7,0    c-1.5-1.9-4.1-2.5-6.3-1.4c-1.2-0.4-2.5-0.1-3.4,0.7c-0.7-0.7-1.6-1.1-2.6-1.2c-0.7-1.2-2-1.9-3.4-2.1c-1.9-0.1-2.9,1.6-3.5,3.2    c-2.5-0.1-6.1,1-4.9,4.3C676.4,296.1,676.6,296.3,676.9,296.6z"/>
		<path d="M918.4,298.6c-0.5,0.9-0.1,1.9,1.4,2.4h0.2h25.2l0.2-0.1c2.2-1.3,1.1-4-1.8-4.8c-0.6-0.1-1.1-0.1-1.7,0    c-1.9-1.1-4.2-1.4-6.3-0.8c-1.1-0.2-2.3-0.1-3.4,0.4c-0.8-0.4-1.7-0.6-2.6-0.7c-1-0.8-2.2-1.2-3.4-1.2c-1.4-0.1-2.8,0.6-3.5,1.8    c-2.5-0.1-6.1,0.6-4.9,2.4C917.9,298.3,918.1,298.4,918.4,298.6z"/>
		<path d="M462.7,300.9c0.1-0.3,0.2-0.7,0.2-1.1c0-1.3-0.5-2.5-1.4-3.5c-0.5-3.2-4.5-5.6-7.7-4.8c-0.6-0.6-1.2-1-2-1.2    c-1-0.2-2-0.1-2.9,0.4c-0.7,0.4-1.3,1-1.6,1.8c-2-2.2-5.2-3.7-7.9-2.6c-1.5-0.8-3.3-1.1-4.9-0.7c-1.7,0.6-2.8,2.1-3,3.8    c-1.8-0.1-3.5,0.5-4.7,1.8c-0.5-0.3-1.1-0.6-1.7-0.8c-0.2-1.6-1.1-3-2.4-3.9c-1.4-1-3.2-0.6-4.7,0.1c-0.1-0.1-0.2-0.2-0.4-0.3    c-1.4-0.9-3.3-0.9-4.7,0.1c-1.6,1.2-2.3,3.2-1.9,5.1c-0.5,0.2-0.8,0.6-1.1,1c-0.9,1.5-0.9,3.4-0.1,4.9L462.7,300.9L462.7,300.9z"/>
		<path d="M239.8,300.9c-0.1-0.3-0.2-0.7-0.2-1.1c0-1.3,0.5-2.5,1.4-3.5c0.5-3.2,4.5-5.6,7.7-4.8c0.6-0.6,1.2-1,2-1.2    c1-0.2,2-0.1,2.9,0.4c0.7,0.4,1.3,1,1.6,1.8c2-2.2,5.2-3.7,7.9-2.6c1.5-0.8,3.3-1.1,4.9-0.7c1.7,0.6,2.8,2.1,3,3.8    c1.8-0.1,3.5,0.5,4.7,1.8c0.5-0.3,1.1-0.6,1.7-0.8c0.2-1.6,1.1-3,2.4-3.9c1.4-1,3.2-0.6,4.7,0.1c0.1-0.1,0.2-0.2,0.4-0.3    c1.4-0.9,3.3-0.9,4.7,0.1c1.6,1.2,2.3,3.2,1.8,5.1c0.5,0.2,0.8,0.6,1.1,1c0.9,1.5,0.9,3.4,0.1,4.9L239.8,300.9L239.8,300.9z"/>
		<path d="M406.1,301h-42.7c0-0.1-0.1-0.2-0.2-0.2c-1.1-1.2-1.5-2.9-1-4.5c0.7-2.4,2.8-4.7,5.5-4.7h0.3    c1.6-0.5,3.3-0.6,4.9-0.1c0.6,0.1,1.2,0.6,1.5,1.1c0.3-0.6,0.8-1,1.4-1.1c0.9-0.3,1.9-0.3,2.8,0c0.2,0.1,0.3,0.1,0.5,0.2    c0.6-1,1.6-1.7,2.8-1.9c0.2,0,0.4,0,0.5,0c1.4-0.9,3.2-0.9,4.6,0c0.5,0.3,0.9,0.8,1.1,1.5c0.5,0.2,0.9,0.4,1.3,0.8    c0.3,0.3,0.5,0.6,0.7,1c0.2,0.4,0.3,0.9,0.3,1.4c0.3-0.3,0.6-0.6,0.9-0.9c0.4-0.3,1-0.5,1.5-0.6c0-0.8,0.3-1.5,0.6-2.2    c0.7-1.2,2-1.8,3.3-1.7c1.2,0,2.2,0.9,2.3,2.1c1.1-0.1,2.2,0.1,3.1,0.6c1.2,0.6,1.9,1.8,2,3.1c0.9,0.3,1.6,0.9,2.1,1.6    c0.7,1.2,0.8,2.8,0.1,4.1C406.3,300.7,406.2,300.8,406.1,301z"/>
		<path d="M575.1,301h33.1c0-0.1,0.1-0.1,0.1-0.2c0.9-0.9,1.2-2.3,0.8-3.5c-0.6-1.9-2.2-3.7-4.2-3.6h-0.3    c-1.2-0.4-2.5-0.4-3.8-0.1c-0.5,0.1-0.9,0.4-1.1,0.9c-0.2-0.4-0.6-0.8-1.1-0.9c-0.7-0.2-1.5-0.2-2.2,0l-0.4,0.2    c-0.5-0.8-1.2-1.3-2.1-1.5c-0.1,0-0.3,0-0.4,0c-1.1-0.7-2.5-0.7-3.6,0c-0.4,0.3-0.7,0.7-0.8,1.1c-0.4,0.1-0.7,0.3-1,0.6    c-0.2,0.2-0.4,0.5-0.5,0.7c-0.2,0.3-0.3,0.7-0.2,1.1c-0.2-0.3-0.4-0.5-0.7-0.7s-0.7-0.4-1.2-0.5c0-0.6-0.2-1.2-0.5-1.7    c-0.5-0.9-1.5-1.4-2.6-1.4c-0.9,0-1.7,0.7-1.8,1.6c-0.8-0.1-1.7,0.1-2.4,0.5c-0.9,0.5-1.5,1.4-1.6,2.4c-0.7,0.2-1.2,0.7-1.6,1.3    c-0.6,1-0.6,2.1-0.1,3.1C574.8,300.7,574.9,300.9,575.1,301z"/>
		<path d="M523.5,301h33.1c0-0.1,0.1-0.1,0.1-0.2c0.9-0.9,1.2-2.3,0.8-3.5c-0.6-1.9-2.2-3.7-4.2-3.6H553    c-1.2-0.4-2.5-0.4-3.8-0.1c-0.5,0.1-0.9,0.4-1.1,0.9c-0.2-0.4-0.6-0.8-1.1-0.9c-0.7-0.2-1.5-0.2-2.2,0c-0.8,0.5-1.8,0.2-2.3-0.6    c-0.1-0.2-0.2-0.5-0.2-0.7c-0.1,0-0.3,0-0.4,0c-1.1-0.7-2.5-0.7-3.6,0c-0.4,0.3-0.7,0.7-0.8,1.1c-0.4,0.1-0.7,0.3-1,0.6    c-0.2,0.2-0.4,0.5-0.5,0.7c-0.2,0.3-0.3,0.7-0.2,1.1c-0.2-0.3-0.4-0.5-0.7-0.7c-0.3-0.2-0.7-0.4-1.2-0.5c0-0.6-0.2-1.2-0.5-1.7    c-0.5-0.9-1.5-1.4-2.6-1.4c-0.9,0-1.7,0.7-1.8,1.6c-0.8-0.1-1.7,0.1-2.4,0.5c-0.9,0.5-1.5,1.4-1.6,2.4c-0.7,0.2-1.2,0.7-1.6,1.3    c-0.6,1-0.6,2.1-0.1,3.1C523.3,300.7,523.4,300.9,523.5,301z"/>
		<path d="M628.7,301h8.3c0.2-0.4,0.1-0.8-0.1-1.2c0.3-0.3,0.5-0.7,0.7-1.1l0,0c2.3-0.5,1.7-4.1-0.1-5.1    c0.1-0.4,0.1-0.7,0.1-1.1c0-0.1,0-0.2,0-0.4c0.4-1,0.5-2.1,0.2-3.1c-0.2-1.3-1.5-2.2-2.8-2c-0.4,0.1-0.8,0.2-1.1,0.5    c-1.7-0.4-3.5,0.2-3.9,1.9c-0.5,0.1-1,0.2-1.4,0.4c-0.6,0.3-1.1,0.8-1.3,1.4c-0.1,0.5,0,0.9,0.2,1.4c-0.7,0.8-0.9,1.9-0.4,2.8    c0.2,0.3,0.4,0.6,0.6,0.8c-0.4,0-0.8,0.3-0.9,0.8C626.2,298.9,627.2,300.2,628.7,301z"/>
		<path d="M702.9,296.9c-0.2,0.8,0.1,1.6,0.7,2.1c-0.1,0.3,0,0.7,0.2,1h11.8c0.1-0.2,0.1-0.4,0-0.6c0.7-0.4,1-1.2,0.8-2    c0.3-0.1,0.4-0.4,0.4-0.7c-0.1-1.1-0.9-2.1-2-2.2c0.4-0.3,0.5-0.8,0.3-1.1c-0.3-0.8-1.2-1.1-2-0.9c-0.3-0.7-0.8-1.3-1.4-1.6    c-0.7-0.5-1.7-0.3-2.2,0.5c-0.3-0.2-0.7-0.1-1,0.1c-0.3,0.4-0.5,0.8-0.6,1.2c-0.4,0-0.9,0.1-1.3,0.3c-0.4,0.2-0.7,0.5-0.8,1    c-0.1-0.2-0.3-0.3-0.5-0.3c-0.8-0.2-1.7,0.2-2.1,0.9c-0.4,0.6-0.5,1.4-0.3,2.1C702.8,296.7,702.8,296.8,702.9,296.9z"/>
		<path d="M816.5,295.9c0-0.2,0-0.4-0.1-0.5c-0.1-0.3-0.2-0.6-0.4-0.8c0.1-0.2,0.1-0.3,0-0.5c-0.2-0.7-0.5-1.4-0.9-2    c-0.3-0.4-0.8-0.6-1.3-0.6c0-0.4,0-0.8-0.1-1.1c-0.1-0.4-0.4-0.7-0.7-0.9c-0.1-0.2-0.2-0.4-0.4-0.6c-0.2-0.2-0.5-0.3-0.8-0.2v-0.1    c-0.1-0.4-0.6-0.7-1-0.6c-0.6,0.3-1.1,0.6-1.6,1.1c-0.4-0.3-0.9-0.4-1.3-0.3c-0.6,0.2-1,0.7-1.2,1.3c0,0.1,0,0.2,0,0.4    c-0.2,0-0.4,0-0.6,0c-0.5,0.1-1,0.4-1.2,0.8c0,0.1-0.1,0.1-0.1,0.2c-0.2,0.1-0.4,0.2-0.5,0.4c-0.2,0.3-0.4,0.6-0.6,1    c-0.4-0.2-0.9-0.1-1.2,0.3c-0.1,0.1-0.1,0.2-0.1,0.4c0,0.5,0.1,0.9,0.3,1.4c-0.4,0.1-0.7,0.6-0.6,1c0.1,0.6,0.4,1.1,0.9,1.5    c-0.4,0.7-0.2,1.6,0.4,2.1c-0.1,0.5,0.2,1.1,0.7,1.4h11.3c0.4-0.3,0.7-0.8,0.8-1.4c0.2,0,0.3,0,0.5-0.1c0.7-0.4,1.2-1.2,1.3-2    C817.6,296.6,817.1,296.1,816.5,295.9z"/>
		<path d="M294.2,301h53.3c0.6-0.5,1.1-1.1,1.4-1.7c0.7-1.1,0.4-2.5-0.7-3.1c-0.6-0.4-1.5-0.5-2.2-0.2    c0.5-0.3-0.7-1.4-1.6-2c-0.2-0.5-0.4-1-0.6-1.5c-1-1.9-3-3.1-4.8-1.8c-0.2,0.1-0.3,0.3-0.4,0.4c-0.3-0.3-0.6-0.6-0.9-0.9    c-0.4-0.4-0.9-0.6-1.5-0.6c-0.7-0.7-1.6-1.2-2.6-1.2c-1.3,0.1-2.5,0.7-3.4,1.7c-0.5,0.5-0.7,1.2-0.6,1.8h-0.1    c-0.9-1.2-1.9-2.1-3.1-2c-1-0.6-2.2-0.9-3.3-0.6H323c-0.4-0.9-1.4-1.3-2.4-1.1c-0.5,0.2-1,0.6-1.2,1.1c-1.8-1.2-4.2-1.1-5.9,0.4    c-0.8-1.6-2.3-2.9-4-3.6c-1-0.3-2.1,0.3-2.4,1.3c0,0,0,0,0,0.1c-0.4-0.2-0.8-0.3-1.3-0.3c-1,0.1-1.8,0.8-2,1.8    c-2-1.6-5.2-1.5-6.3,1.2c-0.1,0-0.3,0-0.4,0.1c-2.6,0.8-3,3.7-2.2,6.2v0.1C293,296.9,292.9,299.8,294.2,301z"/>
		<path d="M143.8,301h50.9c0.5-0.4,1-0.9,1.4-1.4c1.2-1.8-1.1-3.5-2.7-2.7c0.5-0.2-0.7-1.1-1.5-1.7    c-0.2-0.4-0.3-0.8-0.6-1.2c-0.9-1.6-2.9-2.6-4.6-1.4c-0.1,0.1-0.3,0.2-0.4,0.3c-0.3-0.2-0.5-0.5-0.8-0.7c-0.4-0.3-0.9-0.5-1.4-0.5    c-0.7-0.6-1.6-1-2.5-1c-1.2,0.1-2.4,0.6-3.2,1.4c-0.4,0.4-0.6,0.9-0.6,1.5h-0.1c-0.7-1-1.8-1.6-3-1.6c-1-0.5-2.1-0.7-3.1-0.5h-0.1    c-0.5-0.8-1.4-1.1-2.3-0.9c-0.5,0.1-0.9,0.4-1.1,0.9c-1.8-1-4-0.9-5.6,0.3c-0.9-1.4-2.2-2.5-3.8-2.9c-0.9-0.3-2,0.2-2.3,1.2    c-0.4-0.1-0.8-0.2-1.2-0.2c-0.9,0-1.7,0.6-1.9,1.5c-2-1.4-5-1.2-6,1c-0.1,0-0.3,0-0.4,0.1c-2.4,0.6-2.9,3-2.1,5.1v0.1    C142.7,297.7,142.5,300,143.8,301z"/>
		<path d="M223.3,296.1c0.1,0.8,0.5,1.6,1.2,2.1c-0.8,0.5-1.2,1.4-1,2.3c0.1,0.2,0.1,0.3,0.2,0.5h13.1    c0.2-0.3,0.3-0.6,0.4-1c0.1-0.3,0-0.6-0.1-0.9c0.1-0.1,0.2-0.2,0.3-0.3c0.6-0.6,0.6-1.6,0-2.2c-0.3-0.3-0.8-0.5-1.3-0.4    c0.6-0.4,1-0.9,1.2-1.5c0.5-1.4-0.3-2.7-1.4-3.7c-0.1-0.5-0.3-1-0.6-1.5c-0.4-0.8-1.1-1.3-2-1.4c-0.1,0-0.3,0-0.4,0    c-0.6-0.8-1.6-1.4-2.6-1.6c-1.6-0.2-3.2,0.5-4,1.8c-0.1,0.2-0.2,0.4-0.2,0.6c-1.3,0.2-2.3,1.3-2.4,2.6c-0.1,0.9,0.3,1.8,1.1,2.4    C223.9,294.1,223.2,295.1,223.3,296.1z"/>
		<path d="M200,294.6c-0.6,0.3-1,0.9-1.1,1.5c-0.2,1.1,0.2,2.2,1.1,2.9l0,0c-0.2,0.3-0.4,0.6-0.4,0.9    c0,0.4,0,0.8,0.1,1.1h18.5c0.3-0.2,0.6-0.4,0.8-0.7c0.3-0.3,0.4-0.8,0.3-1.2c0.2-0.6,0.3-1.3,0.2-1.9c1-1,0.9-2.6-0.1-3.6    c-0.1-0.1-0.3-0.2-0.4-0.3c0-0.3,0-0.6-0.1-1c-0.3-0.9-0.9-1.7-1.7-2.2c0-0.1,0-0.1,0-0.2c0.1-0.7-0.2-1.5-0.7-2    c-0.1-1.3-1.2-2.3-2.6-2.2c-0.3-1.1-1.3-1.8-2.4-1.7c-0.8,0.1-1.5,0.3-2.2,0.8c-1.1-0.2-2.3,0-3.4,0.4c-0.9,0.4-1.5,1.2-1.6,2.2    c-0.3,0.1-0.6,0.2-0.8,0.5h-0.1c-1.4-0.7-3.1-0.1-3.8,1.3c-0.3,0.6-0.5,1.2-0.4,1.9c-0.3,0.3-0.4,0.6-0.5,1    C198.7,293,199.1,294,200,294.6z"/>
	</g>
</svg>
