<svg id="Layer_1" data-name="Layer 1" xmlns="http://www.w3.org/2000/svg" viewBox="0 0 165 165"><defs><style>.cls-1{fill:#012169;}</style></defs><title>Happenings</title><path class="cls-1" d="M82.5,0A77.73,77.73,0,0,0,28.23,133.4l-8.61,27.31A3.29,3.29,0,0,0,22.76,165a3.35,3.35,0,0,0,1.51-.36l29-14.83a76.86,76.86,0,0,0,26.84,5.57,23.21,23.21,0,0,0,2.37.12A77.75,77.75,0,0,0,82.5,0ZM60.92,10C55,15.92,50,24.28,46.24,34.38a6.36,6.36,0,0,0-3.9,2.84H24.1A71.41,71.41,0,0,1,60.92,10ZM20,43.82H42.34a6.14,6.14,0,0,0,.69.92A132.06,132.06,0,0,0,39.1,74.45H11.52A70.68,70.68,0,0,1,20,43.82ZM11.44,81.05H39.1A132.14,132.14,0,0,0,43,110.76a5.59,5.59,0,0,0-.69.91H20A71.25,71.25,0,0,1,11.44,81.05Zm43,62.1a3.33,3.33,0,0,0-2.81.09L28.28,155.18l6.86-21.76a3.29,3.29,0,0,0-.9-3.41,70.78,70.78,0,0,1-10.17-11.74H42.34a6.29,6.29,0,0,0,3.9,2.84C50,131.23,55,139.6,61,145.56,58.76,144.86,56.59,144.07,54.46,143.15Zm24.74,5.43c-10.78-2-20.39-13.32-26.53-29.69a7,7,0,0,0,.45-.62H79.2Zm0-36.91H53.12a6.25,6.25,0,0,0-3.6-2.74A123.85,123.85,0,0,1,45.7,81.05H79.2Zm0-37.22H45.7a123.77,123.77,0,0,1,3.82-27.88,6.31,6.31,0,0,0,3.6-2.75H79.2Zm0-37.23H53.12a7,7,0,0,0-.45-.62C58.81,20.24,68.42,8.86,79.2,6.91Zm74.28,37.23H134.83a12.64,12.64,0,0,0-9.41-9,126.56,126.56,0,0,0-3.68-21.58H145A70.68,70.68,0,0,1,153.48,74.45ZM129,77.75a6.34,6.34,0,1,1-6.33-6.34A6.32,6.32,0,0,1,129,77.75ZM140.9,37.22H119.77C116,25.85,110.55,16.47,104.08,10A71.41,71.41,0,0,1,140.9,37.22ZM85.8,6.91c10.92,2,20.63,13.62,26.76,30.31H85.8Zm0,36.91h28.92a117.92,117.92,0,0,1,4.07,21.92,12.63,12.63,0,0,0-8.33,8.71H85.8Zm0,37.23h24.66a12.63,12.63,0,0,0,8.33,8.71,118,118,0,0,1-4.07,21.91H85.8Zm0,67.53V118.27h26.76C106.43,135,96.72,146.61,85.8,148.58Zm18.28-3.05c6.47-6.5,11.88-15.88,15.69-27.26H140.9A71.43,71.43,0,0,1,104.08,145.53Zm41-33.86H121.74a126.39,126.39,0,0,0,3.68-21.58,12.61,12.61,0,0,0,9.41-9h18.65A70.72,70.72,0,0,1,145,111.67Z"/></svg>