<?xml version="1.0" encoding="utf-8"?>
<!-- Generator: Adobe Illustrator 20.1.0, SVG Export Plug-In . SVG Version: 6.00 Build 0)  -->
<svg version="1.1" id="Layer_1" xmlns="http://www.w3.org/2000/svg" xmlns:xlink="http://www.w3.org/1999/xlink" x="0px" y="0px"
	 viewBox="0 0 100 100" style="enable-background:new 0 0 100 100;" xml:space="preserve">
<style type="text/css">
	.st0{fill:#0082B6;}
	.st1{fill:#FFFFFF;}
</style>
<title>Gattex Icon Set_blue</title>
<rect x="43.9" y="19.9" transform="matrix(0.8088 -0.5881 0.5881 0.8088 -19.1883 36.8914)" class="st0" width="6.5" height="56.2"/>
<path class="st1" d="M61,73.5c-0.3,0-0.6-0.1-0.7-0.4l-33-45.4c-0.3-0.4-0.2-1,0.2-1.3c0,0,0,0,0,0l5.3-3.9c0.4-0.3,1-0.2,1.3,0.2
	c0,0,0,0,0,0l33,45.4c0.3,0.4,0.2,1-0.2,1.3c0,0,0,0,0,0l-5.3,3.9C61.4,73.4,61.2,73.5,61,73.5z M29.2,27.4l31.9,43.9l3.8-2.8
	L33.1,24.6L29.2,27.4z"/>
<polygon class="st0" points="66.3,68.7 72.6,83.7 61,72.6 "/>
<path class="st1" d="M72.6,84.6c-0.2,0-0.5-0.1-0.6-0.2L60.3,73.3C60,73,60,72.4,60.3,72c0,0,0.1-0.1,0.1-0.1l5.3-3.9
	c0.2-0.2,0.5-0.2,0.8-0.1c0.3,0.1,0.5,0.3,0.6,0.5l6.3,14.9c0.2,0.5,0,1-0.5,1.2C72.9,84.6,72.7,84.7,72.6,84.6L72.6,84.6z
	 M62.4,72.7l7.7,7.4l-4.2-9.9L62.4,72.7z"/>
<rect x="26.6" y="20.2" transform="matrix(0.8088 -0.5881 0.5881 0.8088 -7.8658 21.2898)" class="st0" width="4.5" height="5.1"/>
<path class="st1" d="M28.5,27c-0.3,0-0.6-0.1-0.7-0.4l-3-4.1c-0.3-0.4-0.2-1,0.2-1.3c0,0,0,0,0,0l3.6-2.6c0.4-0.3,1-0.2,1.3,0.2
	c0,0,0,0,0,0l3,4.1c0.3,0.4,0.2,1-0.2,1.3c0,0,0,0,0,0L29,26.8C28.9,26.9,28.7,27,28.5,27z M26.8,22.2l1.9,2.6l2.2-1.6l-1.9-2.6
	L26.8,22.2z"/>
<polygon class="st0" points="50.4,40.2 50.4,40.2 36.7,21.3 36.7,21.3 "/>
<path class="st1" d="M50.4,41.1c-0.3,0-0.6-0.1-0.7-0.4L35.9,21.8c-0.3-0.4-0.2-1,0.2-1.3c0.4-0.3,1-0.2,1.3,0.2l0,0l13.8,18.9
	c0.3,0.4,0.1,1-0.3,1.2C50.7,41,50.5,41.1,50.4,41.1z"/>
</svg>
