<?xml version="1.0" encoding="UTF-8"?>
<svg width="142px" height="29px" viewBox="0 0 142 29" version="1.1" xmlns="http://www.w3.org/2000/svg" xmlns:xlink="http://www.w3.org/1999/xlink">
    <!-- Generator: Sketch 47.1 (45422) - http://www.bohemiancoding.com/sketch -->
    <title>Group</title>
    <desc>Created with Sketch.</desc>
    <defs>
        <polygon id="path-1" points="19.562 0.6819 19.562 24 0 24 0 0.6819"></polygon>
        <polygon id="path-3" points="0 23.3183 124.229 23.3183 124.229 0.0003 0 0.0003"></polygon>
    </defs>
    <g id="Page-1" stroke="none" stroke-width="1" fill="none" fill-rule="evenodd">
        <g id="Group">
            <g id="Page-1">
                <g id="Group-3" transform="translate(0.000000, 4.506700)">
                    <mask id="mask-2" fill="white">
                        <use xlink:href="#path-1"></use>
                    </mask>
                    <g id="Clip-2"></g>
                    <path d="M1.4364,23.9999 C0.6444,23.9999 -0.0006,23.3549 -0.0006,22.5639 L-0.0006,2.1179 C-0.0006,1.3259 0.6444,0.6819 1.4364,0.6819 L3.2904,0.6819 L3.2904,2.5099 L1.7744,2.5099 L1.7744,22.1339 L17.7884,22.1339 L17.7884,2.5099 L16.3984,2.5099 L16.3984,0.6819 L18.1254,0.6819 C18.9174,0.6819 19.5624,1.3259 19.5624,2.1179 L19.5624,22.5639 C19.5624,23.3549 18.9174,23.9999 18.1254,23.9999 L1.4364,23.9999 Z" id="Fill-1" fill="#3399FF" mask="url(#mask-2)"></path>
                </g>
                <path d="M3.8993,24.6023 L3.8993,9.2123 C4.2113,9.5103 4.7043,9.7633 5.4833,9.7633 L14.2453,9.7633 C14.9053,9.7633 15.3603,9.5813 15.6733,9.3453 L15.6733,24.6573 L3.8993,24.6023 Z" id="Fill-4" fill="#3399FF"></path>
                <path d="M13.5224,3.6707 L11.0534,3.6707 C11.5304,3.2927 11.8414,2.7167 11.8414,2.0617 C11.8414,0.9227 10.9194,-0.0003 9.7814,-0.0003 C8.6434,-0.0003 7.7204,0.9227 7.7204,2.0617 C7.7204,2.7167 8.0324,3.2927 8.5084,3.6707 L6.0404,3.6707 C5.5954,3.6707 5.2344,4.0307 5.2344,4.4767 L5.2344,4.8367 L5.2344,7.0667 L5.2344,7.0727 C5.2344,7.5187 5.5954,7.8787 6.0404,7.8787 L13.5224,7.8787 C13.9674,7.8787 14.3284,7.5187 14.3284,7.0727 L14.3284,7.0667 L14.3284,4.8367 L14.3284,4.4767 C14.3284,4.0307 13.9674,3.6707 13.5224,3.6707" id="Fill-6" fill="#3399FF"></path>
            </g>
            <g id="Page-1" transform="translate(17.000000, 5.189941)">
                <path d="M15.5875,15.16 C15.3715,15.472 15.0315,15.628 14.5675,15.628 C14.2955,15.628 14.0935,15.559 13.9625,15.424 C13.8295,15.288 13.7075,15.056 13.5955,14.727 L13.0315,13.108 C12.8795,12.683 12.7055,12.386 12.5095,12.214 C12.3145,12.042 12.0525,11.956 11.7245,11.956 C11.6515,11.956 11.4155,11.964 11.0155,11.979 L11.0155,15.544 C10.8165,15.584 10.5605,15.603 10.2475,15.603 C9.9355,15.603 9.6835,15.584 9.4915,15.544 L9.4915,7.348 C9.6835,7.307 9.9355,7.288 10.2475,7.288 C10.5605,7.288 10.8165,7.307 11.0155,7.348 L11.0155,10.672 L11.5435,10.66 C11.6715,10.66 11.7675,10.636 11.8315,10.588 C11.8965,10.54 11.9645,10.444 12.0355,10.3 L13.4275,7.876 C13.5395,7.668 13.6535,7.52 13.7695,7.431 C13.8865,7.344 14.0715,7.3 14.3275,7.3 C14.5835,7.3 14.8635,7.311 15.1675,7.336 L15.2635,7.456 L13.5835,10.408 C13.4315,10.688 13.2475,10.924 13.0315,11.116 C13.4075,11.187 13.6975,11.34 13.9015,11.572 C14.1055,11.804 14.2835,12.128 14.4355,12.544 L15.0235,14.187 C15.1835,14.643 15.3715,14.968 15.5875,15.16 Z" id="Fill-1" fill="#3399FF"></path>
                <path d="M22.8844,7.2879 L22.9554,7.3599 L22.9554,15.5189 C22.7324,15.5759 22.4394,15.6029 22.0794,15.6029 C21.7204,15.6029 21.4044,15.5839 21.1324,15.5439 L18.8394,10.7919 C18.6404,10.3839 18.3964,9.8279 18.1074,9.1239 L18.0604,9.1359 C18.1404,10.1359 18.1794,11.1999 18.1794,12.3279 L18.1794,15.5439 C17.9724,15.5839 17.7344,15.6029 17.4664,15.6029 C17.1974,15.6029 16.9634,15.5839 16.7634,15.5439 L16.7634,7.3719 C16.9884,7.3159 17.2784,7.2879 17.6344,7.2879 C17.9894,7.2879 18.3004,7.3079 18.5644,7.3479 L20.8314,12.0879 C21.0394,12.5189 21.3044,13.1079 21.6234,13.8509 L21.6594,13.8399 C21.5794,12.7039 21.5394,11.6319 21.5394,10.6239 L21.5394,8.2239 C21.5394,7.8879 21.6034,7.6469 21.7324,7.5039 C21.8594,7.3599 22.0754,7.2879 22.3804,7.2879 L22.8844,7.2879 Z" id="Fill-3" fill="#3399FF"></path>
                <path d="M27.941,8.3797 C26.713,8.3797 26.099,9.4017 26.099,11.4457 C26.099,13.4897 26.713,14.5117 27.941,14.5117 C29.17,14.5117 29.784,13.4897 29.784,11.4457 C29.784,9.4017 29.17,8.3797 27.941,8.3797 M25.788,14.9797 C24.931,14.2517 24.503,13.0737 24.503,11.4457 C24.503,9.8177 24.931,8.6397 25.788,7.9117 C26.372,7.4237 27.087,7.1797 27.935,7.1797 C28.784,7.1797 29.507,7.4237 30.107,7.9117 C30.956,8.6397 31.379,9.8177 31.379,11.4457 C31.379,13.0737 30.956,14.2517 30.107,14.9797 C29.507,15.4677 28.784,15.7117 27.935,15.7117 C27.087,15.7117 26.372,15.4677 25.788,14.9797" id="Fill-5" fill="#3399FF"></path>
                <path d="M33.648,14.8836 L32.171,7.4316 C32.451,7.3116 32.725,7.2516 32.994,7.2516 C33.261,7.2516 33.455,7.3116 33.576,7.4316 C33.695,7.5516 33.779,7.7676 33.828,8.0796 L34.488,11.7766 C34.639,12.6486 34.74,13.2766 34.787,13.6596 C34.835,14.0436 34.865,14.2416 34.877,14.2536 C34.889,14.2656 34.916,14.2716 34.955,14.2716 L36.143,7.5156 C36.439,7.4676 36.771,7.4446 37.139,7.4446 C37.507,7.4446 37.832,7.4676 38.111,7.5156 L39.203,14.1276 C39.21,14.1926 39.223,14.2326 39.24,14.2476 C39.255,14.2636 39.283,14.2716 39.324,14.2716 C39.412,13.5436 39.544,12.7076 39.719,11.7636 L40.547,7.3476 C40.732,7.3076 40.955,7.2876 41.219,7.2876 C41.484,7.2876 41.731,7.3206 41.963,7.3836 L42.035,7.4796 L40.367,15.5316 C40.007,15.5796 39.627,15.6036 39.228,15.6036 C38.828,15.6036 38.549,15.5556 38.393,15.4596 C38.238,15.3636 38.139,15.1716 38.099,14.8836 L37.584,11.9076 C37.367,10.5316 37.223,9.5686 37.152,9.0156 L37.068,9.0156 C36.923,10.0316 36.767,10.9956 36.599,11.9076 L35.939,15.5316 C35.572,15.5796 35.191,15.6036 34.799,15.6036 C34.408,15.6036 34.131,15.5556 33.971,15.4596 C33.811,15.3636 33.703,15.1716 33.648,14.8836" id="Fill-7" fill="#3399FF"></path>
                <path d="M45.9586,14.2479 L48.2276,14.2479 C48.2276,14.5119 48.2146,14.7039 48.1906,14.8239 C48.1036,15.3199 47.7706,15.5679 47.1946,15.5679 L44.2306,15.5679 C43.9586,15.5679 43.7426,15.4859 43.5836,15.3219 C43.4236,15.1579 43.3436,14.9319 43.3436,14.6439 L43.3436,7.3599 L43.4276,7.2879 L43.9906,7.2879 C44.2946,7.2879 44.5196,7.3639 44.6636,7.5159 C44.8076,7.6679 44.8786,7.9159 44.8786,8.2599 L44.8786,14.2839 C45.2636,14.2599 45.6226,14.2479 45.9586,14.2479" id="Fill-9" fill="#3399FF"></path>
                <path d="M51.0475,13.5877 L51.0345,14.2957 C51.3715,14.2797 51.6485,14.2717 51.8625,14.2717 L54.8395,14.2717 C54.8395,14.5197 54.8315,14.7077 54.8165,14.8357 C54.7275,15.3237 54.4005,15.5677 53.8315,15.5677 L50.4115,15.5677 C50.1395,15.5677 49.9255,15.4857 49.7695,15.3217 C49.6125,15.1577 49.5345,14.9317 49.5345,14.6437 L49.5345,7.4317 L49.6185,7.3477 L54.5755,7.3477 C54.6145,7.5397 54.6355,7.7377 54.6355,7.9417 C54.6355,8.1457 54.5955,8.3757 54.5155,8.6317 L51.0345,8.6317 L51.0475,9.4477 L51.0475,10.7917 C51.2395,10.7837 51.4955,10.7797 51.8165,10.7797 L53.9035,10.7797 C53.9585,10.9717 53.9875,11.1817 53.9875,11.4097 C53.9875,11.6377 53.9585,11.8477 53.9035,12.0397 L51.8165,12.0397 C51.4955,12.0397 51.2395,12.0357 51.0475,12.0277 L51.0475,13.5877 Z" id="Fill-11" fill="#3399FF"></path>
                <path d="M60.7848,13.4139 C60.9088,13.1059 60.9928,12.7979 61.0368,12.4899 C61.0818,12.1819 61.1028,11.8339 61.1028,11.4459 C61.1028,11.0579 61.0818,10.7099 61.0368,10.4019 C60.9928,10.0939 60.9088,9.7859 60.7848,9.4769 C60.6608,9.1699 60.4668,8.9299 60.2028,8.7579 C59.9388,8.5859 59.5708,8.4999 59.0988,8.4999 C58.6268,8.4999 58.2268,8.4959 57.8988,8.4879 L57.8988,14.3919 L59.2308,14.3919 C59.6148,14.3919 59.9388,14.3059 60.2028,14.1339 C60.4668,13.9619 60.6608,13.7219 60.7848,13.4139 M62.4048,9.3759 C62.5858,9.9519 62.6758,10.6419 62.6758,11.4459 C62.6758,12.2499 62.5858,12.9419 62.4048,13.5209 C62.2248,14.1019 61.8828,14.5959 61.3788,15.0039 C61.1308,15.2039 60.8048,15.3539 60.4008,15.4539 C59.9978,15.5539 59.5878,15.6029 59.1718,15.6029 C58.7558,15.6029 57.8508,15.5879 56.4588,15.5559 L56.3748,15.4839 L56.3748,7.4079 L56.4588,7.3359 C57.3788,7.3039 58.3068,7.2879 59.2438,7.2879 C59.6108,7.2879 59.9978,7.3399 60.4008,7.4439 C60.8048,7.5479 61.1308,7.6999 61.3788,7.8999 C61.8828,8.3079 62.2248,8.7999 62.4048,9.3759" id="Fill-13" fill="#3399FF"></path>
                <path d="M67.3785,11.1034 L69.2385,11.0914 L69.2635,11.0914 C69.9505,11.0914 70.2945,11.4154 70.2945,12.0634 L70.2945,15.1964 C69.3585,15.5404 68.3215,15.7114 67.1875,15.7114 C66.0505,15.7114 65.1945,15.3264 64.6185,14.5534 C64.0425,13.7824 63.7545,12.7294 63.7545,11.3974 C63.7545,10.0664 64.1125,9.0304 64.8285,8.2904 C65.5445,7.5494 66.4205,7.1794 67.4565,7.1794 C68.4925,7.1794 69.4315,7.4714 70.2715,8.0554 C70.2465,8.2714 70.1645,8.4844 70.0245,8.6924 C69.8845,8.9004 69.7305,9.0594 69.5625,9.1714 C68.8905,8.7004 68.2085,8.4634 67.5175,8.4634 C66.8245,8.4634 66.2865,8.7094 65.9015,9.2024 C65.5195,9.6944 65.3265,10.4634 65.3265,11.5114 C65.3265,13.4884 66.0545,14.4754 67.5115,14.4754 C67.9355,14.4754 68.3785,14.4234 68.8435,14.3204 L68.8435,13.1794 C68.8435,12.8204 68.8515,12.5554 68.8665,12.3874 L67.9905,12.3874 C67.7425,12.3874 67.5605,12.3374 67.4445,12.2384 C67.3285,12.1374 67.2715,11.9784 67.2715,11.7574 C67.2715,11.5384 67.3065,11.3204 67.3785,11.1034" id="Fill-15" fill="#3399FF"></path>
                <path d="M73.523,13.5877 L73.511,14.2957 C73.847,14.2797 74.123,14.2717 74.339,14.2717 L77.314,14.2717 C77.314,14.5197 77.306,14.7077 77.291,14.8357 C77.203,15.3237 76.875,15.5677 76.306,15.5677 L72.886,15.5677 C72.615,15.5677 72.401,15.4857 72.246,15.3217 C72.089,15.1577 72.011,14.9317 72.011,14.6437 L72.011,7.4317 L72.095,7.3477 L77.05,7.3477 C77.091,7.5397 77.111,7.7377 77.111,7.9417 C77.111,8.1457 77.072,8.3757 76.992,8.6317 L73.511,8.6317 L73.523,9.4477 L73.523,10.7917 C73.714,10.7837 73.97,10.7797 74.291,10.7797 L76.378,10.7797 C76.435,10.9717 76.462,11.1817 76.462,11.4097 C76.462,11.6377 76.435,11.8477 76.378,12.0397 L74.291,12.0397 C73.97,12.0397 73.714,12.0357 73.523,12.0277 L73.523,13.5877 Z" id="Fill-17" fill="#3399FF"></path>
                <path d="M85.8707,10.3475 L85.8707,10.2515 C85.8707,9.7475 85.7537,9.3145 85.5167,8.9505 C85.2807,8.5855 84.8867,8.4045 84.3357,8.4045 C83.1827,8.4045 82.6067,9.4315 82.6067,11.4885 C82.6067,12.4155 82.7687,13.1295 83.0937,13.6295 C83.4177,14.1295 83.8867,14.3795 84.5037,14.3795 C85.1187,14.3795 85.8067,14.0835 86.5657,13.4925 C86.7257,13.6045 86.8787,13.7535 87.0227,13.9425 C87.1677,14.1295 87.2597,14.3075 87.2987,14.4755 C86.9387,14.8355 86.4817,15.1315 85.9317,15.3645 C85.3787,15.5955 84.8067,15.7115 84.2147,15.7115 C83.6227,15.7115 83.1147,15.5915 82.6907,15.3515 C82.2667,15.1125 81.9347,14.7845 81.6947,14.3685 C81.2297,13.5765 80.9997,12.6125 80.9997,11.4755 C80.9997,10.0595 81.3157,8.9905 81.9527,8.2655 C82.5897,7.5415 83.3707,7.1795 84.2987,7.1795 C85.2257,7.1795 85.9647,7.4135 86.5137,7.8815 C87.0597,8.3495 87.3357,8.9155 87.3357,9.5795 C87.3357,10.1485 87.0467,10.4315 86.4707,10.4315 C86.2637,10.4315 86.0617,10.4045 85.8707,10.3475" id="Fill-19" fill="#3399FF"></path>
                <path d="M93.359,10.6834 L93.345,9.7954 L93.345,7.3474 C93.546,7.3074 93.8,7.2874 94.109,7.2874 C94.416,7.2874 94.67,7.3074 94.871,7.3474 L94.871,15.5434 C94.662,15.5834 94.406,15.6034 94.103,15.6034 C93.798,15.6034 93.546,15.5834 93.345,15.5434 L93.345,12.8434 L93.359,11.9554 L92.711,11.9674 L90.921,11.9674 L90.275,11.9554 L90.287,12.8434 L90.287,15.5434 C90.086,15.5834 89.83,15.6034 89.519,15.6034 C89.207,15.6034 88.955,15.5834 88.761,15.5434 L88.761,7.3474 C88.955,7.3074 89.207,7.2874 89.519,7.2874 C89.83,7.2874 90.086,7.3074 90.287,7.3474 L90.287,9.7954 L90.275,10.6834 L90.921,10.6714 L92.711,10.6714 L93.359,10.6834 Z" id="Fill-21" fill="#3399FF"></path>
                <path d="M98.4098,13.5877 L98.3978,14.2957 C98.7338,14.2797 99.0098,14.2717 99.2258,14.2717 L102.2008,14.2717 C102.2008,14.5197 102.1928,14.7077 102.1778,14.8357 C102.0898,15.3237 101.7618,15.5677 101.1928,15.5677 L97.7728,15.5677 C97.5018,15.5677 97.2888,15.4857 97.1328,15.3217 C96.9758,15.1577 96.8978,14.9317 96.8978,14.6437 L96.8978,7.4317 L96.9818,7.3477 L101.9368,7.3477 C101.9778,7.5397 101.9978,7.7377 101.9978,7.9417 C101.9978,8.1457 101.9588,8.3757 101.8788,8.6317 L98.3978,8.6317 L98.4098,9.4477 L98.4098,10.7917 C98.6008,10.7837 98.8568,10.7797 99.1778,10.7797 L101.2648,10.7797 C101.3218,10.9717 101.3488,11.1817 101.3488,11.4097 C101.3488,11.6377 101.3218,11.8477 101.2648,12.0397 L99.1778,12.0397 C98.8568,12.0397 98.6008,12.0357 98.4098,12.0277 L98.4098,13.5877 Z" id="Fill-23" fill="#3399FF"></path>
                <path d="M108.023,10.3475 L108.023,10.2515 C108.023,9.7475 107.904,9.3145 107.668,8.9505 C107.431,8.5855 107.039,8.4045 106.486,8.4045 C105.334,8.4045 104.757,9.4315 104.757,11.4885 C104.757,12.4155 104.919,13.1295 105.244,13.6295 C105.568,14.1295 106.039,14.3795 106.654,14.3795 C107.269,14.3795 107.959,14.0835 108.718,13.4925 C108.878,13.6045 109.031,13.7535 109.173,13.9425 C109.318,14.1295 109.41,14.3075 109.451,14.4755 C109.089,14.8355 108.634,15.1315 108.082,15.3645 C107.531,15.5955 106.959,15.7115 106.367,15.7115 C105.775,15.7115 105.265,15.5915 104.841,15.3515 C104.418,15.1125 104.085,14.7845 103.845,14.3685 C103.382,13.5765 103.15,12.6125 103.15,11.4755 C103.15,10.0595 103.468,8.9905 104.105,8.2655 C104.74,7.5415 105.521,7.1795 106.451,7.1795 C107.378,7.1795 108.117,7.4135 108.664,7.8815 C109.212,8.3495 109.486,8.9155 109.486,9.5795 C109.486,10.1485 109.199,10.4315 108.623,10.4315 C108.414,10.4315 108.214,10.4045 108.023,10.3475" id="Fill-25" fill="#3399FF"></path>
                <path d="M117.0094,15.16 C116.7944,15.472 116.4524,15.628 115.9894,15.628 C115.7184,15.628 115.5154,15.559 115.3844,15.424 C115.2514,15.288 115.1304,15.056 115.0174,14.727 L114.4524,13.108 C114.3024,12.683 114.1284,12.386 113.9314,12.214 C113.7364,12.042 113.4744,11.956 113.1464,11.956 C113.0734,11.956 112.8374,11.964 112.4374,11.979 L112.4374,15.544 C112.2384,15.584 111.9824,15.603 111.6694,15.603 C111.3574,15.603 111.1054,15.584 110.9134,15.544 L110.9134,7.348 C111.1054,7.307 111.3574,7.288 111.6694,7.288 C111.9824,7.288 112.2384,7.307 112.4374,7.348 L112.4374,10.672 L112.9664,10.66 C113.0934,10.66 113.1894,10.636 113.2534,10.588 C113.3184,10.54 113.3864,10.444 113.4584,10.3 L114.8494,7.876 C114.9624,7.668 115.0754,7.52 115.1914,7.431 C115.3084,7.344 115.4934,7.3 115.7494,7.3 C116.0054,7.3 116.2844,7.311 116.5894,7.336 L116.6854,7.456 L115.0054,10.408 C114.8534,10.688 114.6694,10.924 114.4524,11.116 C114.8294,11.187 115.1184,11.34 115.3234,11.572 C115.5274,11.804 115.7044,12.128 115.8574,12.544 L116.4454,14.187 C116.6054,14.643 116.7944,14.968 117.0094,15.16" id="Fill-27" fill="#3399FF"></path>
                <mask id="mask-4" fill="white">
                    <use xlink:href="#path-3"></use>
                </mask>
                <g id="Clip-30"></g>
                <polygon id="Fill-29" fill="#3399FF" mask="url(#mask-4)" points="0 23.3183 123.315 23.3183 123.315 21.4903 0 21.4903"></polygon>
                <polygon id="Fill-31" fill="#3399FF" mask="url(#mask-4)" points="0 1.8283 123.315 1.8283 123.315 0.0003 0 0.0003"></polygon>
                <polygon id="Fill-32" fill="#3399FF" mask="url(#mask-4)" points="122.401 23.3183 124.229 23.3183 124.229 0.0003 122.401 0.0003"></polygon>
            </g>
        </g>
    </g>
</svg>