<?xml version="1.0" encoding="utf-8"?>
<!-- Generator: Adobe Illustrator 19.1.0, SVG Export Plug-In . SVG Version: 6.00 Build 0)  -->
<svg version="1.1" id="logo" xmlns="http://www.w3.org/2000/svg" xmlns:xlink="http://www.w3.org/1999/xlink" x="0px" y="0px"
	 viewBox="-81 122.5 40.4 38.4" style="enable-background:new -81 122.5 40.4 38.4;" xml:space="preserve">
<style type="text/css">
	.st0{fill:#002A54;}
	.st1{fill:#00B3E4;}
	.st2{fill:#FEFEFE;}
</style>
<g id="top.psd_1_">
	<g>
		<path class="st0" d="M-56.9,122.5c0.4,0.4,0.9,0.8,1.3,1.2c2.6,2.7,5.2,5.4,7.9,8.2c1.9,2,3.8,3.9,5.7,5.9c1.8,1.9,1.8,5-0.1,6.8
			c-2.6,2.5-5.3,5.1-7.9,7.6c-0.4,0.4-0.9,0.9-1.3,1.3c-0.1,0.1-0.1,0.2-0.3,0c-0.5-0.4-1.1-0.7-1.7-1c-1.6-0.7-2.3-2.1-2.7-3.7
			c-0.3-1.3-0.4-2.7-0.6-4c-0.3-2.1-0.6-4.2-0.8-6.4c-0.3-2.6-0.4-5.1-0.2-7.7c0.1-2.3,0.4-4.6,0.7-6.9
			C-57,123.4-57,122.9-56.9,122.5z"/>
		<path class="st1" d="M-53.9,155.5c-0.5,0.5-0.9,1.1-1.4,1.6c-0.8,0.8-1.7,1.7-2.6,2.5c-2,1.8-5.1,1.7-6.9-0.3
			c-1.7-1.8-3.4-3.6-5.2-5.4c-2.7-2.8-5.5-5.7-8.2-8.5c-0.5-0.5-0.9-1-1.4-1.5c-1.9-2-1.9-5,0.1-6.9c2.7-2.7,5.5-5.3,8.3-8
			c1.4-1.4,2.9-2.8,4.3-4.2c0.1-0.1,0.1-0.2,0.3-0.2c0.1,1.3,0.2,2.7-0.2,4c-0.4,1.1-1.1,2-1.9,2.9c-0.8,0.8-1.8,1.4-2.6,2.2
			c-0.5,0.5-1,1.1-1.3,1.7c-0.8,1.6-0.5,3.2,0.7,4.4c0.9,0.9,2,1.5,3,2.1s1.9,1.1,2.8,1.9c1.5,1.4,2.4,3,3.2,4.8
			c0.5,1.1,0.7,2.3,1,3.4c0.5,1.9,1.6,3.1,3.5,3.6c0.9,0.2,1.8,0.1,2.7,0C-55.1,155.6-54.5,155.5-53.9,155.5z"/>
		<path class="st2" d="M-73.4,135.3c-0.1,0.2-0.2,0.5-0.3,0.7c-0.5,1.2-0.6,2.4-0.1,3.7c0.3,0.7,0.9,1.1,1.4,1.6
			c0.9,1,2.1,1.6,3.2,2.3c0.9,0.6,1.8,1.2,2.6,2c1.1,1.2,1.7,2.6,2.3,4c0.5,1.3,0.9,2.6,1.5,3.9c0.1,0.3,0.3,0.6,0.5,0.9
			c0.8,1.4,2.1,2,3.7,2.1c0.6,0,1.1,0,1.7,0.1c0.1,0,0.2,0,0.3,0.1c0,0.1-0.1,0.1-0.2,0.2c-1.1,0.2-2.2,0.4-3.3,0.2
			c-1.4-0.2-2.4-1-3.2-2.2c-0.7-1-1.1-2.2-1.5-3.3c-0.2-0.7-0.5-1.3-0.7-2c-0.7-1.8-1.8-3.2-3.4-4.2c-1.2-0.8-2.4-1.5-3.5-2.3
			c-0.8-0.6-1.5-1.3-2-2.1c-0.6-1-0.8-2-0.5-3.1C-74.8,136.9-74.2,136.1-73.4,135.3C-73.5,135.2-73.5,135.3-73.4,135.3z"/>
	</g>
</g>
</svg>
