<svg xmlns="http://www.w3.org/2000/svg" viewBox="0 0 73.4 73.3">
  <path fill="#4E4E4E" d="M71.9 8.9h-.4c-3.3 0-5.9-2.7-5.9-5.9V1.2h-2.8l.1 1.5V3c0 3.3-2.6 6-5.9 6h-.6l-1.5-.1v2.9l1.5-.2h.6c3.3 0 5.9 2.7 5.9 5.9v.6l-.1 1.5h2.9l-.1-1.6v-.6c0-3.3 2.7-5.9 5.9-5.9h.4l1.5.1V8.7l-1.5.2zm-7.6 4c-.7-1.1-1.6-1.9-2.7-2.7 1-.6 1.9-1.6 2.7-2.7.7 1.1 1.6 1.9 2.7 2.7-1.2.7-2.1 1.7-2.7 2.7zM23.9 62.6h-.4c-3.3 0-5.9-2.7-5.9-5.9V55h-2.8l.1 1.5v.4c0 3.3-2.7 5.9-5.9 5.9h-.7l-1.5-.1v2.9l1.5-.2h.6c3.3 0 5.9 2.7 5.9 5.9v.6l-.1 1.5h2.9l-.1-1.6v-.6c0-3.3 2.7-5.9 5.9-5.9h.4l1.5.1v-2.8h-1.4zm-7.7 4c-.7-1.1-1.6-1.9-2.7-2.7 1-.6 1.9-1.6 2.7-2.7.7 1.1 1.6 1.9 2.7 2.7-1.1.8-2.1 1.7-2.7 2.7z"/>
  <ellipse fill="#2A2A2A" cx="2.7" cy="2.2" rx="2.2" ry="2.2"/>
  <ellipse fill="#2A2A2A" cx="62.9" cy="58" rx="2.2" ry="2.2"/>
  <path fill="#99EAA8" d="M44 20v15.8c0 4.4-3.6 8-8 8H21.4c-.5 0-1 0-1.5.1 1.4 1.8 3.6 3 6.1 3h15.9c4.2 0 7.6-3.4 7.6-7.6v-12c0-3.4-2.3-6.4-5.5-7.3z"/>
  <ellipse fill="#99EAA8" cx="9.6" cy="29" rx="1.9" ry="2.7"/>
  <ellipse fill="#99EAA8" cx="21.1" cy="28.1" rx="1.7" ry="2.7"/>
  <ellipse fill="#99EAA8" cx="32.8" cy="29" rx="1.6" ry="2.7"/>
  <path fill="#525252" d="M5 54.7c-.1 0-.3 0-.4-.1-.4-.1-.6-.5-.6-.9v-9c-2.3-.5-4-2.5-4-4.9V19.7c0-5 4.1-9.1 9.1-9.1h28.4c4.1 0 7.4 3.3 7.4 7.4v17.8c0 5-4 9-9 9H21.4c-2.4 0-4.8.8-6.8 2.4l-9.1 7.3c-.1.2-.3.2-.5.2zm4.1-42.1c-3.9 0-7.1 3.2-7.1 7.1v20.1c0 1.6 1.3 3 3 3 .6 0 1 .4 1 1v7.8l7.4-6c2.3-1.8 5.1-2.8 8-2.8H36c3.9 0 7-3.1 7-7V18c0-3-2.4-5.4-5.4-5.4H9.1z"/>
  <path fill="#525252" d="M50.4 59c-.2 0-.4-.1-.6-.2l-12.1-8.1-15.1-1.2c-.5 0-1-.5-.9-1.1 0-.5.5-1 1.1-.9l15.4 1.2c.2 0 .3.1.5.2l10.7 7.2v-7.6c0-.6.4-1 1-1H52c2.5 0 4.5-2 4.5-4.5V27.7c0-3.3-2.7-5.9-5.9-5.9h-2.3c-.6 0-1-.4-1-1s.4-1 1-1h2.3c4.4 0 7.9 3.5 7.9 7.9v15.2c0 3.6-2.9 6.5-6.5 6.5h-.5V58c0 .4-.2.7-.5.9-.2 0-.4.1-.6.1zM10.4 32.8c-2 0-3.7-1.7-3.7-3.7s1.7-3.7 3.7-3.7 3.7 1.7 3.7 3.7-1.6 3.7-3.7 3.7zm0-5.5c-.9 0-1.7.8-1.7 1.7s.8 1.7 1.7 1.7 1.7-.8 1.7-1.7-.7-1.7-1.7-1.7zM22.2 31.9c-2 0-3.7-1.7-3.7-3.7s1.7-3.7 3.7-3.7 3.7 1.7 3.7 3.7-1.7 3.7-3.7 3.7zm0-5.5c-.9 0-1.7.8-1.7 1.7s.8 1.7 1.7 1.7 1.7-.8 1.7-1.7-.8-1.7-1.7-1.7zM34 32.8c-2 0-3.7-1.7-3.7-3.7s1.7-3.7 3.7-3.7 3.7 1.7 3.7 3.7-1.7 3.7-3.7 3.7zm0-5.5c-.9 0-1.7.8-1.7 1.7s.8 1.7 1.7 1.7 1.7-.8 1.7-1.7-.8-1.7-1.7-1.7z"/>
</svg>
