<?xml version="1.0" encoding="iso-8859-1"?>
<!-- Generator: Adobe Illustrator 21.0.2, SVG Export Plug-In . SVG Version: 6.00 Build 0)  -->
<svg xmlns="http://www.w3.org/2000/svg" xmlns:xlink="http://www.w3.org/1999/xlink" version="1.1" id="Layer_1" x="0px" y="0px" viewBox="0 0 40 40" style="enable-background:new 0 0 40 40;" xml:space="preserve">
<path style="fill:none;stroke:#4788C7;stroke-linecap:round;stroke-linejoin:round;stroke-miterlimit:10;" d="M13.89,38.502  c4.999,0,6.107-3.413,6.107-3.413"/>
<g>
	<path style="fill:#DFF0FE;" d="M20.824,37.5c-0.816,0-1.676-0.219-2.422-0.617c-0.998-0.532-1.694-1.332-1.863-2.14   c-0.103-0.492,0-0.952,0.299-1.331c0.458-0.58,1.31-0.913,2.338-0.913c0.816,0,1.676,0.219,2.422,0.617   c0.998,0.532,1.694,1.332,1.863,2.14c0.103,0.492,0,0.952-0.299,1.331C22.704,37.167,21.852,37.5,20.824,37.5z"/>
	<path style="fill:#4788C7;" d="M19.176,33L19.176,33c0.736,0,1.512,0.198,2.186,0.558c0.868,0.463,1.47,1.137,1.609,1.801   c0.073,0.347,0.004,0.656-0.203,0.918C22.412,36.73,21.685,37,20.824,37c-0.736,0-1.512-0.198-2.187-0.558   c-0.868-0.463-1.47-1.137-1.609-1.801c-0.073-0.347-0.004-0.656,0.203-0.918C17.588,33.27,18.315,33,19.176,33 M19.176,32   c-1.135,0-2.157,0.377-2.73,1.104c-1.012,1.284-0.242,3.174,1.721,4.221C19.018,37.779,19.954,38,20.824,38   c1.135,0,2.157-0.377,2.73-1.104c1.012-1.284,0.242-3.174-1.721-4.221C20.982,32.221,20.046,32,19.176,32L19.176,32z"/>
</g>
<g>
	<path style="fill:#DFF0FE;" d="M23.604,34.5c-1.289,0-2.711-0.402-4.005-1.131c-1.634-0.921-2.804-2.244-3.052-3.454   c-0.117-0.57-0.02-1.062,0.287-1.464c0.47-0.614,1.379-0.952,2.561-0.952c1.289,0,2.711,0.402,4.005,1.131   c1.634,0.921,2.804,2.244,3.052,3.454c0.117,0.57,0.02,1.062-0.287,1.464C25.696,34.162,24.786,34.5,23.604,34.5z"/>
	<path style="fill:#4788C7;" d="M19.395,28L19.395,28c1.186,0,2.557,0.389,3.76,1.067c1.512,0.852,2.587,2.047,2.807,3.118   c0.088,0.427,0.024,0.774-0.194,1.059C25.401,33.725,24.612,34,23.605,34c-1.187,0-2.557-0.389-3.76-1.067   c-1.512-0.852-2.587-2.047-2.807-3.118c-0.088-0.427-0.024-0.774,0.194-1.059C17.599,28.275,18.388,28,19.395,28 M19.395,27   c-1.286,0-2.371,0.382-2.958,1.148c-1.185,1.549,0.12,4.082,2.916,5.657C20.767,34.601,22.29,35,23.605,35   c1.286,0,2.371-0.382,2.958-1.148c1.185-1.549-0.12-4.082-2.916-5.657C22.233,27.399,20.71,27,19.395,27L19.395,27z"/>
</g>
<g>
	<path style="fill:#DFF0FE;" d="M24.335,30.5c-5.8,0-8.834-4.113-8.834-6.317l0-0.312c-0.002-0.965-0.004-1.603,0.263-1.872   c0.494-0.495,2.416-0.497,5.906-0.5c2.966,0,5.362,0.68,6.945,1.965c1.181,0.959,1.885,2.274,1.885,3.518   C30.5,29.413,27.404,30.5,24.335,30.5z"/>
	<path style="fill:#4788C7;" d="M21.686,21v1c6.1,0,8.314,2.98,8.314,4.983C30,29.056,27.064,30,24.335,30   c-5.472,0-8.334-3.787-8.334-5.817l-0.001-0.313c-0.002-0.622-0.004-1.395,0.118-1.517c0.347-0.348,2.644-0.35,5.561-0.353   L21.686,21 M21.686,21c-0.006,0-0.011,0-0.017,0c-6.911,0.006-6.668,0.031-6.668,3.183c0,2.686,3.449,6.817,9.334,6.817   C27.515,31,31,29.834,31,26.983C31,24.545,28.584,21,21.686,21L21.686,21z"/>
</g>
<g>
	<path style="fill:#B6DCFE;" d="M24,26.5c-7.113,0-11.166-4.689-11.207-4.736c-0.627-0.77-0.447-1.15-0.388-1.275   C13.119,18.986,18.504,18.5,21,18.5c0.5,0,1.409-0.004,2.462-0.008c1.454-0.006,3.184-0.013,4.5-0.013   c1.56,0,1.905,0.011,1.972,0.017c3.12,0.657,3.575,2.475,3.566,3.5C33.5,22.041,33.202,26.5,24,26.5z"/>
	<path style="fill:#4788C7;" d="M27.965,18.979c1.353,0,1.765,0.008,1.89,0.013C32.47,19.56,33.01,20.934,33,21.991   C32.991,23.031,31.317,26,24,26c-6.843,0-10.787-4.516-10.813-4.545c-0.102-0.125-0.426-0.548-0.33-0.751   C13.32,19.728,17.538,19,21,19c0.501,0,1.41-0.004,2.464-0.008c1.453-0.006,3.182-0.013,4.5-0.013H27.965 M27.962,17.979   C25.692,17.979,22.19,18,21,18c-1.394,0-11.672,0.306-8.588,4.087c0,0,4.161,4.913,11.588,4.913c8.594,0,9.99-3.911,10-5   c0.012-1.302-0.625-3.292-4-4C29.924,17.984,29.097,17.979,27.962,17.979L27.962,17.979z"/>
</g>
<g>
	<path style="fill:#B6DCFE;" d="M19.529,22.5c-8.451,0-14.654-3.763-15.013-9.017l28.459-0.932c1.895,1.143,1.497,2.868,1.493,2.885   c-0.01,0.039-0.015,0.079-0.015,0.119C34.455,17.599,30.16,22.5,19.529,22.5z"/>
	<path style="fill:#4788C7;" d="M32.84,13.056c1.384,0.909,1.171,2.132,1.144,2.261c-0.019,0.078-0.029,0.158-0.029,0.238   c0,1.365-3.607,6.444-14.426,6.444c-7.89,0-13.752-3.324-14.458-8.035L32.84,13.056 M33.104,12.047L4,13   c0,6.084,6.976,10,15.529,10c11.226,0,15.426-5.307,15.426-7.444C34.955,15.556,35.487,13.387,33.104,12.047L33.104,12.047z"/>
</g>
<g>
	<path style="fill:#B6DCFE;" d="M14.955,18.5c-6.152,0-10.448-2.051-10.448-4.987c0-4.806,5.79-9.452,14.081-11.298   C20.716,1.74,22.818,1.5,24.836,1.5c5.821,0,9.979,1.978,10.594,5.04c0.861,4.289-5.391,9.313-13.937,11.199   C19.314,18.244,17.116,18.5,14.955,18.5z"/>
	<path style="fill:#4788C7;" d="M24.837,2L24.837,2c5.486,0,9.546,1.864,10.103,4.638c0.794,3.955-5.413,8.815-13.565,10.615   C19.269,17.742,17.049,18,14.955,18c-5.764,0-9.948-1.887-9.948-4.487c0-4.497,5.757-9.043,13.689-10.81   C20.789,2.236,22.855,2,24.837,2 M24.836,1c-1.993,0-4.144,0.233-6.358,0.727C9.719,3.677,4.007,8.636,4.007,13.513   C4.007,16.95,8.869,19,14.955,19c2.118,0,4.385-0.248,6.646-0.773c8.835-1.951,15.233-7.234,14.319-11.786   C35.237,3.04,30.727,1,24.836,1L24.836,1z"/>
</g>
<path style="fill:#98CCFD;" d="M9.519,12.498c1.408-2.799,5.409-5.353,10.447-6.505c5.301-1.102,8.545-0.128,10.299,0.847  c0,0,1.254,0.731,1.254,2.202c0,1.757-1.307,5.881-9.093,8.122c0,0-8.947,1.667-8.947-2.414c0-3.127,7.04-5.208,7.04-5.208  C16.347,8.591,12.62,9.409,9.519,12.498z"/>
<path style="fill:none;stroke:#4788C7;stroke-linecap:round;stroke-linejoin:round;stroke-miterlimit:10;" d="M9.519,12.498  c1.408-2.799,5.409-5.353,10.447-6.505c5.301-1.102,8.545-0.128,10.299,0.847c0,0,1.254,0.731,1.254,2.202  c0,1.757-1.307,5.881-9.093,8.122c0,0-8.947,1.667-8.947-2.414c0-3.127,7.04-5.208,7.04-5.208"/>
</svg>
