<?xml version="1.0" encoding="UTF-8" ?>
<!DOCTYPE svg PUBLIC "-//W3C//DTD SVG 1.1//EN" "http://www.w3.org/Graphics/SVG/1.1/DTD/svg11.dtd">
<svg width="80pt" height="80pt" viewBox="0 0 80 80" version="1.1" xmlns="http://www.w3.org/2000/svg">
<path fill="#454545" opacity="0.85" d=" M 31.67 13.65 C 34.63 11.37 38.08 9.31 41.98 9.64 C 51.90 9.95 59.64 17.22 66.01 24.09 C 64.56 25.55 62.47 26.67 61.89 28.78 C 60.98 32.17 60.78 35.71 60.42 39.19 C 61.58 41.46 62.56 44.39 60.57 46.53 C 57.27 49.96 57.94 55.28 54.85 58.83 C 51.57 63.16 46.24 65.24 41.11 66.37 C 35.45 65.33 29.62 62.55 26.60 57.43 C 25.04 54.88 24.39 51.93 23.70 49.05 C 20.84 46.60 19.66 42.71 21.76 39.33 C 21.08 33.30 19.19 26.84 22.03 21.06 C 23.67 16.95 28.49 16.16 31.67 13.65 M 33.25 15.21 C 30.70 17.89 26.11 17.71 24.24 21.12 C 21.19 26.54 23.03 32.93 23.45 38.74 C 23.94 35.94 24.07 32.99 25.34 30.38 C 26.56 27.93 29.05 26.54 31.21 25.02 C 33.87 26.78 36.61 28.58 39.79 29.24 C 44.60 30.31 49.94 29.93 54.23 32.73 C 56.54 34.03 57.34 36.70 58.43 38.94 C 58.73 33.51 59.02 27.69 62.88 23.45 C 57.44 18.15 51.25 12.73 43.40 11.78 C 39.66 11.16 35.90 12.57 33.25 15.21 M 26.49 33.05 C 25.84 35.80 26.00 38.65 25.96 41.45 C 24.80 41.61 23.61 41.68 22.48 42.05 C 22.62 43.51 22.93 44.94 23.19 46.38 C 23.84 46.45 25.14 46.61 25.79 46.69 C 26.07 50.75 26.74 55.13 29.68 58.19 C 32.55 61.72 37.00 63.16 41.16 64.54 C 45.64 63.04 50.48 61.41 53.33 57.38 C 55.73 54.46 56.12 50.59 56.59 46.99 C 59.51 46.94 59.48 43.87 60.21 41.82 C 58.99 41.84 57.78 41.75 56.57 41.57 C 55.96 39.14 55.89 36.03 53.46 34.61 C 49.15 31.89 43.89 32.33 39.10 31.18 C 36.19 30.60 33.67 28.95 31.17 27.44 C 29.20 28.90 27.15 30.58 26.49 33.05 Z" />
<path fill="#454545" opacity="0.85" d=" M 33.15 19.15 C 36.50 19.21 31.66 22.21 33.15 19.15 Z" />
<path fill="#454545" opacity="0.85" d=" M 30.87 22.14 C 32.46 21.59 33.00 22.14 32.48 23.80 C 30.89 24.36 30.35 23.80 30.87 22.14 Z" />
<path fill="#454545" opacity="0.85" d=" M 29.42 40.72 C 30.83 39.61 32.07 37.83 34.08 37.96 C 36.15 37.69 37.58 39.46 39.12 40.50 C 37.40 39.96 35.72 39.30 33.97 38.88 C 32.41 39.37 30.93 40.09 29.42 40.72 Z" />
<path fill="#454545" opacity="0.85" d=" M 43.60 41.01 C 44.95 39.96 46.11 38.34 47.96 38.22 C 50.27 37.65 52.02 39.50 53.56 40.88 C 51.77 40.26 50.00 39.56 48.23 38.88 C 46.70 39.62 45.16 40.34 43.60 41.01 Z" />
<path fill="#454545" opacity="0.85" d=" M 33.08 42.09 C 34.26 40.01 37.38 43.13 35.45 44.40 C 34.30 46.65 30.68 43.19 33.08 42.09 Z" />
<path fill="#454545" opacity="0.85" d=" M 47.01 42.11 C 48.72 40.00 51.81 43.12 49.69 44.62 C 48.01 46.04 46.18 43.79 47.01 42.11 Z" />
<path fill="#454545" opacity="0.85" d=" M 42.28 48.48 C 43.92 47.96 44.48 48.50 43.95 50.10 C 42.29 50.62 41.73 50.08 42.28 48.48 Z" />
<path fill="#454545" opacity="0.85" d=" M 39.16 49.21 C 39.93 49.71 39.93 49.71 39.16 49.21 Z" />
<path fill="#454545" opacity="0.85" d=" M 32.46 59.27 C 34.61 51.15 48.22 51.90 50.53 59.65 C 47.65 58.24 45.15 55.85 41.89 55.38 C 38.30 55.22 35.47 57.72 32.46 59.27 Z" />
</svg>
