<?xml version="1.0" encoding="iso-8859-1"?>
<!-- Generator: Adobe Illustrator 21.0.2, SVG Export Plug-In . SVG Version: 6.00 Build 0)  -->
<svg xmlns="http://www.w3.org/2000/svg" xmlns:xlink="http://www.w3.org/1999/xlink" version="1.1" id="Layer_1" x="0px" y="0px" viewBox="0 0 40 40" style="enable-background:new 0 0 40 40;" xml:space="preserve">
<path style="fill:#DFF0FE;" d="M4.5,7h-2C2.225,7,2,6.775,2,6.5v0C2,6.225,2.225,6,2.5,6h2C4.775,6,5,6.225,5,6.5v0  C5,6.775,4.775,7,4.5,7z"/>
<path style="fill:#DFF0FE;" d="M9.5,7h-2C7.225,7,7,6.775,7,6.5v0C7,6.225,7.225,6,7.5,6h2C9.775,6,10,6.225,10,6.5v0  C10,6.775,9.775,7,9.5,7z"/>
<path style="fill:#DFF0FE;" d="M14.5,7h-2C12.225,7,12,6.775,12,6.5v0C12,6.225,12.225,6,12.5,6h2C14.775,6,15,6.225,15,6.5v0  C15,6.775,14.775,7,14.5,7z"/>
<path style="fill:#DFF0FE;" d="M19.5,7h-2C17.225,7,17,6.775,17,6.5v0C17,6.225,17.225,6,17.5,6h2C19.775,6,20,6.225,20,6.5v0  C20,6.775,19.775,7,19.5,7z"/>
<path style="fill:#DFF0FE;" d="M24.5,7h-2C22.225,7,22,6.775,22,6.5v0C22,6.225,22.225,6,22.5,6h2C24.775,6,25,6.225,25,6.5v0  C25,6.775,24.775,7,24.5,7z"/>
<path style="fill:#DFF0FE;" d="M7.5,10h-2C5.225,10,5,9.775,5,9.5v0C5,9.225,5.225,9,5.5,9h2C7.775,9,8,9.225,8,9.5v0  C8,9.775,7.775,10,7.5,10z"/>
<path style="fill:#DFF0FE;" d="M12.5,10h-2C10.225,10,10,9.775,10,9.5v0C10,9.225,10.225,9,10.5,9h2C12.775,9,13,9.225,13,9.5v0  C13,9.775,12.775,10,12.5,10z"/>
<path style="fill:#DFF0FE;" d="M17.5,10h-2C15.225,10,15,9.775,15,9.5v0C15,9.225,15.225,9,15.5,9h2C17.775,9,18,9.225,18,9.5v0  C18,9.775,17.775,10,17.5,10z"/>
<path style="fill:#DFF0FE;" d="M22.5,10h-2C20.225,10,20,9.775,20,9.5v0C20,9.225,20.225,9,20.5,9h2C22.775,9,23,9.225,23,9.5v0  C23,9.775,22.775,10,22.5,10z"/>
<path style="fill:#DFF0FE;" d="M27.5,10h-2C25.225,10,25,9.775,25,9.5v0C25,9.225,25.225,9,25.5,9h2C27.775,9,28,9.225,28,9.5v0  C28,9.775,27.775,10,27.5,10z"/>
<path style="fill:#DFF0FE;" d="M29.5,7h-2C27.225,7,27,6.775,27,6.5v0C27,6.225,27.225,6,27.5,6h2C29.775,6,30,6.225,30,6.5v0  C30,6.775,29.775,7,29.5,7z"/>
<path style="fill:#DFF0FE;" d="M34.5,7h-2C32.225,7,32,6.775,32,6.5v0C32,6.225,32.225,6,32.5,6h2C34.775,6,35,6.225,35,6.5v0  C35,6.775,34.775,7,34.5,7z"/>
<path style="fill:#DFF0FE;" d="M32.5,10h-2C30.225,10,30,9.775,30,9.5v0C30,9.225,30.225,9,30.5,9h2C32.775,9,33,9.225,33,9.5v0  C33,9.775,32.775,10,32.5,10z"/>
<path style="fill:#DFF0FE;" d="M37.5,10h-2C35.225,10,35,9.775,35,9.5v0C35,9.225,35.225,9,35.5,9h2C37.775,9,38,9.225,38,9.5v0  C38,9.775,37.775,10,37.5,10z"/>
<path style="fill:#B6DCFE;" d="M4.5,13h-2C2.225,13,2,12.775,2,12.5v0C2,12.225,2.225,12,2.5,12h2C4.775,12,5,12.225,5,12.5v0  C5,12.775,4.775,13,4.5,13z"/>
<path style="fill:#B6DCFE;" d="M9.5,13h-2C7.225,13,7,12.775,7,12.5v0C7,12.225,7.225,12,7.5,12h2c0.275,0,0.5,0.225,0.5,0.5v0  C10,12.775,9.775,13,9.5,13z"/>
<path style="fill:#B6DCFE;" d="M14.5,13h-2c-0.275,0-0.5-0.225-0.5-0.5v0c0-0.275,0.225-0.5,0.5-0.5h2c0.275,0,0.5,0.225,0.5,0.5v0  C15,12.775,14.775,13,14.5,13z"/>
<path style="fill:#B6DCFE;" d="M19.5,13h-2c-0.275,0-0.5-0.225-0.5-0.5v0c0-0.275,0.225-0.5,0.5-0.5h2c0.275,0,0.5,0.225,0.5,0.5v0  C20,12.775,19.775,13,19.5,13z"/>
<path style="fill:#B6DCFE;" d="M24.5,13h-2c-0.275,0-0.5-0.225-0.5-0.5v0c0-0.275,0.225-0.5,0.5-0.5h2c0.275,0,0.5,0.225,0.5,0.5v0  C25,12.775,24.775,13,24.5,13z"/>
<path style="fill:#B6DCFE;" d="M7.5,16h-2C5.225,16,5,15.775,5,15.5v0C5,15.225,5.225,15,5.5,15h2C7.775,15,8,15.225,8,15.5v0  C8,15.775,7.775,16,7.5,16z"/>
<path style="fill:#B6DCFE;" d="M12.5,16h-2c-0.275,0-0.5-0.225-0.5-0.5v0c0-0.275,0.225-0.5,0.5-0.5h2c0.275,0,0.5,0.225,0.5,0.5v0  C13,15.775,12.775,16,12.5,16z"/>
<path style="fill:#B6DCFE;" d="M17.5,16h-2c-0.275,0-0.5-0.225-0.5-0.5v0c0-0.275,0.225-0.5,0.5-0.5h2c0.275,0,0.5,0.225,0.5,0.5v0  C18,15.775,17.775,16,17.5,16z"/>
<path style="fill:#B6DCFE;" d="M22.5,16h-2c-0.275,0-0.5-0.225-0.5-0.5v0c0-0.275,0.225-0.5,0.5-0.5h2c0.275,0,0.5,0.225,0.5,0.5v0  C23,15.775,22.775,16,22.5,16z"/>
<path style="fill:#B6DCFE;" d="M27.5,16h-2c-0.275,0-0.5-0.225-0.5-0.5v0c0-0.275,0.225-0.5,0.5-0.5h2c0.275,0,0.5,0.225,0.5,0.5v0  C28,15.775,27.775,16,27.5,16z"/>
<path style="fill:#B6DCFE;" d="M29.5,13h-2c-0.275,0-0.5-0.225-0.5-0.5v0c0-0.275,0.225-0.5,0.5-0.5h2c0.275,0,0.5,0.225,0.5,0.5v0  C30,12.775,29.775,13,29.5,13z"/>
<path style="fill:#B6DCFE;" d="M34.5,13h-2c-0.275,0-0.5-0.225-0.5-0.5v0c0-0.275,0.225-0.5,0.5-0.5h2c0.275,0,0.5,0.225,0.5,0.5v0  C35,12.775,34.775,13,34.5,13z"/>
<path style="fill:#B6DCFE;" d="M32.5,16h-2c-0.275,0-0.5-0.225-0.5-0.5v0c0-0.275,0.225-0.5,0.5-0.5h2c0.275,0,0.5,0.225,0.5,0.5v0  C33,15.775,32.775,16,32.5,16z"/>
<path style="fill:#B6DCFE;" d="M37.5,16h-2c-0.275,0-0.5-0.225-0.5-0.5v0c0-0.275,0.225-0.5,0.5-0.5h2c0.275,0,0.5,0.225,0.5,0.5v0  C38,15.775,37.775,16,37.5,16z"/>
<path style="fill:#98CCFD;" d="M4.5,19h-2C2.225,19,2,18.775,2,18.5l0,0C2,18.225,2.225,18,2.5,18h2C4.775,18,5,18.225,5,18.5l0,0  C5,18.775,4.775,19,4.5,19z"/>
<path style="fill:#98CCFD;" d="M9.5,19h-2C7.225,19,7,18.775,7,18.5l0,0C7,18.225,7.225,18,7.5,18h2c0.275,0,0.5,0.225,0.5,0.5l0,0  C10,18.775,9.775,19,9.5,19z"/>
<path style="fill:#98CCFD;" d="M14.5,19h-2c-0.275,0-0.5-0.225-0.5-0.5l0,0c0-0.275,0.225-0.5,0.5-0.5h2c0.275,0,0.5,0.225,0.5,0.5  l0,0C15,18.775,14.775,19,14.5,19z"/>
<path style="fill:#98CCFD;" d="M19.5,19h-2c-0.275,0-0.5-0.225-0.5-0.5l0,0c0-0.275,0.225-0.5,0.5-0.5h2c0.275,0,0.5,0.225,0.5,0.5  l0,0C20,18.775,19.775,19,19.5,19z"/>
<path style="fill:#98CCFD;" d="M24.5,19h-2c-0.275,0-0.5-0.225-0.5-0.5l0,0c0-0.275,0.225-0.5,0.5-0.5h2c0.275,0,0.5,0.225,0.5,0.5  l0,0C25,18.775,24.775,19,24.5,19z"/>
<path style="fill:#98CCFD;" d="M7.5,22h-2C5.225,22,5,21.775,5,21.5l0,0C5,21.225,5.225,21,5.5,21h2C7.775,21,8,21.225,8,21.5l0,0  C8,21.775,7.775,22,7.5,22z"/>
<path style="fill:#98CCFD;" d="M12.5,22h-2c-0.275,0-0.5-0.225-0.5-0.5l0,0c0-0.275,0.225-0.5,0.5-0.5h2c0.275,0,0.5,0.225,0.5,0.5  l0,0C13,21.775,12.775,22,12.5,22z"/>
<path style="fill:#98CCFD;" d="M17.5,22h-2c-0.275,0-0.5-0.225-0.5-0.5l0,0c0-0.275,0.225-0.5,0.5-0.5h2c0.275,0,0.5,0.225,0.5,0.5  l0,0C18,21.775,17.775,22,17.5,22z"/>
<path style="fill:#98CCFD;" d="M22.5,22h-2c-0.275,0-0.5-0.225-0.5-0.5l0,0c0-0.275,0.225-0.5,0.5-0.5h2c0.275,0,0.5,0.225,0.5,0.5  l0,0C23,21.775,22.775,22,22.5,22z"/>
<path style="fill:#98CCFD;" d="M27.5,22h-2c-0.275,0-0.5-0.225-0.5-0.5l0,0c0-0.275,0.225-0.5,0.5-0.5h2c0.275,0,0.5,0.225,0.5,0.5  l0,0C28,21.775,27.775,22,27.5,22z"/>
<path style="fill:#98CCFD;" d="M29.5,19h-2c-0.275,0-0.5-0.225-0.5-0.5l0,0c0-0.275,0.225-0.5,0.5-0.5h2c0.275,0,0.5,0.225,0.5,0.5  l0,0C30,18.775,29.775,19,29.5,19z"/>
<path style="fill:#98CCFD;" d="M34.5,19h-2c-0.275,0-0.5-0.225-0.5-0.5l0,0c0-0.275,0.225-0.5,0.5-0.5h2c0.275,0,0.5,0.225,0.5,0.5  l0,0C35,18.775,34.775,19,34.5,19z"/>
<path style="fill:#98CCFD;" d="M32.5,22h-2c-0.275,0-0.5-0.225-0.5-0.5l0,0c0-0.275,0.225-0.5,0.5-0.5h2c0.275,0,0.5,0.225,0.5,0.5  l0,0C33,21.775,32.775,22,32.5,22z"/>
<path style="fill:#98CCFD;" d="M37.5,22h-2c-0.275,0-0.5-0.225-0.5-0.5l0,0c0-0.275,0.225-0.5,0.5-0.5h2c0.275,0,0.5,0.225,0.5,0.5  l0,0C38,21.775,37.775,22,37.5,22z"/>
<path style="fill:#98CCFD;" d="M4.5,25h-2C2.225,25,2,24.775,2,24.5l0,0C2,24.225,2.225,24,2.5,24h2C4.775,24,5,24.225,5,24.5l0,0  C5,24.775,4.775,25,4.5,25z"/>
<path style="fill:#98CCFD;" d="M9.5,25h-2C7.225,25,7,24.775,7,24.5l0,0C7,24.225,7.225,24,7.5,24h2c0.275,0,0.5,0.225,0.5,0.5l0,0  C10,24.775,9.775,25,9.5,25z"/>
<path style="fill:#98CCFD;" d="M14.5,25h-2c-0.275,0-0.5-0.225-0.5-0.5l0,0c0-0.275,0.225-0.5,0.5-0.5h2c0.275,0,0.5,0.225,0.5,0.5  l0,0C15,24.775,14.775,25,14.5,25z"/>
<path style="fill:#98CCFD;" d="M19.5,25h-2c-0.275,0-0.5-0.225-0.5-0.5l0,0c0-0.275,0.225-0.5,0.5-0.5h2c0.275,0,0.5,0.225,0.5,0.5  l0,0C20,24.775,19.775,25,19.5,25z"/>
<path style="fill:#98CCFD;" d="M24.5,25h-2c-0.275,0-0.5-0.225-0.5-0.5l0,0c0-0.275,0.225-0.5,0.5-0.5h2c0.275,0,0.5,0.225,0.5,0.5  l0,0C25,24.775,24.775,25,24.5,25z"/>
<path style="fill:#4788C7;" d="M7.5,28h-2C5.225,28,5,27.775,5,27.5l0,0C5,27.225,5.225,27,5.5,27h2C7.775,27,8,27.225,8,27.5l0,0  C8,27.775,7.775,28,7.5,28z"/>
<path style="fill:#4788C7;" d="M12.5,28h-2c-0.275,0-0.5-0.225-0.5-0.5l0,0c0-0.275,0.225-0.5,0.5-0.5h2c0.275,0,0.5,0.225,0.5,0.5  l0,0C13,27.775,12.775,28,12.5,28z"/>
<path style="fill:#4788C7;" d="M17.5,28h-2c-0.275,0-0.5-0.225-0.5-0.5l0,0c0-0.275,0.225-0.5,0.5-0.5h2c0.275,0,0.5,0.225,0.5,0.5  l0,0C18,27.775,17.775,28,17.5,28z"/>
<path style="fill:#4788C7;" d="M22.5,28h-2c-0.275,0-0.5-0.225-0.5-0.5l0,0c0-0.275,0.225-0.5,0.5-0.5h2c0.275,0,0.5,0.225,0.5,0.5  l0,0C23,27.775,22.775,28,22.5,28z"/>
<path style="fill:#4788C7;" d="M27.5,28h-2c-0.275,0-0.5-0.225-0.5-0.5l0,0c0-0.275,0.225-0.5,0.5-0.5h2c0.275,0,0.5,0.225,0.5,0.5  l0,0C28,27.775,27.775,28,27.5,28z"/>
<path style="fill:#98CCFD;" d="M29.5,25h-2c-0.275,0-0.5-0.225-0.5-0.5l0,0c0-0.275,0.225-0.5,0.5-0.5h2c0.275,0,0.5,0.225,0.5,0.5  l0,0C30,24.775,29.775,25,29.5,25z"/>
<path style="fill:#98CCFD;" d="M34.5,25h-2c-0.275,0-0.5-0.225-0.5-0.5l0,0c0-0.275,0.225-0.5,0.5-0.5h2c0.275,0,0.5,0.225,0.5,0.5  l0,0C35,24.775,34.775,25,34.5,25z"/>
<path style="fill:#4788C7;" d="M32.5,28h-2c-0.275,0-0.5-0.225-0.5-0.5l0,0c0-0.275,0.225-0.5,0.5-0.5h2c0.275,0,0.5,0.225,0.5,0.5  l0,0C33,27.775,32.775,28,32.5,28z"/>
<path style="fill:#4788C7;" d="M37.5,28h-2c-0.275,0-0.5-0.225-0.5-0.5l0,0c0-0.275,0.225-0.5,0.5-0.5h2c0.275,0,0.5,0.225,0.5,0.5  l0,0C38,27.775,37.775,28,37.5,28z"/>
<path style="fill:#4788C7;" d="M4.5,31h-2C2.225,31,2,30.775,2,30.5l0,0C2,30.225,2.225,30,2.5,30h2C4.775,30,5,30.225,5,30.5l0,0  C5,30.775,4.775,31,4.5,31z"/>
<path style="fill:#4788C7;" d="M9.5,31h-2C7.225,31,7,30.775,7,30.5l0,0C7,30.225,7.225,30,7.5,30h2c0.275,0,0.5,0.225,0.5,0.5l0,0  C10,30.775,9.775,31,9.5,31z"/>
<path style="fill:#4788C7;" d="M14.5,31h-2c-0.275,0-0.5-0.225-0.5-0.5l0,0c0-0.275,0.225-0.5,0.5-0.5h2c0.275,0,0.5,0.225,0.5,0.5  l0,0C15,30.775,14.775,31,14.5,31z"/>
<path style="fill:#4788C7;" d="M19.5,31h-2c-0.275,0-0.5-0.225-0.5-0.5l0,0c0-0.275,0.225-0.5,0.5-0.5h2c0.275,0,0.5,0.225,0.5,0.5  l0,0C20,30.775,19.775,31,19.5,31z"/>
<path style="fill:#4788C7;" d="M24.5,31h-2c-0.275,0-0.5-0.225-0.5-0.5l0,0c0-0.275,0.225-0.5,0.5-0.5h2c0.275,0,0.5,0.225,0.5,0.5  l0,0C25,30.775,24.775,31,24.5,31z"/>
<path style="fill:#4788C7;" d="M7.5,34h-2C5.225,34,5,33.775,5,33.5l0,0C5,33.225,5.225,33,5.5,33h2C7.775,33,8,33.225,8,33.5l0,0  C8,33.775,7.775,34,7.5,34z"/>
<path style="fill:#4788C7;" d="M12.5,34h-2c-0.275,0-0.5-0.225-0.5-0.5l0,0c0-0.275,0.225-0.5,0.5-0.5h2c0.275,0,0.5,0.225,0.5,0.5  l0,0C13,33.775,12.775,34,12.5,34z"/>
<path style="fill:#4788C7;" d="M17.5,34h-2c-0.275,0-0.5-0.225-0.5-0.5l0,0c0-0.275,0.225-0.5,0.5-0.5h2c0.275,0,0.5,0.225,0.5,0.5  l0,0C18,33.775,17.775,34,17.5,34z"/>
<path style="fill:#4788C7;" d="M22.5,34h-2c-0.275,0-0.5-0.225-0.5-0.5l0,0c0-0.275,0.225-0.5,0.5-0.5h2c0.275,0,0.5,0.225,0.5,0.5  l0,0C23,33.775,22.775,34,22.5,34z"/>
<path style="fill:#4788C7;" d="M27.5,34h-2c-0.275,0-0.5-0.225-0.5-0.5l0,0c0-0.275,0.225-0.5,0.5-0.5h2c0.275,0,0.5,0.225,0.5,0.5  l0,0C28,33.775,27.775,34,27.5,34z"/>
<path style="fill:#4788C7;" d="M29.5,31h-2c-0.275,0-0.5-0.225-0.5-0.5l0,0c0-0.275,0.225-0.5,0.5-0.5h2c0.275,0,0.5,0.225,0.5,0.5  l0,0C30,30.775,29.775,31,29.5,31z"/>
<path style="fill:#4788C7;" d="M34.5,31h-2c-0.275,0-0.5-0.225-0.5-0.5l0,0c0-0.275,0.225-0.5,0.5-0.5h2c0.275,0,0.5,0.225,0.5,0.5  l0,0C35,30.775,34.775,31,34.5,31z"/>
<path style="fill:#4788C7;" d="M32.5,34h-2c-0.275,0-0.5-0.225-0.5-0.5l0,0c0-0.275,0.225-0.5,0.5-0.5h2c0.275,0,0.5,0.225,0.5,0.5  l0,0C33,33.775,32.775,34,32.5,34z"/>
<path style="fill:#4788C7;" d="M37.5,34h-2c-0.275,0-0.5-0.225-0.5-0.5l0,0c0-0.275,0.225-0.5,0.5-0.5h2c0.275,0,0.5,0.225,0.5,0.5  l0,0C38,33.775,37.775,34,37.5,34z"/>
</svg>
