<svg id="dust" version="1" xmlns="http://www.w3.org/2000/svg" viewBox="0 0 1000 1000" xml:space="preserve">
	<path d="M520.5,211.2c0,0,242.6,12.6,206.6,109.6c-35.9,97-280.3,190.5-684.6,240.8c194.1,64.7,522.8,19.6,646.9-53.9c97-57.5,91.3,31.8,27,85.1c-62.9,52-200.1,124.3-483.3,119.8c32.3,50.3,306.1,70.9,415.7,10.8c98.2-53.9,117.8,10.2,89.2,46.8c-42.2,53.9-197.6,115-334.2,115c125.8,43.1,371.9,48.5,530-116.8c36.6-40.6,7.1-99.7-35.1-118.6c75.3-48.2,133.9-194.9,31.5-238.1C1142.4,170.6,738.2,31.8,520.5,211.2z"/>
	<g id="particles">
		<path d="M531.2,304.2c0,40.3-32.7,72.9-73,72.9c-40.3,0-73-32.7-73-72.9c0-40.3,32.7-73,73-73C498.5,231.3,531.2,263.9,531.2,304.2z"/>
		<path d="M374.9,146.4c0,40.3-32.7,73-73,73c-40.3,0-73-32.7-73-73c0-40.3,32.7-73,73-73C342.2,73.5,374.9,106.1,374.9,146.4z"/>
		<path d="M228.9,342.9c0,40.3-32.7,73-73,73c-40.3,0-73-32.7-73-73c0-40.3,32.6-73,73-73C196.3,270,228.9,302.6,228.9,342.9z"/>
		<path d="M156,686.8c0,40.3-32.7,73-73,73c-40.3,0-73-32.7-73-73c0-40.3,32.7-73,73-73C123.3,613.9,156,646.6,156,686.8z"/>
		<path d="M358.4,853.6c0,40.3-32.7,73-73,73c-40.3,0-73-32.7-73-73s32.7-73,73-73C325.8,780.6,358.4,813.3,358.4,853.6z"/>
	</g>
</svg>
