<svg id="black" xmlns="http://www.w3.org/2000/svg" width="50mm" height="32mm" viewBox="0 0 141.73 90.71"><title>feature-icon-mdIMU</title><path d="M88.63,46.64v0S88.62,46.67,88.63,46.64Z" fill="#1a1a18"/><path d="M70.33,59.69h0Z" fill="#1a1a18"/><path d="M86.9,45.32a17.51,17.51,0,0,0-2-.89,39.51,39.51,0,0,0-4.43-1.34c-.73-.18-1.45-.33-2.18-.48,0,.68-.1,1.37-.17,2.1-.12,1.29-.32,2.65-.55,4.05,0,.13-.05.26-.08.39.67,0,1.36-.1,2.11-.18,1.2-.1,2.48-.28,3.81-.5a19.61,19.61,0,0,0,3.94-1,3.31,3.31,0,0,0,1.28-.8,1.7,1.7,0,0,0-.19-.25A5.9,5.9,0,0,0,86.9,45.32Z" fill="#1a1a18"/><polygon points="88.63 46.61 88.63 46.6 88.63 46.61 88.63 46.61" fill="#1a1a18"/><path d="M84.59,22.39A26.92,26.92,0,1,0,94.81,59.07,26.92,26.92,0,0,0,84.59,22.39ZM83.33,66.88c-.29-.41-.74-1-1.26-1.62l-1,.47a11,11,0,0,1-1.25.53,15.79,15.79,0,0,1-1.74.6,21.49,21.49,0,0,1-4.87.87c-.48,0-1,.05-1.48.05l-1.61-.07c-.52,0-1-.12-1.54-.18s-1.13-.22-1.72-.34A22,22,0,0,1,60,64.32a21.6,21.6,0,0,1-9.5-13.82,16.56,16.56,0,0,1-.34-2.23l-.1-1.13c0-.38,0-.77,0-1.16l0-1.16.12-1.09.14-1.13.24-1.11a21.22,21.22,0,0,1,3.73-8.13,20.85,20.85,0,0,1,6.47-5.69,21.12,21.12,0,0,1,7.59-2.55l1.88-.16,1.84,0c.6,0,1.17.12,1.73.17a11.59,11.59,0,0,1,1.67.29,18.93,18.93,0,0,1,5.62,2.1,20.66,20.66,0,0,1,3.77,2.66,20.13,20.13,0,0,1,2.05,2.14l.67.81-.7-.78A19.58,19.58,0,0,0,81,27.8a18.63,18.63,0,0,0-5.58-1.86,11,11,0,0,0-1.63-.22c-.56,0-1.15-.12-1.72-.1l-1.75,0-1.8.22a20.24,20.24,0,0,0-7.16,2.7,19.74,19.74,0,0,0-9.09,13.24l-.19,1-.09,1L51.87,45l0,1c0,.34,0,.67,0,1l.13,1a14.65,14.65,0,0,0,.38,2,19.47,19.47,0,0,0,3.41,7.16,19,19,0,0,0,11.63,7.2c.49.07,1,.21,1.44.23s1,.1,1.51.12h1.3c.43,0,.86-.07,1.26-.09a18.2,18.2,0,0,0,4.14-.9,12.6,12.6,0,0,0,1.46-.56,8.07,8.07,0,0,0,1-.49l.25-.13c-.79-1-1.56-1.88-2.11-2.57,3.93-.28,10.94-1,10.94-1A34,34,0,0,1,83.33,66.88Zm8.26-19.81v.05l0,.07a2,2,0,0,1-.05.19,3,3,0,0,1-.61,1.08A5.84,5.84,0,0,1,88.29,50a18.15,18.15,0,0,1-4.63.77,34.59,34.59,0,0,1-4,0c-.86-.06-1.66-.13-2.41-.23-.17.83-.37,1.66-.6,2.5a32.07,32.07,0,0,1-1.47,4.36A18.69,18.69,0,0,1,74,59.56a7.82,7.82,0,0,1-1.69,2.08,3.28,3.28,0,0,1-1.69.76,2.79,2.79,0,0,1-.57,0l-.16,0h-.05l-.06,0-.17,0a2.63,2.63,0,0,1-1-.55,5.28,5.28,0,0,1-1.42-2.37,16.49,16.49,0,0,1-.7-4.21,32.13,32.13,0,0,1,0-3.67,38.43,38.43,0,0,1,.73-5.38c.13-.64.25-1.14.34-1.48l.13-.52s0,.74.08,2,.13,3.13.35,5.31c.09,1.09.25,2.25.46,3.46a18,18,0,0,0,.94,3.58,3,3,0,0,0,.74,1.17s.08,0,.22-.18a5.37,5.37,0,0,0,1-1.38,15.43,15.43,0,0,0,.81-1.84,36,36,0,0,0,1.21-4c.18-.74.33-1.48.48-2.22L73.68,50c-.71-.14-1.25-.28-1.63-.38l-.57-.15,2.25-.09.43,0c.07-.37.14-.75.21-1.12.36-2.19.59-4.29.74-6.16-1.15-.18-2.29-.33-3.36-.45-1.35-.16-2.63-.26-3.82-.33s-2.27-.13-3.22-.14-1.8,0-2.46,0-1.2,0-1.59.08l-.23,0c.13.89.25,1.73.34,2.38-3.16-1.13-6.88-2.5-6.88-2.5s2.73-3.8,5.84-5.27c0,.54.15,1.4.28,2.38l.31,0c.37-.06.93-.15,1.7-.22s1.63-.13,2.66-.17,2.17-.05,3.43,0,2.61.13,4,.27c1,.09,2.1.24,3.19.41,0-.17,0-.35,0-.51,0-.87,0-1.64,0-2.23s0-1.09-.07-1.45v-.21l-2.17.3c1-2.87,2.27-6.25,2.27-6.25s3.45,2.48,4.78,5.3c-.49,0-1.28.14-2.16.26L78,34c.06.33.14.84.21,1.54s.12,1.48.15,2.42c0,.34,0,.72,0,1.09,1,.2,2,.43,3,.7a35.56,35.56,0,0,1,4.8,1.63,20.58,20.58,0,0,1,2.37,1.19,8.72,8.72,0,0,1,2.3,1.86,3.63,3.63,0,0,1,.84,1.86,3.24,3.24,0,0,1,0,.63C91.61,47,91.64,46.79,91.59,47.07Z" fill="#1a1a18"/></svg>