<svg id="black" xmlns="http://www.w3.org/2000/svg" width="50mm" height="32mm" viewBox="0 0 141.73 90.71"><title>feature-icon-mdCockpit</title><path d="M71.82,20.92A24.39,24.39,0,1,0,96.21,45.31,24.42,24.42,0,0,0,71.82,20.92Zm0,45.78A21.37,21.37,0,0,1,57.58,29.39l1.59,1.9,1-.82-1.6-1.91a21.3,21.3,0,0,1,5.33-3.1l.85,2.34,1.2-.44L65.08,25A21.33,21.33,0,0,1,71.15,24v2.48h1.28V24a21.32,21.32,0,0,1,6.07,1l-.86,2.35,1.2.44.85-2.34A21.3,21.3,0,0,1,85,28.51l-1.6,1.91,1,.82,1.6-1.9A21.37,21.37,0,0,1,71.82,66.7Z" fill="#1a1a18"/><rect x="65.43" y="31.3" width="12.79" height="0.99" fill="#1a1a18"/><rect x="70.86" y="34.68" width="1.93" height="0.99" fill="#1a1a18"/><rect x="70.86" y="41.44" width="1.93" height="0.99" fill="#1a1a18"/><rect x="65.43" y="38.06" width="12.79" height="0.99" fill="#1a1a18"/><path d="M82,49.74H79.73V44.22H90.32q-.05-.76-.15-1.5H78.23v2.59H65.34V42.72H53.48c-.07.49-.12,1-.16,1.5H63.84v5.52H61.6V46.46H53.31a18.5,18.5,0,0,0,36.93,0H82ZM70.86,48.19h1.93v1H70.86Zm7.36,11.13H65.43v-1H78.21Zm-7.36-3.38V55h1.93v1Zm7.36-3.38H65.43v-1H78.21Z" fill="#1a1a18"/></svg>