<svg id="black" xmlns="http://www.w3.org/2000/svg" width="50mm" height="32mm" viewBox="0 0 141.73 90.71"><title>feature-icon-mdFNC</title><path d="M88.88,48.63a9.63,9.63,0,0,0-10.3,2.14L76.32,53a9.62,9.62,0,0,0-2.14,10.3.6.6,0,0,0,1.06.19L89.08,49.69A.6.6,0,0,0,88.88,48.63Z" fill="#1a1a18"/><path d="M80,45l-3.34-3.34,1.5-1.5,2.92,2.92L96.54,27.62l-7.7-7.7L73.35,35.4l2.88,2.88-1.5,1.5L72,37h0l-2.33-2.33a2,2,0,0,0-2.75,0l-6.65,6.65a2,2,0,0,0,0,2.75L65.13,49l.2.2-1.5,1.5-2.92-2.92L45.43,63.24l7.7,7.7L68.61,55.46l-2.88-2.88,1.5-1.5,3.34,3.34a.67.67,0,0,0,.95,0L80,46A.67.67,0,0,0,80,45Zm12.78-17.4-4.9,4.9L83.94,28.6l4.9-4.9ZM82,30.5,86,34.41l-4.9,4.9L77.14,35.4ZM49.22,63.24l4.9-4.9L58,62.26l-4.9,4.9Zm10.7-2.88L56,56.45l4.9-4.9,3.91,3.91Z" fill="#1a1a18"/><path d="M89,63.43a10.52,10.52,0,0,1-7.49,3.1v2.68A13.27,13.27,0,0,0,94.77,55.95H92.09A10.51,10.51,0,0,1,89,63.43Z" fill="#1a1a18"/><path d="M85.25,59.7a5.27,5.27,0,0,1-3.75,1.55v2.68a8,8,0,0,0,8-8H86.81A5.29,5.29,0,0,1,85.25,59.7Z" fill="#1a1a18"/></svg>