<svg id="black" xmlns="http://www.w3.org/2000/svg" width="50mm" height="32mm" viewBox="0 0 141.73 90.71"><title>feature-icon-mdSi2</title><path d="M88.11,44,85,41A4.31,4.31,0,0,0,82,39.72h0A4.3,4.3,0,0,0,78.92,41L65.41,54.5a1.37,1.37,0,0,1-1.88,0l-5.7-5.7a1.34,1.34,0,0,1,0-1.89l3.42-3.42-2.12-2.12L55.7,44.79a4.34,4.34,0,0,0,0,6.13l5.7,5.7a4.34,4.34,0,0,0,6.13,0L81,43.11a1.34,1.34,0,0,1,1.89,0L86,46.17a1.34,1.34,0,0,1,0,1.89L70.47,63.57a1.5,1.5,0,1,0,2.12,2.12L88.11,50.18A4.34,4.34,0,0,0,88.11,44Z" fill="#1a1a18"/><path d="M66.72,46.76a.54.54,0,0,0,.76,0l8.32-8.32a.54.54,0,0,0,0-.76l-1.43-1.43,4.07-4.08a.85.85,0,0,0,0-1.2l-.27-.28a.85.85,0,0,0-1.2,0l-4.08,4.08L71.1,33l4.08-4.08a.85.85,0,0,0,0-1.2l-.27-.27a.86.86,0,0,0-1.21,0l-4.07,4.08-1.79-1.79,4.08-4.08a.85.85,0,0,0,0-1.2l-.28-.28a.85.85,0,0,0-1.2,0l-4.08,4.08-1.43-1.43a.55.55,0,0,0-.77,0l-8.31,8.31a.55.55,0,0,0,0,.77Z" fill="#1a1a18"/></svg>