<svg id="black" xmlns="http://www.w3.org/2000/svg" width="50mm" height="32mm" viewBox="0 0 141.73 90.71"><title>feature-icon-mdLA</title><path d="M80.68,50.22H77.09l-.28,0a.93.93,0,0,0-.23.07.43.43,0,0,0-.15.11.2.2,0,0,0,0,.14l.32,5.51h-11L66,50.57a.2.2,0,0,0-.05-.14.45.45,0,0,0-.15-.11,1,1,0,0,0-.23-.07l-.28,0H61.69l-.28,0a1.11,1.11,0,0,0-.24.07.57.57,0,0,0-.17.11.24.24,0,0,0-.07.14l-1.8,15.55a.32.32,0,0,0,0,.2.52.52,0,0,0,.17.17.92.92,0,0,0,.26.11,1.3,1.3,0,0,0,.33,0H64.2a1.38,1.38,0,0,0,.34,0,1.1,1.1,0,0,0,.28-.11.67.67,0,0,0,.2-.17.37.37,0,0,0,.08-.2l.43-7.38H76.86l.43,7.38a.38.38,0,0,0,.08.2.65.65,0,0,0,.19.17,1.08,1.08,0,0,0,.28.11,1.41,1.41,0,0,0,.34,0h4.26a1.32,1.32,0,0,0,.33,0,.9.9,0,0,0,.26-.11.5.5,0,0,0,.16-.17.33.33,0,0,0,0-.2l-1.8-15.55a.24.24,0,0,0-.07-.14.55.55,0,0,0-.17-.11,1.08,1.08,0,0,0-.24-.07l-.29,0" fill="#1a1a18"/><path d="M71.19,73.43A40.72,40.72,0,0,1,60.35,72a27.23,27.23,0,0,1-8.2-3.69,13.59,13.59,0,0,1-4.61-5,8,8,0,0,1-.62-5.55,10.62,10.62,0,0,1,3.07-5,20.44,20.44,0,0,1,5.6-3.7,33,33,0,0,1,7.25-2.33,42.78,42.78,0,0,1,16.71,0,33,33,0,0,1,7.25,2.33,20.44,20.44,0,0,1,5.6,3.7,10.62,10.62,0,0,1,3.07,5,8,8,0,0,1-.62,5.55,13.59,13.59,0,0,1-4.61,5A27.23,27.23,0,0,1,82,72a40.72,40.72,0,0,1-10.84,1.42m0-29.32a49.42,49.42,0,0,0-9.64.93,39.47,39.47,0,0,0-8.44,2.65,24.93,24.93,0,0,0-6.65,4.24,13.08,13.08,0,0,0-3.84,5.8,9.4,9.4,0,0,0,.44,6.6,15.48,15.48,0,0,0,5.27,6.11A31.43,31.43,0,0,0,58.09,75,49.49,49.49,0,0,0,84.3,75,31.4,31.4,0,0,0,94,70.44a15.47,15.47,0,0,0,5.26-6.11,9.4,9.4,0,0,0,.44-6.6,13.09,13.09,0,0,0-3.84-5.8,24.91,24.91,0,0,0-6.65-4.24A39.43,39.43,0,0,0,80.83,45a49.41,49.41,0,0,0-9.64-.93" fill="#1a1a18"/><path d="M71.19,38a11.64,11.64,0,0,1-8.29-3.43l-2.1,2.1a14.7,14.7,0,0,0,20.78,0l-2.1-2.1A11.64,11.64,0,0,1,71.19,38Z" fill="#1a1a18"/><path d="M71.19,32.18A5.83,5.83,0,0,1,67,30.46l-2.1,2.1a8.84,8.84,0,0,0,12.51,0l-2.1-2.1A5.86,5.86,0,0,1,71.19,32.18Z" fill="#1a1a18"/><path d="M59.85,18.87H15.43c0-1.12,9.94-2.51,22.21-2.51S59.85,17.75,59.85,18.87Z" fill="#1a1a18"/><path d="M126.94,18.87H82.52c0-1.12,9.94-2.51,22.21-2.51S126.94,17.75,126.94,18.87Z" fill="#1a1a18"/><path d="M99.93,22.16H83a2.31,2.31,0,0,1-2.07-1.72c-1.14-3.75-5.08-6.52-9.77-6.52s-8.63,2.77-9.77,6.52a2.31,2.31,0,0,1-2.07,1.72H42.44c-1,0-1.75-.29-1.75-.65v-.65a.58.58,0,0,0-.58-.59H34.88a.58.58,0,0,0-.59.59v2.5a1,1,0,0,0,.53.82L39,26a.72.72,0,0,0,.86-.24l.42-.62a3.19,3.19,0,0,1,2.18-.62h17.2A5.06,5.06,0,0,1,62.4,26c1.74,1.43,5,1.36,8.78,1.36s7,.07,8.78-1.36a5.06,5.06,0,0,1,2.76-1.41h17.2a3.18,3.18,0,0,1,2.17.62l.42.62a.72.72,0,0,0,.86.24l4.15-1.86a1,1,0,0,0,.53-.82v-2.5a.59.59,0,0,0-.58-.59h-5.22a.58.58,0,0,0-.58.59v.65C101.68,21.87,100.9,22.16,99.93,22.16Z" fill="#1a1a18"/></svg>