<svg id="black" xmlns="http://www.w3.org/2000/svg" width="50mm" height="32mm" viewBox="0 0 141.73 90.71"><title>feature-icon-mdRFID</title><path d="M70.76,16.38A28.94,28.94,0,0,0,42.56,38.7a.15.15,0,0,0,.16.2h2.38a.27.27,0,0,0,.25-.19,26.28,26.28,0,1,1,0,13.17.27.27,0,0,0-.25-.2H42.68a.15.15,0,0,0-.16.2A29,29,0,1,0,70.76,16.38Z"/><path d="M70.76,29.53A15.84,15.84,0,0,0,56.4,38.71a.12.12,0,0,0,.12.18h2.63a.39.39,0,0,0,.3-.17,13.21,13.21,0,0,1,2-2.64,13.1,13.1,0,1,1-2.12,15.77.38.38,0,0,0-.3-.18H56.46a.12.12,0,0,0-.12.18A15.82,15.82,0,1,0,70.76,29.53Z"/><path d="M49.15,49.41h-.58a.21.21,0,0,1-.2-.22v-4c0-1-.41-1.09-1-1.09h-.26c-.71,0-1,.12-1,.76v4.36a.21.21,0,0,1-.2.22h-.58a.21.21,0,0,1-.2-.22V44.83c0-.63-.24-.76-1-.76H44c-.58,0-1,.13-1,1.09v4a.21.21,0,0,1-.2.22h-.58a.21.21,0,0,1-.2-.22v-4a1.79,1.79,0,0,1,2-1.95h.26a2,2,0,0,1,1.44.4,2.08,2.08,0,0,1,1.45-.4h.26a1.79,1.79,0,0,1,2,1.95v4A.21.21,0,0,1,49.15,49.41Z"/><path d="M55.13,49.3a10.67,10.67,0,0,1-2,.19c-1.66,0-2.42-1.08-2.42-2.75v-.8c0-1.75.8-2.72,2.42-2.72a8.11,8.11,0,0,1,1.3.11V41.26A.21.21,0,0,1,54.6,41h.57a.2.2,0,0,1,.2.21V49C55.37,49.19,55.33,49.26,55.13,49.3Zm-.74-5.15a8.59,8.59,0,0,0-1.3-.08c-1.09,0-1.44.68-1.44,1.87v.8c0,1.21.34,1.89,1.44,1.89.38,0,.92,0,1.3-.07Z"/><path d="M62.83,49.41H61.47c-.12,0-.17-.11-.22-.22l-1.6-3h-.16c-.29,0-.73,0-1,0v3a.21.21,0,0,1-.21.22H57.18a.22.22,0,0,1-.22-.22V41.54c0-.22.13-.3.36-.33a15.19,15.19,0,0,1,2.18-.14c1.71,0,3.2.61,3.2,2.51v.1a2.25,2.25,0,0,1-1.5,2.27l1.75,3.25a.15.15,0,0,1,0,.09A.12.12,0,0,1,62.83,49.41Zm-1.67-5.84c0-.83-.56-1.19-1.67-1.19-.23,0-.79,0-1,0v2.5l1,0c1.15,0,1.67-.31,1.67-1.29Z"/><path d="M68.9,42.38H66.63c-.65,0-.88.22-.88,1v1.2h3a.22.22,0,0,1,.22.22v.8a.22.22,0,0,1-.22.22h-3v3.4a.22.22,0,0,1-.22.22H64.44a.22.22,0,0,1-.22-.22V43.34c0-1.89,1.12-2.28,2.57-2.28a10.46,10.46,0,0,1,2.11.16c.17,0,.22.08.22.23v.71A.22.22,0,0,1,68.9,42.38Z"/><path d="M71.94,49.41h-1.1a.22.22,0,0,1-.22-.22V41.36a.21.21,0,0,1,.22-.21h1.1a.21.21,0,0,1,.22.21v7.83A.22.22,0,0,1,71.94,49.41Z"/><path d="M76.31,49.5a18.77,18.77,0,0,1-2.19-.13.3.3,0,0,1-.29-.34V41.54a.3.3,0,0,1,.29-.34,18.77,18.77,0,0,1,2.19-.13c2.22,0,3.49,1.2,3.49,3.4v1.63C79.8,48.3,78.53,49.5,76.31,49.5Zm2-5c0-1.67-.84-2.1-2-2.1-.41,0-.7,0-.93,0v5.77c.23,0,.52,0,.93,0,1.11,0,2-.43,2-2.1Z"/><path d="M70.76,23A22.39,22.39,0,0,0,49.37,38.7a.14.14,0,0,0,.14.19H52a.3.3,0,0,0,.27-.19,19.7,19.7,0,1,1,0,13.16.3.3,0,0,0-.27-.19H49.47a.14.14,0,0,0-.14.19A22.41,22.41,0,1,0,70.76,23Z"/></svg>