<svg id="black" xmlns="http://www.w3.org/2000/svg" width="50mm" height="32mm" viewBox="0 0 141.73 90.71"><title>feature-icon-mdWaypoint</title><g style="isolation:isolate"><path d="M78,38.14l-.39,0-.39,0-.39,0-.38.06-.38.06-.42.06-.46.05-.49.05.62,1.17.54-.06.52-.06.49-.07.47-.07.26,0,.26,0,.26,0,.26,0L78,38.14m9.42,2.92-2,.72.56.36.55.36.55.37.55.38,2.05-.7-.58-.38-.57-.37L88,41.42l-.58-.36M92,44.11l-2.13.69.52.39.55.41.58.43.61.45,2.18-.7-.62-.45-.59-.42-.56-.4L92,44.11m4.69,3.42-2.26.71.62.49.59.47.56.46.53.45,2.37-.68L98.54,49,98,48.5,97.34,48l-.65-.5m4.81,3.9L99,52.11l.49.43L100,53l.54.48.58.51.06.06.06.06.06.06.06.06,2.58-.64-.09-.08-.08-.08-.08-.08-.09-.07-.58-.5-.55-.47-.52-.45-.5-.43M44.83,43l-.87.26-.85.26-.82.26-.8.26,1.15,1.13.77-.26.8-.26.83-.26.84-.26L44.83,43M38.1,45.28l-.05,0q-.49.19-.94.41t-.85.45a9,9,0,0,0-.75.5,7.15,7.15,0,0,0-.65.54l2.41.47a4.7,4.7,0,0,1,.42-.36,5.94,5.94,0,0,1,.5-.34q.27-.16.56-.31t.63-.28l.05,0L38.1,45.28m68,10.93-3.07.13c.08.16.15.32.21.47a4.31,4.31,0,0,1,.15.46,3.22,3.22,0,0,1,.09.45,2.35,2.35,0,0,1,0,.42v.25l0,.08,3.3.73,0-.13,0-.13s0-.09,0-.13,0-.09,0-.13a3.84,3.84,0,0,0,0-.62,4.67,4.67,0,0,0-.14-.62,5.78,5.78,0,0,0-.23-.62c-.09-.2-.19-.41-.3-.61M36.43,49.3l-2.92.34s0,.07,0,.1,0,.07,0,.1V50a4.13,4.13,0,0,0,.07.44q0,.22.12.45t.17.46q.09.24.21.48L37,51.1q-.11-.22-.2-.42t-.16-.4q-.07-.19-.11-.37a3.27,3.27,0,0,1-.07-.34V49.3M102,60.41l-.49.47-.53.48-.59.48-.65.49L102.63,64l.71-.56.64-.55.58-.55.52-.54-3-1.36M38.16,53l-2.89.94.33.5.36.51.37.52.38.53,2.92-1-.4-.51-.38-.5-.36-.48L38.16,53M97,64.13l-.72.4-.78.41-.84.43-.9.45,2.44,2,.95-.48.88-.47.82-.45.76-.44L97,64.13M41.26,57l-3,1.09.33.44L39,59l.32.44.32.44.09.11.08.11.08.11.08.11,3-1.13-.08-.11-.09-.11-.08-.11-.08-.11-.34-.44-.34-.43-.34-.43L41.26,57M90.2,67.46l-.92.39-.94.39-1,.39-1,.38,2.09,2.26,1-.41,1-.42,1-.42,1-.43L90.2,67.46M44.78,61.39l-3,1.24.49.6.5.6.51.6.52.6,3.05-1.35-.53-.58-.51-.58-.5-.58-.49-.58m37.6,9.08-1.06.36-1.06.35-1.07.34-1.07.33,1.68,2.49L80.93,74,82,73.61l1.12-.38,1.11-.38-1.9-2.38M49,66.08,46,67.55l.6.65.61.65.61.65.61.64,3.07-1.59-.62-.61-.61-.62-.61-.62L49,66.08m24.62,7.08-1.19.32-1.17.31-1.15.29L69,74.35l1.2,2.7,1.19-.3,1.21-.32,1.23-.33,1.25-.35-1.46-2.59m-19.53-2-3.07,1.71.7.69.7.68.69.66.67.65.15.13,3-1.88-.1-.09-.67-.62-.69-.63-.7-.65-.7-.66m10.12,4.26-.05,0c-.32.06-.65.11-1,.13s-.65,0-1,0-.65,0-1-.06-.63-.09-.94-.15l-.13,0L58.85,78.1l.2,0a14.23,14.23,0,0,0,1.45.24,14.91,14.91,0,0,0,1.5.09,15.11,15.11,0,0,0,1.53-.06,14.86,14.86,0,0,0,1.53-.22h.05l-.86-2.81M81.88,38.47,81,39.54l.53.14.5.17.47.2.44.23.06,0,.07,0,.07,0,.07,0,1.86-.74-.07,0-.07,0-.07,0-.07,0c-.21-.12-.43-.23-.66-.33s-.47-.2-.71-.29l-.75-.24-.79-.2" fill="#1a1a18"/></g><path d="M84.31,19.9c0,6.66-8,15.45-8,15.45s-8-8.79-8-15.45a8,8,0,1,1,16,0Zm-8-4.67A4.67,4.67,0,1,0,81,19.9,4.67,4.67,0,0,0,76.32,15.23Z" fill="#1a1a18"/><path d="M115.16,36.61c0,6.95-8.33,16.11-8.33,16.11s-8.33-9.16-8.33-16.11a8.33,8.33,0,1,1,16.65,0Zm-8.33-4.87a4.87,4.87,0,1,0,4.87,4.87A4.87,4.87,0,0,0,106.83,31.74Z" fill="#1a1a18"/><path d="M43.07,28.17c0,6.95-8.33,16.11-8.33,16.11s-8.33-9.16-8.33-16.11a8.33,8.33,0,0,1,16.65,0Zm-8.33-4.87a4.87,4.87,0,1,0,4.87,4.87A4.87,4.87,0,0,0,34.75,23.31Z" fill="#1a1a18"/><path d="M62,34.2A12.62,12.62,0,0,0,49.34,46.82C49.34,57.35,62,71.25,62,71.25s12.62-13.9,12.62-24.43A12.62,12.62,0,0,0,62,34.2Zm0,20a7.38,7.38,0,1,1,7.38-7.38A7.38,7.38,0,0,1,62,54.2Z" fill="#1a1a18"/></svg>