<?xml version="1.0" encoding="utf-8"?>
<!-- Generator: Adobe Illustrator 16.0.0, SVG Export Plug-In . SVG Version: 6.00 Build 0)  -->
<!DOCTYPE svg PUBLIC "-//W3C//DTD SVG 1.1//EN" "http://www.w3.org/Graphics/SVG/1.1/DTD/svg11.dtd">
<svg version="1.1" id="Layer_1" xmlns="http://www.w3.org/2000/svg" xmlns:xlink="http://www.w3.org/1999/xlink" x="0px" y="0px"
	 width="100px" height="100px" viewBox="0 0 100 100" enable-background="new 0 0 100 100" xml:space="preserve">
<path fill="#8C8B8B" stroke="#6A6A6A" stroke-width="0.2859" stroke-miterlimit="10" d="M97.133,8.469
	c-26.821-6.488-56.254,1.966-69.281,20.309c-2.039,1.188-3.971,1.675-6.504,0.543C8.417,23.542,8.866,3.619,8.866,3.619
	C2.341,30.486,10.821,59.995,29.224,73.01c1.142,1.998,1.591,3.906,0.479,6.394C23.923,92.333,4,91.884,4,91.884
	c26.813,6.514,56.256-1.92,69.309-20.246c2.029-1.175,3.955-1.652,6.477-0.525c12.792,5.716,12.506,25.215,12.496,25.639
	c6.476-26.765-1.933-56.132-20.197-69.199c-1.222-2.068-1.736-4.019-0.59-6.586C77.209,8.174,96.707,8.46,97.133,8.469z"/>
<path fill="#E19105" stroke="#6A6A6A" stroke-width="0.4548" stroke-miterlimit="10" d="M55.906,24.864
	c-10.217,4.78-17.452,14.996-16.925,24.178c-0.347,0.9-0.839,1.549-1.937,1.835c-5.604,1.458-10.549-5.015-10.549-5.015
	c4.781,10.242,15.024,17.495,24.222,16.947c0.875,0.346,1.505,0.842,1.786,1.918c1.459,5.604-5.015,10.55-5.015,10.55
	c10.222-4.771,17.464-14.982,16.949-24.167c0.348-0.892,0.839-1.537,1.933-1.821c5.543-1.443,10.432,4.853,10.538,4.991
	c-4.771-10.196-14.955-17.422-24.123-16.927c-0.918-0.348-1.58-0.839-1.87-1.952C49.472,29.858,55.769,24.969,55.906,24.864z"/>
</svg>
