<svg xmlns="http://www.w3.org/2000/svg" width="48" height="48" viewBox="0 0 48 48">
  <g fill="none" fill-rule="evenodd">
    <rect width="48" height="48"/>
    <g transform="translate(5 3)">
      <path d="M19.4092823,40.094168 C9.51447774,40.094168 1.49299785,32.1394241 1.49299785,22.3263683 C1.49299785,12.5135689 9.51447774,4.55856861 19.4092823,4.55856861 C29.3040868,4.55856861 37.3255667,12.5135689 37.3255667,22.3263683 C37.3255667,32.1394241 29.3040868,40.094168 19.4092823,40.094168"/>
      <path fill="#000" fill-opacity=".3" d="M19.4092823,22.3264709 L3.11606327,22.3264709 C3.11606327,31.2503675 10.410809,38.4844002 19.4092823,38.4844002 C28.4077555,38.4844002 35.7025013,31.2503675 35.7025013,22.3264709 C35.7025013,13.4025742 28.4077555,6.16828511 19.4092823,6.16828511 L19.4092823,22.3264709 Z"/>
      <path fill="#000" d="M33.7183956,7.70213593 C33.7183956,7.70213593 34.7739827,6.65529717 35.3019055,7.17884474 C35.5935299,7.46779583 36.0658683,7.46779583 36.3574927,7.17884474 C36.6491171,6.88938088 36.6491171,6.42095707 36.3574927,6.13174959 L34.2460599,4.03807207 C33.954694,3.74886459 33.4820971,3.74886459 33.1904727,4.03807207 C32.8988484,4.32727955 32.8988484,4.79570336 33.1904727,5.08491083 C33.1904727,5.08491083 33.7183956,5.60845841 32.6628084,6.65529717 L33.7183956,7.70213593 Z"/>
      <path fill="#000" d="M19.4092823,40.0544662 C9.51447774,40.0544662 1.49299785,32.0997223 1.49299785,22.2866665 C1.49299785,12.4738671 9.51447774,4.51886681 19.4092823,4.51886681 C29.3040868,4.51886681 37.3255667,12.4738671 37.3255667,22.2866665 C37.3255667,32.0997223 29.3040868,40.0544662 19.4092823,40.0544662 M20.1559234,3.0759061 L20.1559234,0.817370064 C20.1559234,0.408941422 19.8218997,0.0769168818 19.4092823,0.0769168818 C18.9966648,0.0769168818 18.6628997,0.408941422 18.6628997,0.817370064 L18.6628997,3.0759061 C8.29187876,3.46766942 -2.58532241e-05,11.9062205 -2.58532241e-05,22.2866665 C-2.58532241e-05,32.9173487 8.68975989,41.5351162 19.4092823,41.5351162 C30.1288046,41.5351162 38.8185904,32.9173487 38.8185904,22.2866665 C38.8185904,11.9062205 30.5266858,3.46766942 20.1559234,3.0759061" transform="translate(0 .04)"/>
      <path fill="#000" d="M20.1557941,20.2413568 L20.1557941,13.3921648 C20.1557941,12.982967 19.8217705,12.6517116 19.409153,12.6517116 C18.9967941,12.6517116 18.6627704,12.982967 18.6627704,13.3921648 L18.6627704,20.2413568 C17.7951362,20.5479987 17.1697467,21.3612666 17.1697467,22.326317 C17.1697467,23.2923931 17.7951362,24.1056609 18.6627704,24.4115337 L18.6627704,26.768267 C18.6627704,27.1774648 18.9967941,27.5087201 19.409153,27.5087201 C19.8217705,27.5087201 20.1557941,27.1774648 20.1557941,26.768267 L20.1557941,24.4115337 C21.0234283,24.1056609 21.6488178,23.2923931 21.6488178,22.326317 C21.6488178,21.3612666 21.0234283,20.5479987 20.1557941,20.2413568"/>
      <path fill="#000" d="M17.3233666,21.586069 L3.68966875,21.586069 C3.27705129,21.586069 2.94328617,21.9173243 2.94328617,22.3265221 C2.94328617,22.7354636 3.27705129,23.0667189 3.68966875,23.0667189 L17.3233666,23.0667189 C17.6325711,23.9271625 18.4526354,24.5473689 19.4257508,24.5473689 C20.3999003,24.5473689 21.2199645,23.9271625 21.5283935,23.0667189 L23.9048219,23.0667189 C24.3174393,23.0667189 24.651463,22.7354636 24.651463,22.3265221 C24.651463,21.9173243 24.3174393,21.586069 23.9048219,21.586069 L21.5283935,21.586069 C21.2199645,20.7256254 20.3999003,20.105419 19.4257508,20.105419 C18.4526354,20.105419 17.6325711,20.7256254 17.3233666,21.586069"/>
    </g>
  </g>
</svg>
