<svg xmlns="http://www.w3.org/2000/svg" width="48" height="48" viewBox="0 0 48 48">
  <g fill="none" fill-rule="evenodd">
    <rect width="48" height="48"/>
    <g fill="#000" transform="translate(3 4)">
      <path d="M20.4488174,7.95795579 L3.725188,7.95795579 C3.24128737,7.95795579 2.84908546,7.56888665 2.84908546,7.08885124 C2.84908546,6.60881583 3.24128737,6.21974669 3.725188,6.21974669 L20.4488174,6.21974669 C21.598848,6.21974669 22.5345255,5.29154304 22.5345255,4.15069847 C22.5345255,3.0098539 21.598848,2.08165024 20.4488174,2.08165024 C19.2987868,2.08165024 18.3631093,3.0098539 18.3631093,4.15069847 C18.3631093,4.63102358 17.9709073,5.01980302 17.4870067,5.01980302 C17.0031061,5.01980302 16.6109042,4.63102358 16.6109042,4.15069847 C16.6109042,2.05123158 18.3324457,0.343441147 20.4488174,0.343441147 C22.5651891,0.343441147 24.2867306,2.05123158 24.2867306,4.15069847 C24.2867306,6.24987565 22.5651891,7.95795579 20.4488174,7.95795579"/>
      <path d="M28.673814 11.2914932L.875956523 11.2914932C.392347921 11.2914932-.00014601709 10.9024241-.00014601709 10.4223886-.00014601709 9.94235323.392347921 9.5532841.875956523 9.5532841L28.673814 9.5532841C29.8238446 9.5532841 30.7595221 8.62508044 30.7595221 7.48394617 30.7595221 6.3433913 29.8238446 5.41518764 28.673814 5.41518764 27.5237834 5.41518764 26.5881059 6.3433913 26.5881059 7.48394617 26.5881059 7.96427128 26.195904 8.35305072 25.7120034 8.35305072 25.2281027 8.35305072 24.8359008 7.96427128 24.8359008 7.48394617 24.8359008 5.38476899 26.5574423 3.67697855 28.673814 3.67697855 30.7901857 3.67697855 32.5117272 5.38476899 32.5117272 7.48394617 32.5117272 9.58341306 30.7901857 11.2914932 28.673814 11.2914932M39.7199193 22.8727748C39.4965131 22.8727748 39.273107 22.7884717 39.102267 22.6201551 36.1433767 19.7025711 34.4463661 15.6557306 34.4463661 11.5173445 34.4463661 7.3902567 36.051678 3.49521982 38.9664711.549824507 39.3055228.207397315 39.8603877.202472389 40.2055721.538526148 40.5507565.874579906 40.5557211 1.42501279 40.2169615 1.76743998 37.6257422 4.38605198 36.1985711 7.8485645 36.1985711 11.5173445 36.1985711 15.196264 37.7072197 18.7937775 40.3375716 21.3871854 40.6807117 21.7255568 40.6824639 22.2757 40.341368 22.616389 40.170236 22.7873129 39.9450776 22.8727748 39.7199193 22.8727748M26.7236974 20.5014231C24.6073257 20.5014231 22.8857842 18.7933429 22.8857842 16.693876 22.8857842 16.2138406 23.2779861 15.8247715 23.7618867 15.8247715 24.2457874 15.8247715 24.6379893 16.2138406 24.6379893 16.693876 24.6379893 17.8350103 25.5736668 18.763214 26.7236974 18.763214 27.873728 18.763214 28.8094055 17.8350103 28.8094055 16.693876 28.8094055 15.5533212 27.873728 14.6251175 26.7236974 14.6251175L3.7251296 14.6251175C3.24122896 14.6251175 2.84902706 14.2360484 2.84902706 13.756013 2.84902706 13.2759775 3.24122896 12.8869084 3.7251296 12.8869084L26.7236974 12.8869084C28.8400691 12.8869084 30.5616106 14.5946988 30.5616106 16.693876 30.5616106 18.7933429 28.8400691 20.5014231 26.7236974 20.5014231"/>
    </g>
  </g>
</svg>
