<svg xmlns="http://www.w3.org/2000/svg" width="48" height="48" viewBox="0 0 48 48">
  <g fill="none" fill-rule="evenodd">
    <rect width="48" height="48"/>
    <g transform="translate(8 2)">
      <path stroke="#000" stroke-width="2" d="M9.25447194,8.9 C9.02121024,8.16450576 8.9,7.39068819 8.9,6.6 C8.9,2.4026359 12.3026359,-1 16.5,-1 C20.6973641,-1 24.1,2.4026359 24.1,6.6 C24.1,7.39068819 23.9787898,8.16450576 23.7455281,8.9 L24.7033252,8.9 C27.9750609,8.9 30.8619948,11.5256715 31.1769642,14.7803556 L33.5137358,38.926996 C33.8363699,42.2608808 31.35034,45 28.0059354,45 L4.99406457,45 C1.64814753,45 -0.835941666,42.2564562 -0.51373584,38.926996 L1.82303581,14.7803556 C2.13854343,11.5201103 5.02360274,8.9 8.29667477,8.9 L9.25447194,8.9 Z M16.5,8.9 C17.7702549,8.9 18.8,7.87025492 18.8,6.6 C18.8,5.32974508 17.7702549,4.3 16.5,4.3 C15.2297451,4.3 14.2,5.32974508 14.2,6.6 C14.2,7.87025492 15.2297451,8.9 16.5,8.9 Z"/>
      <text fill="#000" font-family="FrutigerLTStd-BoldCn, Frutiger LT Std" font-size="16" font-style="condensed" font-weight="bold" letter-spacing="-.8">
        <tspan x="6.9" y="32.8">2.</tspan> <tspan x="17.78" y="32.8">7</tspan>
      </text>
    </g>
  </g>
</svg>
