<svg id="Layer_1" version="1.1" xmlns="http://www.w3.org/2000/svg" viewBox="0 0 100 100" xml:space="preserve">
	<title>Gattex Icon Set_blue</title>
	<path fill="#0082B6" d="M75.4,28.7H24.6c-4.5,0-8.1,3.6-8.1,8.1V60c0,4.5,3.6,8.1,8.1,8.1h8l13.1,11.2l0.6-11.2h29.1 c4.5,0,8.1-3.6,8.1-8.1V36.7C83.4,32.3,79.8,28.7,75.4,28.7z"/>
	<g fill="#FFFFFF">
		<path id="outline" d="M45.7,80c-0.2,0-0.4-0.1-0.5-0.2L32.3,68.9h-7.7c-4.9,0-8.9-4-8.9-8.8c0,0,0,0,0,0V36.7c0-4.9,4-8.8,8.8-8.8 h50.8c4.9,0,8.9,4,8.9,8.8c0,0,0,0,0,0V60c0,4.9-4,8.8-8.8,8.8H47.1l-0.6,10.4C46.4,79.7,46.1,80,45.7,80L45.7,80z M24.6,29.4 c-4,0-7.3,3.3-7.3,7.3V60c0,4,3.3,7.3,7.3,7.3h8c0.2,0,0.4,0.1,0.5,0.2L45,77.6l0.5-9.6c0-0.4,0.4-0.7,0.8-0.7h29.1 c4,0,7.3-3.3,7.3-7.3V36.7c0-4-3.3-7.3-7.3-7.3H24.6z"/>
		<g id="waves">
			<path d="M41.4,49.2c-2.5,0-5-0.4-7.3-1.2c-0.2-0.1-0.3-0.3-0.3-0.5v-4.4c0-0.3,0.2-0.5,0.5-0.5c0.1,0,0.2,0,0.3,0.1 c0.4,0.3,11.1,6.4,19.4-2.1c6.7-6.8,17.3-3.2,17.4-3.1c0.2,0.1,0.3,0.3,0.3,0.5v4.7c0,0.3-0.2,0.5-0.5,0.5c-0.1,0-0.2,0-0.3-0.1 c-0.1-0.1-11.5-6.4-17.8,1.2C50.1,47.5,45.8,49.4,41.4,49.2z M34.8,47.2c1.9,0.6,11.8,3.2,17.5-3.6c2.8-3.4,7.1-4.7,12.2-3.8 c2.1,0.4,4.2,1.1,6.1,2v-3.5c-1.8-0.5-10.4-2.7-16,3c-7.6,7.7-17.1,4-19.9,2.7L34.8,47.2z"/>
			<path d="M39.2,54.2c-2.5,0-5-0.4-7.3-1.2c-0.2-0.1-0.3-0.3-0.3-0.5v-4.5c0-0.3,0.2-0.5,0.5-0.5c0.1,0,0.2,0,0.3,0.1 c0.4,0.3,11.1,6.4,19.4-2.1c6.7-6.8,17.3-3.2,17.4-3.1c0.2,0.1,0.3,0.3,0.3,0.5v4.7c0,0.3-0.2,0.5-0.5,0.5c-0.1,0-0.2,0-0.3-0.1 C68.6,48,57.2,41.7,51,49.2C48,52.6,43.7,54.4,39.2,54.2z M32.6,52.2c1.9,0.6,11.8,3.2,17.5-3.6c2.8-3.4,7.1-4.7,12.2-3.8 c2.1,0.4,4.2,1.1,6.1,2v-3.5c-1.8-0.5-10.4-2.7-16,3c-7.6,7.7-17.1,4-19.9,2.7V52.2z"/>
			<path d="M37.2,59.3c-2.5,0-5-0.4-7.3-1.2c-0.2-0.1-0.3-0.3-0.3-0.5v-4.4c0-0.3,0.2-0.5,0.5-0.5c0.1,0,0.2,0,0.3,0.1 c0.4,0.3,11.1,6.4,19.4-2.1c6.7-6.8,17.3-3.2,17.4-3.1c0.2,0.1,0.3,0.3,0.3,0.5v4.7c0,0.3-0.2,0.5-0.5,0.5c-0.1,0-0.2,0-0.3-0.1 c-0.1-0.1-11.5-6.4-17.8,1.2C46,57.7,41.7,59.5,37.2,59.3z M30.6,57.3c1.9,0.6,11.8,3.2,17.5-3.6s15.5-3.1,18.3-1.8v-3.5 c-1.8-0.5-10.4-2.7-16,3c-7.5,7.7-17.1,4-19.9,2.7V57.3z"/>
		</g>
	</g>
</svg>
