<svg id="Layer_1" data-name="Layer 1" xmlns="http://www.w3.org/2000/svg" viewBox="0 0 402.22 320.18"><defs><style>.cls-1{fill:#06a7e0;}.cls-2{fill:#225fac;}</style></defs><title>icon_waterlevel</title><path class="cls-1" d="M452.68,305.3c-1.33,0-2.65-.05-4-.14-18.21-1.29-32.36-11.33-40.82-19.22-13.66,12.42-28.54,18.72-44.36,18.76h-.15c-31,0-53.2-24.76-54.13-25.82A11.17,11.17,0,0,1,326,264.08c.28.32,16.67,18.28,37.39,18.28h.23c12.46-.08,24.6-6.8,36.1-20a11.17,11.17,0,0,1,17.46.78c.11.15,13.83,18.43,33.25,19.72,12.45.83,25.14-5.46,37.95-18.7a11.16,11.16,0,0,1,15.65-.39c.19.18,21.7,19.71,44.13,17.89,10.88-.91,20.3-6.69,28.79-17.68a11.17,11.17,0,1,1,17.67,13.67c-12.4,16.05-27.46,24.89-44.75,26.29-22.24,1.84-42.11-9.56-52.82-17.23C482.79,299.07,467.93,305.3,452.68,305.3Z" transform="translate(-194.71 -145.68)"/><path class="cls-2" d="M367.26,262.68a11.18,11.18,0,0,1-11.17-11.17V156.85a11.18,11.18,0,0,1,11.17-11.17H478.67a11.18,11.18,0,0,1,11.17,11.17v84.73a11.17,11.17,0,1,1-22.34,0V168H378.43v83.49A11.18,11.18,0,0,1,367.26,262.68Z" transform="translate(-194.71 -145.68)"/><path class="cls-2" d="M481.45,465.87H367.26a11.18,11.18,0,0,1-11.17-11.18V325.61a11.17,11.17,0,0,1,22.34,0V443.52h91.85V325.61a11.17,11.17,0,1,1,22.34,0V454.69A11.18,11.18,0,0,1,481.45,465.87Z" transform="translate(-194.71 -145.68)"/><path class="cls-1" d="M251.63,381.75c-31,0-53.2-24.76-54.13-25.82a11.17,11.17,0,0,1,16.74-14.8c.33.37,16.69,18.28,37.39,18.28h.23c12.46-.08,24.6-6.8,36.1-20a11.17,11.17,0,0,1,17.41.73c.11.14,13.4,17.67,30,19,8.26.69,16.15-2.86,24.19-10.7a11.17,11.17,0,0,1,15.6,16c-12.78,12.47-26.79,18.19-41.69,17-16.15-1.32-29.28-10.82-37.35-18.39-13.66,12.42-28.54,18.72-44.37,18.76Z" transform="translate(-194.71 -145.68)"/><path class="cls-2" d="M476.73,220.14H414.57a11.17,11.17,0,0,1,0-22.34h62.16a11.17,11.17,0,0,1,0,22.34Z" transform="translate(-194.71 -145.68)"/><path class="cls-2" d="M479.11,361.65H414.57a11.17,11.17,0,0,1,0-22.34h64.54a11.17,11.17,0,0,1,0,22.34Z" transform="translate(-194.71 -145.68)"/><path class="cls-2" d="M479.11,408.82H414.57a11.17,11.17,0,0,1,0-22.34h64.54a11.17,11.17,0,0,1,0,22.34Z" transform="translate(-194.71 -145.68)"/></svg>