<?xml version="1.0" encoding="utf-8"?>
<!-- Generator: Adobe Illustrator 21.0.2, SVG Export Plug-In . SVG Version: 6.00 Build 0)  -->
<svg version="1.1" id="Layer_1" xmlns:sketch="http://www.bohemiancoding.com/sketch/ns"
	 xmlns="http://www.w3.org/2000/svg" xmlns:xlink="http://www.w3.org/1999/xlink" x="0px" y="0px" viewBox="0 0 84 84"
	 style="enable-background:new 0 0 84 84;" xml:space="preserve">
<style type="text/css">
	.st0{fill:#EEEEEE;}
	.st1{fill:#FFFFFF;}
	.st2{fill:none;stroke:#F2EDED;}
	.st3{fill:#005EB8;}
</style>
<g sketch:type="MSShapeGroup">
	<g id="path-1">
		<path class="st0" d="M41,81.8C19.6,81.8,2.3,64.4,2.3,43v-2C2.3,19.6,19.6,2.3,41,2.3h2c21.4,0,38.8,17.4,38.8,38.8v2
			c0,21.4-17.4,38.8-38.8,38.8H41z"/>
		<path class="st1" d="M43,3.3c20.8,0,37.8,16.9,37.8,37.8v2c0,20.8-16.9,37.8-37.8,37.8h-2C20.2,80.8,3.3,63.8,3.3,43v-2
			C3.3,20.2,20.2,3.3,41,3.3H43 M43,1.3h-2C19.1,1.3,1.3,19,1.3,41v2c0,22,17.8,39.8,39.8,39.8h2C65,82.8,82.8,65,82.8,43v-2
			C82.8,19,65,1.3,43,1.3L43,1.3z"/>
	</g>
</g>
<g>
	<path id="path-1_1_" class="st2" d="M41,1.3h2C65,1.3,82.8,19,82.8,41v2C82.8,65,65,82.8,43,82.8h-2C19.1,82.8,1.3,65,1.3,43v-2
		C1.3,19,19.1,1.3,41,1.3z"/>
</g>
<path class="st3" d="M43.1,59.2v6.1c0,0.6-0.5,1.2-1.2,1.2c-0.7,0-1.2-0.5-1.2-1.2v-6.1c0-0.6,0.5-1.2,1.2-1.2
	C42.6,58,43.1,58.5,43.1,59.2L43.1,59.2z M41.9,17.5c-0.7,0-1.2,0.5-1.2,1.2v5.8c0,0.6,0.5,1.2,1.2,1.2c0.7,0,1.2-0.5,1.2-1.2v-5.8
	C43.1,18,42.6,17.5,41.9,17.5L41.9,17.5z M25.8,41.8c0-0.7-0.5-1.2-1.2-1.2h-5.8c-0.6,0-1.2,0.5-1.2,1.2c0,0.6,0.5,1.2,1.2,1.2h5.8
	C25.3,43,25.8,42.5,25.8,41.8L25.8,41.8z M65.2,40.7h-5.8c-0.6,0-1.2,0.5-1.2,1.2c0,0.6,0.5,1.2,1.2,1.2h5.8c0.6,0,1.2-0.5,1.2-1.2
	C66.3,41.2,65.8,40.7,65.2,40.7L65.2,40.7z M29,53.4l-4.1,4.1c-0.5,0.5-0.5,1.2,0,1.7c0.2,0.2,0.5,0.3,0.8,0.3
	c0.3,0,0.6-0.1,0.8-0.3l4.1-4.1c0.5-0.5,0.5-1.2,0-1.7C30.2,52.9,29.5,52.9,29,53.4L29,53.4z M54.4,30.8c0.3,0,0.6-0.1,0.8-0.3
	l4.1-4.1c0.5-0.5,0.5-1.2,0-1.7c-0.5-0.5-1.2-0.5-1.7,0l-4.1,4.1c-0.5,0.5-0.5,1.2,0,1.7C53.8,30.7,54.1,30.8,54.4,30.8L54.4,30.8z
	 M26.5,24.7c-0.5-0.5-1.2-0.5-1.7,0c-0.5,0.5-0.5,1.2,0,1.7l4.1,4.1c0.2,0.2,0.5,0.3,0.8,0.3c0.3,0,0.6-0.1,0.8-0.3
	c0.5-0.5,0.5-1.2,0-1.7L26.5,24.7z M55.3,53.4c-0.5-0.5-1.2-0.5-1.7,0c-0.5,0.5-0.5,1.2,0,1.7l4.1,4.1c0.2,0.2,0.5,0.3,0.8,0.3
	c0.3,0,0.6-0.1,0.8-0.3c0.5-0.5,0.5-1.2,0-1.7L55.3,53.4z M56.1,41.8c0,7.7-6.3,14-14,14c-7.7,0-14-6.3-14-14c0-7.7,6.3-14,14-14
	C49.9,27.8,56.1,34.1,56.1,41.8L56.1,41.8z M41.9,30.2c-6.3,0.1-11.5,5.3-11.5,11.7c0,6.4,5.2,11.6,11.5,11.7V30.2z M41.9,30.2"/>
</svg>
