<svg xmlns="http://www.w3.org/2000/svg" xmlns:xlink="http://www.w3.org/1999/xlink" viewBox="0 0 92 110" xml:space="preserve">
	<defs>
		<linearGradient id="a" x1="78.8691" y1="32.4172" x2="56.8508" y2="51.6832" gradientUnits="userSpaceOnUse">
			<stop offset="0" stop-color="#ffd121"/>
			<stop offset="0.5" stop-color="#ffb505"/>
			<stop offset="1" stop-color="#fa9618"/>
		</linearGradient>
		<linearGradient id="b" x1="50.466" y1="78.4936" x2="48.4479" y2="104.7283" gradientUnits="userSpaceOnUse">
			<stop offset="0.0112" stop-color="#3fb1ca"/>
			<stop offset="0.5" stop-color="#0099b9"/>
			<stop offset="0.9944" stop-color="#007c84"/>
		</linearGradient>
		<linearGradient id="c" x1="49.9943" y1="84.6247" x2="47.5586" y2="116.2891" xlink:href="#b"/>
	</defs>
	<title>logo</title>
	<g id="drop" transform="translate(-5.1977 -4.4683)">
		<path style="fill:url(#a)" d="M29.13,65.4258,18.685,58.166l19.1465.6582-6.3-18.0928L46.6347,52.519l5.5366-18.34,5.29,18.4136,15.26-11.584L66.1782,59.0146l19.1538-.4013L69.455,69.3359l3.9971,2.7774A94.5883,94.5883,0,0,0,96.81,68.585,44.2006,44.2006,0,0,0,83.5561,36.9683l-32.021-32.5-.4053.4L18.8041,36.7143a44.3357,44.3357,0,0,0-13.6,31.1949A103.8159,103.8159,0,0,1,29.13,65.4258Z"/>
		<path style="fill:url(#c)" d="M50.5976,115.3545c.1773,0,.3525-.0039.5322-.0049a44.3848,44.3848,0,0,0,31.9424-13.14A44.1056,44.1056,0,0,0,96.7109,72.668,95.8762,95.8762,0,0,1,78.2792,75.73L85.187,80.53,66.0405,79.873l6.3,18.0928L57.2373,86.1777l-5.5367,18.3408-5.29-18.4121L31.15,97.6885l6.5439-18.0059-19.1538.4L34.4169,69.3623l-1.0048-.6982a214.976,214.976,0,0,0-28.2144,2.89,43.4048,43.4048,0,0,0,12.895,30.1719A44.0151,44.0151,0,0,0,50.5976,115.3545Z"/>
	</g>
	<g id="name" display="none">
		<path id="mitten-drop" style="fill:url(#b)" transform="translate(-5.1977 -4.4683)" d="M50.5976,115.3545c.1773,0,.3525-.0039.5322-.0049a44.3848,44.3848,0,0,0,31.9424-13.14A44.1056,44.1056,0,0,0,96.7109,72.668,95.8762,95.8762,0,0,1,78.2792,75.73L85.187,80.53,66.0405,79.873l6.3,18.0928L57.2373,86.1777l-5.5367,18.3408-5.29-18.4121L31.15,97.6885l6.5439-18.0059-19.1538.4L34.4169,69.3623l-1.0048-.6982a214.976,214.976,0,0,0-28.2144,2.89,43.4048,43.4048,0,0,0,12.895,30.1719A44.0151,44.0151,0,0,0,50.5976,115.3545Z"/>
		<path xmlns="http://www.w3.org/2000/svg" d="M141.8179,38.8437V49.4531a10.3989,10.3989,0,0,1-.8282,4.1211,10.8071,10.8071,0,0,1-5.684,5.707,10.7,10.7,0,0,1-8.9756-.331,10.6318,10.6318,0,0,1-3.6949-3.15,10.7045,10.7045,0,0,1-3.67,3.15,10.2578,10.2578,0,0,1-4.8549,1.16,10.3818,10.3818,0,0,1-4.1211-.8291,10.7366,10.7366,0,0,1-5.7071-5.707,10.3752,10.3752,0,0,1-.8291-4.1211V38.8437h4.2627V49.4531a6.4035,6.4035,0,0,0,3.9077,5.9443,6.2449,6.2449,0,0,0,2.4869.4976,6.4062,6.4062,0,0,0,6.4414-6.4419V38.8437h4.2153V49.4531a6.4035,6.4035,0,0,0,3.9077,5.9443,6.244,6.244,0,0,0,2.4868.4976,6.4059,6.4059,0,0,0,6.4414-6.4419V38.8437Z" transform="translate(-5.1977 -4.4683)" style="fill:#0094ad;display: none;"/>
		<path d="M161.1909,52.5791l2.9834,2.9844-1.4678,1.4682a10.6181,10.6181,0,0,1-15.0625,0,10.0662,10.0662,0,0,1-2.32-3.5288,11.0258,11.0258,0,0,1-.7578-4.0024,10.8476,10.8476,0,0,1,.7578-3.9785,10.1227,10.1227,0,0,1,2.32-3.5049,10.3769,10.3769,0,0,1,3.5284-2.3448,10.6435,10.6435,0,0,1,8.0048,0,10.38,10.38,0,0,1,3.5293,2.3448l1.4678,1.4682L152.38,55.2793a6.31,6.31,0,0,0,7.3418-1.2315Zm-10.5625-7.6255a6.3369,6.3369,0,0,0-1.2314,7.3413q.5684-.5684,1.7285-1.7285t2.4629-2.4629q1.3022-1.3023,2.5107-2.4868t1.87-1.8472a6.3523,6.3523,0,0,0-3.8125-.6157A6.09,6.09,0,0,0,150.6284,44.9536Z" transform="translate(-5.1977 -4.4683)" style="fill:#0094ad;display: none;"/>
		<path d="M246.2573,52.5791l2.9834,2.9844-1.4678,1.4682a10.6181,10.6181,0,0,1-15.0625,0,10.0662,10.0662,0,0,1-2.32-3.5288,11.0258,11.0258,0,0,1-.7578-4.0024,10.8476,10.8476,0,0,1,.7578-3.9785,10.1227,10.1227,0,0,1,2.32-3.5049,10.3769,10.3769,0,0,1,3.5284-2.3448,10.6435,10.6435,0,0,1,8.0048,0,10.38,10.38,0,0,1,3.5293,2.3448l1.4678,1.4682-11.7939,11.794a6.31,6.31,0,0,0,7.3418-1.2315Zm-10.5625-7.6255a6.3369,6.3369,0,0,0-1.2314,7.3413q.5683-.5684,1.7285-1.7285t2.4629-2.4629q1.3022-1.3023,2.5107-2.4868,1.207-1.1837,1.87-1.8472a6.3523,6.3523,0,0,0-3.8125-.6157A6.09,6.09,0,0,0,235.6948,44.9536Z" transform="translate(-5.1977 -4.4683)" style="fill:#0094ad;display: none;"/>
		<path d="M264.6333,38.7964v4.2153h-2.1309a6.2367,6.2367,0,0,0-2.4863.4971,6.4352,6.4352,0,0,0-3.4111,3.4106,6.2552,6.2552,0,0,0-.4971,2.4863V60.0625h-4.2627V49.4057a10.3367,10.3367,0,0,1,.8291-4.1445,10.5142,10.5142,0,0,1,2.2969-3.3628,10.93,10.93,0,0,1,3.41-2.2734,10.3926,10.3926,0,0,1,4.1211-.8286Z" transform="translate(-5.1977 -4.4683)" style="fill:#0094ad;display: none;"/>
		<path d="M114.9048,73.3515a10.3534,10.3534,0,0,1,4.1445.8291,10.694,10.694,0,0,1,5.6362,5.6368,10.3376,10.3376,0,0,1,.8286,4.1445V94.6181H114.9048a10.3811,10.3811,0,0,1-4.1211-.8281,10.7429,10.7429,0,0,1-5.7071-5.708,10.7123,10.7123,0,0,1,0-8.2646,10.5189,10.5189,0,0,1,2.2969-3.3633,10.9327,10.9327,0,0,1,3.41-2.2735A10.401,10.401,0,0,1,114.9048,73.3515Zm6.394,17.0518V83.9619a6.2514,6.2514,0,0,0-.4971-2.4873,6.4385,6.4385,0,0,0-3.4106-3.41,6.2569,6.2569,0,0,0-2.4863-.497,6.4048,6.4048,0,0,0-5.9444,3.9072,6.2534,6.2534,0,0,0-.4975,2.4873,6.4062,6.4062,0,0,0,6.4419,6.4414Z" transform="translate(-5.1977 -4.4683)" style="fill:#fa9618;display: none;"/>
		<path d="M132.1929,64.8262V94.6181h-4.2154V64.8262Z" transform="translate(-5.1977 -4.4683)" style="fill:#fa9618;display: none;"/>
		<path d="M177.3882,38.7964a10.338,10.338,0,0,1,4.1445.8286,10.6934,10.6934,0,0,1,5.6367,5.6362,10.352,10.352,0,0,1,.8291,4.1445V60.0625h-10.61a10.38,10.38,0,0,1-4.12-.8281,10.7467,10.7467,0,0,1-5.7081-5.7076,10.7148,10.7148,0,0,1,0-8.2656,10.5331,10.5331,0,0,1,2.2979-3.3628,10.918,10.918,0,0,1,3.41-2.2734A10.3871,10.3871,0,0,1,177.3882,38.7964Zm6.3945,17.0512V49.4057a6.2552,6.2552,0,0,0-.4971-2.4863,6.4379,6.4379,0,0,0-3.41-3.4106,6.2514,6.2514,0,0,0-2.4873-.4971,6.4039,6.4039,0,0,0-5.9444,3.9077,6.2569,6.2569,0,0,0-.497,2.4863,6.4227,6.4227,0,0,0,.497,2.51,6.4084,6.4084,0,0,0,5.9444,3.9316Z" transform="translate(-5.1977 -4.4683)" style="fill:#0094ad;display: none;"/>
		<path d="M145.5962,73.4463a10.35,10.35,0,0,1,4.1445.8291,11.0076,11.0076,0,0,1,3.3867,2.2734,10.5414,10.5414,0,0,1,2.2969,3.3633,10.7,10.7,0,0,1,0,8.2646,10.8064,10.8064,0,0,1-5.6836,5.708,10.3329,10.3329,0,0,1-4.1445.8291h-6.3946v8.5254h-4.2148V84.0566a10.3226,10.3226,0,0,1,.8291-4.1445,10.6317,10.6317,0,0,1,5.6592-5.6367A10.4014,10.4014,0,0,1,145.5962,73.4463Zm2.51,16.5547a6.324,6.324,0,0,0,3.4356-3.4346,6.4394,6.4394,0,0,0,.4961-2.51,6.2768,6.2768,0,0,0-.4961-2.4873,6.45,6.45,0,0,0-1.375-2.0361,6.4547,6.4547,0,0,0-4.57-1.8711,6.2482,6.2482,0,0,0-2.4863.4971,6.4344,6.4344,0,0,0-3.41,3.41,6.2451,6.2451,0,0,0-.4981,2.4873V90.498h6.3946A6.42,6.42,0,0,0,148.1059,90.001Z" transform="translate(-5.1977 -4.4683)" style="fill:#fa9618;display: none;"/>
		<path d="M216.5122,38.7964a10.3446,10.3446,0,0,1,4.1445.8286,11.03,11.03,0,0,1,3.3867,2.2734,10.5593,10.5593,0,0,1,2.2969,3.3628,10.352,10.352,0,0,1,.8291,4.1445V60.0625h-4.2158V49.4057a6.2552,6.2552,0,0,0-.4971-2.4863,6.4627,6.4627,0,0,0-1.374-2.0371,6.4566,6.4566,0,0,0-4.57-1.8706,6.236,6.236,0,0,0-2.4863.4971,6.4358,6.4358,0,0,0-3.4112,3.4106,6.2569,6.2569,0,0,0-.497,2.4863V60.0625h-4.2149V30.2705h4.2149V40.9751a10.1523,10.1523,0,0,1,2.9609-1.61A10.3725,10.3725,0,0,1,216.5122,38.7964Z" transform="translate(-5.1977 -4.4683)" style="fill:#0094ad;display: none;"/>
		<path d="M169.4682,73.3515a10.3556,10.3556,0,0,1,4.1446.8291A11.0334,11.0334,0,0,1,177,76.4541a10.5592,10.5592,0,0,1,2.2969,3.3633,10.3482,10.3482,0,0,1,.8291,4.1445V94.6181H175.91V83.9619a6.2618,6.2618,0,0,0-.4971-2.4873,6.4476,6.4476,0,0,0-1.374-2.0361,6.4536,6.4536,0,0,0-4.57-1.8711,6.247,6.247,0,0,0-2.4863.497,6.4417,6.4417,0,0,0-3.4111,3.41,6.26,6.26,0,0,0-.4971,2.4873V94.6181h-4.2148V64.8262h4.2148V75.53a10.1516,10.1516,0,0,1,2.961-1.61A10.372,10.372,0,0,1,169.4682,73.3515Z" transform="translate(-5.1977 -4.4683)" style="fill:#fa9618;display: none;"/>
		<path d="M203.1548,55.8476v4.2149h-2.084a10.3849,10.3849,0,0,1-4.1211-.8281,10.74,10.74,0,0,1-5.707-5.7076,10.3818,10.3818,0,0,1-.8291-4.1211V30.2705h4.2158V43.0591h8.5254v4.2153h-8.5254v2.1313a6.4061,6.4061,0,0,0,6.4414,6.4419Z" transform="translate(-5.1977 -4.4683)" style="fill:#0094ad;display: none;"/>
		<path d="M193.15,73.3515a10.3482,10.3482,0,0,1,4.1445.8291,10.6926,10.6926,0,0,1,5.6367,5.6368,10.3465,10.3465,0,0,1,.8291,4.1445V94.6181H193.15a10.378,10.378,0,0,1-4.12-.8281,10.7486,10.7486,0,0,1-5.708-5.708,10.7123,10.7123,0,0,1,0-8.2646,10.5278,10.5278,0,0,1,2.2978-3.3633,10.9223,10.9223,0,0,1,3.41-2.2735A10.3979,10.3979,0,0,1,193.15,73.3515Zm6.3945,17.0518V83.9619a6.2617,6.2617,0,0,0-.497-2.4873,6.445,6.445,0,0,0-3.41-3.41,6.2617,6.2617,0,0,0-2.4873-.497,6.4064,6.4064,0,0,0-5.9443,3.9072,6.26,6.26,0,0,0-.4971,2.4873,6.4221,6.4221,0,0,0,.4971,2.51,6.3176,6.3176,0,0,0,3.4345,3.4345,6.4221,6.4221,0,0,0,2.51.4971Z" transform="translate(-5.1977 -4.4683)" style="fill:#fa9618;display: none;"/>
	</g>
</svg>
