<?xml version="1.0" encoding="utf-8"?>
<!-- Generator: Adobe Illustrator 16.0.0, SVG Export Plug-In . SVG Version: 6.00 Build 0)  -->
<!DOCTYPE svg PUBLIC "-//W3C//DTD SVG 1.1//EN" "http://www.w3.org/Graphics/SVG/1.1/DTD/svg11.dtd">
<svg version="1.1" id="Layer_1" xmlns="http://www.w3.org/2000/svg" xmlns:xlink="http://www.w3.org/1999/xlink" x="0px" y="0px"
	 width="100px" height="100px" viewBox="0 0 100 100" enable-background="new 0 0 100 100" xml:space="preserve">
<path fill="#8C8B8B" stroke="#6A6A6A" stroke-width="0.2977" stroke-miterlimit="10" d="M50.47,86.29c0,0,8.08,1.997,15.876-5.037
	c0,0,1.141,3.137,11.026,3.518C87.259,85.149,95.908,89.237,98,97.223c0,0-6.084-5.704-19.298-5.704
	C65.489,91.519,53.797,93.421,50.47,86.29z"/>
<path fill="#E19105" stroke="#6A6A6A" stroke-width="0.2977" stroke-miterlimit="10" d="M36.781,76.69c0,0,15.78,5.038,32.416-5.134
	C69.196,71.557,56.363,93.515,36.781,76.69z"/>
<path fill="#8C8B8B" stroke="#6A6A6A" stroke-width="0.2977" stroke-miterlimit="10" d="M24.127,60.155
	c0,0-3.578,5.099,12.612,5.277c16.189,0.179,31.039-5.903,31.039-5.903s-8.23,10.107-26.388,12.254S11.157,63.286,24.127,60.155z"/>
<path fill="#E19105" stroke="#6A6A6A" stroke-width="0.2977" stroke-miterlimit="10" d="M11.068,36.362
	c0,0-10.376,18.337,53.311,16.906c0,0-29.279,10.67-51.939-0.895C-10.22,40.808,11.068,36.362,11.068,36.362z"/>
<path fill="#8C8B8B" stroke="#6A6A6A" stroke-width="0.2977" stroke-miterlimit="10" d="M14.944,40.566c0,0,15.862,5.367,43.054,0
	c27.191-5.367,23.734-12.523,23.734-12.523s10.136,5.725-0.836,13C69.925,48.318,33.668,51.539,14.944,40.566z"/>
<path fill="#E19105" stroke="#6A6A6A" stroke-width="0.2977" stroke-miterlimit="10" d="M41.659,7.053c0,0,24.21-1.312,26.12,10.018
	c1.907,11.33-51.144,21.089-53.908,2.862c-1.532-10.104,25.045-15.5,25.045-15.5S1.22,3.273,2.778,24.165
	c1.325,17.766,54.981,16.998,72.275,3.878C88.765,17.641,81.375,0.731,41.659,7.053z"/>
</svg>
