<?xml version="1.0" encoding="UTF-8"?>
<!-- Generator: Adobe Illustrator 16.0.0, SVG Export Plug-In . SVG Version: 6.00 Build 0)  -->
<!DOCTYPE svg PUBLIC "-//W3C//DTD SVG 1.1//EN" "http://www.w3.org/Graphics/SVG/1.1/DTD/svg11.dtd">
<svg version="1.1" id="Layer_2" xmlns="http://www.w3.org/2000/svg" xmlns:xlink="http://www.w3.org/1999/xlink" x="0px" y="0px" width="500px" height="500px" viewBox="0 0 500 500" enable-background="new 0 0 500 500" xml:space="preserve">
<g>
	<path fill="#8FCDF0" d="M223.002,456.392l-13.518-7.836l13.518-7.83c6.092-3.529,8.182-11.355,4.654-17.447   c-2.275-3.928-6.514-6.363-11.061-6.363c-2.236,0-4.441,0.594-6.385,1.721l-13.416,7.77v-15.508   c0-7.039-5.727-12.764-12.766-12.764c-7.041,0-12.766,5.725-12.766,12.764v15.486l-13.397-7.77c-1.945-1.129-4.156-1.73-6.395-1.73   c-4.543,0-8.777,2.439-11.055,6.365c-3.533,6.092-1.451,13.918,4.637,17.445l13.516,7.838l-13.52,7.83   c-6.092,3.527-8.178,11.348-4.65,17.445c2.275,3.93,6.514,6.371,11.061,6.371c2.234,0,4.441-0.6,6.387-1.727l13.415-7.77v15.504   c0,7.041,5.729,12.768,12.768,12.768s12.766-5.727,12.766-12.768v-15.479l13.396,7.771c1.945,1.125,4.156,1.723,6.395,1.723   c4.547,0,8.779-2.438,11.057-6.361c1.713-2.955,2.172-6.391,1.299-9.689C228.061,460.858,225.951,458.101,223.002,456.392z"/>
	<g>
		<g>
			<path fill="#58A1D4" d="M66.032,458.849c-2.92,0-5.857-0.979-8.285-2.984c-5.535-4.578-6.311-12.779-1.73-18.314l37.125-44.877     c4.58-5.537,12.781-6.313,18.316-1.73c5.535,4.58,6.313,12.777,1.73,18.316l-37.123,44.875     C73.491,457.241,69.776,458.849,66.032,458.849z"/>
		</g>
		<g>
			<path fill="#58A1D4" d="M272.883,458.849c-2.92,0-5.857-0.98-8.285-2.986c-5.535-4.578-6.313-12.777-1.73-18.314l37.131-44.875     c4.58-5.535,12.781-6.313,18.318-1.73c5.535,4.58,6.309,12.781,1.729,18.316l-37.131,44.877     C280.342,457.241,276.625,458.849,272.883,458.849z"/>
		</g>
	</g>
	<g>
		<g>
			<path fill="#FEC10D" d="M298.047,80.505c-5.871,0-10.629-4.759-10.629-10.63V11.676c0-5.87,4.758-10.63,10.629-10.63     s10.631,4.76,10.631,10.63v58.199C308.676,75.746,303.918,80.505,298.047,80.505z"/>
		</g>
		<path fill="#FFFFFF" d="M298.055,119.75c-46.398,0-84.147,37.745-84.147,84.143c0,46.396,37.749,84.144,84.147,84.144    c46.396,0,84.143-37.745,84.143-84.144C382.197,157.495,344.451,119.75,298.055,119.75z"/>
		<g id="Layer_3_1_">
			<path fill="#FCE6B1" d="M298.053,288.388c-46.596,0-84.501-37.906-84.501-84.497c0-46.593,37.907-84.498,84.501-84.498     c46.592,0,84.498,37.905,84.498,84.498C382.551,250.481,344.646,288.388,298.053,288.388z"/>
		</g>
		<path fill="#FEC10D" d="M298.055,98.489c-58.125,0-105.407,47.283-105.407,105.402c0,58.117,47.286,105.4,105.407,105.4    c58.117,0,105.398-47.283,105.398-105.4C403.457,145.773,356.174,98.489,298.055,98.489z M298.055,288.032    c-46.398,0-84.147-37.746-84.147-84.144c0-46.396,37.749-84.144,84.147-84.144c46.396,0,84.143,37.746,84.143,84.144    S344.451,288.032,298.055,288.032z"/>
		<path fill="#FEC10D" d="M489.191,193.26h-57.137c-5.871,0-10.629,4.76-10.629,10.63c0,5.871,4.758,10.63,10.629,10.63h57.137    c5.871,0,10.631-4.759,10.631-10.63C499.822,198.02,495.063,193.26,489.191,193.26z"/>
		<g>
			<path fill="#FEC10D" d="M392.803,119.757c-2.725,0-5.439-1.037-7.52-3.113c-4.148-4.15-4.148-10.881,0-15.032l31.207-31.209     c4.146-4.15,10.881-4.151,15.033-0.001c4.148,4.151,4.148,10.882,0,15.033l-31.207,31.209     C398.244,118.719,395.523,119.757,392.803,119.757z"/>
		</g>
		<g>
			<path fill="#FEC10D" d="M424.422,340.899c-2.721,0-5.438-1.035-7.516-3.109l-32.023-32.025c-4.148-4.148-4.148-10.883,0-15.033     c4.152-4.148,10.881-4.146,15.033,0l32.023,32.023c4.146,4.15,4.146,10.881,0,15.033     C429.863,339.862,427.143,340.899,424.422,340.899z"/>
		</g>
		<g>
			<path fill="#FEC10D" d="M203.286,119.757c-2.721,0-5.44-1.037-7.517-3.113l-31.554-31.556c-4.151-4.151-4.151-10.882,0-15.033     c4.15-4.15,10.882-4.151,15.032,0.001l31.555,31.556c4.15,4.151,4.15,10.882,0,15.032     C208.728,118.719,206.007,119.757,203.286,119.757z"/>
		</g>
	</g>
	<path fill="#E5E5E5" d="M303.59,347.286H72.434c-28.119,0-50.996-22.895-50.996-51.029c0-23.375,15.863-43.688,38.576-49.395   c5.008-1.258,8.384-5.984,8.007-11.136c-0.177-2.416-0.344-4.697-0.344-6.896c0-49.358,40.16-89.515,89.521-89.515   c30.522,0,58.646,15.375,75.228,41.129c2.688,4.174,7.901,5.935,12.572,4.234c4.984-1.813,10.076-2.734,15.137-2.734   c24.344,0,44.15,19.806,44.15,44.147c0,2.356-0.232,4.874-0.715,7.695c-0.984,5.786,2.898,11.272,8.688,12.263   c24.549,4.199,42.365,25.313,42.365,50.203C354.623,324.396,331.73,347.286,303.59,347.286z"/>
	<path fill="#808083" d="M325.531,227.439c0.01-0.45,0.018-0.898,0.018-1.346c0-36.065-29.346-65.407-65.41-65.407   c-4.828,0-9.655,0.555-14.423,1.65c-20.889-27.869-53.415-44.28-88.512-44.28c-61.085,0-110.782,49.693-110.782,110.773   c0,0.024,0,0.052,0,0.076c-27.619,10.622-46.244,37.185-46.244,67.347c0,39.861,32.414,72.291,72.256,72.291H303.59   c39.863,0,72.293-32.43,72.293-72.291C375.883,264.339,355.223,236.81,325.531,227.439z M303.59,347.284H72.434   c-28.118,0-50.996-22.896-50.996-51.031c0-23.373,15.863-43.686,38.576-49.393c5.01-1.258,8.386-5.983,8.007-11.136   c-0.177-2.415-0.344-4.695-0.344-6.896c0-49.357,40.16-89.515,89.522-89.515c30.521,0,58.645,15.376,75.227,41.13   c2.688,4.175,7.906,5.936,12.573,4.234c4.984-1.814,10.077-2.734,15.136-2.734c24.344,0,44.15,19.806,44.15,44.147   c0,2.355-0.232,4.874-0.713,7.695c-0.986,5.784,2.898,11.272,8.686,12.264c24.549,4.197,42.365,25.312,42.365,50.2   C354.623,324.392,331.73,347.284,303.59,347.284z"/>
</g>
</svg>