<?xml version="1.0" encoding="UTF-8"?>
<!-- Generator: Adobe Illustrator 16.0.0, SVG Export Plug-In . SVG Version: 6.00 Build 0)  -->
<!DOCTYPE svg PUBLIC "-//W3C//DTD SVG 1.1//EN" "http://www.w3.org/Graphics/SVG/1.1/DTD/svg11.dtd">
<svg version="1.1" id="Layer_2" xmlns="http://www.w3.org/2000/svg" xmlns:xlink="http://www.w3.org/1999/xlink" x="0px" y="0px" width="500px" height="500px" viewBox="0 0 500 500" enable-background="new 0 0 500 500" xml:space="preserve">
<g>
	<g>
		<g id="Layer_3_1_">
			<path fill="#FCE6B1" d="M298.314,300.461c-46.871,0-85.001-38.13-85.001-84.998c0-46.869,38.132-84.998,85.001-84.998     c46.867,0,84.998,38.129,84.998,84.998C383.313,262.331,345.184,300.461,298.314,300.461z"/>
		</g>
		<path fill="#FEC10D" d="M298.316,110.063c-58.125,0-105.407,47.283-105.407,105.402c0,58.118,47.286,105.401,105.407,105.401    c58.117,0,105.396-47.283,105.396-105.401C403.718,157.347,356.436,110.063,298.316,110.063z M298.316,299.607    c-46.399,0-84.147-37.746-84.147-84.146c0-46.396,37.748-84.143,84.147-84.143c46.396,0,84.142,37.746,84.142,84.143    C382.458,261.861,344.712,299.607,298.316,299.607z"/>
		<g>
			<path fill="#FEC10D" d="M298.309,92.078c-5.871,0-10.629-4.759-10.629-10.63V23.249c0-5.87,4.758-10.63,10.629-10.63     s10.631,4.76,10.631,10.63v58.199C308.938,87.319,304.18,92.078,298.309,92.078z"/>
		</g>
		<g>
			<path fill="#FEC10D" d="M489.453,226.093h-57.137c-5.871,0-10.63-4.759-10.63-10.63c0-5.87,4.759-10.63,10.63-10.63h57.137     c5.871,0,10.63,4.76,10.63,10.63C500.083,221.334,495.324,226.093,489.453,226.093z"/>
		</g>
		<g>
			<path fill="#FEC10D" d="M393.064,131.33c-2.726,0-5.44-1.037-7.521-3.113c-4.146-4.15-4.146-10.881,0-15.032l31.207-31.209     c4.146-4.151,10.881-4.152,15.033-0.001c4.147,4.151,4.147,10.882,0,15.033l-31.207,31.209     C398.506,130.292,395.785,131.33,393.064,131.33z"/>
		</g>
		<g>
			<path fill="#FEC10D" d="M424.684,352.475c-2.721,0-5.438-1.039-7.517-3.108l-32.022-32.025c-4.147-4.149-4.147-10.883,0-15.033     c4.151-4.147,10.881-4.146,15.032,0L432.2,334.33c4.146,4.146,4.146,10.881,0,15.033     C430.124,351.436,427.403,352.475,424.684,352.475z"/>
		</g>
		<g>
			<path fill="#FEC10D" d="M203.548,131.33c-2.721,0-5.441-1.037-7.517-3.113l-31.554-31.556c-4.151-4.151-4.151-10.882,0-15.033     c4.151-4.15,10.882-4.151,15.033,0.001l31.554,31.556c4.151,4.151,4.151,10.882,0,15.032     C208.989,130.292,206.268,131.33,203.548,131.33z"/>
		</g>
	</g>
	<g>
		<g>
			<path fill="#58A1D4" d="M65.773,471.059c-2.921,0-5.858-0.979-8.285-2.983c-5.536-4.58-6.312-12.78-1.731-18.316l37.125-44.876     c4.58-5.537,12.781-6.313,18.316-1.731c5.535,4.58,6.313,12.777,1.731,18.316l-37.124,44.876     C73.232,469.451,69.516,471.059,65.773,471.059z"/>
		</g>
		<g>
			<path fill="#58A1D4" d="M272.621,471.059c-2.92,0-5.855-0.98-8.285-2.986c-5.533-4.578-6.311-12.778-1.729-18.314l37.131-44.876     c4.58-5.535,12.781-6.313,18.318-1.729c5.533,4.58,6.309,12.78,1.729,18.316l-37.131,44.876     C280.08,469.451,276.365,471.059,272.621,471.059z"/>
		</g>
	</g>
	<path fill="#CCCCCC" d="M303.329,359.281H72.174c-28.118,0-50.995-22.896-50.995-51.03c0-23.374,15.862-43.687,38.575-49.394   c5.009-1.26,8.384-5.985,8.007-11.137c-0.177-2.415-0.344-4.696-0.344-6.896c0-49.358,40.16-89.514,89.521-89.514   c30.522,0,58.645,15.375,75.227,41.129c2.688,4.172,7.902,5.934,12.574,4.233c4.984-1.813,10.075-2.733,15.135-2.733   c24.347,0,44.149,19.805,44.149,44.146c0,2.355-0.231,4.874-0.713,7.695c-0.985,5.785,2.897,11.272,8.687,12.263   c24.549,4.199,42.364,25.313,42.364,50.203C354.364,336.39,331.471,359.281,303.329,359.281z"/>
	<path fill="#808083" d="M325.27,239.435c0.01-0.45,0.02-0.899,0.02-1.346c0-36.065-29.348-65.407-65.411-65.407   c-4.828,0-9.655,0.554-14.422,1.65c-20.889-27.869-53.415-44.28-88.512-44.28c-61.085,0-110.782,49.693-110.782,110.773   c0,0.025,0,0.052,0,0.077c-27.62,10.624-46.245,37.186-46.245,67.348c0,39.861,32.414,72.291,72.256,72.291h231.155   c39.863,0,72.294-32.43,72.294-72.291C375.622,276.336,354.961,248.804,325.27,239.435z M303.328,359.281H72.173   c-28.119,0-50.996-22.896-50.996-51.031c0-23.373,15.863-43.686,38.576-49.391c5.009-1.26,8.385-5.986,8.007-11.138   c-0.177-2.416-0.344-4.696-0.344-6.896c0-49.357,40.16-89.514,89.522-89.514c30.522,0,58.645,15.376,75.227,41.13   c2.688,4.175,7.906,5.933,12.573,4.234c4.984-1.814,10.077-2.734,15.135-2.734c24.345,0,44.15,19.805,44.15,44.147   c0,2.356-0.232,4.874-0.713,7.695c-0.986,5.785,2.897,11.273,8.687,12.265c24.548,4.197,42.364,25.312,42.364,50.201   C354.361,336.389,331.469,359.281,303.328,359.281z"/>
	<path fill="#FCC013" d="M230.77,388.934h-31.122c-14.685,16.375-38.114,44.058-38.303,44.058h24.026l-44.601,66.063l82.755-76.156   h-21.442L230.77,388.934z"/>
</g>
</svg>