<?xml version="1.0" encoding="UTF-8"?>
<!-- Generator: Adobe Illustrator 16.0.0, SVG Export Plug-In . SVG Version: 6.00 Build 0)  -->
<!DOCTYPE svg PUBLIC "-//W3C//DTD SVG 1.1//EN" "http://www.w3.org/Graphics/SVG/1.1/DTD/svg11.dtd">
<svg version="1.1" id="Layer_2" xmlns="http://www.w3.org/2000/svg" xmlns:xlink="http://www.w3.org/1999/xlink" x="0px" y="0px" width="500px" height="500px" viewBox="0 0 500 500" enable-background="new 0 0 500 500" xml:space="preserve">
<g>
	<g>
		<g>
			<path fill="#58A1D4" d="M66.295,485.083c-2.921,0-5.858-0.979-8.285-2.984c-5.536-4.58-6.312-12.779-1.732-18.316l37.125-44.875     c4.58-5.537,12.781-6.314,18.317-1.732c5.535,4.58,6.313,12.777,1.731,18.316l-37.124,44.877     C73.754,483.476,70.039,485.083,66.295,485.083z"/>
		</g>
		<g>
			<path fill="#58A1D4" d="M170.332,485.083c-2.922,0-5.857-0.979-8.285-2.984c-5.537-4.58-6.313-12.779-1.732-18.316l37.125-44.875     c4.578-5.537,12.779-6.314,18.314-1.732c5.537,4.58,6.314,12.777,1.732,18.316l-37.123,44.877     C177.791,483.476,174.074,485.083,170.332,485.083z"/>
		</g>
		<g>
			<path fill="#58A1D4" d="M273.145,485.083c-2.92,0-5.857-0.98-8.285-2.986c-5.535-4.578-6.313-12.779-1.73-18.314l37.131-44.877     c4.58-5.535,12.781-6.311,18.318-1.729c5.535,4.58,6.309,12.779,1.729,18.316l-37.131,44.875     C280.604,483.476,276.887,485.083,273.145,485.083z"/>
		</g>
	</g>
	<path fill="#FFEEB6" d="M289.523,83.221c0-8.072,0.623-16.105,1.854-24.033c-48.018,21.08-80.217,69.214-80.217,122.756   c0,73.878,60.104,133.98,133.979,133.98c52.975,0,100.896-31.75,122.248-79.104c-7.469,1.093-15.028,1.643-22.628,1.643   C359.166,238.462,289.523,168.821,289.523,83.221z"/>
	<path fill="#EAC618" d="M481.121,212.208c-11.778,3.313-24.01,4.993-36.355,4.993c-73.877,0-133.979-60.104-133.979-133.983   c0-12.746,1.795-25.372,5.334-37.527l5.354-18.391l-18.438,5.187C271.1,41.468,242.323,60.975,222,87.414   c-20.994,27.312-32.09,59.998-32.09,94.527c0,85.603,69.64,155.244,155.236,155.244c34.277,0,66.774-10.948,93.979-31.673   c26.317-20.047,45.879-48.492,55.082-80.1l5.354-18.392L481.121,212.208z M345.146,315.925   c-73.877,0-133.979-60.104-133.979-133.984c0-53.541,32.198-101.676,80.214-122.755c-1.234,7.928-1.857,15.96-1.857,24.032   c0,85.602,69.645,155.243,155.241,155.243c7.601,0,15.159-0.55,22.628-1.643C446.042,284.176,398.118,315.925,345.146,315.925z"/>
	<g id="Layer_3_1_">
		<path fill="#CCCCCC" d="M303.852,373.118H72.696c-28.119,0-50.996-22.896-50.996-51.03c0-23.374,15.863-43.688,38.576-49.395    c5.008-1.26,8.384-5.984,8.007-11.137c-0.177-2.416-0.344-4.697-0.344-6.896c0-49.357,40.16-89.513,89.522-89.513    c30.522,0,58.645,15.375,75.227,41.129c2.688,4.173,7.902,5.934,12.573,4.234c4.985-1.813,10.077-2.734,15.136-2.734    c24.348,0,44.15,19.805,44.15,44.147c0,2.356-0.232,4.874-0.713,7.695c-0.986,5.784,2.9,11.272,8.686,12.263    c24.549,4.199,42.365,25.313,42.365,50.203C354.887,350.227,331.992,373.118,303.852,373.118z"/>
	</g>
	<path fill="#808083" d="M325.788,253.273c0.011-0.45,0.017-0.898,0.017-1.349c0-36.066-29.345-65.408-65.412-65.408   c-4.826,0-9.647,0.554-14.417,1.65c-20.889-27.869-53.415-44.28-88.512-44.28c-61.086,0-110.783,49.693-110.783,110.774   c0,0.022,0,0.052,0,0.077c-27.618,10.619-46.24,37.184-46.24,67.348c0,39.861,32.414,72.29,72.256,72.29H303.85   c39.862,0,72.295-32.429,72.295-72.29C376.143,290.175,355.48,262.643,325.788,253.273z M303.848,373.119H72.694   c-28.119,0-50.996-22.896-50.996-51.03c0-23.374,15.863-43.685,38.576-49.392c5.009-1.26,8.385-5.981,8.007-11.133   c-0.177-2.416-0.344-4.698-0.344-6.899c0-49.358,40.16-89.515,89.523-89.515c30.522,0,58.644,15.376,75.226,41.13   c2.688,4.175,7.907,5.934,12.572,4.234c4.987-1.814,10.08-2.734,15.135-2.734c24.344,0,44.15,19.805,44.15,44.147   c0,2.356-0.232,4.874-0.714,7.695c-0.985,5.785,2.901,11.272,8.687,12.265c24.549,4.196,42.365,25.313,42.365,50.2   C354.882,350.227,331.988,373.119,303.848,373.119z"/>
</g>
</svg>