<?xml version="1.0" encoding="UTF-8"?>
<!-- Generator: Adobe Illustrator 16.0.0, SVG Export Plug-In . SVG Version: 6.00 Build 0)  -->
<!DOCTYPE svg PUBLIC "-//W3C//DTD SVG 1.1//EN" "http://www.w3.org/Graphics/SVG/1.1/DTD/svg11.dtd">
<svg version="1.1" id="Layer_2" xmlns="http://www.w3.org/2000/svg" xmlns:xlink="http://www.w3.org/1999/xlink" x="0px" y="0px" width="500px" height="500px" viewBox="0 0 500 500" enable-background="new 0 0 500 500" xml:space="preserve">
<g>
	<path fill="#8FCDF0" d="M223.263,456.438l-13.518-7.836l13.518-7.83c6.092-3.529,8.182-11.355,4.654-17.447   c-2.275-3.928-6.514-6.363-11.061-6.363c-2.235,0-4.441,0.594-6.385,1.721l-13.416,7.77v-15.508   c0-7.039-5.726-12.764-12.765-12.764c-7.041,0-12.767,5.725-12.767,12.764v15.486l-13.398-7.77c-1.945-1.129-4.156-1.73-6.395-1.73   c-4.543,0-8.777,2.439-11.055,6.365c-3.533,6.092-1.451,13.918,4.637,17.445l13.517,7.838l-13.521,7.83   c-6.092,3.527-8.178,11.35-4.649,17.445c2.274,3.932,6.513,6.373,11.06,6.373c2.234,0,4.442-0.6,6.387-1.727l13.416-7.771v15.504   c0,7.041,5.729,12.768,12.768,12.768s12.766-5.727,12.766-12.768v-15.479l13.397,7.771c1.944,1.127,4.155,1.725,6.394,1.725   c4.547,0,8.78-2.439,11.058-6.363c1.713-2.955,2.171-6.391,1.299-9.689C228.322,460.906,226.213,458.148,223.263,456.438z"/>
	<g>
		<g>
			<path fill="#58A1D4" d="M66.293,458.273c-2.921,0-5.858-0.98-8.285-2.984c-5.536-4.58-6.312-12.781-1.731-18.316l37.125-44.877     c4.58-5.537,12.781-6.313,18.316-1.73c5.535,4.58,6.313,12.777,1.731,18.316l-37.124,44.875     C73.752,456.666,70.036,458.273,66.293,458.273z"/>
		</g>
		<g>
			<path fill="#58A1D4" d="M273.142,458.273c-2.92,0-5.857-0.982-8.285-2.986c-5.535-4.58-6.312-12.779-1.729-18.316l37.13-44.875     c4.58-5.535,12.782-6.313,18.318-1.73c5.535,4.58,6.31,12.781,1.729,18.316l-37.131,44.877     C280.601,456.666,276.885,458.273,273.142,458.273z"/>
		</g>
	</g>
	<path fill="#FFEEB6" d="M289.523,56.92c0-8.072,0.621-16.105,1.854-24.033c-48.018,21.08-80.217,69.214-80.217,122.756   c0,73.878,60.104,133.98,133.98,133.98c52.974,0,100.896-31.75,122.247-79.104c-7.469,1.093-15.028,1.643-22.628,1.643   C359.165,212.161,289.523,142.52,289.523,56.92z"/>
	<path fill="#EAC618" d="M481.121,185.908c-11.777,3.313-24.01,4.993-36.355,4.993c-73.877,0-133.979-60.104-133.979-133.983   c0-12.746,1.795-25.372,5.334-37.527L321.475,1l-18.438,5.187c-31.938,8.981-60.715,28.488-81.038,54.927   c-20.993,27.311-32.09,59.998-32.09,94.527c0,85.602,69.64,155.242,155.237,155.242c34.277,0,66.775-10.951,93.979-31.672   c26.316-20.047,45.879-48.494,55.082-80.099l5.354-18.392L481.121,185.908z M345.146,289.623   c-73.877,0-133.979-60.104-133.979-133.982c0-53.541,32.198-101.676,80.216-122.755c-1.236,7.927-1.857,15.96-1.857,24.032   c0,85.602,69.645,155.243,155.24,155.243c7.602,0,15.16-0.55,22.627-1.643C446.043,257.875,398.119,289.623,345.146,289.623z"/>
	<g id="Layer_3_1_">
		<path fill="#E5E5E5" d="M303.85,346.82H72.694c-28.119,0-50.996-22.895-50.996-51.029c0-23.375,15.863-43.687,38.576-49.394    c5.008-1.26,8.384-5.985,8.007-11.14c-0.177-2.415-0.344-4.696-0.344-6.896c0-49.358,40.16-89.514,89.522-89.514    c30.522,0,58.645,15.375,75.227,41.129c2.688,4.173,7.902,5.934,12.573,4.234c4.984-1.814,10.076-2.734,15.136-2.734    c24.348,0,44.15,19.805,44.15,44.147c0,2.356-0.232,4.874-0.714,7.695c-0.985,5.786,2.901,11.272,8.687,12.263    c24.549,4.199,42.365,25.313,42.365,50.203C354.884,323.93,331.99,346.82,303.85,346.82z"/>
	</g>
	<path fill="#808083" d="M325.789,226.974c0.01-0.45,0.016-0.899,0.016-1.346c0-36.065-29.344-65.407-65.412-65.407   c-4.826,0-9.648,0.554-14.417,1.65c-20.889-27.869-53.414-44.28-88.512-44.28c-61.086,0-110.783,49.693-110.783,110.773   c0,0.026,0,0.052,0,0.077c-27.615,10.623-46.24,37.184-46.24,67.348c0,39.861,32.414,72.289,72.256,72.289H303.85   c39.862,0,72.295-32.428,72.295-72.289C376.143,263.875,355.48,236.342,325.789,226.974z M303.848,346.818H72.693   c-28.119,0-50.996-22.895-50.996-51.029c0-23.375,15.863-43.687,38.576-49.394c5.009-1.258,8.385-5.979,8.008-11.13   c-0.177-2.417-0.345-4.7-0.345-6.901c0-49.357,40.16-89.514,89.523-89.514c30.522,0,58.644,15.376,75.226,41.13   c2.688,4.174,7.905,5.932,12.571,4.234c4.988-1.814,10.081-2.734,15.137-2.734c24.349,0,44.151,19.805,44.151,44.147   c0,2.356-0.233,4.874-0.715,7.696c-0.983,5.785,2.901,11.273,8.688,12.262c24.547,4.199,42.361,25.31,42.361,50.202   C354.883,323.928,331.988,346.818,303.848,346.818z"/>
</g>
</svg>