<?xml version="1.0" encoding="utf-8"?>
<!-- Generator: Adobe Illustrator 16.0.0, SVG Export Plug-In . SVG Version: 6.00 Build 0)  -->
<!DOCTYPE svg PUBLIC "-//W3C//DTD SVG 1.1//EN" "http://www.w3.org/Graphics/SVG/1.1/DTD/svg11.dtd">
<svg version="1.1" id="Layer_2" xmlns="http://www.w3.org/2000/svg" xmlns:xlink="http://www.w3.org/1999/xlink" x="0px" y="0px"
	 width="500px" height="263.809px" viewBox="0 0 500 263.809" enable-background="new 0 0 500 263.809" xml:space="preserve">
<g id="Layer_3">
</g>
<g>
	<path fill="#FEC10D" d="M250.645,98.197c-7.255,0-13.137-5.882-13.137-13.138V13.134c0-7.254,5.881-13.137,13.137-13.137
		c7.256,0,13.137,5.883,13.137,13.137v71.925C263.779,92.315,257.9,98.197,250.645,98.197z"/>
	<path fill="#FEC10D" d="M486.864,263.812h-70.609c-7.256,0-13.138-5.881-13.138-13.137s5.882-13.137,13.138-13.137h70.609
		c7.255,0,13.136,5.881,13.136,13.137S494.119,263.812,486.864,263.812z"/>
	<path fill="#FEC10D" d="M85.034,263.806H13.137C5.881,263.806,0,257.926,0,250.67s5.881-13.137,13.137-13.137h71.897
		c7.254,0,13.136,5.881,13.136,13.137S92.288,263.806,85.034,263.806z"/>
	<path fill="#FEC10D" d="M367.746,146.703c-3.362,0-6.723-1.281-9.289-3.847c-5.131-5.131-5.131-13.447,0-18.578l38.565-38.568
		c5.13-5.13,13.446-5.131,18.578,0c5.131,5.13,5.131,13.447,0,18.577l-38.565,38.568
		C374.471,145.42,371.108,146.703,367.746,146.703z"/>
	<path fill="#FEC10D" d="M133.539,146.703c-3.362,0-6.724-1.281-9.289-3.848l-38.995-38.997c-5.13-5.131-5.129-13.448,0.001-18.577
		c5.129-5.13,13.448-5.132,18.577,0l38.995,38.997c5.13,5.131,5.13,13.447,0,18.578C140.263,145.42,136.9,146.703,133.539,146.703z"
		/>
	<path fill="#FEC10D" d="M264.229,163.619v72.275c0,7.289-6.375,13.208-14.228,13.208c-7.856,0-14.231-5.919-14.231-13.208v-72.275
		H264.229z"/>
	<polygon fill="#FEC10D" points="250.001,263.812 228.742,238.103 207.468,212.401 250.001,212.401 292.531,212.401 
		271.262,238.103 	"/>
	<path fill="#FEC10D" d="M146.665,250.679c0-57.338,46.649-103.983,103.989-103.983c57.338,0,103.983,46.646,103.983,103.983
		c0,4.447-0.28,8.831-0.825,13.133h26.439c0.436-4.318,0.659-8.699,0.659-13.133c0-71.824-58.435-130.258-130.257-130.258
		c-71.827,0-130.264,58.434-130.264,130.258c0,4.434,0.225,8.813,0.659,13.133h26.44
		C146.947,259.511,146.665,255.127,146.665,250.679z"/>
</g>
</svg>
