<?xml version="1.0" encoding="utf-8"?>
<!-- Svg Vector Icons : http://www.onlinewebfonts.com/icon -->
<!DOCTYPE svg PUBLIC "-//W3C//DTD SVG 1.1//EN" "http://www.w3.org/Graphics/SVG/1.1/DTD/svg11.dtd">
<svg version="1.1" xmlns="http://www.w3.org/2000/svg" xmlns:xlink="http://www.w3.org/1999/xlink" x="0px" y="0px" viewBox="0 0 1000 1000" enable-background="new 0 0 1000 1000" xml:space="preserve">
<metadata> Svg Vector Icons : http://www.onlinewebfonts.com/icon </metadata>
<g><path d="M688,553.9c-98,0-145.2,59.8-147.2,62.4c-4,5.3-3,12.8,2.2,16.9c5.3,4.1,12.9,3.1,17-2.1c1.7-2.2,42.4-52.9,128-52.9c51.3,0,75.3,13.7,100.8,28.2c25.3,14.4,51.4,29.4,101.9,29.4c61.4,0,92.8-21.2,94.1-22.1c3.4-2.4,5.2-6.2,5.2-10.1c-0.1-2.4-0.8-4.6-2.1-6.7c-3.8-5.5-11.3-6.9-16.8-3.3c-0.3,0.1-27.2,17.9-80.4,17.9c-44.1,0-66.4-12.7-89.9-26.2C775,570.6,745.8,553.9,688,553.9L688,553.9z M56.1,822.2c-13.1,0-23.7,10.6-23.7,23.7c0,13.1,10.5,23.7,23.7,23.7c13,0,23.6-10.6,23.6-23.7C79.7,832.8,69.2,822.2,56.1,822.2L56.1,822.2z M172,706.4c-13.1,0-23.7,10.5-23.7,23.6s10.5,23.7,23.7,23.7c13,0,23.6-10.6,23.6-23.7S185,706.4,172,706.4L172,706.4z M289.1,822.2c-13,0-23.7,10.6-23.7,23.7c0,13.1,10.6,23.7,23.7,23.7c13.1,0,23.7-10.6,23.7-23.7C312.8,832.8,302.2,822.2,289.1,822.2L289.1,822.2z M405,706.4c-13.1,0-23.6,10.5-23.6,23.6s10.5,23.7,23.6,23.7c13.1,0,23.7-10.6,23.7-23.7S418.1,706.4,405,706.4L405,706.4z M406,187.1c30.2-21.2,65.7-32.4,102.7-32.4c88.8,0,163.3,63.7,177.1,151.4c0.5,3.3,2.4,6.4,5.3,8.2c2.7,2,6.2,2.5,9.6,1.7c10.1-2.4,20.1-3.7,29.7-3.7c68,0,123.3,55.3,123.3,123.3c0,33.9-13.4,65.6-37.9,89c-4.9,4.6-5,12.3-0.4,17.1c2.4,2.5,5.5,3.7,8.7,3.7c3,0,6-1.1,8.3-3.3c29.4-28.1,45.4-65.9,45.4-106.5c0-81.3-66.2-147.5-147.5-147.5c-7.6,0-15.3,0.6-23.1,1.9c-20.5-93.1-102-159.5-198.6-159.5c-42,0-82.4,12.7-116.7,36.8c-5.5,3.8-6.7,11.4-3,16.8C392.9,189.6,400.4,191,406,187.1L406,187.1z M494.1,640.4c6.7,0,12.1,5.5,12.1,12.1c0,6.7-5.5,12.1-12.1,12.1H157.5C76.2,664.7,10,598.5,10,517.2c0-81.3,66.2-147.6,147.5-147.6c7.5,0,15.2,0.6,23.1,1.9C201,278.4,282.6,212,379.2,212c112.2,0,203.6,91.3,203.6,203.7c0,0.8-0.1,1.7-0.1,2.6c52.7,0.3,99.2,33.9,116.1,83.7c2.1,6.4-1.3,13.2-7.6,15.3c-6.4,2.2-13.2-1.2-15.3-7.6c-13.7-40.2-51.3-67.2-93.8-67.2c-3.7,0-7.4,0.3-10.9,0.6c-3.6,0.5-7.1-0.8-9.7-3.3c-2.6-2.5-3.9-6.1-3.6-9.7c0.4-4.7,0.8-9.5,0.8-14.3c0-99-80.6-179.4-179.4-179.4c-88.8,0-163.3,63.7-177.1,151.4c-0.5,3.3-2.4,6.3-5.2,8.2c-2.9,1.8-6.4,2.4-9.6,1.7c-10.1-2.5-20.1-3.8-29.7-3.8c-68,0-123.3,55.4-123.3,123.4c0,68,55.3,123.2,123.3,123.2H494.1L494.1,640.4z M971.1,807.3c-0.3,0.1-27.2,17.8-80.4,17.8c-44.1,0-66.4-12.7-89.9-26.1c-25.8-14.7-55-31.4-112.7-31.4c-98,0-145.2,59.7-147.2,62.3c-4,5.2-3,12.8,2.2,16.9c5.3,4.1,12.9,3.1,17-2.1c1.7-2.1,42.4-53,128-53c51.3,0,75.3,13.8,100.8,28.2c25.3,14.5,51.4,29.4,101.9,29.4c61.4,0,92.8-21.2,94.1-22.1c3.4-2.3,5.2-6.1,5.2-10c-0.1-2.3-0.8-4.6-2.1-6.7C984.1,804.9,976.6,803.5,971.1,807.3L971.1,807.3z M971,700.5c-0.2,0.2-27.2,17.9-80.3,17.9c-44.1,0-66.4-12.7-89.9-26.3c-25.8-14.7-55-31.4-112.7-31.4c-98,0-145.2,59.8-147.2,62.4c-4,5.2-3,12.7,2.2,16.8c5.3,4.2,12.9,3.2,17-2.1c1.7-2.1,42.4-52.8,128-52.8c51.3,0,75.3,13.7,100.8,28.2c25.3,14.4,51.4,29.3,101.9,29.3c61.4,0,92.8-21.2,94.1-22.2c5.5-3.7,6.8-11.2,3.1-16.7C984.1,698.2,976.6,696.8,971,700.5z"/></g>
</svg>