<svg id="Wsprite" class="weather-sprite" xmlns="http://www.w3.org/2000/svg" xmlns:xlink="http://www.w3.org/1999/xlink" xml:space="preserve" style="position:absolute;width:0;height:0;visibility:hidden;" aria-hidden="true">
	<defs>
		<style>
			.stateRising {
				-webkit-transform-origin:center;
				        transform-origin:center;
				-webkit-transform: rotate(180deg);
				        transform: rotate(180deg);
			}
			.stateRising.ground {
				transform-box:fill-box;
			}
			#bf0 #wrapp {
				-webkit-transform-origin: center;
				        transform-origin: center;
				-webkit-transform: scale(1.4);
				        transform: scale(1.4);
			}
		</style>
		<g data-name="filter">
			<filter id="mist1" width="1.33" height="1.91" x="-.16" y="-.46" filterUnits="objectBoundingBox"><feGaussianBlur stdDeviation="3.09"/></filter>
			<filter id="mist2" width="1.29" height="2.47" x="-.14" y="-.73" filterUnits="objectBoundingBox"><feGaussianBlur stdDeviation="2.71"/></filter>
		</g>
		<g data-name="linearGradient">
			<linearGradient id="hl_scale_clr" x2="0" y2="100%"><stop offset="0" stop-color="#df3341" /><stop offset="0.5" stop-color="#d4f355" /><stop offset="1" stop-color="#61c0ec" /></linearGradient>
			<linearGradient id="hl_temp_clr" x2="0" y2="100%"><stop offset="0.28" stop-color="var(--tempClr)" /><stop offset="1" stop-color="var(--db)" /></linearGradient>
			<linearGradient id="dudeg" x1="50%" x2="50%" y1="100%" y2="0%"><stop offset="0%" stop-color="gray" stop-opacity=".3"/><stop offset="54%" stop-color="gray" stop-opacity=".1"/><stop offset="100%" stop-color="gray" stop-opacity=".1"/></linearGradient>
			<linearGradient id="cloudsg" x2="0" y2="100%"><stop stop-color="var(--wh)" offset="0.7"/><stop stop-color="var(--lg)" offset="0.99"/></linearGradient>
			<linearGradient id="logo-b" x2="56%" y2="51%"><stop offset="0" stop-color="#ffd121"/><stop offset="0.5" stop-color="#ffb505"/><stop offset="1" stop-color="#fa9618"/></linearGradient>
			<linearGradient id="logo-a" x2="0" y2="100%"><stop offset="0" stop-color="#3fb1ca"/><stop offset="0.5" stop-color="#0099b9"/><stop offset="1" stop-color="#007c84"/></linearGradient>
			<linearGradient id="fork" x2="0" y2="100%" gradientTransform="rotate(-135)"><stop id="f_s1" offset="0%" stop-color="var(--stateClr)"/><stop offset="100%" stop-color="var(--wh)"/></linearGradient>
		</g>
		<g data-name="radialGradient">
			<radialGradient id="suncoreG" gradientUnits="objectBoundingBox" r="0.95" spreadMethod="pad"><stop stop-color="var(--s1)" offset="0"/><stop stop-color="var(--s2)" offset="0.1"/><stop stop-color="var(--s3)" offset="0.3"/><stop stop-color="var(--s4)" offset="1"/></radialGradient>
			<radialGradient id="sunrays" gradientUnits="userSpaceOnUse" r="100%" spreadMethod="pad"><stop stop-color="var(--s4)" offset="0.5"/><stop stop-color="var(--s3)" offset="0.7"/><stop stop-color="var(--s2)" offset="0.9"/><stop stop-color="var(--s1)" offset="1"/></radialGradient>
		</g>
		<g data-name="elements">
			<g data-name="hilowtemp">
				<path id="hl_scale" fill="url(#hl_scale_clr)" d="M468 210h93v24h-93zM468 263h54v24h-54zM468 315h93v24h-93zM468 368h54v24h-54zM468 420h93v24h-93z"/>
				<g id="hl_temp"><path fill="var(--db)" d="M423 477V200a62 62 0 0 0-124 0v277c-36 21-61 59-60 115 0 54 60 111 122 111a122 122 0 0 0 62-226zm-62 202a98 98 0 0 1-44-185l6-3V200a38 38 0 0 1 76 0v291l6 3c33 17 54 51 54 87 0 54-44 98-98 98z"/><path fill="url(#hl_temp_clr)" d="M439 582a78 78 0 1 1-98-75l5-2V238h31v267l4 2c34 9 58 39 58 75z"/><path fill="var(--wh)" d="M365 530c-2-8-10-14-19-12-29 7-50 32-50 63a16 16 0 0 0 31 0c0-16 11-29 26-33 8-2 14-10 12-18z"/></g>
				<g id="hl_man" fill="var(--db)"><circle cx="152" cy="272" r="36"/><path d="M66 340h160v169l-5 1c-4-17-7-87-11-104h-14l-12 305h-17l-9-151h-19l-12 154h-18c1-101 3-207-10-309l-15-1-14 105-6 2 2-171z"/></g>
			</g>
			<path id="cloudp" fill="url(#cloudsg)" d="M-84-39q-17 0-30 12-12 13-12 30l2 14q-6-3-14-3-14 0-24 10t-10 24q0 14 10 24l2 1h315l5-3q12-13 12-30t-12-30Q147-2 130-2q-14 0-25 8V3q0-14-10-24T71-31q-10 0-17 5-3-18-16-31Q22-73-1-73t-39 16q-13 12-15 29-12-11-29-11z"/>
			<g data-name="overcast">
				<path id="overcastRays" fill="var(--do)" d="M6.139 23.807c0-.552-.447-1-1-1H1c-.553 0-1 .448-1 1s.447 1 1 1h4.139C5.691 24.807 6.139 24.359 6.139 23.807zM21 2.807c-.553 0-1 .448-1 1v4.138c0 .552.447 1 1 1s1-.448 1-1V3.807C22 3.255 21.553 2.807 21 2.807zM6.535 7.927c-.391-.391-1.023-.391-1.414 0s-.391 1.023 0 1.414l3.956 3.956c.195.195.451.293.707.293s.512-.098.707-.293c.391-.391.391-1.023 0-1.414L6.535 7.927zM36.88 7.927c-.391-.391-1.023-.391-1.414 0l-3.956 3.956c-.391.391-.391 1.023 0 1.414.195.195.451.293.707.293s.512-.098.707-.293l3.956-3.956C37.271 8.951 37.271 8.318 36.88 7.927zM14.915 6.91c-.217-.509-.808-.745-1.312-.53-.509.216-.746.803-.53 1.311l.809 1.905c.162.381.532.61.921.61.131 0 .264-.026.391-.08.509-.216.746-.803.53-1.311L14.915 6.91zM28.093 6.254c-.513-.205-1.095.041-1.302.553l-.775 1.918c-.207.512.04 1.095.552 1.302.123.049.25.073.375.073.396 0 .77-.236.927-.626l.775-1.918C28.852 7.044 28.604 6.461 28.093 6.254zM6.009 29.084l-1.904.809c-.509.216-.746.803-.53 1.311.162.381.532.61.921.61.131 0 .264-.026.391-.08l1.904-.809c.509-.216.746-.803.53-1.311C7.104 29.105 6.512 28.869 6.009 29.084zM4 18.017l1.918.775c.123.049.25.073.375.073.396 0 .77-.236.927-.625.207-.512-.04-1.095-.552-1.302L4.75 16.162c-.512-.205-1.095.041-1.302.552C3.241 17.227 3.488 17.81 4 18.017z"/>
				<path id="overcastSun" fill="var(--dy)" d="M12.806,34.876c0.719,0.079,1.418,0.223,2.087,0.439c-0.446-2.027,0.004-4.231,1.426-5.958 c1.872-2.273,4.878-3.063,7.523-2.224l0.012,0.004c0.816-2.055,2.586-3.693,4.902-4.238c0.824-0.194,1.646-0.225,2.441-0.129 c-0.007-0.155-0.023-0.307-0.023-0.464c0-2.063,0.604-3.982,1.632-5.605C30.39,12.7,26.015,10.014,21,10.014 c-7.618,0-13.793,6.175-13.793,13.793C7.207,28.351,9.414,32.366,12.806,34.876z"/>
				<g id="overcastclouds" fill="var(--wh)">
					<path d="M60.152,29.369h-0.081c0.035,0.304,0.059,0.611,0.059,0.925c0,0.553-0.447,1-1,1s-1-0.447-1-1 c0-3.309-2.691-6-6-6s-6,2.691-6,6c0,0.553-0.447,1-1,1s-1-0.447-1-1c0-4.064,3.049-7.423,6.978-7.927 c-0.226-5.039-4.384-9.073-9.478-9.073c-5.111,0-9.281,4.06-9.481,9.123c0.829,0.196,1.632,0.52,2.378,0.981 c1.816,1.125,3.086,2.89,3.576,4.97c0.126,0.538-0.207,1.076-0.744,1.203c-0.538,0.121-1.076-0.207-1.203-0.744 c-0.758-3.222-3.999-5.226-7.214-4.467c-3.221,0.758-5.225,3.994-4.467,7.215c0.126,0.537-0.207,1.075-0.745,1.202 c-0.076,0.018-0.153,0.026-0.229,0.026c-0.453,0-0.864-0.311-0.973-0.771c-0.294-1.251-0.268-2.502,0.012-3.674 c-2.058-0.301-4.137,0.476-5.493,2.122c-1.258,1.529-1.625,3.498-1.175,5.285c0.001,0.012,0.007,0.022,0.008,0.034 c0.306,1.186,0.97,2.29,1.985,3.127c0.426,0.352,0.487,0.981,0.137,1.408c-0.198,0.24-0.484,0.364-0.773,0.364 c-0.224,0-0.448-0.074-0.635-0.228c-1.217-1.002-2.088-2.311-2.546-3.781c-4.043-1.054-8.294,0.647-10.49,4.262 c-1.317,2.168-1.712,4.72-1.11,7.185c0.602,2.466,2.127,4.549,4.296,5.867c0.472,0.287,0.622,0.901,0.335,1.374 c-0.188,0.31-0.518,0.48-0.855,0.48c-0.133,0-0.265-0.036-0.392-0.091c1.58,0.936,3.399,1.509,5.344,1.593l8.209,0.003 c5.307-0.085,9.853-3.36,11.791-7.992c1.963,4.693,6.603,8,12,8c9.374,0,17-7.626,17-17v-10L60.152,29.369z"/>
					<g fill="var(--lb)">
						<path d="M53.108,22.435c-0.231-6.139-5.284-11.066-11.478-11.066c-6.142,0-11.16,4.844-11.47,10.91 c-0.558,0.012-1.119,0.078-1.676,0.209c-2.336,0.55-4.185,2.082-5.229,4.052c-2.882-0.585-5.848,0.433-7.75,2.742 c-1.251,1.52-1.879,3.408-1.81,5.359c-4.63-0.834-9.34,1.224-11.844,5.344c-1.596,2.625-2.073,5.714-1.345,8.698 s2.575,5.506,5.2,7.102c0.162,0.099,0.342,0.146,0.519,0.146c0.338,0,0.667-0.171,0.855-0.48c0.287-0.473,0.137-1.087-0.335-1.374 c-2.169-1.318-3.694-3.401-4.296-5.867c-0.602-2.465-0.207-5.017,1.11-7.185c2.196-3.614,6.447-5.315,10.49-4.262 c0.458,1.471,1.33,2.779,2.546,3.781c0.187,0.153,0.411,0.228,0.635,0.228c0.289,0,0.575-0.124,0.773-0.364 c0.351-0.427,0.289-1.057-0.137-1.408c-1.016-0.836-1.679-1.941-1.985-3.127c-0.001-0.012-0.007-0.022-0.008-0.034 c-0.45-1.787-0.083-3.756,1.175-5.285c1.356-1.646,3.435-2.423,5.493-2.122c-0.28,1.173-0.307,2.423-0.012,3.674 c0.108,0.461,0.52,0.771,0.973,0.771c0.076,0,0.153-0.009,0.229-0.026c0.538-0.127,0.871-0.665,0.745-1.202 c-0.758-3.221,1.246-6.457,4.467-7.215c3.215-0.759,6.456,1.245,7.214,4.467c0.127,0.537,0.665,0.865,1.203,0.744 c0.537-0.127,0.87-0.665,0.744-1.203c-0.49-2.08-1.76-3.845-3.576-4.97c-0.746-0.462-1.549-0.785-2.378-0.981 c0.2-5.063,4.37-9.123,9.481-9.123c5.094,0,9.253,4.033,9.478,9.073c-3.929,0.504-6.978,3.863-6.978,7.927c0,0.553,0.447,1,1,1 s1-0.447,1-1c0-3.309,2.691-6,6-6s6.046,2.691,6.046,6c0,0.028,0,1.327,0,3c0,0.552,0.448,1,1,1s1-0.448,1-1v-3 C60.176,26.29,57.059,22.92,53.108,22.435z"/>
						<path d="M43.176 57.369c-4.973 0-9.491-2.608-12-6.789-2.509 4.181-7.027 6.789-12 6.789-.552 0-1-.447-1-1s.448-1 1-1c4.853 0 9.201-2.899 11.078-7.386l.922-2.206.922 2.206c1.876 4.486 6.225 7.386 11.078 7.386.552 0 1 .447 1 1S43.729 57.369 43.176 57.369zM55.073 43.244c-.458-3.979-3.843-7.082-7.943-7.082-4.411 0-8 3.589-8 8 0 .552.448 1 1 1s1-.448 1-1c0-3.309 2.691-6 6-6 3.003 0 5.49 2.219 5.925 5.102-2.797.509-4.925 2.957-4.925 5.898 0 .552.448 1 1 1s1-.448 1-1c0-2.206 1.794-4 4-4s4 1.794 4 4c0 .552.448 1 1 1s1-.448 1-1C60.13 46.175 57.934 43.699 55.073 43.244z"/>
					</g>
				</g>
			</g>
			<path id="rays" fill="var(--dy)" d="M30 3a1 1 0 0 0-1 1v6a1 1 0 0 0 2 0V4a1 1 0 0 0-1-1zM59 32h-6a1 1 0 0 0 0 2h6a1 1 0 0 0 0-2zM7 32H1a1 1 0 0 0 0 2h6a1 1 0 0 0 0-2zM52.7 10.3a1 1 0 0 0-1.4 0l-5.74 5.73a1 1 0 1 0 1.41 1.41l5.74-5.73a1 1 0 0 0 0-1.42zM8.7 10.3a1 1 0 1 0-1.4 1.4l5.73 5.74a1 1 0 0 0 1.41 0 1 1 0 0 0 0-1.41l-5.73-5.74zM54.85 22.45a1 1 0 0 0-1.3-.53l-2.77 1.17a1 1 0 0 0 .78 1.84l2.76-1.17a1 1 0 0 0 .53-1.31zM9.05 23.46l-2.78-1.13a1 1 0 1 0-.75 1.86L8.3 25.3c.12.05.25.08.37.08a1 1 0 0 0 .38-1.93zM20.76 8.68a1 1 0 1 0-1.84.78l1.17 2.76a1 1 0 0 0 1.84-.78l-1.17-2.76zM40.11 7.97a1 1 0 0 0-1.3.55L37.7 11.3a1 1 0 0 0 1.85.75l1.13-2.78a1 1 0 0 0-.56-1.3z"/>
			<path id="ground" fill="var(--lo)" d="M59 40H1a1 1 0 0 0 0 2h58a1 1 0 0 0 0-2zM54 45H6a1 1 0 0 0 0 2h48a1 1 0 0 0 0-2zM49 50H11a1 1 0 0 0 0 2h38a1 1 0 0 0 0-2zM45 55H15a1 1 0 0 0 0 2h30a1 1 0 0 0 0-2z"/>
			<path id="halo" fill="var(--dy)" d="M48.33 41a20 20 0 1 0-36.65 0h36.65z"/>
			<path id="core" fill="#ede21b" d="M42.67 41a15 15 0 1 0-25.35 0h25.35z"/>
			<path id="arrow" fill="var(--db)" d="M36.29 28.29L31 33.59V22h-2v11.59l-5.29-5.3-1.42 1.42 7.71 7.7 7.71-7.7z"/>
			<g data-name="beaufort">
				<path id="gale_flag" fill="#ff2f00" d="M 0,0 480,150 0,300 z"/>
				<g id="storm_flag">
					<rect fill="#ff2f00" width="48" height="48"/>
					<rect fill="var(--bl)" x="12" y="12" width="24" height="24"/>
				</g>
			</g>
			<g id="sun-full">
				<path id="sunrays-full" fill="var(--dy)" d="M250.5 128.2c-5.8 0-10.5-4.7-10.5-10.5V60a10.5 10.5 0 1 1 21 0v57.6c0 5.8-4.7 10.5-10.5 10.5zM250.5 450.4c-5.8 0-10.5-4.7-10.5-10.6v-57.1a10.5 10.5 0 1 1 21 0v57.1c0 5.9-4.7 10.6-10.5 10.6zM439.5 260.7H383a10.5 10.5 0 1 1 0-21h56.5a10.5 10.5 0 1 1 0 21zM118 260.7H60.5a10.5 10.5 0 1 1 0-21H118a10.5 10.5 0 1 1 0 21zM344.2 167a10.5 10.5 0 0 1-7.4-18l30.8-30.8a10.5 10.5 0 0 1 14.9 14.9l-30.9 30.8c-2 2-4.7 3.1-7.4 3.1zM125.6 385.6a10.5 10.5 0 0 1-7.4-18l31.2-31.2a10.5 10.5 0 0 1 14.9 14.9L133 382.5c-2 2-4.8 3-7.5 3zM375.5 385.6c-2.7 0-5.4-1-7.5-3l-31.6-31.7a10.5 10.5 0 0 1 14.8-14.9l31.7 31.7a10.5 10.5 0 0 1-7.4 18zM156.8 167c-2.7 0-5.3-1-7.4-3l-31.2-31.3a10.5 10.5 0 1 1 14.9-14.8l31.2 31.2a10.5 10.5 0 0 1-7.5 17.9z"/>
				<path id="sunrays-half" fill="var(--do)" d="M312.3 367.6A10.5 10.5 0 1 0 293 376l10.2 23.9a10.5 10.5 0 1 0 19.3-8.3l-10.2-23.9zM188.8 132.4a10.5 10.5 0 1 0 19.3-8.3l-10.2-23.8a10.5 10.5 0 1 0-19.4 8.3l10.3 23.8zM368.1 188.3a10.5 10.5 0 0 0 8.3 19.3l23.8-10.2a10.4 10.4 0 0 0 5.6-13.8A10.5 10.5 0 0 0 392 178L368 188.3zM132.9 311.8a10.4 10.4 0 0 0 5.5-13.8 10.5 10.5 0 0 0-13.8-5.5l-23.8 10.2a10.4 10.4 0 0 0-5.5 13.8A10.5 10.5 0 0 0 109 322l23.8-10.2zM400.3 302.6l-23.9-10.2c-1.3-.6-2.7-.9-4-.9a10.5 10.5 0 0 0-4.2 20.2l23.8 10.2a10.5 10.5 0 0 0 8.3-19.3zM100.7 197.5l23.9 10.2a10.5 10.5 0 0 0 8.3-19.3L109 178.2a10.5 10.5 0 0 0-13.8 5.5 10.4 10.4 0 0 0 5.5 13.8zM298.4 137.9a10.4 10.4 0 0 0 13.8-5.5l10.2-23.9a10.5 10.5 0 0 0-19.3-8.2L292.9 124c-2.3 5.3.2 11.5 5.5 13.8zM202.6 362.2a10.4 10.4 0 0 0-13.8 5.5l-10.1 23.8a10.5 10.5 0 0 0 19.3 8.3l10.2-23.9a10.4 10.4 0 0 0-5.6-13.7z"/>
				<path id="sun-outline" fill="var(--dy)" d="M250.52 145.98c-57.46 0-104.2 46.74-104.2 104.2s46.74 104.2 104.2 104.2 104.2-46.74 104.2-104.2-46.74-104.2-104.2-104.2zm0 187.39c-45.87 0-83.19-37.32-83.19-83.19S204.65 167 250.53 167c45.86 0 83.18 37.32 83.18 83.2 0 45.86-37.31 83.18-83.19 83.18z"/>
				<path id="suncore" fill="#FCE6B1" d="M250.52 333.37c-45.87 0-83.19-37.32-83.19-83.19S204.65 167 250.53 167c45.86 0 83.18 37.32 83.18 83.2 0 45.86-37.31 83.18-83.19 83.18z"/>
			</g>
			<g id="moon-full">
				<path id="moon-outline" fill="#3f3a02" d="M386 280a134 134 0 0 1-165-167l6-18-19 5A156 156 0 0 0 95 250a155 155 0 0 0 304 43l6-18-19 5zM250 384a134 134 0 0 1-53-257c-2 8-2 16-2 24a155 155 0 0 0 178 154c-22 47-70 79-123 79z"/>
				<path id="moon-core" fill="#ffc843" d="M195 151c0-8 0-16 2-24a134 134 0 1 0 176 178l-23 1c-86 0-155-69-155-155z"/>
			</g>
			<path id="stars" fill="var(--db)" d="M358 114l5 9 10 1-7 7 1 10-9-5-8 5 1-10-7-7 10-1zM277 126l7 13 14 2-10 11 2 14-13-7-13 7 2-14-10-11 14-2zM332 195l8 16 18 3-13 13 3 17-16-8-16 8 4-17-13-13 17-3z"/>
			<g data-name="clouds">
				<g id="cloud-s">
					<path id="cloud-s-outline" d="M260.508,309.594c-0.947-24.632-21.282-44.38-46.143-44.38c-2.616,0-5.23,0.229-7.825,0.687 c-14.287-17.878-35.806-28.345-58.968-28.345c-40.872,0-74.274,32.591-75.58,73.151c-18.046,8.002-30.044,25.948-30.044,46.213 c0,27.924,22.707,50.642,50.619,50.642h149.995c27.924,0,50.644-22.718,50.644-50.642 C293.206,335.493,279.918,316.888,260.508,309.594z M242.563,386.298H92.567c-16.189,0-29.359-13.181-29.359-29.382 c0-13.453,9.133-25.145,22.21-28.432c5.008-1.264,8.386-5.958,8.008-11.108c-0.109-1.5-0.213-2.917-0.213-4.212 c0-29.971,24.386-54.352,54.359-54.352c18.532,0,35.607,9.336,45.676,24.976c2.688,4.175,7.906,5.933,12.573,4.235 c2.825-1.028,5.7-1.551,8.544-1.551c13.739,0,24.917,11.178,24.917,24.912c0,1.319-0.134,2.748-0.409,4.367 c-0.985,5.784,2.903,11.272,8.687,12.262c14.131,2.417,24.387,14.57,24.387,28.898 C271.945,373.117,258.766,386.298,242.563,386.298z"/>
					<path id="cloud-s-core" d="M247.562,328.018c-5.783-0.985-9.672-6.478-8.688-12.262c0.275-1.619,0.408-3.048,0.408-4.367 c0-13.738-11.178-24.914-24.916-24.914c-2.844,0-5.719,0.521-8.545,1.549c-4.666,1.697-9.885-0.061-12.572-4.231 c-10.068-15.642-27.145-24.979-45.677-24.979c-29.974,0-54.358,24.383-54.358,54.354c0,1.295,0.104,2.712,0.213,4.212 c0.378,5.15-3,9.851-8.008,11.108c-13.078,3.286-22.211,14.979-22.211,28.432c0,16.201,13.17,29.382,29.359,29.382h149.996 c16.201,0,29.382-13.181,29.382-29.382C271.945,342.588,261.689,330.435,247.562,328.018z"/>
				</g>
				<g id="cloud-l">
					<path id="cloud-l-outline" fill="var(--dg)" d="M325.955,291.434c0.011-0.451,0.016-0.896,0.016-1.346c0-36.064-29.344-65.407-65.41-65.407 c-4.828,0-9.656,0.554-14.42,1.65c-20.889-27.869-53.415-44.28-88.512-44.28c-61.085,0-110.782,49.693-110.782,110.773 c0,0.025,0,0.051,0,0.076c-27.615,10.623-46.24,37.186-46.24,67.348c0,39.861,32.414,72.291,72.256,72.291h231.156 c39.862,0,72.295-32.43,72.295-72.291C376.309,328.334,355.646,300.803,325.955,291.434z M304.016,411.279H72.859 c-28.119,0-50.996-22.896-50.996-51.031c0-23.373,15.863-43.688,38.576-49.391c5.009-1.263,8.385-5.986,8.007-11.14 c-0.177-2.413-0.344-4.694-0.344-6.896c0-49.357,40.16-89.514,89.522-89.514c30.522,0,58.645,15.376,75.227,41.13 c2.688,4.175,7.906,5.934,12.573,4.234c4.984-1.814,10.076-2.734,15.135-2.734c24.346,0,44.151,19.805,44.151,44.147 c0,2.354-0.233,4.875-0.714,7.695c-0.986,5.785,2.902,11.271,8.688,12.264c24.547,4.197,42.364,25.313,42.364,50.201 C355.049,388.387,332.154,411.279,304.016,411.279z"/>
					<path id="cloud-l-core" fill="#D6D6D8" d="M304.016,411.28H72.859c-28.118,0-50.995-22.895-50.995-51.03c0-23.374,15.862-43.688,38.575-49.394 c5.009-1.261,8.385-5.985,8.008-11.139c-0.178-2.413-0.344-4.694-0.344-6.896c0-49.357,40.16-89.513,89.521-89.513 c30.521,0,58.645,15.375,75.227,41.128c2.688,4.174,7.902,5.935,12.573,4.234c4.984-1.814,10.076-2.734,15.137-2.734 c24.344,0,44.149,19.806,44.149,44.147c0,2.355-0.231,4.874-0.714,7.694c-0.984,5.784,2.9,11.271,8.688,12.264 c24.549,4.199,42.364,25.313,42.364,50.203C355.05,388.389,332.156,411.28,304.016,411.28z"/>
				</g>
				<g id="cloud">
					<path id="cloud-outline" d="M387.499,234.139c0.011-0.451,0.017-0.899,0.017-1.346c0-36.066-29.345-65.407-65.412-65.407 c-4.828,0-9.651,0.553-14.422,1.65c-20.89-27.869-53.414-44.28-88.513-44.28c-61.085,0-110.782,49.693-110.782,110.773 c0,0.025,0,0.051,0,0.077c-27.617,10.621-46.239,37.184-46.239,67.348c0,39.861,32.414,72.29,72.256,72.29h231.155 c39.863,0,72.294-32.429,72.294-72.29C437.853,271.04,417.191,243.508,387.499,234.139z M365.559,353.984H134.403 c-28.119,0-50.996-22.895-50.996-51.03c0-23.374,15.863-43.687,38.576-49.394c5.008-1.261,8.384-5.985,8.007-11.139 c-0.177-2.415-0.344-4.696-0.344-6.896c0-49.358,40.16-89.514,89.522-89.514c30.522,0,58.645,15.375,75.227,41.129 c2.688,4.173,7.902,5.934,12.573,4.234c4.984-1.814,10.076-2.734,15.136-2.734c24.347,0,44.15,19.805,44.15,44.147 c0,2.356-0.232,4.874-0.714,7.695c-0.985,5.785,2.901,11.273,8.687,12.263c24.549,4.199,42.365,25.313,42.365,50.203 C416.593,331.093,393.699,353.984,365.559,353.984z"/>
					<path id="cloud-core" d="M365.559,353.984H134.403c-28.119,0-50.996-22.895-50.996-51.03c0-23.374,15.863-43.687,38.576-49.394 c5.008-1.261,8.384-5.985,8.007-11.139c-0.177-2.415-0.344-4.696-0.344-6.896c0-49.358,40.16-89.514,89.522-89.514 c30.522,0,58.645,15.375,75.227,41.129c2.688,4.173,7.902,5.934,12.573,4.234c4.984-1.814,10.076-2.734,15.136-2.734 c24.347,0,44.15,19.805,44.15,44.147c0,2.356-0.232,4.874-0.714,7.695c-0.985,5.785,2.901,11.273,8.687,12.263 c24.549,4.199,42.365,25.313,42.365,50.203C416.593,331.093,393.699,353.984,365.559,353.984z"/>
				</g>
				<g id="cloud-dark-s">
					<use fill="var(--dg)" xlink:href="#cloud-s-outline"/>
					<use fill="var(--dw)" xlink:href="#cloud-s-core"/>
				</g>
				<g id="cloud-light-s">
					<use fill="var(--lb)" xlink:href="#cloud-s-outline"/>
					<use fill="#fff" xlink:href="#cloud-s-core"/>
				</g>
				<g id="cloud-dark">
					<use fill="var(--dg)" xlink:href="#cloud-outline"/>
					<use fill="var(--dw)" xlink:href="#cloud-core"/>
				</g>
				<g id="cloud-light">
					<use fill="var(--lb)" xlink:href="#cloud-outline"/>
					<use fill="#fff" xlink:href="#cloud-core"/>
				</g>
			</g>
			<g id="misty" fill="var(--lg)" transform="translate(0, 50)">
				<path id="mist-T" d="M175.5 163h-110a10.6 10.6 0 1 1 0-21.3h110a10.6 10.6 0 0 1 0 21.2zM277.5 203.5h-84.2a10.6 10.6 0 0 1 0-21.2h84.2a10.6 10.6 0 1 1 0 21.2zM426.6 179.8H324.2a10.6 10.6 0 1 1 0-21.3h102.4a10.6 10.6 0 0 1 0 21.3z"/>
				<path id="mist-C" d="M199.2 239.1H54.9a10.6 10.6 0 1 1 0-21.2h144.3a10.6 10.6 0 1 1 0 21.2zM240.8 288.6H131a10.6 10.6 0 0 1 0-21.3h109.8a10.6 10.6 0 1 1 0 21.3zM445 272H288.4a10.6 10.6 0 0 1 0-21.3h156.8a10.6 10.6 0 1 1 0 21.2z"/>
				<path id="mist-B" d="M381.1 369H101.5a10.6 10.6 0 0 1 0-21.3h279.6a10.6 10.6 0 1 1 0 21.3zM371 423.3h-78.4a10.6 10.6 0 1 1 0-21.2h78.3a10.6 10.6 0 1 1 0 21.2zM218 423.3H61.2a10.6 10.6 0 0 1 0-21.2H218a10.6 10.6 0 0 1 0 21.2z"/>
			</g>
			<g id="rain" fill="var(--db)" transform="translate(0, 30)">
				<path id="drop-L" d="M128 427a13 13 0 0 1-10-21l37-45a13 13 0 1 1 20 17l-37 45c-3 3-6 4-10 4z"/>
				<path id="drop-C" d="M232 427a13 13 0 0 1-10-21l37-45a13 13 0 1 1 20 17l-37 45c-3 3-6 4-10 4z"/>
				<path id="drop-R" d="M335 427a13 13 0 0 1-10-21l37-45a13 13 0 1 1 20 17l-37 45c-3 3-6 4-10 4z"/>
			</g>
			<g id="thunder" fill="var(--db)">
				<g transform="translate(0, 30)">
					<use xlink:href="#drop-L"/>
					<use xlink:href="#drop-R"/>
				</g>
				<path id="lightning" fill="var(--dy)" transform="translate(50, 0)" d="M231 389h-31l-39 44h24l-44 66 83-76h-22l29-34z"/>
			</g>
			<g id="snow" fill="var(--lb)" transform="translate(50, 0)">
				<path id="flake-L" d="M97.096 445.726l-13.514-7.838 13.518-7.83c6.091-3.529 8.179-11.354 4.65-17.447-2.275-3.928-6.514-6.363-11.062-6.363-2.233 0-4.442.594-6.386 1.721l-13.416 7.77v-15.51c0-7.039-5.727-12.77-12.766-12.77-7.041 0-12.769 5.729-12.769 12.77v15.486l-13.397-7.77a12.74 12.74 0 0 0-6.396-1.73 12.82 12.82 0 0 0-11.056 6.365c-3.531 6.092-1.449 13.918 4.639 17.445l13.515 7.836-13.519 7.83c-6.092 3.531-8.178 11.354-4.65 17.449a12.814 12.814 0 0 0 11.061 6.371c2.234 0 4.443-.604 6.387-1.725l13.416-7.771v15.504c0 7.041 5.727 12.768 12.768 12.768s12.767-5.727 12.767-12.768v-15.486l13.396 7.77a12.72 12.72 0 0 0 6.394 1.729c4.546 0 8.779-2.438 11.056-6.363a12.683 12.683 0 0 0 1.296-9.686 12.67 12.67 0 0 0-5.932-7.757z"/>
				<path id="flake-C" d="M226.745 457.438l-13.518-7.836 13.518-7.83c6.092-3.529 8.182-11.355 4.654-17.447-2.275-3.928-6.514-6.363-11.061-6.363-2.235 0-4.441.594-6.385 1.721l-13.416 7.77v-15.508c0-7.039-5.726-12.764-12.765-12.764-7.041 0-12.768 5.725-12.768 12.764v15.486l-13.397-7.77a12.755 12.755 0 0 0-6.396-1.73 12.815 12.815 0 0 0-11.053 6.365c-3.535 6.092-1.453 13.918 4.637 17.445l13.516 7.838-13.52 7.83c-6.092 3.527-8.179 11.35-4.65 17.445a12.81 12.81 0 0 0 11.061 6.373c2.233 0 4.441-.6 6.385-1.727l13.418-7.771v15.504c0 7.041 5.728 12.768 12.767 12.768s12.766-5.727 12.766-12.768v-15.479l13.397 7.771a12.768 12.768 0 0 0 6.394 1.725 12.82 12.82 0 0 0 11.058-6.363 12.705 12.705 0 0 0 1.299-9.689 12.712 12.712 0 0 0-5.941-7.76z"/>
				<path id="flake-R" d="M356.398 445.726l-13.515-7.838 13.518-7.83c6.092-3.529 8.183-11.354 4.651-17.447-2.271-3.928-6.513-6.363-11.058-6.363-2.231 0-4.437.594-6.387 1.721l-13.409 7.77v-15.51c0-7.039-5.727-12.77-12.767-12.77-7.041 0-12.768 5.729-12.768 12.77v15.486l-13.397-7.77a12.737 12.737 0 0 0-6.396-1.73 12.814 12.814 0 0 0-11.056 6.365c-3.532 6.092-1.45 13.918 4.64 17.445l13.518 7.836-13.518 7.83c-6.09 3.531-8.178 11.354-4.65 17.449a12.808 12.808 0 0 0 11.057 6.371 12.82 12.82 0 0 0 6.387-1.725l13.416-7.771v15.504c0 7.041 5.726 12.768 12.766 12.768 7.042 0 12.767-5.727 12.767-12.768v-15.486l13.397 7.77a12.712 12.712 0 0 0 6.395 1.729c4.547 0 8.779-2.438 11.057-6.363a12.688 12.688 0 0 0 1.298-9.686 12.743 12.743 0 0 0-5.946-7.757z"/>
			</g>
			<g data-name="github_fork">
				<path id="ribbon_bkgrd" fill="url(#fork)" d="M0 0L298 298 298 201 97 0z"/>
				<text id="ribbon_text" x="10" y="125" transform="rotate(45 149 149)" font-size="32"><a href="https://github.com/BlackSkorpio/Home-Weather-Station" onclick="window.open(this.href);return false;" rel="nofollow">Fork me on GitHub</a></text>
				<path id="ribbon_dash" stroke-dasharray="5,5" d="M90 0l208 208M7 0l291 291"/>
			</g>
			<g data-name="precipion">
				<path id="prec_snow" fill="var(--lb)" d="M189 286l-20-11 19-12a6 6 0 0 0-6-10l-19 11v-22c0-4-3-6-6-6-4 0-6 2-6 6v22l-20-11a6 6 0 0 0-6 10l20 12-20 11a6 6 0 1 0 6 11l20-12v23c0 3 2 6 6 6 3 0 6-3 6-6v-23l20 11a6 6 0 0 0 8-2c1-3 0-6-2-8zM92 276l-14-8 14-8a6 6 0 1 0-6-10l-14 8v-16a6 6 0 0 0-12 0v16l-15-8a6 6 0 0 0-6 10l15 8-15 8a6 6 0 1 0 6 11l15-8v16a6 6 0 0 0 12 0v-16l14 8a6 6 0 0 0 8-2c1-3 0-7-2-9zM274 276l-14-8 14-8a6 6 0 1 0-6-10l-14 8v-16a6 6 0 0 0-12 0v16l-14-8a6 6 0 0 0-6 10l14 8-14 8a6 6 0 1 0 6 11l14-8v16a6 6 0 0 0 12 0v-16l14 8a6 6 0 0 0 9-2c1-3 0-7-3-9z" transform="matrix(.8 0 0 .8 120 8)"/><path id="prec_rain" fill="var(--db)" d="M481 393a10 10 0 0 0-9 9v26a10 10 0 1 0 19 0v-26a10 10 0 0 0-10-9M405 393a10 10 0 0 0-10 9v29a10 10 0 1 0 19 0v-29a10 10 0 0 0-9-9M443 374a10 10 0 0 0-10 9v24a10 10 0 1 0 20 0v-24a10 10 0 0 0-10-9M367 374a9 9 0 0 0-10 9v24a10 10 0 1 0 19 0v-24a10 10 0 0 0-9-9M519 374a10 10 0 0 0-9 9v33a10 10 0 1 0 19 0v-33a10 10 0 0 0-10-9" transform="translate(-196 -171)"/><g id="prec_cloud"><path fill="var(--wh)" d="M538 343H348a38 38 0 0 1-9-75 65 65 0 0 1-1-11 67 67 0 0 1 131-19 43 43 0 0 1 69 29 38 38 0 1 1 0 76m15-93a62 62 0 0 0-58-41 61 61 0 0 0-17 3 86 86 0 0 0-159 43 57 57 0 0 0 29 107h190a57 57 0 0 0 15-112" transform="translate(-196 -171)"/><path id="wind_marker" fill="var(--bftclr)" d="M263 251a9 9 0 1 0 0 18h138a9 9 0 1 0 0-19zM196 329c0 24 20 44 43 44h1c3 0 17-1 28-11 8-8 12-18 12-31a10 10 0 1 0-21 0c0 7-1 12-5 16-5 5-14 6-14 6a1 1 0 0 0-1 0 23 23 0 0 1 0-47h193a10 10 0 0 0 0-20H239c-23 0-43 19-43 43z" transform="translate(-196 -171)"/></g>
			</g>
			<g data-name="moon-phases">
				<path id="phase-full" transform="translate(-380.37,-0.53)" d="M 749.07161 200.5305 A 168.70027 168.70027 0 1 1 411.67107,200.5305 A 168.70027 168.70027 0 1 1 749.07161 200.5305 z"/>
				<path id="phase-crescent" fill="#d8cda8" d="M 199.862,368.70045 C 293.03269,368.70045 368.56242,293.17073 368.56242,200 C 368.56242,106.8293 293.03269,31.299555 199.862,31.299555 C 246.44791,31.299555 284.21221,106.8293 284.21221,200 C 284.21221,293.17073 246.44791,368.70045 199.862,368.70045 z"/>
				<path id="phase-quarter" fill="#d8cda8" d="M 199.86125,368.70045 C 292.83638,368.70045 368.20758,293.17071 368.20758,199.99995 C 368.20758,106.82922 292.83638,31.29945 199.86125,31.29945 C 199.12886,143.76656 199.72222,256.23321 199.86125,368.70045 z"/>
				<path id="phase-gibbous" fill="#d8cda8" d="M 199.97697,368.70045 C 106.80628,368.70045 31.27656,293.17073 31.27656,200 C 31.27656,106.8293 106.80628,31.299555 199.97697,31.299555 C 153.39106,31.299555 115.62676,106.8293 115.62676,200 C 115.62676,293.17073 153.39106,368.70045 199.97697,368.70045 z"/>
			</g>
			<g data-name="moon-phases-desc">
				<text id="MoonWax">Waxing</text>
				<text id="MoonWan">Waning</text>
				<text id="MoonCre">Crescent</text>
				<text id="MoonQua">Quarter</text>
				<text id="MoonGib">Gibbous</text>
				<circle id="moon" cy="53.1" r="31.4"/>
			</g>
		</g>
	</defs>
	<g data-name="icons-weather">
		<symbol id="precipion_snow" viewBox="0 0 400 269" xml:space="preserve">
			<use xlink:href="#prec_snow"/>
			<use xlink:href="#prec_cloud"/>
		</symbol>
		<symbol id="precipion_rain" viewBox="0 0 400 269" xml:space="preserve">
			<use xlink:href="#prec_rain"/>
			<use xlink:href="#prec_cloud"/>
		</symbol>
		<symbol id="01d" viewBox="0 0 500 500" xml:space="preserve">
			<use xlink:href="#sun-full"/>
		</symbol>
		<symbol id="01n" viewBox="0 0 500 500" xml:space="preserve">
			<use xlink:href="#moon-full"/>
			<use xlink:href="#stars"/>
		</symbol>
		<symbol id="02d" viewBox="0 0 500 500" xml:space="preserve">
			<use xlink:href="#sun-full"/>
			<use xlink:href="#cloud-light-s"/>
		</symbol>
		<symbol id="02n" viewBox="0 0 500 500" xml:space="preserve">
			<use xlink:href="#moon-full"/>
			<use xlink:href="#stars"/>
			<use xlink:href="#cloud-light-s"/>
		</symbol>
		<symbol id="03d" viewBox="0 0 500 500" xml:space="preserve">
			<g transform="translate(80, -50)">
				<use xlink:href="#sunrays-half"/>
				<use xlink:href="#sun-outline"/>
				<use xlink:href="#suncore"/>
			</g>
			<use xlink:href="#cloud-light"/>
		</symbol>
		<symbol id="03n" viewBox="0 0 500 500" xml:space="preserve">
			<g transform="translate(80, -50)">
				<use xlink:href="#moon-full"/>
				<use xlink:href="#stars"/>
			</g>
			<use xlink:href="#cloud-dark"/>
		</symbol>
		<symbol id="04d" viewBox="0 0 500 500" xml:space="preserve">
			<use xlink:href="#cloud-light"/>
		</symbol>
		<symbol id="04n" viewBox="0 0 500 500" xml:space="preserve">
			<use xlink:href="#cloud-dark"/>
		</symbol>
		<symbol id="09d" viewBox="0 0 500 500" xml:space="preserve">
			<use xlink:href="#cloud-dark"/>
			<use xlink:href="#rain"/>
		</symbol>
		<symbol id="09n" viewBox="0 0 500 500" xml:space="preserve">
			<use xlink:href="#cloud-dark"/>
			<use xlink:href="#rain"/>
		</symbol>
		<symbol id="10d" viewBox="0 0 500 500" xml:space="preserve">
			<g transform="translate(80, -50)">
				<use xlink:href="#sunrays-half"/>
				<use xlink:href="#sun-outline"/>
				<use xlink:href="#suncore"/>
			</g>
			<use xlink:href="#cloud-dark"/>
			<use xlink:href="#rain"/>
		</symbol>
		<symbol id="10n" viewBox="0 0 500 500" xml:space="preserve">
			<g transform="translate(80, -50)">
				<use xlink:href="#moon-full"/>
				<use xlink:href="#stars"/>
			</g>
			<use xlink:href="#cloud-dark"/>
			<use xlink:href="#rain"/>
		</symbol>
		<symbol id="11d" viewBox="0 0 500 500" xml:space="preserve">
			<g transform="translate(80, -50)">
				<use xlink:href="#sunrays-half"/>
				<use xlink:href="#sun-outline"/>
				<use xlink:href="#suncore"/>
			</g>
			<use xlink:href="#cloud-dark"/>
			<use xlink:href="#thunder"/>
		</symbol>
		<symbol id="11n" viewBox="0 0 500 500" xml:space="preserve">
			<g transform="translate(80, -50)">
				<use xlink:href="#moon-full"/>
				<use xlink:href="#stars"/>
			</g>
			<use xlink:href="#cloud-dark"/>
			<use xlink:href="#thunder"/>
		</symbol>
		<symbol id="13d" viewBox="0 0 500 500" xml:space="preserve">
			<g transform="translate(80, -50)">
				<use xlink:href="#sunrays-half"/>
				<use xlink:href="#sun-outline"/>
				<use xlink:href="#suncore"/>
			</g>
			<use xlink:href="#cloud-light"/>
			<use xlink:href="#snow"/>
		</symbol>
		<symbol id="13n" viewBox="0 0 500 500" xml:space="preserve">
			<g transform="translate(80, -50)">
				<use xlink:href="#moon-full"/>
				<use xlink:href="#stars"/>
			</g>
			<use xlink:href="#cloud-dark"/>
			<use xlink:href="#snow"/>
		</symbol>
		<symbol id="50d" viewBox="0 0 500 500" xml:space="preserve">
			<use xlink:href="#cloud-light"/>
			<use xlink:href="#misty"/>
		</symbol>
		<symbol id="50n" viewBox="0 0 500 500" xml:space="preserve">
			<use xlink:href="#cloud-dark"/>
			<use xlink:href="#misty"/>
		</symbol>
	</g>
	<g data-name="icons-sunCalc">
		<symbol id="goldenhour" viewBox="0 0 80 80" xml:space="preserve">
			<circle fill="var(--lb)" stroke="var(--db)" stroke-width="2" cx="40" cy="40" r="34"/>
			<g id="moon" fill="none" stroke="#3f3a02" stroke-width="2" stroke-linejoin="round">
				<path fill="#ffc843" stroke="none" d="M59.1 53.13A15.54 15.54 0 0 1 38.51 58a15.76 15.76 0 0 0 1.9 2.15 15.51 15.51 0 0 0 19.13-24.23c-.28-.18-.56-.34-.84-.5a15.5 15.5 0 0 1 .4 17.71z"/>
				<path d="M57.52 34.18c-.31-.2-.62-.38-.93-.56A15.5 15.5 0 0 1 36.4 56.24 15.39 15.39 0 0 0 40.28 60a15.52 15.52 0 1 0 17.24-25.82z"/>
			</g>
			<g id="sun" fill="none" stroke="var(--dy)" stroke-width="2" stroke-miterlimit="10" stroke-linecap="round">
				<circle fill="var(--do)" stroke="none" cx="34.06" cy="32.9" r="5"/>
				<path d="M36.33 26a6.83 6.83 0 1 1-9.46 1.89A6.82 6.82 0 0 1 36.33 26zM41.14 37.32l4.89 3.25M29.91 40.96l-1.7 5.62M44.86 21.48l-4.63 3.62M21.73 32.14l-5.87.27M28.82 21.51l-2.17-5.46"/>
				<path stroke="var(--do)" d="M18.86 22.57l4.89 3.24M37.25 15.83l-1.7 5.63M24.56 38.22l-4.63 3.62M49.19 30.91l-5.87.27M38.4 47.27l-2.17-5.46"/>
			</g>
		</symbol>
		<symbol id="goldenhours" viewBox="0 0 600 600" xml:space="preserve">
			<g fill="url(#suncoreG)">
				<path d="M300 397a33 33 0 0 0 22-57V17h-43v323a32 32 0 0 0 21 57z"/>
				<path d="M561 343H378l66-38a21 21 0 1 0-22-37l-65 38 73-125a21 21 0 1 0-37-21l-38 65v104a66 66 0 0 1-43 100h-1a64 64 0 0 1-34-2 66 66 0 0 1-32-102v-95l-5-9a21 21 0 1 0-37 21l37 64-134-77c-10-6-23-2-29 8s-2 23 8 29l133 77H39a21 21 0 0 0 0 43h179l-64 37a21 21 0 1 0 22 37l63-36-72 123a21 21 0 1 0 37 22l73-126v96a21 21 0 0 0 43 0v-95l37 65a21 21 0 1 0 38-21l-38-65 136 78c3 2 7 3 10 3a21 21 0 0 0 11-40l-136-78h183a21 21 0 0 0 0-43z"/>
			</g>
		</symbol>
		<symbol id="moonrise" viewBox="0 0 60 60" xml:space="preserve">
			<use xlink:href="#halo"/>
			<use class="stateRising ground" xlink:href="#ground"/>
			<use class="stateRising" xlink:href="#arrow"/>
		</symbol>
		<symbol id="moonset" viewBox="0 0 60 60" xml:space="preserve">
			<use xlink:href="#core"/>
			<use xlink:href="#ground"/>
			<use xlink:href="#arrow"/>
		</symbol>
		<symbol id="phase_full" viewBox="0 0 400 400" xml:space="preserve">
			<use xlink:href="#phase-full"/>
		</symbol>
		<symbol id="phase_crescent" viewBox="0 0 400 400" xml:space="preserve">
			<use fill="#59513e" xlink:href="#phase-full"/>
			<use xlink:href="#phase-crescent"/>
		</symbol>
		<symbol id="phase_quarter" viewBox="0 0 400 400" xml:space="preserve">
			<use fill="#59513e" xlink:href="#phase-full"/>
			<use xlink:href="#phase-quarter"/>
		</symbol>
		<symbol id="phase_gibbous" viewBox="0 0 400 400" xml:space="preserve">
			<use fill="#59513e" xlink:href="#phase-full"/>
			<use xlink:href="#phase-gibbous"/>
		</symbol>
		<symbol id="moon_phases" aria-labelledby="moonTitle moonDesc" role="img" viewBox="0 0 700 150" xml:space="preserve" font-size="16">
			<title id="moonTitle">Moon Phases</title>
			<desc id="moonDesc">Illustration showing the different moon phases</desc>
			<path fill="#231f20" d="M0 0h700v150H0z"/>
			<g fill="#59513e">
				<use x="52.9" xlink:href="#moon"/>
				<use x="138.5" xlink:href="#moon"/>
				<use x="222.6" xlink:href="#moon"/>
				<use x="303.3" xlink:href="#moon"/>
				<use x="394.2" xlink:href="#moon" fill="#d8cda8"/>
				<use x="474.9" xlink:href="#moon"/>
				<use x="559.1" xlink:href="#moon"/>
				<use x="644.7" xlink:href="#moon"/>
			</g>
			<path fill="#d8cda8" d="M138.5 84.6a31.4 31.4 0 0 0 0-62.9 18.7 31.4 0 1 1 0 62.9zm84.1 0a31.4 31.4 0 0 0 0-62.9zm80.7 0a31.4 31.4 0 0 0 0-62.9 18.2 31.4 0 0 0 0 62.9zm171.6 0a31.4 31.4 0 1 1 0-62.9 18.2 31.4 0 1 1 0 62.9zm84.2 0a31.4 31.4 0 0 1 0-62.9zm85.6 0a31.4 31.4 0 1 1 0-62.9 18.7 31.4 0 0 0 0 62.9z"/>
			<g id="waxing_txt" class="mT">
				<text id="MoonNew"  x="53" y="130">New Moon</text>
				<use x="137" y="110" xlink:href="#MoonWax"/>
				<use x="137" y="130" xlink:href="#MoonCre"/>
				<use x="224" y="130" xlink:href="#MoonQua"/>
				<use x="305" y="110" xlink:href="#MoonWax"/>
				<use x="305" y="130" xlink:href="#MoonGib"/>
			</g>
			<g id="waning_txt" class="mT">
				<text id="MoonFull" x="400" y="130">Full Moon</text>
				<use x="480" y="110" xlink:href="#MoonWan"/>
				<use x="480" y="130" xlink:href="#MoonGib"/>
				<use x="560" y="130" xlink:href="#MoonQua"/>
				<use x="650" y="110" xlink:href="#MoonWan"/>
				<use x="650" y="130" xlink:href="#MoonCre"/>
			</g>
		</symbol>
		<symbol id="moon_flat" viewBox="0 0 512 512" xml:space="preserve">
			<path fill="#757889" d="M173 154h-3a70 70 0 0 0-136 3 51 51 0 0 0 17 99h122a51 51 0 0 0 0-102z"/><path fill="#d4d8dd" d="M461 262c0 87-58 160-137 184a192 192 0 0 1-111 0 192 192 0 0 1 0-367 192 192 0 0 1 111 0c79 23 137 97 137 183z"/><path fill-opacity=".08" d="M324 79a230 230 0 0 1 0 367 192 192 0 0 0 0-367z"/><path fill="#fff" fill-opacity=".2" d="M122 262a230 230 0 0 1 91-183 192 192 0 0 0 0 367 230 230 0 0 1-91-184z"/><path fill="#757889" d="M461 282h-3a70 70 0 0 0-136 3 51 51 0 0 0 17 99h122a51 51 0 0 0 0-102z"/><g fill="#b6bbbf"><circle cx="198" cy="230" r="32"/><circle cx="218" cy="326" r="19"/><circle cx="294" cy="186" r="19"/></g><g fill="#d4d8dd"><circle cx="499" cy="102" r="13"/><circle cx="461" cy="26" r="19"/><circle cx="422" cy="90" r="13"/><circle cx="109" cy="467" r="13"/><circle cx="51" cy="429" r="19"/><circle cx="13" cy="493" r="13"/></g><path fill-opacity=".08" d="M461 282h-3a70 70 0 0 0-80-50 71 71 0 0 1 55 50h2a51 51 0 0 1 0 102h26a51 51 0 0 0 0-102z"/>
		</symbol>
	</g>
	<g data-name="icons-beaufort">
		<symbol id="bf0" viewBox="0 0 120 120" xml:space="preserve">
			<g id="wrapp" fill="var(--bftclr)">
				<path stroke="var(--bfs)" stroke-miterlimit="10" d="M95.4 54.9a38.7 38.7 0 0 0 5.1-4.7A40.6 40.6 0 0 1 62 90.6zM54.9 24.6a38.7 38.7 0 0 0-4.7-5.1A40.6 40.6 0 0 1 90.6 58zM24.6 65.1a38.7 38.7 0 0 0-5.1 4.7A40.6 40.6 0 0 1 58 29.4zM65.1 95.4a38.7 38.7 0 0 0 4.7 5.1A40.6 40.6 0 0 1 29.4 62z"/>
				<path d="M95.4 54.9a38.4 38.4 0 0 1-4.8 3.1c-1-17.9-16.3-31.5-35.7-33.4a38.4 38.4 0 0 1 3.1 4.8c-17.9 1-31.5 16.3-33.4 35.7a38.4 38.4 0 0 1 4.8-3.1c1 17.9 16.3 31.5 35.7 33.4a38.4 38.4 0 0 1-3.1-4.8c17.8-1 31.5-16.3 33.4-35.7z"/>
				<path fill="var(--wh)" d="M60.6 80.7A30.7 30.7 0 0 0 82 71.4l-5.2.8a20.7 20.7 0 0 0 4.1-12.3v-.5A30.7 30.7 0 0 0 71.6 38a47.9 47.9 0 0 1 .8 5.2 20.7 20.7 0 0 0-12.3-4.1h-.5a30.7 30.7 0 0 0-21.4 9.2l5.2-.8a20.7 20.7 0 0 0-4.1 12.3v.5a30.7 30.7 0 0 0 9.2 21.4 47.9 47.9 0 0 1-.8-5.2A20.7 20.7 0 0 0 60 80.6z"/>
				<path d="M68.6 59.9a8.6 8.6 0 1 0-8.6 8.6 8.6 8.6 0 0 0 8.6-8.6z"/>
			</g>
		</symbol>
		<symbol id="gale1" viewBox="0 0 480 300" xml:space="preserve">
			<use xlink:href="#gale_flag"/>
		</symbol>
		<symbol id="gale2" viewBox="0 0 480 300" xml:space="preserve">
			<use xlink:href="#gale_flag" transform="scale(0.50)"/>
			<use xlink:href="#gale_flag" transform="scale(0.50) translate(0, 300)"/>
		</symbol>
		<symbol id="storm1" viewBox="0 0 48 48" xml:space="preserve">
			<use xlink:href="#storm_flag"/>
		</symbol>
		<symbol id="storm2" viewBox="0 0 48 48" xml:space="preserve">
			<use xlink:href="#storm_flag" transform="scale(0.48)"/>
			<use xlink:href="#storm_flag" transform="scale(0.48) translate(0, 52)"/>
		</symbol>
	</g>
	<g data-name="icons-details">
		<symbol id="sunrise" viewBox="0 0 60 60" xml:space="preserve">
			<use xlink:href="#rays"/>
			<use xlink:href="#halo"/>
			<use xlink:href="#core"/>
			<use class="stateRising ground" xlink:href="#ground"/>
			<use class="stateRising" xlink:href="#arrow"/>
		</symbol>
		<symbol id="sunset" viewBox="0 0 60 60" xml:space="preserve">
			<use xlink:href="#rays"/>
			<use xlink:href="#halo"/>
			<use xlink:href="#core"/>
			<use xlink:href="#ground"/>
			<use xlink:href="#arrow"/>
		</symbol>
		<symbol id="location" viewBox="0 0 512 512" xml:space="preserve">
			<path fill="var(--db)" d="M256 0a188 188 0 0 0-149 303l149 209 149-209A188 188 0 0 0 256 0z"/><path fill="var(--wh)" d="M396 188a140 140 0 1 1-280 1 140 140 0 0 1 280-1z"/><g fill="var(--db)"><path d="M256 76l-20 112 20 112 20-112z"/><path d="M144 188l112 20 112-20-112-20z"/><path d="M200 132l46 66 66 46-46-66z"/><path d="M200 244l66-46 46-66-66 46z"/></g>
		</symbol>
		<symbol id="temperatur" viewBox="0 0 40 40" xml:space="preserve">
			<path fill="var(--wh)" d="M17 22.2c-2.5 0-4.5-2-4.5-4.5V6a4.5 4.5 0 0 1 9 0v11.7c0 2.5-2 4.5-4.5 4.5z"/><g fill="var(--db)"><path d="M17 2a4 4 0 0 1 4 4v11.7a4 4 0 0 1-8 0V6a4 4 0 0 1 4-4m0-1a5 5 0 0 0-5 5v11.7c0 2.8 2.3 5 5 5s5-2.2 5-5V6a5 5 0 0 0-5-5z"/><path fill="var(--tempClr)" d="M17 38.5a7.5 7.5 0 0 1-4.7-13.4l.2-.1v-9.5h9V25l.2.1A7.5 7.5 0 0 1 17 38.5z"/><path d="M21 16V25.2l.4.3a7 7 0 1 1-8.7 0l.3-.3V16h8m1-1H12v9.8A8 8 0 0 0 17 39a8 8 0 0 0 5-14.2V15z"/><path fill="var(--rd)" d="M25.5 4h5c.3 0 .5.2.5.5s-.2.5-.5.5h-5a.5.5 0 0 1 0-1z"/><path fill="orange" d="M25.5 8h5c.3 0 .5.2.5.5s-.2.5-.5.5h-5a.5.5 0 0 1 0-1z"/><path fill="var(--ly)" d="M25.5 12h5c.3 0 .5.2.5.5s-.2.5-.5.5h-5a.5.5 0 0 1 0-1z"/><path fill="var(--wh)" d="M25.5 16h5c.3 0 .5.2.5.5s-.2.5-.5.5h-5a.5.5 0 0 1 0-1z"/><path fill="var(--lb)" d="M25.5 20h5c.3 0 .5.2.5.5s-.2.5-.5.5h-5a.5.5 0 0 1 0-1z"/><path d="M25.5 24h5c.3 0 .5.2.5.5s-.2.5-.5.5h-5a.5.5 0 0 1 0-1z"/></g>
		</symbol>
		<symbol id="hilowtemp" viewBox="0 0 595 842" xml:space="preserve">
			<use xlink:href="#hl_scale"/>
			<use xlink:href="#hl_temp"/>
			<use xlink:href="#hl_man"/>
		</symbol>
		<symbol id="humidity" viewBox="0 0 40 40" xml:space="preserve">
			<path fill="var(--wh)" d="M10 22.2c-2.5 0-4.5-2-4.5-4.5V6a4.5 4.5 0 0 1 9 0v11.7c0 2.5-2 4.5-4.5 4.5z"/><path fill="var(--db)" d="M10 2a4 4 0 0 1 4 4v11.7a4 4 0 0 1-8 0V6a4 4 0 0 1 4-4m0-1a5 5 0 0 0-5 5v11.7c0 2.8 2.3 5 5 5s5-2.2 5-5V6a5 5 0 0 0-5-5z"/><path fill="var(--lb)" d="M10 38.5a7.5 7.5 0 0 1-4.7-13.4l.2-.1v-9.5h9V25l.2.1A7.5 7.5 0 0 1 10 38.5z"/><path fill="var(--db)" d="M14 16V25.2l.4.3a7 7 0 1 1-8.7 0l.3-.3V16h8m1-1H5v9.8a8 8 0 1 0 10 0V15z"/><path fill="var(--lb)" d="M25.5 25.5c-2.8 0-5-2.4-5-5.3 0-2.3 3.3-7.2 5-9.4 1.7 2.2 5 7 5 9.4 0 3-2.2 5.3-5 5.3z"/><path fill="var(--db)" d="M25.5 11.6c2 2.7 4.5 6.7 4.5 8.6 0 2.6-2 4.8-4.5 4.8S21 22.8 21 20.2c0-1.9 2.5-5.9 4.5-8.6m0-1.6S20 17 20 20.2c0 3.2 2.5 5.8 5.5 5.8s5.5-2.6 5.5-5.8C31 17 25.5 10 25.5 10z"/><path fill="var(--lb)" d="M34.5 12.5c-1.7 0-3-1.5-3-3.3 0-1.3 2-4 3-5.4 1 1.4 3 4 3 5.5 0 1.7-1.3 3.2-3 3.2z"/><path fill="var(--db)" d="M34.5 4.6C35.7 6.2 37 8.3 37 9.3c0 1.5-1.1 2.7-2.5 2.7S32 10.8 32 9.2c0-1 1.3-3 2.5-4.6m0-1.6S31 7.2 31 9.3c0 2 1.6 3.7 3.5 3.7S38 11.3 38 9.2c0-2-3.5-6.2-3.5-6.2z"/><path fill="var(--lb)" d="M33 36.5c-2 0-3.5-1.6-3.5-3.6 0-1.6 2.3-4.6 3.5-6.1 1.2 1.5 3.5 4.5 3.5 6 0 2-1.6 3.7-3.5 3.7z"/><path fill="var(--db)" d="M33 27.6c1.4 1.8 3 4.2 3 5.3 0 1.7-1.3 3.1-3 3.1s-3-1.4-3-3.1c0-1.1 1.6-3.5 3-5.3m0-1.6s-4 4.6-4 6.9 1.8 4.1 4 4.1 4-1.8 4-4.1-4-6.9-4-6.9zM9.5 19h5c.3 0 .5.2.5.5s-.2.5-.5.5h-5a.5.5 0 0 1 0-1zM9.5 23h5c.3 0 .5.2.5.5s-.2.5-.5.5h-5a.5.5 0 0 1 0-1zM9.5 11h5c.3 0 .5.2.5.5s-.2.5-.5.5h-5a.5.5 0 0 1 0-1zM9.5 7h5c.3 0 .5.2.5.5s-.2.5-.5.5h-5a.5.5 0 0 1 0-1z"/>
		</symbol>
		<symbol id="windspeed" viewBox="0 0 40 40" xml:space="preserve">
			<circle cx="7.5" cy="8.5" r="6" fill="var(--wh)"/><path fill="var(--db)" d="M7.5 3a5.5 5.5 0 1 1-.01 11.01A5.5 5.5 0 0 1 7.5 3m0-1a6.5 6.5 0 1 0 0 13 6.5 6.5 0 0 0 0-13z"/><path fill="var(--db)" d="M8 8h22v1H8zM19 12h1v9h-1z"/><path fill="var(--lb)" d="M7 37.5A2.5 2.5 0 0 1 4.5 35V21A2.5 2.5 0 0 1 7 18.5h25a2.5 2.5 0 0 1 2.5 2.5v14a2.5 2.5 0 0 1-2.5 2.5H7z"/><path fill="var(--db)" d="M32 19a2 2 0 0 1 2 2v14a2 2 0 0 1-2 2H7a2 2 0 0 1-2-2V21c0-1.1.9-2 2-2h25m0-1H7a3 3 0 0 0-3 3v14a3 3 0 0 0 3 3h25a3 3 0 0 0 3-3V21a3 3 0 0 0-3-3z"/><path fill="var(--wh)" d="M9.5 23.5h20v9h-20z"/><path fill="var(--db)" d="M29 24v8H10v-8h19m1-1H9v10h21V23z"/><path fill="var(--db)" d="M14.5 27a.5.5 0 0 1-.5-.5v-3a.5.5 0 0 1 1 0v3a.5.5 0 0 1-.5.5zM19.5 27a.5.5 0 0 1-.5-.5v-3a.5.5 0 0 1 1 0v3a.5.5 0 0 1-.5.5zM24.5 27a.5.5 0 0 1-.5-.5v-3a.5.5 0 0 1 1 0v3a.5.5 0 0 1-.5.5zM21.5 27l1.5 5h-3z"/><circle cx="31.5" cy="8.5" r="6" fill="var(--wh)"/><path fill="var(--db)" d="M31.5 3a5.5 5.5 0 1 1-.01 11.01A5.5 5.5 0 0 1 31.5 3m0-1a6.5 6.5 0 1 0 0 13 6.5 6.5 0 0 0 0-13z"/><circle cx="31.5" cy="8.5" r="3.5" fill="var(--lb)"/><path fill="var(--wh)" d="M16.5 2.5a6 6 0 0 1 0 12v-12z"/><path fill="var(--db)" d="M17 3.02a5.5 5.5 0 0 1 0 10.96V3.02M16.5 2H16V15h.5a6.5 6.5 0 1 0 0-13zM9.5 9h-2a.5.5 0 0 1-.5-.5c0-.28.22-.5.5-.5h2c.28 0 .5.22.5.5a.5.5 0 0 1-.5.5z"/>
		</symbol>
		<symbol id="pressure" viewBox="0 0 40 40" xml:space="preserve">
			<path fill="var(--lb)" d="M20 38.5a18.5 18.5 0 1 1 0-37 18.5 18.5 0 0 1 0 37z"/><path fill="var(--db)" d="M20 2a18 18 0 1 1 0 36 18 18 0 0 1 0-36m0-1a19 19 0 1 0 0 38 19 19 0 0 0 0-38z"/><circle cx="20" cy="20" r="15" fill="var(--wh)"/><circle cx="20" cy="20" r="5.5" fill="var(--lb)"/><path fill="var(--db)" d="M20 15a5 5 0 1 1 0 10 5 5 0 0 1 0-10m0-1a6 6 0 1 0 0 12 6 6 0 0 0 0-12z"/><circle cx="20" cy="7" r="1" fill="var(--lb)"/><ellipse cx="11" cy="11" fill="var(--lb)" rx="1" ry="1" transform="rotate(-45 11 11)"/><circle cx="33" cy="20" r="1" fill="var(--lb)"/><circle cx="7" cy="20" r="1" fill="var(--lb)"/><circle cx="20" cy="20" r="2" fill="var(--db)"/><g id="arm"><path fill="none" stroke="var(--db)" stroke-linecap="round" stroke-miterlimit="10" d="M28.5 11.5l-16 16"/><path fill="var(--wh)" d="M11.5 28.5v-2.8l4.6-1.8-1.8 4.6z"/><path fill="var(--db)" d="M15.2 24.8L13.9 28H12v-2l3.2-1.2M17 23l-6 2.4V29h3.6l2.4-6z"/></g>
		</symbol>
		<symbol id="windirection" viewBox="0 0 1600 1900" xml:space="preserve">
			<path fill="none" stroke="var(--db)" stroke-width="30" d="M720 285V40h1l178 230h1V25"/><g fill="var(--lb)" stroke="var(--db)" stroke-width="30"><path d="M800 300l200 600 600 200-600 200-200 600-200-600L0 1100l600-200 200-600"/><ellipse cx="800" cy="1100" rx="600" ry="600"/></g><g id="arrow"><path fill="var(--db)" d="M800 1100l-500 500L800 400l500 1200-500-500"/><path fill="var(--wh)" d="M800 1060l-425 430L800 470v590"/></g>
		</symbol>
		<symbol id="visibility" viewBox="0 0 508.4 508.4">
			<path fill="var(--wh)" d="M351.4 162.4c.8-.4 2-.4 2.8.8 10.4 18 15.6 38 15.6 58.8 0 64.8-52.8 117.6-117.6 117.6S134.6 286.8 134.6 222c0-25.6 8.4-50.4 23.6-70.8C86.6 168.8 32.6 205.6 6.6 254c36.8 68 132.8 113.6 245.6 113.6S465 322 501.8 254c-26.8-50-88-87.6-162.8-104.4l11.6 15.2v-.8c0-.4.4-1.2.8-1.6z"/><g fill="var(--lb)"><path fill="var(--db)" d="M138.6 222c0 62.8 51.2 113.6 113.6 113.6S365.8 284.8 365.8 222c0-20-5.2-39.6-15.2-56.8-.4-.4-9.2-12.4-11.6-15.6 0 0-38.8-9.6-85.2-9.6s-88.4 8.4-88.4 8.4l-1.2 1.6c-16.4 20-25.6 45.6-25.6 72zm71.6-48.4c11.6-10 26.8-15.6 42-15.6 15.6 0 30.4 5.6 42 15.6.8.8.8 2 .4 2.8-.4.4-.8.4-1.2.8l3.2 17.6c5.2-3.6 11.6-5.6 18-5.6 8 0 15.6 2.8 21.6 8 7.2 6.4 11.6 15.6 11.6 25.2 0 18.4-14.8 33.2-33.2 33.2-2.4 0-4.8-.4-6.8-.8-11.6 19.6-32.8 32-55.6 32-35.6 0-64.4-28.8-64.4-64.4 0-18.8 8-36.8 22.4-48.8z"/><path d="M187.8 222c0-10.4 2.4-20 7.2-28h-52.4c-2.4 8-4 18-4 28s1.2 20 4 28h52.8c-4.8-8-7.6-17.2-7.6-28zM362.2 194h-32.4c2.4 0 4.4 2 6.4 3.6 7.2 6.4 11.6 14.4 11.6 24 0 12.4-7.2 24-17.6 28h32c2.4-8 4-17.6 4-28-.4-9.6-1.6-19.6-4-27.6z"/><path fill="var(--lg)" d="M291.4 176.4a59 59 0 0 0-39.2-14.8 60.8 60.8 0 0 0-39.6 14.8 60.47 60.47 0 0 0-20.8 45.6c0 33.2 27.2 60.4 60.4 60.4 21.2 0 40.8-11.2 51.6-29.2-12.8-4.4-22.4-16.8-22.4-31.2 0-9.6 4-18.8 11.6-25.2 1.2-.8 2.4-2 3.6-2.8l-3.2-17.6c-.8.4-1.2.4-2 0z"/><path fill="var(--wh)" d="M333.4 200c-5.2-4.4-12-7.2-19.2-7.2-6.4 0-12.4 2-17.2 5.6-.4.4-1.2.8-1.6 1.2-6.4 5.6-10 13.6-10 22 0 13.2 8.8 24.4 20.8 28 2.4.8 5.2 1.2 8 1.2 16 0 29.2-13.2 29.2-29.2.4-8-3.2-16-10-21.6z"/></g><g fill="var(--dg)"><path d="M252.6 342c-66 0-119.6-53.6-119.6-119.6 0-28 10-55.2 27.6-76.4 1.6-1.6 4-2 5.6-.4s2 4 .4 5.6c-16.8 20-26 45.2-26 71.6 0 61.6 50 111.6 111.6 111.6s111.6-50 111.6-111.6c0-20-5.2-38.8-15.2-56-1.2-2-.4-4.4 1.6-5.6s4.4-.4 5.6 1.6c10.8 18.4 16 38.8 16 60 .4 65.6-53.2 119.2-119.2 119.2z"/><path d="M252.2 288.8c-36.8 0-66.4-29.6-66.4-66.4 0-19.2 8.4-37.2 22.8-50.4 11.6-10.4 27.2-16 43.6-16 16 0 31.2 5.6 43.6 16 1.6 1.6 2 4 .4 5.6s-4 2-5.6.4c-10.8-9.2-24-14.4-38-14.4-14.4 0-28 5.2-38 14-12.8 11.2-20.4 27.6-20.4 44.4 0 32.4 26 58.4 58.4 58.4 20.8 0 40.4-11.6 50.8-30.4 1.2-2 3.6-2.8 5.6-1.6 2 1.2 2.8 3.6 1.6 5.6-12.4 21.6-34.8 34.8-58.4 34.8z"/><path d="M314.6 257.2a35 35 0 0 1-35.2-35.2c0-10.8 4.4-20 12.4-26.8 6.4-5.6 14.4-8.4 22.8-8.4s16.4 3.2 23.2 8.4c8 7.2 12 16.8 12 26.8a35 35 0 0 1-35.2 35.2zm0-62.4c-6.8 0-12.8 2.4-17.6 6.8-6 5.2-9.6 12.4-9.6 20.4 0 14.8 12.4 27.2 27.2 27.2 15.2 0 27.2-12.4 27.2-27.2 0-7.6-3.6-14.8-9.6-20.8-4.8-4-11.2-6.4-17.6-6.4z"/><path fill="var(--lb)" d="M252.2 373.6C137.4 373.6 38.6 327.2.6 256a3 3 0 0 1 0-3.6c38-71.6 136.8-117.6 251.6-117.6 115.6 0 218.4 47.2 255.6 117.6a3 3 0 0 1 0 3.6c-37.2 70.4-140 117.6-255.6 117.6zM8.6 254C45.8 322 141 365.6 252.2 365.6c111.6 0 210.8-44.8 247.6-111.6-36.8-66.8-136-111.6-247.6-111.6C141.4 142.4 45.8 186 8.6 254z"/></g>
		</symbol>
		<symbol id="overcastDay" viewBox="0 0 60 60" xml:space="preserve">
			<use xlink:href="#overcastSun"/>
			<use xlink:href="#overcastRays"/>
			<use xlink:href="#overcastclouds"/>
		</symbol>
		<symbol id="overcastNight" viewBox="0 0 60 60" xml:space="preserve">
			<g transform="translate(-14,-12) scale(0.15)">
				<use xlink:href="#moon-full"/>
				<use xlink:href="#stars"/>
			</g>
			<use xlink:href="#overcastclouds"/>
		</symbol>
	</g>
	<g data-name="icons-ui">
		<symbol id="ribbon" viewBox="0 0 298 298" xml:space="preserve">
			<use xlink:href="#ribbon_bkgrd" stroke="var(--cc)"/>
			<use xlink:href="#ribbon_text" fill="var(--cc)"/>
			<use xlink:href="#ribbon_dash" stroke="var(--cc)"/>
		</symbol>
		<symbol id="serviceworker" viewBox="0 0 52 52">
			<g fill="var(--lb)"><path d="M6.12 19.8L0 26.04l6.12 6 2.16-.6 1.8-3.96 15.72-1.44-15.72-1.44-1.8-4.08"/><path d="M16.2 7.68H7.56v8.76l2.04.96 4.08-1.56 12.12 10.2-10.2-12.36 1.8-4.08M25.8 0l-6 6.24.6 2.28 4.08 1.56 1.32 15.96 1.44-15.96 4.08-1.56.72-2.28"/><path d="M44.28 7.68h-8.76L34.44 9.6l1.68 4.08L25.8 26.04l12.48-10.2 3.96 1.56 2.04-.96M45.72 19.8l-2.28.72-1.56 4.08-16.08 1.44 16.08 1.44 1.56 3.96 2.28.6 6.12-6"/><path d="M25.8 26.04l10.32 12.24-1.68 3.96 1.08 2.04h8.76v-8.64l-2.04-1.08-3.96 1.68"/><path class="cls-1" d="M25.8 26.04l-1.32 15.84-4.08 1.68-.6 2.16 6 6.12 6.24-6.12-.72-2.16-4.08-1.68"/><path d="M25.8 26.04l-12.12 10.2-4.08-1.68-2.04 1.08v8.64h8.64l1.2-2.04-1.8-3.96"/><path d="M25.8 26.04l-17.52 5.4-.84 2.16 2.16.96M9.6 17.4l-2.16.84.84 2.28 17.52 5.52M18.24 7.56L17.4 9.6l8.4 16.44-5.4-17.52M33.6 7.56l-2.28.96-5.52 17.52L34.44 9.6M42.24 17.4L25.8 26.04l17.64-5.52.96-2.28M25.8 26.04l16.44 8.52 2.16-.96-.96-2.16M25.8 26.04l5.52 17.52 2.28.84.84-2.16M25.8 26.04l-8.4 16.2.84 2.16 2.16-.84"/></g><g fill="#4788c7"><path d="M25.8 26.04l-15.72 1.44-1.8 3.96M25.8 26.04L9.6 34.56l4.08 1.68"/><path d="M8.28 20.52l1.8 4.08 15.72 1.44M13.68 15.84L9.6 17.4l16.2 8.64M17.4 9.6l-1.8 4.08 10.2 12.36M20.4 8.52l5.4 17.52-1.32-15.96M31.32 8.52l-4.08 1.56-1.44 15.96M34.44 9.6L25.8 26.04l10.32-12.36M38.28 15.84L25.8 26.04l16.44-8.64M43.44 20.52L25.8 26.04l16.08-1.44M25.8 26.04l17.64 5.4-1.56-3.96M25.8 26.04l12.48 10.2 3.96-1.68M25.8 26.04l8.64 16.2 1.68-3.96M25.8 26.04l1.44 15.84 4.08 1.68"/><path d="M25.8 26.04l-5.4 17.52 4.08-1.68M25.8 26.04L15.6 38.28l1.8 3.96"/></g><g fill="#dff0fe"><path d="M14.76 29.52l-3.24-3.48 3.24-3.48 11.04 3.48M15.6 20.52v-4.8h4.92l5.28 10.32M22.44 15l3.36-3.48L29.28 15 25.8 26.04M31.32 15.72h4.92v4.8L25.8 26.04M36.96 22.56l3.48 3.48-3.48 3.48-11.16-3.48M36.24 31.32v4.92h-4.92l-5.52-10.2"/><path d="M29.28 37.08l-3.48 3.36-3.36-3.36 3.36-11.04M20.52 36.24H15.6v-4.92l10.2-5.28"/><path d="M32.28 26a6.36 6.36 0 1 1-6.48-6.48A6.43 6.43 0 0 1 32.28 26"/></g><path fill="#4788c7" d="M30.84 26a4.89 4.89 0 0 1-5 4.92 5 5 0 0 1 0-10 4.92 4.92 0 0 1 5 5"/>
		</symbol>
		<symbol id="alert" viewBox="0 0 500 500" xml:space="preserve">
			<path d="M233 344c0-5 2-10 5-13 3-2 7-4 12-4 6 0 10 2 13 5 2 3 4 7 4 12 0 6-2 10-5 13-2 3-7 5-12 5s-9-2-12-5-5-7-5-13zm27-36h-20l-5-116h31l-6 116z"/>
			<path fill="none" stroke="var(--rd)" stroke-miterlimit="10" stroke-width="21" d="M413 375L269 105c-4-6-11-11-19-11-7 0-14 5-18 11L87 375c-3 6-3 14 1 20 4 7 11 11 18 11h288c8 0 14-4 18-11 4-6 4-14 1-20zm-142-94"/>
		</symbol>
		<symbol id="weatherDude" viewBox="0 0 1102 728" xml:space="preserve">
			<g fill="none" fill-rule="evenodd"><g fill="#2783A0"><rect width="796.5" height="377.6" x="226.4" y="184" rx="30.3"/><g opacity=".1"><path d="M709.2 86.4C665.4 117 608.6 115 558.8 99.1c-49.7-15.9-95.4-44.1-144-64.2A470.3 470.3 0 0 0 288.4 2.1c-61.8-7-130.8 1.6-173.9 50.9-48 54.8-44.3 153.8 7.6 204.1 26.4 25.7 61 38.2 91 58.2s58 53.3 55.4 91.9c-2.3 35.7-30 63.1-58.5 80.3-22.1 13.3-49.3 27.9-52 55.4-2.6 26.6 20.3 47.5 42.2 59.4a240.3 240.3 0 0 0 230-1c25.3-14 48.6-32.7 75.1-43.6 69.7-28.8 146.6.1 220.4 10.7A443 443 0 0 0 913.1 555c36.6-10.8 73.3-27.2 99-57.8 18.5-22 30-50 40.9-77.5a3073 3073 0 0 0 33.3-88.8 222.5 222.5 0 0 0 14.3-55.2c3-34.7-9.6-69-26.8-98.3C1033.1 108 964.4 59 890.1 46.7a253 253 0 0 0-210.8 64.9"/><ellipse cx="176" cy="697.4" rx="176" ry="30"/></g><path d="M.4.6h156.7v240.3H.4z" opacity=".2" transform="translate(389 252)"/></g><g fill="var(--wh)" opacity=".2"><path d="M157.7 241H28.9a28 28 0 0 1-28-28V28.6a28 28 0 0 1 28-28h128.8V241z" transform="translate(232 252)"/><path d="M129.4 241H.6V.5h128.8a28 28 0 0 1 28 28V213a28 28 0 0 1-28 28z" transform="translate(859 252)"/><path d="M.9.6h156.7v240.3H.9z" transform="translate(702 252)"/><path d="M.2.6h156.7v240.3H.2z" transform="translate(546 252)"/></g><g fill="var(--wh)"><path d="M478.5 359c-1.2 0-2.3-1-2.3-2.2v-6.6a2.3 2.3 0 1 1 4.6 0v6.6c0 1.2-1 2.3-2.3 2.3zm-11.5 4.8a2 2 0 0 1-1.6-.7l-4.6-4.6a2.3 2.3 0 1 1 3.2-3.2l4.6 4.6a2.3 2.3 0 0 1-1.6 4zm27.7 27.6c-.6 0-1.2-.2-1.6-.6l-4.7-4.7a2.3 2.3 0 1 1 3.2-3.2l4.7 4.7a2.3 2.3 0 0 1-1.6 3.8zm6.6-16.1h-6.5a2.3 2.3 0 0 1 0-4.5h6.5a2.3 2.3 0 0 1 0 4.5zM490 363.8a2.3 2.3 0 0 1-1.6-3.9l4.7-4.6a2.3 2.3 0 1 1 3.2 3.2l-4.7 4.6a2 2 0 0 1-1.6.7z"/><path fill-rule="nonzero" d="M490.6 373a12 12 0 0 0-21.8-7 16.9 16.9 0 0 0-24.2 9.1c-1.3-.1-2.6 0-4 .3a11.3 11.3 0 0 0 2.7 22.2h30.3l3-.3a13 13 0 0 0 9.8-15.2 12 12 0 0 0 4.2-9zm-15 19.9a8 8 0 0 1-2 .2h-30.4a6.7 6.7 0 1 1 2.2-13.2c.6.2 1.3.2 1.9-.1.5-.4 1-1 1-1.6a12.3 12.3 0 0 1 23-3.3c.4.8 1.2 1.2 2 1.2h.3a8.5 8.5 0 0 1 8.3 6.5l.2 1.9c0 4-2.7 7.4-6.5 8.4zm6-18.6c-2-1.6-4.4-2.5-7-2.7-.6-1-1.4-2-2.2-2.8a7.5 7.5 0 1 1 12.2 8.7 13 13 0 0 0-3-3.2z"/><g opacity=".5"><path fill-rule="nonzero" d="M67 18.2a13 13 0 0 0-11.7-10 16.9 16.9 0 0 0-27.6-1c-6.9.4-12.9 4.8-15.1 11.3A11.3 11.3 0 1 0 11.3 41h30.3A13 13 0 0 0 53 34.3h1.3l3-.3A13 13 0 0 0 67 18.2zm-19.8 16a8.5 8.5 0 0 1-5.6 2.3H11.2a6.8 6.8 0 1 1 2.2-13.1 2.3 2.3 0 0 0 3-1.8 12.4 12.4 0 0 1 23-3.3c.3.8 1.1 1.2 2 1.2h.2a8.5 8.5 0 0 1 5.6 14.8zm9-4.7l-1.7.2a13 13 0 0 0-.3-4.8 13 13 0 0 0-11.7-10 16.9 16.9 0 0 0-9.3-7A12.3 12.3 0 0 1 52 11.5c.4.8 1.2 1.2 2 1.2h.3a8.5 8.5 0 0 1 2 16.8z" transform="translate(591 352)"/><path d="M38.6 42.7l-1.5-.9 1.5-.8a1.1 1.1 0 0 0-1.2-2l-1.4.9v-1.7a1.1 1.1 0 1 0-2.3 0V40l-1.5-.8a1.1 1.1 0 1 0-1 2l1.4.8-1.5.8a1.1 1.1 0 0 0-.4 1.6 1.1 1.1 0 0 0 1.6.4l1.4-.8v1.6a1.1 1.1 0 0 0 2.3 0V44l1.5.8.5.2a1.2 1.2 0 0 0 1.1-1.5c0-.3-.3-.6-.5-.7zm-6.9-9.5l-1.4-.8 1.4-.9a1.1 1.1 0 0 0 .4-1.5 1.1 1.1 0 0 0-1.5-.4l-1.5.8v-1.6a1.1 1.1 0 0 0-2.2 0v1.6l-1.5-.8a1.1 1.1 0 1 0-1.1 2l1.4.8-1.4.9a1.1 1.1 0 0 0 .6 2h.5l1.5-1v1.8a1.1 1.1 0 0 0 2.2 0v-1.7l1.5.8.5.2a1.1 1.1 0 0 0 .6-2.1zM25 42.7l-1.5-.9 1.4-.8a1.1 1.1 0 0 0-1.1-2l-1.5.9v-1.7a1.1 1.1 0 1 0-2.2 0V40l-1.5-.8a1.2 1.2 0 0 0-1.1 2l1.4.8-1.4.8a1.1 1.1 0 0 0-.4 1.6 1.1 1.1 0 0 0 1.5.4l1.5-.8v1.6a1.1 1.1 0 0 0 2.3 0V44l1.4.8.6.2a1.1 1.1 0 0 0 .6-2.2z" transform="translate(910 349)"/><path d="M55 18.6a13 13 0 0 0-11.7-10 16.9 16.9 0 0 0-30 3.6 11.3 11.3 0 1 0-1.4 22.5h3.7a2.3 2.3 0 1 0 0-4.6h-3.7A6.8 6.8 0 1 1 14.1 17a2.3 2.3 0 0 0 3-1.7 12.3 12.3 0 0 1 23-3.4c.3.8 1.1 1.3 2 1.2h.2a8.5 8.5 0 1 1 0 17h-1.8a2.3 2.3 0 1 0 0 4.6h1.8a13 13 0 0 0 12.7-16z" transform="translate(910 349)"/><path d="M45.6 34.3c-1 .3-2 .4-3 .4h-5.2a2.3 2.3 0 1 1 0-4.6h5.2c.6 0 1.3 0 2-.2a8.5 8.5 0 0 0-2-16.8h-.3c-.8 0-1.6-.4-2-1.2a12.3 12.3 0 0 0-23 3.4 2.3 2.3 0 0 1-3 1.7A6.8 6.8 0 1 0 12 30h7.6a2.3 2.3 0 1 1 0 4.6H12a11.3 11.3 0 1 1 1.3-22.5 16.9 16.9 0 0 1 30.2-3.6 13 13 0 0 1 2 25.7z" transform="translate(753 347)"/><path d="M29.2 34.1h3.2l-6.8 16.5 1.6-11.9h-3.1l2.5-13.2h6.2z" transform="translate(753 347)"/><path d="M25.3 11.8c-1.3 0-2.3-1-2.3-2.3V3a2.3 2.3 0 1 1 4.6 0v6.5c0 1.3-1 2.3-2.3 2.3zM9 28H2.5a2.3 2.3 0 1 1 0-4.5H9a2.3 2.3 0 1 1 0 4.6zm16.3 22.9c-1.3 0-2.3-1-2.3-2.3V42a2.3 2.3 0 0 1 4.6 0v6.6c0 1.3-1 2.3-2.3 2.3zM48.1 28h-6.5a2.3 2.3 0 1 1 0-4.5H48a2.3 2.3 0 1 1 0 4.6z" transform="translate(286 347)"/><path fill-rule="nonzero" d="M25.3 37.8a12 12 0 1 1 0-24 12 12 0 0 1 0 24zm0-19.5a7.5 7.5 0 1 0 0 15 7.5 7.5 0 0 0 0-15z" transform="translate(286 347)"/><path d="M13.8 16.6c-.6 0-1.2-.3-1.6-.7l-2.3-2.3a2.3 2.3 0 0 1 3.2-3.2l2.3 2.3a2.3 2.3 0 0 1-1.6 3.9zm-2.3 25.3A2.3 2.3 0 0 1 9.9 38l2.3-2.3a2.3 2.3 0 1 1 3.2 3.2l-2.3 2.3c-.5.4-1 .7-1.6.7zm27.6 0c-.6 0-1.2-.3-1.6-.7L35.2 39a2.3 2.3 0 0 1 3.2-3.2l2.3 2.3a2.3 2.3 0 0 1-1.6 3.9zm-2.3-25.3a2.3 2.3 0 0 1-1.6-4l2.3-2.2a2.3 2.3 0 0 1 3.2 3.2l-2.3 2.3c-.4.4-1 .7-1.6.7z" transform="translate(286 347)"/></g></g><g fill="#F6F7F9"><rect width="91.5" height="28" x="265.5" y="263.1" rx="14"/><rect width="91.5" height="28" x="422.1" y="263.1" rx="14"/><rect width="91.5" height="28" x="578.8" y="263.1" rx="14"/><rect width="91.5" height="28" x="735.4" y="263.1" rx="14"/><rect width="91.5" height="28" x="892" y="263.1" rx="14"/></g><path fill="url(#dudeg)" d="M422.1 368.8s-29.8-30-39.1-30.4a43 43 0 0 1-16-5.1l-1-.6c1-1.3.5-2 0-2.4l-.6-.2-71.1-56.2c.6-1.1-3.2-13-3.2-13l-3.7-12.5-8-10.3s2.2-7.3 0-10.9c-2.3-3.6-1.8-12.1-3.4-32.8-1.5-20.6-10-21.9-10-21.9s-32.7-21.7-36.4-21c-3.5.5-8.3-6.3-8.9-7.2l-.1.1V141.2a49.5 49.5 0 0 1 3.8-12 39.3 39.3 0 0 0 27.3-27l.1-.7 4.9.4h.3c-.5-1-1-2.2-1.1-3.4h-.3l-.2-1.8.4 1.2c-.4-3.6.2-7.2 1.6-10.6 1.8-4.6 4.6-8.8 6.7-13.4 1.5-3 2.2-6.5 2-9.9 0-1.2-.4-2.4-.9-3.5v.9a9.5 9.5 0 0 0-4.6-5.7c-1.8-.9-4-1-5.6-2.2-5-3.2-4.7-8.5-11.2-10.2-5.3-1.4-10.9-1.4-16.2-2.8a51.4 51.4 0 0 0-32.4 2.8 66 66 0 0 0-22.7 14 32 32 0 0 0-10 23.7c0 2.8.9 5.6 2.3 8 1.3 2 3.3 3.8 4 6.1.8 2.8-.3 5.6-.3 8.5 0 2.6 1.8 5.6 4.2 5.5h1c.9-.3 1.7-.9 2.2-1.6a23.2 23.2 0 0 0 1.7 3.4l-.2 1.3c-1 3.2-2.7 6-5 8.4-.7 0-1.3.2-1.8.5l-.5.3-16.2 8.2h-1.8c-5.2-.1-20.3-.2-22.6.7-2.8 1.1-30.1 3.3-30.1 3.3s-14.6.9-13.8 22c0 0-5.5 18-7.1 21a632 632 0 0 0-11.3 32L56 264.2l-1.4 61.6-.2 15.3a160 160 0 0 1-2.1 27.3l1 .4-.2.5 1-.2 6.1 2.3S45 388.8 56 393.2a643 643 0 0 1 30.3 14.3 75.9 75.9 0 0 0 3 38.5c1.5 7.2 1.8 14.6.8 21.9a404 404 0 0 0 .1 47.7l-.1 64.1s2.4 41.2 4.4 50c2.1 8.9-4.4 12.5-4.4 12.5s4.3 24.2 9.4 27.4l-.3 1.5c-1 4-2.3 7.8-4 11.6C91.8 691 94 697 94 697s.3 11.8 21.7 14.2c21.3 2.4 20.4-12.5 18.7-18.2a89.8 89.8 0 0 1 .6-23.9c1.3-.8 3-2.6 5-6.4 4.2-8.3 0-28.1-3-34.7-3-6.5-.3-13.6-.3-13.6s-3.2-36.6 0-39.7c3.3-3.1 2.7-17 2.7-17l5.3-28.7 6.3-12.2 1.7-26.7 5-23.6s2.1-2 3.9-20.7c1.8-18.7 4.1-12.8 4.1-12.8-.8 12.5 6 18.8 6 18.8l1.8 32.6s2.3 24.4 6.1 30.4 0 13.3 0 13.3 1.3 23.3.2 30.1c-1.1 6.8 4.3 22.5 4.3 22.5l1.5 28s-8.9 25.3-4.8 33.6c4.2 8.2 2.1 17.8 2.1 17.8a3 3 0 0 0 1 1.5l-.4 1.4c-.6 3-1 6-1.3 9 0 0 2.2 3 12.1 6.7 10 3.7 7.8 10 9.2 14 1.5 4 11.6 7.5 31.4 6.6 20-.8 7.3-15.2 7.3-15.2s-10.4-14.6-14-16.6c-1.2-.7-2.4-3-3.6-5.6l-.7-1.5.9-.3s5.3-42 1.4-46c-3.8-4 1.3-31.2 1.3-31.2s2.6-9 1.4-11.6c-1.2-2.6 1.2-12.5 1.2-12.5s1.7-27-1.5-33.2c-3.3-6.2 1.8-42.6 1.8-42.6s2-34 7.3-46.3c1-2.2 1.5-7 1.9-13.2 2.9-1.4 4.7-2.5 4.7-2.5s6-80.9 2.4-90.9a58.6 58.6 0 0 1-3-19.9l6.9-24.4s4.4 12 7.3 13.6c2.9 1.5 6.4 7.4 6.4 7.4l30.5 24.3 23.6 17.2 20.9 17.3c.4-4 1.7-7.9 3.7-11.4l.8.3a34 34 0 0 0 7.5 2.4c-.6-.4-.3-2.6.8-5.4l.9.8c4.3 4 8.9 7.9 13.7 11.4 22 16.9 33.7-2 33.7-2s11.1 9.7 16.6 11.8c5.5 2.1 5.2-4.7 5.2-4.7z"/><path fill="#B07473" d="M184.9 670.2s2 3 11.5 6.6c9.4 3.7 7.3 10 8.7 13.9 1.5 4 11 7.4 29.9 6.6 18.9-.9 6.9-15 6.9-15s-9.9-14.6-13.2-16.6c-1.2-.7-2.4-2.9-3.6-5.6a105 105 0 0 1-3.8-11.6s-31 4.3-33.3 7.4a14 14 0 0 0-1.9 5.3c-.6 3-1 6-1.2 9zM101 695s.3 11.7 20.6 14.1c20.3 2.4 19.5-12.4 17.8-18a95 95 0 0 1 .4-22l1-8.7s-34.1.7-33.8 2.6a70 70 0 0 1-4.7 17.9c-3.3 8.2-1.2 14.1-1.2 14.1z"/><path fill="#EFB7B9" d="M341.6 346.4a27 27 0 0 0 5.4 6.7c4.2 4 8.5 7.7 13 11.3 21 16.7 32-2 32-2s10.7 9.6 16 11.6c5.2 2 5-4.7 5-4.7s-28.3-29.7-37.2-30c-5.1-.3-11-3-15-5.2-3-1.6-5.1-3-5.1-3l-7.7 7.3-6.6 6.4s-.3.3.3 1.5z"/><path fill="#000" d="M188 655.9c-1 1.6-1.6 3.5-1.9 5.3 5.3 7.7 36.4-.3 39-1a92.5 92.5 0 0 1-3.8-11.6s-31 4.2-33.3 7.3zm-82 13.4l.7.5c5 2.3 31-.1 31-.1.8.1 1.6 0 2.2-.5.4-5 .9-8.8.9-8.8s-34 .7-33.8 2.5c0 2.2-.3 4.4-1 6.4z" opacity=".1"/><path fill="#444053" d="M96.7 446a66 66 0 0 1 .7 21.8 420 420 0 0 0 .1 47.3v63.6s2.2 40.9 4.1 49.6c2 8.7-4.2 12.4-4.2 12.4s4.2 25 9.3 27.4c5 2.3 31 0 31 0s3.1 1 7-7c3.9-8.2 0-28-2.8-34.5s-.3-13.5-.3-13.5-3.1-36.3 0-39.4c3.1-3 2.5-16.9 2.5-16.9l5.1-28.4 6-12.2 1.6-26.5 4.8-23.3s2-2 3.7-20.6c1.6-18.6 4-12.7 4-12.7-1 12.4 5.6 18.6 5.6 18.6l1.7 32.4s2.2 24.2 5.8 30.1c3.6 6 0 13.3 0 13.3s1.2 23 .2 29.9c-1.1 6.7 4 22.2 4 22.2l1.5 27.9s-8.4 25-4.5 33.2c4 8.2 2 17.8 2 17.8 3.1 9.8 39.8 0 39.8 0s5-41.7 1.3-45.7c-3.6-3.9 1.2-31 1.2-31s2.5-9 1.4-11.5c-1.2-2.5 1-12.4 1-12.4s1.8-26.8-1.3-33c-3.1-6.1 1.7-42.2 1.7-42.2s2-33.8 7-46a53 53 0 0 0 1.7-13c1.5-27.7-1.8-85-1.8-85L223.8 320l-14.4-.8-13.8-.7-26-1.4-25.8-1.4-31.5-1.6s-6.4 58-15.6 83a78.4 78.4 0 0 0 0 49z"/><path fill="#EFB7B9" d="M173.3 125.2l11.2 27.5 24.3 4s12.9 4.4 12.3-6.6c-.4-5.8 1.4-12 3.2-16.5.9-2.3 2-4.5 3-6.7 0 0-49.8-28-47-18.6.6 2.1.6 4.3.1 6.4a21.2 21.2 0 0 1-7 10.5z"/><path fill="#B07473" d="M202.5 325.2h-54.7l2.8 19.2h53z"/><path fill="#000" d="M202.5 325.2h-54.7l2.8 19.2h53zm139.1 21.2a27 27 0 0 0 5.4 6.7c1.9-5.5 6-13.4 10.2-16a11 11 0 0 0 3.4-2.9c-3-1.6-5-3-5-3l-7.7 7.4-6.3 7.8z" opacity=".1"/><path fill="#E1E7EF" d="M334.3 353.7a423.4 423.4 0 0 0 11.2 4c-1.8-1.2 4.6-17.4 11-21.5 4.7-3 3.8-4.4 3-5l-.5-.2-5.1-1.9-19.6 24.6z"/><path fill="#000" d="M180.3 108.4c.6 2 .6 4.3.1 6.4a38.1 38.1 0 0 0 43.9 18.9c.9-2.3 2-4.6 3-6.7 0 0-49.7-28.2-47-18.6z" opacity=".1"/><path fill="#EFB7B9" d="M176 95.2a38.1 38.1 0 1 0 76.2 0 38.1 38.1 0 0 0-76.2 0z"/><path fill="#E1E7EF" d="M142.5 325.3l24.3 1.1 28 1.2 13.6.7 1-9.2 10.8-94.6 3.6-71.6h-9.7l-26.8-4.4-9.6-3.6-12.4-4.7-10.1 20.7-3.4 94.9-8 59.8z"/><path fill="#000" d="M175.6 220.3s9.8-42.4 16.5-50.7c0 0-2.5-14.6-8.1-16.5-5.6-1.9 8.5-4.6 8.5-4.6l8.7 3 8.7 3.5s-7.7 6.8-6.4 15.7c-.7 4-.3 8 1 11.8 2.4 6 2.8 53.9 0 60.2-2.7 6.4-2.3 20.3-2.3 20.3l-5.6 27.2-2 32.8-20.4 15.2-14.4-18 15.8-99.9z" opacity=".1"/><path fill="#B07473" d="M174.8 219.5s9.7-42.5 16.5-50.7c0 0-2.6-14.6-8.2-16.5-5.5-1.9 8.6-4.7 8.6-4.7l8.7 3 8.6 3.6s-7.6 6.8-6.3 15.6c-.7 4-.4 8 1 11.8 2.3 6 2.7 54 0 60.3-2.8 6.3-2.3 20.2-2.3 20.2l-5.7 27.3-2 32.7-20.4 15.2-14.4-18 15.9-99.8z"/><path fill="#000" d="M221.5 144.5l-21.2 7S211 156.9 211 173c0 0 10.8-13.1 10.6-28.5z" opacity=".1"/><path fill="#E1E7EF" d="M221.5 143.6l-21.2 7s10.6 5.5 10.6 21.5c0 0 10.8-13 10.6-28.5z"/><path fill="#000" d="M175.6 124s10.4 17.8 24.8 27.5c0 0-8.8-3.2-24.8 9 0 0-10-35.7 0-36.5z" opacity=".1"/><path fill="#E1E7EF" d="M175.6 123.1s10.4 17.9 24.8 27.6c0 0-8.8-3.3-24.8 9 0 0-10-35.8 0-36.6z"/><path fill="#000" d="M334.3 353.7l4 1.5c6.3-12.1 19-22.2 21.2-24l-.5-.2-5.1-1.9-19.6 24.6zm-142.6 30.1c.6 14.2 8.4 40.4 8.4 40.4 9.9 13.6 31.6 3.6 39.3-.6 1.5-27.6-1.8-84.8-1.8-84.8l-13.8-19-14.4-.7 10.8-94.6 3.6-71.6h-5.4c-1.7 7.3-4.5 19.6-4 22.6.7 4.4-6.6 48-6.6 48l-9 55.4-2.5 15c.8 2.6.2 13.4-.8 24.5l-.8 9.2-2 18.9c-1.2 9.7-1 37.3-1 37.3z" opacity=".1"/><path fill="#67647E" d="M193.4 383c.6 14.1 8.4 40.3 8.4 40.3 12 16.7 42-2 42-2s5.7-80.4 2.3-90.3c-2-6.3-3-13-2.9-19.6l6.5-24.3s4.3 12 7 13.5c2.8 1.5 6.2 7.4 6.2 7.4l28.9 24 22.4 17.2 19.9 17C335.4 348.6 359 331 359 331l-67.6-55.8c.6-1-3-12.9-3-12.9l-3.6-12.3-7.6-10.3s2.1-7.1 0-10.7c-2.1-3.6-1.7-12-3.2-32.6-1.4-20.5-9.4-21.7-9.4-21.7s-31-21.6-34.7-21c-3.3.7-7.8-6-8.4-7v-.1s-6 23.7-5.4 28c.7 4.5-6.6 48-6.6 48l-9 55.4-2.5 15.1c1.8 5.7-3.6 52.5-3.6 52.5-1.2 9.8-1 37.4-1 37.4z"/><path fill="#000" d="M93.8 407.8L117 420s18.8 6.2 26.4-29l21.8-59.8 1.5-4.8 2.7-9.4c4.3-15.2 10-38.5 7.9-47.7v-.7l-.4-81.8s2.3-38.5.8-41.6v-.3l-12.5-4.7L155 161l-3.3 94.9-8 59.8-31.5-1.7s-6.2 58-15.5 83a66 66 0 0 0-3 10.8z" opacity=".1"/><path fill="#67647E" d="M65 393.7c10.6 4.3 50.4 25.5 50.4 25.5s18.8 6.2 26.4-29l21.8-59.9s15.3-47.7 12-61.8v-.7l-.3-81.9s2.3-38.4.8-41.6a50 50 0 0 1-2.3-19.5l.2-1.2-.5.3L158 132h-1.7c-5 0-19.4-.2-21.6.8-2.6 1-28.6 3.3-28.6 3.3s-13.8.8-13 21.8c0 0-5.3 17.8-6.8 20.8s-10.7 31.8-10.7 31.8L65 265.7l-1.3 61.1s-.1 39-2.2 42.3l7.6 3s-14.6 17.2-4 21.6z"/><path fill="#EFB7B9" d="M102.5 359l4.8 6.4s29.3 53-3.4 45.3C71.2 403 76 376.2 76 376.2l2-18.6 24.5 1.4z"/><path fill="#000" d="M143.7 645.6c-.7-.1-12-5-20-5-7.9 0-18.4-.8-17.1 1.4 1.2 2 16.4 2.4 20.8 4.5 4.4 2 13.7 7.9 14.5 8.1.9.3 1.8-9 1.8-9zm78.6-23.9c-.1.8-16.9 19.6-26.2 18.8-9.3-.8 26.2-18.8 26.2-18.8zm-4.9-44.9s-18 45.7-23.8 48.1c-5.8 2.4-6.6-5.6-3.5-7.9 3-2.2 12.7-17 27.3-40.3zm-92.7-15.1s-3 16.9 4.5 27.9-4.5-28-4.5-28zM172 408.5a875 875 0 0 0-26.8-1.4s12.2 13.3 26.9 1.4zm-3.3 11.6l-16.5 1.6s5.8 7 16.5-1.6zm97.4-175.6s14.8 2 16.2 6.4c1.4 4.3-16.2-6.4-16.2-6.4zm26.2 36.2a35.5 35.5 0 0 0-16.7-1.4c-6.5 1.7-15.7-3-15.7-3s-9.3-.4-7.4 1c1.8 1.2 7.3.6 10.4 2.5 3 1.8 11.2 3.3 13.3 2.5 2-.9 16.1-1.6 16.1-1.6z" opacity=".1"/><path fill="#67647E" d="M200.4 278l.4 7.7s25.9-63.7 32.4-77.4c6.4-13.6 2.8-43.3 2.8-43.3l-3.7-.9-10.7-17.4v-.1s-6 23.7-5.4 28c.7 4.5-6.6 48-6.6 48l-9.2 55.4zm-51.8-133.3s10.6 109.5 27.1 123l-.4-81.8s2.3-38.4.8-41.6c-1.3-3-3-11.9-2.2-19.5l-.4-.9-15.4 8.1h-1.7l-1 14.6-6.8-2z"/><path fill="#000" d="M200.4 278l.4 7.7s25.9-63.7 32.4-77.4c6.4-13.6 2.8-43.3 2.8-43.3l-3.7-.9-10.7-17.4v-.1s-6 23.7-5.4 28c.7 4.5-6.6 48-6.6 48l-9.2 55.4zm-51.8-133.3s10.6 109.5 27.1 123l-.4-81.8s2.3-38.4.8-41.6c-1.3-3-3-11.9-2.2-19.5l-.4-.9-15.4 8.1h-1.7l-1 14.6-6.8-2z" opacity=".1"/><circle cx="203.6" cy="296.1" r="3.1" fill="#444053"/><circle cx="200.4" cy="342.7" r="3.1" fill="#444053"/><path fill="#000" d="M176 95.2c0 5.5 1.2 11 3.5 16l.5-.7c6.1-7.7 7.4-18.3 13-26.5 2-3 4.5-5.6 7.8-6.7 3.3-1 7.3-.2 9.4 2.7 1.3 1.8 1.6 4.2 3 6 2.6 3.3 7.5 3.3 11.7 2.6 4.1-.6 8.8-1.3 12 1.5 3.2 2.7 3.5 7.5 6 10.7 2 2.4 5 3.6 8 4a38 38 0 1 0-75-9.5z" opacity=".1"/><path fill="#585268" d="M197.4 46.4a62.4 62.4 0 0 0-21.6 13.8 33 33 0 0 0-9.6 23.7 18 18 0 0 0 2.2 7.8c1.3 2 3.2 3.8 3.9 6.1.7 2.7-.3 5.6-.3 8.4 0 2.8 2 6.2 4.7 5.4 1-.3 1.8-1 2.4-1.9 6.2-7.7 7.5-18.4 13-26.5 2-3 4.5-5.6 7.8-6.7 3.3-1 7.4-.2 9.4 2.6 1.3 1.9 1.6 4.2 3 6 2.6 3.4 7.5 3.3 11.7 2.7 4.1-.6 8.8-1.3 12 1.4 3.3 2.8 3.5 7.6 6 10.8 3.2 3.9 8.8 4.4 13.7 4.6-2-4.5-1.3-9.8.4-14.4 1.8-4.7 4.4-8.9 6.3-13.4a21 21 0 0 0 2-9.8c-.3-3.4-2-6.7-4.9-8.2-1.7-.9-3.7-1.1-5.3-2.2-4.7-3.3-4.4-8.5-10.7-10.2-5-1.3-10.3-1.3-15.4-2.7a46.4 46.4 0 0 0-30.7 2.7z"/><path fill="#000" d="M86.3 363.5s-8.6 8.5-9.7 8.4c-1.2-.2-2.8-7.7-2.8-7.7l12.5-.7z" opacity=".1"/><path fill="#E1E7EF" d="M85.4 362.7s-8.6 8.4-9.7 8.3c-1.1-.1-2.8-7.6-2.8-7.6l12.5-.7z"/><path fill="#000" d="M62.3 369.9s36.7-8.5 45.8-4.5c0 0-3.4-20.7-2.8-24.5.5-3.8-.1-17-.1-17s-2.2-24.7.7-31.6c2.8-7 1.2-25.2 1.2-25.2l-41.7 19.8s-.5 77.5-3 83z" opacity=".1"/><path fill="#67647E" d="M61.5 369s36.6-8.4 45.8-4.5c0 0-3.4-20.7-2.8-24.5.5-3.8-.2-17-.2-17s-2.1-24.6.7-31.5c2.8-7 1.3-25.2 1.3-25.2L64.6 286s-.6 77.4-3.1 83z"/><path fill="#000" opacity=".1" d="M88.9 37.6c-1.7-4.4-1-9.5.7-13.9 1.7-4.6 4.4-8.8 6.3-13.3a21 21 0 0 0 2-10c.4 1.2.7 2.4.8 3.6a21 21 0 0 1-2 9.8c-1.9 4.5-4.5 8.7-6.3 13.3A22.3 22.3 0 0 0 89 37.6zm-78.8 7.6c1-.3 1.9-1 2.5-1.9 6.1-7.7 7.4-18.4 12.9-26.5 2-3 4.6-5.6 7.9-6.7 3.3-1 7.3-.2 9.3 2.6 1.3 1.9 1.7 4.2 3 6 2.6 3.4 7.5 3.3 11.7 2.7 4.1-.6 8.9-1.3 12 1.4 3.3 2.8 3.5 7.6 6 10.8 3.2 3.8 8.7 4.4 13.5 4.6.2 1.1.6 2.3 1 3.4-4.9-.2-10.5-.7-13.6-4.6-2.6-3.3-3-8.1-6-10.8-3-2.7-8-2-12-1.4-4.2.6-9.2.7-11.8-2.7-1.3-1.8-1.7-4.1-3-6-2-2.9-6-3.7-9.3-2.6a16 16 0 0 0-7.9 6.6c-5.5 8.2-6.8 19-13 26.6-.5.9-1.4 1.5-2.4 2-2.6.6-4.7-2.7-4.7-5.5V43c.9 1.5 2.3 2.6 4 2.1zM1.9 25.3C3 27.4 5 29.1 5.7 31.5c.2.6.3 1.3.3 2-.9-1.7-2.3-3.1-3.3-4.8C1.7 27 1 25 .7 23a9 9 0 0 0 1.2 2.4z" transform="translate(166 63)"/></g>
		</symbol>
		<symbol id="clouds" viewBox="0 0 344 147" xml:space="preserve">
			<use transform="translate(172 73)" xlink:href="#cloudp"/>
		</symbol>
		<symbol id="mist" viewBox="0 0 48 48" xml:space="preserve">
			<g fill="var(--wh)" stroke="var(--lb)" stroke-linecap="round" stroke-linejoin="round" stroke-width=".5"><path id="fog1" filter="url(#mist1)" d="M8 24c-3.7.3-6.7 2.6-6.7 5.3 0 2.9 3.3 5.2 7.4 5.2H16c-1.8.2-3.2 1.3-3.2 2.7 0 1.3 1.4 2.4 3.2 2.5h23.3c4 0 7.1-2.3 7.1-5.2 0-2.8-3-5.1-6.8-5.2h-9c2-.2 3.6-1.3 3.6-2.6 0-1.4-1.6-2.5-3.6-2.6H8z"/><g style="transform:translateY(-15%)"><path id="fog2" filter="url(#mist2)" style="transform:translateX(-250%)" d="M7 13.7c-3.7.2-6 .3-5.8 2 .2 1.6.9 2.4 4.9 2.6l-.8.2h-.6c-1.7 0-3 .7-3 1.9 0 1.4 2.4 1.3 5.3 1.4 3 .1 6.5 0 8.8.2H39c4 0 7 .3 7-2.1s-6-2.4-9.8-2.5l-9-.2c2.1-.1 6.7-1 6.7-2.2 0-1.1-2.4-1.2-4.5-1.3H7z"/></g></g>
		</symbol>
		<symbol id="raindrop" viewBox="-249 372.9 96 96" xml:space="preserve">
			<path fill="var(--db)" d="M-200 373.7c-.1-1.1-1.9-1.1-2 0-4.4 35.5-27 42.9-27 67.6 0 15.3 12.8 27.6 28 27.6s28-12.4 28-27.6c0-24.7-22.6-32.1-27-67.6zm-4.2 39.3c-.3 1.1-.6 2.2-.9 3.4-2 7.1-4.3 15.2-4.3 24.5 0 5.1-3 6.9-5.8 6.9a5.8 5.8 0 0 1-5.8-5.8c0-11 5.3-18.2 10-24.6 1.5-2 2.9-3.9 4-5.7.5-.9 1.9-.8 2.5 0 .3.3.4.8.3 1.3z"/>
		</symbol>
		<symbol id="logosmall" viewBox="0 0 1000 1000" xml:space="preserve">
			<path fill="url(#logo-b)" d="M485 165c41-11 83-16 112-18C545 68 512 18 496 0c0 0-3 61-125 210 22-12 67-33 114-45zM643 216l-33-50c-20 21-49 56-73 93-35 53-55 111-55 111l78-24s-41 71-61 145c-19 64-17 133-17 133l54-25s-24 89-26 193c-2 91 16 173 25 206a358 358 0 0 0 320-354c1-160-116-285-212-428z"/><path fill="url(#logo-a)" d="M460 868c-26-68-33-146-33-146l-40 23s-19-65-26-131c-7-64 0-128 0-128l-53 21s-4-77 9-151c8-49 23-95 32-120l-5 6C236 367 144 491 144 644c0 197 159 356 355 356l30-1c-16-25-48-76-69-131z"/>
		</symbol>
		<symbol id="legend" viewBox="0 0 32 32" xml:space="preserve">
			<path fill="var(--cc)" d="M17.97 13.2l-2.2 7.62a4.21 4.21 0 0 0-.18.86.31.31 0 0 0 .1.22.28.28 0 0 0 .2.1.56.56 0 0 0 .37-.16 6.57 6.57 0 0 0 1.16-1.43l.36.21q-1.62 2.82-3.44 2.82a1.55 1.55 0 0 1-1.11-.39 1.3 1.3 0 0 1-.42-1 3.68 3.68 0 0 1 .18-1l1.5-5.13a4.44 4.44 0 0 0 .21-1.12.55.55 0 0 0-.2-.42.8.8 0 0 0-.56-.18l-.39.01.14-.43 3.64-.59zm-.66-4.94a1.58 1.58 0 0 1 1.12 2.69 1.58 1.58 0 0 1-2.23-2.23 1.5 1.5 0 0 1 1.11-.46z"/><g><path fill="var(--dy)" d="M16 6V1A15 15 0 0 0 1 16h5A10 10 0 0 1 16 6z"/><path fill="var(--rd)" d="M16 1v5a10 10 0 0 1 10 10h5A15 15 0 0 0 16 1z"/><path fill="var(--db)" d="M16 26v5a15 15 0 0 0 15-15h-5a10 10 0 0 1-10 10z"/><path fill="var(--bf1)" d="M6 16H1a15 15 0 0 0 15 15v-5A10 10 0 0 1 6 16z"/></g>
		</symbol>
		<symbol id="clock" viewBox="0 0 36 36" xml:space="preserve">
			<path fill="var(--db)" d="M29.7 8.6L32 6.3c2.7 3.6 4 7.7 4 11.7 0 9.9-8.1 18-18 18S0 27.9 0 18c0-4 1.4-8.1 4.1-11.7l2.7 2.3a14.4 14.4 0 0 0-3.6 9.5c0 8.6 6.8 15.3 14.9 15.3 8.6 0 15.3-6.8 15.3-15.3-.1-3.7-1.4-6.8-3.7-9.5z"/><path fill="var(--lb)" d="M8.6 6.8L6.3 4.1C9.9 1.4 14 0 18 0c4.5 0 8.6 1.4 11.7 4.1l-1.8 2.7c-2.7-2.3-6.3-3.6-9.9-3.6s-6.7 1.3-9.4 3.6z"/><g stroke-width="3" stroke-linecap="round" stroke-miterlimit="10"><path stroke="var(--lg)" d="M10.8 13.9l8.1 6.8"/><path stroke="var(--dg)" d="M16.9 20.7L27 9.1"/></g>
		</symbol>
	</g>
</svg>
