<svg id="Wsprite" class="weather-sprite" xmlns="http://www.w3.org/2000/svg" xmlns:xlink="http://www.w3.org/1999/xlink" xml:space="preserve" style="position:absolute;width:0;height:0;visibility:hidden;">
	<defs>
		<style>
			svg, symbol {
				 --wh: #dff0fe;
				 --bl: #000;
				 --rd: #ff0000;
				 --lB: #98ccfd;
				 --dB: #4788c7;
				 --lG: #a5a5a5;
				 --dG: #808083;
				 --lY: #fce6b1;
				 --dY: #ffc843;
				 --bY: #3f3a02;
				 --s1: #fff76b;
				 --s2: #fff845;
				 --s3: #ffda4e;
				 --s4: #fb8933;
				 --s5: #fdc830;
				 --s6: #f37335;
				--bf0: #99ffcc;/*BF2*/
				--bf1: #99ff66;/*BF3*/
				--bf2: #ccff00;/*BF6*/
				--bf3: #ffcc00;/*BF8*/
				--bf4: #ff6600;/*BF10*/
				--bf5: var(--rd);/*BF12*/
				/*--bfs: #065381;*/
				--bfs: var(--lB)
			}
			#temperatur g#plus path:nth-of-type(1) {fill:var(--rd)}
			#temperatur g#plus path:nth-of-type(2) {fill:orange}
			#temperatur g#plus path:nth-of-type(3) {fill: var(--lY)}
			#temperatur g#minus path:nth-of-type(1) {fill:var(--wh)}
			#temperatur g#minus path:nth-of-type(2) {fill:var(--lB)}
			#temperatur g#minus path:nth-of-type(3) {fill: var(--dB)}
		</style>
		<linearGradient id="dudeG" x1="50.0009803%" y1="99.9938656%" x2="50.0009803%" y2="-0.00844103098%">
			<stop stop-color="#808080" stop-opacity="0.25" offset="0%"/>
			<stop stop-color="#808080" stop-opacity="0.12" offset="54%"/>
			<stop stop-color="#808080" stop-opacity="0.1" offset="100%"/>
		</linearGradient>
		<linearGradient id="rose-gradient" gradientUnits="userSpaceOnUse" x1="54.331" y1="347.917" x2="763.678" y2="720.868">
			<stop stop-color="#f15f58" offset="0"/>
			<stop stop-color="#c55254" offset="0.094"/>
			<stop stop-color="#97444f" offset="0.208"/>
			<stop stop-color="#70384c" offset="0.326"/>
			<stop stop-color="#502e48" offset="0.447"/>
			<stop stop-color="#372746" offset="0.571"/>
			<stop stop-color="#252144" offset="0.701"/>
			<stop stop-color="#1a1e43" offset="0.839"/>
			<stop stop-color="#171d43" offset="1"/>
		</linearGradient>
		<linearGradient id="moonDark" gradientUnits="userSpaceOnUse" x1="0%" y1="0%" x2="0%" y2="100%">
			<stop stop-color="var(--dY)" offset="0"/>
			<stop stop-color="var(--bY)" offset="80%"/>
		</linearGradient>
		<linearGradient id="moon" gradientUnits="userSpaceOnUse" x1="0%" y1="0%" x2="0%" y2="100%">
			<stop stop-color="var(--lY)" offset="0"/>
			<stop stop-color="var(--dY)" offset="50%"/>
			<stop stop-color="var(--bY)" offset="80%"/>
		</linearGradient>
		<linearGradient id="bkgrd" gradientUnits="userSpaceOnUse" x1="0%" y1="0%" x2="0%" y2="100%">
			<stop stop-color="#f8b62d" offset="35%"/>
			<stop stop-color="#808083" offset="75%"/>
		</linearGradient>
		<radialGradient id="sunCore" gradientUnits="userSpaceOnUse" r="95" spreadMethod="pad">
			<stop stop-color="var(--s1)" offset="0"/>
			<stop stop-color="var(--s2)" offset="10%"/>
			<stop stop-color="var(--s3)" offset="30%"/>
			<stop stop-color="var(--s4)" offset="100%"/>
		</radialGradient>
		<radialGradient id="sunRays" gradientUnits="userSpaceOnUse" r="100%" spreadMethod="pad">
			<stop stop-color="var(--s4)" offset="5%"/>
			<stop stop-color="var(--s3)" offset="72%"/>
			<stop stop-color="var(--s2)" offset="94%"/>
			<stop stop-color="var(--s1)" offset="100%"/>
		</radialGradient>
		<radialGradient id="sunB" gradientUnits="userSpaceOnUse" r="20%" spreadMethod="pad">
			<stop stop-color="var(--s5)" offset="0"/>
			<stop stop-color="var(--s6)" offset="100%"/>
		</radialGradient>
		<linearGradient id="lightCloud" gradientUnits="userSpaceOnUse" x1="0%" y1="0%" x2="0%" y2="100%" spreadMethod="pad">
			<stop class="s5" stop-color="var(--wh)" offset="63%"/>
			<stop class="s7" stop-color="var(--dG)" offset="83%"/>
			<stop class="s8" stop-color="var(--bl)" offset="100%"/>
		</linearGradient>
		<linearGradient id="darkCloud" gradientUnits="userSpaceOnUse" x1="0%" y1="0%" x2="0%" y2="100%" spreadMethod="pad">
			<stop stop-color="var(--lG)" offset="33%"/>
			<stop stop-color="var(--dG)" offset="56%"/>
			<stop stop-color="var(--bl)" offset="100%"/>
		</linearGradient>
		<linearGradient id="cloudsG" gradientUnits="userSpaceOnUse" x1="0%" y1="0%" x2="0%" y2="100%" spreadMethod="pad"><stop stop-color="var(--pw)" offset="20%"/><stop stop-color="var(--dG)" offset="40%"/><stop stop-color="var(--bl)" offset="100%"/></linearGradient>
		<path id="cloudP" fill="url(#cloudsG)" d="M-84-39q-17 0-30 12-12 13-12 30l2 14q-6-3-14-3-14 0-24 10t-10 24q0 14 10 24l2 1h315l5-3q12-13 12-30t-12-30Q147-2 130-2q-14 0-25 8V3q0-14-10-24T71-31q-10 0-17 5-3-18-16-31Q22-73-1-73t-39 16q-13 12-15 29-12-11-29-11z"/>
	</defs>
	<symbol id="01d" viewBox="0 0 500 500" xml:space="preserve">
		<path fill="var(--wh)" d="M250.52 167c-45.87 0-83.19 37.31-83.19 83.18 0 45.87 37.32 83.19 83.2 83.19 45.86 0 83.18-37.32 83.18-83.19S296.4 167 250.52 167z"/>
		<path fill="url(#sunRays)" d="M250.52 145.98c-57.46 0-104.2 46.74-104.2 104.2s46.74 104.2 104.2 104.2 104.2-46.74 104.2-104.2-46.74-104.2-104.2-104.2zm0 187.39c-45.87 0-83.19-37.32-83.19-83.19S204.65 167 250.53 167c45.86 0 83.18 37.32 83.18 83.2 0 45.86-37.31 83.18-83.19 83.18zm0-205.17c-5.8 0-10.51-4.71-10.51-10.51V60.15a10.5 10.5 0 1 1 21.02 0v57.54c0 5.8-4.71 10.5-10.51 10.5zm0 322.16c-5.8 0-10.5-4.7-10.5-10.51v-57.18a10.5 10.5 0 1 1 21 0v57.18c0 5.8-4.7 10.51-10.5 10.51zM439.5 260.69H383a10.5 10.5 0 1 1 0-21.02h56.5a10.5 10.5 0 1 1 0 21.02zm-321.47-.01H60.5a10.5 10.5 0 1 1 0-21.01h57.52a10.5 10.5 0 1 1 0 21.01zM344.2 167a10.5 10.5 0 0 1-7.43-17.94l30.85-30.85a10.5 10.5 0 0 1 14.86 14.86l-30.85 30.85a10.47 10.47 0 0 1-7.43 3.08zM125.64 385.57a10.5 10.5 0 0 1-7.43-17.94l31.19-31.2a10.51 10.51 0 0 1 14.86 14.86l-31.2 31.2a10.48 10.48 0 0 1-7.42 3.08zm249.82.06c-2.7 0-5.38-1.02-7.43-3.07l-31.66-31.66a10.5 10.5 0 0 1 14.86-14.86l31.65 31.66a10.5 10.5 0 0 1-7.42 17.94zM156.83 167c-2.69 0-5.38-1.02-7.43-3.08l-31.2-31.2a10.5 10.5 0 1 1 14.87-14.86l31.2 31.2a10.5 10.5 0 0 1-7.44 17.94z"/>
		<path fill="url(#sunCore)" stroke="url(#sunCore)" d="M250.52 333.37c-45.87 0-83.19-37.32-83.19-83.19S204.65 167 250.53 167c45.86 0 83.18 37.32 83.18 83.2 0 45.86-37.31 83.18-83.19 83.18z"/>
	</symbol>
	<symbol id="01n" viewBox="0 0 500 500" xml:space="preserve">
		<path fill="#EAC618" d="M386.4 279.97c-11.79 3.3-24.02 4.99-36.36 4.99-73.88 0-133.99-60.1-133.99-133.98 0-12.75 1.8-25.38 5.34-37.53l5.35-18.39-18.44 5.19a156.3 156.3 0 0 0-81.04 54.92 153.8 153.8 0 0 0-32.09 94.53c0 85.6 69.65 155.24 155.25 155.24 34.27 0 66.77-10.95 93.98-31.67a156.4 156.4 0 0 0 55.08-80.1l5.35-18.39-18.44 5.19zM250.4 383.68c-73.87 0-133.98-60.1-133.98-133.98 0-53.54 32.2-101.67 80.22-122.75a156.08 156.08 0 0 0-1.86 24.03c0 85.6 69.64 155.24 155.24 155.24 7.6 0 15.16-.55 22.63-1.64-21.35 47.35-69.27 79.1-122.25 79.1z"/>
		<path fill="#58A1D4" d="M358.37 113.73l4.42 8.95 9.87 1.43-7.14 6.97 1.68 9.83-8.83-4.64-8.83 4.64 1.68-9.83-7.14-6.97 9.87-1.43zM276.96 125.51l6.62 13.41 14.8 2.15-10.71 10.44 2.53 14.73-13.24-6.95-13.23 6.95 2.52-14.73-10.7-10.44 14.79-2.15zM332.46 195.11l8.01 16.23 17.9 2.6-12.96 12.62 3.07 17.83-16.02-8.41-16.02 8.41 3.07-17.83-12.96-12.62 17.9-2.6z"/>
		<path fill="url(#moon)" d="M194.8 150.98c0-8.07.61-16.1 1.85-24.04-48.02 21.08-80.22 69.22-80.22 122.76 0 73.88 60.1 133.98 133.98 133.98 52.98 0 100.9-31.75 122.25-79.1a156.28 156.28 0 0 1-22.63 1.64c-85.6 0-155.24-69.64-155.24-155.24z"/>
	</symbol>
	<symbol id="02d" viewBox="0 0 500 500" xml:space="preserve">
		<path fill="var(--wh)" d="M258.58 167c-45.88 0-83.2 37.31-83.2 83.18 0 45.87 37.32 83.19 83.2 83.19 45.87 0 83.18-37.32 83.18-83.19S304.45 167 258.58 167z"/>
		<g id="rays" fill="url(#sunRays)">
			<path d="M258.58 145.98c-57.47 0-104.21 46.74-104.21 104.2s46.74 104.2 104.2 104.2 104.21-46.74 104.21-104.2-46.75-104.2-104.2-104.2zm0 187.39c-45.88 0-83.2-37.32-83.2-83.19S212.7 167 258.58 167c45.87 0 83.18 37.32 83.18 83.2 0 45.86-37.31 83.18-83.18 83.18zM258.57 128.2c-5.8 0-10.51-4.71-10.51-10.51V60.15a10.5 10.5 0 1 1 21.02 0v57.54c0 5.8-4.7 10.5-10.51 10.5zM258.57 450.36c-5.8 0-10.5-4.7-10.5-10.51v-57.19a10.5 10.5 0 1 1 21.01 0v57.19c0 5.8-4.7 10.51-10.5 10.51zM447.54 260.69h-56.48a10.5 10.5 0 1 1 0-21.02h56.48a10.5 10.5 0 1 1 0 21.02zM126.08 260.68H68.56a10.5 10.5 0 1 1 0-21.01h57.52a10.5 10.5 0 1 1 0 21.01zM352.25 167a10.5 10.5 0 0 1-7.43-17.94l30.85-30.85a10.51 10.51 0 0 1 14.86 14.86l-30.85 30.85a10.47 10.47 0 0 1-7.43 3.08zM133.69 385.57a10.51 10.51 0 0 1-7.43-17.94l31.19-31.2a10.51 10.51 0 0 1 14.86 14.86l-31.2 31.2a10.48 10.48 0 0 1-7.42 3.08zM383.5 385.63c-2.68 0-5.37-1.02-7.42-3.07l-31.66-31.66a10.5 10.5 0 0 1 14.86-14.86l31.66 31.66a10.5 10.5 0 0 1-7.43 17.94z"/>
			<path d="M164.88 167c-2.69 0-5.38-1.02-7.43-3.08l-31.2-31.2a10.5 10.5 0 0 1 14.87-14.86l31.2 31.2a10.5 10.5 0 0 1-7.44 17.94z"/>
		</g>
		<path fill="url(#sunCore)" stroke="url(#sunCore)" d="M258.57 333.19c-45.88 0-83.2-37.32-83.2-83.19s37.33-83.19 83.2-83.19c45.87 0 83.19 37.32 83.19 83.19s-37.32 83.19-83.2 83.19z"/>
		<g fill="url(#lightCloud)" stroke="url(#lightCloud)">
			<path d="M247.56 328.02a10.63 10.63 0 0 1-8.69-12.26c.28-1.62.41-3.05.41-4.37a24.94 24.94 0 0 0-24.91-24.92c-2.85 0-5.72.53-8.55 1.55a10.63 10.63 0 0 1-12.57-4.23 54.13 54.13 0 0 0-45.68-24.98 54.42 54.42 0 0 0-54.36 54.36c0 1.3.1 2.71.22 4.21.38 5.15-3 9.85-8.01 11.1a29.3 29.3 0 0 0-22.21 28.44 29.4 29.4 0 0 0 29.36 29.38h150a29.42 29.42 0 0 0 29.38-29.38 29.26 29.26 0 0 0-24.39-28.9z"/>
		</g>
	</symbol>
	<symbol id="02n" viewBox="0 0 500 500" xml:space="preserve">
		<path fill="url(#moon)" d="M245.42 129.27c0-8.07.62-16.1 1.86-24.03-48.02 21.08-80.22 69.21-80.22 122.75 0 73.88 60.1 133.98 133.98 133.98 52.98 0 100.9-31.75 122.25-79.1a156.27 156.27 0 0 1-22.63 1.64c-85.6 0-155.24-69.64-155.24-155.24z"/>
		<path fill="#EAC618" d="M437.02 258.26c-11.78 3.31-24.01 5-36.35 5-73.88 0-133.98-60.11-133.98-134 0-12.74 1.79-25.37 5.33-37.52l5.35-18.39-18.44 5.19a156.3 156.3 0 0 0-81.03 54.92c-21 27.32-32.1 60-32.1 94.53 0 85.6 69.65 155.24 155.25 155.24 34.28 0 66.77-10.95 93.98-31.67a156.4 156.4 0 0 0 55.08-80.1l5.35-18.4-18.44 5.2zM301.04 361.97c-73.87 0-133.98-60.1-133.98-133.98 0-53.54 32.2-101.67 80.22-122.75a156.08 156.08 0 0 0-1.86 24.03c0 85.6 69.64 155.25 155.24 155.25 7.6 0 15.16-.56 22.63-1.65-21.35 47.36-69.27 79.1-122.25 79.1z"/>
		<path fill="#E5E5E5" d="M250.16 347.1a10.63 10.63 0 0 1-8.69-12.26 24.94 24.94 0 0 0-24.5-29.28c-2.85 0-5.73.53-8.55 1.55a10.63 10.63 0 0 1-12.57-4.23 54.14 54.14 0 0 0-45.68-24.98 54.42 54.42 0 0 0-54.36 54.36c0 1.3.1 2.71.21 4.21.38 5.15-3 9.85-8 11.1a29.3 29.3 0 0 0-22.22 28.44 29.4 29.4 0 0 0 29.36 29.38h150a29.42 29.42 0 0 0 29.38-29.38 29.26 29.26 0 0 0-24.38-28.9z"/>
		<path fill="#808083" d="M263.1 328.69a46.23 46.23 0 0 0-46.14-44.38c-2.62 0-5.23.23-7.82.68a75.23 75.23 0 0 0-58.97-28.35c-40.88 0-74.28 32.6-75.58 73.15a50.52 50.52 0 0 0-30.05 46.22 50.7 50.7 0 0 0 50.62 50.64h150a50.7 50.7 0 0 0 50.64-50.64 50.45 50.45 0 0 0-32.7-47.32zm-17.94 76.7h-150a29.4 29.4 0 0 1-29.36-29.38 29.3 29.3 0 0 1 22.21-28.44c5-1.25 8.38-5.98 8-11.13-.1-1.49-.2-2.9-.2-4.18a54.42 54.42 0 0 1 54.36-54.36c18.53 0 35.6 9.34 45.67 24.98a10.63 10.63 0 0 0 12.57 4.23 24.97 24.97 0 0 1 8.55-1.55 24.94 24.94 0 0 1 24.92 24.92c0 1.31-.14 2.74-.41 4.36a10.63 10.63 0 0 0 8.68 12.27 29.26 29.26 0 0 1 24.4 28.9 29.42 29.42 0 0 1-29.4 29.38z"/>
	</symbol>
	<symbol id="03d" viewBox="0 0 500 500" xml:space="preserve">
		<path fill="var(--wh)" d="M299 183.9a83.7 83.7 0 0 0 0 167.1 83.7 83.7 0 0 0 0-167.1z"/>
		<path fill="url(#sunCore)" stroke="url(#sunCore)" d="M300 351a84.6 84.6 0 1 1 .2-169.2A84.6 84.6 0 0 1 300 351z"/>
		<path fill="url(#sunRays)" d="M299 162.8a104.8 104.8 0 0 0 0 209.4 104.8 104.8 0 0 0 0-209.4zm0 188.2a83.7 83.7 0 0 1 0-167.1 83.7 83.7 0 0 1 0 167.1zm189.8-73h-56.7a10.6 10.6 0 0 1 0-21.1h56.7a10.6 10.6 0 0 1 0 21.1zm-322.1 0h-56.8a10.6 10.6 0 0 1 0-21.1h56.8a10.6 10.6 0 0 1 0 21.1zm132.7-132.7a10.6 10.6 0 0 1-10.6-10.5V78a10.6 10.6 0 0 1 21.1 0v56.8c0 5.8-4.7 10.5-10.5 10.5zm93.7 38.6a10.6 10.6 0 0 1-7.5-18l31-31a10.6 10.6 0 0 1 15 15l-31 31a10.5 10.5 0 0 1-7.5 3zm31.4 219.6c-2.7 0-5.4-1-7.5-3l-31.7-31.9a10.6 10.6 0 1 1 14.9-14.9l31.8 31.8a10.6 10.6 0 0 1-7.5 18zM205 184c-2.7 0-5.4-1-7.5-3l-31.3-31.4a10.6 10.6 0 1 1 14.9-15l31.3 31.4a10.6 10.6 0 0 1-7.4 18zm-31.4 219.6a10.6 10.6 0 0 1-7.4-18l31.8-31.8a10.6 10.6 0 0 1 15 15L181 400.3a10.5 10.5 0 0 1-7.5 3.1z"/>
		<path fill="url(#lightCloud)" d="M304 411.3H73a51 51 0 0 1-51-51 50.9 50.9 0 0 1 38.5-49.5c5-1.2 8.4-6 8-11l-.3-7a89.6 89.6 0 0 1 89.5-89.5 89.2 89.2 0 0 1 75.3 41.1 10.6 10.6 0 0 0 12.5 4.3 44.2 44.2 0 0 1 15.2-2.8 44.2 44.2 0 0 1 44.1 44.2c0 2.3-.2 4.9-.7 7.7a10.6 10.6 0 0 0 8.7 12.2 50.8 50.8 0 0 1 42.4 50.2 51 51 0 0 1-51 51z"/>
	</symbol>
	<symbol id="03n" viewBox="0 0 500 500" xml:space="preserve">
		<path fill="url(#moon)" d="M289.52 122.38c0-8.07.63-16.1 1.86-24.03-48.02 21.08-80.22 69.21-80.22 122.75 0 73.88 60.1 133.98 133.98 133.98 52.98 0 100.9-31.75 122.25-79.1a156.39 156.39 0 0 1-22.63 1.64c-85.6 0-155.24-69.64-155.24-155.24z"/>
		<path fill="#EAC618" d="M481.12 251.37c-11.78 3.31-24 5-36.35 5-73.88 0-133.98-60.11-133.98-134 0-12.74 1.8-25.37 5.33-37.52l5.36-18.39-18.44 5.19A156.29 156.29 0 0 0 222 126.57a153.8 153.8 0 0 0-32.09 94.53c0 85.6 69.64 155.25 155.24 155.25 34.27 0 66.77-10.96 93.97-31.68a156.4 156.4 0 0 0 55.09-80.1l5.35-18.39-18.44 5.19zM345.15 355.08c-73.88 0-133.98-60.1-133.98-133.98 0-53.54 32.2-101.67 80.21-122.75a156.33 156.33 0 0 0-1.85 24.03c0 85.6 69.64 155.24 155.24 155.24 7.6 0 15.16-.55 22.63-1.64-21.36 47.36-69.28 79.1-122.25 79.1z"/>
		<path fill="#D6D6D8" d="M303.85 412.28H72.69c-28.11 0-51-22.9-51-51.03a50.9 50.9 0 0 1 38.58-49.4c5.01-1.25 8.39-5.98 8.01-11.13-.18-2.42-.34-4.7-.34-6.9 0-49.36 40.16-89.51 89.52-89.51a89.16 89.16 0 0 1 75.23 41.13 10.63 10.63 0 0 0 12.57 4.23 44.17 44.17 0 0 1 15.14-2.73 44.2 44.2 0 0 1 44.15 44.14c0 2.36-.24 4.88-.72 7.7a10.63 10.63 0 0 0 8.69 12.26 50.82 50.82 0 0 1 42.36 50.2 51.09 51.09 0 0 1-51.03 51.04z"/>
		<path fill="#808083" d="M325.79 292.44l.01-1.35a65.48 65.48 0 0 0-65.4-65.4c-4.83 0-9.66.55-14.43 1.64a110.24 110.24 0 0 0-88.5-44.28c-61.1 0-110.79 49.7-110.79 110.78v.07A72.1 72.1 0 0 0 .44 361.25c0 39.86 32.41 72.29 72.26 72.29h231.15c39.86 0 72.3-32.43 72.3-72.3a72 72 0 0 0-50.36-68.8zm-21.94 119.84H72.69c-28.12 0-51-22.9-51-51.03a50.9 50.9 0 0 1 38.58-49.4c5.01-1.25 8.39-5.97 8.01-11.13-.18-2.41-.34-4.7-.34-6.9 0-49.35 40.15-89.5 89.52-89.5a89.16 89.16 0 0 1 75.22 41.12 10.63 10.63 0 0 0 12.58 4.24 44.17 44.17 0 0 1 15.13-2.74 44.2 44.2 0 0 1 44.15 44.15c0 2.35-.23 4.87-.71 7.7a10.63 10.63 0 0 0 8.69 12.26 50.82 50.82 0 0 1 42.36 50.2 51.09 51.09 0 0 1-51.03 51.03z"/>
	</symbol>
	<symbol id="04d" viewBox="0 0 500 500" xml:space="preserve">
		<path fill="--wh" d="M374.2 252.8a10.6 10.6 0 0 1-8.7-12.3c.5-2.8.8-5.3.8-7.7a44.2 44.2 0 0 0-44.2-44.1c-5 0-10.1.9-15.1 2.7a10.6 10.6 0 0 1-12.6-4.2 89.2 89.2 0 0 0-75.2-41.2 89.6 89.6 0 0 0-89.2 96.4c.4 5.2-3 9.9-8 11.2A50.9 50.9 0 0 0 83.4 303a51 51 0 0 0 51 51h231.2a51 51 0 0 0 51-51c0-25-17.8-46-42.4-50.2z"/>
		<g fill="url(#lightCloud)" stroke="url(#lightCloud)">
			<path d="M387.5 234.1v-1.3a65.5 65.5 0 0 0-65.4-65.4c-4.8 0-9.7.5-14.4 1.6a110.2 110.2 0 0 0-88.5-44.2c-61.1 0-110.8 49.6-110.8 110.7v.1A72.1 72.1 0 0 0 62 303a72.4 72.4 0 0 0 72.3 72.4h231.2a72.4 72.4 0 0 0 72.3-72.4 72 72 0 0 0-50.4-68.8zm-22 119.9H134.5a51 51 0 0 1-51-51 50.9 50.9 0 0 1 38.6-49.4c5-1.3 8.4-6 8-11.2l-.3-6.9a89.6 89.6 0 0 1 89.5-89.5 89.2 89.2 0 0 1 75.2 41.1 10.6 10.6 0 0 0 12.6 4.3 44.2 44.2 0 0 1 15.1-2.8 44.2 44.2 0 0 1 44.1 44.2c0 2.3-.2 4.9-.7 7.7a10.6 10.6 0 0 0 8.7 12.3 50.8 50.8 0 0 1 42.4 50.2 51 51 0 0 1-51 51z"/>
			<path d="M365.6 354H134.4a51 51 0 0 1-51-51 50.9 50.9 0 0 1 38.6-49.4c5-1.3 8.4-6 8-11.2l-.3-6.9a89.6 89.6 0 0 1 89.5-89.5 89.2 89.2 0 0 1 75.2 41.1 10.6 10.6 0 0 0 12.6 4.3 44.2 44.2 0 0 1 15.1-2.8 44.2 44.2 0 0 1 44.1 44.2c0 2.3-.2 4.9-.7 7.7a10.6 10.6 0 0 0 8.7 12.2 50.8 50.8 0 0 1 42.4 50.2 51 51 0 0 1-51 51z"/>
		</g>
	</symbol>
	<symbol id="04n" viewBox="0 0 500 500" xml:space="preserve">
		<path fill="#FFEEB6" d="M290 122l1-24a134 134 0 1 0 176 178 156 156 0 0 1-22 2c-86 0-155-70-155-156z"/>
		<path fill="#EAC618" d="M481 251A134 134 0 0 1 316 85l5-19-18 6a156 156 0 0 0-81 55 154 154 0 0 0-32 94 155 155 0 0 0 249 124 156 156 0 0 0 55-80l6-19-19 5zM345 355a134 134 0 0 1-54-257 156 156 0 0 0-1 24 155 155 0 0 0 177 154c-21 47-69 79-122 79z"/>
		<path fill="#D6D6D8" d="M304 412H73c-28 0-51-23-51-51a51 51 0 0 1 38-49c5-1 9-6 8-11v-7c0-50 40-90 89-90a89 89 0 0 1 76 41 11 11 0 0 0 12 5 44 44 0 0 1 15-3 44 44 0 0 1 45 44l-1 8a11 11 0 0 0 9 12 51 51 0 0 1 42 50 51 51 0 0 1-51 51z"/>
		<path fill="#808083" d="M326 292v-1a65 65 0 0 0-66-65l-14 1a110 110 0 0 0-89-44c-61 0-110 50-110 111a72 72 0 0 0-47 67c0 40 33 73 73 73h231c40 0 72-33 72-73a72 72 0 0 0-50-69zm-22 120H73c-28 0-51-23-51-51a51 51 0 0 1 38-49c5-1 9-6 8-11v-7c0-50 40-90 89-90a89 89 0 0 1 76 41 11 11 0 0 0 12 5 44 44 0 0 1 15-3 44 44 0 0 1 45 44l-1 8a11 11 0 0 0 9 12 51 51 0 0 1 42 50 51 51 0 0 1-51 51z"/>
	</symbol>
	<symbol id="09d" viewBox="0 0 500 500" xml:space="preserve">
		<path fill="var(--dB)" d="M128 427a13 13 0 0 1-10-21l37-45a13 13 0 1 1 20 17l-37 45a13 13 0 0 1-10 4zm104 0a13 13 0 0 1-10-21l37-45a13 13 0 1 1 20 17l-37 45a13 13 0 0 1-10 4zm103 0a13 13 0 0 1-10-21l37-45a13 13 0 1 1 20 17l-37 45a13 13 0 0 1-10 4z"/>
		<g fill="url(#darkCloud)" stroke="url(#darkCloud)">
			<path d="M366 315H134c-28 0-51-23-51-51a51 51 0 0 1 39-49c5-1 8-6 8-11v-7c0-49 40-90 89-90a89 89 0 0 1 75 42 11 11 0 0 0 13 4 44 44 0 0 1 15-3 44 44 0 0 1 44 44v8a11 11 0 0 0 8 12 51 51 0 0 1 43 50 51 51 0 0 1-51 51z"/>
			<path d="M388 196v-2a65 65 0 0 0-66-65l-14 1a110 110 0 0 0-89-44c-61 0-111 50-111 111a72 72 0 0 0-46 67c0 40 33 73 72 73h232c39 0 72-33 72-73a72 72 0 0 0-51-68zm-22 119H134c-28 0-51-23-51-51a51 51 0 0 1 39-49c5-1 8-6 8-11v-7c0-49 40-90 89-90a89 89 0 0 1 75 42 11 11 0 0 0 13 4 44 44 0 0 1 15-3 44 44 0 0 1 44 44v8a11 11 0 0 0 8 12 51 51 0 0 1 43 50 51 51 0 0 1-51 51z"/>
		</g>
	</symbol>
	<symbol id="09n" viewBox="0 0 500 500" xml:space="preserve">
		<path fill="#58A1D4" d="M128 427.34a13 13 0 0 1-10.02-21.3l37.13-44.88a13 13 0 1 1 20.05 16.59l-37.13 44.88a13 13 0 0 1-10.03 4.71zM232.04 427.34a13 13 0 0 1-10.02-21.3l37.13-44.88a13 13 0 1 1 20.04 16.59l-37.12 44.88a12.98 12.98 0 0 1-10.03 4.71zM334.85 427.34a13 13 0 0 1-10.01-21.3l37.13-44.88a13 13 0 1 1 20.04 16.6l-37.13 44.87a13 13 0 0 1-10.03 4.71z"/>
		<path fill="#CCC" d="M365.56 315.37H134.4c-28.12 0-51-22.9-51-51.03a50.9 50.9 0 0 1 38.58-49.4c5.01-1.25 8.39-5.98 8.01-11.13-.18-2.41-.34-4.7-.34-6.9 0-49.35 40.16-89.5 89.52-89.5a89.16 89.16 0 0 1 75.23 41.12 10.63 10.63 0 0 0 12.57 4.23 44.17 44.17 0 0 1 15.13-2.73 44.2 44.2 0 0 1 44.15 44.15c0 2.35-.23 4.87-.71 7.7a10.63 10.63 0 0 0 8.69 12.25 50.82 50.82 0 0 1 42.36 50.2 51.09 51.09 0 0 1-51.03 51.04z"/>
		<path fill="#808083" d="M387.5 195.53l.02-1.35a65.48 65.48 0 0 0-65.42-65.4c-4.82 0-9.64.55-14.42 1.64a110.24 110.24 0 0 0-88.51-44.28c-61.09 0-110.78 49.7-110.78 110.78v.07a72.1 72.1 0 0 0-46.24 67.35c0 39.86 32.41 72.29 72.25 72.29h231.16c39.86 0 72.3-32.43 72.3-72.29a72 72 0 0 0-50.36-68.81zm-21.94 119.84H134.4c-28.12 0-51-22.9-51-51.03a50.9 50.9 0 0 1 38.58-49.39c5.01-1.26 8.39-5.99 8.01-11.14-.18-2.41-.34-4.7-.34-6.9 0-49.35 40.16-89.5 89.52-89.5a89.16 89.16 0 0 1 75.23 41.12 10.62 10.62 0 0 0 12.57 4.24 44.2 44.2 0 0 1 15.13-2.74 44.2 44.2 0 0 1 44.15 44.15c0 2.36-.23 4.87-.71 7.7a10.63 10.63 0 0 0 8.69 12.26 50.82 50.82 0 0 1 42.36 50.2 51.09 51.09 0 0 1-51.03 51.03z"/>
	</symbol>
	<symbol id="10d" viewBox="0 0 500 500" xml:space="preserve">
		<path fill="var(--dB)" d="M66.86 484.44a13 13 0 0 1-10.02-21.3l37.12-44.87a13 13 0 1 1 20.05 16.58L76.9 479.73a12.99 12.99 0 0 1-10.03 4.71zm104.04 0a13 13 0 0 1-10.02-21.3L198 418.27a13 13 0 1 1 20.04 16.58l-37.12 44.88a12.98 12.98 0 0 1-10.03 4.71zm102.8 0a13 13 0 0 1-10.01-21.3l37.13-44.87a13 13 0 0 1 20.04 16.58l-37.13 44.88a12.98 12.98 0 0 1-10.03 4.71z"/>
		<path fill="url(#sunCore)" d="M299.4 312.85c-46.32 0-84-37.68-84-84s37.68-84 84-84c46.3 0 84 37.68 84 84s-37.69 84-84 84z"/>
		<path fill="url(#sunRays)" d="M299 124.17c-57.72 0-104.68 46.96-104.68 104.68 0 57.72 46.96 104.69 104.69 104.69 57.72 0 104.68-46.97 104.68-104.69s-46.96-104.68-104.68-104.68zm0 188.25c-46.08 0-83.57-37.49-83.57-83.57 0-46.08 37.5-83.57 83.58-83.57 46.07 0 83.56 37.5 83.56 83.57 0 46.08-37.49 83.57-83.56 83.57zm189.84-73.02h-56.75a10.56 10.56 0 0 1 0-21.1h56.75a10.56 10.56 0 0 1 0 21.1zm-322.14 0h-56.75a10.56 10.56 0 0 1 0-21.1h56.75a10.56 10.56 0 0 1 0 21.1zm132.7-132.69a10.56 10.56 0 0 1-10.57-10.56V39.41a10.56 10.56 0 0 1 21.12 0v56.74c0 5.83-4.72 10.56-10.55 10.56zm93.7 38.59a10.56 10.56 0 0 1-7.46-18.02l30.99-31a10.57 10.57 0 0 1 14.94 14.92l-31 31a10.52 10.52 0 0 1-7.46 3.1zm31.41 219.63c-2.7 0-5.4-1.03-7.46-3.1l-31.8-31.8a10.56 10.56 0 0 1 14.92-14.94l31.8 31.81a10.56 10.56 0 0 1-7.46 18.03zM204.88 145.3c-2.7 0-5.4-1.04-7.46-3.1l-31.34-31.34A10.56 10.56 0 1 1 181 95.93l31.34 31.34a10.56 10.56 0 0 1-7.47 18.02zm-31.34 219.62a10.57 10.57 0 0 1-7.47-18.03l31.81-31.8a10.56 10.56 0 0 1 14.93 14.93l-31.8 31.8a10.53 10.53 0 0 1-7.47 3.1z"/>
		<g fill="url(#darkCloud)" stroke="url(#darkCloud)">
			<path d="M304.02 373.12H72.86c-28.12 0-51-22.9-51-51.03a50.9 50.9 0 0 1 38.58-49.4c5-1.26 8.38-5.98 8-11.13a95.6 95.6 0 0 1-.34-6.9c0-49.36 40.16-89.51 89.53-89.51a89.16 89.16 0 0 1 75.22 41.13 10.63 10.63 0 0 0 12.58 4.23 44.17 44.17 0 0 1 15.13-2.73 44.2 44.2 0 0 1 44.15 44.14c0 2.36-.23 4.87-.71 7.7a10.63 10.63 0 0 0 8.68 12.26 50.82 50.82 0 0 1 42.37 50.2 51.09 51.09 0 0 1-51.03 51.04z"/>
			<path d="M325.79 253.27a65.49 65.49 0 0 0-65.4-66.76c-4.82 0-9.65.56-14.41 1.66a110.24 110.24 0 0 0-88.52-44.28c-61.08 0-110.78 49.69-110.78 110.77v.07A72.12 72.12 0 0 0 .44 322.08c0 39.87 32.41 72.3 72.26 72.3h231.15c39.86 0 72.3-32.43 72.3-72.3a72.02 72.02 0 0 0-50.36-68.8zm-21.94 119.85H72.69c-28.12 0-51-22.9-51-51.03a50.9 50.9 0 0 1 38.58-49.4 10.65 10.65 0 0 0 8-11.13c-.17-2.42-.34-4.7-.34-6.9 0-49.35 40.16-89.51 89.53-89.51a89.16 89.16 0 0 1 75.22 41.13 10.63 10.63 0 0 0 12.58 4.23 44.17 44.17 0 0 1 15.13-2.73 44.2 44.2 0 0 1 44.15 44.15c0 2.35-.23 4.87-.71 7.69a10.63 10.63 0 0 0 8.69 12.26 50.82 50.82 0 0 1 42.36 50.2 51.09 51.09 0 0 1-51.03 51.04z"/>
		</g>
	</symbol>
	<symbol id="10n" viewBox="0 0 500 500" xml:space="preserve">
		<path fill="url(#moon)" d="M289.52 83.22c0-8.07.63-16.1 1.86-24.03-48.01 21.08-80.21 69.21-80.21 122.75 0 73.88 60.1 133.99 133.98 133.99 52.97 0 100.9-31.75 122.24-79.11a156.27 156.27 0 0 1-22.62 1.64c-85.6 0-155.25-69.64-155.25-155.24z"/>
		<path fill="#EAC618" d="M481.12 212.2c-11.78 3.32-24 5-36.35 5-73.88 0-133.99-60.1-133.99-133.98 0-12.75 1.8-25.37 5.34-37.53l5.35-18.39-18.44 5.19A156.3 156.3 0 0 0 222 87.4a153.8 153.8 0 0 0-32.1 94.53c0 85.6 69.65 155.24 155.25 155.24 34.28 0 66.77-10.95 93.97-31.67a156.4 156.4 0 0 0 55.09-80.1l5.35-18.39-18.44 5.19zM345.15 315.94c-73.88 0-133.98-60.1-133.98-133.99 0-53.54 32.2-101.67 80.21-122.75a156.1 156.1 0 0 0-1.86 24.03c0 85.6 69.64 155.24 155.24 155.24 7.6 0 15.16-.55 22.63-1.64-21.35 47.36-69.27 79.1-122.24 79.1z"/>
		<path fill="#FFF" d="M312.52 271.89a10.63 10.63 0 0 1-8.69-12.27c.48-2.82.71-5.33.71-7.7a44.2 44.2 0 0 0-44.15-44.14 44.2 44.2 0 0 0-15.13 2.74 10.63 10.63 0 0 1-12.57-4.24 89.16 89.16 0 0 0-75.23-41.13c-49.36 0-89.52 40.16-89.52 89.52 0 2.2.16 4.48.34 6.9.38 5.15-3 9.87-8 11.13a50.9 50.9 0 0 0-38.58 49.39 51.07 51.07 0 0 0 51 51.03h231.15a51.09 51.09 0 0 0 51.03-51.03c0-24.9-17.82-46-42.36-50.2z"/>
		<path fill="#808083" d="M325.79 253.27l.01-1.34a65.48 65.48 0 0 0-65.4-65.41c-4.83 0-9.66.55-14.43 1.65a110.24 110.24 0 0 0-88.5-44.28c-61.1 0-110.8 49.7-110.8 110.77v.08A72.1 72.1 0 0 0 .45 322.1c0 39.86 32.41 72.29 72.26 72.29h231.15c39.86 0 72.3-32.43 72.3-72.3a72 72 0 0 0-50.36-68.8zm-21.94 119.85H72.69c-28.11 0-51-22.9-51-51.03a50.9 50.9 0 0 1 38.58-49.4c5.01-1.25 8.39-5.97 8.01-11.12a95.8 95.8 0 0 1-.34-6.9c0-49.36 40.16-89.52 89.52-89.52a89.16 89.16 0 0 1 75.23 41.13 10.63 10.63 0 0 0 12.57 4.23 44.2 44.2 0 0 1 15.13-2.73 44.2 44.2 0 0 1 44.15 44.15c0 2.35-.23 4.87-.71 7.7a10.63 10.63 0 0 0 8.69 12.26 50.82 50.82 0 0 1 42.36 50.2 51.09 51.09 0 0 1-51.03 51.03z"/>
		<path fill="#58A1D4" d="M88.08 472.7a10.63 10.63 0 0 1-8.19-17.4l30.34-36.67a10.63 10.63 0 1 1 16.38 13.55l-30.34 36.67a10.6 10.6 0 0 1-8.2 3.85zM173.08 472.7a10.63 10.63 0 0 1-8.19-17.4l30.34-36.67a10.63 10.63 0 1 1 16.38 13.55l-30.33 36.67a10.6 10.6 0 0 1-8.2 3.85zM257.09 472.7a10.63 10.63 0 0 1-8.18-17.4l30.33-36.67a10.63 10.63 0 0 1 16.38 13.55l-30.34 36.67a10.6 10.6 0 0 1-8.2 3.85z"/>
	</symbol>
	<symbol id="11d" viewBox="0 0 500 500" xml:space="preserve">
		<path fill="url(#sunCore)" d="M298.31 300.46c-46.87 0-85-38.13-85-85s38.14-85 85-85c46.87 0 85 38.13 85 85s-38.13 85-85 85z"/>
		<path fill="url(#sunRays)" d="M298.32 110.06c-58.13 0-105.41 47.29-105.41 105.4 0 58.12 47.28 105.4 105.4 105.4 58.12 0 105.4-47.28 105.4-105.4 0-58.11-47.27-105.4-105.4-105.4zm0 189.55c-46.4 0-84.15-37.75-84.15-84.15 0-46.4 37.75-84.14 84.15-84.14 46.4 0 84.14 37.74 84.14 84.14s-37.75 84.15-84.14 84.15zm-.02-207.53a10.63 10.63 0 0 1-10.62-10.63v-58.2a10.63 10.63 0 1 1 21.26 0v58.2c0 5.87-4.76 10.63-10.63 10.63zM489.45 226.1h-57.13a10.63 10.63 0 1 1 0-21.27h57.13a10.63 10.63 0 0 1 0 21.26zm-96.39-94.77a10.64 10.64 0 0 1-7.52-18.14l31.21-31.21A10.63 10.63 0 0 1 431.78 97l-31.2 31.2a10.58 10.58 0 0 1-7.52 3.12zm31.62 221.15c-2.72 0-5.43-1.04-7.51-3.11l-32.02-32.03a10.64 10.64 0 0 1 15.03-15.03l32.02 32.02a10.64 10.64 0 0 1-7.52 18.15zM203.55 131.33a10.6 10.6 0 0 1-7.52-3.11l-31.55-31.56a10.63 10.63 0 0 1 15.03-15.03l31.55 31.56a10.63 10.63 0 0 1-7.51 18.14z"/>
		<g id="cloud">
			<g fill="url(#darkCloud)" stroke="url(#darkCloud)">
				<path d="M303.33 359.28H72.17c-28.11 0-51-22.9-51-51.03a50.9 50.9 0 0 1 38.58-49.4 10.67 10.67 0 0 0 8.01-11.13c-.18-2.42-.34-4.7-.34-6.9 0-49.35 40.16-89.51 89.52-89.51a89.16 89.16 0 0 1 75.23 41.13 10.63 10.63 0 0 0 12.57 4.23 44.2 44.2 0 0 1 15.13-2.73 44.2 44.2 0 0 1 44.15 44.14c0 2.36-.23 4.88-.71 7.7a10.63 10.63 0 0 0 8.69 12.26 50.82 50.82 0 0 1 42.36 50.2 51.09 51.09 0 0 1-51.03 51.04z"/>
				<path d="M325.27 239.44l.02-1.35a65.49 65.49 0 0 0-65.41-65.4c-4.83 0-9.66.55-14.42 1.64a110.24 110.24 0 0 0-88.52-44.28c-61.08 0-110.78 49.7-110.78 110.78v.07A72.1 72.1 0 0 0-.08 308.25c0 39.86 32.41 72.3 72.25 72.3h231.16c39.86 0 72.3-32.44 72.3-72.3a72.01 72.01 0 0 0-50.36-68.81zm-21.94 119.84H72.17c-28.12 0-51-22.9-51-51.03a50.9 50.9 0 0 1 38.58-49.4 10.67 10.67 0 0 0 8.01-11.13 95.7 95.7 0 0 1-.34-6.9c0-49.35 40.16-89.5 89.52-89.5a89.16 89.16 0 0 1 75.23 41.12 10.63 10.63 0 0 0 12.57 4.23 44.18 44.18 0 0 1 15.13-2.73 44.2 44.2 0 0 1 44.15 44.15c0 2.35-.23 4.87-.71 7.7a10.63 10.63 0 0 0 8.69 12.26 50.82 50.82 0 0 1 42.36 50.2 51.09 51.09 0 0 1-51.03 51.03z"/>
			</g>
			<path fill="var(--dB)" d="M65.77 471.06a13 13 0 0 1-10.02-21.3l37.13-44.88a13 13 0 1 1 20.05 16.59L75.8 466.35a13 13 0 0 1-10.03 4.7zm206.85 0a13 13 0 0 1-10.01-21.3l37.13-44.88a13 13 0 1 1 20.04 16.59l-37.13 44.88a13 13 0 0 1-10.03 4.7z"/>
			<path fill="var(--dY)" d="M230.77 388.93h-31.12c-14.69 16.38-38.12 44.06-38.3 44.06h24.02l-44.6 66.07 82.76-76.16h-21.45l28.69-33.97z"/>
		</g>
	</symbol>
	<symbol id="11n" viewBox="0 0 500 500" xml:space="preserve">
		<path fill="url(#moon)" d="M289.52 68.66c0-8.07.63-16.1 1.86-24.03-48.02 21.08-80.22 69.21-80.22 122.76 0 73.87 60.1 133.98 133.98 133.98 52.97 0 100.9-31.75 122.25-79.1a156.24 156.24 0 0 1-22.63 1.63c-85.6 0-155.24-69.64-155.24-155.24z"/>
		<path fill="#EAC618" d="M481.12 197.65c-11.78 3.31-24 5-36.35 5-73.88 0-133.98-60.11-133.98-133.99 0-12.74 1.8-25.37 5.33-37.53l5.35-18.39-18.43 5.19A156.3 156.3 0 0 0 222 72.86c-21 27.3-32.1 60-32.1 94.52 0 85.6 69.65 155.24 155.25 155.24 34.27 0 66.77-10.95 93.97-31.67a156.4 156.4 0 0 0 55.09-80.1l5.35-18.39-18.44 5.19zM345.15 301.37c-73.88 0-133.98-60.1-133.98-133.99 0-53.54 32.2-101.67 80.21-122.75a156.21 156.21 0 0 0-1.86 24.03c0 85.6 69.65 155.24 155.24 155.24 7.6 0 15.16-.55 22.63-1.64-21.35 47.36-69.27 79.1-122.24 79.1z"/>
		<path fill="#FCC013" d="M231.3 388.34h-31.13c-14.68 16.38-38.11 44.06-38.3 44.06h24.02l-44.6 66.06 82.76-76.15H202.6l28.7-33.97z"/>
		<path fill="#58A1D4" d="M66.3 470.46a13 13 0 0 1-10.02-21.3l37.13-44.87a13 13 0 1 1 20.04 16.58l-37.12 44.88a13 13 0 0 1-10.03 4.71zM273.14 470.46a13 13 0 0 1-10.01-21.3l37.13-44.87a13 13 0 1 1 20.05 16.58l-37.13 44.88a13 13 0 0 1-10.04 4.71z"/>
		<path fill="#CCC" d="M303.85 358.56H72.7c-28.12 0-51-22.9-51-51.03a50.9 50.9 0 0 1 38.58-49.4c5-1.25 8.38-5.97 8-11.13-.17-2.41-.34-4.7-.34-6.9 0-49.35 40.16-89.5 89.52-89.5a89.16 89.16 0 0 1 75.23 41.12 10.63 10.63 0 0 0 12.57 4.23 44.17 44.17 0 0 1 15.14-2.73 44.2 44.2 0 0 1 44.15 44.15c0 2.35-.23 4.87-.72 7.7a10.63 10.63 0 0 0 8.69 12.25 50.82 50.82 0 0 1 42.37 50.2 51.09 51.09 0 0 1-51.04 51.04z"/>
		<path fill="#808083" d="M325.79 238.72l.01-1.35a65.48 65.48 0 0 0-65.4-65.4c-4.83 0-9.65.55-14.42 1.64a110.24 110.24 0 0 0-88.52-44.28c-61.08 0-110.78 49.7-110.78 110.78v.07A72.1 72.1 0 0 0 .44 307.53c0 39.86 32.41 72.29 72.26 72.29h231.15c39.86 0 72.3-32.43 72.3-72.3a72.01 72.01 0 0 0-50.36-68.8zm-21.94 119.84H72.69c-28.11 0-51-22.9-51-51.03a50.9 50.9 0 0 1 38.58-49.4c5.01-1.25 8.39-5.97 8.01-11.12-.17-2.42-.34-4.7-.34-6.9 0-49.36 40.16-89.52 89.52-89.52a89.16 89.16 0 0 1 75.23 41.13 10.63 10.63 0 0 0 12.57 4.24 44.2 44.2 0 0 1 15.13-2.74 44.2 44.2 0 0 1 44.15 44.15c0 2.36-.23 4.87-.71 7.7a10.63 10.63 0 0 0 8.69 12.26 50.82 50.82 0 0 1 42.36 50.2 51.09 51.09 0 0 1-51.03 51.03z"/>
	</symbol>
	<symbol id="13d" viewBox="0 0 500 500" xml:space="preserve">
		<path fill="url(#sunCore)" d="M298.31 287.34c-46.6 0-84.5-37.9-84.5-84.5 0-46.59 37.91-84.5 84.5-84.5 46.6 0 84.5 37.91 84.5 84.5 0 46.6-37.9 84.5-84.5 84.5z"/>
		<path fill="url(#sunRays)" d="M298.32 97.44c-58.13 0-105.41 47.29-105.41 105.4 0 58.13 47.28 105.4 105.4 105.4 58.12 0 105.4-47.28 105.4-105.4 0-58.11-47.27-105.4-105.4-105.4zm0 189.55c-46.4 0-84.15-37.75-84.15-84.15 0-46.4 37.75-84.14 84.15-84.14 46.4 0 84.14 37.75 84.14 84.14 0 46.4-37.75 84.15-84.14 84.15zm-.02-207.53a10.63 10.63 0 0 1-10.62-10.63v-58.2a10.63 10.63 0 1 1 21.26 0v58.2c0 5.87-4.76 10.63-10.63 10.63zm191.15 134.01h-57.13a10.63 10.63 0 1 1 0-21.26h57.13a10.63 10.63 0 0 1 0 21.26zm-96.39-94.76a10.64 10.64 0 0 1-7.52-18.14l31.21-31.21a10.63 10.63 0 0 1 15.03 15.03l-31.2 31.2a10.58 10.58 0 0 1-7.52 3.12zm31.62 221.15a10.6 10.6 0 0 1-7.51-3.11l-32.02-32.03a10.64 10.64 0 0 1 15.03-15.03l32.02 32.02a10.64 10.64 0 0 1-7.52 18.15zM203.55 118.71a10.6 10.6 0 0 1-7.52-3.11l-31.55-31.56a10.63 10.63 0 0 1 15.03-15.03l31.55 31.56a10.63 10.63 0 0 1-7.51 18.14z"/>
		<g fill="url(#lightCloud)" stroke="url(#lightCloud)">
			<path d="M325.27 226.82l.02-1.35a65.49 65.49 0 0 0-65.41-65.4c-4.83 0-9.66.55-14.42 1.64a110.24 110.24 0 0 0-88.52-44.28c-61.08 0-110.78 49.7-110.78 110.78v.07A72.11 72.11 0 0 0-.08 295.63c0 39.86 32.42 72.3 72.26 72.3h231.15c39.86 0 72.3-32.44 72.3-72.3a72.02 72.02 0 0 0-50.36-68.81zm-21.94 119.84H72.17c-28.12 0-51-22.9-51-51.03a50.9 50.9 0 0 1 38.58-49.4 10.66 10.66 0 0 0 8.01-11.13c-.18-2.41-.34-4.7-.34-6.9 0-49.35 40.16-89.5 89.52-89.5a89.16 89.16 0 0 1 75.23 41.12 10.63 10.63 0 0 0 12.57 4.24 44.18 44.18 0 0 1 15.13-2.74 44.2 44.2 0 0 1 44.15 44.15c0 2.35-.23 4.87-.71 7.7a10.63 10.63 0 0 0 8.69 12.26 50.82 50.82 0 0 1 42.36 50.2 51.09 51.09 0 0 1-51.03 51.03z"/>
			<path d="M303.33 346.66H72.18c-28.12 0-51-22.9-51-51.03a50.9 50.9 0 0 1 38.58-49.4c5-1.25 8.38-5.98 8-11.13-.17-2.41-.34-4.7-.34-6.9 0-49.35 40.16-89.5 89.52-89.5a89.16 89.16 0 0 1 75.23 41.12 10.63 10.63 0 0 0 12.57 4.24 44.17 44.17 0 0 1 15.14-2.74 44.2 44.2 0 0 1 44.15 44.15c0 2.35-.24 4.87-.72 7.7a10.63 10.63 0 0 0 8.69 12.26 50.82 50.82 0 0 1 42.36 50.2 51.09 51.09 0 0 1-51.03 51.03z"/>
			<path fill="var(--lB)" stroke="none" d="M226.75 457.44l-13.52-7.84 13.52-7.83a12.78 12.78 0 0 0 4.65-17.44 12.81 12.81 0 0 0-17.45-4.65l-13.41 7.77v-15.5a12.78 12.78 0 0 0-25.54 0v15.48l-13.4-7.77a12.75 12.75 0 1 0-12.8 22.08l13.51 7.84-13.52 7.83a12.78 12.78 0 0 0 6.41 23.82c2.24 0 4.44-.6 6.39-1.73l13.41-7.77v15.5a12.78 12.78 0 0 0 25.53 0v-15.48l13.4 7.77a12.77 12.77 0 1 0 12.81-22.08zM97.1 445.73l-13.52-7.84 13.52-7.83a12.78 12.78 0 0 0 4.65-17.45 12.81 12.81 0 0 0-17.45-4.64l-13.41 7.77v-15.51c0-7.04-5.73-12.77-12.77-12.77a12.78 12.78 0 0 0-12.77 12.77v15.48l-13.4-7.77a12.74 12.74 0 0 0-17.45 4.64 12.78 12.78 0 0 0 4.64 17.45l13.52 7.83-13.52 7.83a12.78 12.78 0 0 0 6.4 23.82c2.24 0 4.45-.6 6.4-1.72L45.35 460v15.5c0 7.05 5.73 12.78 12.77 12.78s12.77-5.73 12.77-12.77v-15.49l13.4 7.77a12.72 12.72 0 0 0 6.39 1.73c4.54 0 8.78-2.44 11.05-6.36a12.68 12.68 0 0 0 1.3-9.69 12.67 12.67 0 0 0-5.93-7.75zm259.3 0l-13.52-7.84 13.52-7.83a12.78 12.78 0 0 0-6.4-23.81c-2.24 0-4.44.6-6.4 1.72l-13.4 7.77v-15.51c0-7.04-5.73-12.77-12.77-12.77a12.78 12.78 0 0 0-12.77 12.77v15.48l-13.4-7.77a12.74 12.74 0 0 0-17.45 4.64 12.77 12.77 0 0 0 4.64 17.45l13.52 7.83-13.52 7.83a12.79 12.79 0 0 0 6.41 23.82c2.24 0 4.44-.6 6.39-1.72l13.41-7.78v15.5a12.78 12.78 0 0 0 25.53 0v-15.48l13.4 7.77a12.82 12.82 0 0 0 17.45-4.63 12.74 12.74 0 0 0-4.65-17.44z"/>
		</g>
	</symbol>
	<symbol id="13n" viewBox="0 0 500 500" xml:space="preserve">
		<path fill="#8FCDF0" d="M97.1 445.73l-13.52-7.84 13.52-7.83a12.78 12.78 0 0 0 4.65-17.45 12.81 12.81 0 0 0-17.45-4.64l-13.41 7.77v-15.51c0-7.04-5.73-12.77-12.77-12.77a12.78 12.78 0 0 0-12.77 12.77v15.48l-13.4-7.77a12.74 12.74 0 0 0-17.45 4.64 12.78 12.78 0 0 0 4.64 17.45l13.52 7.83-13.52 7.83a12.78 12.78 0 0 0 6.4 23.82c2.24 0 4.45-.6 6.4-1.72L45.35 460v15.5c0 7.05 5.73 12.78 12.77 12.78s12.77-5.73 12.77-12.77v-15.49l13.4 7.77a12.72 12.72 0 0 0 6.39 1.73c4.54 0 8.78-2.44 11.05-6.36a12.68 12.68 0 0 0 1.3-9.69 12.67 12.67 0 0 0-5.93-7.75zM226.75 457.44l-13.52-7.84 13.52-7.83a12.78 12.78 0 0 0 4.65-17.44 12.81 12.81 0 0 0-17.45-4.65l-13.41 7.77v-15.5a12.78 12.78 0 0 0-25.54 0v15.48l-13.4-7.77a12.75 12.75 0 1 0-12.8 22.08l13.51 7.84-13.52 7.83a12.78 12.78 0 0 0 6.41 23.82c2.24 0 4.44-.6 6.39-1.73l13.41-7.77v15.5a12.78 12.78 0 0 0 25.53 0v-15.48l13.4 7.77a12.77 12.77 0 1 0 12.81-22.08zM356.4 445.73l-13.52-7.84 13.52-7.83a12.78 12.78 0 0 0-6.4-23.81c-2.24 0-4.44.6-6.4 1.72l-13.4 7.77v-15.51c0-7.04-5.73-12.77-12.77-12.77a12.78 12.78 0 0 0-12.77 12.77v15.48l-13.4-7.77a12.74 12.74 0 0 0-17.45 4.64 12.77 12.77 0 0 0 4.64 17.45l13.52 7.83-13.52 7.83a12.79 12.79 0 0 0 6.41 23.82c2.24 0 4.44-.6 6.39-1.72l13.41-7.78v15.5a12.78 12.78 0 0 0 25.53 0v-15.48l13.4 7.77a12.82 12.82 0 0 0 17.45-4.63 12.74 12.74 0 0 0-4.65-17.44z"/>
		<path fill="#FFEEB6" d="M289.52 55.92c0-8.07.63-16.1 1.86-24.04-48.02 21.08-80.22 69.22-80.22 122.76 0 73.88 60.1 133.98 133.98 133.98 52.98 0 100.9-31.75 122.25-79.1a156.11 156.11 0 0 1-22.63 1.64c-85.6 0-155.24-69.64-155.24-155.24z"/>
		<path fill="#EAC618" d="M481.12 184.9c-11.78 3.32-24 5-36.35 5-73.88 0-133.98-60.1-133.98-133.98 0-12.75 1.8-25.37 5.33-37.53L321.48 0l-18.44 5.19A156.29 156.29 0 0 0 222 60.1c-21 27.31-32.09 60-32.09 94.53 0 85.6 69.64 155.24 155.24 155.24 34.27 0 66.77-10.95 93.98-31.67a156.41 156.41 0 0 0 55.08-80.1l5.35-18.4-18.44 5.2zM345.15 288.63c-73.88 0-133.98-60.1-133.98-133.98 0-53.54 32.2-101.68 80.21-122.75a156.21 156.21 0 0 0-1.86 24.03c0 85.6 69.65 155.24 155.24 155.24 7.6 0 15.16-.55 22.63-1.64-21.35 47.35-69.27 79.1-122.24 79.1z"/>
		<path fill="#F2F2F2" d="M303.85 345.82H72.69c-28.12 0-51-22.9-51-51.03a50.9 50.9 0 0 1 38.58-49.4c5.01-1.25 8.39-5.98 8.01-11.13a95.1 95.1 0 0 1-.34-6.9c0-49.36 40.16-89.51 89.52-89.51a89.16 89.16 0 0 1 75.22 41.13 10.63 10.63 0 0 0 12.58 4.23 44.17 44.17 0 0 1 15.13-2.73 44.2 44.2 0 0 1 44.15 44.14c0 2.36-.23 4.88-.71 7.7a10.63 10.63 0 0 0 8.69 12.26 50.82 50.82 0 0 1 42.36 50.2 51.09 51.09 0 0 1-51.03 51.04z"/>
		<path fill="#808083" d="M325.79 225.97l.01-1.34a65.48 65.48 0 0 0-65.4-65.41c-4.83 0-9.66.55-14.42 1.65a110.25 110.25 0 0 0-88.52-44.28c-61.08 0-110.78 49.7-110.78 110.77v.08A72.1 72.1 0 0 0 .44 294.79c0 39.85 32.41 72.29 72.25 72.29h231.16c39.86 0 72.3-32.44 72.3-72.3a72.01 72.01 0 0 0-50.36-68.8zm-21.94 119.85H72.69c-28.12 0-51-22.9-51-51.03a50.9 50.9 0 0 1 38.58-49.4c5.01-1.25 8.39-5.97 8.01-11.13a95.2 95.2 0 0 1-.34-6.9c0-49.35 40.16-89.51 89.52-89.51a89.16 89.16 0 0 1 75.22 41.13 10.63 10.63 0 0 0 12.58 4.23 44.23 44.23 0 0 1 15.13-2.73 44.2 44.2 0 0 1 44.15 44.15c0 2.35-.23 4.87-.71 7.7a10.63 10.63 0 0 0 8.69 12.25 50.82 50.82 0 0 1 42.36 50.2 51.09 51.09 0 0 1-51.03 51.04z"/>
	</symbol>
	<symbol id="50d" viewBox="0 0 500 500" xml:space="preserve">
		<g fill="url(#lightCloud)" stroke="url(#lightCloud)">
			<path d="M369.2 204.7a10.6 10.6 0 0 1-8.7-12.3c.5-2.8.8-5.3.8-7.7a44.2 44.2 0 0 0-44.2-44.1 44.2 44.2 0 0 0-15.1 2.7 10.6 10.6 0 0 1-12.6-4.3 89.2 89.2 0 0 0-75.2-41 89.6 89.6 0 0 0-89.2 96.3c.4 5.2-3 9.9-8 11.2a50.9 50.9 0 0 0-38.6 49.4 51 51 0 0 0 51 51h231.2a51 51 0 0 0 51-51c0-25-17.8-46-42.4-50.3z"/>
			<path d="M382.5 186v-1.3a65.5 65.5 0 0 0-65.4-65.4 64 64 0 0 0-14.4 1.6 110.2 110.2 0 0 0-88.5-44.2c-61.1 0-110.8 49.6-110.8 110.7v.1A72.1 72.1 0 0 0 57 254.8a72.4 72.4 0 0 0 72.3 72.3h231.2a72.4 72.4 0 0 0 72.3-72.3 72 72 0 0 0-50.4-68.8zm-22 119.9H129.5a51 51 0 0 1-51-51 50.9 50.9 0 0 1 38.6-49.4c5-1.3 8.4-6 8-11.2-.2-2.4-.4-4.7-.4-6.9A89.6 89.6 0 0 1 214.2 98a89.2 89.2 0 0 1 75.2 41.1 10.6 10.6 0 0 0 12.6 4.3 44.2 44.2 0 0 1 15.1-2.8 44.2 44.2 0 0 1 44.1 44.2c0 2.4-.2 4.9-.7 7.7a10.6 10.6 0 0 0 8.7 12.2 50.8 50.8 0 0 1 42.4 50.2 51 51 0 0 1-51 51z"/>
		</g>
		<path fill="var(--lG)" d="M367.8 423.4h-78.4a10.6 10.6 0 1 1 0-21.3h78.4a10.6 10.6 0 1 1 0 21.3zM172.3 162.9h-110a10.6 10.6 0 0 1 0-21.3h110a10.6 10.6 0 0 1 0 21.3zM442 272H285.2a10.6 10.6 0 1 1 0-21.2H442a10.6 10.6 0 1 1 0 21.2zM215 423.4H58a10.6 10.6 0 0 1 0-21.3h156.7a10.6 10.6 0 1 1 0 21.3zM378 369H98.4a10.6 10.6 0 0 1 0-21.3H378a10.6 10.6 0 0 1 0 21.3zm45.4-189.2H321a10.6 10.6 0 1 1 0-21.3h102.4a10.6 10.6 0 1 1 0 21.3z"/>
	</symbol>
	<symbol id="50n" viewBox="0 0 500 500" xml:space="preserve">
		<path fill="#808083" d="M382.5 186.04l.01-1.35a65.48 65.48 0 0 0-65.41-65.4c-4.83 0-9.65.55-14.42 1.65a110.24 110.24 0 0 0-88.52-44.28c-61.08 0-110.78 49.69-110.78 110.77v.07a72.1 72.1 0 0 0-46.24 67.35c0 39.86 32.42 72.3 72.26 72.3h231.16c39.86 0 72.29-32.44 72.29-72.3a72 72 0 0 0-50.36-68.81zm-21.94 119.84H129.4c-28.12 0-51-22.9-51-51.03a50.9 50.9 0 0 1 38.58-49.39c5-1.26 8.38-5.98 8-11.13-.17-2.42-.34-4.7-.34-6.9 0-49.36 40.16-89.52 89.52-89.52a89.16 89.16 0 0 1 75.23 41.13 10.63 10.63 0 0 0 12.57 4.24 44.2 44.2 0 0 1 15.14-2.74 44.2 44.2 0 0 1 44.15 44.15c0 2.36-.23 4.88-.71 7.7a10.63 10.63 0 0 0 8.68 12.26 50.82 50.82 0 0 1 42.37 50.2 51.09 51.09 0 0 1-51.03 51.03z"/>
		<path fill="#D6D6D8" d="M360.56 305.88H129.4c-28.12 0-51-22.89-51-51.03a50.9 50.9 0 0 1 38.58-49.39c5-1.26 8.38-5.99 8-11.14-.17-2.41-.34-4.7-.34-6.9 0-49.35 40.16-89.5 89.52-89.5a89.16 89.16 0 0 1 75.23 41.12 10.63 10.63 0 0 0 12.57 4.24 44.17 44.17 0 0 1 15.14-2.74 44.2 44.2 0 0 1 44.15 44.15c0 2.36-.23 4.87-.71 7.7a10.63 10.63 0 0 0 8.68 12.26 50.82 50.82 0 0 1 42.37 50.2 51.09 51.09 0 0 1-51.03 51.03z"/>
		<path fill="#A7A9AB" d="M367.8 423.35h-78.37a10.63 10.63 0 1 1 0-21.26h78.37a10.63 10.63 0 1 1 0 21.26zM172.35 162.91H62.3a10.63 10.63 0 0 1 0-21.26h110.03a10.63 10.63 0 0 1 0 21.26zM441.94 271.94H285.2a10.63 10.63 0 0 1 0-21.26h156.76a10.63 10.63 0 1 1 0 21.26zM214.81 423.35H58.06a10.63 10.63 0 0 1 0-21.26H214.8a10.63 10.63 0 1 1 0 21.26zM378.01 369H98.36a10.63 10.63 0 0 1 0-21.26H378a10.63 10.63 0 0 1 0 21.26zM423.42 179.76h-102.4a10.63 10.63 0 1 1 0-21.26h102.4a10.63 10.63 0 1 1 0 21.26z"/>
	</symbol>
	<symbol id="bf0" viewBox="0 0 120 120" xml:space="preserve"><g id="wrapp" data-name="wrapp" fill="var(--bf0)"><path stroke="var(--bfs)" stroke-miterlimit="10" d="M95.4 54.9a38.7 38.7 0 0 0 5.1-4.7A40.6 40.6 0 0 1 62 90.6zM54.9 24.6a38.7 38.7 0 0 0-4.7-5.1A40.6 40.6 0 0 1 90.6 58zM24.6 65.1a38.7 38.7 0 0 0-5.1 4.7A40.6 40.6 0 0 1 58 29.4zM65.1 95.4a38.7 38.7 0 0 0 4.7 5.1A40.6 40.6 0 0 1 29.4 62z"/><path d="M95.4 54.9a38.4 38.4 0 0 1-4.8 3.1c-1-17.9-16.3-31.5-35.7-33.4a38.4 38.4 0 0 1 3.1 4.8c-17.9 1-31.5 16.3-33.4 35.7a38.4 38.4 0 0 1 4.8-3.1c1 17.9 16.3 31.5 35.7 33.4a38.4 38.4 0 0 1-3.1-4.8c17.8-1 31.5-16.3 33.4-35.7z"/><path fill="var(--wh)" d="M60.6 80.7A30.7 30.7 0 0 0 82 71.4l-5.2.8a20.7 20.7 0 0 0 4.1-12.3v-.5A30.7 30.7 0 0 0 71.6 38a47.9 47.9 0 0 1 .8 5.2 20.7 20.7 0 0 0-12.3-4.1h-.5a30.7 30.7 0 0 0-21.4 9.2l5.2-.8a20.7 20.7 0 0 0-4.1 12.3v.5a30.7 30.7 0 0 0 9.2 21.4 47.9 47.9 0 0 1-.8-5.2A20.7 20.7 0 0 0 60 80.6z"/><path d="M68.6 59.9a8.6 8.6 0 1 0-8.6 8.6 8.6 8.6 0 0 0 8.6-8.6z"/><animateTransform attributeName="transform" type="rotate" from="0 60 60" to="360 60 60" begin="1s" dur="60s" repeatCount="indefinite"/></g></symbol>
	<symbol id="bf1" viewBox="0 0 120 120" xml:space="preserve">
		<g id="wrapp" data-name="wrapp">
			<g fill="var(--bf1)">
				<g stroke="var(--bfs)" stroke-miterlimit="10">
					<path d="M95.4,54.9a38.7,38.7,0,0,0,5.1-4.7A40.6,40.6,0,0,1,62,90.6Z"/>
					<path d="M54.9,24.6a38.7,38.7,0,0,0-4.7-5.1A40.6,40.6,0,0,1,90.6,58Z"/>
					<path d="M24.6,65.1a38.7,38.7,0,0,0-5.1,4.7A40.6,40.6,0,0,1,58,29.4Z"/>
					<path d="M65.1,95.4a38.7,38.7,0,0,0,4.7,5.1A40.6,40.6,0,0,1,29.4,62Z"/>
				</g>
				<path d="M95.4,54.9A38.4,38.4,0,0,1,90.6,58c-1-17.9-16.3-31.5-35.7-33.4A38.4,38.4,0,0,1,58,29.4c-17.9,1-31.5,16.3-33.4,35.7A38.4,38.4,0,0,1,29.4,62c1,17.9,16.3,31.5,35.7,33.4A38.4,38.4,0,0,1,62,90.6C79.8,89.6,93.5,74.3,95.4,54.9Z"/>
				<path fill="var(--wh)" d="M60.6,80.7A30.7,30.7,0,0,0,82,71.4l-5.2.8a20.7,20.7,0,0,0,4.1-12.3q0-.3,0-.5A30.7,30.7,0,0,0,71.6,38a47.9,47.9,0,0,1,.8,5.2,20.7,20.7,0,0,0-12.3-4.1h-.5a30.7,30.7,0,0,0-21.4,9.2l5.2-.8a20.7,20.7,0,0,0-4.1,12.3q0,.3,0,.5a30.7,30.7,0,0,0,9.2,21.4,47.9,47.9,0,0,1-.8-5.2,20.7,20.7,0,0,0,12.3,4.1Z"/>
				<path d="M68.6,59.9a8.6,8.6,0,1,0-8.6,8.6A8.6,8.6,0,0,0,68.6,59.9Z"/>
			</g>
			<animateTransform attributeName="transform" type="rotate" from="0 60 60" to="360 60 60" begin="1s" dur="15s" repeatCount="indefinite"/>
		</g>
	</symbol>
	<symbol id="bf2" viewBox="0 0 120 120" xml:space="preserve">
		<g id="wrapp" data-name="wrapp">
			<g fill="var(--bf2)">
				<g stroke="var(--bfs)" stroke-miterlimit="10">
					<path d="M95.4,54.9a38.7,38.7,0,0,0,5.1-4.7A40.6,40.6,0,0,1,62,90.6Z"/>
					<path d="M54.9,24.6a38.7,38.7,0,0,0-4.7-5.1A40.6,40.6,0,0,1,90.6,58Z"/>
					<path d="M24.6,65.1a38.7,38.7,0,0,0-5.1,4.7A40.6,40.6,0,0,1,58,29.4Z"/>
					<path d="M65.1,95.4a38.7,38.7,0,0,0,4.7,5.1A40.6,40.6,0,0,1,29.4,62Z"/>
				</g>
				<path d="M95.4,54.9A38.4,38.4,0,0,1,90.6,58c-1-17.9-16.3-31.5-35.7-33.4A38.4,38.4,0,0,1,58,29.4c-17.9,1-31.5,16.3-33.4,35.7A38.4,38.4,0,0,1,29.4,62c1,17.9,16.3,31.5,35.7,33.4A38.4,38.4,0,0,1,62,90.6C79.8,89.6,93.5,74.3,95.4,54.9Z"/>
				<path fill="var(--wh)" d="M60.6,80.7A30.7,30.7,0,0,0,82,71.4l-5.2.8a20.7,20.7,0,0,0,4.1-12.3q0-.3,0-.5A30.7,30.7,0,0,0,71.6,38a47.9,47.9,0,0,1,.8,5.2,20.7,20.7,0,0,0-12.3-4.1h-.5a30.7,30.7,0,0,0-21.4,9.2l5.2-.8a20.7,20.7,0,0,0-4.1,12.3q0,.3,0,.5a30.7,30.7,0,0,0,9.2,21.4,47.9,47.9,0,0,1-.8-5.2,20.7,20.7,0,0,0,12.3,4.1Z"/>
				<path d="M68.6,59.9a8.6,8.6,0,1,0-8.6,8.6A8.6,8.6,0,0,0,68.6,59.9Z"/>
			</g>
			<animateTransform attributeName="transform" type="rotate" from="0 60 60" to="360 60 60" begin="1s" dur="5s" repeatCount="indefinite"/>
		</g>
	</symbol>
	<symbol id="bf3" viewBox="0 0 120 120" xml:space="preserve">
		<g id="wrapp" data-name="wrapp">
			<g fill="var(--bf3)">
				<g stroke="var(--bfs)" stroke-miterlimit="10">
					<path d="M95.4,54.9a38.7,38.7,0,0,0,5.1-4.7A40.6,40.6,0,0,1,62,90.6Z"/>
					<path d="M54.9,24.6a38.7,38.7,0,0,0-4.7-5.1A40.6,40.6,0,0,1,90.6,58Z"/>
					<path d="M24.6,65.1a38.7,38.7,0,0,0-5.1,4.7A40.6,40.6,0,0,1,58,29.4Z"/>
					<path d="M65.1,95.4a38.7,38.7,0,0,0,4.7,5.1A40.6,40.6,0,0,1,29.4,62Z"/>
				</g>
				<path d="M95.4,54.9A38.4,38.4,0,0,1,90.6,58c-1-17.9-16.3-31.5-35.7-33.4A38.4,38.4,0,0,1,58,29.4c-17.9,1-31.5,16.3-33.4,35.7A38.4,38.4,0,0,1,29.4,62c1,17.9,16.3,31.5,35.7,33.4A38.4,38.4,0,0,1,62,90.6C79.8,89.6,93.5,74.3,95.4,54.9Z"/>
				<path fill="var(--wh)" d="M60.6,80.7A30.7,30.7,0,0,0,82,71.4l-5.2.8a20.7,20.7,0,0,0,4.1-12.3q0-.3,0-.5A30.7,30.7,0,0,0,71.6,38a47.9,47.9,0,0,1,.8,5.2,20.7,20.7,0,0,0-12.3-4.1h-.5a30.7,30.7,0,0,0-21.4,9.2l5.2-.8a20.7,20.7,0,0,0-4.1,12.3q0,.3,0,.5a30.7,30.7,0,0,0,9.2,21.4,47.9,47.9,0,0,1-.8-5.2,20.7,20.7,0,0,0,12.3,4.1Z"/>
				<path d="M68.6,59.9a8.6,8.6,0,1,0-8.6,8.6A8.6,8.6,0,0,0,68.6,59.9Z"/>
			</g>
			<animateTransform attributeName="transform" type="rotate" from="0 60 60" to="360 60 60" begin="1s" dur="3.1s" repeatCount="indefinite"/>
		</g>
	</symbol>
	<symbol id="bf4" viewBox="0 0 120 120" xml:space="preserve">
		<g id="wrapp" data-name="wrapp">
			<g fill="var(--bf4)">
				<g stroke="var(--bfs)" stroke-miterlimit="10">
					<path d="M95.4,54.9a38.7,38.7,0,0,0,5.1-4.7A40.6,40.6,0,0,1,62,90.6Z"/>
					<path d="M54.9,24.6a38.7,38.7,0,0,0-4.7-5.1A40.6,40.6,0,0,1,90.6,58Z"/>
					<path d="M24.6,65.1a38.7,38.7,0,0,0-5.1,4.7A40.6,40.6,0,0,1,58,29.4Z"/>
					<path d="M65.1,95.4a38.7,38.7,0,0,0,4.7,5.1A40.6,40.6,0,0,1,29.4,62Z"/>
				</g>
				<path d="M95.4,54.9A38.4,38.4,0,0,1,90.6,58c-1-17.9-16.3-31.5-35.7-33.4A38.4,38.4,0,0,1,58,29.4c-17.9,1-31.5,16.3-33.4,35.7A38.4,38.4,0,0,1,29.4,62c1,17.9,16.3,31.5,35.7,33.4A38.4,38.4,0,0,1,62,90.6C79.8,89.6,93.5,74.3,95.4,54.9Z"/>
				<path fill="var(--wh)" d="M60.6,80.7A30.7,30.7,0,0,0,82,71.4l-5.2.8a20.7,20.7,0,0,0,4.1-12.3q0-.3,0-.5A30.7,30.7,0,0,0,71.6,38a47.9,47.9,0,0,1,.8,5.2,20.7,20.7,0,0,0-12.3-4.1h-.5a30.7,30.7,0,0,0-21.4,9.2l5.2-.8a20.7,20.7,0,0,0-4.1,12.3q0,.3,0,.5a30.7,30.7,0,0,0,9.2,21.4,47.9,47.9,0,0,1-.8-5.2,20.7,20.7,0,0,0,12.3,4.1Z"/>
				<path d="M68.6,59.9a8.6,8.6,0,1,0-8.6,8.6A8.6,8.6,0,0,0,68.6,59.9Z"/>
			</g>
			<animateTransform attributeName="transform" type="rotate" from="0 60 60" to="360 60 60" begin="1s" dur="2s" repeatCount="indefinite"/>
		</g>
	</symbol>
	<symbol id="bf5" viewBox="0 0 120 120" xml:space="preserve">
		<g id="wrapp" data-name="wrapp">
			<g fill="var(--bf5)">
				<g stroke="var(--bfs)" stroke-miterlimit="10">
					<path d="M95.4,54.9a38.7,38.7,0,0,0,5.1-4.7A40.6,40.6,0,0,1,62,90.6Z"/>
					<path d="M54.9,24.6a38.7,38.7,0,0,0-4.7-5.1A40.6,40.6,0,0,1,90.6,58Z"/>
					<path d="M24.6,65.1a38.7,38.7,0,0,0-5.1,4.7A40.6,40.6,0,0,1,58,29.4Z"/>
					<path d="M65.1,95.4a38.7,38.7,0,0,0,4.7,5.1A40.6,40.6,0,0,1,29.4,62Z"/>
				</g>
				<path d="M95.4,54.9A38.4,38.4,0,0,1,90.6,58c-1-17.9-16.3-31.5-35.7-33.4A38.4,38.4,0,0,1,58,29.4c-17.9,1-31.5,16.3-33.4,35.7A38.4,38.4,0,0,1,29.4,62c1,17.9,16.3,31.5,35.7,33.4A38.4,38.4,0,0,1,62,90.6C79.8,89.6,93.5,74.3,95.4,54.9Z"/>
				<path fill="var(--wh)" d="M60.6,80.7A30.7,30.7,0,0,0,82,71.4l-5.2.8a20.7,20.7,0,0,0,4.1-12.3q0-.3,0-.5A30.7,30.7,0,0,0,71.6,38a47.9,47.9,0,0,1,.8,5.2,20.7,20.7,0,0,0-12.3-4.1h-.5a30.7,30.7,0,0,0-21.4,9.2l5.2-.8a20.7,20.7,0,0,0-4.1,12.3q0,.3,0,.5a30.7,30.7,0,0,0,9.2,21.4,47.9,47.9,0,0,1-.8-5.2,20.7,20.7,0,0,0,12.3,4.1Z"/>
				<path d="M68.6,59.9a8.6,8.6,0,1,0-8.6,8.6A8.6,8.6,0,0,0,68.6,59.9Z"/>
			</g>
			<animateTransform attributeName="transform" type="rotate" from="0 60 60" to="360 60 60" begin="1s" dur="1s" repeatCount="indefinite"/>
		</g>
	</symbol>
	<symbol id="sunrise" viewBox="0 0 500 500" xml:space="preserve">
		<g fill="var(--lY)">
			<path d="M215.44,305.85h23.82l5.43-5.2a7.65,7.65,0,0,1,10.61,0l5.43,5.2h23.82c0-3.75,2.42-7.5,7.25-7.5h28.36a81.5,81.5,0,0,0-54.33-121.91c-33.28-6.74-68.23,8.91-85.76,37.86a82.85,82.85,0,0,0-.52,84.06H208.2C213,298.35,215.44,302.1,215.44,305.85Z"/>
		</g>
		<g fill="url(#bkgrd)" stroke="url(#bkgrd)">
			<g id="rays">
				<path d="M257.5,131.84V98.18c0-9.65-15-9.67-15,0v33.65C242.5,141.49,257.5,141.5,257.5,131.84ZM250,98.18v0Z"/>
				<path d="M194,144.78l-16.83-29.15c-4.83-8.36-17.79-.81-13,7.57l16.83,29.15C185.92,160.71,198.89,153.16,194,144.78Zm-6.48,3.79-16.83-29.15Z"/>
				<path d="M108.94,183.91l29.15,16.83c8.38,4.84,15.94-8.12,7.57-13L116.51,171C108.14,166.13,100.57,179.08,108.94,183.91Zm3.79-6.48,29.15,16.83Z"/>
				<path d="M91.49,264.19h33.65c9.65,0,9.67-15,0-15H91.49C81.84,249.19,81.82,264.19,91.49,264.19Zm0-7.5h0Z"/>
				<path d="M408.51,249.19H374.86c-9.65,0-9.67,15,0,15h33.65C418.16,264.19,418.18,249.19,408.51,249.19Zm-33.65,7.5h0Z"/>
				<path d="M361.91,200.74l29.15-16.83c8.36-4.83.81-17.79-7.57-13l-29.15,16.83C346,192.61,353.53,205.58,361.91,200.74Zm25.36-23.3-29.15,16.83Z"/>
				<path d="M318.9,152.35l16.83-29.15c4.84-8.37-8.12-15.94-13-7.57L306,144.78C301.12,153.15,314.07,160.72,318.9,152.35Zm10.35-32.93-16.83,29.15Z"/>
			</g>
			<g id="sunoutline">
				<path d="M180.07,214.3c17.54-28.95,52.48-44.6,85.76-37.86a82.68,82.68,0,0,1,65.94,80.25c.07-9.66,15.07-9.65,15,0a98,98,0,0,0-64-91.07C245,151.8,200.82,164,175.45,195.05c-23.69,29-28.74,69.75-12.79,103.3h16.88A82.85,82.85,0,0,1,180.07,214.3Z"/>
				<path d="M331.77,256.69c.07,9.65,15.07,9.67,15,0S331.84,247,331.77,256.69Z"/>
				<path d="M331.77,256.69a83.48,83.48,0,0,1-11.6,41.66H337a97.63,97.63,0,0,0,9.78-41.66C346.84,266.36,331.84,266.34,331.77,256.69Z"/>
			</g>
			<g id="ground">
				<path d="M407.32,298.35H291.8c-4.83,0-7.24,3.75-7.25,7.5s2.41,7.5,7.25,7.5H407.32C417,313.35,417,298.35,407.32,298.35Z"/>
				<path d="M171.58,313.35H208.2c4.83,0,7.24-3.75,7.24-7.5s-2.41-7.5-7.24-7.5H92.68c-9.65,0-9.67,15,0,15h78.89Z"/>
				<path d="M375.15,338.46H294.81l-8.71-8.33-25.37-24.28-5.43-5.2a7.65,7.65,0,0,0-10.61,0l-5.43,5.2-25.18,24.09-8.9,8.51H124.85c-9.65,0-9.67,15,0,15h61.74c7.14,0,14.48.49,21.61,0,3.86-.26,6.59-3.27,9.22-5.92l1-.94L219,346l10.72-10.26,1.77-1.69L250,316.36c6.65,6.5,13.25,13.12,20,19.61,3.5,3.38,7,6.73,10.63,10,.69.63,1.39,1.24,2.08,1.86,1.24,1.11,2.47,2.22,3.73,3.3,5,4.36,15.88,2.34,22,2.34h66.82C384.8,353.46,384.82,338.46,375.15,338.46Z"/>
				<path d="M346.5,378.57h-193c-9.65,0-9.67,15,0,15h193C356.15,393.57,356.17,378.57,346.5,378.57Z"/>
			</g>
		</g>
	</symbol>
	<symbol id="sunset" viewBox="0 0 500 500" xml:space="preserve">
		<g fill="var(--lY)">
			<path d="M320.17,298.35a81.5,81.5,0,0,0-54.33-121.91c-33.28-6.74-68.23,8.91-85.76,37.86a82.85,82.85,0,0,0-.52,84.06H320.17Z"/>
		</g>
		<g fill="url(#bkgrd)" stroke="url(#bkgrd)">
			<g id="rays">
				<path d="M242.5,98.18v33.65c0,9.65,15,9.67,15,0V98.18C257.5,88.53,242.5,88.51,242.5,98.18Zm7.5,33.65v0Z"/>
				<path d="M164.27,123.2l16.83,29.15c4.83,8.36,17.79.81,13-7.57l-16.83-29.15C172.4,107.28,159.43,114.82,164.27,123.2Zm6.48-3.79,16.83,29.15Z"/>
				<path d="M116.51,171c-8.37-4.84-15.94,8.12-7.57,13l29.15,16.83c8.38,4.84,15.94-8.12,7.57-13Zm-3.79,6.48,29.15,16.83Z"/>
				<path d="M91.49,264.19h33.65c9.65,0,9.67-15,0-15H91.49C81.84,249.19,81.82,264.19,91.49,264.19Zm33.65-7.5h0Z"/>
				<path d="M408.51,249.19H374.86c-9.65,0-9.67,15,0,15h33.65C418.16,264.19,418.18,249.19,408.51,249.19Zm-33.65,7.5h0Z"/>
				<path d="M383.49,171l-29.15,16.83c-8.36,4.83-.81,17.79,7.57,13l29.15-16.83C399.42,179.09,391.87,166.12,383.49,171Zm-25.36,23.3,29.15-16.83Z"/>
				<path d="M322.78,115.63,306,144.78c-4.84,8.38,8.12,15.94,13,7.57l16.83-29.15C340.57,114.83,327.61,107.27,322.78,115.63Zm-10.35,32.93,16.83-29.15Z"/>
			</g>
			<g id="sunoutline">
				<path d="M331.77,256.69a83.48,83.48,0,0,1-11.6,41.66H337a97.63,97.63,0,0,0,9.78-41.66C346.84,266.36,331.84,266.34,331.77,256.69Z"/>
				<path d="M180.07,214.3c17.54-28.95,52.48-44.6,85.76-37.86a82.68,82.68,0,0,1,65.94,80.25c.07-9.66,15.07-9.65,15,0a98,98,0,0,0-64-91.07C245,151.8,200.82,164,175.45,195.05c-23.69,29-28.74,69.75-12.79,103.3h16.88A82.85,82.85,0,0,1,180.07,214.3Z"/>
				<path d="M331.77,256.69c.07,9.65,15.07,9.67,15,0S331.84,247,331.77,256.69Z"/>
			</g>
			<g id="ground">
				<path d="M407.32,298.35H337q-1.85,3.84-4,7.5H372.7v7.5h34.62C417,313.35,417,298.35,407.32,298.35Z"/>
				<path d="M92.68,305.85h74q-2.18-3.68-4-7.5h-70c-9.65,0-9.67,15,0,15H127.3v-7.5Z"/>
				<path d="M320.17,298.35H179.55a77.11,77.11,0,0,0,5,7.5h130.6A83.67,83.67,0,0,0,320.17,298.35Z"/>
				<path d="M184.59,305.85a77.11,77.11,0,0,1-5-7.5H162.66q1.81,3.82,4,7.5Z"/>
				<path d="M315.18,305.85H333q2.17-3.66,4-7.5H320.17A83.67,83.67,0,0,1,315.18,305.85Z"/>
				<path d="M167.12,306.66c-.16-.27-.31-.54-.47-.81H127.3v7.5h44.28C170,311.2,168.52,309,167.12,306.66Z"/>
				<path d="M191.09,313.35H308.87a82.71,82.71,0,0,0,6.31-7.5H184.59q.92,1.21,1.89,2.38Q188.68,310.91,191.09,313.35Z"/>
				<path d="M333,305.85q-2.29,3.86-4.91,7.5H372.7v-7.5Z"/>
				<path d="M308.87,313.35H328q2.62-3.64,4.91-7.5H315.18A82.71,82.71,0,0,1,308.87,313.35Z"/>
				<path d="M186.47,308.23q-1-1.17-1.89-2.38H166.65c.16.27.31.54.47.81,1.4,2.31,2.89,4.54,4.46,6.69h19.51Q188.69,310.9,186.47,308.23Z"/>
				<path d="M375.15,346H372.7v7.5h2.45c9.65,0,9.67-15,0-15H372.7V346Z"/>
				<path d="M124.85,346h2.45v-7.5h-2.45c-9.65,0-9.67,15,0,15h2.45V346Z"/>
				<path d="M202.89,351.26l2.3,2.2h3Z"/>
				<path d="M301.91,338.27A93.87,93.87,0,0,1,287.39,346H372.7v-7.5H313.41C309.61,338.46,305.76,338.32,301.91,338.27Z"/>
				<path d="M291.8,353.46h3l2.3-2.2Z"/>
				<path d="M291.8,346,250,386l-41.8-40H127.3v7.5h77.89l-2.3-2.2,5.3,2.2h-3l39.51,37.81a7.65,7.65,0,0,0,10.61,0l39.51-37.81h-3l5.3-2.2-2.3,2.2H372.7V346Z"/>
				<path d="M208.2,346h5.11a98.37,98.37,0,0,1-15.2-7.81c-2.38.14-4.62.31-6.43.31H127.3V346Z"/>
				<path d="M291.8,338.46c-4.33.3-7.23,4-10.17,6.86L281,346h6.43a93.87,93.87,0,0,0,14.52-7.69C298.53,338.22,295.14,338.23,291.8,338.46Z"/>
				<path d="M213.65,340.79c-3.53-3.06-9.93-3-15.54-2.65a98.37,98.37,0,0,0,15.2,7.81h6.14Q216.57,343.34,213.65,340.79Z"/>
				<path d="M255.3,380.66q-2.65-2.53-5.27-5.1l-5.33,5.1Z"/>
				<path d="M268.47,357.91,250,375.55q2.63,2.57,5.27,5.1H244.7l5.33-5.1c-8.92-8.71-17.73-17.64-26.85-26.15a98.76,98.76,0,0,1-9.87-3.44H208.2L250,386l41.8-40h-4.41a92.29,92.29,0,0,1-10.24,3.65Z"/>
				<path d="M277.15,349.6A92.29,92.29,0,0,0,287.39,346H281Z"/>
				<path d="M219.45,346h-6.14a98.76,98.76,0,0,0,9.87,3.44Q221.32,347.67,219.45,346Z"/>
				<path d="M291.8,378.57c-9.65,0-9.67,15,0,15h54.7c9.65,0,9.67-15,0-15Zm0,7.5h0Z"/>
				<path d="M208.2,378.57H153.5c-9.65,0-9.67,15,0,15h54.7C217.85,393.57,217.86,378.57,208.2,378.57Zm-54.7,7.5h0Z"/>
			</g>
		</g>
	</symbol>
	<symbol id="goldenhour" viewBox="0 0 600 600" xml:space="preserve">
		<g fill="url(#sunCore)">
			<path d="M299.6,397.1c18,0,32.6-14.6,32.6-32.6c0-9.6-4.1-18.2-10.7-24.1V17h-42.8v322.7c-7.1,6-11.6,14.9-11.6,24.9   C267,382.5,281.6,397.1,299.6,397.1z"/>
			<path d="M560.7,343.1H378.2l65.5-37.8c10.2-5.9,13.8-19,7.8-29.3c-5.9-10.2-19-13.8-29.3-7.8l-64.8,37.4l72.7-124.4   c6-10.2,2.5-23.3-7.7-29.3c-10.2-6-23.3-2.5-29.3,7.7l-38.5,65.8v103.2c6.9,10.6,10.7,23.1,10.7,36c0,32.2-23.2,59-53.7,64.8   c-0.1,0-0.2,0.1-0.3,0.1c-4.3,0.9-8.7,1.3-13.2,1.3c-7.5,0-14.7-1.3-21.4-3.6v0c-26.1-8.9-44.8-33.6-44.8-62.7   c0-14.8,4.9-28.5,13.1-39.5v-95.3l-5.2-9.1c-5.9-10.2-19-13.8-29.3-7.8c-10.2,5.9-13.8,19-7.8,29.3l36.9,64l-133.2-76.9   c-10.2-5.9-23.3-2.4-29.3,7.8c-5.9,10.2-2.4,23.3,7.8,29.3l133.2,76.9H38.5c-11.8,0-21.4,9.6-21.4,21.4c0,11.8,9.6,21.4,21.4,21.4   h179.9L154.2,423c-10.2,5.9-13.8,19-7.8,29.3c4,6.9,11.2,10.7,18.6,10.7c3.6,0,7.3-0.9,10.7-2.9l63.4-36.6l-72.4,123.8   c-6,10.2-2.5,23.3,7.7,29.3c3.4,2,7.1,2.9,10.8,2.9c7.4,0,14.5-3.8,18.5-10.6l73.4-125.5v96c0,11.8,9.6,21.4,21.4,21.4   c11.8,0,21.4-9.6,21.4-21.4v-95l37.6,65.1c4,6.9,11.2,10.7,18.6,10.7c3.6,0,7.3-0.9,10.7-2.9c10.2-5.9,13.8-19,7.8-29.3l-37.6-65.1   l135.7,78.4c3.4,1.9,7.1,2.9,10.7,2.9c7.4,0,14.6-3.8,18.6-10.7c5.9-10.2,2.4-23.3-7.8-29.3L378.2,386h182.5   c11.8,0,21.4-9.6,21.4-21.4C582.1,352.7,572.5,343.1,560.7,343.1z"/>
		</g>
	</symbol>
	<symbol id="moonrise" viewBox="0 0 500 500" xml:space="preserve">
		<g fill="url(#moon)">
			<path d="M215.44,304.35h23.82l5.43-5.2a7.65,7.65,0,0,1,10.61,0l5.43,5.2h23.82c0-3.75,2.42-7.5,7.24-7.5h44.08A121.25,121.25,0,0,0,353.45,275a132.94,132.94,0,0,1-125.84-34.14,132.94,132.94,0,0,1-34.14-125.82,116.93,116.93,0,0,0-50.72,68c-11.13,41.06,2,84.9,31.17,113.77H208.2C213,296.85,215.44,300.6,215.44,304.35Z"/>
		</g>
		<g fill="url(#moonDark)" stroke="url(#moonDark)">
			<g id="star">
				<path fill="var(--lY)" d="M307.34,139.27c-.62,1.22-1.28,2.42-2,3.58A53.73,53.73,0,0,1,290.71,158a44.49,44.49,0,0,1-5.27,3.16A53.28,53.28,0,0,1,296.56,169a50.35,50.35,0,0,1,10.71,14l.59-1.07a51.17,51.17,0,0,1,13.39-15.6,51.91,51.91,0,0,1,8-5.19A52.5,52.5,0,0,1,307.34,139.27Z"/>
				<path d="M311.46,128.83h-8.31l.4,1.38a15.23,15.23,0,0,0,1.18,3.36,53.92,53.92,0,0,0,2.61,5.71,61.94,61.94,0,0,0,2.55-5.71C310.38,132.3,311.47,130.24,311.46,128.83Z"/>
				<path d="M334.36,158.84c-1.07.43-2.13.87-3.18,1.35-.66.3-1.29.63-1.92,1a54.17,54.17,0,0,0,10.4,4.2A6.79,6.79,0,0,1,334.36,158.84Z"/>
				<path d="M339.67,165.34a54.17,54.17,0,0,1-10.4-4.2,51.91,51.91,0,0,0-8,5.19,51.17,51.17,0,0,0-13.39,15.6l-.59,1.07c.46.9.91,1.8,1.31,2.72a58.77,58.77,0,0,1,2.25,5.78c1,3.07,1.32,2.06-3.54,2.06-5.9,0-4.1,1.15-3.76-1.38.41-3,2.19-6.37,3.73-9.17a50.35,50.35,0,0,0-10.71-14,53.28,53.28,0,0,0-11.13-7.79c-1.66.85-3.36,1.62-5.1,2.32-1.3.52-3.33,1.67-4.7,1.63q-2.69,1.13-.69-4V157a10.82,10.82,0,0,1,2.74.83,54.18,54.18,0,0,1,7.76,3.33,44.49,44.49,0,0,0,5.27-3.16,53.73,53.73,0,0,0,14.6-15.19c.74-1.16,1.4-2.36,2-3.58a53.92,53.92,0,0,1-2.61-5.71,15.23,15.23,0,0,1-1.18-3.36l-.4-1.38h8.31c0,1.41-1.08,3.47-1.57,4.73a61.94,61.94,0,0,1-2.55,5.71,52.5,52.5,0,0,0,21.93,21.87c.63-.33,1.27-.66,1.92-1,1-.48,2.11-.92,3.18-1.35-.19-4.58,3.52-9.51,9.29-8a37.08,37.08,0,0,1-21-15c-4.32-6.59-5-18.48-14.87-18.87-10.58-.41-11.3,12.07-15.76,18.87a37.25,37.25,0,0,1-19.66,14.61c-4.12,1.38-7.58,3.31-8.83,7.84a10.73,10.73,0,0,0,5.19,12.21c3.45,1.9,7.43,2.51,10.91,4.5a37.85,37.85,0,0,1,10.21,8.53,36.13,36.13,0,0,1,5.86,9.89c1.78,4.51,2.42,8.91,7.44,11a10.65,10.65,0,0,0,12.16-2.72c2.78-3.21,3.23-7.95,5.2-11.66,4.73-8.91,12.35-14.94,21.79-18.22,4.62-1.6,8.37-4,9.08-9.27a10.71,10.71,0,0,0-7.7-11.75C352.93,153.54,349,168,339.67,165.34Z"/>
				<path d="M338.29,157.43a10.47,10.47,0,0,0-2,.68c-.64.23-1.27.48-1.9.73a6.79,6.79,0,0,0,5.3,6.51C336.34,164.45,343.88,156.76,338.29,157.43Z"/>
				<path d="M334.36,158.84c.63-.25,1.26-.5,1.9-.73a10.47,10.47,0,0,1,2-.68c5.59-.67-2,7,1.38,7.91,9.3,2.66,13.27-11.81,4-14.46C337.89,149.33,334.17,154.25,334.36,158.84Z"/>
				<path d="M274.94,157v4.15q-2,5.08.69,4c1.37,0,3.4-1.11,4.7-1.63,1.74-.7,3.44-1.46,5.1-2.32a54.18,54.18,0,0,0-7.76-3.33A10.82,10.82,0,0,0,274.94,157Z"/>
				<path d="M307.3,193.55c4.86,0,4.53,1,3.54-2.06a58.77,58.77,0,0,0-2.25-5.78c-.41-.92-.85-1.82-1.31-2.72-1.54,2.8-3.32,6.16-3.73,9.17C303.2,194.7,301.4,193.55,307.3,193.55Z"/>
			</g>
			<g id="moonoutline">
				<path d="M199.28,97.69a127.9,127.9,0,0,0-5.81,17.37,122.32,122.32,0,0,1,16.83-8.9Z"/>
				<path d="M227.61,240.89c6.79,6.88,17.4-3.73,10.61-10.61S220.72,234.09,227.61,240.89Z"/>
				<path d="M142.75,183.08a116.93,116.93,0,0,1,50.72-68,127.9,127.9,0,0,1,5.81-17.37l11,8.47a122.32,122.32,0,0,0-16.83,8.9,132.94,132.94,0,0,0,34.14,125.82c-6.88-6.8,3.73-17.4,10.61-10.61-33.59-34-42.83-84.64-24.47-128.6,2.86-6.84-5.89-10.69-11-8.47a131.16,131.16,0,0,0-70.34,167.31,134.13,134.13,0,0,0,21.23,36.33h20.31C144.75,268,131.61,224.14,142.75,183.08Z"/>
				<path d="M362.33,258.2A123.49,123.49,0,0,1,353.45,275a127.87,127.87,0,0,0,17.35-5.81Z"/>
				<path d="M227.61,240.89A132.94,132.94,0,0,0,353.45,275a123.49,123.49,0,0,0,8.88-16.82l8.47,11A127.87,127.87,0,0,1,353.45,275a121.25,121.25,0,0,1-17.56,21.82h20.34a130,130,0,0,0,19.06-31.08c2.2-5.09-1.65-13.86-8.47-11-44,18.36-94.59,9.12-128.6-24.47C245,237.16,234.4,247.77,227.61,240.89Z"/>
			</g>
			<g id="ground">
				<path d="M372.7,304.35h0v7.5h34.62c9.65,0,9.67-15,0-15H356.23q-3.2,3.88-6.69,7.5Z"/>
				<path d="M291.8,296.85c-4.83,0-7.24,3.75-7.24,7.5h42.92q4.38-3.55,8.41-7.5H291.8Z"/>
				<path d="M327.48,304.35h22.06q3.48-3.62,6.69-7.5H335.89Q331.87,300.8,327.48,304.35Z"/>
				<path d="M349.54,304.35q-3.76,3.91-7.82,7.5h31v-7.5Z"/>
				<path d="M284.56,304.35c0,3.75,2.41,7.5,7.24,7.5h25.28a114.54,114.54,0,0,0,10.39-7.5H284.56Z"/>
				<path d="M341.72,311.85q4.06-3.59,7.82-7.5H327.48a114.54,114.54,0,0,1-10.39,7.5Z"/>
				<path d="M92.68,311.85H127.3v-7.5h32.93q-3.45-3.62-6.62-7.5H92.68C83,296.85,83,311.85,92.68,311.85Z"/>
				<path d="M215.44,304.35c0-3.75-2.41-7.5-7.25-7.5H173.92q4,3.94,8.36,7.5h33.16Z"/>
				<path d="M182.28,304.35q-4.37-3.55-8.36-7.5H153.61q3.17,3.87,6.62,7.5Z"/>
				<path d="M160.23,304.35H127.3v7.5H168Q164,308.26,160.23,304.35Z"/>
				<path d="M193.73,311.85H208.2c4.83,0,7.24-3.75,7.25-7.5H182.28a112.32,112.32,0,0,0,10.4,7.5Z"/>
				<path d="M168,311.85h24.68a112.32,112.32,0,0,1-10.4-7.5h-22Q164,308.26,168,311.85Z"/>
				<path d="M124.85,344.45h2.45V337h-2.45c-9.65,0-9.67,15,0,15h2.45v-7.5Z"/>
				<path d="M375.15,344.45H372.7V352h2.45c9.65,0,9.67-15,0-15H372.7v7.5Z"/>
				<path d="M255.3,299.15a7.65,7.65,0,0,0-10.61,0l-5.43,5.2h21.47Z"/>
				<path d="M227.07,326.39,250,304.45l24.67,23.61q4.48-.76,8.9-1.86l-22.83-21.85H239.26L218.69,324Q222.85,325.37,227.07,326.39Z"/>
				<path d="M291.8,344.45H280.55q2.88,2.62,5.81,5.16c5,4.36,15.88,2.34,22,2.34H372.7v-7.5Z"/>
				<path d="M208.2,352c4.33-.3,7.23-4,10.17-6.86l.67-.64H127.3V352h59.29C193.73,352,201.07,352.44,208.2,352Z"/>
				<path d="M208.2,337h-3l-2.3,2.2Z"/>
				<path d="M208.2,344.45l6.36-6.08q-4-1.28-7.91-2.81L205.19,337h3l-5.3,2.2,2.3-2.2H127.3v7.5Z"/>
				<path d="M296.1,338.19l1,1-1.75-.72c-2,.64-4,1.24-6,1.78l-1.6.42,4,3.83h80.9V337h-73Q297.89,337.6,296.1,338.19Z"/>
				<path d="M297.11,339.15l-1-1-.74.24Z"/>
				<path d="M294.81,337,283.57,326.2q-4.42,1.1-8.9,1.86l13.13,12.57,1.6-.42c2-.54,4-1.15,6-1.78L291.8,337Z"/>
				<path d="M218.69,324l-12,11.53q3.91,1.53,7.91,2.81l12.52-12Q222.85,325.37,218.69,324Z"/>
				<path d="M291.8,337l3.56,1.47.74-.24L294.81,337Z"/>
				<path d="M296.1,338.19q1.79-.59,3.56-1.24h-4.85Z"/>
				<path d="M244.7,309.76q2.65,2.53,5.27,5.1l5.33-5.1Z"/>
				<path d="M214.55,338.37l-6.36,6.08H219l3.87-3.7Q218.7,339.7,214.55,338.37Z"/>
				<path d="M280.55,344.45H291.8l-4-3.83q-4.58,1.18-9.22,2Z"/>
				<path d="M227.07,326.39q4.45,1.08,9,1.81L250,314.86q-2.63-2.57-5.27-5.1H255.3l-5.33,5.1c4.9,4.79,9.77,9.64,14.67,14.46q5-.41,10-1.26L250,304.45Z"/>
				<path d="M231.53,332.51l4.5-4.31q-4.5-.73-9-1.81l-12.52,12q4.14,1.33,8.36,2.38Z"/>
				<path d="M264.65,329.32c4.59,4.51,9.23,9,13.94,13.32q4.63-.84,9.22-2l-13.13-12.57Q269.68,328.9,264.65,329.32Z"/>
				<path d="M281.43,377.06H153.5c-9.65,0-9.67,15,0,15h193c9.65,0,9.67-15,0-15Zm-127.92,7.5h0Z"/>
			</g>
		</g>
	</symbol>
	<symbol id="moonset" viewBox="0 0 500 500" xml:space="preserve">
		<g fill="url(#moon)">
			<path d="M335.89,296.85A121.24,121.24,0,0,0,353.45,275a132.93,132.93,0,0,1-125.84-34.14,132.94,132.94,0,0,1-34.14-125.82,116.93,116.93,0,0,0-50.72,68c-11.13,41.06,2,84.9,31.17,113.77h162Z"/>
		</g>
		<g fill="url(#moonDark)" stroke="url(#moonDark)">
			<g id="star">
				<path fill="#FCE6B1" d="M307.34,139.27c-.62,1.22-1.28,2.42-2,3.58A53.73,53.73,0,0,1,290.71,158a44.56,44.56,0,0,1-5.27,3.16A53.28,53.28,0,0,1,296.56,169a50.34,50.34,0,0,1,10.71,14l.59-1.07a51.17,51.17,0,0,1,13.39-15.6,51.91,51.91,0,0,1,8-5.19A52.5,52.5,0,0,1,307.34,139.27Z"/>
				<path d="M338.29,157.43a10.47,10.47,0,0,0-2,.68c-.64.23-1.27.48-1.9.73a6.79,6.79,0,0,0,5.3,6.51C336.34,164.45,343.88,156.76,338.29,157.43Z"/>
				<path d="M274.94,157v4.15q-2,5.08.69,4c1.37,0,3.4-1.11,4.7-1.63q2.61-1,5.1-2.31a54.13,54.13,0,0,0-7.76-3.33A10.82,10.82,0,0,0,274.94,157Z"/>
				<path d="M311.46,128.83h-8.31l.4,1.38a15.23,15.23,0,0,0,1.18,3.36,53.92,53.92,0,0,0,2.61,5.71,61.94,61.94,0,0,0,2.55-5.71C310.38,132.3,311.47,130.24,311.46,128.83Z"/>
				<path d="M334.36,158.84c-1.07.43-2.13.87-3.18,1.35-.66.3-1.29.63-1.92,1a54.13,54.13,0,0,0,10.4,4.2A6.79,6.79,0,0,1,334.36,158.84Z"/>
				<path d="M307.3,193.55c4.86,0,4.53,1,3.54-2.06a58.81,58.81,0,0,0-2.25-5.77c-.41-.92-.85-1.82-1.31-2.72-1.54,2.8-3.32,6.16-3.73,9.17C303.2,194.7,301.4,193.55,307.3,193.55Z"/>
				<path d="M334.36,158.84c.63-.25,1.26-.5,1.9-.73a10.47,10.47,0,0,1,2-.68c5.59-.67-2,7,1.38,7.91,9.3,2.66,13.27-11.81,4-14.46C337.89,149.33,334.17,154.25,334.36,158.84Z"/>
				<path d="M339.67,165.34a54.13,54.13,0,0,1-10.4-4.2,51.91,51.91,0,0,0-8,5.19,51.17,51.17,0,0,0-13.39,15.6l-.59,1.07c.46.9.91,1.8,1.31,2.72a58.81,58.81,0,0,1,2.25,5.77c1,3.07,1.32,2.06-3.54,2.06-5.9,0-4.1,1.15-3.76-1.38.41-3,2.19-6.37,3.73-9.17a50.34,50.34,0,0,0-10.71-14,53.28,53.28,0,0,0-11.13-7.79q-2.49,1.28-5.1,2.31c-1.3.52-3.33,1.67-4.7,1.63q-2.69,1.13-.69-4V157a10.82,10.82,0,0,1,2.74.83,54.13,54.13,0,0,1,7.76,3.33,44.56,44.56,0,0,0,5.27-3.16,53.73,53.73,0,0,0,14.6-15.19c.74-1.16,1.4-2.36,2-3.58a53.92,53.92,0,0,1-2.61-5.71,15.23,15.23,0,0,1-1.18-3.36l-.4-1.38h8.31c0,1.41-1.08,3.47-1.57,4.73a61.94,61.94,0,0,1-2.55,5.71,52.5,52.5,0,0,0,21.93,21.87c.63-.33,1.27-.66,1.92-1,1-.48,2.11-.92,3.18-1.35-.19-4.58,3.52-9.51,9.29-8a37.08,37.08,0,0,1-21-15c-4.32-6.59-5-18.48-14.87-18.87-10.58-.41-11.3,12.07-15.76,18.87a37.24,37.24,0,0,1-19.66,14.61c-4.12,1.38-7.58,3.31-8.83,7.84a10.73,10.73,0,0,0,5.19,12.21c3.45,1.9,7.43,2.51,10.91,4.5a37.85,37.85,0,0,1,10.21,8.53,36.14,36.14,0,0,1,5.86,9.89c1.78,4.51,2.42,8.91,7.44,11a10.65,10.65,0,0,0,12.16-2.72c2.78-3.21,3.23-7.95,5.2-11.66,4.73-8.91,12.35-14.94,21.79-18.22,4.62-1.6,8.37-4,9.08-9.27a10.71,10.71,0,0,0-7.7-11.75C352.93,153.54,349,168,339.67,165.34Z"/>
			</g>
			<g id="moonoutline">
				<path d="M227.61,240.89A132.93,132.93,0,0,0,353.45,275a123.43,123.43,0,0,0,8.88-16.82l8.47,11A127.8,127.8,0,0,1,353.45,275a121.24,121.24,0,0,1-17.56,21.82h20.34a130,130,0,0,0,19.06-31.08c2.2-5.09-1.65-13.86-8.47-11-44,18.36-94.59,9.12-128.6-24.47C245,237.16,234.4,247.77,227.61,240.89Z"/>
				<path d="M142.75,183.08a116.93,116.93,0,0,1,50.72-68,127.9,127.9,0,0,1,5.81-17.37l11,8.47a122.38,122.38,0,0,0-16.83,8.9,132.94,132.94,0,0,0,34.14,125.82c-6.88-6.8,3.73-17.4,10.61-10.61-33.59-34-42.83-84.64-24.47-128.6,2.86-6.84-5.89-10.69-11-8.47a131.16,131.16,0,0,0-70.34,167.31,134.13,134.13,0,0,0,21.23,36.33h20.31C144.75,268,131.61,224.14,142.75,183.08Z"/>
				<path d="M227.61,240.89c6.79,6.88,17.4-3.73,10.61-10.61S220.72,234.09,227.61,240.89Z"/>
				<path d="M199.28,97.69a127.9,127.9,0,0,0-5.81,17.37,122.38,122.38,0,0,1,16.83-8.9Z"/>
				<path d="M362.33,258.2A123.43,123.43,0,0,1,353.45,275a127.8,127.8,0,0,0,17.35-5.81Z"/>
			</g>
			<g id="ground">
				<path d="M335.89,296.85h-162q4,3.94,8.36,7.5h145.2Q331.86,300.8,335.89,296.85Z"/>
				<path d="M92.68,304.35h67.55q-3.45-3.62-6.62-7.5H92.68c-9.65,0-9.67,15,0,15H127.3v-7.5Z"/>
				<path d="M407.32,296.85H356.23q-3.2,3.88-6.69,7.5H372.7v7.5h34.62C417,311.85,417,296.85,407.32,296.85Z"/>
				<path d="M327.48,304.35h22.06q3.48-3.62,6.69-7.5H335.89Q331.87,300.8,327.48,304.35Z"/>
				<path d="M182.28,304.35q-4.37-3.55-8.36-7.5H153.61q3.17,3.87,6.62,7.5Z"/>
				<path d="M198.85,311.85H317.09a114.54,114.54,0,0,0,10.39-7.5H182.28a112.32,112.32,0,0,0,10.4,7.5Z"/>
				<path d="M349.54,304.35q-3.76,3.91-7.82,7.5h31v-7.5Z"/>
				<path d="M160.23,304.35H127.3v7.5H168Q164,308.26,160.23,304.35Z"/>
				<path d="M317.09,311.85h24.63q4.06-3.59,7.82-7.5H327.48A114.54,114.54,0,0,1,317.09,311.85Z"/>
				<path d="M182.28,304.35h-22q3.72,3.91,7.77,7.5h24.68A112.32,112.32,0,0,1,182.28,304.35Z"/>
				<g>
					<path d="M375.15,344.45H372.7V352h2.45c9.65,0,9.67-15,0-15H372.7v7.5Z"/>
					<path d="M124.85,344.45h2.45V337h-2.45c-9.65,0-9.67,15,0,15h2.45v-7.5Z"/>
					<path d="M202.89,349.76l2.3,2.2h3Z"/>
					<path d="M208.2,344.45h11.25q-2.88-2.62-5.81-5.16c-5-4.36-15.88-2.34-22-2.34H127.3v7.5Z"/>
					<path d="M300.23,336.74q-5.32,2-10.83,3.47-2.76.75-5.54,1.37c-.76.76-1.49,1.52-2.23,2.23l-.67.64H372.7V337H313.41C309.06,337,304.64,336.78,300.23,336.74Z"/>
					<path d="M291.8,352h3l2.3-2.2Z"/>
					<path d="M291.8,344.45l-41.8,40-41.8-40H127.3V352h77.89l-2.3-2.2,5.3,2.2h-3l39.51,37.81a7.65,7.65,0,0,0,10.61,0L294.81,352h-3l5.3-2.2-2.3,2.2H372.7v-7.5Z"/>
					<path d="M291.8,337c-3.24.22-5.68,2.38-7.94,4.63q2.78-.62,5.54-1.37,5.5-1.49,10.83-3.47C297.41,336.72,294.59,336.76,291.8,337Z"/>
					<path d="M250,374.05q2.63,2.57,5.27,5.1H244.7l5.33-5.1c-10.13-9.89-20.11-20.08-30.58-29.6H208.2l41.8,40,41.8-40H281L268.47,356.4Z"/>
					<path d="M255.3,379.15q-2.65-2.53-5.27-5.1l-5.33,5.1Z"/>
					<path d="M291.8,377.06c-9.65,0-9.67,15,0,15h54.7c9.65,0,9.67-15,0-15Zm0,7.5h0Z"/>
					<path d="M208.2,377.06H153.5c-9.65,0-9.67,15,0,15h54.7C217.85,392.06,217.86,377.06,208.2,377.06Zm-54.7,7.5h0Z"/>
				</g>
			</g>
		</g>
	</symbol>
	<symbol id="location" viewBox="0 0 512 512" xml:space="preserve">
		<path fill="var(--dB)" d="M255.999,0C152.086,0,67.808,84.334,67.808,188.201c0,43.348,15.726,82.14,38.984,114.747 C255.999,512,255.999,512,255.999,512s0,0,149.225-209.07c23.25-32.599,38.968-71.467,38.968-114.729 C444.192,84.334,360.006,0,255.999,0z"/>
		<path fill="var(--wh)" d="M396.115,188.201c0,77.54-62.643,140.122-140.116,140.122c-77.373,0-140.134-62.582-140.134-140.122 c0-77.373,62.761-140.16,140.134-140.16C333.475,48.038,396.115,110.828,396.115,188.201z"/>
		<g fill="var(--dB)">
			<polygon points="255.999,76.096 236.146,188.209 255.999,300.329 275.834,188.209"/>
			<polygon points="143.917,188.209 255.999,208.026 368.076,188.209 255.999,168.43"/>
			<polygon points="199.945,132.096 246.086,198.07 312.055,244.262 265.911,178.304"/>
			<polygon points="199.942,244.262 265.911,198.039 312.047,132.111 246.102,178.296"/>
		</g>
	</symbol>
	<symbol id="temperatur" viewBox="0 0 40 40" xml:space="preserve">
		<path fill="var(--wh)" d="M17,22.214c-2.481,0-4.5-2.019-4.5-4.5V6c0-2.481,2.019-4.5,4.5-4.5s4.5,2.019,4.5,4.5v11.714   C21.5,20.196,19.481,22.214,17,22.214z"/>
		<g fill="var(--dB)">
			<path d="M17,2c2.206,0,4,1.794,4,4v11.714c0,2.206-1.794,4-4,4c-2.206,0-4-1.794-4-4V6    C13,3.794,14.794,2,17,2 M17,1c-2.75,0-5,2.25-5,5v11.714c0,2.75,2.25,5,5,5s5-2.25,5-5V6C22,3.25,19.75,1,17,1L17,1z"/>
			<path d="M17,38.5c-4.136,0-7.5-3.364-7.5-7.5c0-2.283,1.025-4.415,2.813-5.85L12.5,25v-9.5h9V25l0.187,0.15   C23.475,26.585,24.5,28.717,24.5,31C24.5,35.136,21.136,38.5,17,38.5z"/>
			<path d="M21,16v8.76v0.48l0.374,0.3C23.043,26.879,24,28.869,24,31c0,3.86-3.14,7-7,7c-3.86,0-7-3.14-7-7    c0-2.131,0.957-4.121,2.626-5.46L13,25.24v-0.48V16H21 M22,15H12v9.76c-1.827,1.466-3,3.714-3,6.24c0,4.418,3.582,8,8,8    s8-3.582,8-8c0-2.525-1.173-4.773-3-6.24V15L22,15z"/>
			<g id="plus">
				<path d="M25.5,4h5C30.776,4,31,4.224,31,4.5v0C31,4.776,30.776,5,30.5,5h-5C25.224,5,25,4.776,25,4.5v0  C25,4.224,25.224,4,25.5,4z"/>
				<path d="M25.5,8h5C30.776,8,31,8.224,31,8.5v0C31,8.776,30.776,9,30.5,9h-5C25.224,9,25,8.776,25,8.5v0  C25,8.224,25.224,8,25.5,8z"/>
				<path d="M25.5,12h5c0.276,0,0.5,0.224,0.5,0.5v0c0,0.276-0.224,0.5-0.5,0.5h-5c-0.276,0-0.5-0.224-0.5-0.5v0  C25,12.224,25.224,12,25.5,12z"/>
			</g>
			<g id="minus">
				<path d="M25.5,16h5c0.276,0,0.5,0.224,0.5,0.5v0c0,0.276-0.224,0.5-0.5,0.5h-5c-0.276,0-0.5-0.224-0.5-0.5v0  C25,16.224,25.224,16,25.5,16z"/>
				<path d="M25.5,20h5c0.276,0,0.5,0.224,0.5,0.5v0c0,0.276-0.224,0.5-0.5,0.5h-5c-0.276,0-0.5-0.224-0.5-0.5v0  C25,20.224,25.224,20,25.5,20z"/>
				<path d="M25.5,24h5c0.276,0,0.5,0.224,0.5,0.5v0c0,0.276-0.224,0.5-0.5,0.5h-5c-0.276,0-0.5-0.224-0.5-0.5v0  C25,24.224,25.224,24,25.5,24z"/>
			</g>
		</g>
	</symbol>
	<symbol id="humidity" viewBox="0 0 40 40" xml:space="preserve">
		<path fill="var(--wh)" d="M10,22.214c-2.481,0-4.5-2.019-4.5-4.5V6c0-2.481,2.019-4.5,4.5-4.5s4.5,2.019,4.5,4.5v11.714   C14.5,20.196,12.481,22.214,10,22.214z"/>
		<path fill="var(--dB)" d="M10,2c2.206,0,4,1.794,4,4v11.714c0,2.206-1.794,4-4,4s-4-1.794-4-4V6C6,3.794,7.794,2,10,2 M10,1   C7.25,1,5,3.25,5,6v11.714c0,2.75,2.25,5,5,5s5-2.25,5-5V6C15,3.25,12.75,1,10,1L10,1z"/>
		<path fill="var(--lB)" d="M10,38.5c-4.136,0-7.5-3.364-7.5-7.5c0-2.283,1.025-4.415,2.813-5.85L5.5,25v-9.5h9V25l0.187,0.15   C16.475,26.585,17.5,28.717,17.5,31C17.5,35.136,14.136,38.5,10,38.5z"/>
		<path fill="var(--dB)" d="M14,16v8.76v0.48l0.374,0.3C16.043,26.879,17,28.869,17,31c0,3.86-3.14,7-7,7s-7-3.14-7-7   c0-2.131,0.957-4.121,2.626-5.46L6,25.24v-0.48V16H14 M15,15H5v9.76C3.173,26.227,2,28.475,2,31c0,4.418,3.582,8,8,8s8-3.582,8-8   c0-2.525-1.173-4.773-3-6.24V15L15,15z"/>
		<path fill="var(--lB)" d="M25.5,25.5c-2.757,0-5-2.386-5-5.318c0-2.298,3.308-7.133,5-9.364c1.692,2.231,5,7.066,5,9.364    C30.5,23.114,28.257,25.5,25.5,25.5z"/>
		<path fill="var(--dB)" d="M25.5,11.649c1.994,2.699,4.5,6.697,4.5,8.533C30,22.839,27.981,25,25.5,25S21,22.839,21,20.182    C21,18.348,23.506,14.349,25.5,11.649 M25.5,10c0,0-5.5,6.969-5.5,10.182C20,23.395,22.462,26,25.5,26s5.5-2.605,5.5-5.818    C31,16.969,25.5,10,25.5,10L25.5,10z"/>
		<path fill="var(--lB)" d="M34.5,12.5c-1.654,0-3-1.458-3-3.25c0-1.368,1.907-4.07,3-5.456c1.093,1.386,3,4.088,3,5.456   C37.5,11.042,36.154,12.5,34.5,12.5z"/>
		<path fill="var(--dB)" d="M34.5,4.61C35.712,6.216,37,8.285,37,9.25c0,1.516-1.122,2.75-2.5,2.75S32,10.766,32,9.25   C32,8.285,33.288,6.216,34.5,4.61 M34.5,3c0,0-3.5,4.179-3.5,6.25c0,2.071,1.567,3.75,3.5,3.75S38,11.321,38,9.25   C38,7.179,34.5,3,34.5,3L34.5,3z"/>
		<path fill="var(--lB)" d="M33,36.5c-1.93,0-3.5-1.626-3.5-3.625c0-1.541,2.259-4.597,3.5-6.101   c1.241,1.504,3.5,4.561,3.5,6.101C36.5,34.874,34.93,36.5,33,36.5z"/>
		<path fill="var(--dB)" d="M33,27.566c1.428,1.798,3,4.198,3,5.309C36,34.598,34.654,36,33,36s-3-1.402-3-3.125   C30,31.766,31.572,29.365,33,27.566 M33,26c0,0-4,4.597-4,6.875S30.791,37,33,37s4-1.847,4-4.125S33,26,33,26L33,26z"/>
		<path fill="var(--dB)" d="M9.5,19h5c0.276,0,0.5,0.224,0.5,0.5l0,0c0,0.276-0.224,0.5-0.5,0.5h-5C9.224,20,9,19.776,9,19.5l0,0  C9,19.224,9.224,19,9.5,19z"/>
		<path fill="var(--dB)" d="M9.5,23h5c0.276,0,0.5,0.224,0.5,0.5l0,0c0,0.276-0.224,0.5-0.5,0.5h-5C9.224,24,9,23.776,9,23.5l0,0  C9,23.224,9.224,23,9.5,23z"/>
		<path fill="var(--dB)" d="M9.5,11h5c0.276,0,0.5,0.224,0.5,0.5v0c0,0.276-0.224,0.5-0.5,0.5h-5C9.224,12,9,11.776,9,11.5v0  C9,11.224,9.224,11,9.5,11z"/>
		<path fill="var(--dB)" d="M9.5,7h5C14.776,7,15,7.224,15,7.5v0C15,7.776,14.776,8,14.5,8h-5C9.224,8,9,7.776,9,7.5v0  C9,7.224,9.224,7,9.5,7z"/>
	</symbol>
	<symbol id="windspeed" viewBox="0 0 40 40" xml:space="preserve">
		<circle fill="var(--wh)" cx="7.5" cy="8.5" r="6"/>
		<path fill="var(--dB)" d="M7.5,3C10.533,3,13,5.467,13,8.5S10.533,14,7.5,14C4.467,14,2,11.533,2,8.5S4.467,3,7.5,3 M7.5,2    C3.91,2,1,4.91,1,8.5S3.91,15,7.5,15c3.59,0,6.5-2.91,6.5-6.5S11.09,2,7.5,2L7.5,2z"/>
		<rect fill="var(--dB)" width="22" height="1" x="8" y="8"/>
		<rect fill="var(--dB)" width="1" height="9" x="19" y="12"/>
		<path fill="var(--lB)" d="M7,37.5c-1.378,0-2.5-1.122-2.5-2.5V21c0-1.378,1.122-2.5,2.5-2.5h25c1.378,0,2.5,1.122,2.5,2.5v14   c0,1.378-1.122,2.5-2.5,2.5H7z"/>
		<path fill="var(--dB)" d="M32,19c1.103,0,2,0.897,2,2v14c0,1.103-0.897,2-2,2H7c-1.103,0-2-0.897-2-2V21c0-1.103,0.897-2,2-2    H32 M32,18H7c-1.65,0-3,1.35-3,3v14c0,1.65,1.35,3,3,3h25c1.65,0,3-1.35,3-3V21C35,19.35,33.65,18,32,18L32,18z"/>
		<rect fill="var(--wh)" width="20" height="9" x="9.5" y="23.5"/>
		<path fill="var(--dB)" d="M29,24v8H10v-8H29 M30,23H9v10h21V23L30,23z"/>
		<path fill="var(--dB)" d="M14.5,27L14.5,27c-0.276,0-0.5-0.224-0.5-0.5v-3c0-0.276,0.224-0.5,0.5-0.5h0   c0.276,0,0.5,0.224,0.5,0.5v3C15,26.776,14.776,27,14.5,27z"/>
		<path fill="var(--dB)" d="M19.5,27L19.5,27c-0.276,0-0.5-0.224-0.5-0.5v-3c0-0.276,0.224-0.5,0.5-0.5h0   c0.276,0,0.5,0.224,0.5,0.5v3C20,26.776,19.776,27,19.5,27z"/>
		<path fill="var(--dB)" d="M24.5,27L24.5,27c-0.276,0-0.5-0.224-0.5-0.5v-3c0-0.276,0.224-0.5,0.5-0.5h0   c0.276,0,0.5,0.224,0.5,0.5v3C25,26.776,24.776,27,24.5,27z"/>
		<polygon fill="var(--dB)" points="21.5,27 23,32 20,32 "/>
		<circle fill="var(--wh)" cx="31.5" cy="8.5" r="6"/>
		<path fill="var(--dB)" d="M31.5,3C34.533,3,37,5.467,37,8.5S34.533,14,31.5,14S26,11.533,26,8.5S28.467,3,31.5,3 M31.5,2    C27.91,2,25,4.91,25,8.5s2.91,6.5,6.5,6.5S38,12.09,38,8.5S35.09,2,31.5,2L31.5,2z"/>
		<circle fill="var(--lB)" cx="31.5" cy="8.5" r="3.5"/>
		<path fill="var(--wh)" d="M16.5,2.5c3.309,0,6,2.691,6,6s-2.691,6-6,6V2.5z"/>
		<path fill="var(--dB)" d="M17,3.023c2.799,0.253,5,2.613,5,5.477s-2.201,5.224-5,5.477V3.023 M16.5,2H16v0.025v12.949V15h0.5    c3.59,0,6.5-2.91,6.5-6.5S20.09,2,16.5,2L16.5,2z"/>
		<path fill="var(--dB)" d="M9.5,9h-2C7.225,9,7,8.775,7,8.5v0C7,8.225,7.225,8,7.5,8h2C9.775,8,10,8.225,10,8.5v0  C10,8.775,9.775,9,9.5,9z"/>
	</symbol>
	<symbol id="pressure" viewBox="0 0 40 40" xml:space="preserve">
		<path fill="var(--lB)" d="M20,38.5C9.799,38.5,1.5,30.201,1.5,20S9.799,1.5,20,1.5S38.5,9.799,38.5,20S30.201,38.5,20,38.5z"/>
		<path fill="var(--dB)" d="M20,2c9.925,0,18,8.075,18,18s-8.075,18-18,18S2,29.925,2,20S10.075,2,20,2 M20,1    C9.507,1,1,9.507,1,20s8.507,19,19,19s19-8.507,19-19S30.493,1,20,1L20,1z"/>
		<circle fill="var(--wh)" cx="20" cy="20" r="15"/>
		<circle fill="var(--lB)" cx="20" cy="20" r="5.5"/>
		<path fill="var(--dB)" d="M20,15c2.757,0,5,2.243,5,5s-2.243,5-5,5s-5-2.243-5-5S17.243,15,20,15 M20,14    c-3.314,0-6,2.686-6,6s2.686,6,6,6s6-2.686,6-6S23.314,14,20,14L20,14z"/>
		<circle fill="var(--lB)" cx="20" cy="7" r="1"/>
		<ellipse fill="var(--lB)" transform="matrix(0.7071 -0.7071 0.7071 0.7071 -4.5563 11)" cx="11" cy="11" rx="1" ry="1"/>
		<circle fill="var(--lB)" cx="33" cy="20" r="1"/>
		<circle fill="var(--lB)" cx="7" cy="20" r="1"/>
		<circle fill="var(--dB)" cx="20" cy="20" r="2"/>
		<g id="arm">
			<line fill="none" stroke="var(--dB)" stroke-linecap="round" stroke-miterlimit="10" x1="28.5" y1="11.5" x2="12.5" y2="27.5"/>
			<polygon fill="var(--wh)" points="11.5,28.5 11.5,25.738 16.103,23.897 14.262,28.5  "/>
			<path fill="var(--dB)" d="M15.205,24.795L13.923,28H12v-1.923L15.205,24.795 M17,23l-6,2.4V29h3.6L17,23L17,23z"/>
		</g>
	</symbol>
	<symbol id="windirection" viewBox="0 0 1600 1900" xml:space="preserve">
		<path id="N" fill="none" stroke="var(--dB)" stroke-width="30" d="M 720 285 l 0 -245 1 0 178 230 1 0 0 -245"/>
		<g id="windrose" fill="var(--lB)" stroke="var(--dB)" stroke-width="30">
			<path id="tips" d="M 800 300 1000 900 1600 1100 1000 1300 800 1900 600 1300 0 1100 600 900 800 300"/>
			<ellipse id="circle" cx="800" cy="1100" rx="600" ry="600"/>
		</g>
		<g id="arrow" stroke="none">
			<path fill="var(--dB)" d="M 800,1100 300,1600 800,400 1300,1600 800,1100"/>
			<path fill="var(--wh)" d="M 800,1060 375,1490 800,470 800,1060"/>
		</g>
	</symbol>
	<symbol id="compass_rose" viewBox="0 0 794.2 958" xml:space="preserve">
		<title>rose-blue_18_2-08</title>
		<path fill="url(#rose-gradient)" transform="translate(-3.6 -4.56)" d="M37.7,631.46c-28.6-157,48-315.7,188.6-390.9l4.3,46a324.227,324.227,0,0,0-70.9,58.4l22.3,19.2-14.6,17-22.2-19.1a331.531,331.531,0,0,0-63.6,133l29,5.5-4.2,22-29-5.5a321.078,321.078,0,0,0-1.1,89.2Zm411.4-389-5.5,29,22,4.2,5.5-29.1a332.621,332.621,0,0,1,71.4,24.9,328.93,328.93,0,0,1,61.6,38.5l-19.3,22.3,17,14.6,19.4-22.5a320.206,320.206,0,0,1,58.4,71.1l46-4.1c-75.4-140.7-233.9-217.3-390.8-188.6l25.3,38.7A323.458,323.458,0,0,1,449.1,242.46ZM352,888.96l5.5-29.1-22-4.2-5.5,29.1a331.8,331.8,0,0,1-71.3-24.9,326.269,326.269,0,0,1-61.8-38.7l19.2-22.2-17-14.6-19.4,22.4a320.535,320.535,0,0,1-58.2-70.9l-46,4.1c75.2,140.6,233.9,217.2,390.9,188.6l-25.3-38.5A320.312,320.312,0,0,1,352,888.96Zm372.9-363.7a324.226,324.226,0,0,1-1,89.1l-29.2-5.5-4.2,22,29.2,5.5a331.1,331.1,0,0,1-63.6,133.1l-22.3-19.3-14.6,17,22.5,19.4a324.227,324.227,0,0,1-70.9,58.4l4.1,46c140.6-75.2,217.2-233.9,188.6-390.9ZM510.8,650.96l28.5,311.6L367.4,700.76l-88.6,117.3,36.7-142.4L3.6,704.16l261.9-171.8-117.3-88.6,142.4,36.7-28.5-311.9L434,430.46l88.6-117.3-36.7,142.4,311.9-28.5-261.9,172,117.3,88.6Zm-209.6-50.7a106.953,106.953,0,0,1-4-55.6L112.4,666.06Zm64.6-134a105.088,105.088,0,0,1,55.6-3.7L300,277.76Zm62.5,178.8c43.8-15.1,67-63.2,51.7-107.2a84.157,84.157,0,1,0-51.7,107.2Zm72.9,208.6-65.8-188.5a105.088,105.088,0,0,1-55.6,3.7Zm2.5-267.1,184.9-121.4-188.8,65.8A105.191,105.191,0,0,1,503.7,586.56Zm-89.3,18.8a42.094,42.094,0,1,0-53.6-25.9A42.14,42.14,0,0,0,414.4,605.36ZM228,134.96l-20.3-58.1,59.9,44.4,30.8-10.8L261.5,4.56l-30.8,10.8,20.4,58.6-60.3-44.6-30.6,10.6,37,105.8Z"/>
	</symbol>
	<symbol id="summaryarrow" viewBox="0 0 100 100" xml:space="preserve">
		<g fill="currentColor">
			<path d="m12.5 45.832h64.582v8.332h-64.582z"/>
			<path d="m59.168 77.918l-5.8359-5.8359 22.086-22.082-22.086-22.082 5.8359-5.8359 27.914 27.918z"/>
		</g>
	</symbol>
	<symbol id="alert" viewBox="0 0 500 500" xml:space="preserve">
		<path d="M233.151,344.182c0-5.594,1.475-9.85,4.425-12.763c2.95-2.912,7.148-4.367,12.594-4.367c5.369,0,9.491,1.512,12.366,4.538   c2.875,3.025,4.312,7.224,4.312,12.592c0,5.374-1.456,9.627-4.368,12.767c-2.912,3.137-7.018,4.709-12.31,4.709   c-5.372,0-9.55-1.516-12.539-4.54C234.644,354.094,233.151,349.781,233.151,344.182z M260.155,307.989h-19.743l-5.9-115.504h31.429   L260.155,307.989z"/>
		<path fill="none" stroke="var(--rd)" stroke-width="21.2598" stroke-miterlimit="10" d="M412.551,375.114L268.693,105.332  c-3.648-6.687-10.639-10.941-18.338-10.941c-7.699,0-14.676,4.255-18.235,10.941L87.452,375.114  c-3.445,6.385-3.241,14.184,0.493,20.364c3.764,6.282,10.563,10.131,17.845,10.131h288.525c7.295,0,13.979-3.849,17.729-10.131  C415.791,389.298,415.994,381.499,412.551,375.114L412.551,375.114z M271.123,281.405"/>
	</symbol>
	<symbol id="weatherDude" viewBox="0 0 1102 728" xml:space="preserve"><g fill="none" fill-rule="evenodd"><path fill="#2783A0" d="M709.2 86.4C665.4 117 608.6 115 558.8 99.1c-49.7-15.9-95.4-44.1-144-64.2A470.3 470.3 0 0 0 288.4 2.1c-61.8-7-130.8 1.6-173.9 50.9-48 54.8-44.3 153.8 7.6 204.1 26.4 25.7 61 38.2 91 58.2s58 53.3 55.4 91.9c-2.3 35.7-30 63.1-58.5 80.3-22.1 13.3-49.3 27.9-52 55.4-2.6 26.6 20.3 47.5 42.2 59.4a240.3 240.3 0 0 0 230-1c25.3-14 48.6-32.7 75.1-43.6 69.7-28.8 146.6.1 220.4 10.7A443 443 0 0 0 913.1 555c36.6-10.8 73.3-27.2 99-57.8 18.5-22 30-50 40.9-77.5a3073 3073 0 0 0 33.3-88.8 222.5 222.5 0 0 0 14.3-55.2c3-34.7-9.6-69-26.8-98.3C1033.1 108 964.4 59 890.1 46.7a253 253 0 0 0-210.8 64.9" opacity=".1"/><ellipse cx="176" cy="697.4" fill="#2783A0" opacity=".1" rx="176" ry="30"/><rect width="796.5" height="377.6" x="226.4" y="184" fill="#2783A0" rx="30.3"/><path fill="#FFF" d="M157.7 241H28.9a28 28 0 0 1-28-28V28.6a28 28 0 0 1 28-28h128.8V241z" opacity=".2" transform="translate(232 252)"/><path fill="#FFF" d="M129.4 241H.6V.5h128.8a28 28 0 0 1 28 28V213a28 28 0 0 1-28 28z" opacity=".2" transform="translate(859 252)"/><path fill="#FFF" d="M.9.6h156.7v240.3H.9z" opacity=".2" transform="translate(702 252)"/><path fill="#FFF" d="M.2.6h156.7v240.3H.2z" opacity=".2" transform="translate(546 252)"/><path fill="#2783A0" d="M.4.6h156.7v240.3H.4z" opacity=".2" transform="translate(389 252)"/><path fill="#FFF" d="M478.5 359c-1.2 0-2.3-1-2.3-2.2v-6.6a2.3 2.3 0 1 1 4.6 0v6.6c0 1.2-1 2.3-2.3 2.3zM467 363.8c-.6 0-1.2-.2-1.6-.7l-4.6-4.6a2.3 2.3 0 1 1 3.2-3.2l4.6 4.6a2.3 2.3 0 0 1-1.6 4zM494.7 391.4c-.6 0-1.2-.2-1.6-.6l-4.7-4.7a2.3 2.3 0 1 1 3.2-3.2l4.7 4.7a2.3 2.3 0 0 1-1.6 3.8zM501.3 375.3h-6.5a2.3 2.3 0 0 1 0-4.5h6.5a2.3 2.3 0 0 1 0 4.5zM490 363.8a2.3 2.3 0 0 1-1.6-3.9l4.7-4.6a2.3 2.3 0 1 1 3.2 3.2l-4.7 4.6c-.4.5-1 .7-1.6.7z"/><path fill="#FFF" fill-rule="nonzero" d="M490.6 373a12 12 0 0 0-21.8-7 16.9 16.9 0 0 0-24.2 9.1c-1.3-.1-2.6 0-4 .3a11.3 11.3 0 0 0 2.7 22.2h30.3l3-.3a13 13 0 0 0 9.8-15.2 12 12 0 0 0 4.2-9zm-15 19.9a8 8 0 0 1-2 .2h-30.4a6.7 6.7 0 1 1 2.2-13.2c.6.2 1.3.2 1.9-.1.5-.4 1-1 1-1.6a12.3 12.3 0 0 1 23-3.3c.4.8 1.2 1.2 2 1.2h.3a8.5 8.5 0 0 1 8.3 6.5l.2 1.9c0 4-2.7 7.4-6.5 8.4zm6-18.6c-2-1.6-4.4-2.5-7-2.7-.6-1-1.4-2-2.2-2.8a7.5 7.5 0 1 1 12.2 8.7 13 13 0 0 0-3-3.2z"/><path fill="#FFF" fill-rule="nonzero" d="M67 18.2a13 13 0 0 0-11.7-10 16.9 16.9 0 0 0-27.6-1c-6.9.4-12.9 4.8-15.1 11.3A11.3 11.3 0 1 0 11.3 41h30.3A13 13 0 0 0 53 34.3h1.3l3-.3A13 13 0 0 0 67 18.2zm-19.8 16a8.5 8.5 0 0 1-5.6 2.3H11.2a6.8 6.8 0 1 1 2.2-13.1 2.3 2.3 0 0 0 3-1.8 12.4 12.4 0 0 1 23-3.3c.3.8 1.1 1.2 2 1.2h.2a8.5 8.5 0 0 1 5.6 14.8zm9-4.7l-1.7.2c.2-1.6.1-3.2-.3-4.8a13 13 0 0 0-11.7-10 16.9 16.9 0 0 0-9.3-7A12.3 12.3 0 0 1 52 11.5c.4.8 1.2 1.2 2 1.2h.3a8.5 8.5 0 0 1 2 16.8z" opacity=".5" transform="translate(591 352)"/><g fill="#FFF" opacity=".5"><path d="M38.6 42.7l-1.5-.9 1.5-.8a1.1 1.1 0 0 0-1.2-2l-1.4.9v-1.7a1.1 1.1 0 1 0-2.3 0V40l-1.5-.8a1.1 1.1 0 1 0-1 2l1.4.8-1.5.8a1.1 1.1 0 0 0-.4 1.6 1.1 1.1 0 0 0 1.6.4l1.4-.8v1.6a1.1 1.1 0 0 0 2.3 0V44l1.5.8.5.2a1.2 1.2 0 0 0 1.1-1.5c0-.3-.3-.6-.5-.7zM31.7 33.2l-1.4-.8 1.4-.9a1.1 1.1 0 0 0 .4-1.5 1.1 1.1 0 0 0-1.5-.4l-1.5.8v-1.6a1.1 1.1 0 0 0-2.2 0v1.6l-1.5-.8a1.1 1.1 0 1 0-1.1 2l1.4.8-1.4.9a1.1 1.1 0 0 0 .6 2h.5l1.5-1v1.8a1.1 1.1 0 0 0 2.2 0v-1.7l1.5.8.5.2a1.1 1.1 0 0 0 .6-2.1zM25 42.7l-1.5-.9 1.4-.8a1.1 1.1 0 0 0-1.1-2l-1.5.9v-1.7a1.1 1.1 0 1 0-2.2 0V40l-1.5-.8a1.2 1.2 0 0 0-1.1 2l1.4.8-1.4.8a1.1 1.1 0 0 0-.4 1.6 1.1 1.1 0 0 0 1.5.4l1.5-.8v1.6a1.1 1.1 0 0 0 2.3 0V44l1.4.8.6.2a1.1 1.1 0 0 0 .6-2.2z" transform="translate(910 349)"/><path d="M55 18.6a13 13 0 0 0-11.7-10 16.9 16.9 0 0 0-30 3.6 11.3 11.3 0 1 0-1.4 22.5h3.7a2.3 2.3 0 1 0 0-4.6h-3.7A6.8 6.8 0 1 1 14.1 17a2.3 2.3 0 0 0 3-1.7 12.3 12.3 0 0 1 23-3.4c.3.8 1.1 1.3 2 1.2h.2a8.5 8.5 0 1 1 0 17h-1.8a2.3 2.3 0 1 0 0 4.6h1.8a13 13 0 0 0 12.7-16z" transform="translate(910 349)"/></g><g fill="#FFF" opacity=".5"><path d="M45.6 34.3c-1 .3-2 .4-3 .4h-5.2a2.3 2.3 0 1 1 0-4.6h5.2c.6 0 1.3 0 2-.2a8.5 8.5 0 0 0-2-16.8h-.3c-.8 0-1.6-.4-2-1.2a12.3 12.3 0 0 0-23 3.4 2.3 2.3 0 0 1-3 1.7A6.8 6.8 0 1 0 12 30h7.6a2.3 2.3 0 1 1 0 4.6H12a11.3 11.3 0 1 1 1.3-22.5 16.9 16.9 0 0 1 30.2-3.6 13 13 0 0 1 2 25.7z" transform="translate(753 347)"/><path d="M29.2 34.1h3.2l-6.8 16.5 1.6-11.9h-3.1l2.5-13.2h6.2z" transform="translate(753 347)"/></g><g fill="#FFF" opacity=".5"><path d="M25.3 11.8c-1.3 0-2.3-1-2.3-2.3V3a2.3 2.3 0 1 1 4.6 0v6.5c0 1.3-1 2.3-2.3 2.3zM9 28H2.5a2.3 2.3 0 1 1 0-4.5H9a2.3 2.3 0 1 1 0 4.6zM25.3 50.9c-1.3 0-2.3-1-2.3-2.3V42a2.3 2.3 0 0 1 4.6 0v6.6c0 1.3-1 2.3-2.3 2.3zM48.1 28h-6.5a2.3 2.3 0 1 1 0-4.5H48a2.3 2.3 0 1 1 0 4.6z" transform="translate(286 347)"/><path fill-rule="nonzero" d="M25.3 37.8a12 12 0 1 1 0-24 12 12 0 0 1 0 24zm0-19.5a7.5 7.5 0 1 0 0 15 7.5 7.5 0 0 0 0-15z" transform="translate(286 347)"/><path d="M13.8 16.6c-.6 0-1.2-.3-1.6-.7l-2.3-2.3a2.3 2.3 0 0 1 3.2-3.2l2.3 2.3a2.3 2.3 0 0 1-1.6 3.9zM11.5 41.9A2.3 2.3 0 0 1 9.9 38l2.3-2.3a2.3 2.3 0 1 1 3.2 3.2l-2.3 2.3c-.5.4-1 .7-1.6.7zM39.1 41.9c-.6 0-1.2-.3-1.6-.7L35.2 39a2.3 2.3 0 0 1 3.2-3.2l2.3 2.3a2.3 2.3 0 0 1-1.6 3.9zM36.8 16.6a2.3 2.3 0 0 1-1.6-4l2.3-2.2a2.3 2.3 0 0 1 3.2 3.2l-2.3 2.3c-.4.4-1 .7-1.6.7z" transform="translate(286 347)"/></g><rect width="91.5" height="28" x="265.5" y="263.1" fill="#F6F7F9" rx="14"/><rect width="91.5" height="28" x="422.1" y="263.1" fill="#F6F7F9" rx="14"/><rect width="91.5" height="28" x="578.8" y="263.1" fill="#F6F7F9" rx="14"/><rect width="91.5" height="28" x="735.4" y="263.1" fill="#F6F7F9" rx="14"/><rect width="91.5" height="28" x="892" y="263.1" fill="#F6F7F9" rx="14"/><path fill="url(#dudeG)" d="M422.1 368.8s-29.8-30-39.1-30.4c-5.4-.2-11.6-2.9-16-5.1l-1-.6c1-1.3.5-2 0-2.4l-.6-.2-71.1-56.2c.6-1.1-3.2-13-3.2-13l-3.7-12.5-8-10.3s2.2-7.3 0-10.9c-2.3-3.6-1.8-12.1-3.4-32.8-1.5-20.6-10-21.9-10-21.9s-32.7-21.7-36.4-21c-3.5.5-8.3-6.3-8.9-7.2l-.1.1v-2.3-.9a49.5 49.5 0 0 1 3.8-12 39.3 39.3 0 0 0 27.3-27l.1-.7 4.9.4h.3c-.5-1-1-2.2-1.1-3.4h-.3l-.2-1.8.4 1.2c-.4-3.6.2-7.2 1.6-10.6 1.8-4.6 4.6-8.8 6.7-13.4 1.5-3 2.2-6.5 2-9.9 0-1.2-.4-2.4-.9-3.5v.9a9.5 9.5 0 0 0-4.6-5.7c-1.8-.9-4-1-5.6-2.2-5-3.2-4.7-8.5-11.2-10.2-5.3-1.4-10.9-1.4-16.2-2.8a51.4 51.4 0 0 0-32.4 2.8 66 66 0 0 0-22.7 14 32 32 0 0 0-10 23.7c0 2.8.9 5.6 2.3 8 1.3 2 3.3 3.8 4 6.1.8 2.8-.3 5.6-.3 8.5 0 2.6 1.8 5.6 4.2 5.5h1c.9-.3 1.7-.9 2.2-1.6a23.2 23.2 0 0 0 1.7 3.4l-.2 1.3c-1 3.2-2.7 6-5 8.4-.7 0-1.3.2-1.8.5l-.5.3-16.2 8.2h-1.8c-5.2-.1-20.3-.2-22.6.7-2.8 1.1-30.1 3.3-30.1 3.3s-14.6.9-13.8 22c0 0-5.5 18-7.1 21-1.7 3-11.3 32-11.3 32L56 264.2l-1.4 61.6-.2 15.3c-.5 13.8-1.1 25.3-2.1 27.3l1 .4-.2.5 1-.2 6.1 2.3S45 388.8 56 393.2c5.5 2.2 18.5 8.5 30.3 14.3a75.9 75.9 0 0 0 3 38.5c1.5 7.2 1.8 14.6.8 21.9-1.8 11 .1 47.7.1 47.7l-.1 64.1s2.4 41.2 4.4 50c2.1 8.9-4.4 12.5-4.4 12.5s4.3 24.2 9.4 27.4l-.3 1.5c-1 4-2.3 7.8-4 11.6C91.8 691 94 697 94 697s.3 11.8 21.7 14.2c21.3 2.4 20.4-12.5 18.7-18.2a89.8 89.8 0 0 1 .6-23.9c1.3-.8 3-2.6 5-6.4 4.2-8.3 0-28.1-3-34.7-3-6.5-.3-13.6-.3-13.6s-3.2-36.6 0-39.7c3.3-3.1 2.7-17 2.7-17l5.3-28.7 6.3-12.2 1.7-26.7 5-23.6s2.1-2 3.9-20.7c1.8-18.7 4.1-12.8 4.1-12.8-.8 12.5 6 18.8 6 18.8l1.8 32.6s2.3 24.4 6.1 30.4 0 13.3 0 13.3 1.3 23.3.2 30.1c-1.1 6.8 4.3 22.5 4.3 22.5l1.5 28s-8.9 25.3-4.8 33.6c4.2 8.2 2.1 17.8 2.1 17.8.2.6.5 1.1 1 1.5l-.4 1.4c-.6 3-1 6-1.3 9 0 0 2.2 3 12.1 6.7 10 3.7 7.8 10 9.2 14 1.5 4 11.6 7.5 31.4 6.6 20-.8 7.3-15.2 7.3-15.2s-10.4-14.6-14-16.6c-1.2-.7-2.4-3-3.6-5.6l-.7-1.5.9-.3s5.3-42 1.4-46c-3.8-4 1.3-31.2 1.3-31.2s2.6-9 1.4-11.6c-1.2-2.6 1.2-12.5 1.2-12.5s1.7-27-1.5-33.2c-3.3-6.2 1.8-42.6 1.8-42.6s2-34 7.3-46.3c1-2.2 1.5-7 1.9-13.2 2.9-1.4 4.7-2.5 4.7-2.5s6-80.9 2.4-90.9a58.6 58.6 0 0 1-3-19.9l6.9-24.4s4.4 12 7.3 13.6c2.9 1.5 6.4 7.4 6.4 7.4l30.5 24.3 23.6 17.2 20.9 17.3c.4-4 1.7-7.9 3.7-11.4l.8.3a34 34 0 0 0 7.5 2.4c-.6-.4-.3-2.6.8-5.4l.9.8c4.3 4 8.9 7.9 13.7 11.4 22 16.9 33.7-2 33.7-2s11.1 9.7 16.6 11.8c5.5 2.1 5.2-4.7 5.2-4.7z"/><path fill="#B07473" d="M184.9 670.2s2 3 11.5 6.6c9.4 3.7 7.3 10 8.7 13.9 1.5 4 11 7.4 29.9 6.6 18.9-.9 6.9-15 6.9-15s-9.9-14.6-13.2-16.6c-1.2-.7-2.4-2.9-3.6-5.6-1.5-3.7-2.7-7.6-3.8-11.6 0 0-31 4.3-33.3 7.4-1 1.6-1.6 3.4-1.9 5.3-.6 3-1 6-1.2 9zM101 695s.3 11.7 20.6 14.1c20.3 2.4 19.5-12.4 17.8-18a95 95 0 0 1 .4-22l1-8.7s-34.1.7-33.8 2.6c0 2.1-.3 4.3-1 6.4-.9 3.9-2.1 7.7-3.7 11.5-3.3 8.2-1.2 14.1-1.2 14.1z"/><path fill="#EFB7B9" d="M341.6 346.4a27 27 0 0 0 5.4 6.7c4.2 4 8.5 7.7 13 11.3 21 16.7 32-2 32-2S402.7 372 408 374c5.2 2 5-4.7 5-4.7s-28.3-29.7-37.2-30c-5.1-.3-11-3-15-5.2-3-1.6-5.1-3-5.1-3l-7.7 7.3-6.6 6.4s-.3.3.3 1.5z"/><path fill="#000" d="M188 655.9c-1 1.6-1.6 3.5-1.9 5.3 5.3 7.7 36.4-.3 39-1-1.5-3.8-2.8-7.6-3.8-11.6 0 0-31 4.2-33.3 7.3zM106 669.3l.7.5c5 2.3 31-.1 31-.1.8.1 1.6 0 2.2-.5.4-5 .9-8.8.9-8.8s-34 .7-33.8 2.5c0 2.2-.3 4.4-1 6.4z" opacity=".1"/><path fill="#444053" d="M96.7 446a66 66 0 0 1 .7 21.8c-1.7 11 .1 47.3.1 47.3v63.6s2.2 40.9 4.1 49.6c2 8.7-4.2 12.4-4.2 12.4s4.2 25 9.3 27.4c5 2.3 31 0 31 0s3.1 1 7-7c3.9-8.2 0-28-2.8-34.5s-.3-13.5-.3-13.5-3.1-36.3 0-39.4c3.1-3 2.5-16.9 2.5-16.9l5.1-28.4 6-12.2 1.6-26.5 4.8-23.3s2-2 3.7-20.6c1.6-18.6 4-12.7 4-12.7-1 12.4 5.6 18.6 5.6 18.6l1.7 32.4s2.2 24.2 5.8 30.1c3.6 6 0 13.3 0 13.3s1.2 23 .2 29.9c-1.1 6.7 4 22.2 4 22.2l1.5 27.9s-8.4 25-4.5 33.2c4 8.2 2 17.8 2 17.8 3.1 9.8 39.8 0 39.8 0s5-41.7 1.3-45.7c-3.6-3.9 1.2-31 1.2-31s2.5-9 1.4-11.5c-1.2-2.5 1-12.4 1-12.4s1.8-26.8-1.3-33c-3.1-6.1 1.7-42.2 1.7-42.2s2-33.8 7-46c.8-2.1 1.4-6.8 1.7-13 1.5-27.7-1.8-85-1.8-85L223.8 320l-14.4-.8-13.8-.7-26-1.4-25.8-1.4-31.5-1.6s-6.4 58-15.6 83a78.4 78.4 0 0 0 0 49z"/><path fill="#EFB7B9" d="M173.3 125.2l11.2 27.5 24.3 4s12.9 4.4 12.3-6.6c-.4-5.8 1.4-12 3.2-16.5.9-2.3 2-4.5 3-6.7 0 0-49.8-28-47-18.6.6 2.1.6 4.3.1 6.4a21.2 21.2 0 0 1-7 10.5z"/><path fill="#B07473" d="M202.5 325.2h-54.7l2.8 19.2h53z"/><path fill="#000" d="M202.5 325.2h-54.7l2.8 19.2h53zM341.6 346.4a27 27 0 0 0 5.4 6.7c1.9-5.5 6-13.4 10.2-16a11 11 0 0 0 3.4-2.9c-3-1.6-5-3-5-3l-7.7 7.4-6.3 7.8z" opacity=".1"/><path fill="#E1E7EF" d="M334.3 353.7a423.4 423.4 0 0 0 11.2 4c-1.8-1.2 4.6-17.4 11-21.5 4.7-3 3.8-4.4 3-5l-.5-.2-5.1-1.9-19.6 24.6z"/><path fill="#000" d="M180.3 108.4c.6 2 .6 4.3.1 6.4a38.1 38.1 0 0 0 43.9 18.9c.9-2.3 2-4.6 3-6.7 0 0-49.7-28.2-47-18.6z" opacity=".1"/><path fill="#EFB7B9" d="M176 95.2a38.1 38.1 0 1 0 76.2 0 38.1 38.1 0 0 0-76.2 0z"/><path fill="#E1E7EF" d="M142.5 325.3l24.3 1.1 28 1.2 13.6.7 1-9.2 10.8-94.6 3.6-71.6h-9.7l-26.8-4.4-9.6-3.6-12.4-4.7-10.1 20.7-3.4 94.9-8 59.8z"/><path fill="#000" d="M175.6 220.3s9.8-42.4 16.5-50.7c0 0-2.5-14.6-8.1-16.5-5.6-1.9 8.5-4.6 8.5-4.6l8.7 3 8.7 3.5s-7.7 6.8-6.4 15.7c-.7 4-.3 8 1 11.8 2.4 6 2.8 53.9 0 60.2-2.7 6.4-2.3 20.3-2.3 20.3l-5.6 27.2-2 32.8-20.4 15.2-14.4-18 15.8-99.9z" opacity=".1"/><path fill="#B07473" d="M174.8 219.5s9.7-42.5 16.5-50.7c0 0-2.6-14.6-8.2-16.5-5.5-1.9 8.6-4.7 8.6-4.7l8.7 3 8.6 3.6s-7.6 6.8-6.3 15.6c-.7 4-.4 8 1 11.8 2.3 6 2.7 54 0 60.3-2.8 6.3-2.3 20.2-2.3 20.2l-5.7 27.3-2 32.7-20.4 15.2-14.4-18 15.9-99.8z"/><path fill="#000" d="M221.5 144.5l-21.2 7S211 156.9 211 173c0 0 10.8-13.1 10.6-28.5z" opacity=".1"/><path fill="#E1E7EF" d="M221.5 143.6l-21.2 7s10.6 5.5 10.6 21.5c0 0 10.8-13 10.6-28.5z"/><path fill="#000" d="M175.6 124s10.4 17.8 24.8 27.5c0 0-8.8-3.2-24.8 9 0 0-10-35.7 0-36.5z" opacity=".1"/><path fill="#E1E7EF" d="M175.6 123.1s10.4 17.9 24.8 27.6c0 0-8.8-3.3-24.8 9 0 0-10-35.8 0-36.6z"/><path fill="#000" d="M334.3 353.7l4 1.5c6.3-12.1 19-22.2 21.2-24l-.5-.2-5.1-1.9-19.6 24.6zM191.7 383.8c.6 14.2 8.4 40.4 8.4 40.4 9.9 13.6 31.6 3.6 39.3-.6 1.5-27.6-1.8-84.8-1.8-84.8l-13.8-19-14.4-.7 10.8-94.6 3.6-71.6h-5.4c-1.7 7.3-4.5 19.6-4 22.6.7 4.4-6.6 48-6.6 48l-9 55.4-2.5 15c.8 2.6.2 13.4-.8 24.5l-.8 9.2-2 18.9c-1.2 9.7-1 37.3-1 37.3z" opacity=".1"/><path fill="#67647E" d="M193.4 383c.6 14.1 8.4 40.3 8.4 40.3 12 16.7 42-2 42-2s5.7-80.4 2.3-90.3c-2-6.3-3-13-2.9-19.6l6.5-24.3s4.3 12 7 13.5c2.8 1.5 6.2 7.4 6.2 7.4l28.9 24 22.4 17.2 19.9 17C335.4 348.6 359 331 359 331l-67.6-55.8c.6-1-3-12.9-3-12.9l-3.6-12.3-7.6-10.3s2.1-7.1 0-10.7c-2.1-3.6-1.7-12-3.2-32.6-1.4-20.5-9.4-21.7-9.4-21.7s-31-21.6-34.7-21c-3.3.7-7.8-6-8.4-7v-.1s-6 23.7-5.4 28c.7 4.5-6.6 48-6.6 48l-9 55.4-2.5 15.1c1.8 5.7-3.6 52.5-3.6 52.5-1.2 9.8-1 37.4-1 37.4z"/><path fill="#000" d="M93.8 407.8L117 420s18.8 6.2 26.4-29l21.8-59.8 1.5-4.8 2.7-9.4c4.3-15.2 10-38.5 7.9-47.7v-.7l-.4-81.8s2.3-38.5.8-41.6v-.3l-12.5-4.7L155 161l-3.3 94.9-8 59.8-31.5-1.7S106 372 96.7 397a66 66 0 0 0-3 10.8z" opacity=".1"/><path fill="#67647E" d="M65 393.7c10.6 4.3 50.4 25.5 50.4 25.5s18.8 6.2 26.4-29l21.8-59.9s15.3-47.7 12-61.8v-.7l-.3-81.9s2.3-38.4.8-41.6c-1.3-3-3-11.9-2.3-19.5l.2-1.2-.5.3L158 132h-1.7c-5 0-19.4-.2-21.6.8-2.6 1-28.6 3.3-28.6 3.3s-13.8.8-13 21.8c0 0-5.3 17.8-6.8 20.8s-10.7 31.8-10.7 31.8L65 265.7l-1.3 61.1s-.1 39-2.2 42.3l7.6 3s-14.6 17.2-4 21.6z"/><path fill="#EFB7B9" d="M102.5 359l4.8 6.4s29.3 53-3.4 45.3C71.2 403 76 376.2 76 376.2l2-18.6 24.5 1.4z"/><path fill="#000" d="M143.7 645.6c-.7-.1-12-5-20-5-7.9 0-18.4-.8-17.1 1.4 1.2 2 16.4 2.4 20.8 4.5 4.4 2 13.7 7.9 14.5 8.1.9.3 1.8-9 1.8-9zM222.3 621.7c-.1.8-16.9 19.6-26.2 18.8-9.3-.8 26.2-18.8 26.2-18.8zM217.4 576.8s-18 45.7-23.8 48.1c-5.8 2.4-6.6-5.6-3.5-7.9 3-2.2 12.7-17 27.3-40.3zM124.7 561.7s-3 16.9 4.5 27.9-4.5-28-4.5-28zM172 408.5a875 875 0 0 0-26.8-1.4s12.2 13.3 26.9 1.4zM168.7 420.1l-16.5 1.6s5.8 7 16.5-1.6zM266.1 244.5s14.8 2 16.2 6.4c1.4 4.3-16.2-6.4-16.2-6.4zM292.3 280.7a35.5 35.5 0 0 0-16.7-1.4c-6.5 1.7-15.7-3-15.7-3s-9.3-.4-7.4 1c1.8 1.2 7.3.6 10.4 2.5 3 1.8 11.2 3.3 13.3 2.5 2-.9 16.1-1.6 16.1-1.6z" opacity=".1"/><path fill="#67647E" d="M200.4 278l.4 7.7s25.9-63.7 32.4-77.4c6.4-13.6 2.8-43.3 2.8-43.3l-3.7-.9-10.7-17.4v-.1s-6 23.7-5.4 28c.7 4.5-6.6 48-6.6 48l-9.2 55.4zM148.6 144.7s10.6 109.5 27.1 123l-.4-81.8s2.3-38.4.8-41.6c-1.3-3-3-11.9-2.2-19.5l-.4-.9-15.4 8.1h-1.7l-1 14.6-6.8-2z"/><path fill="#000" d="M200.4 278l.4 7.7s25.9-63.7 32.4-77.4c6.4-13.6 2.8-43.3 2.8-43.3l-3.7-.9-10.7-17.4v-.1s-6 23.7-5.4 28c.7 4.5-6.6 48-6.6 48l-9.2 55.4zM148.6 144.7s10.6 109.5 27.1 123l-.4-81.8s2.3-38.4.8-41.6c-1.3-3-3-11.9-2.2-19.5l-.4-.9-15.4 8.1h-1.7l-1 14.6-6.8-2z" opacity=".1"/><circle cx="203.6" cy="296.1" r="3.1" fill="#444053"/><circle cx="200.4" cy="342.7" r="3.1" fill="#444053"/><path fill="#000" d="M176 95.2c0 5.5 1.2 11 3.5 16l.5-.7c6.1-7.7 7.4-18.3 13-26.5 2-3 4.5-5.6 7.8-6.7 3.3-1 7.3-.2 9.4 2.7 1.3 1.8 1.6 4.2 3 6 2.6 3.3 7.5 3.3 11.7 2.6 4.1-.6 8.8-1.3 12 1.5 3.2 2.7 3.5 7.5 6 10.7 2 2.4 5 3.6 8 4a38 38 0 1 0-75-9.5z" opacity=".1"/><path fill="#585268" d="M197.4 46.4a62.4 62.4 0 0 0-21.6 13.8c-6 6.3-10 14.9-9.6 23.7.1 2.7.9 5.4 2.2 7.8 1.3 2 3.2 3.8 3.9 6.1.7 2.7-.3 5.6-.3 8.4 0 2.8 2 6.2 4.7 5.4 1-.3 1.8-1 2.4-1.9 6.2-7.7 7.5-18.4 13-26.5 2-3 4.5-5.6 7.8-6.7 3.3-1 7.4-.2 9.4 2.6 1.3 1.9 1.6 4.2 3 6 2.6 3.4 7.5 3.3 11.7 2.7 4.1-.6 8.8-1.3 12 1.4 3.3 2.8 3.5 7.6 6 10.8 3.2 3.9 8.8 4.4 13.7 4.6-2-4.5-1.3-9.8.4-14.4 1.8-4.7 4.4-8.9 6.3-13.4a21 21 0 0 0 2-9.8c-.3-3.4-2-6.7-4.9-8.2-1.7-.9-3.7-1.1-5.3-2.2-4.7-3.3-4.4-8.5-10.7-10.2-5-1.3-10.3-1.3-15.4-2.7-11-3.1-20.2-1.2-30.7 2.7z"/><path fill="#000" d="M86.3 363.5s-8.6 8.5-9.7 8.4c-1.2-.2-2.8-7.7-2.8-7.7l12.5-.7z" opacity=".1"/><path fill="#E1E7EF" d="M85.4 362.7s-8.6 8.4-9.7 8.3c-1.1-.1-2.8-7.6-2.8-7.6l12.5-.7z"/><path fill="#000" d="M62.3 369.9s36.7-8.5 45.8-4.5c0 0-3.4-20.7-2.8-24.5.5-3.8-.1-17-.1-17s-2.2-24.7.7-31.6c2.8-7 1.2-25.2 1.2-25.2l-41.7 19.8s-.5 77.5-3 83z" opacity=".1"/><path fill="#67647E" d="M61.5 369s36.6-8.4 45.8-4.5c0 0-3.4-20.7-2.8-24.5.5-3.8-.2-17-.2-17s-2.1-24.6.7-31.5c2.8-7 1.3-25.2 1.3-25.2L64.6 286s-.6 77.4-3.1 83z"/><g fill="#000" opacity=".1"><path d="M88.9 37.6c-1.7-4.4-1-9.5.7-13.9 1.7-4.6 4.4-8.8 6.3-13.3a21 21 0 0 0 2-10c.4 1.2.7 2.4.8 3.6a21 21 0 0 1-2 9.8c-1.9 4.5-4.5 8.7-6.3 13.3A22.3 22.3 0 0 0 89 37.6zM10.1 45.2c1-.3 1.9-1 2.5-1.9 6.1-7.7 7.4-18.4 12.9-26.5 2-3 4.6-5.6 7.9-6.7 3.3-1 7.3-.2 9.3 2.6 1.3 1.9 1.7 4.2 3 6 2.6 3.4 7.5 3.3 11.7 2.7 4.1-.6 8.9-1.3 12 1.4 3.3 2.8 3.5 7.6 6 10.8 3.2 3.8 8.7 4.4 13.5 4.6.2 1.1.6 2.3 1 3.4-4.9-.2-10.5-.7-13.6-4.6-2.6-3.3-3-8.1-6-10.8-3-2.7-8-2-12-1.4-4.2.6-9.2.7-11.8-2.7-1.3-1.8-1.7-4.1-3-6-2-2.9-6-3.7-9.3-2.6a16 16 0 0 0-7.9 6.6c-5.5 8.2-6.8 19-13 26.6-.5.9-1.4 1.5-2.4 2-2.6.6-4.7-2.7-4.7-5.5V43c.9 1.5 2.3 2.6 4 2.1zM1.9 25.3C3 27.4 5 29.1 5.7 31.5c.2.6.3 1.3.3 2-.9-1.7-2.3-3.1-3.3-4.8C1.7 27 1 25 .7 23c.3.9.7 1.7 1.2 2.4z" transform="translate(166 63)"/></g></g></symbol>
	<symbol id="clouds" viewBox="0 0 344 147" xml:space="preserve"><use transform="translate(172 73)" xlink:href="#cloudP"/></symbol>
</svg>
