<svg id="Wsprite" class="weather-sprite" xmlns="http://www.w3.org/2000/svg" xmlns:xlink="http://www.w3.org/1999/xlink" xml:space="preserve" style="position:absolute;width:0;height:0;visibility:hidden;">
	<defs>
		<linearGradient id="dudeG" x1="50%" x2="50%" y1="100%" y2="0%"><stop offset="0%" stop-color="gray" stop-opacity=".3"/><stop offset="54%" stop-color="gray" stop-opacity=".1"/><stop offset="100%" stop-color="gray" stop-opacity=".1"/></linearGradient>
		<linearGradient id="rose-gradient" gradientUnits="userSpaceOnUse" x1="54.331" y1="347.917" x2="763.678" y2="720.868"><stop stop-color="#f15f58" offset="0"/><stop stop-color="#c55254" offset=".094"/><stop stop-color="#97444f" offset=".208"/><stop stop-color="#70384c" offset=".326"/><stop stop-color="#502e48" offset=".447"/><stop stop-color="#372746" offset=".571"/><stop stop-color="#252144" offset=".701"/><stop stop-color="#1a1e43" offset=".839"/><stop stop-color="#171d43" offset="1"/></linearGradient>
		<linearGradient id="moonDark" gradientUnits="userSpaceOnUse" x1="0%" y1="0%" x2="0%" y2="100%"><stop stop-color="var(--dY)" offset="0"/><stop stop-color="var(--bY)" offset="80%"/></linearGradient>
		<linearGradient id="moon" gradientUnits="userSpaceOnUse" x1="0%" y1="0%" x2="0%" y2="100%"><stop stop-color="var(--lY)" offset="0"/><stop stop-color="var(--dY)" offset="50%"/><stop stop-color="var(--bY)" offset="80%"/></linearGradient>
		<linearGradient id="bkgrd" gradientUnits="userSpaceOnUse" x1="0%" y1="0%" x2="0%" y2="100%"><stop stop-color="#f8b62d" offset="35%"/><stop stop-color="#808083" offset="75%"/></linearGradient>
		<radialGradient id="sunCore" gradientUnits="userSpaceOnUse" r="95" spreadMethod="pad"><stop stop-color="var(--s1)" offset="0"/><stop stop-color="var(--s2)" offset="10%"/><stop stop-color="var(--s3)" offset="30%"/><stop stop-color="var(--s4)" offset="100%"/></radialGradient>
		<radialGradient id="sunRays" gradientUnits="userSpaceOnUse" r="100%" spreadMethod="pad"><stop stop-color="var(--s4)" offset="5%"/><stop stop-color="var(--s3)" offset="72%"/><stop stop-color="var(--s2)" offset="94%"/><stop stop-color="var(--s1)" offset="100%"/></radialGradient>
		<radialGradient id="sunB" gradientUnits="userSpaceOnUse" r="20%" spreadMethod="pad"><stop stop-color="var(--s5)" offset="0"/><stop stop-color="var(--s6)" offset="100%"/></radialGradient>
		<radialGradient id="rain" gradientUnits="userSpaceOnUse" fx="5%" fy="5%" r="70%" spreadMethod="pad">
			<stop stop-color="rgb(133, 164, 254)" offset="0%"/>
			<stop stop-color="rgba(96, 148, 255, 0.5)" offset="20%"/>
			<stop stop-color="rgba(74, 130, 193, 0.6)" offset="35%"/>
			<stop stop-color="rgba(105, 139, 255, 0.7)" offset="65%"/>
			<stop stop-color="rgb(151, 145, 255)" offset="100%"/>
		</radialGradient>
		<linearGradient id="lightCloud" gradientUnits="userSpaceOnUse" x1="0%" y1="0%" x2="0%" y2="100%" spreadMethod="pad"><stop class="s5" stop-color="var(--wh)" offset="63%"/><stop class="s7" stop-color="var(--dG)" offset="83%"/><stop class="s8" stop-color="var(--bl)" offset="100%"/></linearGradient>
		<linearGradient id="darkCloud" gradientUnits="userSpaceOnUse" x1="0%" y1="0%" x2="0%" y2="100%" spreadMethod="pad"><stop stop-color="var(--lG)" offset="33%"/><stop stop-color="var(--dG)" offset="56%"/><stop stop-color="var(--bl)" offset="100%"/></linearGradient>
		<linearGradient id="cloudsG" gradientUnits="userSpaceOnUse" x1="0%" y1="0%" x2="0%" y2="100%" spreadMethod="pad"><stop stop-color="var(--pw)" offset="20%"/><stop stop-color="var(--dG)" offset="40%"/><stop stop-color="var(--bl)" offset="100%"/></linearGradient>
		<path id="cloudP" fill="url(#cloudsG)" d="M-84-39q-17 0-30 12-12 13-12 30l2 14q-6-3-14-3-14 0-24 10t-10 24q0 14 10 24l2 1h315l5-3q12-13 12-30t-12-30Q147-2 130-2q-14 0-25 8V3q0-14-10-24T71-31q-10 0-17 5-3-18-16-31Q22-73-1-73t-39 16q-13 12-15 29-12-11-29-11z"/>
	</defs>
	<symbol id="01d" viewBox="0 0 500 500" xml:space="preserve"><path fill="var(--wh)" d="M250.52 167c-45.87 0-83.19 37.31-83.19 83.18 0 45.87 37.32 83.19 83.2 83.19 45.86 0 83.18-37.32 83.18-83.19S296.4 167 250.52 167z"/><path fill="url(#sunRays)" d="M250.52 145.98c-57.46 0-104.2 46.74-104.2 104.2s46.74 104.2 104.2 104.2 104.2-46.74 104.2-104.2-46.74-104.2-104.2-104.2zm0 187.39c-45.87 0-83.19-37.32-83.19-83.19S204.65 167 250.53 167c45.86 0 83.18 37.32 83.18 83.2 0 45.86-37.31 83.18-83.19 83.18zm0-205.17c-5.8 0-10.51-4.71-10.51-10.51V60.15a10.5 10.5 0 1 1 21.02 0v57.54c0 5.8-4.71 10.5-10.51 10.5zm0 322.16c-5.8 0-10.5-4.7-10.5-10.51v-57.18a10.5 10.5 0 1 1 21 0v57.18c0 5.8-4.7 10.51-10.5 10.51zM439.5 260.69H383a10.5 10.5 0 1 1 0-21.02h56.5a10.5 10.5 0 1 1 0 21.02zm-321.47-.01H60.5a10.5 10.5 0 1 1 0-21.01h57.52a10.5 10.5 0 1 1 0 21.01zM344.2 167a10.5 10.5 0 0 1-7.43-17.94l30.85-30.85a10.5 10.5 0 0 1 14.86 14.86l-30.85 30.85a10.47 10.47 0 0 1-7.43 3.08zM125.64 385.57a10.5 10.5 0 0 1-7.43-17.94l31.19-31.2a10.51 10.51 0 0 1 14.86 14.86l-31.2 31.2a10.48 10.48 0 0 1-7.42 3.08zm249.82.06c-2.7 0-5.38-1.02-7.43-3.07l-31.66-31.66a10.5 10.5 0 0 1 14.86-14.86l31.65 31.66a10.5 10.5 0 0 1-7.42 17.94zM156.83 167c-2.69 0-5.38-1.02-7.43-3.08l-31.2-31.2a10.5 10.5 0 1 1 14.87-14.86l31.2 31.2a10.5 10.5 0 0 1-7.44 17.94z"/><path fill="url(#sunCore)" stroke="url(#sunCore)" d="M250.52 333.37c-45.87 0-83.19-37.32-83.19-83.19S204.65 167 250.53 167c45.86 0 83.18 37.32 83.18 83.2 0 45.86-37.31 83.18-83.19 83.18z"/></symbol>
	<symbol id="01n" viewBox="0 0 500 500" xml:space="preserve"><path fill="url(#moonDark)" stroke="url(#moonDark)" d="M386.4 280a134.1 134.1 0 0 1-165-166.5l5.3-18.4-18.4 5.2a156.3 156.3 0 0 0-81 54.9 153.8 153.8 0 0 0-32.1 94.5 155.4 155.4 0 0 0 249.2 123.6 156.4 156.4 0 0 0 55-80.1l5.4-18.4-18.4 5.2zm-136 103.7a134.1 134.1 0 0 1-53.8-256.8 156 156 0 0 0-1.8 24 155.4 155.4 0 0 0 177.8 153.7 134.8 134.8 0 0 1-122.2 79z"/><path fill="var(--dB)" d="M358.4 113.7l4.4 9 9.9 1.4-7.2 7 1.7 9.8-8.8-4.6-8.9 4.6 1.7-9.8-7.1-7 9.9-1.4zM277 125.5l6.6 13.4 14.8 2.2-10.7 10.4 2.5 14.7-13.2-7-13.3 7 2.5-14.7-10.7-10.4 14.8-2.2zm55.5 69.6l8 16.2 17.9 2.6-13 12.7 3 17.8-16-8.4-16 8.4 3.1-17.8-13-12.7 18-2.6z"/><path fill="url(#moon)" stroke="url(#moon)" d="M194.8 151c0-8 .6-16.1 1.9-24-48 21-80.3 69.2-80.3 122.7 0 73.9 60.1 134 134 134 53 0 101-31.8 122.3-79.1a156.3 156.3 0 0 1-22.7 1.6A155.4 155.4 0 0 1 194.8 151z"/></symbol>
	<symbol id="02d" viewBox="0 0 500 500" xml:space="preserve"><path fill="var(--wh)" d="M258.58 167c-45.88 0-83.2 37.31-83.2 83.18 0 45.87 37.32 83.19 83.2 83.19 45.87 0 83.18-37.32 83.18-83.19S304.45 167 258.58 167z"/><g id="rays" fill="url(#sunRays)"><path d="M258.58 145.98c-57.47 0-104.21 46.74-104.21 104.2s46.74 104.2 104.2 104.2 104.21-46.74 104.21-104.2-46.75-104.2-104.2-104.2zm0 187.39c-45.88 0-83.2-37.32-83.2-83.19S212.7 167 258.58 167c45.87 0 83.18 37.32 83.18 83.2 0 45.86-37.31 83.18-83.18 83.18zM258.57 128.2c-5.8 0-10.51-4.71-10.51-10.51V60.15a10.5 10.5 0 1 1 21.02 0v57.54c0 5.8-4.7 10.5-10.51 10.5zM258.57 450.36c-5.8 0-10.5-4.7-10.5-10.51v-57.19a10.5 10.5 0 1 1 21.01 0v57.19c0 5.8-4.7 10.51-10.5 10.51zM447.54 260.69h-56.48a10.5 10.5 0 1 1 0-21.02h56.48a10.5 10.5 0 1 1 0 21.02zM126.08 260.68H68.56a10.5 10.5 0 1 1 0-21.01h57.52a10.5 10.5 0 1 1 0 21.01zM352.25 167a10.5 10.5 0 0 1-7.43-17.94l30.85-30.85a10.51 10.51 0 0 1 14.86 14.86l-30.85 30.85a10.47 10.47 0 0 1-7.43 3.08zM133.69 385.57a10.51 10.51 0 0 1-7.43-17.94l31.19-31.2a10.51 10.51 0 0 1 14.86 14.86l-31.2 31.2a10.48 10.48 0 0 1-7.42 3.08zM383.5 385.63c-2.68 0-5.37-1.02-7.42-3.07l-31.66-31.66a10.5 10.5 0 0 1 14.86-14.86l31.66 31.66a10.5 10.5 0 0 1-7.43 17.94z"/><path d="M164.88 167c-2.69 0-5.38-1.02-7.43-3.08l-31.2-31.2a10.5 10.5 0 0 1 14.87-14.86l31.2 31.2a10.5 10.5 0 0 1-7.44 17.94z"/></g><path fill="url(#sunCore)" stroke="url(#sunCore)" d="M258.57 333.19c-45.88 0-83.2-37.32-83.2-83.19s37.33-83.19 83.2-83.19c45.87 0 83.19 37.32 83.19 83.19s-37.32 83.19-83.2 83.19z"/><g fill="url(#lightCloud)" stroke="url(#lightCloud)"><path d="M247.56 328.02a10.63 10.63 0 0 1-8.69-12.26c.28-1.62.41-3.05.41-4.37a24.94 24.94 0 0 0-24.91-24.92c-2.85 0-5.72.53-8.55 1.55a10.63 10.63 0 0 1-12.57-4.23 54.13 54.13 0 0 0-45.68-24.98 54.42 54.42 0 0 0-54.36 54.36c0 1.3.1 2.71.22 4.21.38 5.15-3 9.85-8.01 11.1a29.3 29.3 0 0 0-22.21 28.44 29.4 29.4 0 0 0 29.36 29.38h150a29.42 29.42 0 0 0 29.38-29.38 29.26 29.26 0 0 0-24.39-28.9z"/></g></symbol>
	<symbol id="02n" viewBox="0 0 500 500" xml:space="preserve"><path fill="url(#moon)" stroke="url(#moon)" d="M245 129l2-24a134 134 0 1 0 176 178 156 156 0 0 1-22 2c-86 0-156-70-156-156z"/><path fill="url(#moonDark)" stroke="url(#moonDark)" d="M437 258A134 134 0 0 1 272 92l5-19-18 6a156 156 0 0 0-81 54 155 155 0 0 0 217 218 156 156 0 0 0 55-80l5-18-18 5zM301 362a134 134 0 0 1-54-257 156 156 0 0 0-2 24 155 155 0 0 0 178 154c-21 47-69 79-122 79z"/><path fill="url(#lightCloud)" stroke="url(#lightCloud)" d="M250 347a11 11 0 0 1-9-12 25 25 0 0 0-24-29l-9 1a11 11 0 0 1-12-4 54 54 0 0 0-46-25 54 54 0 0 0-54 54v4c0 6-3 10-8 12a29 29 0 0 0-22 28 29 29 0 0 0 29 29h150a29 29 0 0 0 30-29 29 29 0 0 0-25-29z"/><path fill="url(#lightCloud)" stroke="url(#lightCloud)" d="M263 329a46 46 0 0 0-46-45l-8 1a75 75 0 0 0-59-28c-41 0-74 32-75 73a51 51 0 0 0-30 46 51 51 0 0 0 50 51h150a51 51 0 0 0 51-51 50 50 0 0 0-33-47zm-18 76H95a29 29 0 0 1-29-29 29 29 0 0 1 22-28c5-2 8-6 8-12v-4a54 54 0 0 1 54-54c19 0 36 9 46 25a11 11 0 0 0 12 4 25 25 0 0 1 9-1 25 25 0 0 1 25 24l-1 5a11 11 0 0 0 9 12 29 29 0 0 1 25 29 29 29 0 0 1-30 29z"/></symbol>
	<symbol id="03d" viewBox="0 0 500 500" xml:space="preserve"><path fill="var(--wh)" d="M299 183.9a83.7 83.7 0 0 0 0 167.1 83.7 83.7 0 0 0 0-167.1z"/><path fill="url(#sunCore)" stroke="url(#sunCore)" d="M300 351a84.6 84.6 0 1 1 .2-169.2A84.6 84.6 0 0 1 300 351z"/><path fill="url(#sunRays)" d="M299 162.8a104.8 104.8 0 0 0 0 209.4 104.8 104.8 0 0 0 0-209.4zm0 188.2a83.7 83.7 0 0 1 0-167.1 83.7 83.7 0 0 1 0 167.1zm189.8-73h-56.7a10.6 10.6 0 0 1 0-21.1h56.7a10.6 10.6 0 0 1 0 21.1zm-322.1 0h-56.8a10.6 10.6 0 0 1 0-21.1h56.8a10.6 10.6 0 0 1 0 21.1zm132.7-132.7a10.6 10.6 0 0 1-10.6-10.5V78a10.6 10.6 0 0 1 21.1 0v56.8c0 5.8-4.7 10.5-10.5 10.5zm93.7 38.6a10.6 10.6 0 0 1-7.5-18l31-31a10.6 10.6 0 0 1 15 15l-31 31a10.5 10.5 0 0 1-7.5 3zm31.4 219.6c-2.7 0-5.4-1-7.5-3l-31.7-31.9a10.6 10.6 0 1 1 14.9-14.9l31.8 31.8a10.6 10.6 0 0 1-7.5 18zM205 184c-2.7 0-5.4-1-7.5-3l-31.3-31.4a10.6 10.6 0 1 1 14.9-15l31.3 31.4a10.6 10.6 0 0 1-7.4 18zm-31.4 219.6a10.6 10.6 0 0 1-7.4-18l31.8-31.8a10.6 10.6 0 0 1 15 15L181 400.3a10.5 10.5 0 0 1-7.5 3.1z"/><path fill="url(#lightCloud)" d="M304 411.3H73a51 51 0 0 1-51-51 50.9 50.9 0 0 1 38.5-49.5c5-1.2 8.4-6 8-11l-.3-7a89.6 89.6 0 0 1 89.5-89.5 89.2 89.2 0 0 1 75.3 41.1 10.6 10.6 0 0 0 12.5 4.3 44.2 44.2 0 0 1 15.2-2.8 44.2 44.2 0 0 1 44.1 44.2c0 2.3-.2 4.9-.7 7.7a10.6 10.6 0 0 0 8.7 12.2 50.8 50.8 0 0 1 42.4 50.2 51 51 0 0 1-51 51z"/></symbol>
	<symbol id="03n" viewBox="0 0 500 500" xml:space="preserve"><path fill="url(#moon)" stroke="url(#moon)" d="M290 122l1-24a134 134 0 1 0 176 178 156 156 0 0 1-22 2c-86 0-155-70-155-156z"/><path fill="url(#moonDark)" stroke="url(#moonDark)" d="M481 251A134 134 0 0 1 316 85l5-19-18 6a156 156 0 0 0-81 55 154 154 0 0 0-32 94 155 155 0 0 0 249 124 156 156 0 0 0 55-80l6-19-19 5zM345 355a134 134 0 0 1-54-257 156 156 0 0 0-1 24 155 155 0 0 0 177 154c-21 47-69 79-122 79z"/><g fill="url(#lightCloud)" stroke="url(#lightCloud)"><path d="M304 412H73c-28 0-51-23-51-51a51 51 0 0 1 38-49c5-1 9-6 8-11v-7c0-50 40-90 89-90a89 89 0 0 1 76 41 11 11 0 0 0 12 5 44 44 0 0 1 15-3 44 44 0 0 1 45 44l-1 8a11 11 0 0 0 9 12 51 51 0 0 1 42 50 51 51 0 0 1-51 51z"/><path d="M326 292v-1a65 65 0 0 0-66-65l-14 1a110 110 0 0 0-89-44c-61 0-110 50-110 111a72 72 0 0 0-47 67c0 40 33 73 73 73h231c40 0 72-33 72-73a72 72 0 0 0-50-69zm-22 120H73c-28 0-51-23-51-51a51 51 0 0 1 38-49c5-1 9-6 8-11v-7c0-50 40-90 89-90a89 89 0 0 1 76 41 11 11 0 0 0 12 5 44 44 0 0 1 15-3 44 44 0 0 1 45 44l-1 8a11 11 0 0 0 9 12 51 51 0 0 1 42 50 51 51 0 0 1-51 51z"/></g></symbol>
	<symbol id="04d" viewBox="0 0 500 500" xml:space="preserve"><path fill="--wh" d="M374.2 252.8a10.6 10.6 0 0 1-8.7-12.3c.5-2.8.8-5.3.8-7.7a44.2 44.2 0 0 0-44.2-44.1c-5 0-10.1.9-15.1 2.7a10.6 10.6 0 0 1-12.6-4.2 89.2 89.2 0 0 0-75.2-41.2 89.6 89.6 0 0 0-89.2 96.4c.4 5.2-3 9.9-8 11.2A50.9 50.9 0 0 0 83.4 303a51 51 0 0 0 51 51h231.2a51 51 0 0 0 51-51c0-25-17.8-46-42.4-50.2z"/><g fill="url(#lightCloud)" stroke="url(#lightCloud)"><path d="M387.5 234.1v-1.3a65.5 65.5 0 0 0-65.4-65.4c-4.8 0-9.7.5-14.4 1.6a110.2 110.2 0 0 0-88.5-44.2c-61.1 0-110.8 49.6-110.8 110.7v.1A72.1 72.1 0 0 0 62 303a72.4 72.4 0 0 0 72.3 72.4h231.2a72.4 72.4 0 0 0 72.3-72.4 72 72 0 0 0-50.4-68.8zm-22 119.9H134.5a51 51 0 0 1-51-51 50.9 50.9 0 0 1 38.6-49.4c5-1.3 8.4-6 8-11.2l-.3-6.9a89.6 89.6 0 0 1 89.5-89.5 89.2 89.2 0 0 1 75.2 41.1 10.6 10.6 0 0 0 12.6 4.3 44.2 44.2 0 0 1 15.1-2.8 44.2 44.2 0 0 1 44.1 44.2c0 2.3-.2 4.9-.7 7.7a10.6 10.6 0 0 0 8.7 12.3 50.8 50.8 0 0 1 42.4 50.2 51 51 0 0 1-51 51z"/><path d="M365.6 354H134.4a51 51 0 0 1-51-51 50.9 50.9 0 0 1 38.6-49.4c5-1.3 8.4-6 8-11.2l-.3-6.9a89.6 89.6 0 0 1 89.5-89.5 89.2 89.2 0 0 1 75.2 41.1 10.6 10.6 0 0 0 12.6 4.3 44.2 44.2 0 0 1 15.1-2.8 44.2 44.2 0 0 1 44.1 44.2c0 2.3-.2 4.9-.7 7.7a10.6 10.6 0 0 0 8.7 12.2 50.8 50.8 0 0 1 42.4 50.2 51 51 0 0 1-51 51z"/></g></symbol>
	<symbol id="04n" viewBox="0 0 500 500" xml:space="preserve"><path fill="url(#moon)" d="M290 122l1-24a134 134 0 1 0 176 178 156 156 0 0 1-22 2c-86 0-155-70-155-156z"/><path fill="url(#moonDark)" d="M481 251A134 134 0 0 1 316 85l5-19-18 6a156 156 0 0 0-81 55 154 154 0 0 0-32 94 155 155 0 0 0 249 124 156 156 0 0 0 55-80l6-19-19 5zM345 355a134 134 0 0 1-54-257 156 156 0 0 0-1 24 155 155 0 0 0 177 154c-21 47-69 79-122 79z"/><g fill="url(#lightCloud)" stroke="url(#lightCloud)"><path d="M304 412H73c-28 0-51-23-51-51a51 51 0 0 1 38-49c5-1 9-6 8-11v-7c0-50 40-90 89-90a89 89 0 0 1 76 41 11 11 0 0 0 12 5 44 44 0 0 1 15-3 44 44 0 0 1 45 44l-1 8a11 11 0 0 0 9 12 51 51 0 0 1 42 50 51 51 0 0 1-51 51z"/><path d="M326 292v-1a65 65 0 0 0-66-65l-14 1a110 110 0 0 0-89-44c-61 0-110 50-110 111a72 72 0 0 0-47 67c0 40 33 73 73 73h231c40 0 72-33 72-73a72 72 0 0 0-50-69zm-22 120H73c-28 0-51-23-51-51a51 51 0 0 1 38-49c5-1 9-6 8-11v-7c0-50 40-90 89-90a89 89 0 0 1 76 41 11 11 0 0 0 12 5 44 44 0 0 1 15-3 44 44 0 0 1 45 44l-1 8a11 11 0 0 0 9 12 51 51 0 0 1 42 50 51 51 0 0 1-51 51z"/></g></symbol>
	<symbol id="09d" viewBox="0 0 500 500" xml:space="preserve"><path fill="var(--dB)" d="M128 427a13 13 0 0 1-10-21l37-45a13 13 0 1 1 20 17l-37 45a13 13 0 0 1-10 4zm104 0a13 13 0 0 1-10-21l37-45a13 13 0 1 1 20 17l-37 45a13 13 0 0 1-10 4zm103 0a13 13 0 0 1-10-21l37-45a13 13 0 1 1 20 17l-37 45a13 13 0 0 1-10 4z"/><g fill="url(#darkCloud)" stroke="url(#darkCloud)"><path d="M366 315H134c-28 0-51-23-51-51a51 51 0 0 1 39-49c5-1 8-6 8-11v-7c0-49 40-90 89-90a89 89 0 0 1 75 42 11 11 0 0 0 13 4 44 44 0 0 1 15-3 44 44 0 0 1 44 44v8a11 11 0 0 0 8 12 51 51 0 0 1 43 50 51 51 0 0 1-51 51z"/><path d="M388 196v-2a65 65 0 0 0-66-65l-14 1a110 110 0 0 0-89-44c-61 0-111 50-111 111a72 72 0 0 0-46 67c0 40 33 73 72 73h232c39 0 72-33 72-73a72 72 0 0 0-51-68zm-22 119H134c-28 0-51-23-51-51a51 51 0 0 1 39-49c5-1 8-6 8-11v-7c0-49 40-90 89-90a89 89 0 0 1 75 42 11 11 0 0 0 13 4 44 44 0 0 1 15-3 44 44 0 0 1 44 44v8a11 11 0 0 0 8 12 51 51 0 0 1 43 50 51 51 0 0 1-51 51z"/></g></symbol>
	<symbol id="09n" viewBox="0 0 500 500" xml:space="preserve"><path fill="var(--dB)" d="M128 427a13 13 0 0 1-10-21l37-45a13 13 0 1 1 20 17l-37 45a13 13 0 0 1-10 4zm104 0a13 13 0 0 1-10-21l37-45a13 13 0 1 1 20 17l-37 45a13 13 0 0 1-10 4zm103 0a13 13 0 0 1-10-21l37-45a13 13 0 1 1 20 17l-37 45a13 13 0 0 1-10 4z"/><g fill="url(#darkCloud)" stroke="url(#darkCloud)"><path d="M366 315H134c-28 0-51-23-51-51a51 51 0 0 1 39-49c5-1 8-6 8-11v-7c0-49 40-90 89-90a89 89 0 0 1 75 42 11 11 0 0 0 13 4 44 44 0 0 1 15-3 44 44 0 0 1 44 44v8a11 11 0 0 0 8 12 51 51 0 0 1 43 50 51 51 0 0 1-51 51z"/><path d="M388 196v-2a65 65 0 0 0-66-65l-14 1a110 110 0 0 0-89-44c-61 0-111 50-111 111a72 72 0 0 0-46 67c0 40 33 73 72 73h232c39 0 72-33 72-73a72 72 0 0 0-51-68zm-22 119H134c-28 0-51-23-51-51a51 51 0 0 1 39-49c5-1 8-6 8-11v-7c0-49 40-90 89-90a89 89 0 0 1 75 42 11 11 0 0 0 13 4 44 44 0 0 1 15-3 44 44 0 0 1 44 44v8a11 11 0 0 0 8 12 51 51 0 0 1 43 50 51 51 0 0 1-51 51z"/></g></symbol>
	<symbol id="10d" viewBox="0 0 500 500" xml:space="preserve"><path fill="var(--dB)" d="M66.86 484.44a13 13 0 0 1-10.02-21.3l37.12-44.87a13 13 0 1 1 20.05 16.58L76.9 479.73a12.99 12.99 0 0 1-10.03 4.71zm104.04 0a13 13 0 0 1-10.02-21.3L198 418.27a13 13 0 1 1 20.04 16.58l-37.12 44.88a12.98 12.98 0 0 1-10.03 4.71zm102.8 0a13 13 0 0 1-10.01-21.3l37.13-44.87a13 13 0 0 1 20.04 16.58l-37.13 44.88a12.98 12.98 0 0 1-10.03 4.71z"/><path fill="url(#sunCore)" d="M299.4 312.85c-46.32 0-84-37.68-84-84s37.68-84 84-84c46.3 0 84 37.68 84 84s-37.69 84-84 84z"/><path fill="url(#sunRays)" d="M299 124.17c-57.72 0-104.68 46.96-104.68 104.68 0 57.72 46.96 104.69 104.69 104.69 57.72 0 104.68-46.97 104.68-104.69s-46.96-104.68-104.68-104.68zm0 188.25c-46.08 0-83.57-37.49-83.57-83.57 0-46.08 37.5-83.57 83.58-83.57 46.07 0 83.56 37.5 83.56 83.57 0 46.08-37.49 83.57-83.56 83.57zm189.84-73.02h-56.75a10.56 10.56 0 0 1 0-21.1h56.75a10.56 10.56 0 0 1 0 21.1zm-322.14 0h-56.75a10.56 10.56 0 0 1 0-21.1h56.75a10.56 10.56 0 0 1 0 21.1zm132.7-132.69a10.56 10.56 0 0 1-10.57-10.56V39.41a10.56 10.56 0 0 1 21.12 0v56.74c0 5.83-4.72 10.56-10.55 10.56zm93.7 38.59a10.56 10.56 0 0 1-7.46-18.02l30.99-31a10.57 10.57 0 0 1 14.94 14.92l-31 31a10.52 10.52 0 0 1-7.46 3.1zm31.41 219.63c-2.7 0-5.4-1.03-7.46-3.1l-31.8-31.8a10.56 10.56 0 0 1 14.92-14.94l31.8 31.81a10.56 10.56 0 0 1-7.46 18.03zM204.88 145.3c-2.7 0-5.4-1.04-7.46-3.1l-31.34-31.34A10.56 10.56 0 1 1 181 95.93l31.34 31.34a10.56 10.56 0 0 1-7.47 18.02zm-31.34 219.62a10.57 10.57 0 0 1-7.47-18.03l31.81-31.8a10.56 10.56 0 0 1 14.93 14.93l-31.8 31.8a10.53 10.53 0 0 1-7.47 3.1z"/><g fill="url(#darkCloud)" stroke="url(#darkCloud)"><path d="M304.02 373.12H72.86c-28.12 0-51-22.9-51-51.03a50.9 50.9 0 0 1 38.58-49.4c5-1.26 8.38-5.98 8-11.13a95.6 95.6 0 0 1-.34-6.9c0-49.36 40.16-89.51 89.53-89.51a89.16 89.16 0 0 1 75.22 41.13 10.63 10.63 0 0 0 12.58 4.23 44.17 44.17 0 0 1 15.13-2.73 44.2 44.2 0 0 1 44.15 44.14c0 2.36-.23 4.87-.71 7.7a10.63 10.63 0 0 0 8.68 12.26 50.82 50.82 0 0 1 42.37 50.2 51.09 51.09 0 0 1-51.03 51.04z"/><path d="M325.79 253.27a65.49 65.49 0 0 0-65.4-66.76c-4.82 0-9.65.56-14.41 1.66a110.24 110.24 0 0 0-88.52-44.28c-61.08 0-110.78 49.69-110.78 110.77v.07A72.12 72.12 0 0 0 .44 322.08c0 39.87 32.41 72.3 72.26 72.3h231.15c39.86 0 72.3-32.43 72.3-72.3a72.02 72.02 0 0 0-50.36-68.8zm-21.94 119.85H72.69c-28.12 0-51-22.9-51-51.03a50.9 50.9 0 0 1 38.58-49.4 10.65 10.65 0 0 0 8-11.13c-.17-2.42-.34-4.7-.34-6.9 0-49.35 40.16-89.51 89.53-89.51a89.16 89.16 0 0 1 75.22 41.13 10.63 10.63 0 0 0 12.58 4.23 44.17 44.17 0 0 1 15.13-2.73 44.2 44.2 0 0 1 44.15 44.15c0 2.35-.23 4.87-.71 7.69a10.63 10.63 0 0 0 8.69 12.26 50.82 50.82 0 0 1 42.36 50.2 51.09 51.09 0 0 1-51.03 51.04z"/></g></symbol>
	<symbol id="10n" viewBox="0 0 500 500" xml:space="preserve"><path fill="url(#moon)" stroke="url(#moon)" d="M290 83l1-24a134 134 0 1 0 176 178 156 156 0 0 1-22 1c-86 0-155-69-155-155z"/><path fill="url(#moonDark)" stroke="url(#moonDark)" d="M481 212A134 134 0 0 1 316 46l5-19-18 5a156 156 0 0 0-81 55 154 154 0 0 0-32 95 155 155 0 0 0 249 124 156 156 0 0 0 55-81l6-18-19 5zM345 316a134 134 0 0 1-54-257 156 156 0 0 0-1 24 155 155 0 0 0 177 154c-21 47-69 79-122 79z"/>
		<g fill="url(#darkCloud)" stroke="url(#darkCloud)"><path d="M313 272a11 11 0 0 1-9-12l1-8a44 44 0 0 0-45-44 44 44 0 0 0-15 3 11 11 0 0 1-12-5 89 89 0 0 0-76-41 90 90 0 0 0-89 97c1 5-3 9-8 11a51 51 0 0 0-38 49 51 51 0 0 0 51 51h231a51 51 0 0 0 51-51c0-25-18-46-42-50z"/><path d="M326 253v-1a65 65 0 0 0-66-65l-14 1a110 110 0 0 0-89-44c-61 0-110 50-110 111a72 72 0 0 0-47 67c0 40 33 72 73 72h231c40 0 72-32 72-72a72 72 0 0 0-50-69zm-22 120H73c-28 0-51-23-51-51a51 51 0 0 1 38-49c5-2 9-6 8-11a96 96 0 0 1 0-7c0-50 40-90 89-90a89 89 0 0 1 76 41 11 11 0 0 0 12 5 44 44 0 0 1 15-3 44 44 0 0 1 45 44l-1 8a11 11 0 0 0 9 12 51 51 0 0 1 42 50 51 51 0 0 1-51 51z"/></g><path fill="var(--dB)" d="M88 473a11 11 0 0 1-8-18l30-36a11 11 0 1 1 17 13l-31 37a11 11 0 0 1-8 4zm85 0a11 11 0 0 1-8-18l30-36a11 11 0 1 1 17 13l-31 37a11 11 0 0 1-8 4zm84 0a11 11 0 0 1-8-18l30-36a11 11 0 0 1 17 13l-31 37a11 11 0 0 1-8 4z"/></symbol>
	<symbol id="11d" viewBox="0 0 500 500" xml:space="preserve"><path fill="url(#sunCore)" d="M298.31 300.46c-46.87 0-85-38.13-85-85s38.14-85 85-85c46.87 0 85 38.13 85 85s-38.13 85-85 85z"/><path fill="url(#sunRays)" d="M298.32 110.06c-58.13 0-105.41 47.29-105.41 105.4 0 58.12 47.28 105.4 105.4 105.4 58.12 0 105.4-47.28 105.4-105.4 0-58.11-47.27-105.4-105.4-105.4zm0 189.55c-46.4 0-84.15-37.75-84.15-84.15 0-46.4 37.75-84.14 84.15-84.14 46.4 0 84.14 37.74 84.14 84.14s-37.75 84.15-84.14 84.15zm-.02-207.53a10.63 10.63 0 0 1-10.62-10.63v-58.2a10.63 10.63 0 1 1 21.26 0v58.2c0 5.87-4.76 10.63-10.63 10.63zM489.45 226.1h-57.13a10.63 10.63 0 1 1 0-21.27h57.13a10.63 10.63 0 0 1 0 21.26zm-96.39-94.77a10.64 10.64 0 0 1-7.52-18.14l31.21-31.21A10.63 10.63 0 0 1 431.78 97l-31.2 31.2a10.58 10.58 0 0 1-7.52 3.12zm31.62 221.15c-2.72 0-5.43-1.04-7.51-3.11l-32.02-32.03a10.64 10.64 0 0 1 15.03-15.03l32.02 32.02a10.64 10.64 0 0 1-7.52 18.15zM203.55 131.33a10.6 10.6 0 0 1-7.52-3.11l-31.55-31.56a10.63 10.63 0 0 1 15.03-15.03l31.55 31.56a10.63 10.63 0 0 1-7.51 18.14z"/><g id="cloud"><g fill="url(#darkCloud)" stroke="url(#darkCloud)"><path d="M303.33 359.28H72.17c-28.11 0-51-22.9-51-51.03a50.9 50.9 0 0 1 38.58-49.4 10.67 10.67 0 0 0 8.01-11.13c-.18-2.42-.34-4.7-.34-6.9 0-49.35 40.16-89.51 89.52-89.51a89.16 89.16 0 0 1 75.23 41.13 10.63 10.63 0 0 0 12.57 4.23 44.2 44.2 0 0 1 15.13-2.73 44.2 44.2 0 0 1 44.15 44.14c0 2.36-.23 4.88-.71 7.7a10.63 10.63 0 0 0 8.69 12.26 50.82 50.82 0 0 1 42.36 50.2 51.09 51.09 0 0 1-51.03 51.04z"/><path d="M325.27 239.44l.02-1.35a65.49 65.49 0 0 0-65.41-65.4c-4.83 0-9.66.55-14.42 1.64a110.24 110.24 0 0 0-88.52-44.28c-61.08 0-110.78 49.7-110.78 110.78v.07A72.1 72.1 0 0 0-.08 308.25c0 39.86 32.41 72.3 72.25 72.3h231.16c39.86 0 72.3-32.44 72.3-72.3a72.01 72.01 0 0 0-50.36-68.81zm-21.94 119.84H72.17c-28.12 0-51-22.9-51-51.03a50.9 50.9 0 0 1 38.58-49.4 10.67 10.67 0 0 0 8.01-11.13 95.7 95.7 0 0 1-.34-6.9c0-49.35 40.16-89.5 89.52-89.5a89.16 89.16 0 0 1 75.23 41.12 10.63 10.63 0 0 0 12.57 4.23 44.18 44.18 0 0 1 15.13-2.73 44.2 44.2 0 0 1 44.15 44.15c0 2.35-.23 4.87-.71 7.7a10.63 10.63 0 0 0 8.69 12.26 50.82 50.82 0 0 1 42.36 50.2 51.09 51.09 0 0 1-51.03 51.03z"/></g><path fill="var(--dB)" d="M65.77 471.06a13 13 0 0 1-10.02-21.3l37.13-44.88a13 13 0 1 1 20.05 16.59L75.8 466.35a13 13 0 0 1-10.03 4.7zm206.85 0a13 13 0 0 1-10.01-21.3l37.13-44.88a13 13 0 1 1 20.04 16.59l-37.13 44.88a13 13 0 0 1-10.03 4.7z"/><path fill="var(--dY)" d="M230.77 388.93h-31.12c-14.69 16.38-38.12 44.06-38.3 44.06h24.02l-44.6 66.07 82.76-76.16h-21.45l28.69-33.97z"/></g></symbol>
	<symbol id="11n" viewBox="0 0 500 500" xml:space="preserve"><path fill="url(#moon)" stroke="url(#moon)" d="M290 69l1-24c-48 21-80 69-80 122a134 134 0 0 0 256 55 156 156 0 0 1-22 2c-86 0-155-70-155-155z"/><path fill="url(#moonDark)" stroke="url(#moonDark)" d="M481 198A134 134 0 0 1 316 31l5-18-18 5a156 156 0 0 0-81 55 155 155 0 0 0 217 218 156 156 0 0 0 55-80l6-19-19 6zM345 301a134 134 0 0 1-54-256 156 156 0 0 0-1 24 155 155 0 0 0 177 153c-21 48-69 79-122 79z"/><path fill="var(--dY)" d="M231 388h-31l-38 44h24l-45 66 83-76h-21l28-34z"/><path fill="var(--dB)" d="M66 470a13 13 0 0 1-10-21l37-45a13 13 0 1 1 20 17l-37 45a13 13 0 0 1-10 4zm207 0a13 13 0 0 1-10-21l37-45a13 13 0 1 1 20 17l-37 45a13 13 0 0 1-10 4z"/><g fill="url(#darkCloud)" stroke="url(#darkCloud)"><path d="M304 359H73c-28 0-51-23-51-51a51 51 0 0 1 38-50c5-1 9-6 8-11v-7c0-49 40-89 89-89a89 89 0 0 1 76 41 11 11 0 0 0 12 4 44 44 0 0 1 15-3 44 44 0 0 1 45 44l-1 8a11 11 0 0 0 9 12 51 51 0 0 1 42 51 51 51 0 0 1-51 51z"/><path d="M326 239v-2a65 65 0 0 0-66-65l-14 2a110 110 0 0 0-89-45c-61 0-110 50-110 111a72 72 0 0 0-47 68c0 39 33 72 73 72h231c40 0 72-33 72-72a72 72 0 0 0-50-69zm-22 120H73c-28 0-51-23-51-51a51 51 0 0 1 38-50c5-1 9-6 8-11v-7c0-49 40-89 89-89a89 89 0 0 1 76 41 11 11 0 0 0 12 4 44 44 0 0 1 15-3 44 44 0 0 1 45 44l-1 8a11 11 0 0 0 9 12 51 51 0 0 1 42 51 51 51 0 0 1-51 51z"/></g></symbol>
	<symbol id="13d" viewBox="0 0 500 500" xml:space="preserve"><path fill="url(#sunCore)" d="M298.31 287.34c-46.6 0-84.5-37.9-84.5-84.5 0-46.59 37.91-84.5 84.5-84.5 46.6 0 84.5 37.91 84.5 84.5 0 46.6-37.9 84.5-84.5 84.5z"/><path fill="url(#sunRays)" d="M298.32 97.44c-58.13 0-105.41 47.29-105.41 105.4 0 58.13 47.28 105.4 105.4 105.4 58.12 0 105.4-47.28 105.4-105.4 0-58.11-47.27-105.4-105.4-105.4zm0 189.55c-46.4 0-84.15-37.75-84.15-84.15 0-46.4 37.75-84.14 84.15-84.14 46.4 0 84.14 37.75 84.14 84.14 0 46.4-37.75 84.15-84.14 84.15zm-.02-207.53a10.63 10.63 0 0 1-10.62-10.63v-58.2a10.63 10.63 0 1 1 21.26 0v58.2c0 5.87-4.76 10.63-10.63 10.63zm191.15 134.01h-57.13a10.63 10.63 0 1 1 0-21.26h57.13a10.63 10.63 0 0 1 0 21.26zm-96.39-94.76a10.64 10.64 0 0 1-7.52-18.14l31.21-31.21a10.63 10.63 0 0 1 15.03 15.03l-31.2 31.2a10.58 10.58 0 0 1-7.52 3.12zm31.62 221.15a10.6 10.6 0 0 1-7.51-3.11l-32.02-32.03a10.64 10.64 0 0 1 15.03-15.03l32.02 32.02a10.64 10.64 0 0 1-7.52 18.15zM203.55 118.71a10.6 10.6 0 0 1-7.52-3.11l-31.55-31.56a10.63 10.63 0 0 1 15.03-15.03l31.55 31.56a10.63 10.63 0 0 1-7.51 18.14z"/><g fill="url(#lightCloud)" stroke="url(#lightCloud)"><path d="M325.27 226.82l.02-1.35a65.49 65.49 0 0 0-65.41-65.4c-4.83 0-9.66.55-14.42 1.64a110.24 110.24 0 0 0-88.52-44.28c-61.08 0-110.78 49.7-110.78 110.78v.07A72.11 72.11 0 0 0-.08 295.63c0 39.86 32.42 72.3 72.26 72.3h231.15c39.86 0 72.3-32.44 72.3-72.3a72.02 72.02 0 0 0-50.36-68.81zm-21.94 119.84H72.17c-28.12 0-51-22.9-51-51.03a50.9 50.9 0 0 1 38.58-49.4 10.66 10.66 0 0 0 8.01-11.13c-.18-2.41-.34-4.7-.34-6.9 0-49.35 40.16-89.5 89.52-89.5a89.16 89.16 0 0 1 75.23 41.12 10.63 10.63 0 0 0 12.57 4.24 44.18 44.18 0 0 1 15.13-2.74 44.2 44.2 0 0 1 44.15 44.15c0 2.35-.23 4.87-.71 7.7a10.63 10.63 0 0 0 8.69 12.26 50.82 50.82 0 0 1 42.36 50.2 51.09 51.09 0 0 1-51.03 51.03z"/><path d="M303.33 346.66H72.18c-28.12 0-51-22.9-51-51.03a50.9 50.9 0 0 1 38.58-49.4c5-1.25 8.38-5.98 8-11.13-.17-2.41-.34-4.7-.34-6.9 0-49.35 40.16-89.5 89.52-89.5a89.16 89.16 0 0 1 75.23 41.12 10.63 10.63 0 0 0 12.57 4.24 44.17 44.17 0 0 1 15.14-2.74 44.2 44.2 0 0 1 44.15 44.15c0 2.35-.24 4.87-.72 7.7a10.63 10.63 0 0 0 8.69 12.26 50.82 50.82 0 0 1 42.36 50.2 51.09 51.09 0 0 1-51.03 51.03z"/><path fill="var(--lB)" stroke="none" d="M226.75 457.44l-13.52-7.84 13.52-7.83a12.78 12.78 0 0 0 4.65-17.44 12.81 12.81 0 0 0-17.45-4.65l-13.41 7.77v-15.5a12.78 12.78 0 0 0-25.54 0v15.48l-13.4-7.77a12.75 12.75 0 1 0-12.8 22.08l13.51 7.84-13.52 7.83a12.78 12.78 0 0 0 6.41 23.82c2.24 0 4.44-.6 6.39-1.73l13.41-7.77v15.5a12.78 12.78 0 0 0 25.53 0v-15.48l13.4 7.77a12.77 12.77 0 1 0 12.81-22.08zM97.1 445.73l-13.52-7.84 13.52-7.83a12.78 12.78 0 0 0 4.65-17.45 12.81 12.81 0 0 0-17.45-4.64l-13.41 7.77v-15.51c0-7.04-5.73-12.77-12.77-12.77a12.78 12.78 0 0 0-12.77 12.77v15.48l-13.4-7.77a12.74 12.74 0 0 0-17.45 4.64 12.78 12.78 0 0 0 4.64 17.45l13.52 7.83-13.52 7.83a12.78 12.78 0 0 0 6.4 23.82c2.24 0 4.45-.6 6.4-1.72L45.35 460v15.5c0 7.05 5.73 12.78 12.77 12.78s12.77-5.73 12.77-12.77v-15.49l13.4 7.77a12.72 12.72 0 0 0 6.39 1.73c4.54 0 8.78-2.44 11.05-6.36a12.68 12.68 0 0 0 1.3-9.69 12.67 12.67 0 0 0-5.93-7.75zm259.3 0l-13.52-7.84 13.52-7.83a12.78 12.78 0 0 0-6.4-23.81c-2.24 0-4.44.6-6.4 1.72l-13.4 7.77v-15.51c0-7.04-5.73-12.77-12.77-12.77a12.78 12.78 0 0 0-12.77 12.77v15.48l-13.4-7.77a12.74 12.74 0 0 0-17.45 4.64 12.77 12.77 0 0 0 4.64 17.45l13.52 7.83-13.52 7.83a12.79 12.79 0 0 0 6.41 23.82c2.24 0 4.44-.6 6.39-1.72l13.41-7.78v15.5a12.78 12.78 0 0 0 25.53 0v-15.48l13.4 7.77a12.82 12.82 0 0 0 17.45-4.63 12.74 12.74 0 0 0-4.65-17.44z"/></g></symbol>
	<symbol id="13n" viewBox="0 0 500 500" xml:space="preserve"><path fill="var(--dB)" d="M97 446l-13-8 13-8a13 13 0 0 0 5-17 13 13 0 0 0-18-5l-13 8v-16c0-7-6-13-13-13a13 13 0 0 0-13 13v16l-13-8a13 13 0 0 0-17 5 13 13 0 0 0 4 17l14 8-14 8a13 13 0 0 0 7 24l6-2 13-8v16a13 13 0 0 0 26 0v-16l13 8a13 13 0 0 0 7 2c4 0 8-3 11-7a13 13 0 0 0 1-10 13 13 0 0 0-6-7zm130 11l-14-7 14-8a13 13 0 0 0 4-18 13 13 0 0 0-17-4l-13 7v-15a13 13 0 0 0-26 0v15l-13-7a13 13 0 1 0-13 22l13 8-13 7a13 13 0 0 0 6 24l7-1 13-8v15a13 13 0 0 0 26 0v-15l13 8a13 13 0 1 0 13-23zm129-11l-13-8 13-8a13 13 0 0 0-6-24l-6 2-14 8v-16c0-7-6-13-13-13a13 13 0 0 0-12 13v16l-14-8a13 13 0 0 0-17 5 13 13 0 0 0 4 17l14 8-14 8a13 13 0 0 0 7 24l6-2 14-8v16a13 13 0 0 0 25 0v-16l14 8a13 13 0 0 0 17-5 13 13 0 0 0-5-17z"/><path fill="url(#moon)" stroke="url(#moon)" d="M290 56l1-24a134 134 0 1 0 176 178 156 156 0 0 1-22 1c-86 0-155-69-155-155z"/><path fill="url(#moonDark)" stroke="url(#moonDark)" d="M481 185A134 134 0 0 1 316 18l5-18-18 5a156 156 0 0 0-81 55 155 155 0 0 0 217 218 156 156 0 0 0 55-80l6-18-19 5zM345 289a134 134 0 0 1-54-257 156 156 0 0 0-1 24 155 155 0 0 0 177 154c-21 47-69 79-122 79z"/><g fill="url(#lightCloud)" stroke="url(#lightCloud)"><path d="M304 346H73c-28 0-51-23-51-51a51 51 0 0 1 38-50c5-1 9-6 8-11a95 95 0 0 1 0-7c0-49 40-89 89-89a89 89 0 0 1 76 41 11 11 0 0 0 12 4 44 44 0 0 1 15-3 44 44 0 0 1 45 45l-1 7a11 11 0 0 0 9 13 51 51 0 0 1 42 50 51 51 0 0 1-51 51z"/><path d="M326 226v-1a65 65 0 0 0-66-66l-14 2a110 110 0 0 0-89-44c-61 0-110 49-110 110a72 72 0 0 0-47 68c0 40 33 72 73 72h231c40 0 72-32 72-72a72 72 0 0 0-50-69zm-22 120H73c-28 0-51-23-51-51a51 51 0 0 1 38-50c5-1 9-6 8-11a95 95 0 0 1 0-7c0-49 40-89 89-89a89 89 0 0 1 76 41 11 11 0 0 0 12 4 44 44 0 0 1 15-3 44 44 0 0 1 45 45l-1 7a11 11 0 0 0 9 13 51 51 0 0 1 42 50 51 51 0 0 1-51 51z"/></g></symbol>
	<symbol id="50d" viewBox="0 0 500 500" xml:space="preserve"><g fill="url(#lightCloud)" stroke="url(#lightCloud)"><path d="M369.2 204.7a10.6 10.6 0 0 1-8.7-12.3c.5-2.8.8-5.3.8-7.7a44.2 44.2 0 0 0-44.2-44.1 44.2 44.2 0 0 0-15.1 2.7 10.6 10.6 0 0 1-12.6-4.3 89.2 89.2 0 0 0-75.2-41 89.6 89.6 0 0 0-89.2 96.3c.4 5.2-3 9.9-8 11.2a50.9 50.9 0 0 0-38.6 49.4 51 51 0 0 0 51 51h231.2a51 51 0 0 0 51-51c0-25-17.8-46-42.4-50.3z"/><path d="M382.5 186v-1.3a65.5 65.5 0 0 0-65.4-65.4 64 64 0 0 0-14.4 1.6 110.2 110.2 0 0 0-88.5-44.2c-61.1 0-110.8 49.6-110.8 110.7v.1A72.1 72.1 0 0 0 57 254.8a72.4 72.4 0 0 0 72.3 72.3h231.2a72.4 72.4 0 0 0 72.3-72.3 72 72 0 0 0-50.4-68.8zm-22 119.9H129.5a51 51 0 0 1-51-51 50.9 50.9 0 0 1 38.6-49.4c5-1.3 8.4-6 8-11.2-.2-2.4-.4-4.7-.4-6.9A89.6 89.6 0 0 1 214.2 98a89.2 89.2 0 0 1 75.2 41.1 10.6 10.6 0 0 0 12.6 4.3 44.2 44.2 0 0 1 15.1-2.8 44.2 44.2 0 0 1 44.1 44.2c0 2.4-.2 4.9-.7 7.7a10.6 10.6 0 0 0 8.7 12.2 50.8 50.8 0 0 1 42.4 50.2 51 51 0 0 1-51 51z"/></g><path fill="var(--lG)" d="M367.8 423.4h-78.4a10.6 10.6 0 1 1 0-21.3h78.4a10.6 10.6 0 1 1 0 21.3zM172.3 162.9h-110a10.6 10.6 0 0 1 0-21.3h110a10.6 10.6 0 0 1 0 21.3zM442 272H285.2a10.6 10.6 0 1 1 0-21.2H442a10.6 10.6 0 1 1 0 21.2zM215 423.4H58a10.6 10.6 0 0 1 0-21.3h156.7a10.6 10.6 0 1 1 0 21.3zM378 369H98.4a10.6 10.6 0 0 1 0-21.3H378a10.6 10.6 0 0 1 0 21.3zm45.4-189.2H321a10.6 10.6 0 1 1 0-21.3h102.4a10.6 10.6 0 1 1 0 21.3z"/></symbol>
	<symbol id="50n" viewBox="0 0 500 500" xml:space="preserve"><g fill="url(#lightCloud)" stroke="url(#lightCloud)"><path d="M369.2 204.7a10.6 10.6 0 0 1-8.7-12.3c.5-2.8.8-5.3.8-7.7a44.2 44.2 0 0 0-44.2-44.1 44.2 44.2 0 0 0-15.1 2.7 10.6 10.6 0 0 1-12.6-4.3 89.2 89.2 0 0 0-75.2-41 89.6 89.6 0 0 0-89.2 96.3c.4 5.2-3 9.9-8 11.2a50.9 50.9 0 0 0-38.6 49.4 51 51 0 0 0 51 51h231.2a51 51 0 0 0 51-51c0-25-17.8-46-42.4-50.3z"/><path d="M382.5 186v-1.3a65.5 65.5 0 0 0-65.4-65.4 64 64 0 0 0-14.4 1.6 110.2 110.2 0 0 0-88.5-44.2c-61.1 0-110.8 49.6-110.8 110.7v.1A72.1 72.1 0 0 0 57 254.8a72.4 72.4 0 0 0 72.3 72.3h231.2a72.4 72.4 0 0 0 72.3-72.3 72 72 0 0 0-50.4-68.8zm-22 119.9H129.5a51 51 0 0 1-51-51 50.9 50.9 0 0 1 38.6-49.4c5-1.3 8.4-6 8-11.2-.2-2.4-.4-4.7-.4-6.9A89.6 89.6 0 0 1 214.2 98a89.2 89.2 0 0 1 75.2 41.1 10.6 10.6 0 0 0 12.6 4.3 44.2 44.2 0 0 1 15.1-2.8 44.2 44.2 0 0 1 44.1 44.2c0 2.4-.2 4.9-.7 7.7a10.6 10.6 0 0 0 8.7 12.2 50.8 50.8 0 0 1 42.4 50.2 51 51 0 0 1-51 51z"/></g><path fill="var(--lG)" d="M367.8 423.4h-78.4a10.6 10.6 0 1 1 0-21.3h78.4a10.6 10.6 0 1 1 0 21.3zM172.3 162.9h-110a10.6 10.6 0 0 1 0-21.3h110a10.6 10.6 0 0 1 0 21.3zM442 272H285.2a10.6 10.6 0 1 1 0-21.2H442a10.6 10.6 0 1 1 0 21.2zM215 423.4H58a10.6 10.6 0 0 1 0-21.3h156.7a10.6 10.6 0 1 1 0 21.3zM378 369H98.4a10.6 10.6 0 0 1 0-21.3H378a10.6 10.6 0 0 1 0 21.3zm45.4-189.2H321a10.6 10.6 0 1 1 0-21.3h102.4a10.6 10.6 0 1 1 0 21.3z"/></symbol>
	<symbol id="bf0" viewBox="0 0 120 120" xml:space="preserve"><g id="wrapp" fill="var(--bf0)"><path stroke="var(--bfs)" stroke-miterlimit="10" d="M95.4 54.9a38.7 38.7 0 0 0 5.1-4.7A40.6 40.6 0 0 1 62 90.6zM54.9 24.6a38.7 38.7 0 0 0-4.7-5.1A40.6 40.6 0 0 1 90.6 58zM24.6 65.1a38.7 38.7 0 0 0-5.1 4.7A40.6 40.6 0 0 1 58 29.4zM65.1 95.4a38.7 38.7 0 0 0 4.7 5.1A40.6 40.6 0 0 1 29.4 62z"/><path d="M95.4 54.9a38.4 38.4 0 0 1-4.8 3.1c-1-17.9-16.3-31.5-35.7-33.4a38.4 38.4 0 0 1 3.1 4.8c-17.9 1-31.5 16.3-33.4 35.7a38.4 38.4 0 0 1 4.8-3.1c1 17.9 16.3 31.5 35.7 33.4a38.4 38.4 0 0 1-3.1-4.8c17.8-1 31.5-16.3 33.4-35.7z"/><path fill="var(--wh)" d="M60.6 80.7A30.7 30.7 0 0 0 82 71.4l-5.2.8a20.7 20.7 0 0 0 4.1-12.3v-.5A30.7 30.7 0 0 0 71.6 38a47.9 47.9 0 0 1 .8 5.2 20.7 20.7 0 0 0-12.3-4.1h-.5a30.7 30.7 0 0 0-21.4 9.2l5.2-.8a20.7 20.7 0 0 0-4.1 12.3v.5a30.7 30.7 0 0 0 9.2 21.4 47.9 47.9 0 0 1-.8-5.2A20.7 20.7 0 0 0 60 80.6z"/><path d="M68.6 59.9a8.6 8.6 0 1 0-8.6 8.6 8.6 8.6 0 0 0 8.6-8.6z"/><animateTransform attributeName="transform" type="rotate" from="0 60 60" to="360 60 60" begin="1s" dur="60s" repeatCount="indefinite"/></g></symbol>
	<symbol id="bf1" viewBox="0 0 120 120" xml:space="preserve"><g id="wrapp"><g fill="var(--bf1)"><path stroke="var(--bfs)" stroke-miterlimit="10" d="M95 55a39 39 0 0 0 6-5 41 41 0 0 1-39 41zM55 25a39 39 0 0 0-5-5 41 41 0 0 1 41 38zM25 65a39 39 0 0 0-5 5 41 41 0 0 1 38-41zM65 95a39 39 0 0 0 5 6 41 41 0 0 1-41-39z"/><path d="M95 55a38 38 0 0 1-4 3c-1-18-17-31-36-33a38 38 0 0 1 3 4c-18 1-31 17-33 36a38 38 0 0 1 4-3c1 18 17 32 36 33a38 38 0 0 1-3-4c18-1 32-17 33-36z"/><path fill="var(--wh)" d="M61 81a31 31 0 0 0 21-10l-5 1a21 21 0 0 0 4-12v-1a31 31 0 0 0-9-21 48 48 0 0 1 0 5 21 21 0 0 0-12-4 31 31 0 0 0-22 9l5-1a21 21 0 0 0-4 13 31 31 0 0 0 9 22 48 48 0 0 1 0-6 21 21 0 0 0 12 5z"/><path d="M69 60a9 9 0 1 0-9 8 9 9 0 0 0 9-8z"/></g><animateTransform attributeName="transform" type="rotate" from="0 60 60" to="360 60 60" begin="1s" dur="15s" repeatCount="indefinite"/></g></symbol>
	<symbol id="bf2" viewBox="0 0 120 120" xml:space="preserve"><g id="wrapp"><g fill="var(--bf2)"><path stroke="var(--bfs)" stroke-miterlimit="10" d="M95 55a39 39 0 0 0 6-5 41 41 0 0 1-39 41zM55 25a39 39 0 0 0-5-5 41 41 0 0 1 41 38zM25 65a39 39 0 0 0-5 5 41 41 0 0 1 38-41zM65 95a39 39 0 0 0 5 6 41 41 0 0 1-41-39z"/><path d="M95 55a38 38 0 0 1-4 3c-1-18-17-31-36-33a38 38 0 0 1 3 4c-18 1-31 17-33 36a38 38 0 0 1 4-3c1 18 17 32 36 33a38 38 0 0 1-3-4c18-1 32-17 33-36z"/><path fill="var(--wh)" d="M60.6,80.7A30.7,30.7,0,0,0,82,71.4l-5.2.8a20.7,20.7,0,0,0,4.1-12.3q0-.3,0-.5A30.7,30.7,0,0,0,71.6,38a47.9,47.9,0,0,1,.8,5.2,20.7,20.7,0,0,0-12.3-4.1h-.5a30.7,30.7,0,0,0-21.4,9.2l5.2-.8a20.7,20.7,0,0,0-4.1,12.3q0,.3,0,.5a30.7,30.7,0,0,0,9.2,21.4,47.9,47.9,0,0,1-.8-5.2,20.7,20.7,0,0,0,12.3,4.1Z"/><path d="M69 60a9 9 0 1 0-9 8 9 9 0 0 0 9-8z"/></g><animateTransform attributeName="transform" type="rotate" from="0 60 60" to="360 60 60" begin="1s" dur="5s" repeatCount="indefinite"/></g></symbol>
	<symbol id="bf3" viewBox="0 0 120 120" xml:space="preserve"><g id="wrapp"><g fill="var(--bf3)"><path stroke="var(--bfs)" stroke-miterlimit="10" d="M95 55a39 39 0 0 0 6-5 41 41 0 0 1-39 41zM55 25a39 39 0 0 0-5-5 41 41 0 0 1 41 38zM25 65a39 39 0 0 0-5 5 41 41 0 0 1 38-41zM65 95a39 39 0 0 0 5 6 41 41 0 0 1-41-39z"/><path d="M95 55a38 38 0 0 1-4 3c-1-18-17-31-36-33a38 38 0 0 1 3 4c-18 1-31 17-33 36a38 38 0 0 1 4-3c1 18 17 32 36 33a38 38 0 0 1-3-4c18-1 32-17 33-36z"/><path fill="var(--wh)" d="M61 81a31 31 0 0 0 21-10l-5 1a21 21 0 0 0 4-12v-1a31 31 0 0 0-9-21 48 48 0 0 1 0 5 21 21 0 0 0-12-4 31 31 0 0 0-22 9l5-1a21 21 0 0 0-4 13 31 31 0 0 0 9 22 48 48 0 0 1 0-6 21 21 0 0 0 12 5z"/><path d="M69 60a9 9 0 1 0-9 8 9 9 0 0 0 9-8z"/></g><animateTransform attributeName="transform" type="rotate" from="0 60 60" to="360 60 60" begin="1s" dur="3.1s" repeatCount="indefinite"/></g></symbol>
	<symbol id="bf4" viewBox="0 0 120 120" xml:space="preserve"><g id="wrapp"><g fill="var(--bf4)"><path stroke="var(--bfs)" stroke-miterlimit="10" d="M95.4 54.9a38.7 38.7 0 0 0 5.1-4.7A40.6 40.6 0 0 1 62 90.6zM54.9 24.6a38.7 38.7 0 0 0-4.7-5.1A40.6 40.6 0 0 1 90.6 58zM24.6 65.1a38.7 38.7 0 0 0-5.1 4.7A40.6 40.6 0 0 1 58 29.4zM65.1 95.4a38.7 38.7 0 0 0 4.7 5.1A40.6 40.6 0 0 1 29.4 62z"/><path d="M95.4 54.9a38.4 38.4 0 0 1-4.8 3.1c-1-17.9-16.3-31.5-35.7-33.4a38.4 38.4 0 0 1 3.1 4.8c-17.9 1-31.5 16.3-33.4 35.7a38.4 38.4 0 0 1 4.8-3.1c1 17.9 16.3 31.5 35.7 33.4a38.4 38.4 0 0 1-3.1-4.8c17.8-1 31.5-16.3 33.4-35.7z"/><path fill="var(--wh)" d="M60.6 80.7A30.7 30.7 0 0 0 82 71.4l-5.2.8a20.7 20.7 0 0 0 4.1-12.3v-.5A30.7 30.7 0 0 0 71.6 38a47.9 47.9 0 0 1 .8 5.2 20.7 20.7 0 0 0-12.3-4.1h-.5a30.7 30.7 0 0 0-21.4 9.2l5.2-.8a20.7 20.7 0 0 0-4.1 12.3v.5a30.7 30.7 0 0 0 9.2 21.4 47.9 47.9 0 0 1-.8-5.2A20.7 20.7 0 0 0 60 80.6z"/><path d="M68.6 59.9a8.6 8.6 0 1 0-8.6 8.6 8.6 8.6 0 0 0 8.6-8.6z"/></g><animateTransform attributeName="transform" type="rotate" from="0 60 60" to="360 60 60" begin="1s" dur="2s" repeatCount="indefinite"/></g></symbol>
	<symbol id="bf5" viewBox="0 0 120 120" xml:space="preserve"><g id="wrapp"><g fill="var(--bf5)"><path stroke="var(--bfs)" stroke-miterlimit="10" d="M95.4 54.9a38.7 38.7 0 0 0 5.1-4.7A40.6 40.6 0 0 1 62 90.6zM54.9 24.6a38.7 38.7 0 0 0-4.7-5.1A40.6 40.6 0 0 1 90.6 58zM24.6 65.1a38.7 38.7 0 0 0-5.1 4.7A40.6 40.6 0 0 1 58 29.4zM65.1 95.4a38.7 38.7 0 0 0 4.7 5.1A40.6 40.6 0 0 1 29.4 62z"/><path d="M95.4 54.9a38.4 38.4 0 0 1-4.8 3.1c-1-17.9-16.3-31.5-35.7-33.4a38.4 38.4 0 0 1 3.1 4.8c-17.9 1-31.5 16.3-33.4 35.7a38.4 38.4 0 0 1 4.8-3.1c1 17.9 16.3 31.5 35.7 33.4a38.4 38.4 0 0 1-3.1-4.8c17.8-1 31.5-16.3 33.4-35.7z"/><path fill="var(--wh)" d="M60.6 80.7A30.7 30.7 0 0 0 82 71.4l-5.2.8a20.7 20.7 0 0 0 4.1-12.3v-.5A30.7 30.7 0 0 0 71.6 38a47.9 47.9 0 0 1 .8 5.2 20.7 20.7 0 0 0-12.3-4.1h-.5a30.7 30.7 0 0 0-21.4 9.2l5.2-.8a20.7 20.7 0 0 0-4.1 12.3v.5a30.7 30.7 0 0 0 9.2 21.4 47.9 47.9 0 0 1-.8-5.2A20.7 20.7 0 0 0 60 80.6z"/><path d="M68.6 59.9a8.6 8.6 0 1 0-8.6 8.6 8.6 8.6 0 0 0 8.6-8.6z"/></g><animateTransform attributeName="transform" type="rotate" from="0 60 60" to="360 60 60" begin="1s" dur="1s" repeatCount="indefinite"/></g></symbol>
	<symbol id="sunrise" viewBox="0 0 500 500" xml:space="preserve"><path fill="url(#sunCore)" d="M215 306h24l6-5a8 8 0 0 1 10 0l6 5h24c0-4 2-8 7-8h28a82 82 0 0 0-54-122c-33-6-68 9-86 38a83 83 0 0 0 0 84h28c5 0 7 4 7 8z"/><g fill="url(#bkgrd)" stroke="url(#bkgrd)"><path d="M258 132V98c0-9-15-9-15 0v34c0 9 15 10 15 0zm-8-34zM194 145l-17-29c-5-9-18-1-13 7l17 29c5 9 18 1 13-7zm-6 4l-17-30zM109 184l29 17c8 5 16-8 8-13l-29-17c-9-5-16 8-8 13zm4-7l29 17zM91 264h34c10 0 10-15 0-15H91c-9 0-9 15 0 15zm0-7zM409 249h-34c-10 0-10 15 0 15h34c9 0 9-15 0-15zm-34 8zM362 201l29-17c8-5 1-18-8-13l-29 17c-8 5 0 18 8 13zm25-24l-29 17zM319 152l17-29c5-8-8-16-13-7l-17 29c-5 8 8 16 13 7zm10-33l-17 30z"/><path d="M180 214c18-29 53-44 86-38a83 83 0 0 1 66 81c0-10 15-10 15 0a98 98 0 0 0-64-91c-38-14-82-2-108 29a98 98 0 0 0-12 103h17a83 83 0 0 1 0-84z"/><path d="M332 257c0 9 15 9 15 0s-15-10-15 0z"/><path d="M332 257a83 83 0 0 1-12 41h17a98 98 0 0 0 10-41c0 9-15 9-15 0z"/><path d="M407 298H292c-5 0-7 4-7 8s2 7 7 7h115c10 0 10-15 0-15zM172 313h36c5 0 7-3 7-7s-2-8-7-8H93c-10 0-10 15 0 15h79z"/><path d="M375 338h-80l-9-8-25-24-6-5a8 8 0 0 0-10 0l-6 5-25 24-9 8h-80c-10 0-10 15 0 15h83c4 0 7-3 9-5l1-1 1-1 11-10 1-2 19-18 20 20 11 10 2 2 3 3c5 4 16 2 22 2h67c10 0 10-15 0-15zM347 379H154c-10 0-10 15 0 15h193c9 0 9-15 0-15z"/></g></symbol>
	<symbol id="sunset" viewBox="0 0 500 500" xml:space="preserve"><path fill="url(#sunCore)" d="M320 298a82 82 0 0 0-54-122c-33-6-68 9-86 38a83 83 0 0 0 0 84h140z"/><g fill="url(#bkgrd)" stroke="url(#bkgrd)"><path d="M243 98v34c0 9 15 10 15 0V98c0-9-15-9-15 0zm7 34zM164 123l17 29c5 9 18 1 13-7l-17-29c-5-9-18-1-13 7zm7-4l17 30zM117 171c-9-5-16 8-8 13l29 17c8 5 16-8 8-13zm-4 6l29 17zM91 264h34c10 0 10-15 0-15H91c-9 0-9 15 0 15zm34-7zM409 249h-34c-10 0-10 15 0 15h34c9 0 9-15 0-15zm-34 8zM383 171l-29 17c-8 5 0 18 8 13l29-17c8-5 1-18-8-13zm-25 23l29-17zM323 116l-17 29c-5 8 8 16 13 7l17-29c5-8-8-16-13-7zm-11 33l17-30z"/><path d="M332 257a83 83 0 0 1-12 41h17a98 98 0 0 0 10-41c0 9-15 9-15 0z"/><path d="M180 214c18-29 53-44 86-38a83 83 0 0 1 66 81c0-10 15-10 15 0a98 98 0 0 0-64-91c-38-14-82-2-108 29a98 98 0 0 0-12 103h17a83 83 0 0 1 0-84z"/><path d="M332 257c0 9 15 9 15 0s-15-10-15 0z"/><path d="M407 298h-70l-4 8h40v7h34c10 0 10-15 0-15zM93 306h74l-4-8H93c-10 0-10 15 0 15h34v-7zM320 298H180a77 77 0 0 0 5 8h130a84 84 0 0 0 5-8z"/><path d="M185 306a77 77 0 0 1-5-8h-17l4 8zM315 306h18l4-8h-17a84 84 0 0 1-5 8zM167 307v-1h-40v7h45l-5-6zM191 313h118a83 83 0 0 0 6-7H185l1 2 5 5zM333 306l-5 7h45v-7z"/><path d="M309 313h19l5-7h-18a83 83 0 0 1-6 7zM186 308l-1-2h-18v1l5 6h19l-5-5zM375 346h-2v8h2c10 0 10-15 0-15h-2v7zM125 346h2v-7h-2c-10 0-10 15 0 15h2v-8zM203 351l2 2h3zM302 338a94 94 0 0 1-15 8h86v-7h-60l-11-1zM292 353h3l2-2z"/><path d="M292 346l-42 40-42-40h-81v8h78l-2-3 5 3h-3l40 37a8 8 0 0 0 10 0l40-37h-3l5-3-2 3h78v-8zM208 346h5a98 98 0 0 1-15-8h-71v8zM292 338c-5 1-7 4-10 7l-1 1h6a94 94 0 0 0 15-8h-10z"/><path d="M214 341c-4-3-10-3-16-3a98 98 0 0 0 15 8h6l-5-5zM255 381l-5-5-5 5z"/><path d="M268 358l-18 18 5 5h-10l5-5-27-27a99 99 0 0 1-10-3h-5l42 40 42-40h-5a92 92 0 0 1-10 4z"/><path d="M277 350a92 92 0 0 0 10-4h-6zM219 346h-6a99 99 0 0 0 10 3l-4-3zM292 379c-10 0-10 15 0 15h55c9 0 9-15 0-15zm0 7zM208 379h-54c-10 0-10 15 0 15h54c10 0 10-15 0-15zm-55 7h1z"/></g></symbol>
	<symbol id="goldenhour" viewBox="0 0 600 600" xml:space="preserve"><g fill="url(#sunCore)"><path d="M300 397a33 33 0 0 0 22-57V17h-43v323a32 32 0 0 0 21 57z"/><path d="M561 343H378l66-38a21 21 0 1 0-22-37l-65 38 73-125a21 21 0 1 0-37-21l-38 65v104a66 66 0 0 1-43 100h-1a64 64 0 0 1-34-2 66 66 0 0 1-32-102v-95l-5-9a21 21 0 1 0-37 21l37 64-134-77c-10-6-23-2-29 8s-2 23 8 29l133 77H39a21 21 0 0 0 0 43h179l-64 37a21 21 0 1 0 22 37l63-36-72 123a21 21 0 1 0 37 22l73-126v96a21 21 0 0 0 43 0v-95l37 65a21 21 0 1 0 38-21l-38-65 136 78c3 2 7 3 10 3a21 21 0 0 0 11-40l-136-78h183a21 21 0 0 0 0-43z"/></g></symbol>
	<symbol id="moonrise" viewBox="0 0 500 500" xml:space="preserve"><path fill="url(#moon)" d="M215 304h24l6-5a8 8 0 0 1 10 0l6 5h24c0-3 2-7 7-7h44a121 121 0 0 0 17-22 133 133 0 0 1-125-34 133 133 0 0 1-35-126 117 117 0 0 0-50 68c-11 41 2 85 31 114h34c5 0 7 4 7 7z"/><g fill="url(#moonDark)" stroke="url(#moonDark)"><path fill="var(--lY)" d="M307 139l-2 4a54 54 0 0 1-14 15 44 44 0 0 1-6 3 53 53 0 0 1 12 8 50 50 0 0 1 10 14l1-1a51 51 0 0 1 13-16 52 52 0 0 1 8-5 53 53 0 0 1-22-22z"/><path d="M311 129h-8l1 1a15 15 0 0 0 1 4 54 54 0 0 0 2 5 62 62 0 0 0 3-5l1-5zM334 159a74 74 0 0 0-5 2 54 54 0 0 0 11 4 7 7 0 0 1-6-6z"/><path d="M340 165a54 54 0 0 1-11-4 52 52 0 0 0-8 5 51 51 0 0 0-13 16l-1 1 2 3a59 59 0 0 1 2 5c1 4 1 3-4 3-6 0-4 1-3-2l3-9a50 50 0 0 0-10-14 53 53 0 0 0-12-8l-5 3-4 1q-3 1-1-4v-4a11 11 0 0 1 3 1 54 54 0 0 1 7 3 44 44 0 0 0 6-3 54 54 0 0 0 14-15l2-4a54 54 0 0 1-2-5 15 15 0 0 1-1-4l-1-1h8l-1 5a62 62 0 0 1-3 5 53 53 0 0 0 22 22l2-1 3-1c0-5 4-10 10-8a37 37 0 0 1-21-15c-5-7-5-19-15-19-11-1-12 12-16 19a37 37 0 0 1-20 14c-4 2-7 4-8 8a11 11 0 0 0 5 12l11 5a38 38 0 0 1 10 8 36 36 0 0 1 6 10c1 5 2 9 7 11a11 11 0 0 0 12-2c3-4 4-8 5-12 5-9 13-15 22-18 5-2 9-4 9-10a11 11 0 0 0-7-11c9 3 5 17-4 14z"/><path d="M338 157a10 10 0 0 0-2 1l-2 1a7 7 0 0 0 6 6c-4-1 4-8-2-8z"/><path d="M334 159l2-1a10 10 0 0 1 2-1c6 0-2 7 2 8 9 3 13-11 4-14-6-2-10 3-10 8zM275 157v4q-2 5 1 4l4-1 5-3a54 54 0 0 0-7-3 11 11 0 0 0-3-1zM307 194c5 0 5 1 4-3a59 59 0 0 0-2-5l-2-3-3 9c-1 3-3 2 3 2z"/><path d="M199 98a128 128 0 0 0-6 17 122 122 0 0 1 17-9zM228 241c6 7 17-4 10-11s-17 4-10 11z"/><path d="M143 183a117 117 0 0 1 50-68 128 128 0 0 1 6-17l11 8a122 122 0 0 0-17 9 133 133 0 0 0 35 126c-7-7 3-17 10-11-33-34-43-84-24-128 3-7-6-11-11-9a131 131 0 0 0-71 168 134 134 0 0 0 22 36h20c-29-29-42-73-31-114zM362 258a123 123 0 0 1-9 17 128 128 0 0 0 18-6z"/><path d="M228 241a133 133 0 0 0 125 34 123 123 0 0 0 9-17l9 11a128 128 0 0 1-18 6 121 121 0 0 1-17 22h20a130 130 0 0 0 19-31c2-5-1-14-8-11-44 18-95 9-129-25 7 7-4 18-10 11z"/><path d="M373 304v8h34c10 0 10-15 0-15h-51l-6 7zM292 297c-5 0-7 4-7 7h42l9-7h-44z"/><path d="M327 304h23l6-7h-20l-9 7zM350 304l-8 8h31v-8zM285 304c0 4 2 8 7 8h25a115 115 0 0 0 10-8h-42z"/><path d="M342 312l8-8h-23a115 115 0 0 1-10 8zM93 312h34v-8h33l-6-7H93c-10 0-10 15 0 15zM215 304c0-3-2-7-7-7h-34l8 7h33z"/><path d="M182 304l-8-7h-20l6 7zM160 304h-33v8h41l-8-8zM194 312h14c5 0 7-4 7-8h-33a112 112 0 0 0 11 8z"/><path d="M168 312h25a112 112 0 0 1-11-8h-22l8 8zM125 344h2v-7h-2c-10 0-10 15 0 15h2v-7zM375 344h-2v8h2c10 0 10-15 0-15h-2v8zM255 299a8 8 0 0 0-10 0l-6 5h22zM227 326l23-22 25 24 9-2-23-22h-22l-20 20 8 2zM292 344h-11l5 6c5 4 16 2 22 2h65v-8zM208 352c5 0 7-4 10-7l1-1h-92v8h81zM208 337h-3l-2 2z"/><path d="M208 344l7-6-8-2-2 1h3l-5 2 2-2h-78v8zM296 338l1 1-2-1-6 2-1 1 4 3h81v-7h-73l-4 1z"/><path d="M297 339l-1-1h-1zM295 337l-11-11-9 2 13 13 1-1 6-2-3-1zM219 324l-12 12 8 2 12-12-8-2z"/><path d="M292 337l3 1h1l-1-1z"/><path d="M296 338l4-1h-5zM245 310l5 5 5-5zM215 338l-7 6h11l4-3-8-3zM281 344h11l-4-3-9 2z"/><path d="M227 326l9 2 14-13-5-5h10l-5 5 15 14 10-1-25-24z"/><path d="M232 333l4-5-9-2-12 12 8 3zM265 329l14 14 9-2-13-13-10 1zM281 377H154c-10 0-10 15 0 15h193c9 0 9-15 0-15zm-127 8z"/></g></symbol>
	<symbol id="moonset" viewBox="0 0 500 500" xml:space="preserve"><path fill="url(#moon)" d="M336 297a121 121 0 0 0 17-22 133 133 0 0 1-125-34 133 133 0 0 1-35-126 117 117 0 0 0-50 68c-11 41 2 85 31 114h162z"/><g fill="url(#moonDark)" stroke="url(#moonDark)"><path fill="var(--lY)" d="M307 139l-2 4a54 54 0 0 1-14 15 45 45 0 0 1-6 3 53 53 0 0 1 12 8 50 50 0 0 1 10 14l1-1a51 51 0 0 1 13-16 52 52 0 0 1 8-5 53 53 0 0 1-22-22z"/><path d="M338 157a10 10 0 0 0-2 1l-2 1a7 7 0 0 0 6 6c-4-1 4-8-2-8zM275 157v4q-2 5 1 4l4-1 5-3a54 54 0 0 0-7-3 11 11 0 0 0-3-1zM311 129h-8l1 1a15 15 0 0 0 1 4 54 54 0 0 0 2 5 62 62 0 0 0 3-5l1-5z"/><path d="M334 159a74 74 0 0 0-5 2 54 54 0 0 0 11 4 7 7 0 0 1-6-6zM307 194c5 0 5 1 4-3a59 59 0 0 0-2-5l-2-3-3 9c-1 3-3 2 3 2z"/><path d="M334 159l2-1a10 10 0 0 1 2-1c6 0-2 7 2 8 9 3 13-11 4-14-6-2-10 3-10 8z"/><path d="M340 165a54 54 0 0 1-11-4 52 52 0 0 0-8 5 51 51 0 0 0-13 16l-1 1 2 3a59 59 0 0 1 2 5c1 4 1 3-4 3-6 0-4 1-3-2l3-9a50 50 0 0 0-10-14 53 53 0 0 0-12-8l-5 3-4 1q-3 1-1-4v-4a11 11 0 0 1 3 1 54 54 0 0 1 7 3 45 45 0 0 0 6-3 54 54 0 0 0 14-15l2-4a54 54 0 0 1-2-5 15 15 0 0 1-1-4l-1-1h8l-1 5a62 62 0 0 1-3 5 53 53 0 0 0 22 22l2-1 3-1c0-5 4-10 10-8a37 37 0 0 1-21-15c-5-7-5-19-15-19-11-1-12 12-16 19a37 37 0 0 1-20 14c-4 2-7 4-8 8a11 11 0 0 0 5 12l11 5a38 38 0 0 1 10 8 36 36 0 0 1 6 10c1 5 2 9 7 11a11 11 0 0 0 12-2c3-4 4-8 5-12 5-9 13-15 22-18 5-2 9-4 9-10a11 11 0 0 0-7-11c9 3 5 17-4 14z"/><path d="M228 241a133 133 0 0 0 125 34 123 123 0 0 0 9-17l9 11a128 128 0 0 1-18 6 121 121 0 0 1-17 22h20a130 130 0 0 0 19-31c2-5-1-14-8-11-44 18-95 9-129-25 7 7-4 18-10 11z"/><path d="M143 183a117 117 0 0 1 50-68 128 128 0 0 1 6-17l11 8a122 122 0 0 0-17 9 133 133 0 0 0 35 126c-7-7 3-17 10-11-33-34-43-84-24-128 3-7-6-11-11-9a131 131 0 0 0-71 168 134 134 0 0 0 22 36h20c-29-29-42-73-31-114z"/><path d="M228 241c6 7 17-4 10-11s-17 4-10 11zM199 98a128 128 0 0 0-6 17 122 122 0 0 1 17-9zM362 258a123 123 0 0 1-9 17 128 128 0 0 0 18-6z"/><path d="M336 297H174l8 7h145l9-7zM93 304h67l-6-7H93c-10 0-10 15 0 15h34v-8zM407 297h-51l-6 7h23v8h34c10 0 10-15 0-15z"/><path d="M327 304h23l6-7h-20l-9 7zM182 304l-8-7h-20l6 7zM199 312h118a115 115 0 0 0 10-8H182a112 112 0 0 0 11 8zM350 304l-8 8h31v-8zM160 304h-33v8h41l-8-8z"/><path d="M317 312h25l8-8h-23a115 115 0 0 1-10 8zM182 304h-22l8 8h25a112 112 0 0 1-11-8zM375 344h-2v8h2c10 0 10-15 0-15h-2v8zM125 344h2v-7h-2c-10 0-10 15 0 15h2v-7zM203 350l2 2h3zM208 344h11l-5-5c-5-4-16-2-22-2h-65v7zM300 337l-11 3-5 2-2 2h-1 92v-7h-73zM292 352h3l2-2z"/><path d="M292 344l-42 40-42-40h-81v8h78l-2-2 5 2h-3l40 38a8 8 0 0 0 10 0l40-38h-3l5-2-2 2h78v-7zM292 337c-3 0-6 2-8 5l5-2 11-3h-8z"/><path d="M250 374l5 5h-10l5-5-31-30h-11l42 40 42-40h-11l-13 12z"/><path d="M255 379l-5-5-5 5zM292 377c-10 0-10 15 0 15h55c9 0 9-15 0-15zm0 8zM208 377h-54c-10 0-10 15 0 15h54c10 0 10-15 0-15zm-55 8h1z"/></g></symbol>
	<symbol id="location" viewBox="0 0 512 512" xml:space="preserve"><path fill="var(--dB)" d="M256 0a188 188 0 0 0-149 303l149 209 149-209A188 188 0 0 0 256 0z"/><path fill="var(--wh)" d="M396 188a140 140 0 1 1-280 1 140 140 0 0 1 280-1z"/><g fill="var(--dB)"><path d="M256 76l-20 112 20 112 20-112z"/><path d="M144 188l112 20 112-20-112-20z"/><path d="M200 132l46 66 66 46-46-66z"/><path d="M200 244l66-46 46-66-66 46z"/></g></symbol>
	<symbol id="temperatur" viewBox="0 0 40 40" xml:space="preserve"><path fill="var(--wh)" d="M17 22.2c-2.5 0-4.5-2-4.5-4.5V6a4.5 4.5 0 0 1 9 0v11.7c0 2.5-2 4.5-4.5 4.5z"/><g fill="var(--dB)"><path d="M17 2a4 4 0 0 1 4 4v11.7a4 4 0 0 1-8 0V6a4 4 0 0 1 4-4m0-1a5 5 0 0 0-5 5v11.7c0 2.8 2.3 5 5 5s5-2.2 5-5V6a5 5 0 0 0-5-5z"/><path d="M17 38.5a7.5 7.5 0 0 1-4.7-13.4l.2-.1v-9.5h9V25l.2.1A7.5 7.5 0 0 1 17 38.5z"/><path d="M21 16V25.2l.4.3a7 7 0 1 1-8.7 0l.3-.3V16h8m1-1H12v9.8A8 8 0 0 0 17 39a8 8 0 0 0 5-14.2V15z"/><path fill="var(--rd)" d="M25.5 4h5c.3 0 .5.2.5.5s-.2.5-.5.5h-5a.5.5 0 0 1 0-1z"/><path fill="orange" d="M25.5 8h5c.3 0 .5.2.5.5s-.2.5-.5.5h-5a.5.5 0 0 1 0-1z"/><path fill="var(--lY)" d="M25.5 12h5c.3 0 .5.2.5.5s-.2.5-.5.5h-5a.5.5 0 0 1 0-1z"/><path fill="var(--wh)" d="M25.5 16h5c.3 0 .5.2.5.5s-.2.5-.5.5h-5a.5.5 0 0 1 0-1z"/><path fill="var(--lB)" d="M25.5 20h5c.3 0 .5.2.5.5s-.2.5-.5.5h-5a.5.5 0 0 1 0-1z"/><path d="M25.5 24h5c.3 0 .5.2.5.5s-.2.5-.5.5h-5a.5.5 0 0 1 0-1z"/></g></symbol>
	<symbol id="humidity" viewBox="0 0 40 40" xml:space="preserve"><path fill="var(--wh)" d="M10 22.2c-2.5 0-4.5-2-4.5-4.5V6a4.5 4.5 0 0 1 9 0v11.7c0 2.5-2 4.5-4.5 4.5z"/><path fill="var(--dB)" d="M10 2a4 4 0 0 1 4 4v11.7a4 4 0 0 1-8 0V6a4 4 0 0 1 4-4m0-1a5 5 0 0 0-5 5v11.7c0 2.8 2.3 5 5 5s5-2.2 5-5V6a5 5 0 0 0-5-5z"/><path fill="var(--lB)" d="M10 38.5a7.5 7.5 0 0 1-4.7-13.4l.2-.1v-9.5h9V25l.2.1A7.5 7.5 0 0 1 10 38.5z"/><path fill="var(--dB)" d="M14 16V25.2l.4.3a7 7 0 1 1-8.7 0l.3-.3V16h8m1-1H5v9.8a8 8 0 1 0 10 0V15z"/><path fill="var(--lB)" d="M25.5 25.5c-2.8 0-5-2.4-5-5.3 0-2.3 3.3-7.2 5-9.4 1.7 2.2 5 7 5 9.4 0 3-2.2 5.3-5 5.3z"/><path fill="var(--dB)" d="M25.5 11.6c2 2.7 4.5 6.7 4.5 8.6 0 2.6-2 4.8-4.5 4.8S21 22.8 21 20.2c0-1.9 2.5-5.9 4.5-8.6m0-1.6S20 17 20 20.2c0 3.2 2.5 5.8 5.5 5.8s5.5-2.6 5.5-5.8C31 17 25.5 10 25.5 10z"/><path fill="var(--lB)" d="M34.5 12.5c-1.7 0-3-1.5-3-3.3 0-1.3 2-4 3-5.4 1 1.4 3 4 3 5.5 0 1.7-1.3 3.2-3 3.2z"/><path fill="var(--dB)" d="M34.5 4.6C35.7 6.2 37 8.3 37 9.3c0 1.5-1.1 2.7-2.5 2.7S32 10.8 32 9.2c0-1 1.3-3 2.5-4.6m0-1.6S31 7.2 31 9.3c0 2 1.6 3.7 3.5 3.7S38 11.3 38 9.2c0-2-3.5-6.2-3.5-6.2z"/><path fill="var(--lB)" d="M33 36.5c-2 0-3.5-1.6-3.5-3.6 0-1.6 2.3-4.6 3.5-6.1 1.2 1.5 3.5 4.5 3.5 6 0 2-1.6 3.7-3.5 3.7z"/><path fill="var(--dB)" d="M33 27.6c1.4 1.8 3 4.2 3 5.3 0 1.7-1.3 3.1-3 3.1s-3-1.4-3-3.1c0-1.1 1.6-3.5 3-5.3m0-1.6s-4 4.6-4 6.9 1.8 4.1 4 4.1 4-1.8 4-4.1-4-6.9-4-6.9zM9.5 19h5c.3 0 .5.2.5.5s-.2.5-.5.5h-5a.5.5 0 0 1 0-1zM9.5 23h5c.3 0 .5.2.5.5s-.2.5-.5.5h-5a.5.5 0 0 1 0-1zM9.5 11h5c.3 0 .5.2.5.5s-.2.5-.5.5h-5a.5.5 0 0 1 0-1zM9.5 7h5c.3 0 .5.2.5.5s-.2.5-.5.5h-5a.5.5 0 0 1 0-1z"/></symbol>
	<symbol id="windspeed" viewBox="0 0 40 40" xml:space="preserve"><circle cx="7.5" cy="8.5" r="6" fill="var(--wh)"/><path fill="var(--dB)" d="M7.5 3a5.5 5.5 0 1 1-.01 11.01A5.5 5.5 0 0 1 7.5 3m0-1a6.5 6.5 0 1 0 0 13 6.5 6.5 0 0 0 0-13z"/><path fill="var(--dB)" d="M8 8h22v1H8zM19 12h1v9h-1z"/><path fill="var(--lB)" d="M7 37.5A2.5 2.5 0 0 1 4.5 35V21A2.5 2.5 0 0 1 7 18.5h25a2.5 2.5 0 0 1 2.5 2.5v14a2.5 2.5 0 0 1-2.5 2.5H7z"/><path fill="var(--dB)" d="M32 19a2 2 0 0 1 2 2v14a2 2 0 0 1-2 2H7a2 2 0 0 1-2-2V21c0-1.1.9-2 2-2h25m0-1H7a3 3 0 0 0-3 3v14a3 3 0 0 0 3 3h25a3 3 0 0 0 3-3V21a3 3 0 0 0-3-3z"/><path fill="var(--wh)" d="M9.5 23.5h20v9h-20z"/><path fill="var(--dB)" d="M29 24v8H10v-8h19m1-1H9v10h21V23z"/><path fill="var(--dB)" d="M14.5 27a.5.5 0 0 1-.5-.5v-3a.5.5 0 0 1 1 0v3a.5.5 0 0 1-.5.5zM19.5 27a.5.5 0 0 1-.5-.5v-3a.5.5 0 0 1 1 0v3a.5.5 0 0 1-.5.5zM24.5 27a.5.5 0 0 1-.5-.5v-3a.5.5 0 0 1 1 0v3a.5.5 0 0 1-.5.5zM21.5 27l1.5 5h-3z"/><circle cx="31.5" cy="8.5" r="6" fill="var(--wh)"/><path fill="var(--dB)" d="M31.5 3a5.5 5.5 0 1 1-.01 11.01A5.5 5.5 0 0 1 31.5 3m0-1a6.5 6.5 0 1 0 0 13 6.5 6.5 0 0 0 0-13z"/><circle cx="31.5" cy="8.5" r="3.5" fill="var(--lB)"/><path fill="var(--wh)" d="M16.5 2.5a6 6 0 0 1 0 12v-12z"/><path fill="var(--dB)" d="M17 3.02a5.5 5.5 0 0 1 0 10.96V3.02M16.5 2H16V15h.5a6.5 6.5 0 1 0 0-13zM9.5 9h-2a.5.5 0 0 1-.5-.5c0-.28.22-.5.5-.5h2c.28 0 .5.22.5.5a.5.5 0 0 1-.5.5z"/></symbol>
	<symbol id="pressure" viewBox="0 0 40 40" xml:space="preserve"><path fill="var(--lB)" d="M20 38.5a18.5 18.5 0 1 1 0-37 18.5 18.5 0 0 1 0 37z"/><path fill="var(--dB)" d="M20 2a18 18 0 1 1 0 36 18 18 0 0 1 0-36m0-1a19 19 0 1 0 0 38 19 19 0 0 0 0-38z"/><circle cx="20" cy="20" r="15" fill="var(--wh)"/><circle cx="20" cy="20" r="5.5" fill="var(--lB)"/><path fill="var(--dB)" d="M20 15a5 5 0 1 1 0 10 5 5 0 0 1 0-10m0-1a6 6 0 1 0 0 12 6 6 0 0 0 0-12z"/><circle cx="20" cy="7" r="1" fill="var(--lB)"/><ellipse cx="11" cy="11" fill="var(--lB)" rx="1" ry="1" transform="rotate(-45 11 11)"/><circle cx="33" cy="20" r="1" fill="var(--lB)"/><circle cx="7" cy="20" r="1" fill="var(--lB)"/><circle cx="20" cy="20" r="2" fill="var(--dB)"/><g id="arm"><line fill="none" stroke="var(--dB)" stroke-linecap="round" stroke-miterlimit="10" x1="28.5" y1="11.5" x2="12.5" y2="27.5"/><polygon fill="var(--wh)" points="11.5,28.5 11.5,25.738 16.103,23.897 14.262,28.5  "/><path fill="var(--dB)" d="M15.205,24.795L13.923,28H12v-1.923L15.205,24.795 M17,23l-6,2.4V29h3.6L17,23L17,23z"/></g></symbol>
	<symbol id="windirection" viewBox="0 0 1600 1900" xml:space="preserve"><path fill="none" stroke="var(--dB)" stroke-width="30" d="M720 285V40h1l178 230h1V25"/><g fill="var(--lB)" stroke="var(--dB)" stroke-width="30"><path d="M800 300l200 600 600 200-600 200-200 600-200-600L0 1100l600-200 200-600"/><ellipse cx="800" cy="1100" rx="600" ry="600"/></g><g id="arrow"><path fill="var(--dB)" d="M800 1100l-500 500L800 400l500 1200-500-500"/><path fill="var(--wh)" d="M800 1060l-425 430L800 470v590"/></g></symbol>
	<symbol id="compass_rose" viewBox="0 0 794.2 958" xml:space="preserve"><title>rose-blue_18_2-08</title><path fill="url(#rose-gradient)" transform="translate(-3.6 -4.56)" d="M37.7 631.46c-28.6-157 48-315.7 188.6-390.9l4.3 46a324.227 324.227 0 0 0-70.9 58.4l22.3 19.2-14.6 17-22.2-19.1a331.531 331.531 0 0 0-63.6 133l29 5.5-4.2 22-29-5.5a321.078 321.078 0 0 0-1.1 89.2zm411.4-389l-5.5 29 22 4.2 5.5-29.1a332.621 332.621 0 0 1 71.4 24.9 328.93 328.93 0 0 1 61.6 38.5l-19.3 22.3 17 14.6 19.4-22.5a320.206 320.206 0 0 1 58.4 71.1l46-4.1c-75.4-140.7-233.9-217.3-390.8-188.6l25.3 38.7a323.458 323.458 0 0 1 89 1zM352 888.96l5.5-29.1-22-4.2-5.5 29.1a331.8 331.8 0 0 1-71.3-24.9 326.269 326.269 0 0 1-61.8-38.7l19.2-22.2-17-14.6-19.4 22.4a320.535 320.535 0 0 1-58.2-70.9l-46 4.1c75.2 140.6 233.9 217.2 390.9 188.6l-25.3-38.5a320.312 320.312 0 0 1-89.1-1.1zm372.9-363.7a324.226 324.226 0 0 1-1 89.1l-29.2-5.5-4.2 22 29.2 5.5a331.1 331.1 0 0 1-63.6 133.1l-22.3-19.3-14.6 17 22.5 19.4a324.227 324.227 0 0 1-70.9 58.4l4.1 46c140.6-75.2 217.2-233.9 188.6-390.9zm-214.1 125.7l28.5 311.6-171.9-261.8-88.6 117.3 36.7-142.4-311.9 28.5 261.9-171.8-117.3-88.6 142.4 36.7-28.5-311.9L434 430.46l88.6-117.3-36.7 142.4 311.9-28.5-261.9 172 117.3 88.6zm-209.6-50.7a106.953 106.953 0 0 1-4-55.6l-184.8 121.4zm64.6-134a105.088 105.088 0 0 1 55.6-3.7L300 277.76zm62.5 178.8c43.8-15.1 67-63.2 51.7-107.2a84.157 84.157 0 1 0-51.7 107.2zm72.9 208.6l-65.8-188.5a105.088 105.088 0 0 1-55.6 3.7zm2.5-267.1l184.9-121.4-188.8 65.8a105.191 105.191 0 0 1 3.9 55.6zm-89.3 18.8a42.094 42.094 0 1 0-53.6-25.9 42.14 42.14 0 0 0 53.6 25.9zM228 134.96l-20.3-58.1 59.9 44.4 30.8-10.8-36.9-105.9-30.8 10.8 20.4 58.6-60.3-44.6-30.6 10.6 37 105.8z"/></symbol>
	<symbol id="alert" viewBox="0 0 500 500" xml:space="preserve"><path d="M233 344c0-5 2-10 5-13 3-2 7-4 12-4 6 0 10 2 13 5 2 3 4 7 4 12 0 6-2 10-5 13-2 3-7 5-12 5s-9-2-12-5-5-7-5-13zm27-36h-20l-5-116h31l-6 116z"/><path fill="none" stroke="var(--rd)" stroke-miterlimit="10" stroke-width="21" d="M413 375L269 105c-4-6-11-11-19-11-7 0-14 5-18 11L87 375c-3 6-3 14 1 20 4 7 11 11 18 11h288c8 0 14-4 18-11 4-6 4-14 1-20zm-142-94"/></symbol>
	<symbol id="weatherDude" viewBox="0 0 1102 728" xml:space="preserve"><g fill="none" fill-rule="evenodd"><g fill="#2783A0"><rect width="796.5" height="377.6" x="226.4" y="184" rx="30.3"/><g opacity=".1"><path d="M709.2 86.4C665.4 117 608.6 115 558.8 99.1c-49.7-15.9-95.4-44.1-144-64.2A470.3 470.3 0 0 0 288.4 2.1c-61.8-7-130.8 1.6-173.9 50.9-48 54.8-44.3 153.8 7.6 204.1 26.4 25.7 61 38.2 91 58.2s58 53.3 55.4 91.9c-2.3 35.7-30 63.1-58.5 80.3-22.1 13.3-49.3 27.9-52 55.4-2.6 26.6 20.3 47.5 42.2 59.4a240.3 240.3 0 0 0 230-1c25.3-14 48.6-32.7 75.1-43.6 69.7-28.8 146.6.1 220.4 10.7A443 443 0 0 0 913.1 555c36.6-10.8 73.3-27.2 99-57.8 18.5-22 30-50 40.9-77.5a3073 3073 0 0 0 33.3-88.8 222.5 222.5 0 0 0 14.3-55.2c3-34.7-9.6-69-26.8-98.3C1033.1 108 964.4 59 890.1 46.7a253 253 0 0 0-210.8 64.9"/><ellipse cx="176" cy="697.4" rx="176" ry="30"/></g><path d="M.4.6h156.7v240.3H.4z" opacity=".2" transform="translate(389 252)"/></g><g fill="var(--wh)" opacity=".2"><path d="M157.7 241H28.9a28 28 0 0 1-28-28V28.6a28 28 0 0 1 28-28h128.8V241z" transform="translate(232 252)"/><path d="M129.4 241H.6V.5h128.8a28 28 0 0 1 28 28V213a28 28 0 0 1-28 28z" transform="translate(859 252)"/><path d="M.9.6h156.7v240.3H.9z" transform="translate(702 252)"/><path d="M.2.6h156.7v240.3H.2z" transform="translate(546 252)"/></g><g fill="var(--wh)"><path d="M478.5 359c-1.2 0-2.3-1-2.3-2.2v-6.6a2.3 2.3 0 1 1 4.6 0v6.6c0 1.2-1 2.3-2.3 2.3zM467 363.8c-.6 0-1.2-.2-1.6-.7l-4.6-4.6a2.3 2.3 0 1 1 3.2-3.2l4.6 4.6a2.3 2.3 0 0 1-1.6 4zM494.7 391.4c-.6 0-1.2-.2-1.6-.6l-4.7-4.7a2.3 2.3 0 1 1 3.2-3.2l4.7 4.7a2.3 2.3 0 0 1-1.6 3.8zM501.3 375.3h-6.5a2.3 2.3 0 0 1 0-4.5h6.5a2.3 2.3 0 0 1 0 4.5zM490 363.8a2.3 2.3 0 0 1-1.6-3.9l4.7-4.6a2.3 2.3 0 1 1 3.2 3.2l-4.7 4.6c-.4.5-1 .7-1.6.7z"/><path fill-rule="nonzero" d="M490.6 373a12 12 0 0 0-21.8-7 16.9 16.9 0 0 0-24.2 9.1c-1.3-.1-2.6 0-4 .3a11.3 11.3 0 0 0 2.7 22.2h30.3l3-.3a13 13 0 0 0 9.8-15.2 12 12 0 0 0 4.2-9zm-15 19.9a8 8 0 0 1-2 .2h-30.4a6.7 6.7 0 1 1 2.2-13.2c.6.2 1.3.2 1.9-.1.5-.4 1-1 1-1.6a12.3 12.3 0 0 1 23-3.3c.4.8 1.2 1.2 2 1.2h.3a8.5 8.5 0 0 1 8.3 6.5l.2 1.9c0 4-2.7 7.4-6.5 8.4zm6-18.6c-2-1.6-4.4-2.5-7-2.7-.6-1-1.4-2-2.2-2.8a7.5 7.5 0 1 1 12.2 8.7 13 13 0 0 0-3-3.2z"/><g opacity=".5"><path fill-rule="nonzero" d="M67 18.2a13 13 0 0 0-11.7-10 16.9 16.9 0 0 0-27.6-1c-6.9.4-12.9 4.8-15.1 11.3A11.3 11.3 0 1 0 11.3 41h30.3A13 13 0 0 0 53 34.3h1.3l3-.3A13 13 0 0 0 67 18.2zm-19.8 16a8.5 8.5 0 0 1-5.6 2.3H11.2a6.8 6.8 0 1 1 2.2-13.1 2.3 2.3 0 0 0 3-1.8 12.4 12.4 0 0 1 23-3.3c.3.8 1.1 1.2 2 1.2h.2a8.5 8.5 0 0 1 5.6 14.8zm9-4.7l-1.7.2c.2-1.6.1-3.2-.3-4.8a13 13 0 0 0-11.7-10 16.9 16.9 0 0 0-9.3-7A12.3 12.3 0 0 1 52 11.5c.4.8 1.2 1.2 2 1.2h.3a8.5 8.5 0 0 1 2 16.8z" transform="translate(591 352)"/><path d="M38.6 42.7l-1.5-.9 1.5-.8a1.1 1.1 0 0 0-1.2-2l-1.4.9v-1.7a1.1 1.1 0 1 0-2.3 0V40l-1.5-.8a1.1 1.1 0 1 0-1 2l1.4.8-1.5.8a1.1 1.1 0 0 0-.4 1.6 1.1 1.1 0 0 0 1.6.4l1.4-.8v1.6a1.1 1.1 0 0 0 2.3 0V44l1.5.8.5.2a1.2 1.2 0 0 0 1.1-1.5c0-.3-.3-.6-.5-.7zM31.7 33.2l-1.4-.8 1.4-.9a1.1 1.1 0 0 0 .4-1.5 1.1 1.1 0 0 0-1.5-.4l-1.5.8v-1.6a1.1 1.1 0 0 0-2.2 0v1.6l-1.5-.8a1.1 1.1 0 1 0-1.1 2l1.4.8-1.4.9a1.1 1.1 0 0 0 .6 2h.5l1.5-1v1.8a1.1 1.1 0 0 0 2.2 0v-1.7l1.5.8.5.2a1.1 1.1 0 0 0 .6-2.1zM25 42.7l-1.5-.9 1.4-.8a1.1 1.1 0 0 0-1.1-2l-1.5.9v-1.7a1.1 1.1 0 1 0-2.2 0V40l-1.5-.8a1.2 1.2 0 0 0-1.1 2l1.4.8-1.4.8a1.1 1.1 0 0 0-.4 1.6 1.1 1.1 0 0 0 1.5.4l1.5-.8v1.6a1.1 1.1 0 0 0 2.3 0V44l1.4.8.6.2a1.1 1.1 0 0 0 .6-2.2z" transform="translate(910 349)"/><path d="M55 18.6a13 13 0 0 0-11.7-10 16.9 16.9 0 0 0-30 3.6 11.3 11.3 0 1 0-1.4 22.5h3.7a2.3 2.3 0 1 0 0-4.6h-3.7A6.8 6.8 0 1 1 14.1 17a2.3 2.3 0 0 0 3-1.7 12.3 12.3 0 0 1 23-3.4c.3.8 1.1 1.3 2 1.2h.2a8.5 8.5 0 1 1 0 17h-1.8a2.3 2.3 0 1 0 0 4.6h1.8a13 13 0 0 0 12.7-16z" transform="translate(910 349)"/><path d="M45.6 34.3c-1 .3-2 .4-3 .4h-5.2a2.3 2.3 0 1 1 0-4.6h5.2c.6 0 1.3 0 2-.2a8.5 8.5 0 0 0-2-16.8h-.3c-.8 0-1.6-.4-2-1.2a12.3 12.3 0 0 0-23 3.4 2.3 2.3 0 0 1-3 1.7A6.8 6.8 0 1 0 12 30h7.6a2.3 2.3 0 1 1 0 4.6H12a11.3 11.3 0 1 1 1.3-22.5 16.9 16.9 0 0 1 30.2-3.6 13 13 0 0 1 2 25.7z" transform="translate(753 347)"/><path d="M29.2 34.1h3.2l-6.8 16.5 1.6-11.9h-3.1l2.5-13.2h6.2z" transform="translate(753 347)"/><path d="M25.3 11.8c-1.3 0-2.3-1-2.3-2.3V3a2.3 2.3 0 1 1 4.6 0v6.5c0 1.3-1 2.3-2.3 2.3zM9 28H2.5a2.3 2.3 0 1 1 0-4.5H9a2.3 2.3 0 1 1 0 4.6zM25.3 50.9c-1.3 0-2.3-1-2.3-2.3V42a2.3 2.3 0 0 1 4.6 0v6.6c0 1.3-1 2.3-2.3 2.3zM48.1 28h-6.5a2.3 2.3 0 1 1 0-4.5H48a2.3 2.3 0 1 1 0 4.6z" transform="translate(286 347)"/><path fill-rule="nonzero" d="M25.3 37.8a12 12 0 1 1 0-24 12 12 0 0 1 0 24zm0-19.5a7.5 7.5 0 1 0 0 15 7.5 7.5 0 0 0 0-15z" transform="translate(286 347)"/><path d="M13.8 16.6c-.6 0-1.2-.3-1.6-.7l-2.3-2.3a2.3 2.3 0 0 1 3.2-3.2l2.3 2.3a2.3 2.3 0 0 1-1.6 3.9zM11.5 41.9A2.3 2.3 0 0 1 9.9 38l2.3-2.3a2.3 2.3 0 1 1 3.2 3.2l-2.3 2.3c-.5.4-1 .7-1.6.7zM39.1 41.9c-.6 0-1.2-.3-1.6-.7L35.2 39a2.3 2.3 0 0 1 3.2-3.2l2.3 2.3a2.3 2.3 0 0 1-1.6 3.9zM36.8 16.6a2.3 2.3 0 0 1-1.6-4l2.3-2.2a2.3 2.3 0 0 1 3.2 3.2l-2.3 2.3c-.4.4-1 .7-1.6.7z" transform="translate(286 347)"/></g></g><g fill="#F6F7F9"><rect width="91.5" height="28" x="265.5" y="263.1" rx="14"/><rect width="91.5" height="28" x="422.1" y="263.1" rx="14"/><rect width="91.5" height="28" x="578.8" y="263.1" rx="14"/><rect width="91.5" height="28" x="735.4" y="263.1" rx="14"/><rect width="91.5" height="28" x="892" y="263.1" rx="14"/></g><path fill="url(#dudeG)" d="M422.1 368.8s-29.8-30-39.1-30.4c-5.4-.2-11.6-2.9-16-5.1l-1-.6c1-1.3.5-2 0-2.4l-.6-.2-71.1-56.2c.6-1.1-3.2-13-3.2-13l-3.7-12.5-8-10.3s2.2-7.3 0-10.9c-2.3-3.6-1.8-12.1-3.4-32.8-1.5-20.6-10-21.9-10-21.9s-32.7-21.7-36.4-21c-3.5.5-8.3-6.3-8.9-7.2l-.1.1v-2.3-.9a49.5 49.5 0 0 1 3.8-12 39.3 39.3 0 0 0 27.3-27l.1-.7 4.9.4h.3c-.5-1-1-2.2-1.1-3.4h-.3l-.2-1.8.4 1.2c-.4-3.6.2-7.2 1.6-10.6 1.8-4.6 4.6-8.8 6.7-13.4 1.5-3 2.2-6.5 2-9.9 0-1.2-.4-2.4-.9-3.5v.9a9.5 9.5 0 0 0-4.6-5.7c-1.8-.9-4-1-5.6-2.2-5-3.2-4.7-8.5-11.2-10.2-5.3-1.4-10.9-1.4-16.2-2.8a51.4 51.4 0 0 0-32.4 2.8 66 66 0 0 0-22.7 14 32 32 0 0 0-10 23.7c0 2.8.9 5.6 2.3 8 1.3 2 3.3 3.8 4 6.1.8 2.8-.3 5.6-.3 8.5 0 2.6 1.8 5.6 4.2 5.5h1c.9-.3 1.7-.9 2.2-1.6a23.2 23.2 0 0 0 1.7 3.4l-.2 1.3c-1 3.2-2.7 6-5 8.4-.7 0-1.3.2-1.8.5l-.5.3-16.2 8.2h-1.8c-5.2-.1-20.3-.2-22.6.7-2.8 1.1-30.1 3.3-30.1 3.3s-14.6.9-13.8 22c0 0-5.5 18-7.1 21-1.7 3-11.3 32-11.3 32L56 264.2l-1.4 61.6-.2 15.3c-.5 13.8-1.1 25.3-2.1 27.3l1 .4-.2.5 1-.2 6.1 2.3S45 388.8 56 393.2c5.5 2.2 18.5 8.5 30.3 14.3a75.9 75.9 0 0 0 3 38.5c1.5 7.2 1.8 14.6.8 21.9-1.8 11 .1 47.7.1 47.7l-.1 64.1s2.4 41.2 4.4 50c2.1 8.9-4.4 12.5-4.4 12.5s4.3 24.2 9.4 27.4l-.3 1.5c-1 4-2.3 7.8-4 11.6C91.8 691 94 697 94 697s.3 11.8 21.7 14.2c21.3 2.4 20.4-12.5 18.7-18.2a89.8 89.8 0 0 1 .6-23.9c1.3-.8 3-2.6 5-6.4 4.2-8.3 0-28.1-3-34.7-3-6.5-.3-13.6-.3-13.6s-3.2-36.6 0-39.7c3.3-3.1 2.7-17 2.7-17l5.3-28.7 6.3-12.2 1.7-26.7 5-23.6s2.1-2 3.9-20.7c1.8-18.7 4.1-12.8 4.1-12.8-.8 12.5 6 18.8 6 18.8l1.8 32.6s2.3 24.4 6.1 30.4 0 13.3 0 13.3 1.3 23.3.2 30.1c-1.1 6.8 4.3 22.5 4.3 22.5l1.5 28s-8.9 25.3-4.8 33.6c4.2 8.2 2.1 17.8 2.1 17.8.2.6.5 1.1 1 1.5l-.4 1.4c-.6 3-1 6-1.3 9 0 0 2.2 3 12.1 6.7 10 3.7 7.8 10 9.2 14 1.5 4 11.6 7.5 31.4 6.6 20-.8 7.3-15.2 7.3-15.2s-10.4-14.6-14-16.6c-1.2-.7-2.4-3-3.6-5.6l-.7-1.5.9-.3s5.3-42 1.4-46c-3.8-4 1.3-31.2 1.3-31.2s2.6-9 1.4-11.6c-1.2-2.6 1.2-12.5 1.2-12.5s1.7-27-1.5-33.2c-3.3-6.2 1.8-42.6 1.8-42.6s2-34 7.3-46.3c1-2.2 1.5-7 1.9-13.2 2.9-1.4 4.7-2.5 4.7-2.5s6-80.9 2.4-90.9a58.6 58.6 0 0 1-3-19.9l6.9-24.4s4.4 12 7.3 13.6c2.9 1.5 6.4 7.4 6.4 7.4l30.5 24.3 23.6 17.2 20.9 17.3c.4-4 1.7-7.9 3.7-11.4l.8.3a34 34 0 0 0 7.5 2.4c-.6-.4-.3-2.6.8-5.4l.9.8c4.3 4 8.9 7.9 13.7 11.4 22 16.9 33.7-2 33.7-2s11.1 9.7 16.6 11.8c5.5 2.1 5.2-4.7 5.2-4.7z"/><path fill="#B07473" d="M184.9 670.2s2 3 11.5 6.6c9.4 3.7 7.3 10 8.7 13.9 1.5 4 11 7.4 29.9 6.6 18.9-.9 6.9-15 6.9-15s-9.9-14.6-13.2-16.6c-1.2-.7-2.4-2.9-3.6-5.6-1.5-3.7-2.7-7.6-3.8-11.6 0 0-31 4.3-33.3 7.4-1 1.6-1.6 3.4-1.9 5.3-.6 3-1 6-1.2 9zM101 695s.3 11.7 20.6 14.1c20.3 2.4 19.5-12.4 17.8-18a95 95 0 0 1 .4-22l1-8.7s-34.1.7-33.8 2.6c0 2.1-.3 4.3-1 6.4-.9 3.9-2.1 7.7-3.7 11.5-3.3 8.2-1.2 14.1-1.2 14.1z"/><path fill="#EFB7B9" d="M341.6 346.4a27 27 0 0 0 5.4 6.7c4.2 4 8.5 7.7 13 11.3 21 16.7 32-2 32-2S402.7 372 408 374c5.2 2 5-4.7 5-4.7s-28.3-29.7-37.2-30c-5.1-.3-11-3-15-5.2-3-1.6-5.1-3-5.1-3l-7.7 7.3-6.6 6.4s-.3.3.3 1.5z"/><path fill="#000" d="M188 655.9c-1 1.6-1.6 3.5-1.9 5.3 5.3 7.7 36.4-.3 39-1-1.5-3.8-2.8-7.6-3.8-11.6 0 0-31 4.2-33.3 7.3zM106 669.3l.7.5c5 2.3 31-.1 31-.1.8.1 1.6 0 2.2-.5.4-5 .9-8.8.9-8.8s-34 .7-33.8 2.5c0 2.2-.3 4.4-1 6.4z" opacity=".1"/><path fill="#444053" d="M96.7 446a66 66 0 0 1 .7 21.8c-1.7 11 .1 47.3.1 47.3v63.6s2.2 40.9 4.1 49.6c2 8.7-4.2 12.4-4.2 12.4s4.2 25 9.3 27.4c5 2.3 31 0 31 0s3.1 1 7-7c3.9-8.2 0-28-2.8-34.5s-.3-13.5-.3-13.5-3.1-36.3 0-39.4c3.1-3 2.5-16.9 2.5-16.9l5.1-28.4 6-12.2 1.6-26.5 4.8-23.3s2-2 3.7-20.6c1.6-18.6 4-12.7 4-12.7-1 12.4 5.6 18.6 5.6 18.6l1.7 32.4s2.2 24.2 5.8 30.1c3.6 6 0 13.3 0 13.3s1.2 23 .2 29.9c-1.1 6.7 4 22.2 4 22.2l1.5 27.9s-8.4 25-4.5 33.2c4 8.2 2 17.8 2 17.8 3.1 9.8 39.8 0 39.8 0s5-41.7 1.3-45.7c-3.6-3.9 1.2-31 1.2-31s2.5-9 1.4-11.5c-1.2-2.5 1-12.4 1-12.4s1.8-26.8-1.3-33c-3.1-6.1 1.7-42.2 1.7-42.2s2-33.8 7-46c.8-2.1 1.4-6.8 1.7-13 1.5-27.7-1.8-85-1.8-85L223.8 320l-14.4-.8-13.8-.7-26-1.4-25.8-1.4-31.5-1.6s-6.4 58-15.6 83a78.4 78.4 0 0 0 0 49z"/><path fill="#EFB7B9" d="M173.3 125.2l11.2 27.5 24.3 4s12.9 4.4 12.3-6.6c-.4-5.8 1.4-12 3.2-16.5.9-2.3 2-4.5 3-6.7 0 0-49.8-28-47-18.6.6 2.1.6 4.3.1 6.4a21.2 21.2 0 0 1-7 10.5z"/><path fill="#B07473" d="M202.5 325.2h-54.7l2.8 19.2h53z"/><path fill="#000" d="M202.5 325.2h-54.7l2.8 19.2h53zM341.6 346.4a27 27 0 0 0 5.4 6.7c1.9-5.5 6-13.4 10.2-16a11 11 0 0 0 3.4-2.9c-3-1.6-5-3-5-3l-7.7 7.4-6.3 7.8z" opacity=".1"/><path fill="#E1E7EF" d="M334.3 353.7a423.4 423.4 0 0 0 11.2 4c-1.8-1.2 4.6-17.4 11-21.5 4.7-3 3.8-4.4 3-5l-.5-.2-5.1-1.9-19.6 24.6z"/><path fill="#000" d="M180.3 108.4c.6 2 .6 4.3.1 6.4a38.1 38.1 0 0 0 43.9 18.9c.9-2.3 2-4.6 3-6.7 0 0-49.7-28.2-47-18.6z" opacity=".1"/><path fill="#EFB7B9" d="M176 95.2a38.1 38.1 0 1 0 76.2 0 38.1 38.1 0 0 0-76.2 0z"/><path fill="#E1E7EF" d="M142.5 325.3l24.3 1.1 28 1.2 13.6.7 1-9.2 10.8-94.6 3.6-71.6h-9.7l-26.8-4.4-9.6-3.6-12.4-4.7-10.1 20.7-3.4 94.9-8 59.8z"/><path fill="#000" d="M175.6 220.3s9.8-42.4 16.5-50.7c0 0-2.5-14.6-8.1-16.5-5.6-1.9 8.5-4.6 8.5-4.6l8.7 3 8.7 3.5s-7.7 6.8-6.4 15.7c-.7 4-.3 8 1 11.8 2.4 6 2.8 53.9 0 60.2-2.7 6.4-2.3 20.3-2.3 20.3l-5.6 27.2-2 32.8-20.4 15.2-14.4-18 15.8-99.9z" opacity=".1"/><path fill="#B07473" d="M174.8 219.5s9.7-42.5 16.5-50.7c0 0-2.6-14.6-8.2-16.5-5.5-1.9 8.6-4.7 8.6-4.7l8.7 3 8.6 3.6s-7.6 6.8-6.3 15.6c-.7 4-.4 8 1 11.8 2.3 6 2.7 54 0 60.3-2.8 6.3-2.3 20.2-2.3 20.2l-5.7 27.3-2 32.7-20.4 15.2-14.4-18 15.9-99.8z"/><path fill="#000" d="M221.5 144.5l-21.2 7S211 156.9 211 173c0 0 10.8-13.1 10.6-28.5z" opacity=".1"/><path fill="#E1E7EF" d="M221.5 143.6l-21.2 7s10.6 5.5 10.6 21.5c0 0 10.8-13 10.6-28.5z"/><path fill="#000" d="M175.6 124s10.4 17.8 24.8 27.5c0 0-8.8-3.2-24.8 9 0 0-10-35.7 0-36.5z" opacity=".1"/><path fill="#E1E7EF" d="M175.6 123.1s10.4 17.9 24.8 27.6c0 0-8.8-3.3-24.8 9 0 0-10-35.8 0-36.6z"/><path fill="#000" d="M334.3 353.7l4 1.5c6.3-12.1 19-22.2 21.2-24l-.5-.2-5.1-1.9-19.6 24.6zM191.7 383.8c.6 14.2 8.4 40.4 8.4 40.4 9.9 13.6 31.6 3.6 39.3-.6 1.5-27.6-1.8-84.8-1.8-84.8l-13.8-19-14.4-.7 10.8-94.6 3.6-71.6h-5.4c-1.7 7.3-4.5 19.6-4 22.6.7 4.4-6.6 48-6.6 48l-9 55.4-2.5 15c.8 2.6.2 13.4-.8 24.5l-.8 9.2-2 18.9c-1.2 9.7-1 37.3-1 37.3z" opacity=".1"/><path fill="#67647E" d="M193.4 383c.6 14.1 8.4 40.3 8.4 40.3 12 16.7 42-2 42-2s5.7-80.4 2.3-90.3c-2-6.3-3-13-2.9-19.6l6.5-24.3s4.3 12 7 13.5c2.8 1.5 6.2 7.4 6.2 7.4l28.9 24 22.4 17.2 19.9 17C335.4 348.6 359 331 359 331l-67.6-55.8c.6-1-3-12.9-3-12.9l-3.6-12.3-7.6-10.3s2.1-7.1 0-10.7c-2.1-3.6-1.7-12-3.2-32.6-1.4-20.5-9.4-21.7-9.4-21.7s-31-21.6-34.7-21c-3.3.7-7.8-6-8.4-7v-.1s-6 23.7-5.4 28c.7 4.5-6.6 48-6.6 48l-9 55.4-2.5 15.1c1.8 5.7-3.6 52.5-3.6 52.5-1.2 9.8-1 37.4-1 37.4z"/><path fill="#000" d="M93.8 407.8L117 420s18.8 6.2 26.4-29l21.8-59.8 1.5-4.8 2.7-9.4c4.3-15.2 10-38.5 7.9-47.7v-.7l-.4-81.8s2.3-38.5.8-41.6v-.3l-12.5-4.7L155 161l-3.3 94.9-8 59.8-31.5-1.7S106 372 96.7 397a66 66 0 0 0-3 10.8z" opacity=".1"/><path fill="#67647E" d="M65 393.7c10.6 4.3 50.4 25.5 50.4 25.5s18.8 6.2 26.4-29l21.8-59.9s15.3-47.7 12-61.8v-.7l-.3-81.9s2.3-38.4.8-41.6c-1.3-3-3-11.9-2.3-19.5l.2-1.2-.5.3L158 132h-1.7c-5 0-19.4-.2-21.6.8-2.6 1-28.6 3.3-28.6 3.3s-13.8.8-13 21.8c0 0-5.3 17.8-6.8 20.8s-10.7 31.8-10.7 31.8L65 265.7l-1.3 61.1s-.1 39-2.2 42.3l7.6 3s-14.6 17.2-4 21.6z"/><path fill="#EFB7B9" d="M102.5 359l4.8 6.4s29.3 53-3.4 45.3C71.2 403 76 376.2 76 376.2l2-18.6 24.5 1.4z"/><path fill="#000" d="M143.7 645.6c-.7-.1-12-5-20-5-7.9 0-18.4-.8-17.1 1.4 1.2 2 16.4 2.4 20.8 4.5 4.4 2 13.7 7.9 14.5 8.1.9.3 1.8-9 1.8-9zM222.3 621.7c-.1.8-16.9 19.6-26.2 18.8-9.3-.8 26.2-18.8 26.2-18.8zM217.4 576.8s-18 45.7-23.8 48.1c-5.8 2.4-6.6-5.6-3.5-7.9 3-2.2 12.7-17 27.3-40.3zM124.7 561.7s-3 16.9 4.5 27.9-4.5-28-4.5-28zM172 408.5a875 875 0 0 0-26.8-1.4s12.2 13.3 26.9 1.4zM168.7 420.1l-16.5 1.6s5.8 7 16.5-1.6zM266.1 244.5s14.8 2 16.2 6.4c1.4 4.3-16.2-6.4-16.2-6.4zM292.3 280.7a35.5 35.5 0 0 0-16.7-1.4c-6.5 1.7-15.7-3-15.7-3s-9.3-.4-7.4 1c1.8 1.2 7.3.6 10.4 2.5 3 1.8 11.2 3.3 13.3 2.5 2-.9 16.1-1.6 16.1-1.6z" opacity=".1"/><path fill="#67647E" d="M200.4 278l.4 7.7s25.9-63.7 32.4-77.4c6.4-13.6 2.8-43.3 2.8-43.3l-3.7-.9-10.7-17.4v-.1s-6 23.7-5.4 28c.7 4.5-6.6 48-6.6 48l-9.2 55.4zM148.6 144.7s10.6 109.5 27.1 123l-.4-81.8s2.3-38.4.8-41.6c-1.3-3-3-11.9-2.2-19.5l-.4-.9-15.4 8.1h-1.7l-1 14.6-6.8-2z"/><path fill="#000" d="M200.4 278l.4 7.7s25.9-63.7 32.4-77.4c6.4-13.6 2.8-43.3 2.8-43.3l-3.7-.9-10.7-17.4v-.1s-6 23.7-5.4 28c.7 4.5-6.6 48-6.6 48l-9.2 55.4zM148.6 144.7s10.6 109.5 27.1 123l-.4-81.8s2.3-38.4.8-41.6c-1.3-3-3-11.9-2.2-19.5l-.4-.9-15.4 8.1h-1.7l-1 14.6-6.8-2z" opacity=".1"/><circle cx="203.6" cy="296.1" r="3.1" fill="#444053"/><circle cx="200.4" cy="342.7" r="3.1" fill="#444053"/><path fill="#000" d="M176 95.2c0 5.5 1.2 11 3.5 16l.5-.7c6.1-7.7 7.4-18.3 13-26.5 2-3 4.5-5.6 7.8-6.7 3.3-1 7.3-.2 9.4 2.7 1.3 1.8 1.6 4.2 3 6 2.6 3.3 7.5 3.3 11.7 2.6 4.1-.6 8.8-1.3 12 1.5 3.2 2.7 3.5 7.5 6 10.7 2 2.4 5 3.6 8 4a38 38 0 1 0-75-9.5z" opacity=".1"/><path fill="#585268" d="M197.4 46.4a62.4 62.4 0 0 0-21.6 13.8c-6 6.3-10 14.9-9.6 23.7.1 2.7.9 5.4 2.2 7.8 1.3 2 3.2 3.8 3.9 6.1.7 2.7-.3 5.6-.3 8.4 0 2.8 2 6.2 4.7 5.4 1-.3 1.8-1 2.4-1.9 6.2-7.7 7.5-18.4 13-26.5 2-3 4.5-5.6 7.8-6.7 3.3-1 7.4-.2 9.4 2.6 1.3 1.9 1.6 4.2 3 6 2.6 3.4 7.5 3.3 11.7 2.7 4.1-.6 8.8-1.3 12 1.4 3.3 2.8 3.5 7.6 6 10.8 3.2 3.9 8.8 4.4 13.7 4.6-2-4.5-1.3-9.8.4-14.4 1.8-4.7 4.4-8.9 6.3-13.4a21 21 0 0 0 2-9.8c-.3-3.4-2-6.7-4.9-8.2-1.7-.9-3.7-1.1-5.3-2.2-4.7-3.3-4.4-8.5-10.7-10.2-5-1.3-10.3-1.3-15.4-2.7-11-3.1-20.2-1.2-30.7 2.7z"/><path fill="#000" d="M86.3 363.5s-8.6 8.5-9.7 8.4c-1.2-.2-2.8-7.7-2.8-7.7l12.5-.7z" opacity=".1"/><path fill="#E1E7EF" d="M85.4 362.7s-8.6 8.4-9.7 8.3c-1.1-.1-2.8-7.6-2.8-7.6l12.5-.7z"/><path fill="#000" d="M62.3 369.9s36.7-8.5 45.8-4.5c0 0-3.4-20.7-2.8-24.5.5-3.8-.1-17-.1-17s-2.2-24.7.7-31.6c2.8-7 1.2-25.2 1.2-25.2l-41.7 19.8s-.5 77.5-3 83z" opacity=".1"/><path fill="#67647E" d="M61.5 369s36.6-8.4 45.8-4.5c0 0-3.4-20.7-2.8-24.5.5-3.8-.2-17-.2-17s-2.1-24.6.7-31.5c2.8-7 1.3-25.2 1.3-25.2L64.6 286s-.6 77.4-3.1 83z"/><path fill="#000" opacity=".1" d="M88.9 37.6c-1.7-4.4-1-9.5.7-13.9 1.7-4.6 4.4-8.8 6.3-13.3a21 21 0 0 0 2-10c.4 1.2.7 2.4.8 3.6a21 21 0 0 1-2 9.8c-1.9 4.5-4.5 8.7-6.3 13.3A22.3 22.3 0 0 0 89 37.6zM10.1 45.2c1-.3 1.9-1 2.5-1.9 6.1-7.7 7.4-18.4 12.9-26.5 2-3 4.6-5.6 7.9-6.7 3.3-1 7.3-.2 9.3 2.6 1.3 1.9 1.7 4.2 3 6 2.6 3.4 7.5 3.3 11.7 2.7 4.1-.6 8.9-1.3 12 1.4 3.3 2.8 3.5 7.6 6 10.8 3.2 3.8 8.7 4.4 13.5 4.6.2 1.1.6 2.3 1 3.4-4.9-.2-10.5-.7-13.6-4.6-2.6-3.3-3-8.1-6-10.8-3-2.7-8-2-12-1.4-4.2.6-9.2.7-11.8-2.7-1.3-1.8-1.7-4.1-3-6-2-2.9-6-3.7-9.3-2.6a16 16 0 0 0-7.9 6.6c-5.5 8.2-6.8 19-13 26.6-.5.9-1.4 1.5-2.4 2-2.6.6-4.7-2.7-4.7-5.5V43c.9 1.5 2.3 2.6 4 2.1zM1.9 25.3C3 27.4 5 29.1 5.7 31.5c.2.6.3 1.3.3 2-.9-1.7-2.3-3.1-3.3-4.8C1.7 27 1 25 .7 23c.3.9.7 1.7 1.2 2.4z" transform="translate(166 63)"/></g></symbol>
	<symbol id="clouds" viewBox="0 0 344 147" xml:space="preserve"><use transform="translate(172 73)" xlink:href="#cloudP"/></symbol>
	<symbol id="raindrop" viewBox="0 0 223 319" xml:space="preserve">
		<path fill="url(#rain)" stroke="url(#rain)" stroke-width="1" stroke-linejoin="miter" stroke-miterlimit="1.0" d="M112 13l72 109c31 43 41 115 2 154-21 21-48 30-74 30-27 0-54-9-75-30-39-39-29-111 2-154l73-109z"/>
	</symbol>
	<symbol id="legend" viewBox="0 0 32 32" xml:space="preserve"><title>About the icons</title><path fill="currentColor" d="M17.97 13.2l-2.2 7.62a4.21 4.21 0 0 0-.18.86.31.31 0 0 0 .1.22.28.28 0 0 0 .2.1.56.56 0 0 0 .37-.16 6.57 6.57 0 0 0 1.16-1.43l.36.21q-1.62 2.82-3.44 2.82a1.55 1.55 0 0 1-1.11-.39 1.3 1.3 0 0 1-.42-1 3.68 3.68 0 0 1 .18-1l1.5-5.13a4.44 4.44 0 0 0 .21-1.12.55.55 0 0 0-.2-.42.8.8 0 0 0-.56-.18l-.39.01.14-.43 3.64-.59zm-.66-4.94a1.58 1.58 0 0 1 1.12 2.69 1.58 1.58 0 0 1-2.23-2.23 1.5 1.5 0 0 1 1.11-.46z"/><g><path fill="#fdcd4c" d="M16 5.56V1A15 15 0 0 0 1 16h4.56A10.44 10.44 0 0 1 16 5.56z"/><path fill="#ea1f56" d="M16 1v4.56A10.44 10.44 0 0 1 26.44 16H31A15 15 0 0 0 16 1z"/><path fill="#2ebef9" d="M16 26.44V31a15 15 0 0 0 15-15h-4.56A10.44 10.44 0 0 1 16 26.44z"/><path fill="#9bc650" d="M5.56 16H1a15 15 0 0 0 15 15v-4.56A10.44 10.44 0 0 1 5.56 16z"/></g></symbol>
</svg>
