<svg id="goldenhour" version="1.1" xmlns="http://www.w3.org/2000/svg" xmlns:xlink="http://www.w3.org/1999/xlink" viewBox="0 0 600 600" xml:space="preserve">
	<defs>
		<radialGradient id="suncore" gradientUnits="userSpaceOnUse" r="95" spreadMethod="pad">
			<stop stop-color="#fff76b" offset="0"/>
			<stop stop-color="#fff845" offset="0.1"/>
			<stop stop-color="#ffda4e" offset="0.3"/>
			<stop stop-color="#fb8933" offset="1"/>
		</radialGradient>
	</defs>
	<g fill="url(#suncore)">
		<path d="M299.6,397.1c18,0,32.6-14.6,32.6-32.6c0-9.6-4.1-18.2-10.7-24.1V17h-42.8v322.7c-7.1,6-11.6,14.9-11.6,24.9 C267,382.5,281.6,397.1,299.6,397.1z"/>
		<path d="M560.7,343.1H378.2l65.5-37.8c10.2-5.9,13.8-19,7.8-29.3c-5.9-10.2-19-13.8-29.3-7.8l-64.8,37.4l72.7-124.4 c6-10.2,2.5-23.3-7.7-29.3c-10.2-6-23.3-2.5-29.3,7.7l-38.5,65.8v103.2c6.9,10.6,10.7,23.1,10.7,36c0,32.2-23.2,59-53.7,64.8   c-0.1,0-0.2,0.1-0.3,0.1c-4.3,0.9-8.7,1.3-13.2,1.3c-7.5,0-14.7-1.3-21.4-3.6v0c-26.1-8.9-44.8-33.6-44.8-62.7   c0-14.8,4.9-28.5,13.1-39.5v-95.3l-5.2-9.1c-5.9-10.2-19-13.8-29.3-7.8c-10.2,5.9-13.8,19-7.8,29.3l36.9,64l-133.2-76.9   c-10.2-5.9-23.3-2.4-29.3,7.8c-5.9,10.2-2.4,23.3,7.8,29.3l133.2,76.9H38.5c-11.8,0-21.4,9.6-21.4,21.4c0,11.8,9.6,21.4,21.4,21.4 h179.9L154.2,423c-10.2,5.9-13.8,19-7.8,29.3c4,6.9,11.2,10.7,18.6,10.7c3.6,0,7.3-0.9,10.7-2.9l63.4-36.6l-72.4,123.8   c-6,10.2-2.5,23.3,7.7,29.3c3.4,2,7.1,2.9,10.8,2.9c7.4,0,14.5-3.8,18.5-10.6l73.4-125.5v96c0,11.8,9.6,21.4,21.4,21.4   c11.8,0,21.4-9.6,21.4-21.4v-95l37.6,65.1c4,6.9,11.2,10.7,18.6,10.7c3.6,0,7.3-0.9,10.7-2.9c10.2-5.9,13.8-19,7.8-29.3l-37.6-65.1   l135.7,78.4c3.4,1.9,7.1,2.9,10.7,2.9c7.4,0,14.6-3.8,18.6-10.7c5.9-10.2,2.4-23.3-7.8-29.3L378.2,386h182.5 c11.8,0,21.4-9.6,21.4-21.4C582.1,352.7,572.5,343.1,560.7,343.1z"/>
	</g>
</svg>
