<svg id="hilowtemp" xmlns="http://www.w3.org/2000/svg" xmlns:xlink="http://www.w3.org/1999/xlink" viewBox="0 0 595 842" width="auto" xml:space="preserve">
	<title>Min/Max Temperature</title>
	<defs>
		<style>
			:root {
				--tempClr: rgb(195, 230, 77);
				--wh: #dff0fe;
				--lb: #98ccfd;
				--db: #4788c7;
			}
		</style>
		<linearGradient id="pc_scale_clr" x2="0" y2="100%">
			<stop offset="0" stop-color="#df3341" />
			<stop offset="0.5" stop-color="#d4f355" />
			<stop offset="1" stop-color="#61c0ec" />
		</linearGradient>
		<linearGradient id="pc_temp_clr" x2="0" y2="100%">
			<stop offset="0.28" stop-color="var(--tempClr)" />
			<stop offset="1" stop-color="var(--db)" />
		</linearGradient>
		<path id="pc_scale" fill="url(#pc_scale_clr)" d="M468 210h93v24h-93zM468 263h54v24h-54zM468 315h93v24h-93zM468 368h54v24h-54zM468 420h93v24h-93z"/>
		<g id="pc_temp">
			<path fill="var(--db)" d="M423 477V200a62 62 0 0 0-124 0v277c-36 21-61 59-60 115 0 54 60 111 122 111a122 122 0 0 0 62-226zm-62 202a98 98 0 0 1-44-185l6-3V200a38 38 0 0 1 76 0v291l6 3c33 17 54 51 54 87 0 54-44 98-98 98z"/>
			<path fill="url(#pc_temp_clr)" d="M439 582a78 78 0 1 1-98-75l5-2V238h31v267l4 2c34 9 58 39 58 75z"/>
			<path fill="var(--wh)" d="M365 530c-2-8-10-14-19-12-29 7-50 32-50 63a16 16 0 0 0 31 0c0-16 11-29 26-33 8-2 14-10 12-18z"/>
		</g>
		<g id="pc_man" fill="var(--lb)">
			<circle cx="152" cy="272" r="36"/>
			<path d="M66 340h160v169l-5 1c-4-17-7-87-11-104h-14l-12 305h-17l-9-151h-19l-12 154h-18c1-101 3-207-10-309l-15-1-14 105-6 2 2-171z"/>
		</g>
	</defs>
	<use xlink:href="#pc_scale"/>
	<use xlink:href="#pc_temp"/>
	<use xlink:href="#pc_man"/>
</svg>
