<svg id="humidity" xmlns="http://www.w3.org/2000/svg" xmlns:xlink="http://www.w3.org/1999/xlink" viewBox="0 0 40 40" xml:space="preserve">
	<defs>
	</defs>
	<path fill="#dff0fe" d="M10,22.214c-2.481,0-4.5-2.019-4.5-4.5V6c0-2.481,2.019-4.5,4.5-4.5s4.5,2.019,4.5,4.5v11.714 C14.5,20.196,12.481,22.214,10,22.214z"/>
	<path fill="#4788c7" d="M10,2c2.206,0,4,1.794,4,4v11.714c0,2.206-1.794,4-4,4s-4-1.794-4-4V6C6,3.794,7.794,2,10,2 M10,1 C7.25,1,5,3.25,5,6v11.714c0,2.75,2.25,5,5,5s5-2.25,5-5V6C15,3.25,12.75,1,10,1L10,1z"/>
	<path fill="#98ccfd" d="M10,38.5c-4.136,0-7.5-3.364-7.5-7.5c0-2.283,1.025-4.415,2.813-5.85L5.5,25v-9.5h9V25l0.187,0.15 C16.475,26.585,17.5,28.717,17.5,31C17.5,35.136,14.136,38.5,10,38.5z"/>
	<path fill="#4788c7" d="M14,16v8.76v0.48l0.374,0.3C16.043,26.879,17,28.869,17,31c0,3.86-3.14,7-7,7s-7-3.14-7-7 c0-2.131,0.957-4.121,2.626-5.46L6,25.24v-0.48V16H14 M15,15H5v9.76C3.173,26.227,2,28.475,2,31c0,4.418,3.582,8,8,8s8-3.582,8-8   c0-2.525-1.173-4.773-3-6.24V15L15,15z"/>
	<g>
		<path fill="#4788c7" d="M9.5,19h5c0.276,0,0.5,0.224,0.5,0.5l0,0c0,0.276-0.224,0.5-0.5,0.5h-5C9.224,20,9,19.776,9,19.5l0,0 C9,19.224,9.224,19,9.5,19z"/>
		<path fill="#4788c7" d="M9.5,23h5c0.276,0,0.5,0.224,0.5,0.5l0,0c0,0.276-0.224,0.5-0.5,0.5h-5C9.224,24,9,23.776,9,23.5l0,0 C9,23.224,9.224,23,9.5,23z"/>
		<path fill="#4788c7" d="M9.5,11h5c0.276,0,0.5,0.224,0.5,0.5v0c0,0.276-0.224,0.5-0.5,0.5h-5C9.224,12,9,11.776,9,11.5v0 C9,11.224,9.224,11,9.5,11z"/>
		<path fill="#4788c7" d="M9.5,7h5C14.776,7,15,7.224,15,7.5v0C15,7.776,14.776,8,14.5,8h-5C9.224,8,9,7.776,9,7.5v0 C9,7.224,9.224,7,9.5,7z"/>
	</g>
	<g>
		<path fill="#98ccfd" d="M25.5,25.5c-2.757,0-5-2.386-5-5.318c0-2.298,3.308-7.133,5-9.364c1.692,2.231,5,7.066,5,9.364 C30.5,23.114,28.257,25.5,25.5,25.5z"/>
		<path fill="#4788c7" d="M25.5,11.649c1.994,2.699,4.5,6.697,4.5,8.533C30,22.839,27.981,25,25.5,25S21,22.839,21,20.182 C21,18.348,23.506,14.349,25.5,11.649 M25.5,10c0,0-5.5,6.969-5.5,10.182C20,23.395,22.462,26,25.5,26s5.5-2.605,5.5-5.818    C31,16.969,25.5,10,25.5,10L25.5,10z"/>
	</g>
	<g>
		<path fill="#98ccfd" d="M34.5,12.5c-1.654,0-3-1.458-3-3.25c0-1.368,1.907-4.07,3-5.456c1.093,1.386,3,4.088,3,5.456 C37.5,11.042,36.154,12.5,34.5,12.5z"/>
		<path fill="#4788c7" d="M34.5,4.61C35.712,6.216,37,8.285,37,9.25c0,1.516-1.122,2.75-2.5,2.75S32,10.766,32,9.25 C32,8.285,33.288,6.216,34.5,4.61 M34.5,3c0,0-3.5,4.179-3.5,6.25c0,2.071,1.567,3.75,3.5,3.75S38,11.321,38,9.25   C38,7.179,34.5,3,34.5,3L34.5,3z"/>
	</g>
	<g>
		<path fill="#98ccfd" d="M33,36.5c-1.93,0-3.5-1.626-3.5-3.625c0-1.541,2.259-4.597,3.5-6.101 c1.241,1.504,3.5,4.561,3.5,6.101C36.5,34.874,34.93,36.5,33,36.5z"/>
		<path fill="#4788c7" d="M33,27.566c1.428,1.798,3,4.198,3,5.309C36,34.598,34.654,36,33,36s-3-1.402-3-3.125 C30,31.766,31.572,29.365,33,27.566 M33,26c0,0-4,4.597-4,6.875S30.791,37,33,37s4-1.847,4-4.125S33,26,33,26L33,26z"/>
	</g>
</svg>
