<svg id="serviceworker" xmlns="http://www.w3.org/2000/svg" viewBox="0 0 52 52" xml:space="preserve">
	<title>ServiceWorker rose</title>
	<g fill="#98ccfd">
		<polyline points="6.12 19.8 0 26.04 6.12 32.04 8.28 31.44 10.08 27.48 25.8 26.04 10.08 24.6 8.28 20.52"/>
		<polyline points="16.2 7.68 7.56 7.68 7.56 16.44 9.6 17.4 13.68 15.84 25.8 26.04 15.6 13.68 17.4 9.6"/>
		<polyline points="25.8 0 19.8 6.24 20.4 8.52 24.48 10.08 25.8 26.04 27.24 10.08 31.32 8.52 32.04 6.24"/>
		<polyline points="44.28 7.68 35.52 7.68 34.44 9.6 36.12 13.68 25.8 26.04 38.28 15.84 42.24 17.4 44.28 16.44"/>
		<polyline points="45.72 19.8 43.44 20.52 41.88 24.6 25.8 26.04 41.88 27.48 43.44 31.44 45.72 32.04 51.84 26.04"/>
		<polyline points="25.8 26.04 25.8 26.04 36.12 38.28 34.44 42.24 35.52 44.28 44.28 44.28 44.28 35.64 42.24 34.56 38.28 36.24"/><polyline class="cls-1" points="25.8 26.04 25.8 26.04 24.48 41.88 20.4 43.56 19.8 45.72 25.8 51.84 32.04 45.72 31.32 43.56 27.24 41.88"/>
		<polyline points="25.8 26.04 13.68 36.24 9.6 34.56 7.56 35.64 7.56 44.28 16.2 44.28 17.4 42.24 15.6 38.28"/>
		<polyline points="25.8 26.04 8.28 31.44 7.44 33.6 9.6 34.56"/>
		<polyline points="9.6 17.4 7.44 18.24 8.28 20.52 25.8 26.04"/>
		<polyline points="18.24 7.56 17.4 9.6 25.8 26.04 20.4 8.52"/>
		<polyline points="33.6 7.56 31.32 8.52 25.8 26.04 34.44 9.6"/>
		<polyline points="42.24 17.4 25.8 26.04 43.44 20.52 44.4 18.24"/>
		<polyline points="25.8 26.04 25.8 26.04 42.24 34.56 44.4 33.6 43.44 31.44"/>
		<polyline points="25.8 26.04 25.8 26.04 31.32 43.56 33.6 44.4 34.44 42.24"/>
		<polyline points="25.8 26.04 17.4 42.24 18.24 44.4 20.4 43.56"/>
	</g>
	<g fill="#4788c7">
		<polyline points="25.8 26.04 10.08 27.48 8.28 31.44"/>
		<polyline points="25.8 26.04 9.6 34.56 13.68 36.24"/>
		<polyline points="8.28 20.52 10.08 24.6 25.8 26.04"/>
		<polyline points="13.68 15.84 9.6 17.4 25.8 26.04"/>
		<polyline points="17.4 9.6 15.6 13.68 25.8 26.04"/>
		<polyline points="20.4 8.52 25.8 26.04 24.48 10.08"/>
		<polyline points="31.32 8.52 27.24 10.08 25.8 26.04"/>
		<polyline points="34.44 9.6 25.8 26.04 36.12 13.68"/>
		<polyline points="38.28 15.84 25.8 26.04 42.24 17.4"/>
		<polyline points="43.44 20.52 25.8 26.04 41.88 24.6"/>
		<polyline points="25.8 26.04 25.8 26.04 43.44 31.44 41.88 27.48"/>
		<polyline points="25.8 26.04 38.28 36.24 42.24 34.56"/>
		<polyline points="25.8 26.04 25.8 26.04 34.44 42.24 36.12 38.28"/>
		<polyline points="25.8 26.04 27.24 41.88 31.32 43.56"/>
		<polyline points="25.8 26.04 20.4 43.56 24.48 41.88"/>
		<polyline points="25.8 26.04 25.8 26.04 15.6 38.28 17.4 42.24"/>
	</g>
	<g fill="#dff0fe">
		<polyline points="14.76 29.52 11.52 26.04 14.76 22.56 25.8 26.04"/>
		<polyline points="15.6 20.52 15.6 15.72 20.52 15.72 25.8 26.04"/>
		<polyline points="22.44 15 25.8 11.52 29.28 15 25.8 26.04"/>
		<polyline points="31.32 15.72 36.24 15.72 36.24 20.52 25.8 26.04"/>
		<polyline points="36.96 22.56 40.44 26.04 36.96 29.52 25.8 26.04"/>
		<polyline points="36.24 31.32 36.24 36.24 31.32 36.24 25.8 26.04"/>
		<polyline points="29.28 37.08 25.8 40.44 22.44 37.08 25.8 26.04"/>
		<polyline points="20.52 36.24 15.6 36.24 15.6 31.32 25.8 26.04"/>
		<path d="M32.28,26a6.36,6.36,0,1,1-6.48-6.48A6.43,6.43,0,0,1,32.28,26"/>
	</g>
	<path fill="#4788c7" d="M30.84,26a4.89,4.89,0,0,1-5,4.92,5,5,0,0,1,0-10,4.92,4.92,0,0,1,5,5"/>
</svg>
