<svg version="1.1" id="time" xmlns="http://www.w3.org/2000/svg" viewBox="0 0 36 36" xml:space="preserve">
	<path fill="#4788c7" d="M29.7,8.6L32,6.3C34.7,9.9,36,14,36,18c0,9.9-8.1,18-18,18S0,27.9,0,18C0,14,1.4,9.9,4.1,6.3l2.7,2.3 c-2.3,2.7-3.6,5.9-3.6,9.5c0,8.6,6.8,15.3,14.9,15.3c8.6,0,15.3-6.8,15.3-15.3C33.3,14.4,32,11.3,29.7,8.6z"/>
	<path fill="#98ccfd" d="M8.6,6.8L6.3,4.1C9.9,1.4,14,0,18,0c4.5,0,8.6,1.4,11.7,4.1l-1.8,2.7c-2.7-2.3-6.3-3.6-9.9-3.6 S11.3,4.5,8.6,6.8z"/>
	<line stroke="#a5a5a5" stroke-width="3" stroke-linecap="round" stroke-miterlimit="10" x1="10.8" y1="13.9" x2="18.9" y2="20.7"/>
	<line stroke="#808083" stroke-width="3" stroke-linecap="round" stroke-miterlimit="10" x1="16.9" y1="20.7" x2="27" y2="9.1"/>
</svg>
