<?xml version="1.0" encoding="UTF-8" standalone="no"?>
<!DOCTYPE svg PUBLIC "-//W3C//DTD SVG 1.1//EN" "http://www.w3.org/Graphics/SVG/1.1/DTD/svg11.dtd">
<svg class="icon" height="512" viewBox="0 0 1024 1024" version="1.1" xmlns="http://www.w3.org/2000/svg"><path d="M981.82 372.156c-14.942 14.706-38.2 33.118-46.004 39.206v143.75c0 33.888 0.012 67.762 0.024 101.632l0.008 25.014c0.022 72.156 0.042 146.768-0.032 220.126 0 50.326-25.074 73.764-78.904 73.764-118.932 0.05-237.844 0.082-356.756 0.082-118.908 0-237.816-0.032-356.75-0.082-53.964 0-76.988-21.994-76.988-73.542-0.112-231.188-0.112-465.63 0-696.818 0-49.956 23.156-72.232 75.084-72.232 44.68 0.034 89.424 0.078 134.126 0.124l24.582 0.026c92.2 0.096 187.512 0.196 279.938 0.198 3.232-8.37 7.888-19.864 25.746-46.678-16.246 0.012-27.516 0.068-38.94 0.126l-1.306 0.006c-12.812 0.062-26.052 0.126-46.892 0.126-122.998 0-245.978 0.072-369.024 0.144l-13.514 0.008c-40.378 0.102-69.536 9.418-89.14 28.478C27.474 134.68 17.916 163.012 17.86 202.23c-0.114 233.324-0.114 469.932 0 703.258 0 40.186 9.556 68.95 29.218 87.924 19.666 18.982 49.524 28.262 91.282 28.366 45.258 0.124 94.214 0.18 154.072 0.18 31.386 0 62.76-0.016 94.152-0.032l18.75-0.008c31.566-0.02 63.14-0.036 94.714-0.036 36.664 0 73.332 0.03 109.998 0.06l39.958 0.028c23.33 0.014 46.66 0.03 69.984 0.03 55.826 0 101.906-0.07 145.01-0.22 38.768-0.152 68.248-9.764 87.618-28.566 19.374-18.802 29.222-47.364 29.276-84.886 0.18-148.47 0.076-307.18-0.036-475.208l-0.036-60.964z" fill=""/><path d="M682.708 657.26c-6.886-48.66-30.822-88.384-56.242-130.572-6.204-10.296-12.616-20.946-18.684-31.622-28.41-50.08-56.312-106.708-87.802-178.212-7.842-17.728-11.244-37.122-14.85-57.658l-0.044-0.266a1496.78 1496.78 0 0 0-1.978-11.1c-16.476 107.992-71.302 199.686-130.916 291.772-21.568 33.352-38.284 75.05-47.074 117.422-15.94 76.48 11.184 140.31 78.434 184.598 32.462 21.352 65.936 32.18 99.488 32.184 33.306 0 66.574-10.684 98.872-31.754 64.936-42.302 92.122-104.476 80.796-184.792z m-160.432 164.872a22.94 22.94 0 0 1-22.974-22.974c0-12.702 10.296-22.984 22.974-22.984 31.666 0 57.418-25.654 57.418-57.232 0-12.714 10.274-23 22.974-23 9.534 0 17.702 5.75 21.196 13.98 1.19 2.754 1.84 5.812 1.84 9.02 0 56.918-46.412 103.19-103.428 103.19zM814.6 393.088c107.432 0 194.542-87.102 194.542-194.536 0-107.43-87.11-194.532-194.542-194.532s-194.542 87.102-194.542 194.532c0 107.434 87.11 194.536 194.542 194.536z m0-344.724c82.954 0 150.2 67.242 150.2 150.186-0.002 82.954-67.244 150.194-150.2 150.194-82.952 0-150.198-67.24-150.198-150.194 0-82.944 67.246-150.186 150.198-150.186z" fill=""/><path d="M810.12 268.166v-23.96h-62.446c0.642-0.75 1.318-1.498 2.026-2.244 2.71-2.858 9.056-8.48 18.87-16.718 12.018-10.158 20.768-18.3 26.01-24.202 5.4-6.08 9.344-12.004 11.718-17.61 2.414-5.702 3.636-11.596 3.636-17.52 0-11.728-4.236-21.706-12.59-29.654-8.298-7.894-19.594-11.896-33.572-11.896-13.792 0-25.014 3.702-33.358 11-8.388 7.34-13.282 18.024-14.54 31.752l-0.364 3.94 25.38 2.606 0.032-4.4c0.052-7.462 2.054-13.064 6.118-17.128 4.052-4.054 9.404-6.024 16.362-6.024 6.552 0 11.666 1.854 15.634 5.666 3.922 3.768 5.828 8.27 5.828 13.768 0 5.376-2.346 11.3-6.972 17.608-4.946 6.742-14.74 16.134-29.11 27.916-9.616 7.866-17.098 14.928-22.242 20.988-5.292 6.232-9.206 12.684-11.618 19.146a33.44 33.44 0 0 0-2.202 13.09l0.122 3.876h97.278zM873.156 268.166h24.608v-32.382h18.268V212.56h-18.268V124.916h-19.638l-63.644 90.378v20.49h58.676v32.382z m-30.698-55.606l30.7-44.208v44.208h-30.7z" fill=""/></svg>