<?xml version="1.0" encoding="UTF-8" standalone="no"?>
<!DOCTYPE svg PUBLIC "-//W3C//DTD SVG 1.1//EN" "http://www.w3.org/Graphics/SVG/1.1/DTD/svg11.dtd">
<svg class="icon" height="512" viewBox="0 0 1024 1024" version="1.1" xmlns="http://www.w3.org/2000/svg"><path d="M252.988235 623.435294c0 144.564706 117.458824 262.023529 262.02353 262.02353 120.470588 0 222.870588-90.352941 252.988235-204.8-60.235294-45.176471-210.823529-33.129412-210.823529-33.129412-123.482353 0-222.870588-54.211765-289.129412-108.42353-12.047059 27.105882-15.058824 54.211765-15.058824 84.329412z" fill="#2CAEFF"/><path d="M512 894.494118c-150.588235 0-274.070588-123.482353-274.070588-274.070589 0-30.117647 6.023529-60.235294 15.058823-87.341176 0-3.011765 3.011765-6.023529 9.035294-9.035294 3.011765 0 9.035294 0 12.047059 3.011765 48.188235 39.152941 150.588235 105.411765 280.094118 105.411764 6.023529 0 156.611765-12.047059 219.858823 36.141177 3.011765 3.011765 6.023529 9.035294 3.011765 12.047059-33.129412 126.494118-144.564706 213.835294-265.035294 213.835294zM271.058824 560.188235c-6.023529 21.082353-9.035294 42.164706-9.035295 63.247059 0 138.541176 111.435294 249.976471 249.976471 249.976471 108.423529 0 204.8-78.305882 237.929412-186.729412-60.235294-36.141176-195.764706-27.105882-195.764706-27.105882-126.494118 0-225.882353-60.235294-283.105882-99.388236z" fill="#4D7889"/><path d="M578.258824 939.670588c-21.082353 6.023529-45.176471 6.023529-69.270589 6.02353-177.694118 0-319.247059-144.564706-322.258823-322.258824-3.011765-51.2 15.058824-114.447059 54.211764-189.741176 6.023529-9.035294 0-21.082353-6.023529-24.094118-9.035294-6.023529-21.082353 0-24.094118 6.023529-42.164706 81.317647-63.247059 150.588235-60.235294 207.811765 0 195.764706 159.623529 355.388235 358.4 355.388235 24.094118 0 51.2-3.011765 75.294118-9.035294 9.035294-3.011765 15.058824-12.047059 15.058823-21.082353 0-6.023529-12.047059-12.047059-21.082352-9.035294zM524.047059 48.188235c-3.011765-3.011765-6.023529-6.023529-12.047059-6.023529-24.094118 0-171.670588 186.729412-201.788235 222.870588-6.023529 9.035294-3.011765 18.070588 3.011764 24.094118 9.035294 6.023529 18.070588 3.011765 24.094118-3.011765 69.270588-93.364706 141.552941-171.670588 171.670588-201.788235C575.247059 150.588235 843.294118 442.729412 834.258824 626.447059c0 105.411765-54.211765 204.8-141.552942 265.035294-9.035294 6.023529-9.035294 18.070588-6.023529 24.094118 3.011765 6.023529 9.035294 9.035294 15.058823 9.035294 3.011765 0 6.023529 0 9.035295-3.011765 96.376471-66.258824 156.611765-177.694118 156.611764-292.141176 15.058824-222.870588-328.282353-566.211765-343.341176-581.270589zM283.105882 355.388235c6.023529 0 9.035294-3.011765 12.047059-6.023529 3.011765-3.011765 6.023529-9.035294 6.02353-12.047059 0-6.023529-3.011765-9.035294-6.02353-12.047059-6.023529-6.023529-18.070588-6.023529-27.105882 0-3.011765 3.011765-6.023529 9.035294-6.02353 12.047059 0 6.023529 3.011765 9.035294 6.02353 12.047059 3.011765 3.011765 9.035294 6.023529 15.058823 6.023529z" fill="#3C5B77"/><path d="M764.988235 566.211765c-6.023529 0-9.035294-3.011765-12.047059-9.035294 0 0-27.105882-87.341176-75.294117-153.6-3.011765-6.023529-3.011765-12.047059 3.011765-18.070589 6.023529-3.011765 12.047059-3.011765 18.070588 3.011765 51.2 69.270588 78.305882 156.611765 78.305882 162.635294 3.011765 6.023529-3.011765 12.047059-9.035294 15.058824h-3.011765z" fill="#4D7889"/></svg>