<?xml version="1.0"?>
<svg xmlns="http://www.w3.org/2000/svg" viewBox="0 0 24 24">
    <path d="M 8 2 C 6.3550302 2 5 3.3550302 5 5 L 5 10.875 C 2.9479304 12.085553 1.6463675 14.455823 2.09375 17.0625 C 2.5025967 19.444213 4.3470032 21.38028 6.71875 21.875 C 10.539569 22.672974 14 19.722487 14 16 C 14 13.82923 12.736572 12.051776 11 11 L 11 5 C 11 3.3550302 9.6449698 2 8 2 z M 8 4 C 8.5650302 4 9 4.4349698 9 5 L 9 6 L 8 6 L 8 12.84375 C 6.8130968 13.403793 6 14.600569 6 16 C 6 17.932997 7.5670034 19.5 9.5 19.5 C 9.6677319 19.5 9.8385643 19.491563 10 19.46875 C 9.1891849 19.928646 8.1863037 20.127902 7.125 19.90625 C 5.5847468 19.58497 4.3296533 18.275037 4.0625 16.71875 C 3.7243532 14.748536 4.7951846 13.049291 6.40625 12.34375 L 7 12.0625 L 7 11.4375 L 7 5 C 7 4.4349698 7.4349698 4 8 4 z M 20.5 4.5 C 20.5 4.5 19 6.672 19 7.5 C 19 8.328 19.672 9 20.5 9 C 21.328 9 22 8.328 22 7.5 C 22 6.672 20.5 4.5 20.5 4.5 z M 17.5 10.5 C 17.5 10.5 16 12.672 16 13.5 C 16 14.328 16.672 15 17.5 15 C 18.328 15 19 14.328 19 13.5 C 19 12.672 17.5 10.5 17.5 10.5 z M 20.5 15.5 C 20.5 15.5 19 17.672 19 18.5 C 19 19.328 19.672 20 20.5 20 C 21.328 20 22 19.328 22 18.5 C 22 17.672 20.5 15.5 20.5 15.5 z"/>
</svg>
