<svg xmlns="http://www.w3.org/2000/svg" xmlns:xlink="http://www.w3.org/1999/xlink" viewBox="0 0 26 26" version="1.1"><g id="surface1"><path style=" " d="M 8 0 C 8 0 0 11 0 18 C 0 22.398438 3.601563 26 8 26 C 12.398438 26 16 22.398438 16 18 C 16 11 8 0 8 0 Z M 20 0 L 20 2 L 24 2 L 24 4 L 22 4 L 22 6 L 24 6 L 24 8 L 22 8 L 22 10 L 24 10 L 24 12 L 20 12 L 20 14 L 24 14 L 24 16 L 22 16 L 22 18 L 24 18 L 24 20 L 22 20 L 22 22 L 24 22 L 24 24 L 20 24 L 20 26 L 26 26 L 26 0 Z M 8 3.59375 C 9.457031 5.867188 11.222656 8.980469 12.46875 12 L 5.90625 12 C 4.90625 14.398438 4 17 4 19 C 4 20.9375 4.941406 22.652344 6.375 23.75 C 3.859375 23.035156 2 20.738281 2 18 C 2 13.898438 5.5 7.492188 8 3.59375 Z "/></g></svg>