<svg id="alert" version="1.1" xmlns="http://www.w3.org/2000/svg" viewBox="0 0 500 500" xml:space="preserve">
	<path d="M233.151,344.182c0-5.594,1.475-9.85,4.425-12.763c2.95-2.912,7.148-4.367,12.594-4.367c5.369,0,9.491,1.512,12.366,4.538   c2.875,3.025,4.312,7.224,4.312,12.592c0,5.374-1.456,9.627-4.368,12.767c-2.912,3.137-7.018,4.709-12.31,4.709   c-5.372,0-9.55-1.516-12.539-4.54C234.644,354.094,233.151,349.781,233.151,344.182z M260.155,307.989h-19.743l-5.9-115.504h31.429   L260.155,307.989z"/>
	<path fill="none" stroke="#FF0000" stroke-width="21.2598" stroke-miterlimit="10" d="M412.551,375.114L268.693,105.332  c-3.648-6.687-10.639-10.941-18.338-10.941c-7.699,0-14.676,4.255-18.235,10.941L87.452,375.114  c-3.445,6.385-3.241,14.184,0.493,20.364c3.764,6.282,10.563,10.131,17.845,10.131h288.525c7.295,0,13.979-3.849,17.729-10.131  C415.791,389.298,415.994,381.499,412.551,375.114L412.551,375.114z M271.123,281.405"/>
</svg>
