<svg xmlns="http://www.w3.org/2000/svg" viewBox="0 0 63 57">
	<title>Bull</title>
	<g>
		<path d="M16,26.08l3.53-9s-12.77.82-10.87-5.7S16.32,0,16.32,0,4.1,4.08,1.11,12,.56,25.26,16,26.08Z"/>
		<path d="M47.45,26.08l-3.53-9s12.77.82,10.87-5.7S47.17,0,47.17,0,59.4,4.08,62.39,12,62.93,25.26,47.45,26.08Z"/>
		<path d="M35.41,37.27s-2.32-3.56,8.36-7l2.17-.46s.46-5.88-.77-9.28S40,15,32.62,15.15s-12.38.15-14.39,6-.93,8.36-.93,8.36,11.6,1.39,11.45,8c0,0-7.27-5.11-9.44-5.57s-1.86,2.79-1.24,5.42,3.09,6.81,4.33,8.67,3.25,5.57,3.4,7.58,2.79,3.87,6,3.71,6.19-.15,6.65-5.26,4-7,6.19-9.9,1.39-7.58.62-9.44A27.62,27.62,0,0,0,35.41,37.27Z"/>
	</g>
</svg>
