<svg xmlns="http://www.w3.org/2000/svg" viewBox="0 0 64.16 60.83">
	<title>Lion</title>
	<g>
		<path d="M62.16,18.72a18.71,18.71,0,0,1-6.52,1.09c-2.72-.27-5.16-8.15-23.91-4.89,0,0-7.88-3.26-13-1.36,0,0,1.63,6.79,8.15,6.79,0,0,2.78.11,1,1.2-1.21.73-9.59-.68-10.68-9.1a17,17,0,0,1,14.34,1.11,31.6,31.6,0,0,1,17.21.59S44.91-3.2,19.51.52c0,0,6.79,2.72,6.25,4.35,0,0-28.52-1.09-25.53,30.43,0,0,5.43-10.05,14.67-8.69,0,0-11.14,6.25-4.35,26.89,0,0,3-9.51,12.5-11.14,0,0-3.53,11.14,5.7,18.47,0,0-2.17-11.14,7.06-14.13,0,0-10.6-4.62-10.05-14.4,0,0,3.8,12.22,15.76,12.77,0,0,14.94-4.35,9.51,4.08,0,0,9.78,1.9,10.32-12.5,0,0-3.53,4.07-6.79,4.07S48.3,38.55,51,31.22s12.77-4.08,11.41,1.09A13.41,13.41,0,0,0,62.16,18.72ZM43.21,21.8c3.28-4.85,7.16-.49,7.16-.49Z"/>
	</g>
</svg>
