<svg xmlns="http://www.w3.org/2000/svg" viewBox="0 0 67.54 66.63">
	<title>Skorpio</title>
	<g>
		<path class="61a07148-7919-4a10-81e9-e5daf2b7c3fe" d="M30.05,27.82s-6.53-1.7-10.58-.91c0,0-3.53.13-4,6.92l5.09.78S21.69,28.34,30.05,27.82Z"/>
		<path class="61a07148-7919-4a10-81e9-e5daf2b7c3fe" d="M18,26.65s-4.44,1.7-3.53,6.27c0,0-4.18,1.83-6.53-3.79,0,0-.65-4.83,3.66-4.18Z"/>
		<path class="61a07148-7919-4a10-81e9-e5daf2b7c3fe" d="M7.2,27.69S6.67,22.34,11.51,24c0,0-.65-2.22-4.7-5.09s-2.87,1.18-2,3.79A29.62,29.62,0,0,0,7.2,27.69Z"/>
		<path class="61a07148-7919-4a10-81e9-e5daf2b7c3fe" d="M6.28,7.05s5.22-1,7.84-3.66S19.73,1.31,22,1.18,12.29-2.87,6.28,7.05Z"/>
		<path class="61a07148-7919-4a10-81e9-e5daf2b7c3fe" d="M4,17.62s1.91-4,1.25-7.3,1.31-4.9,2.36-6.39S-.58,7.51,4,17.62Z"/>
		<path class="61a07148-7919-4a10-81e9-e5daf2b7c3fe" d="M23,0s-2.22,2,6.27,3.14c0,0,3.79,1.7,4.44,4.57C33.71,7.71,35.93.65,23,0Z"/>
		<path class="61a07148-7919-4a10-81e9-e5daf2b7c3fe" d="M34.62,5.35s-.65,3.4.26,5.36,1.7,3.79.78,5.88-.13,3,1.31,4c0,0-1.31-3.92.78-5.49s2.35,5.75-.39,7.57c0,0,6.79-3.79,1.7-11S34.62,5.35,34.62,5.35Z"/>
		<path class="61a07148-7919-4a10-81e9-e5daf2b7c3fe" d="M57,43.1s-1.31-6.14-9-9-15.67-.26-17.63,2.48c0,0,0-5,9-4.7,0,0-4.7-5.49-12.8-2.22s-8.88,15.15,2.35,12c0,0,.26,8.75,12,8.88,0,0,7.31-.39,11.49-2.48,0,0-9.93.13-12.54-2.48s-1.31-5.49,3.79-6.92S54.87,39.84,57,43.1Z"/>
		<path class="61a07148-7919-4a10-81e9-e5daf2b7c3fe" d="M49.91,23.77s3,1.83,1.57,4.18c0,0,2.35,8.75,11.62,6.27,0,0-5-1.44-5.09-4.44,0,0,3.66-3.66,9.53,2.35C67.54,32.13,66.49,18.42,49.91,23.77Z"/>
		<path class="61a07148-7919-4a10-81e9-e5daf2b7c3fe" d="M50.56,27.56A2.74,2.74,0,0,0,48.73,24s-9-1.31-14.76,3.79c0,0,3.14-.13,4.18,2.22,0,0,2.09-4.57,5.75-5C43.9,25.08,49.78,26.38,50.56,27.56Z"/>
		<path class="61a07148-7919-4a10-81e9-e5daf2b7c3fe" d="M20.78,40.36a5.89,5.89,0,0,1-.91-1.18S12.94,40.62,14,48.72c0,0,2,7.18,6.27,8.88,0,0,1.18,9.53,14.37,9,0,0-8.62-2.61-8.62-7.84,0,0,9.53-.78,13.06,3.66,0,0-1.44-12.67-17.37-9.14A16.44,16.44,0,0,0,15,47.94S20.39,43.89,20.78,40.36Z"/>
		<path class="61a07148-7919-4a10-81e9-e5daf2b7c3fe" d="M19.74,37.22S6.8,42.45,9.42,55.25c0,0-7.05-7.84,6.66-19.33l4.7-.78A3.72,3.72,0,0,1,19.74,37.22Z"/>
		<path class="61a07148-7919-4a10-81e9-e5daf2b7c3fe" d="M19,34.74s-8.88,1.83-12.28,7.45c0,0-4.7,5.35-3.66,10.06,0,0-2.06-3.2.13-8.75,2-5,4.31-7.05,12.67-9Z"/><path class="61a07148-7919-4a10-81e9-e5daf2b7c3fe" d="M14.51,33.7s-12.8.65-14.37,12c0,0-2-9.14,8.62-12.41Z"/><path class="61a07148-7919-4a10-81e9-e5daf2b7c3fe" d="M30.31,27l3,1s-.39-2.35,5.49-3.66A8.68,8.68,0,0,0,30.31,27Z"/><path class="61a07148-7919-4a10-81e9-e5daf2b7c3fe" d="M29.4,26.78l-4.83-.65A20.79,20.79,0,0,1,32.93,24,7.59,7.59,0,0,0,29.4,26.78Z"/>
	</g>
</svg>
