<?xml version="1.0" encoding="UTF-8"?>
<!-- Generator: Adobe Illustrator 21.1.0, SVG Export Plug-In . SVG Version: 6.00 Build 0)  -->
<svg version="1.1" id="Layer_1" xmlns="http://www.w3.org/2000/svg" xmlns:xlink="http://www.w3.org/1999/xlink" x="0px" y="0px" viewBox="0 0 512.8 512.2" style="enable-background:new 0 0 512.8 512.2;" xml:space="preserve">
<style type="text/css">
	.st0{fill:#FFFFFF;}
	.st1{fill:url(#SVGID_1_);}
	.st2{fill:url(#SVGID_2_);}
	.st3{fill:url(#SVGID_3_);}
	.st4{fill:url(#SVGID_4_);}
	.st5{fill:url(#SVGID_5_);}
	.st6{fill:url(#SVGID_6_);}
	.st7{fill:url(#SVGID_7_);}
	.st8{fill:url(#SVGID_8_);}
	.st9{fill:url(#SVGID_9_);}
	.st10{fill:url(#SVGID_10_);}
	.st11{fill:url(#SVGID_11_);}
	.st12{fill:url(#SVGID_12_);}
	.st13{fill:url(#SVGID_13_);}
	.st14{fill:url(#SVGID_14_);}
</style>
<path class="st0" d="M330.9,429.2L300,452.6l-27.8-30.1l-3.7-9.1l35.4-36l8.1,3.8l29.6,40.7L330.9,429.2z"/>
<path class="st0" d="M198.9,411.2l-33.4,37.4l-32.6-37.4l0,0l28.3-37.7l5-1.8l36.8,37.8L198.9,411.2z"/>
<path class="st0" d="M345.8,429.2l-30.9,23.3l-27.8-30.1l-3.7-9.1l35.4-36l8.1,3.8l29.6,40.7L345.8,429.2z"/>
<path class="st0" d="M213.8,411.2l-33.4,37.4l-32.6-37.4l0,0l28.3-37.7l5-1.8l36.9,37.8L213.8,411.2z"/>
<g id="mixed_ice_rain_night">
	<path d="M343.3,426.2l-30.9,23.3l-27.8-30.1l-3.7-9.1l35.4-36l8.1,3.8l29.7,40.7L343.3,426.2z"/>
	<path d="M211.2,408.2l-33.4,37.4l-32.6-37.4l0,0l28.3-37.7l5-1.8l36.9,37.8L211.2,408.2z"/>
	<g>
		<path d="M350.2,441.4l-30.9,23.3l-27.8-30.1l-3.7-9.1l35.4-36l8.1,3.8l29.7,40.7L350.2,441.4z"/>
		<path d="M218.2,423.4l-33.4,37.4l-32.6-37.4l0,0l28.3-37.7l5-1.8l36.9,37.8L218.2,423.4z"/>
	</g>
	<path d="M210.8,328.9c-3.7,10.3-15,15.6-25.3,11.9c-10.3-3.7-15.6-15-11.9-25.3c3.7-10.3,33.5-34.7,33.5-34.7   S214.5,318.6,210.8,328.9z"/>
	<path d="M350.1,328.9c-3.7,10.3-15,15.6-25.3,11.9c-10.3-3.7-15.6-15-11.9-25.3c3.7-10.3,33.5-34.7,33.5-34.7   S353.8,318.6,350.1,328.9z"/>
	<path d="M132.8,367.1c-6.3,16.9-25,25.6-42,19.5C74,380.8,65,362.5,70.9,345.7c0-0.1,0.1-0.3,0.1-0.4c6.1-16.8,55.5-56.6,55.5-56.6   S138.9,350.3,132.8,367.1z"/>
	<path d="M284.7,365c-6.3,16.9-25,25.6-42,19.5c-16.8-5.8-25.7-24.1-19.9-40.9c0-0.1,0.1-0.3,0.1-0.4c6.1-16.8,55.5-56.6,55.5-56.6   S290.8,348.2,284.7,365z"/>
	<path d="M428.3,365c-6.3,16.9-25,25.6-42,19.5c-16.8-5.8-25.7-24.1-19.9-40.9c0-0.1,0.1-0.3,0.1-0.4c6.1-16.8,55.5-56.6,55.5-56.6   S434.4,348.2,428.3,365z"/>
	<path d="M292.6,47.5c68.1,0,123.3,46.4,123.3,103.6s-55.2,103.6-123.3,103.6s-123.3-46.4-123.3-103.6S224.5,47.5,292.6,47.5z"/>
	<path d="M108.9,156.6c27.2,0,49.2,22,49.2,49.2s-22,49.2-49.2,49.2s-49.2-22-49.2-49.2l0,0C59.7,178.6,81.7,156.6,108.9,156.6   C108.9,156.6,108.9,156.6,108.9,156.6z"/>
	<path d="M121.2,195.8H392c21.5,0,39,13.2,39,29.5s-17.4,29.5-39,29.5H121.2c-21.5,0-39-13.2-39-29.5S99.7,195.8,121.2,195.8z"/>
	<path d="M189.4,93.4c40.5,0,73.3,32.8,73.3,73.3S229.9,240,189.4,240s-73.3-32.8-73.3-73.3C116.1,126.2,148.9,93.4,189.4,93.4   L189.4,93.4z"/>
	<path d="M397.3,108c40.5,0,73.3,32.8,73.3,73.3s-32.8,73.3-73.3,73.3c-40.5,0-73.3-32.8-73.3-73.3C324,140.9,356.8,108,397.3,108   C397.3,108,397.3,108,397.3,108z"/>
	<path d="M298.1,57.8c68.1,0,123.3,46.4,123.3,103.6S366.2,265,298.1,265s-123.3-46.4-123.3-103.6S230.1,57.8,298.1,57.8z"/>
	<path d="M114.5,166.9c27.2,0,49.2,22,49.2,49.2s-22,49.2-49.2,49.2s-49.2-22-49.2-49.2l0,0C65.3,188.9,87.3,166.9,114.5,166.9   C114.5,166.9,114.5,166.9,114.5,166.9z"/>
	<path d="M126.8,206.1h270.8c21.5,0,39,13.2,39,29.5s-17.4,29.5-39,29.5H126.8c-21.5,0-39-13.2-39-29.5S105.3,206.1,126.8,206.1z"/>
	<path d="M195,103.7c40.5,0,73.3,32.8,73.3,73.3s-32.8,73.3-73.3,73.3c-40.5,0-73.3-32.8-73.3-73.3c0,0,0,0,0,0   C121.7,136.5,154.5,103.7,195,103.7z"/>
	<path d="M402.9,118.4c40.5,0,73.3,32.8,73.3,73.3S443.4,265,402.9,265s-73.3-32.8-73.3-73.3l0,0   C329.6,151.2,362.4,118.4,402.9,118.4z"/>
	
		<linearGradient id="SVGID_1_" gradientUnits="userSpaceOnUse" x1="302.655" y1="187.26" x2="302.655" y2="59.2" gradientTransform="matrix(1 0 0 -1 0 512)">
		<stop offset="0" style="stop-color:#DCF2FD"/>
		<stop offset="0.99" style="stop-color:#D5E8EF"/>
	</linearGradient>
	<path class="st1" d="M328.4,426.2l-30.9,23.3l-27.8-30.1l-3.7-9.1l35.4-36l8.1,3.8l29.6,40.7L328.4,426.2z"/>
	
		<linearGradient id="SVGID_2_" gradientUnits="userSpaceOnUse" x1="165.465" y1="193.99" x2="165.465" y2="63.12" gradientTransform="matrix(1 0 0 -1 0 512)">
		<stop offset="0" style="stop-color:#DCF2FD"/>
		<stop offset="0.99" style="stop-color:#D5E8EF"/>
	</linearGradient>
	<path class="st2" d="M196.4,408.2L163,445.5l-32.6-37.4l0,0l28.3-37.7l5-1.8l36.9,37.8L196.4,408.2z"/>
	<g>
		
			<linearGradient id="SVGID_3_" gradientUnits="userSpaceOnUse" x1="309.605" y1="172.05" x2="309.605" y2="44" gradientTransform="matrix(1 0 0 -1 0 512)">
			<stop offset="0" style="stop-color:#DCF2FD"/>
			<stop offset="0.99" style="stop-color:#3D8AEF"/>
		</linearGradient>
		<path class="st3" d="M335.4,441.4l-30.9,23.3l-27.8-30.1l-3.7-9.1l35.4-36l8.1,3.8l29.7,40.7L335.4,441.4z"/>
		
			<linearGradient id="SVGID_4_" gradientUnits="userSpaceOnUse" x1="172.415" y1="178.78" x2="172.415" y2="47.91" gradientTransform="matrix(1 0 0 -1 0 512)">
			<stop offset="0" style="stop-color:#DCF2FD"/>
			<stop offset="0.99" style="stop-color:#3D8AEF"/>
		</linearGradient>
		<path class="st4" d="M203.4,423.4L170,460.8l-32.6-37.4l0,0l28.3-37.7l5-1.8l36.9,37.8L203.4,423.4z"/>
	</g>
	
		<linearGradient id="SVGID_5_" gradientUnits="userSpaceOnUse" x1="177.2551" y1="231.12" x2="177.2551" y2="169.9934" gradientTransform="matrix(1 0 0 -1 0 512)">
		<stop offset="0" style="stop-color:#DCF2FD"/>
		<stop offset="0.99" style="stop-color:#3D8AEF"/>
	</linearGradient>
	<path class="st5" d="M195.9,328.9c-3.7,10.3-15,15.6-25.3,11.9c-10.3-3.7-15.6-15-11.9-25.3c3.7-10.3,33.5-34.7,33.5-34.7   S199.6,318.6,195.9,328.9z"/>
	
		<linearGradient id="SVGID_6_" gradientUnits="userSpaceOnUse" x1="316.617" y1="231.12" x2="316.617" y2="169.9934" gradientTransform="matrix(1 0 0 -1 0 512)">
		<stop offset="0" style="stop-color:#DCF2FD"/>
		<stop offset="0.99" style="stop-color:#3D8AEF"/>
	</linearGradient>
	<path class="st6" d="M335.3,328.9c-3.7,10.3-15,15.6-25.3,11.9c-10.3-3.7-15.6-15-11.9-25.3c3.7-10.3,33.5-34.7,33.5-34.7   S339,318.6,335.3,328.9z"/>
	
		<linearGradient id="SVGID_7_" gradientUnits="userSpaceOnUse" x1="86.9019" y1="223.39" x2="86.9019" y2="123.4578" gradientTransform="matrix(1 0 0 -1 0 512)">
		<stop offset="0" style="stop-color:#DCF2FD"/>
		<stop offset="0.99" style="stop-color:#3D8AEF"/>
	</linearGradient>
	<path class="st7" d="M117.9,367.1c-6.3,16.9-25,25.6-42,19.5c-16.8-5.8-25.7-24.1-19.9-40.9c0-0.1,0.1-0.3,0.1-0.4   c6.1-16.8,55.5-56.6,55.5-56.6S124,350.3,117.9,367.1z"/>
	
		<linearGradient id="SVGID_8_" gradientUnits="userSpaceOnUse" x1="238.8158" y1="225.5" x2="238.8158" y2="125.5678" gradientTransform="matrix(1 0 0 -1 0 512)">
		<stop offset="0" style="stop-color:#DCF2FD"/>
		<stop offset="0.99" style="stop-color:#3D8AEF"/>
	</linearGradient>
	<path class="st8" d="M269.8,365c-6.3,16.9-25,25.6-42,19.5c-16.8-5.8-25.7-24.1-19.9-40.9c0-0.1,0.1-0.3,0.1-0.4   c6.1-16.8,55.5-56.6,55.5-56.6S275.9,348.2,269.8,365z"/>
	
		<linearGradient id="SVGID_9_" gradientUnits="userSpaceOnUse" x1="382.4377" y1="225.5" x2="382.4377" y2="125.5678" gradientTransform="matrix(1 0 0 -1 0 512)">
		<stop offset="0" style="stop-color:#DCF2FD"/>
		<stop offset="0.99" style="stop-color:#3D8AEF"/>
	</linearGradient>
	<path class="st9" d="M413.4,365c-6.3,16.9-25,25.6-42,19.5c-16.8-5.8-25.7-24.1-19.9-40.9c0-0.1,0.1-0.3,0.1-0.4   c6.1-16.8,55.5-56.6,55.5-56.6S419.6,348.2,413.4,365z"/>
	<path class="st0" d="M277.7,47.5c68.1,0,123.3,46.4,123.3,103.6s-55.2,103.6-123.3,103.6s-123.3-46.4-123.3-103.6   S209.6,47.5,277.7,47.5z"/>
	<path class="st0" d="M94,156.6c27.2,0,49.2,22,49.2,49.2s-22,49.2-49.2,49.2s-49.2-22-49.2-49.2l0,0   C44.8,178.6,66.8,156.6,94,156.6C94,156.6,94,156.6,94,156.6z"/>
	<path class="st0" d="M106.3,195.8h270.8c21.5,0,39,13.2,39,29.5s-17.4,29.5-39,29.5H106.3c-21.5,0-39-13.2-39-29.5   S84.8,195.8,106.3,195.8z"/>
	<path class="st0" d="M174.6,93.4c40.5,0,73.3,32.8,73.3,73.3S215,240,174.6,240s-73.3-32.8-73.3-73.3   C101.2,126.2,134.1,93.4,174.6,93.4L174.6,93.4z"/>
	<path class="st0" d="M382.5,108c40.5,0,73.3,32.8,73.3,73.3s-32.8,73.3-73.3,73.3s-73.3-32.8-73.3-73.3l0,0   C309.1,140.8,342,108,382.5,108z"/>
	
		<linearGradient id="SVGID_10_" gradientUnits="userSpaceOnUse" x1="283.275" y1="452.83" x2="283.275" y2="246.81" gradientTransform="matrix(1 0 0 -1 0 512)">
		<stop offset="0" style="stop-color:#A5A5A5"/>
		<stop offset="1" style="stop-color:#4F4F50"/>
	</linearGradient>
	<path class="st10" d="M283.3,57.8c68.1,0,123.3,46.4,123.3,103.6S351.4,265,283.3,265S160,218.6,160,161.4S215.2,57.8,283.3,57.8z"/>
	
		<linearGradient id="SVGID_11_" gradientUnits="userSpaceOnUse" x1="99.62" y1="452.83" x2="99.62" y2="246.81" gradientTransform="matrix(1 0 0 -1 0 512)">
		<stop offset="0" style="stop-color:#A5A5A5"/>
		<stop offset="1" style="stop-color:#4F4F50"/>
	</linearGradient>
	<path class="st11" d="M99.6,166.9c27.2,0,49.2,22,49.2,49.2s-22,49.2-49.2,49.2s-49.2-22-49.2-49.2l0,0   C50.4,188.9,72.4,166.9,99.6,166.9C99.6,166.9,99.6,166.9,99.6,166.9z"/>
	
		<linearGradient id="SVGID_12_" gradientUnits="userSpaceOnUse" x1="247.335" y1="452.83" x2="247.335" y2="246.81" gradientTransform="matrix(1 0 0 -1 0 512)">
		<stop offset="0" style="stop-color:#A5A5A5"/>
		<stop offset="1" style="stop-color:#4F4F50"/>
	</linearGradient>
	<path class="st12" d="M111.9,206.1h270.8c21.5,0,39,13.2,39,29.5s-17.4,29.5-39,29.5H111.9c-21.5,0-39-13.2-39-29.5   S90.4,206.1,111.9,206.1z"/>
	
		<linearGradient id="SVGID_13_" gradientUnits="userSpaceOnUse" x1="180.13" y1="452.83" x2="180.13" y2="246.81" gradientTransform="matrix(1 0 0 -1 0 512)">
		<stop offset="0" style="stop-color:#A5A5A5"/>
		<stop offset="1" style="stop-color:#4F4F50"/>
	</linearGradient>
	<path class="st13" d="M180.1,103.7c40.5,0,73.3,32.8,73.3,73.3s-32.8,73.3-73.3,73.3s-73.3-32.8-73.3-73.3c0,0,0,0,0,0   C106.8,136.5,139.7,103.7,180.1,103.7z"/>
	
		<linearGradient id="SVGID_14_" gradientUnits="userSpaceOnUse" x1="388" y1="452.83" x2="388" y2="246.81" gradientTransform="matrix(1 0 0 -1 0 512)">
		<stop offset="0" style="stop-color:#A5A5A5"/>
		<stop offset="1" style="stop-color:#4F4F50"/>
	</linearGradient>
	<path class="st14" d="M388,118.4c40.5,0,73.3,32.8,73.3,73.3S428.5,265,388,265s-73.3-32.8-73.3-73.3l0,0   C314.7,151.2,347.5,118.4,388,118.4z"/>
</g>
</svg>