<?xml version="1.0" encoding="UTF-8"?>
<!-- Generator: Adobe Illustrator 21.1.0, SVG Export Plug-In . SVG Version: 6.00 Build 0)  -->
<svg version="1.1" id="Layer_1" xmlns="http://www.w3.org/2000/svg" xmlns:xlink="http://www.w3.org/1999/xlink" x="0px" y="0px" viewBox="0 0 512.8 512.2" style="enable-background:new 0 0 512.8 512.2;" xml:space="preserve">
<style type="text/css">
	.st0{fill:#EDEDED;}
	.st1{fill:url(#SVGID_1_);}
	.st2{fill:url(#SVGID_2_);}
	.st3{fill:url(#SVGID_3_);}
	.st4{fill:url(#SVGID_4_);}
	.st5{fill:url(#SVGID_5_);}
	.st6{fill:url(#SVGID_6_);}
	.st7{fill:url(#SVGID_7_);}
	.st8{fill:url(#SVGID_8_);}
	.st9{fill:url(#SVGID_9_);}
	.st10{fill:url(#SVGID_10_);}
	.st11{fill:url(#SVGID_11_);}
	.st12{fill:url(#SVGID_12_);}
	.st13{fill:url(#SVGID_13_);}
	.st14{fill:url(#SVGID_14_);}
	.st15{fill:url(#SVGID_15_);}
</style>
<g id="foggy_day">
	<path d="M288.4,59.8c68,0,123.1,46.3,123.1,103.5s-55.1,103.5-123.1,103.5s-123.1-46.3-123.1-103.5S220.4,59.8,288.4,59.8z"/>
	<path d="M104.9,168.7c27.1,0,49.1,22,49.1,49.1s-22,49.1-49.1,49.1s-49.1-22-49.1-49.1l0,0C55.8,190.7,77.8,168.7,104.9,168.7z"/>
	<path d="M117.2,207.9h270.5c21.5,0,38.9,13.2,38.9,29.5s-17.4,29.5-38.9,29.5H117.2c-21.5,0-38.9-13.2-38.9-29.5   S95.7,207.9,117.2,207.9z"/>
	<path d="M185.4,105.6c40.4,0,73.2,32.8,73.2,73.2s-32.8,73.2-73.2,73.2s-73.2-32.8-73.2-73.2l0,0   C112.1,138.4,144.9,105.6,185.4,105.6z"/>
	<path d="M393,120.3c40.4,0,73.2,32.8,73.2,73.2s-32.8,73.2-73.2,73.2s-73.2-32.8-73.2-73.2S352.6,120.3,393,120.3L393,120.3z"/>
	<path d="M294,67.7c68,0,123.1,46.3,123.1,103.5S362,274.7,294,274.7s-123.1-46.3-123.1-103.5S226,67.7,294,67.7z"/>
	<path d="M110.5,176.7c27.1,0,49.1,22,49.1,49.1s-22,49.1-49.1,49.1s-49.1-22-49.1-49.1l0,0C61.4,198.6,83.4,176.7,110.5,176.7z"/>
	<path d="M122.8,215.9h270.5c21.5,0,38.9,13.2,38.9,29.5s-17.4,29.5-38.9,29.5H122.8c-21.5,0-38.9-13.2-38.9-29.5   S101.3,215.9,122.8,215.9z"/>
	<path d="M190.9,113.6c40.4,0,73.2,32.8,73.2,73.2S231.4,260,190.9,260s-73.2-32.8-73.2-73.2C117.7,146.3,150.5,113.6,190.9,113.6   L190.9,113.6z"/>
	<path d="M398.6,128.2c40.4,0,73.2,32.8,73.2,73.2s-32.8,73.2-73.2,73.2s-73.2-32.8-73.2-73.2S358.2,128.2,398.6,128.2L398.6,128.2z   "/>
	<path d="M184.1,353.9h230.3c4.5,0,8.2,3.7,8.2,8.2s-3.7,8.2-8.2,8.2H184.1c-4.5,0-8.2-3.7-8.2-8.2S179.6,353.9,184.1,353.9z"/>
	<path d="M101,386.8h176.7c4.1,0,7.4,3.7,7.4,8.2s-3.3,8.2-7.4,8.2H101c-4.1,0-7.4-3.7-7.4-8.2S97,386.8,101,386.8z"/>
	<path d="M326.3,386.8h54.4c5,0,9.1,3.7,9.1,8.2s-4.1,8.2-9.1,8.2h-54.4c-5,0-9.1-3.7-9.1-8.2S321.2,386.8,326.3,386.8z"/>
	<path d="M107.4,353.9h27.4c4.5,0,8.2,3.7,8.2,8.2s-3.7,8.2-8.2,8.2h-27.4c-4.5,0-8.2-3.7-8.2-8.2S102.8,353.9,107.4,353.9z"/>
	<path d="M288.3,321h82.2c4.5,0,8.2,3.7,8.2,8.2s-3.7,8.2-8.2,8.2h-82.2c-4.5,0-8.2-3.7-8.2-8.2S283.8,321,288.3,321z"/>
	<path d="M129.3,321H239c4.5,0,8.2,3.7,8.2,8.2s-3.7,8.2-8.2,8.2H129.3c-4.5,0-8.2-3.7-8.2-8.2S124.8,321,129.3,321z"/>
	<path d="M240,288.1h173.4c5.1,0,9.3,3.7,9.3,8.2s-4.2,8.2-9.3,8.2H240c-5.1,0-9.3-3.7-9.3-8.2S234.9,288.1,240,288.1z"/>
	<path d="M107.4,288.1h82.3c4.5,0,8.2,3.7,8.2,8.2s-3.7,8.2-8.2,8.2h-82.3c-4.5,0-8.2-3.7-8.2-8.2S102.8,288.1,107.4,288.1z"/>
	<path d="M151.2,419.7h137.1c4.5,0,8.2,3.7,8.2,8.2s-3.7,8.2-8.2,8.2H151.2c-4.5,0-8.2-3.7-8.2-8.2S146.7,419.7,151.2,419.7   L151.2,419.7z"/>
	<path d="M255.4,419.7h104.2c4.5,0,8.2,3.7,8.2,8.2s-3.7,8.2-8.2,8.2H255.4c-4.5,0-8.2-3.7-8.2-8.2S250.9,419.7,255.4,419.7z"/>
	<path class="st0" d="M274,57.8c68,0,123.1,46.3,123.1,103.5S342,264.8,274,264.8s-123.2-46.3-123.2-103.5S206,57.8,274,57.8z"/>
	<path class="st0" d="M90.5,166.8c27.1,0,49.1,22,49.1,49.1s-22,49.1-49.1,49.1s-49.1-22-49.1-49.1l0,0   C41.4,188.8,63.4,166.8,90.5,166.8z"/>
	<path class="st0" d="M102.8,206h270.5c21.5,0,38.9,13.2,38.9,29.5s-17.4,29.5-38.9,29.5H102.8c-21.5,0-38.9-13.2-38.9-29.5   S81.3,206,102.8,206z"/>
	<path class="st0" d="M170.9,103.7c40.4,0,73.2,32.8,73.2,73.2s-32.8,73.2-73.2,73.2S97.7,217.4,97.7,177c0,0,0,0,0,0   C97.7,136.5,130.5,103.7,170.9,103.7z"/>
	<path class="st0" d="M378.6,118.4c40.4,0,73.2,32.8,73.2,73.2s-32.8,73.2-73.2,73.2s-73.2-32.8-73.2-73.2S338.1,118.4,378.6,118.4   L378.6,118.4z"/>
	
		<linearGradient id="SVGID_1_" gradientUnits="userSpaceOnUse" x1="279.54" y1="444.88" x2="279.54" y2="239.08" gradientTransform="matrix(1 0 0 -1 0 512)">
		<stop offset="0" style="stop-color:#E3E3E3"/>
		<stop offset="0.99" style="stop-color:#808081"/>
	</linearGradient>
	<path class="st1" d="M279.5,65.8c68,0,123.1,46.3,123.1,103.5s-55.1,103.5-123.1,103.5s-123.1-46.3-123.1-103.5   S211.5,65.8,279.5,65.8z"/>
	
		<linearGradient id="SVGID_2_" gradientUnits="userSpaceOnUse" x1="96.11" y1="444.88" x2="96.11" y2="239.08" gradientTransform="matrix(1 0 0 -1 0 512)">
		<stop offset="0" style="stop-color:#E3E3E3"/>
		<stop offset="0.99" style="stop-color:#808081"/>
	</linearGradient>
	<path class="st2" d="M96.1,174.7c27.1,0,49.1,21.9,49.1,49.1s-21.9,49.1-49.1,49.1C69,273,47,251,47,223.9c0,0,0,0,0,0   C47,196.7,69,174.8,96.1,174.7z"/>
	
		<linearGradient id="SVGID_3_" gradientUnits="userSpaceOnUse" x1="243.62" y1="444.88" x2="243.62" y2="239.08" gradientTransform="matrix(1 0 0 -1 0 512)">
		<stop offset="0" style="stop-color:#E3E3E3"/>
		<stop offset="0.99" style="stop-color:#808081"/>
	</linearGradient>
	<path class="st3" d="M108.3,213.9h270.5c21.5,0,38.9,13.2,38.9,29.5s-17.4,29.5-38.9,29.5H108.3c-21.5,0-38.9-13.2-38.9-29.5   S86.9,213.9,108.3,213.9z"/>
	
		<linearGradient id="SVGID_4_" gradientUnits="userSpaceOnUse" x1="176.49" y1="444.88" x2="176.49" y2="239.08" gradientTransform="matrix(1 0 0 -1 0 512)">
		<stop offset="0" style="stop-color:#E3E3E3"/>
		<stop offset="0.99" style="stop-color:#808081"/>
	</linearGradient>
	<path class="st4" d="M176.5,111.6c40.4,0,73.2,32.8,73.2,73.2s-32.8,73.2-73.2,73.2s-73.2-32.8-73.2-73.2S136,111.6,176.5,111.6   L176.5,111.6z"/>
	
		<linearGradient id="SVGID_5_" gradientUnits="userSpaceOnUse" x1="384.16" y1="444.88" x2="384.16" y2="239.08" gradientTransform="matrix(1 0 0 -1 0 512)">
		<stop offset="0" style="stop-color:#E3E3E3"/>
		<stop offset="0.99" style="stop-color:#808081"/>
	</linearGradient>
	<path class="st5" d="M384.2,126.3c40.4,0,73.2,32.8,73.2,73.2s-32.8,73.2-73.2,73.2s-73.2-32.8-73.2-73.2S343.7,126.3,384.2,126.3   L384.2,126.3z"/>
	
		<linearGradient id="SVGID_6_" gradientUnits="userSpaceOnUse" x1="61.45" y1="151.775" x2="430.91" y2="151.775" gradientTransform="matrix(1 0 0 -1 0 512)">
		<stop offset="0" style="stop-color:#717172"/>
		<stop offset="0.45" style="stop-color:#DAD9D9"/>
		<stop offset="1" style="stop-color:#777777"/>
	</linearGradient>
	<path class="st6" d="M169.7,352H400c4.5,0,8.2,3.7,8.2,8.2s-3.7,8.2-8.2,8.2H169.7c-4.5,0-8.2-3.7-8.2-8.2S165.2,352,169.7,352   L169.7,352z"/>
	
		<linearGradient id="SVGID_7_" gradientUnits="userSpaceOnUse" x1="63.32" y1="118.9" x2="393.93" y2="118.9" gradientTransform="matrix(1 0 0 -1 0 512)">
		<stop offset="0" style="stop-color:#717172"/>
		<stop offset="0.45" style="stop-color:#DAD9D9"/>
		<stop offset="1" style="stop-color:#777777"/>
	</linearGradient>
	<path class="st7" d="M86.6,384.9h176.6c4.1,0,7.4,3.7,7.4,8.2s-3.3,8.2-7.4,8.2H86.6c-4.1,0-7.4-3.7-7.4-8.2S82.5,384.9,86.6,384.9   z"/>
	
		<linearGradient id="SVGID_8_" gradientUnits="userSpaceOnUse" x1="29.16" y1="118.9" x2="436.63" y2="118.9" gradientTransform="matrix(1 0 0 -1 0 512)">
		<stop offset="0" style="stop-color:#717172"/>
		<stop offset="0.45" style="stop-color:#DAD9D9"/>
		<stop offset="1" style="stop-color:#777777"/>
	</linearGradient>
	<path class="st8" d="M311.8,384.9h54.4c5,0,9.1,3.7,9.1,8.2s-4.1,8.2-9.1,8.2h-54.4c-5,0-9.1-3.7-9.1-8.2S306.8,384.9,311.8,384.9z   "/>
	
		<linearGradient id="SVGID_9_" gradientUnits="userSpaceOnUse" x1="61.45" y1="151.775" x2="430.91" y2="151.775" gradientTransform="matrix(1 0 0 -1 0 512)">
		<stop offset="0" style="stop-color:#717172"/>
		<stop offset="0.45" style="stop-color:#DAD9D9"/>
		<stop offset="1" style="stop-color:#777777"/>
	</linearGradient>
	<path class="st9" d="M92.9,352h27.4c4.5,0,8.2,3.7,8.2,8.2s-3.7,8.2-8.2,8.2H92.9c-4.5,0-8.2-3.7-8.2-8.2S88.4,352,92.9,352z"/>
	
		<linearGradient id="SVGID_10_" gradientUnits="userSpaceOnUse" x1="61.45" y1="184.695" x2="430.91" y2="184.695" gradientTransform="matrix(1 0 0 -1 0 512)">
		<stop offset="0" style="stop-color:#717172"/>
		<stop offset="0.45" style="stop-color:#DAD9D9"/>
		<stop offset="1" style="stop-color:#777777"/>
	</linearGradient>
	<path class="st10" d="M273.9,319.1h82.2c4.5,0,8.2,3.7,8.2,8.2s-3.7,8.2-8.2,8.2h-82.2c-4.5,0-8.2-3.7-8.2-8.2   S269.3,319.1,273.9,319.1z"/>
	
		<linearGradient id="SVGID_11_" gradientUnits="userSpaceOnUse" x1="61.45" y1="184.695" x2="430.91" y2="184.695" gradientTransform="matrix(1 0 0 -1 0 512)">
		<stop offset="0" style="stop-color:#717172"/>
		<stop offset="0.45" style="stop-color:#DAD9D9"/>
		<stop offset="1" style="stop-color:#777777"/>
	</linearGradient>
	<path class="st11" d="M114.9,319.1h109.7c4.5,0,8.2,3.7,8.2,8.2s-3.7,8.2-8.2,8.2H114.9c-4.5,0-8.2-3.7-8.2-8.2   S110.3,319.1,114.9,319.1z"/>
	
		<linearGradient id="SVGID_12_" gradientUnits="userSpaceOnUse" x1="16.7" y1="217.6" x2="433.84" y2="217.6" gradientTransform="matrix(1 0 0 -1 0 512)">
		<stop offset="0" style="stop-color:#717172"/>
		<stop offset="0.45" style="stop-color:#DAD9D9"/>
		<stop offset="1" style="stop-color:#777777"/>
	</linearGradient>
	<path class="st12" d="M225.6,286.2h173.3c5.1,0,9.3,3.7,9.3,8.2s-4.2,8.2-9.3,8.2H225.6c-5.1,0-9.3-3.7-9.3-8.2   S220.5,286.2,225.6,286.2z"/>
	
		<linearGradient id="SVGID_13_" gradientUnits="userSpaceOnUse" x1="61.45" y1="217.595" x2="430.91" y2="217.595" gradientTransform="matrix(1 0 0 -1 0 512)">
		<stop offset="0" style="stop-color:#717172"/>
		<stop offset="0.45" style="stop-color:#DAD9D9"/>
		<stop offset="1" style="stop-color:#777777"/>
	</linearGradient>
	<path class="st13" d="M92.9,286.2h82.2c4.5,0,8.2,3.7,8.2,8.2s-3.7,8.2-8.2,8.2H92.9c-4.5,0-8.2-3.7-8.2-8.2S88.4,286.2,92.9,286.2   z"/>
	
		<linearGradient id="SVGID_14_" gradientUnits="userSpaceOnUse" x1="61.45" y1="85.995" x2="430.91" y2="85.995" gradientTransform="matrix(1 0 0 -1 0 512)">
		<stop offset="0" style="stop-color:#717172"/>
		<stop offset="0.45" style="stop-color:#DAD9D9"/>
		<stop offset="1" style="stop-color:#777777"/>
	</linearGradient>
	<path class="st14" d="M136.8,417.8h137.1c4.5,0,8.2,3.7,8.2,8.2s-3.7,8.2-8.2,8.2H136.8c-4.5,0-8.2-3.7-8.2-8.2   S132.3,417.8,136.8,417.8L136.8,417.8z"/>
	
		<linearGradient id="SVGID_15_" gradientUnits="userSpaceOnUse" x1="61.45" y1="85.995" x2="430.91" y2="85.995" gradientTransform="matrix(1 0 0 -1 0 512)">
		<stop offset="0" style="stop-color:#717172"/>
		<stop offset="0.45" style="stop-color:#DAD9D9"/>
		<stop offset="1" style="stop-color:#777777"/>
	</linearGradient>
	<path class="st15" d="M241,417.8h104.2c4.5,0,8.2,3.7,8.2,8.2s-3.7,8.2-8.2,8.2H241c-4.5,0-8.2-3.7-8.2-8.2S236.5,417.8,241,417.8   L241,417.8z"/>
</g>
</svg>