<?xml version="1.0" encoding="UTF-8"?>
<!-- Generator: Adobe Illustrator 21.1.0, SVG Export Plug-In . SVG Version: 6.00 Build 0)  -->
<svg version="1.1" id="Layer_1" xmlns="http://www.w3.org/2000/svg" xmlns:xlink="http://www.w3.org/1999/xlink" x="0px" y="0px" viewBox="0 0 512.8 512.2" style="enable-background:new 0 0 512.8 512.2;" xml:space="preserve">
<style type="text/css">
	.st0{fill:#FFFFFF;}
	.st1{fill:#EDEDED;}
	.st2{fill:url(#SVGID_1_);}
	.st3{fill:url(#SVGID_2_);}
	.st4{fill:url(#SVGID_3_);}
	.st5{fill:url(#SVGID_4_);}
	.st6{fill:url(#SVGID_5_);}
	.st7{fill:url(#SVGID_6_);}
	.st8{fill:url(#SVGID_7_);}
	.st9{fill:url(#SVGID_8_);}
	.st10{fill:url(#SVGID_9_);}
	.st11{fill:url(#SVGID_10_);}
	.st12{fill:url(#SVGID_11_);}
	.st13{fill:url(#SVGID_12_);}
	.st14{fill:url(#SVGID_13_);}
	.st15{fill:url(#SVGID_14_);}
	.st16{fill:url(#SVGID_15_);}
	.st17{fill:url(#SVGID_16_);}
	.st18{fill:url(#SVGID_17_);}
	.st19{fill:url(#SVGID_18_);}
	.st20{fill:url(#SVGID_19_);}
	.st21{fill:url(#SVGID_20_);}
	.st22{fill:url(#SVGID_21_);}
	.st23{fill:url(#SVGID_22_);}
	.st24{fill:url(#SVGID_23_);}
	.st25{fill:url(#SVGID_24_);}
	.st26{fill:url(#SVGID_25_);}
</style>
<g id="snow_day_-_heavy">
	<path d="M175.1,338.9h-14.7L150,349.3l-10.4-10.4h-14.7v-14.7l-10.4-10.4l10.4-10.4v-14.7h14.7l10.4-10.4l10.4,10.4h14.7v14.7   l10.4,10.4l-10.4,10.4L175.1,338.9z M144.6,293.7l-2.1,2.1H132v10.6l-7.5,7.5l7.5,7.5v10.6h10.6l7.5,7.5l7.5-7.5h10.6v-10.6   l7.5-7.5l-7.5-7.5v-10.6h-10.6l-7.5-7.5L144.6,293.7z"/>
	<path d="M160.1,318l4.2-4.2l-4.2-4.2v-5.9h-5.9l-4.2-4.2l-4.2,4.2H140v5.9l-4.2,4.2l4.2,4.2v5.9h5.9l4.1,4.1l4.2-4.2h5.9L160.1,318   z"/>
	<path d="M131.1,358.8l11.8-44.9h14.2L131.1,358.8z"/>
	<path d="M169,358.8l-11.8-44.9h-14.2L169,358.8z"/>
	<path d="M131.1,268.9l11.8,44.9h14.2L131.1,268.9z"/>
	<path d="M169,268.9l-11.8,44.9h-14.2L169,268.9z"/>
	<path d="M105.1,294.9l44.9,11.8v14.2L105.1,294.9z"/>
	<path d="M105.1,332.8l44.9-11.8v-14.2L105.1,332.8z"/>
	<path d="M195,294.9l-45,11.8v14.2L195,294.9z"/>
	<path d="M195,332.8l-45-11.8v-14.2L195,332.8z"/>
	<path d="M375.6,328.9h-15.4l-10.9,10.9l-10.9-10.9H323v-15.4l-10.9-10.9l10.9-10.9v-15.4h15.4l10.9-10.9l10.9,10.9h15.4v15.4   l10.9,10.9l-10.9,10.9L375.6,328.9z M343.6,281.5l-2.2,2.2h-11v11.1l-7.8,7.8l7.8,7.8v11.1h11.1l7.8,7.8l7.8-7.8h11.1v-11.1   l7.8-7.8l-7.8-7.8v-11.1h-11.1l-7.8-7.8L343.6,281.5z"/>
	<path d="M359.8,306.9l4.4-4.4l-4.4-4.4v-6.2h-6.2l-4.4-4.4l-4.4,4.4h-6.2v6.2l-4.4,4.4l4.4,4.4v6.2h6.2l4.4,4.4l4.4-4.4h6.2V306.9z   "/>
	<path d="M329.5,349.6l12.4-47.1h14.9L329.5,349.6z"/>
	<path d="M369.1,349.6l-12.4-47.1h-14.9L369.1,349.6z"/>
	<path d="M329.5,255.5l12.4,47.1h14.9L329.5,255.5z"/>
	<path d="M369.1,255.5l-12.4,47.1h-14.9L369.1,255.5z"/>
	<path d="M302.2,282.8l47.1,12.4V310L302.2,282.8z"/>
	<path d="M302.2,322.4l47.1-12.4v-14.9L302.2,322.4z"/>
	<path d="M396.4,282.8l-47.1,12.4V310L396.4,282.8z"/>
	<path d="M396.4,322.4L349.3,310v-14.9L396.4,322.4z"/>
	<path d="M263.9,304h-13.5l-9.5,9.5l-9.5-9.5h-13.5v-13.4l-9.5-9.6l9.5-9.5V258h13.5l9.5-9.5l9.5,9.5h13.5v13.5l9.5,9.5l-9.5,9.5   V304z M235.9,262.5l-1.9,1.9h-9.7v9.7l-6.8,6.8l6.9,6.9v9.7h9.6l6.9,6.9l6.9-6.9h9.7v-9.6l6.9-6.9l-6.9-6.9v-9.7h-9.7l-6.9-6.9   L235.9,262.5z"/>
	<path d="M250.1,284.9l3.8-3.8l-3.8-3.8v-5.4h-5.4l-3.8-3.8l-3.8,3.8h-5.4v5.4l-3.8,3.8l3.8,3.8v5.4h5.4l3.8,3.8l3.8-3.8h5.4   L250.1,284.9z"/>
	<path d="M223.6,322.2l10.8-41.2h13L223.6,322.2z"/>
	<path d="M258.2,322.2L247.4,281h-13L258.2,322.2z"/>
	<path d="M223.6,239.8l10.8,41.2h13L223.6,239.8z"/>
	<path d="M258.2,239.8L247.4,281h-13L258.2,239.8z"/>
	<path d="M199.7,263.7l41.2,10.8v13L199.7,263.7z"/>
	<path d="M199.7,298.4l41.2-10.8v-13L199.7,298.4z"/>
	<path d="M282.1,263.7l-41.2,10.8v13L282.1,263.7z"/>
	<path d="M282.1,298.4l-41.2-10.8v-13L282.1,298.4z"/>
	<path d="M296.8,367.3h-11.6l-8.2,8.2l-8.2-8.2h-11.6v-11.6l-8.2-8.2l8.2-8.2v-11.6h11.6l8.2-8.2l8.2,8.2h11.6v11.6l8.2,8.2   l-8.2,8.2L296.8,367.3z M272.6,331.6l-1.6,1.6h-8.4v8.4l-5.9,5.9l5.9,5.9v8.4h8.4l5.9,5.9l5.9-5.9h8.4v-8.4l5.9-5.9l-5.9-5.9v-8.4   h-8.4l-5.9-5.9L272.6,331.6z"/>
	<path d="M284.9,350.8l3.3-3.3l-3.3-3.3v-4.6h-4.6l-3.3-3.3l-3.3,3.3H269v4.6l-3.3,3.3l3.3,3.3v4.6h4.6l3.3,3.3l3.3-3.3h4.6   L284.9,350.8z"/>
	<path d="M262,383l9.3-35.5h11.2L262,383z"/>
	<path d="M291.9,383l-9.3-35.5h-11.2L291.9,383z"/>
	<path d="M262,312l9.3,35.5h11.2L262,312z"/>
	<path d="M291.9,312l-9.3,35.5h-11.2L291.9,312z"/>
	<path d="M241.4,332.5l35.5,9.3v11.2L241.4,332.5z"/>
	<path d="M241.4,362.4l35.5-9.3v-11.2L241.4,362.4z"/>
	<path d="M312.4,332.5l-35.5,9.3v11.2L312.4,332.5z"/>
	<path d="M312.4,362.4l-35.5-9.3v-11.2L312.4,362.4z"/>
	<path d="M225.2,386.1H214l-7.9,7.9l-7.9-7.9h-11.1v-11.2l-7.9-7.9l7.9-7.9V348h11.1l7.9-7.9l7.9,7.9h11.1v11.1l7.9,7.9l-7.9,7.9   L225.2,386.1z M202,351.8l-1.6,1.6h-8v8l-5.7,5.6l5.7,5.7v8h8l5.7,5.7l5.7-5.7h8v-8l5.7-5.7l-5.7-5.7v-8h-8l-5.7-5.7L202,351.8z"/>
	<path d="M213.8,370.2l3.1-3.1l-3.1-3.1v-4.5h-4.5l-3.1-3.1l-3.2,3.1h-4.5v4.5l-3.2,3.1l3.1,3.1v4.5h4.5l3.1,3.1l3.1-3.1h4.5V370.2z   "/>
	<path d="M191.8,401.1l9-34.1h10.8L191.8,401.1z"/>
	<path d="M220.5,401.1l-9-34.1h-10.7L220.5,401.1z"/>
	<path d="M191.8,332.9l9,34.1h10.8L191.8,332.9z"/>
	<path d="M220.5,332.9l-9,34.1h-10.7L220.5,332.9z"/>
	<path d="M172,352.7l34.1,9v10.8L172,352.7z"/>
	<path d="M172,381.4l34.1-9v-10.7L172,381.4z"/>
	<path d="M240.2,352.7l-34.1,9v10.8L240.2,352.7z"/>
	<path d="M240.2,381.4l-34.1-9v-10.7L240.2,381.4z"/>
	<path d="M349.8,388.5h-8.2l-5.8,5.8l-5.8-5.8h-8.2v-8.2l-5.8-5.8l5.8-5.8v-8.2h8.2l5.8-5.8l5.8,5.8h8.2v8.2l5.8,5.8l-5.8,5.8   L349.8,388.5z M332.8,363.2l-1.1,1.1h-5.9v5.9l-4.2,4.2l4.2,4.2v5.9h5.9l4.2,4.2l4.2-4.2h5.9v-5.9l4.2-4.2l-4.2-4.2v-5.9H340   l-4.2-4.2L332.8,363.2z"/>
	<path d="M341.4,376.8l2.3-2.3l-2.3-2.3v-3.3h-3.3l-2.3-2.3l-2.3,2.3h-3.3v3.3l-2.3,2.3l2.3,2.3v3.3h3.3l2.3,2.3l2.3-2.3h3.3V376.8z   "/>
	<path d="M325.2,399.6l6.6-25.1h7.9L325.2,399.6z"/>
	<path d="M346.4,399.6l-6.6-25.1h-7.9L346.4,399.6z"/>
	<path d="M325.2,349.3l6.6,25.1h7.9L325.2,349.3z"/>
	<path d="M346.4,349.3l-6.6,25.1h-7.9L346.4,349.3z"/>
	<path d="M310.6,363.9l25.1,6.6v7.9L310.6,363.9z"/>
	<path d="M310.6,385l25.1-6.6v-7.9L310.6,385z"/>
	<path d="M360.9,363.9l-25.1,6.6v7.9L360.9,363.9z"/>
	<path d="M360.9,385l-25.1-6.6v-7.9L360.9,385z"/>
	<path d="M275.5,52.3c63.3,0,114.7,42.8,114.7,95.6s-51.3,95.6-114.7,95.6s-114.7-42.8-114.7-95.6S212.2,52.3,275.5,52.3z"/>
	<path d="M104.7,152.9c25.1,0.2,45.2,20.6,45,45.7c-0.2,25.1-20.6,45.2-45.7,45c-24.9-0.2-45-20.4-45-45.4   C59.1,173.1,79.6,152.8,104.7,152.9z"/>
	<path d="M116.1,189.1h251.9c20,0,36.2,12.2,36.2,27.2s-16.2,27.2-36.2,27.2H116.1c-20,0-36.2-12.2-36.2-27.2   S96.1,189.1,116.1,189.1z"/>
	<path d="M179.6,94.6c37.7,0,68.2,30.3,68.2,67.6s-30.5,67.6-68.2,67.6s-68.2-30.3-68.2-67.6S141.9,94.6,179.6,94.6z"/>
	<path d="M373,108.1c37.7,0,68.2,30.3,68.2,67.6s-30.6,67.6-68.2,67.6s-68.2-30.3-68.2-67.6S335.3,108.1,373,108.1z"/>
	<path d="M280.7,59.6c63.3,0,114.7,42.8,114.7,95.6s-51.4,95.6-114.7,95.6s-114.7-42.8-114.7-95.6S217.4,59.6,280.7,59.6z"/>
	<path d="M109.9,160.2c25.1,0.2,45.2,20.7,45,45.7s-20.7,45.2-45.7,45c-24.9-0.2-45-20.5-45-45.4C64.3,180.4,84.7,160.1,109.9,160.2   z"/>
	<path d="M121.3,196.4h251.9c20,0,36.2,12.2,36.2,27.2s-16.2,27.2-36.2,27.2H121.3c-20,0-36.2-12.2-36.2-27.2   S101.3,196.4,121.3,196.4z"/>
	<path d="M184.8,101.9c37.7,0,68.2,30.3,68.2,67.6s-30.5,67.6-68.2,67.6s-68.2-30.3-68.2-67.6S147.1,101.9,184.8,101.9z"/>
	<path d="M378.1,115.5c37.7,0,68.2,30.3,68.2,67.6s-30.5,67.6-68.2,67.6S310,220.4,310,183.1S340.5,115.5,378.1,115.5z"/>
	<path d="M336.3,112.8c53.1,0,96.2,35.2,96.2,78.6S389.4,270,336.3,270S240,234.8,240,191.4S283.1,112.8,336.3,112.8z"/>
	<path d="M192.9,195.6c21.2,0,38.4,16.7,38.4,37.3s-17.2,37.3-38.4,37.3s-38.4-16.7-38.4-37.3S171.7,195.6,192.9,195.6z"/>
	<path d="M202.5,225.3h211.4c16.8,0,30.4,10,30.4,22.4c0,12.4-13.6,22.4-30.4,22.4H202.5c-16.8,0-30.4-10-30.4-22.4   S185.7,225.3,202.5,225.3z"/>
	<path d="M255.8,147.7c31.6,0,57.2,24.9,57.2,55.6s-25.6,55.6-57.2,55.6s-57.2-24.9-57.2-55.6S224.1,147.7,255.8,147.7z"/>
	<path d="M420.1,164.6c30,0,54.3,23.6,54.3,52.8s-24.3,52.8-54.3,52.8s-54.3-23.6-54.3-52.8S390.1,164.6,420.1,164.6z"/>
	<path d="M341,119.7c48.7,0,88.1,32.9,88.1,73.4s-39.4,73.4-88.1,73.4s-88.1-32.9-88.1-73.4S292.3,119.7,341,119.7z"/>
	<path d="M209.7,197.1c19.2,0.2,34.7,15.9,34.6,35.1c-0.2,19.2-15.9,34.7-35.1,34.6c-19.1-0.2-34.6-15.7-34.6-34.8   C174.6,212.6,190.4,197,209.7,197.1z"/>
	<path d="M218.5,224.9h193.6c15.4,0,27.8,9.4,27.8,20.9s-12.5,20.9-27.8,20.9H218.5c-15.4,0-27.8-9.4-27.8-20.9   S203.1,224.9,218.5,224.9z"/>
	<path d="M267.2,152.3c28.9,0,52.4,23.3,52.4,52s-23.5,52-52.4,52s-52.4-23.3-52.4-52S238.3,152.3,267.2,152.3z"/>
	<path d="M415.8,162.7c28.9,0,52.4,23.3,52.4,52s-23.5,52-52.4,52s-52.4-23.3-52.4-52S386.9,162.7,415.8,162.7z"/>
	<path d="M345,125.4c48.7,0,88.1,32.9,88.1,73.4s-39.4,73.4-88.1,73.4s-88.1-32.9-88.1-73.4S296.3,125.4,345,125.4z"/>
	<path d="M213.7,202.7c19.2,0.2,34.7,15.9,34.6,35.1c-0.2,19.2-15.9,34.7-35.1,34.6c-19.1-0.2-34.6-15.7-34.6-34.8   C178.6,218.2,194.4,202.6,213.7,202.7z"/>
	<path d="M222.5,230.5H416c15.4,0,27.8,9.4,27.8,20.9c0,11.6-12.4,20.9-27.8,20.9H222.5c-15.4,0-27.8-9.4-27.8-20.9   S207.1,230.5,222.5,230.5z"/>
	<path d="M271.2,157.9c28.9,0,52.4,23.3,52.4,52s-23.5,52-52.4,52s-52.4-23.3-52.4-52S242.3,157.9,271.2,157.9z"/>
	<path d="M419.8,168.3c28.9,0,52.4,23.3,52.4,52s-23.5,52-52.4,52s-52.4-23.3-52.4-52S390.9,168.3,419.8,168.3z"/>
	<path d="M183.5,155.5c38.7,0,70.1,25.6,70.1,57.3S222.2,270,183.5,270s-70.1-25.6-70.1-57.3S144.8,155.5,183.5,155.5z"/>
	<path d="M79,215.8c15.4,0,28,12.2,28,27.2c0,15-12.5,27.2-28,27.2S51,258,51,243S63.5,215.8,79,215.8z"/>
	<path d="M86,237.5h154.1c12.2,0,22.2,7.3,22.2,16.3s-9.9,16.3-22.2,16.3H86c-12.2,0-22.2-7.3-22.2-16.3S73.7,237.5,86,237.5z"/>
	<path d="M124.8,180.9c23,0,41.7,18.1,41.7,40.5s-18.7,40.5-41.7,40.5s-41.7-18.1-41.7-40.5S101.7,180.9,124.8,180.9z"/>
	<path d="M244.6,193.2c21.9,0,39.6,17.2,39.6,38.4s-17.7,38.5-39.6,38.5S205,252.9,205,231.7S222.7,193.2,244.6,193.2z"/>
	<path d="M174.2,160c35.8,0,64.9,24.2,64.9,54.1s-29.1,54.1-64.9,54.1s-64.9-24.2-64.9-54.1S138.3,160,174.2,160z"/>
	<path d="M77.4,217c14.2,0.1,25.6,11.7,25.5,25.9c-0.1,14.2-11.7,25.6-25.9,25.5c-14.1-0.1-25.5-11.6-25.5-25.7   C51.6,228.4,63.2,216.9,77.4,217z"/>
	<path d="M83.9,237.5h142.6c11.3,0,20.5,6.9,20.5,15.4c0,8.5-9.2,15.4-20.5,15.4H83.9c-11.3,0-20.5-6.9-20.5-15.4   S72.6,237.5,83.9,237.5z"/>
	<path d="M119.8,184c21.1,0.2,38.1,17.5,38,38.6c-0.2,21.1-17.5,38.1-38.6,38c-21-0.2-38-17.3-38-38.3   C81.3,201.1,98.6,183.9,119.8,184C119.8,184,119.8,184,119.8,184z"/>
	<path d="M229.3,191.7c21.1,0.2,38.1,17.5,38,38.6s-17.5,38.1-38.6,38c-21-0.2-38-17.2-38-38.2C190.8,208.8,208.1,191.6,229.3,191.7   C229.3,191.7,229.3,191.7,229.3,191.7z"/>
	<path d="M177.1,164.2c35.9,0,64.9,24.2,64.9,54.1s-29,54.1-64.9,54.1s-64.9-24.2-64.9-54.1S141.3,164.2,177.1,164.2z"/>
	<path d="M80.4,221.1c14.2,0.1,25.6,11.7,25.5,25.9c-0.1,14.2-11.7,25.6-25.9,25.5c-14.1-0.1-25.5-11.6-25.5-25.7   C54.6,232.6,66.2,221.1,80.4,221.1z"/>
	<path d="M86.9,241.6h142.6c11.3,0,20.5,6.9,20.5,15.4c0,8.5-9.2,15.4-20.5,15.4H86.9c-11.3,0-20.5-6.9-20.5-15.4   S75.5,241.6,86.9,241.6z"/>
	<path d="M122.8,188.1c21.1,0.2,38.1,17.5,38,38.6c-0.2,21.1-17.5,38.1-38.6,38c-21-0.2-38-17.3-38-38.3   C84.3,205.2,101.5,188.1,122.8,188.1C122.8,188.1,122.8,188.1,122.8,188.1z"/>
	<path d="M232.3,195.8c21.1,0.2,38.1,17.5,38,38.6s-17.5,38.1-38.6,38c-21-0.2-38-17.3-38-38.3C193.7,212.9,211,195.7,232.3,195.8   C232.3,195.8,232.3,195.8,232.3,195.8z"/>
	<path d="M321.5,112.8c53.1,0,96.2,35.2,96.2,78.6S374.6,270,321.5,270s-96.2-35.2-96.2-78.6S268.4,112.8,321.5,112.8z"/>
	<path d="M178.1,195.6c21.2,0,38.4,16.7,38.4,37.3s-17.2,37.3-38.4,37.3s-38.4-16.7-38.4-37.3S156.9,195.6,178.1,195.6z"/>
	<path d="M187.7,225.3h211.4c16.8,0,30.4,10,30.4,22.4c0,12.4-13.6,22.4-30.4,22.4H187.7c-16.8,0-30.4-10-30.4-22.4   S170.9,225.3,187.7,225.3z"/>
	<path d="M241,147.7c31.6,0,57.2,24.9,57.2,55.6s-25.6,55.6-57.2,55.6s-57.2-24.9-57.2-55.6S209.4,147.7,241,147.7z"/>
	<path d="M405.3,164.6c30,0,54.3,23.6,54.3,52.8s-24.3,52.8-54.3,52.8S351,246.5,351,217.4S375.3,164.6,405.3,164.6z"/>
	<path d="M168.7,155.5c38.7,0,70.1,25.6,70.1,57.3S207.4,270,168.7,270s-70.1-25.6-70.1-57.3S130,155.5,168.7,155.5z"/>
	<path d="M64.2,215.8c15.4,0,28,12.2,28,27.2c0,15-12.5,27.2-28,27.2s-28-12.2-28-27.2S48.7,215.8,64.2,215.8z"/>
	<path d="M71.2,237.5h154.1c12.2,0,22.2,7.3,22.2,16.3s-9.9,16.3-22.2,16.3H71.2c-12.2,0-22.2-7.3-22.2-16.3S58.9,237.5,71.2,237.5z   "/>
	<path d="M110,180.9c23,0,41.7,18.1,41.7,40.5S133,261.9,110,261.9s-41.7-18.1-41.7-40.5S87,180.9,110,180.9z"/>
	<path d="M229.8,193.2c21.9,0,39.6,17.2,39.6,38.4s-17.7,38.5-39.6,38.5s-39.6-17.2-39.6-38.4S207.9,193.2,229.8,193.2z"/>
	<path class="st0" d="M160.3,338.9h-14.7l-10.4,10.4l-10.4-10.4h-14.7v-14.7l-10.4-10.4l10.4-10.4v-14.7h14.7l10.4-10.4l10.4,10.4   h14.7v14.7l10.4,10.4l-10.4,10.4V338.9z M129.8,293.7l-2.1,2.1h-10.6v10.6l-7.5,7.5l7.5,7.5v10.6h10.6l7.5,7.5l7.5-7.5h10.6v-10.6   l7.5-7.5l-7.5-7.5v-10.6h-10.6l-7.5-7.5L129.8,293.7z"/>
	<path class="st0" d="M145.3,318l4.2-4.2l-4.2-4.2v-5.9h-5.9l-4.2-4.2l-4.2,4.2h-5.9v5.9l-4.2,4.2l4.2,4.2v5.9h5.9l4.2,4.2l4.2-4.2   h5.9L145.3,318z"/>
	<path class="st0" d="M116.3,358.8l11.8-44.9h14.2L116.3,358.8z"/>
	<path class="st0" d="M154.2,358.8l-11.8-44.9h-14.2L154.2,358.8z"/>
	<path class="st0" d="M116.3,268.9l11.8,44.9h14.2L116.3,268.9z"/>
	<path class="st0" d="M154.2,268.9l-11.8,44.9h-14.2L154.2,268.9z"/>
	<path class="st0" d="M90.3,294.9l44.9,11.8v14.2L90.3,294.9z"/>
	<path class="st0" d="M90.3,332.8l44.9-11.8v-14.2L90.3,332.8z"/>
	<path class="st0" d="M180.2,294.9l-44.9,11.8v14.2L180.2,294.9z"/>
	<path class="st0" d="M180.2,332.8l-44.9-11.8v-14.2L180.2,332.8z"/>
	<path class="st0" d="M360.8,328.9h-15.4l-10.9,10.9l-10.9-10.9h-15.4v-15.4l-10.9-10.9l10.9-10.9v-15.4h15.4l10.9-10.9l10.9,10.9   h15.4v15.4l10.9,10.9l-10.9,10.9L360.8,328.9z M328.8,281.5l-2.2,2.2h-11v11.1l-7.8,7.8l7.8,7.8v11.1h11.1l7.8,7.8l7.8-7.8h11.1   v-11.1l7.8-7.8l-7.8-7.8v-11.1h-11.1l-7.8-7.8L328.8,281.5z"/>
	<path class="st0" d="M345,306.9l4.4-4.4l-4.4-4.4v-6.2h-6.2l-4.4-4.4l-4.4,4.4H324v6.2l-4.4,4.4l4.4,4.4v6.2h6.2l4.4,4.4l4.4-4.4   h6.1V306.9z"/>
	<path class="st0" d="M314.7,349.6l12.4-47.1h14.9L314.7,349.6z"/>
	<path class="st0" d="M354.3,349.6l-12.4-47.1h-14.9L354.3,349.6z"/>
	<path class="st0" d="M314.7,255.5l12.4,47.1h14.9L314.7,255.5z"/>
	<path class="st0" d="M354.3,255.5l-12.4,47.1h-14.9L354.3,255.5z"/>
	<path class="st0" d="M287.4,282.8l47.1,12.4V310L287.4,282.8z"/>
	<path class="st0" d="M287.4,322.4l47.1-12.4v-14.9L287.4,322.4z"/>
	<path class="st0" d="M381.6,282.8l-47.1,12.4V310L381.6,282.8z"/>
	<path class="st0" d="M381.6,322.4L334.5,310v-14.9L381.6,322.4z"/>
	<path class="st0" d="M249.1,304h-13.5l-9.5,9.5l-9.5-9.5h-13.5v-13.4l-9.5-9.6l9.5-9.5V258h13.5l9.5-9.5l9.5,9.5h13.5v13.5l9.5,9.5   l-9.5,9.5V304z M221.1,262.5l-1.9,1.9h-9.7v9.7l-6.8,6.9l6.9,6.9v9.7h9.7l6.9,6.9l6.9-6.9h9.7v-9.6l6.9-6.9l-6.9-6.9v-9.7H233   l-6.9-6.9L221.1,262.5z"/>
	<path class="st0" d="M235.3,284.9l3.8-3.8l-3.8-3.8v-5.4h-5.4l-3.8-3.8l-3.8,3.8h-5.4v5.4l-3.8,3.8l3.8,3.8v5.4h5.4l3.8,3.8   l3.8-3.8h5.4L235.3,284.9z"/>
	<path class="st0" d="M208.8,322.2l10.8-41.2h13L208.8,322.2z"/>
	<path class="st0" d="M243.5,322.2L232.6,281h-13L243.5,322.2z"/>
	<path class="st0" d="M208.8,239.8l10.8,41.2h13L208.8,239.8z"/>
	<path class="st0" d="M243.5,239.8L232.6,281h-13L243.5,239.8z"/>
	<path class="st0" d="M184.9,263.7l41.2,10.8v13L184.9,263.7z"/>
	<path class="st0" d="M184.9,298.4l41.2-10.8v-13L184.9,298.4z"/>
	<path class="st0" d="M267.3,263.7l-41.2,10.8v13L267.3,263.7z"/>
	<path class="st0" d="M267.3,298.4l-41.2-10.8v-13L267.3,298.4z"/>
	<path class="st0" d="M282,367.3h-11.6l-8.2,8.2l-8.2-8.2h-11.6v-11.6l-8.2-8.2l8.2-8.2v-11.6h11.6l8.2-8.2l8.2,8.2H282v11.6   l8.2,8.2l-8.2,8.2V367.3z M257.9,331.6l-1.6,1.6h-8.4v8.4l-5.9,5.9l5.9,5.9v8.4h8.4l5.9,5.9l5.9-5.9h8.4v-8.4l5.9-5.9l-5.9-5.9   v-8.4h-8.4l-5.9-5.9L257.9,331.6z"/>
	<path class="st0" d="M270.1,350.8l3.3-3.3l-3.3-3.3v-4.6h-4.6l-3.3-3.3l-3.3,3.3h-4.6v4.6l-3.3,3.3l3.3,3.3v4.6h4.6l3.3,3.3   l3.3-3.3h4.6V350.8z"/>
	<path class="st0" d="M247.2,383l9.3-35.5h11.2L247.2,383z"/>
	<path class="st0" d="M277.1,383l-9.3-35.5h-11.2L277.1,383z"/>
	<path class="st0" d="M247.2,312l9.3,35.5h11.2L247.2,312z"/>
	<path class="st0" d="M277.1,312l-9.3,35.5h-11.2L277.1,312z"/>
	<path class="st0" d="M226.6,332.5l35.5,9.3v11.2L226.6,332.5z"/>
	<path class="st0" d="M226.6,362.4l35.5-9.3v-11.2L226.6,362.4z"/>
	<path class="st0" d="M297.6,332.5l-35.5,9.3v11.2L297.6,332.5z"/>
	<path class="st0" d="M297.6,362.4l-35.5-9.3v-11.2L297.6,362.4z"/>
	<path class="st0" d="M210.4,386.1h-11.2l-7.9,7.9l-7.9-7.9h-11.1v-11.2l-7.9-7.9l7.9-7.9V348h11.1l7.9-7.9l7.9,7.9h11.1v11.1   l7.9,7.9l-7.9,7.9L210.4,386.1z M187.3,351.8l-1.6,1.6h-8v8L172,367l5.7,5.7v8h8l5.7,5.7l5.7-5.7h8v-8l5.7-5.7l-5.7-5.7v-8h-8   l-5.7-5.7L187.3,351.8z"/>
	<path class="st0" d="M199,370.2l3.1-3.1l-3.1-3.2v-4.5h-4.5l-3.1-3.1l-3.1,3.1h-4.5v4.5l-3.2,3.1l3.1,3.1v4.5h4.5l3.1,3.1l3.1-3.1   h4.5V370.2z"/>
	<path class="st0" d="M177,401.1l9-34.1h10.8L177,401.1z"/>
	<path class="st0" d="M205.7,401.1l-9-34.1H186L205.7,401.1z"/>
	<path class="st0" d="M177,332.9l9,34.1h10.8L177,332.9z"/>
	<path class="st0" d="M205.7,332.9l-9,34.1H186L205.7,332.9z"/>
	<path class="st0" d="M157.3,352.7l34.1,9v10.8L157.3,352.7z"/>
	<path class="st0" d="M157.3,381.4l34.1-9v-10.7L157.3,381.4z"/>
	<path class="st0" d="M225.5,352.7l-34.1,9v10.8L225.5,352.7z"/>
	<path class="st0" d="M225.5,381.4l-34.1-9v-10.7L225.5,381.4z"/>
	<path class="st0" d="M335,388.5h-8.2l-5.8,5.8l-5.8-5.8H307v-8.2l-5.8-5.8l5.8-5.8v-8.2h8.2l5.8-5.8l5.8,5.8h8.2v8.2l5.8,5.8   l-5.8,5.8L335,388.5z M318,363.2l-1.1,1.1h-5.9v5.9l-4.2,4.2l4.2,4.2v5.9h5.9l4.2,4.2l4.2-4.2h5.9v-5.9l4.2-4.2l-4.2-4.2v-5.9h-5.9   l-4.2-4.2L318,363.2z"/>
	<path class="st0" d="M326.6,376.8l2.3-2.3l-2.3-2.3v-3.3h-3.3l-2.3-2.3l-2.3,2.3h-3.3v3.3l-2.3,2.3l2.3,2.3v3.3h3.3l2.3,2.3   l2.3-2.3h3.3L326.6,376.8z"/>
	<path class="st0" d="M310.4,399.6l6.6-25.1h8L310.4,399.6z"/>
	<path class="st0" d="M331.6,399.6l-6.6-25.1h-8L331.6,399.6z"/>
	<path class="st0" d="M310.4,349.3l6.6,25.1h8L310.4,349.3z"/>
	<path class="st0" d="M331.6,349.3l-6.6,25.1h-8L331.6,349.3z"/>
	<path class="st0" d="M295.9,363.9l25.1,6.6v7.9L295.9,363.9z"/>
	<path class="st0" d="M295.9,385l25.1-6.6v-7.9L295.9,385z"/>
	<path class="st0" d="M346.2,363.9l-25.2,6.6v7.9L346.2,363.9z"/>
	<path class="st0" d="M346.2,385l-25.2-6.6v-7.9L346.2,385z"/>
	<path class="st1" d="M260.8,52.3c63.3,0,114.7,42.8,114.7,95.6s-51.3,95.6-114.7,95.6s-114.7-42.8-114.7-95.6   S197.4,52.3,260.8,52.3z"/>
	<path class="st1" d="M89.9,152.9c25.1,0.2,45.2,20.7,45,45.7s-20.7,45.2-45.7,45c-24.9-0.2-45-20.5-45-45.4   C44.3,173.1,64.8,152.8,89.9,152.9z"/>
	<path class="st1" d="M101.3,189.1h251.9c20,0,36.2,12.2,36.2,27.2s-16.2,27.2-36.2,27.2H101.3c-20,0-36.2-12.2-36.2-27.2   S81.3,189.1,101.3,189.1z"/>
	<path class="st1" d="M164.8,94.6c37.7,0,68.2,30.3,68.2,67.6s-30.5,67.6-68.2,67.6s-68.2-30.3-68.2-67.6S127.1,94.6,164.8,94.6z"/>
	<path class="st1" d="M358.2,108.1c37.7,0,68.2,30.3,68.2,67.6s-30.5,67.6-68.2,67.6S290,213.1,290,175.8S320.5,108.1,358.2,108.1z"/>
	
		<linearGradient id="SVGID_1_" gradientUnits="userSpaceOnUse" x1="265.94" y1="451.18" x2="265.94" y2="261.11" gradientTransform="matrix(1 0 0 -1 0 512)">
		<stop offset="0" style="stop-color:#E3E3E3"/>
		<stop offset="0.99" style="stop-color:#808081"/>
	</linearGradient>
	<path class="st2" d="M265.9,59.6c63.3,0,114.7,42.8,114.7,95.6s-51.3,95.6-114.7,95.6s-114.7-42.8-114.7-95.6   S202.6,59.6,265.9,59.6z"/>
	
		<linearGradient id="SVGID_2_" gradientUnits="userSpaceOnUse" x1="94.73" y1="451.18" x2="94.73" y2="261.11" gradientTransform="matrix(1 0 0 -1 0 512)">
		<stop offset="0" style="stop-color:#E3E3E3"/>
		<stop offset="0.99" style="stop-color:#808081"/>
	</linearGradient>
	<path class="st3" d="M95.1,160.2c25.1,0.2,45.2,20.7,45,45.7s-20.7,45.2-45.7,45c-24.9-0.2-45-20.5-45-45.4   C49.5,180.4,69.9,160.1,95.1,160.2z"/>
	
		<linearGradient id="SVGID_3_" gradientUnits="userSpaceOnUse" x1="232.505" y1="451.18" x2="232.505" y2="261.11" gradientTransform="matrix(1 0 0 -1 0 512)">
		<stop offset="0" style="stop-color:#E3E3E3"/>
		<stop offset="0.99" style="stop-color:#808081"/>
	</linearGradient>
	<path class="st4" d="M106.5,196.4h251.9c20,0,36.2,12.2,36.2,27.2s-16.2,27.2-36.2,27.2H106.5c-20,0-36.2-12.2-36.2-27.2   S86.5,196.4,106.5,196.4z"/>
	
		<linearGradient id="SVGID_4_" gradientUnits="userSpaceOnUse" x1="170" y1="451.18" x2="170" y2="261.11" gradientTransform="matrix(1 0 0 -1 0 512)">
		<stop offset="0" style="stop-color:#E3E3E3"/>
		<stop offset="0.99" style="stop-color:#808081"/>
	</linearGradient>
	<path class="st5" d="M170,101.9c37.7,0,68.2,30.3,68.2,67.6s-30.5,67.6-68.2,67.6s-68.2-30.3-68.2-67.6S132.3,101.9,170,101.9z"/>
	
		<linearGradient id="SVGID_5_" gradientUnits="userSpaceOnUse" x1="363.37" y1="451.18" x2="363.37" y2="261.11" gradientTransform="matrix(1 0 0 -1 0 512)">
		<stop offset="0" style="stop-color:#E3E3E3"/>
		<stop offset="0.99" style="stop-color:#808081"/>
	</linearGradient>
	<path class="st6" d="M363.4,115.5c37.7,0,68.2,30.3,68.2,67.6s-30.6,67.6-68.2,67.6s-68.2-30.3-68.2-67.6S325.7,115.5,363.4,115.5z   "/>
	
		<radialGradient id="SVGID_6_" cx="321.13" cy="134.2632" r="165.23" gradientTransform="matrix(1 0 0 -0.94 0 371.2)" gradientUnits="userSpaceOnUse">
		<stop offset="0.37" style="stop-color:#292929"/>
		<stop offset="0.64" style="stop-color:#343434;stop-opacity:0.94"/>
		<stop offset="0.79" style="stop-color:#585858;stop-opacity:0.75"/>
		<stop offset="0.91" style="stop-color:#959595;stop-opacity:0.42"/>
		<stop offset="1" style="stop-color:#E3E3E3;stop-opacity:0"/>
	</radialGradient>
	<path class="st7" d="M318.4,114.2c53.4,0,96.7,35.4,96.7,79s-43.3,79-96.7,79s-96.7-35.4-96.7-79S265,114.2,318.4,114.2z"/>
	
		<radialGradient id="SVGID_7_" cx="321.13" cy="134.2632" r="165.23" gradientTransform="matrix(1 0 0 -0.94 0 371.2)" gradientUnits="userSpaceOnUse">
		<stop offset="0.37" style="stop-color:#292929"/>
		<stop offset="0.64" style="stop-color:#343434;stop-opacity:0.94"/>
		<stop offset="0.79" style="stop-color:#585858;stop-opacity:0.75"/>
		<stop offset="0.91" style="stop-color:#959595;stop-opacity:0.42"/>
		<stop offset="1" style="stop-color:#E3E3E3;stop-opacity:0"/>
	</radialGradient>
	<path class="st8" d="M174.3,197.3c21.3,0,38.6,16.8,38.6,37.5s-17.3,37.5-38.6,37.5s-38.6-16.8-38.6-37.5S153,197.3,174.3,197.3z"/>
	
		<radialGradient id="SVGID_8_" cx="321.13" cy="134.2632" r="165.23" gradientTransform="matrix(1 0 0 -0.94 0 371.2)" gradientUnits="userSpaceOnUse">
		<stop offset="0.37" style="stop-color:#292929"/>
		<stop offset="0.64" style="stop-color:#343434;stop-opacity:0.94"/>
		<stop offset="0.79" style="stop-color:#585858;stop-opacity:0.75"/>
		<stop offset="0.91" style="stop-color:#959595;stop-opacity:0.42"/>
		<stop offset="1" style="stop-color:#E3E3E3;stop-opacity:0"/>
	</radialGradient>
	<path class="st9" d="M183.9,227.3h212.6c16.9,0,30.6,10.1,30.6,22.5s-13.7,22.5-30.6,22.5H183.9c-16.9,0-30.6-10.1-30.6-22.5   S167,227.3,183.9,227.3z"/>
	
		<radialGradient id="SVGID_9_" cx="321.13" cy="134.2632" r="165.23" gradientTransform="matrix(1 0 0 -0.94 0 371.2)" gradientUnits="userSpaceOnUse">
		<stop offset="0.37" style="stop-color:#292929"/>
		<stop offset="0.64" style="stop-color:#343434;stop-opacity:0.94"/>
		<stop offset="0.79" style="stop-color:#585858;stop-opacity:0.75"/>
		<stop offset="0.91" style="stop-color:#959595;stop-opacity:0.42"/>
		<stop offset="1" style="stop-color:#E3E3E3;stop-opacity:0"/>
	</radialGradient>
	<path class="st10" d="M237.4,149.2c31.8,0,57.5,25,57.5,55.9S269.2,261,237.4,261s-57.5-25-57.5-55.9S205.7,149.2,237.4,149.2z"/>
	
		<radialGradient id="SVGID_10_" cx="317.59" cy="126.52" r="186.93" gradientTransform="matrix(1 0 0 -1 0 512)" gradientUnits="userSpaceOnUse">
		<stop offset="0.37" style="stop-color:#292929"/>
		<stop offset="0.64" style="stop-color:#343434;stop-opacity:0.94"/>
		<stop offset="0.79" style="stop-color:#585858;stop-opacity:0.75"/>
		<stop offset="0.91" style="stop-color:#959595;stop-opacity:0.42"/>
		<stop offset="1" style="stop-color:#E3E3E3;stop-opacity:0"/>
	</radialGradient>
	<path class="st11" d="M402.6,166.2c30.1,0,54.6,23.7,54.6,53s-24.4,53-54.6,53s-54.6-23.7-54.6-53S372.5,166.2,402.6,166.2z"/>
	<path class="st1" d="M326.2,119.7c48.7,0,88.1,32.9,88.1,73.4s-39.4,73.4-88.1,73.4s-88.1-32.9-88.1-73.4S277.5,119.7,326.2,119.7z   "/>
	<path class="st1" d="M194.9,197.1c19.2,0.2,34.7,15.9,34.6,35.1c-0.2,19.2-15.9,34.7-35.1,34.6c-19.1-0.2-34.6-15.7-34.6-34.8   C159.9,212.6,175.6,197,194.9,197.1z"/>
	<path class="st1" d="M203.7,224.9h193.6c15.4,0,27.8,9.4,27.8,20.9s-12.5,20.9-27.8,20.9H203.7c-15.4,0-27.8-9.4-27.8-20.9   S188.3,224.9,203.7,224.9z"/>
	<path class="st1" d="M252.5,152.3c28.9,0,52.4,23.3,52.4,52s-23.5,52-52.4,52s-52.4-23.3-52.4-52S223.5,152.3,252.5,152.3z"/>
	<path class="st1" d="M401,162.7c28.9,0,52.4,23.3,52.4,52s-23.5,52-52.4,52s-52.4-23.3-52.4-52S372.1,162.7,401,162.7z"/>
	
		<linearGradient id="SVGID_11_" gradientUnits="userSpaceOnUse" x1="330.17" y1="385.68" x2="330.17" y2="239.63" gradientTransform="matrix(1 0 0 -1 0 512)">
		<stop offset="0" style="stop-color:#E3E3E3"/>
		<stop offset="0.99" style="stop-color:#808081"/>
	</linearGradient>
	<path class="st12" d="M330.2,125.4c48.7,0,88.1,32.9,88.1,73.4s-39.4,73.4-88.1,73.4s-88.1-32.9-88.1-73.4S281.5,125.4,330.2,125.4   z"/>
	
		<linearGradient id="SVGID_12_" gradientUnits="userSpaceOnUse" x1="198.61" y1="385.68" x2="198.61" y2="239.63" gradientTransform="matrix(1 0 0 -1 0 512)">
		<stop offset="0" style="stop-color:#E3E3E3"/>
		<stop offset="0.99" style="stop-color:#808081"/>
	</linearGradient>
	<path class="st13" d="M198.9,202.7c19.2,0.2,34.7,15.9,34.6,35.1c-0.2,19.2-15.9,34.7-35.1,34.6c-19.1-0.2-34.6-15.7-34.6-34.8   C163.8,218.2,179.6,202.6,198.9,202.7z"/>
	
		<linearGradient id="SVGID_13_" gradientUnits="userSpaceOnUse" x1="304.48" y1="385.68" x2="304.48" y2="239.63" gradientTransform="matrix(1 0 0 -1 0 512)">
		<stop offset="0" style="stop-color:#E3E3E3"/>
		<stop offset="0.99" style="stop-color:#808081"/>
	</linearGradient>
	<path class="st14" d="M207.7,230.5h193.6c15.4,0,27.8,9.4,27.8,20.9c0,11.6-12.5,20.9-27.8,20.9H207.7c-15.4,0-27.8-9.4-27.8-20.9   S192.3,230.5,207.7,230.5z"/>
	
		<linearGradient id="SVGID_14_" gradientUnits="userSpaceOnUse" x1="256.44" y1="385.68" x2="256.44" y2="239.63" gradientTransform="matrix(1 0 0 -1 0 512)">
		<stop offset="0" style="stop-color:#E3E3E3"/>
		<stop offset="0.99" style="stop-color:#808081"/>
	</linearGradient>
	<path class="st15" d="M256.4,157.9c28.9,0,52.4,23.3,52.4,52s-23.5,52-52.4,52s-52.4-23.3-52.4-52S227.5,157.9,256.4,157.9z"/>
	
		<linearGradient id="SVGID_15_" gradientUnits="userSpaceOnUse" x1="405" y1="385.68" x2="405" y2="239.63" gradientTransform="matrix(1 0 0 -1 0 512)">
		<stop offset="0" style="stop-color:#E3E3E3"/>
		<stop offset="0.99" style="stop-color:#808081"/>
	</linearGradient>
	<path class="st16" d="M405,168.3c28.9,0,52.4,23.3,52.4,52s-23.5,52-52.4,52s-52.4-23.3-52.4-52S376.1,168.3,405,168.3z"/>
	
		<radialGradient id="SVGID_16_" cx="172.01" cy="114.83" r="120.44" gradientTransform="matrix(1 0 0 -1 0 512)" gradientUnits="userSpaceOnUse">
		<stop offset="0.37" style="stop-color:#292929"/>
		<stop offset="0.64" style="stop-color:#343434;stop-opacity:0.94"/>
		<stop offset="0.79" style="stop-color:#585858;stop-opacity:0.75"/>
		<stop offset="0.91" style="stop-color:#959595;stop-opacity:0.42"/>
		<stop offset="1" style="stop-color:#E3E3E3;stop-opacity:0"/>
	</radialGradient>
	<path class="st17" d="M170,157c38.9,0,70.5,25.8,70.5,57.6S209,272.2,170,272.2s-70.5-25.8-70.5-57.6S131.1,157,170,157z"/>
	
		<radialGradient id="SVGID_17_" cx="172.01" cy="114.83" r="120.44" gradientTransform="matrix(1 0 0 -1 0 512)" gradientUnits="userSpaceOnUse">
		<stop offset="0.37" style="stop-color:#292929"/>
		<stop offset="0.64" style="stop-color:#343434;stop-opacity:0.94"/>
		<stop offset="0.79" style="stop-color:#585858;stop-opacity:0.75"/>
		<stop offset="0.91" style="stop-color:#959595;stop-opacity:0.42"/>
		<stop offset="1" style="stop-color:#E3E3E3;stop-opacity:0"/>
	</radialGradient>
	<path class="st18" d="M65,217.7c15.5,0,28.1,12.2,28.1,27.3c0,15.1-12.6,27.3-28.1,27.3S36.8,260.1,36.8,245S49.4,217.7,65,217.7z"/>
	
		<radialGradient id="SVGID_18_" cx="172.01" cy="114.83" r="120.44" gradientTransform="matrix(1 0 0 -1 0 512)" gradientUnits="userSpaceOnUse">
		<stop offset="0.37" style="stop-color:#292929"/>
		<stop offset="0.64" style="stop-color:#343434;stop-opacity:0.94"/>
		<stop offset="0.79" style="stop-color:#585858;stop-opacity:0.75"/>
		<stop offset="0.91" style="stop-color:#959595;stop-opacity:0.42"/>
		<stop offset="1" style="stop-color:#E3E3E3;stop-opacity:0"/>
	</radialGradient>
	<path class="st19" d="M72,239.5h154.9c12.3,0,22.3,7.3,22.3,16.4s-10,16.4-22.3,16.4H72c-12.3,0-22.3-7.3-22.3-16.4   S59.7,239.5,72,239.5z"/>
	
		<radialGradient id="SVGID_19_" cx="172.01" cy="114.83" r="120.44" gradientTransform="matrix(1 0 0 -1 0 512)" gradientUnits="userSpaceOnUse">
		<stop offset="0.37" style="stop-color:#292929"/>
		<stop offset="0.64" style="stop-color:#343434;stop-opacity:0.94"/>
		<stop offset="0.79" style="stop-color:#585858;stop-opacity:0.75"/>
		<stop offset="0.91" style="stop-color:#959595;stop-opacity:0.42"/>
		<stop offset="1" style="stop-color:#E3E3E3;stop-opacity:0"/>
	</radialGradient>
	<path class="st20" d="M111,182.6c23.2,0,41.9,18.2,41.9,40.7S134.2,264,111,264s-41.9-18.2-41.9-40.7S87.9,182.6,111,182.6z"/>
	
		<radialGradient id="SVGID_20_" cx="169.43" cy="117.61" r="136.26" gradientTransform="matrix(1 0 0 -1 0 512)" gradientUnits="userSpaceOnUse">
		<stop offset="0.37" style="stop-color:#292929"/>
		<stop offset="0.64" style="stop-color:#343434;stop-opacity:0.94"/>
		<stop offset="0.79" style="stop-color:#585858;stop-opacity:0.75"/>
		<stop offset="0.91" style="stop-color:#959595;stop-opacity:0.42"/>
		<stop offset="1" style="stop-color:#E3E3E3;stop-opacity:0"/>
	</radialGradient>
	<path class="st21" d="M231.4,195c22,0,39.8,17.3,39.8,38.6s-17.8,38.6-39.8,38.6s-39.8-17.3-39.8-38.6S209.4,195,231.4,195z"/>
	<path class="st1" d="M159.4,160c35.9,0,64.9,24.2,64.9,54.1s-29.1,54.1-64.9,54.1S94.5,244,94.5,214.1S123.5,160,159.4,160z"/>
	<path class="st1" d="M62.7,217c14.2,0.1,25.6,11.7,25.5,25.9c-0.1,14.2-11.7,25.6-25.9,25.5c-14.1-0.1-25.5-11.6-25.5-25.7   C36.8,228.4,48.4,216.9,62.7,217z"/>
	<path class="st1" d="M69.2,237.5h142.6c11.3,0,20.5,6.9,20.5,15.4c0,8.5-9.2,15.4-20.5,15.4H69.2c-11.3,0-20.5-6.9-20.5-15.4   S57.8,237.5,69.2,237.5z"/>
	<path class="st1" d="M105.1,184c21.1,0.2,38.1,17.5,38,38.6c-0.2,21.1-17.5,38.1-38.6,38c-21-0.2-38-17.3-38-38.3   C66.5,201.1,83.8,183.9,105.1,184C105.1,184,105.1,184,105.1,184z"/>
	<path class="st1" d="M214.6,191.7c21.1,0.2,38.1,17.5,38,38.6c-0.2,21.1-17.5,38.1-38.6,38c-21-0.2-38-17.2-38-38.2   C176,208.8,193.3,191.6,214.6,191.7C214.5,191.7,214.5,191.7,214.6,191.7z"/>
	
		<linearGradient id="SVGID_21_" gradientUnits="userSpaceOnUse" x1="162.33" y1="347.12" x2="162.33" y2="239.51" gradientTransform="matrix(1 0 0 -1 0 512)">
		<stop offset="0" style="stop-color:#E3E3E3"/>
		<stop offset="0.99" style="stop-color:#808081"/>
	</linearGradient>
	<path class="st22" d="M162.3,164.2c35.8,0,64.9,24.2,64.9,54.1s-29.1,54.1-64.9,54.1s-64.9-24.2-64.9-54.1S126.5,164.2,162.3,164.2   z"/>
	
		<linearGradient id="SVGID_22_" gradientUnits="userSpaceOnUse" x1="65.4" y1="347.12" x2="65.4" y2="239.51" gradientTransform="matrix(1 0 0 -1 0 512)">
		<stop offset="0" style="stop-color:#E3E3E3"/>
		<stop offset="0.99" style="stop-color:#808081"/>
	</linearGradient>
	<path class="st23" d="M65.6,221.1c14.2,0.1,25.6,11.7,25.5,25.9c-0.1,14.2-11.7,25.6-25.9,25.5c-14.1-0.1-25.5-11.6-25.5-25.7   C39.8,232.6,51.4,221.1,65.6,221.1z"/>
	
		<linearGradient id="SVGID_23_" gradientUnits="userSpaceOnUse" x1="143.395" y1="347.12" x2="143.395" y2="239.51" gradientTransform="matrix(1 0 0 -1 0 512)">
		<stop offset="0" style="stop-color:#E3E3E3"/>
		<stop offset="0.99" style="stop-color:#808081"/>
	</linearGradient>
	<path class="st24" d="M72.1,241.6h142.6c11.3,0,20.5,6.9,20.5,15.4c0,8.5-9.2,15.4-20.5,15.4H72.1c-11.3,0-20.5-6.9-20.5-15.4   S60.8,241.6,72.1,241.6z"/>
	
		<linearGradient id="SVGID_24_" gradientUnits="userSpaceOnUse" x1="107.69" y1="347.12" x2="107.69" y2="239.51" gradientTransform="matrix(1 0 0 -1 0 512)">
		<stop offset="0" style="stop-color:#E3E3E3"/>
		<stop offset="0.99" style="stop-color:#808081"/>
	</linearGradient>
	<path class="st25" d="M108,188.1c21.1,0.2,38.1,17.5,38,38.6s-17.5,38.1-38.6,38c-21-0.2-38-17.3-38-38.3   C69.5,205.2,86.8,188.1,108,188.1z"/>
	
		<linearGradient id="SVGID_25_" gradientUnits="userSpaceOnUse" x1="217.17" y1="347.12" x2="217.17" y2="239.51" gradientTransform="matrix(1 0 0 -1 0 512)">
		<stop offset="0" style="stop-color:#E3E3E3"/>
		<stop offset="0.99" style="stop-color:#808081"/>
	</linearGradient>
	<path class="st26" d="M217.5,195.8c21.1,0.2,38.1,17.5,38,38.6c-0.2,21.1-17.5,38.1-38.6,38c-21-0.2-38-17.3-38-38.3   C179,212.9,196.3,195.7,217.5,195.8C217.5,195.8,217.5,195.8,217.5,195.8z"/>
</g>
</svg>