<?xml version="1.0" encoding="UTF-8"?>
<!-- Generator: Adobe Illustrator 21.1.0, SVG Export Plug-In . SVG Version: 6.00 Build 0)  -->
<svg version="1.1" id="Layer_1" xmlns="http://www.w3.org/2000/svg" xmlns:xlink="http://www.w3.org/1999/xlink" x="0px" y="0px" viewBox="0 0 512.8 512.2" style="enable-background:new 0 0 512.8 512.2;" xml:space="preserve">
<style type="text/css">
	.st0{fill:#FFFFFF;}
	.st1{fill:url(#SVGID_1_);}
	.st2{fill:url(#SVGID_2_);}
	.st3{fill:url(#SVGID_3_);}
	.st4{fill:url(#SVGID_4_);}
	.st5{fill:url(#SVGID_5_);}
	.st6{fill:url(#SVGID_6_);}
	.st7{fill:url(#SVGID_7_);}
	.st8{fill:url(#SVGID_8_);}
	.st9{fill:url(#SVGID_9_);}
	.st10{fill:url(#SVGID_10_);}
	.st11{fill:url(#SVGID_11_);}
	.st12{fill:url(#SVGID_12_);}
	.st13{fill:url(#SVGID_13_);}
	.st14{fill:url(#SVGID_14_);}
</style>
<path class="st0" d="M327.9,429.2L297,452.6l-27.8-30.1l-3.7-9.1l35.4-36l8.1,3.8l29.6,40.7L327.9,429.2z"/>
<path class="st0" d="M195.9,411.2l-33.4,37.4l-32.6-37.4l0,0l28.3-37.7l5-1.8l36.9,37.8L195.9,411.2z"/>
<path class="st0" d="M342.8,429.2l-30.9,23.3l-27.8-30.1l-3.7-9.1l35.4-36l8.1,3.8l29.6,40.7L342.8,429.2z"/>
<path class="st0" d="M210.7,411.2l-33.4,37.4l-32.6-37.4l0,0l28.3-37.7l5-1.8l36.9,37.8L210.7,411.2z"/>
<g id="mixed_ice_rain_day">
	<path d="M340.3,426.2l-30.9,23.3l-27.8-30.1l-3.7-9.1l35.4-36l8.1,3.8l29.6,40.7L340.3,426.2z"/>
	<path d="M208.2,408.2l-33.4,37.4l-32.6-37.4l0,0l28.3-37.7l5-1.8l36.9,37.8L208.2,408.2z"/>
	<g>
		<path d="M347.2,441.4l-30.9,23.3l-27.8-30.1l-3.7-9.1l35.4-36l8.1,3.8L358,434L347.2,441.4z"/>
		<path d="M215.2,423.4l-33.4,37.4l-32.7-37.4l0,0l28.3-37.7l5-1.8l36.9,37.8L215.2,423.4z"/>
	</g>
	<path d="M207.8,328.9c-3.7,10.3-15,15.6-25.3,11.9c-10.3-3.7-15.6-15-11.9-25.3c3.7-10.3,33.5-34.7,33.5-34.7   S211.5,318.6,207.8,328.9z"/>
	<path d="M347.1,328.9c-3.7,10.3-15,15.6-25.3,11.9c-10.3-3.7-15.6-15-11.9-25.3c3.7-10.3,33.5-34.7,33.5-34.7   S350.8,318.6,347.1,328.9z"/>
	<path d="M129.7,367.1c-6.3,16.9-25,25.6-42,19.5c-16.8-5.8-25.7-24.1-19.9-40.9c0-0.1,0.1-0.3,0.1-0.4   c6.1-16.8,55.5-56.6,55.5-56.6S135.9,350.3,129.7,367.1z"/>
	<path d="M281.6,365c-6.3,16.9-25,25.6-42,19.5c-16.8-5.8-25.7-24.1-19.9-40.9c0-0.1,0.1-0.3,0.1-0.4c6.1-16.8,55.5-56.6,55.5-56.6   S287.8,348.2,281.6,365z"/>
	<path d="M425.3,365c-6.3,16.9-25,25.6-42,19.5c-16.8-5.8-25.7-24.1-19.9-40.9c0-0.1,0.1-0.3,0.1-0.4c6.1-16.8,55.5-56.6,55.5-56.6   S431.4,348.2,425.3,365z"/>
	<path d="M289.5,47.5c68.1,0,123.3,46.4,123.3,103.6s-55.2,103.6-123.3,103.6s-123.3-46.4-123.3-103.6S221.5,47.5,289.5,47.5z"/>
	<path d="M105.9,156.6c27.2,0,49.2,22,49.2,49.2s-22,49.2-49.2,49.2s-49.2-22-49.2-49.2l0,0C56.7,178.6,78.7,156.6,105.9,156.6   C105.9,156.6,105.9,156.6,105.9,156.6z"/>
	<path d="M118.2,195.8H389c21.5,0,39,13.2,39,29.5s-17.4,29.5-39,29.5H118.2c-21.5,0-39-13.2-39-29.5S96.7,195.8,118.2,195.8z"/>
	<path d="M186.4,93.4c40.5,0,73.3,32.8,73.3,73.3S226.9,240,186.4,240s-73.3-32.8-73.3-73.3C113.1,126.2,145.9,93.4,186.4,93.4   L186.4,93.4z"/>
	<path d="M394.3,108c40.5,0,73.3,32.8,73.3,73.3c0,40.5-32.8,73.3-73.3,73.3c-40.5,0-73.3-32.8-73.3-73.3   C321,140.9,353.8,108,394.3,108C394.3,108,394.3,108,394.3,108z"/>
	<path d="M295.1,57.8c68.1,0,123.3,46.4,123.3,103.6S363.2,265,295.1,265s-123.3-46.4-123.3-103.6S227,57.8,295.1,57.8z"/>
	<path d="M111.5,166.9c27.2,0,49.2,22,49.2,49.2s-22,49.2-49.2,49.2s-49.2-22-49.2-49.2l0,0C62.3,188.9,84.3,166.9,111.5,166.9   C111.4,166.9,111.5,166.9,111.5,166.9z"/>
	<path d="M123.8,206.1h270.8c21.5,0,39,13.2,39,29.5s-17.4,29.5-39,29.5H123.8c-21.5,0-39-13.2-39-29.5S102.2,206.1,123.8,206.1z"/>
	<path d="M192,103.7c40.5,0,73.3,32.9,73.3,73.3c0,40.5-32.9,73.3-73.3,73.3s-73.3-32.9-73.3-73.3c0,0,0,0,0,0   C118.7,136.5,151.5,103.7,192,103.7z"/>
	<path d="M399.9,118.4c40.5,0,73.3,32.8,73.3,73.3S440.4,265,399.9,265s-73.3-32.8-73.3-73.3l0,0   C326.6,151.2,359.4,118.4,399.9,118.4z"/>
	
		<linearGradient id="SVGID_1_" gradientUnits="userSpaceOnUse" x1="299.585" y1="187.26" x2="299.585" y2="59.2" gradientTransform="matrix(1 0 0 -1 0 512)">
		<stop offset="0" style="stop-color:#DCF2FD"/>
		<stop offset="0.99" style="stop-color:#D5E8EF"/>
	</linearGradient>
	<path class="st1" d="M325.4,426.2l-30.9,23.3l-27.8-30.1l-3.7-9.1l35.4-36l8.1,3.8l29.6,40.7L325.4,426.2z"/>
	
		<linearGradient id="SVGID_2_" gradientUnits="userSpaceOnUse" x1="162.465" y1="193.99" x2="162.465" y2="63.12" gradientTransform="matrix(1 0 0 -1 0 512)">
		<stop offset="0" style="stop-color:#DCF2FD"/>
		<stop offset="0.99" style="stop-color:#D5E8EF"/>
	</linearGradient>
	<path class="st2" d="M193.4,408.2L160,445.5l-32.6-37.4l0,0l28.3-37.7l5-1.8l36.9,37.8L193.4,408.2z"/>
	<g>
		
			<linearGradient id="SVGID_3_" gradientUnits="userSpaceOnUse" x1="306.6" y1="172.05" x2="306.6" y2="44" gradientTransform="matrix(1 0 0 -1 0 512)">
			<stop offset="0" style="stop-color:#DCF2FD"/>
			<stop offset="0.99" style="stop-color:#3D8AEF"/>
		</linearGradient>
		<path class="st3" d="M332.4,441.4l-30.9,23.3l-27.8-30.1l-3.7-9.1l35.4-36l8.1,3.8l29.7,40.7L332.4,441.4z"/>
		
			<linearGradient id="SVGID_4_" gradientUnits="userSpaceOnUse" x1="169.395" y1="178.78" x2="169.395" y2="47.91" gradientTransform="matrix(1 0 0 -1 0 512)">
			<stop offset="0" style="stop-color:#DCF2FD"/>
			<stop offset="0.99" style="stop-color:#3D8AEF"/>
		</linearGradient>
		<path class="st4" d="M200.3,423.4l-33.4,37.4l-32.6-37.4l0,0l28.3-37.7l5-1.8l36.9,37.8L200.3,423.4z"/>
	</g>
	
		<linearGradient id="SVGID_5_" gradientUnits="userSpaceOnUse" x1="174.2432" y1="231.12" x2="174.2432" y2="169.9933" gradientTransform="matrix(1 0 0 -1 0 512)">
		<stop offset="0" style="stop-color:#DCF2FD"/>
		<stop offset="0.99" style="stop-color:#3D8AEF"/>
	</linearGradient>
	<path class="st5" d="M192.9,328.9c-3.7,10.3-15,15.6-25.3,11.9c-10.3-3.7-15.6-15-11.9-25.3c3.7-10.3,33.5-34.7,33.5-34.7   S196.6,318.6,192.9,328.9z"/>
	
		<linearGradient id="SVGID_6_" gradientUnits="userSpaceOnUse" x1="313.6089" y1="231.12" x2="313.6089" y2="169.9934" gradientTransform="matrix(1 0 0 -1 0 512)">
		<stop offset="0" style="stop-color:#DCF2FD"/>
		<stop offset="0.99" style="stop-color:#3D8AEF"/>
	</linearGradient>
	<path class="st6" d="M332.3,328.9c-3.7,10.3-15,15.6-25.3,11.9c-10.3-3.7-15.6-15-11.9-25.3c3.7-10.3,33.5-34.7,33.5-34.7   S336,318.6,332.3,328.9z"/>
	
		<linearGradient id="SVGID_7_" gradientUnits="userSpaceOnUse" x1="83.8938" y1="223.39" x2="83.8938" y2="123.4578" gradientTransform="matrix(1 0 0 -1 0 512)">
		<stop offset="0" style="stop-color:#DCF2FD"/>
		<stop offset="0.99" style="stop-color:#3D8AEF"/>
	</linearGradient>
	<path class="st7" d="M114.9,367.1c-6.3,16.9-25,25.6-42,19.5c-16.8-5.8-25.7-24.1-19.9-40.9c0-0.1,0.1-0.3,0.1-0.4   c6.1-16.8,55.5-56.6,55.5-56.6S121,350.3,114.9,367.1z"/>
	
		<linearGradient id="SVGID_8_" gradientUnits="userSpaceOnUse" x1="235.7977" y1="225.5" x2="235.7977" y2="125.5678" gradientTransform="matrix(1 0 0 -1 0 512)">
		<stop offset="0" style="stop-color:#DCF2FD"/>
		<stop offset="0.99" style="stop-color:#3D8AEF"/>
	</linearGradient>
	<path class="st8" d="M266.8,365c-6.3,16.9-25,25.6-42,19.5c-16.8-5.8-25.7-24.1-19.9-40.9c0-0.1,0.1-0.3,0.1-0.4   c6.1-16.8,55.5-56.6,55.5-56.6S272.9,348.2,266.8,365z"/>
	
		<linearGradient id="SVGID_9_" gradientUnits="userSpaceOnUse" x1="379.4258" y1="225.5" x2="379.4258" y2="125.5678" gradientTransform="matrix(1 0 0 -1 0 512)">
		<stop offset="0" style="stop-color:#DCF2FD"/>
		<stop offset="0.99" style="stop-color:#3D8AEF"/>
	</linearGradient>
	<path class="st9" d="M410.4,365c-6.3,16.9-25,25.6-42,19.5c-16.8-5.8-25.7-24.1-19.9-40.9c0-0.1,0.1-0.3,0.1-0.4   c6.1-16.8,55.5-56.6,55.5-56.6S416.5,348.2,410.4,365z"/>
	<path class="st0" d="M274.7,47.5c68.1,0,123.3,46.4,123.3,103.6s-55.2,103.6-123.3,103.6s-123.3-46.4-123.3-103.6   S206.6,47.5,274.7,47.5z"/>
	<path class="st0" d="M91,156.6c27.2,0,49.2,22,49.2,49.2s-22,49.2-49.2,49.2s-49.2-22-49.2-49.2l0,0   C41.8,178.6,63.8,156.6,91,156.6C91,156.6,91,156.6,91,156.6z"/>
	<path class="st0" d="M103.3,195.8h270.8c21.5,0,39,13.2,39,29.5s-17.4,29.5-39,29.5H103.3c-21.5,0-39-13.2-39-29.5   S81.8,195.8,103.3,195.8z"/>
	<path class="st0" d="M171.5,93.4c40.5,0,73.3,32.8,73.3,73.3S212,240,171.5,240s-73.3-32.8-73.3-73.3   C98.2,126.2,131.1,93.4,171.5,93.4L171.5,93.4z"/>
	<path class="st0" d="M379.4,108c40.5,0,73.3,32.8,73.3,73.3s-32.8,73.3-73.3,73.3s-73.3-32.8-73.3-73.3l0,0   C306.1,140.8,338.9,108,379.4,108z"/>
	
		<linearGradient id="SVGID_10_" gradientUnits="userSpaceOnUse" x1="280.265" y1="452.83" x2="280.265" y2="246.81" gradientTransform="matrix(1 0 0 -1 0 512)">
		<stop offset="0" style="stop-color:#E3E3E3"/>
		<stop offset="0.99" style="stop-color:#808081"/>
	</linearGradient>
	<path class="st10" d="M280.3,57.8c68.1,0,123.3,46.4,123.3,103.6S348.4,265,280.3,265S157,218.6,157,161.4S212.2,57.8,280.3,57.8z"/>
	
		<linearGradient id="SVGID_11_" gradientUnits="userSpaceOnUse" x1="96.6" y1="452.83" x2="96.6" y2="246.81" gradientTransform="matrix(1 0 0 -1 0 512)">
		<stop offset="0" style="stop-color:#E3E3E3"/>
		<stop offset="0.99" style="stop-color:#808081"/>
	</linearGradient>
	<path class="st11" d="M96.6,166.9c27.2,0,49.2,22,49.2,49.2s-22,49.2-49.2,49.2s-49.2-22-49.2-49.2l0,0   C47.4,188.9,69.4,166.9,96.6,166.9C96.6,166.9,96.6,166.9,96.6,166.9z"/>
	
		<linearGradient id="SVGID_12_" gradientUnits="userSpaceOnUse" x1="244.32" y1="452.83" x2="244.32" y2="246.81" gradientTransform="matrix(1 0 0 -1 0 512)">
		<stop offset="0" style="stop-color:#E3E3E3"/>
		<stop offset="0.99" style="stop-color:#808081"/>
	</linearGradient>
	<path class="st12" d="M108.9,206.1h270.8c21.5,0,39,13.2,39,29.5s-17.4,29.5-39,29.5H108.9c-21.5,0-39-13.2-39-29.5   S87.4,206.1,108.9,206.1z"/>
	
		<linearGradient id="SVGID_13_" gradientUnits="userSpaceOnUse" x1="177.11" y1="452.83" x2="177.11" y2="246.81" gradientTransform="matrix(1 0 0 -1 0 512)">
		<stop offset="0" style="stop-color:#E3E3E3"/>
		<stop offset="0.99" style="stop-color:#808081"/>
	</linearGradient>
	<path class="st13" d="M177.1,103.7c40.5,0,73.3,32.8,73.3,73.3s-32.8,73.3-73.3,73.3s-73.3-32.8-73.3-73.3c0,0,0,0,0,0   C103.8,136.5,136.6,103.7,177.1,103.7z"/>
	
		<linearGradient id="SVGID_14_" gradientUnits="userSpaceOnUse" x1="385.01" y1="452.83" x2="385.01" y2="246.81" gradientTransform="matrix(1 0 0 -1 0 512)">
		<stop offset="0" style="stop-color:#E3E3E3"/>
		<stop offset="0.99" style="stop-color:#808081"/>
	</linearGradient>
	<path class="st14" d="M385,118.4c40.5,0,73.3,32.8,73.3,73.3S425.5,265,385,265c-40.5,0-73.3-32.8-73.3-73.3c0,0,0,0,0,0   C311.7,151.2,344.5,118.4,385,118.4z"/>
</g>
</svg>