<?xml version="1.0" encoding="UTF-8"?>
<svg id="windspeed" xmlns="http://www.w3.org/2000/svg" viewBox="0 0 24 24">
	<path fill="#FF7059" d="M 4.5 2 C 3.119 2 2 3.343 2 5 C 2 6.657 3.119 8 4.5 8 C 5.587 8 6.49975 7.163 6.84375 6 L 8.15625 6 C 8.07325 5.679 8 5.347 8 5 C 8 4.653 8.07325 4.321 8.15625 4 L 6.84375 4 C 6.49975 2.837 5.587 2 4.5 2 z M 12 2 C 10.343146 2 9 3.3431458 9 5 C 9 6.6568542 10.343146 8 12 8 C 13.656854 8 15 6.6568542 15 5 C 15 3.3431458 13.656854 2 12 2 z M 19.5 2 C 18.413 2 17.50025 2.837 17.15625 4 L 15.84375 4 C 15.92675 4.321 16 4.653 16 5 C 16 5.347 15.92675 5.679 15.84375 6 L 17.15625 6 C 17.50025 7.163 18.413 8 19.5 8 C 20.881 8 22 6.657 22 5 C 22 3.343 20.881 2 19.5 2 z M 11 8.84375 L 11 11 L 7 11 C 5.346 11 4 12.346 4 14 L 4 16 L 4 20 C 4 21.105 4.895 22 6 22 L 18 22 C 19.105 22 20 21.105 20 20 L 20 16 L 20 14 C 20 12.346 18.654 11 17 11 L 13 11 L 13 8.84375 C 12.679 8.92675 12.347 9 12 9 C 11.653 9 11.321 8.92675 11 8.84375 z M 7 13 L 17 13 C 17.551 13 18 13.448 18 14 L 18 16 C 18 16.552 17.551 17 17 17 L 7 17 C 6.449 17 6 16.552 6 16 L 6 14 C 6 13.448 6.449 13 7 13 z"/>
</svg>
