<svg id="moon_flat" xmlns="http://www.w3.org/2000/svg" viewBox="0 0 512 512">
	<title>moon-flat</title>
	<path fill="#757889" d="M172.8,153.6c-.91,0-1.81,0-2.71.07a70.38,70.38,0,0,0-136.24,3A51.19,51.19,0,0,0,51.2,256H172.8a51.2,51.2,0,0,0,0-102.4Z"/>
	<path fill="#d4d8dd" d="M460.8,262.4c0,86.59-57.6,159.94-136.51,183.81a192,192,0,0,1-111,0C134.4,422.34,76.8,349,76.8,262.4S134.4,102.46,213.31,78.59a192,192,0,0,1,111,0C403.2,102.46,460.8,175.81,460.8,262.4Z"/>
	<path fill-opacity="0.08" d="M324.29,78.59a230,230,0,0,1,0,367.62C403.2,422.34,460.8,349,460.8,262.4S403.2,102.46,324.29,78.59Z"/>
	<path fill="#fff" fill-opacity="0.2" d="M121.6,262.4A230,230,0,0,1,213.31,78.59C134.4,102.46,76.8,175.81,76.8,262.4s57.6,159.94,136.51,183.81A230,230,0,0,1,121.6,262.4Z"/>
	<path fill="#757889" d="M460.8,281.6c-.91,0-1.81,0-2.71.07a70.38,70.38,0,0,0-136.24,3A51.19,51.19,0,0,0,339.2,384H460.8a51.2,51.2,0,0,0,0-102.4Z"/>
	<circle fill="#b6bbbf" cx="198.4" cy="230.4" r="32"/>
	<circle fill="#b6bbbf" cx="217.6" cy="326.4" r="19.2"/>
	<circle fill="#b6bbbf" cx="294.4" cy="185.6" r="19.2"/>
	<circle fill="#d4d8dd" cx="499.2" cy="102.4" r="12.8"/>
	<circle fill="#d4d8dd" cx="460.8" cy="25.6" r="19.2"/>
	<circle fill="#d4d8dd" cx="422.4" cy="89.6" r="12.8"/>
	<circle fill="#d4d8dd" cx="108.8" cy="467.2" r="12.8"/>
	<circle fill="#d4d8dd" cx="51.2" cy="428.8" r="19.2"/>
	<circle fill="#d4d8dd" cx="12.8" cy="492.8" r="12.8"/>
	<path fill-opacity="0.08" d="M460.8,281.6c-.91,0-1.81,0-2.71.07A70.3,70.3,0,0,0,377.5,231.6a70.76,70.76,0,0,1,55,50.08c.9,0,1.8-.07,2.71-.07a51.2,51.2,0,0,1,0,102.4h25.6a51.2,51.2,0,0,0,0-102.4Z"/>
</svg>
