<svg viewBox="0 0 1000 487" version="1.1" xmlns="http://www.w3.org/2000/svg">
	<path fill="#2a2e33" d="M0 0h1000v487H0z"/>
	<g id="text" fill="#2a2e33">
		<path d="M140.1 216.1c4.5-1.3 5.2 7.2.8 7.2-3.3-.4-3.6-5.8-.8-7.2zm11.3.3c3.3-2 5.5 3.2 3.6 5.6-.6 1.5-2.6 1.6-3.7.8-1.8-1.6-1.8-4.9 0-6.4zm138 0c4.3-2.6 6.1 6.3 1.7 7-3.4 0-4-5.1-1.8-7zm63 0c4.3-2.6 6.1 6.3 1.6 7-3.3 0-4-5.1-1.7-7zm12 0c2.7-1.7 4.7 2.2 3.8 4.6-.2 2.2-3.3 3-4.6 1.4-1.2-1.8-1.3-4.9.7-6zm157.8-.3l4 .2v2.7l-4 .1v-3zm180 7.8c-3.8-1-4.6-7.5-.2-8 2.9.2 2.6 3.6 3 5.7l-2.8-.3v2.6zm30.3-8c2.1.2 4.5.5 4.2 3.1l-4.3.1.1-3.3zm29.4.2l4.5.4c0 2.6-2.4 2.7-4.5 2.8v-3.2zm143-.3c1.3.6 4.2-.1 4 2.2l-4 1v-3.1zm10.6 0c1.4.3 2.9.7 4.3 1.2-1 1.5-2.8 1.6-4.3 2v-3.2zm11.8.4c4-1.6 5.4 5.8 1.7 7-3.8 1-4.8-5.6-1.7-7zm-466 .8l1.4 3.8h-2.6l1.2-3.8zm189.2 3.9c-2.3 2-3-3.2-.7-3.4 1 .7 1.3 2.3.7 3.4zm188.9-4l1.3 4h-2.6l1.3-4zm65.5 3.2c1.8.3 4.7-.2 4.2 2.5-1.4.3-2.8.6-4.2.7v-3.2zm10.6-.1c1.7.4 4.5 0 4.2 2.5-1.4.4-2.9.6-4.3.8l.1-3.3zM322 457.4l4 .9c-.1 2.1-2.6 1.5-4 2v-2.9zm9.5 1.7c1.3-1.6 3.3-1.3 5.1-1l-2.4 3.3a4 4 0 0 1 2.7 2.5c-1.4.5-2.9.7-4.3 1l-.4-3.5 1.5-1.4-2.2-1zm187.7-1.5l4.5.3c-.4 2.3-2.2 3-4.4 3a74 74 0 0 1-.1-3.3zm29.5-.2c1.7.5 5-.1 4 2.7-1.3.4-2.6.5-4 .8a66.5 66.5 0 0 1 0-3.5zm119 0c1.6.3 3.3.4 4.6 1.4-.7 2-2.9 1.7-4.6 2a67.7 67.7 0 0 1 0-3.4zm149.5 0c2 .4 5 .9 4.6 3.6.5 2.9-2.4 3.5-4.5 3.9v-7.5zm-683 .7c2.5-2.1 5.2 1.3 4.4 3.9 0 2.3-2.8 3.6-4.6 2.1-1.3-1.7-1.5-4.5.2-6zm12-.1c4.2-2.8 6 6.3 1.6 6.7-3.4.3-4-5.1-1.7-6.7zm198 0c4.3-2.7 6 6.2 1.7 6.7-3.5.4-4.2-5.2-1.7-6.8zm141.6 3c-.2-1.7 1.2-4 3.2-3.5 3 .5 2.3 4 2.4 6l-2.4-1-.6 3c-1.1-1.3-2.9-2.5-2.6-4.4zm311.5-2.8c4-3.3 6.6 5 2.6 6.4-3.6 1-4.8-4.3-2.6-6.4zm49 .1c4.2-3.7 7 5.2 2.6 6.4-3.4.7-4.3-4.2-2.6-6.4zm12-.1c4-3.3 6.6 5.3 2.5 6.4-3.5 1-4.6-4.5-2.5-6.4zm-604.2 4.1l1.3-3.8 1.3 3.8h-2.6zm181.3-3.8l1.4 3.8H434l1.3-3.8zm75.2 0l1.4 3.8h-2.7l1.3-3.8zm95 0l1.4 3.8h-2.7l1.3-3.8zm-283.7 3c1.7.5 4.7-.1 4.2 2.5l-3.9 1-.3-3.4z"/>
		<path fill="#dfdfdf" d="M319.5 455.6c2.4.1 4.9-.1 7.3.5 2 .7.8 3 .8 4.5.5 1.6 1.7 3.6 0 5-2.4 1.5-5.4.7-8.1 1v-11m2.5 1.8v3c1.3-.6 3.9 0 4-2.1l-4-.9m-.1 4.2l.3 3.3 4-.9c.4-2.6-2.6-2-4.3-2.4z"/>
		<g fill="#e6e6e6">
			<path d="M83.5 214.3l2.3-.1 4.5 7v-7h2.4V225h-2.5l-4.4-7.1v7.1h-2.3v-10.7zm11-.1c3.7 0 7.5.2 11.2.1l1.7 7.2 1.8-7.3h2.3l1.8 7.4c1-2.8.3-7.4 4.1-8-.8 3.8-1.9 7.6-2.9 11.4h-2.4l-1.8-7.3-1.7 7.3H106l-2.5-9.7a44 44 0 0 1-6.7 1.2v1.9c2 .3 4.8-.6 6 1.7l-6 .4v2.4c2.3.1 4.5.2 6.8.5-2.3 2.8-6.2 1.2-9.2 1.6v-10.8zm28 0h3.3l2.6 7.3 2.4-7.3h3.4V225h-2.4v-7.5c-.8 2.5-1.6 5.1-2.7 7.5h-1.6c-1.1-2.4-1.8-4.9-2.7-7.3v7.3h-2.3v-10.8zm16.7 0c3.7-1.4 7.7 2 7.1 5.9.1 3.5-3.8 6.3-7.2 4.9-4.5-1.6-4.4-9.2 0-10.7m1 1.8c-2.8 1.4-2.5 6.8.8 7.2 4.4 0 3.7-8.5-.8-7.2zm10.3-1.6c3.2-1.8 7.6.7 7.6 4.4.7 3.5-2.4 7.1-6 6.4-5.1-.6-6-8.6-1.6-10.8m1 2c-2 1.4-1.8 4.7-.1 6.3 1.1.8 3.1.7 3.7-.8 1.9-2.4-.3-7.7-3.6-5.5zm8-2.3h2.4l4.5 7v-7h2.4V225h-2.5l-4.4-7.1v7.1h-2.3v-10.8zm115.4 0h2.5c1 1.2 1.6 2.8 2.8 3.9l2.4-3.8 2.7-.1c-2 3.3-4.6 6.6-4.2 10.8H279c.4-4.2-2-7.5-4.1-10.8zm13.6.3c3.2-1.8 7.6.6 7.6 4.4.7 3.4-2.4 7.1-6 6.3-5.1-.5-6-8.5-1.6-10.7m1 2c-2.4 1.8-1.7 6.8 1.7 6.8 4.4-.6 2.6-9.5-1.8-6.8zm15.1-2.3h2.4c0 2.6.1 5.2-.1 7.8-.4 4.4-8.6 4.6-9 0-.2-2.6 0-5.2-.1-7.8h2.5c0 2.8-.2 5.6.2 8.4a4 4 0 0 0 3.7.3c.6-2.8.4-5.8.4-8.7zm17 10.2c-3.8-2.6-2.5-10 2.5-10.4 2.9-.6 4.8 1.9 5.7 4.3-2.3-.3-4.9-3.6-7-1.5-1.6 1.7-1.3 5.6 1.3 6.4 1.5.3 2.5-1 3.8-1.7l-3.1-.7v-1.6h4.6v6l-1.8-.6c-2 .4-4.2 1.2-6-.2zm14-10.2h3.4l2.5 7.3 2.4-7.3h3.4V225h-2.4v-7.5c-.9 2.6-1.6 5.1-2.7 7.5h-1.6c-1.1-2.4-1.8-5-2.7-7.4v7.4h-2.3v-10.8zm15.9.3c3.2-1.8 7.6.7 7.6 4.4.7 3.5-2.4 7.2-6 6.3-5.2-.5-6-8.5-1.6-10.7m1 2c-2.4 1.8-1.7 6.8 1.6 6.8 4.5-.6 2.7-9.5-1.7-6.8z"/>
			<path d="M363.4 214.4c2.6-1.2 6.2.1 7 3 1.6 3.6-1.2 8.6-5.4 7.9-5.4-.3-6.3-8.8-1.6-11m1 2c-2 1.2-2 4.3-.8 6 1.3 1.7 4.4.9 4.6-1.3 1-2.4-1-6.3-3.9-4.7zm7.8-2.1h2.4a592.8 592.8 0 0 0 4.5 7.1v-7.1h2.3V225H379l-4.5-7.2v7.2h-2.3v-10.8zm70.3 0h2.4l1.7 7.3 1.8-7.3h2.3l1.9 7.4 1.7-7.4h2.4l-3 10.8h-2.3l-1.8-7.2-1.8 7.2h-2.5l-2.8-10.7zm17.7 0h2.5l3.9 10.5 3.5-5.3-3.5-5.2h2.9l2 3.4 2.1-3.4h2.7l-3.4 5.3 3.9 5.9c-2.8.1-4.2-2-5.5-4L469 225h-5l-.8-2.4-3.3.2a8.4 8.4 0 0 1-4 2.7c1.3-3.8 2.8-7.6 4.2-11.3m1.1 2.8l-1.2 3.9h2.6l-1.4-4zm20.7-2.8h2.4a581 581 0 0 0 4.4 7.1v-7h2.4v11.2c-4-.7-4.9-4.9-7-7.6v7.1H482v-10.8zm13.4 10.5c-4.4-2.2-3.5-10 1.5-10.7 2.7-.7 4.5 1.5 6 3.3l-2 .6c-1.2-.7-2.3-2.3-3.9-1.9-2.5 1.2-2.6 5-.8 6.8 1.8 1.2 3.3-.3 4.8-1.2l-3-.8v-1.6h4.5v6l-1.8-.7c-1.8.4-3.7 1.3-5.3.2zm16.6.4c-5.5-1.3-4.8-10.8 1-11.1 3-.6 4.8 2 5.7 4.4-2.3-.3-4.8-3.6-7-1.7-2.1 2.3-1 6.8 2.5 6.7a9.9 9.9 0 0 1 4.5-3c-.6 3-3.3 6-6.7 4.7zm18.5-10.9h8v2h-5.6v2.3h5.3v1.9h-5.3v2.6h5.8v2h-8.2v-10.8zm9.9 4.5c-1.6-2.3 1.1-5.1 3.6-4.7 2.4-.4 3.9 1.8 5 3.6-2.6-.7-5.2-2.2-7.8-.7 2.6 1.7 8.5 1.7 7.3 6-2 4.2-8.7 2.6-9.6-1.7 2.7.4 5.7 3.6 8 .8-2-1.3-4.7-1.7-6.5-3.3z"/>
			<path d="M554 225.3c-6-.6-6-10.8 0-11.3 3-.7 5 1.9 5.9 4.4-2-.7-3.8-2-5.9-2.5-2.8 1.4-2.9 6 0 7.4 2.1-.6 3.9-2.1 6-3-.8 2.8-2.8 5.7-6 5zm7.2-11h8v2h-5.5v2.2a940 940 0 0 1 5.3 0l-.2 2-5.1-.1v2.5c1.8.6 6.6-1.3 5.7 2-2.7.2-5.5.1-8.2.1v-10.8zm9.6-.8c3.6 1.2 4.8 5 6.8 7.8v-7l2.3-.1-.1 11.3c-3.8-.7-4.7-5-6.8-7.7v7.2h-2.3l.1-11.5zm10.2.7h9v2.1h-3.2v8.7h-2.5v-8.7h-3.2v-2zm49.7-.6c3.8.6 3.1 5 4.2 7.8l1.8-7.2h2.3l1.8 7.5 1.7-7.4 2.4-.2-3 11.4c-3.8-.6-3-5.1-4.1-7.7L636 225l-2.5-.2c-1-3.8-2-7.5-2.8-11.3zm17.7.6h2.5l3.9 10.4 3.6-5.2-3.5-5.2h2.9l2 3.4 2.3-3.4h2.5a771.3 771.3 0 0 0-3.5 5.2 496.7 496.7 0 0 0 3.8 5.6H662l-2.3-3.7-2.4 3.7h-4.5c-.8-2-2.5-2.5-4.4-2.5a8.3 8.3 0 0 1-4 3c1-3.8 2.6-7.5 4-11.3m2.1 6.7c.6-1 .2-2.7-.7-3.4-2.2.2-1.6 5.3.7 3.4zm15.5-6.7h2.4V225H666v-10.8zm4.2 0h2.4l4.5 7.1v-7.1h2.3V225H677l-4.5-7.2v7.2h-2.3v-10.8zm12.7 9.9c-3.5-3-1.8-10 3-10.1 3-.5 4.6 2 5.6 4.3a25.4 25.4 0 0 1-5.3-2.6c-3 1.2-3.6 5.3-1.2 7.5 1.6.2 3-.7 4.5-1.3l-4-2c1.8-.5 3.6-.6 5.4-1l.1 5.9c-2.7-.2-5.8 1.3-8.1-.7zm13.8-3.2c-1.2-4 3-8.3 7.1-6.6 3.8 1.4 3.8 6.1 2.5 9.3l.7 2.3-2.6-.7c-3.2.6-7.3-.5-7.7-4.3m5.4 3l.1-2.6 2.7.3c-.3-2 0-5.5-3-5.6-4.3.4-3.5 6.9.2 8zm13.4-9.7h2.4c0 2.6.1 5.2-.1 7.8-.4 4.5-8.6 4.5-9 0-.2-2.6 0-5.2-.1-7.8h2.5c.1 3-.5 6.1.6 9l3.3-.2c.6-2.9.4-5.8.4-8.8zm7.1 0h2.5c1.4 3.8 3 7.5 4.1 11.4a8.6 8.6 0 0 1-4-2.9h-2.7a12.8 12.8 0 0 1-4 3c1.2-4 2.8-7.7 4.2-11.4m.4 6.5c2 1.5 3-2.7.8-2.8-1.4.6-1.7 1.5-.8 2.8zm7-6.6c2.8.4 7-1.2 8.8 1.8 0 1.4-.3 2.7-.6 4l1 5h-2.4l-.7-4.1-3.8-.2v4.3H730v-10.8m2.5 1.6l-.1 3.3h4.3c.3-2.7-2-3-4.2-3.3zm17.2-1.6h8.1v2.1h-5.6v2.2h5.2v2l-5.2-.1v2.6h5.7v2h-8.2v-10.8zm9.8 0c2.9.4 7-1.2 8.8 1.7 0 3-.2 6.1.3 9.1h-2.2l-.6-4-3.9-.3v4.3h-2.4v-10.8m2.4 1.9v3.2c2.1-.1 4.4-.2 4.5-2.8l-4.5-.4zm58.6-1.8l2.4-.1 1.8 7.3a865.6 865.6 0 0 1 1.7-7.3h2.3l1.8 7.4 1.8-7.4h2.4l-3 10.8h-2.3l-1.8-7.2-1.8 7.2h-2.5l-2.8-10.7zm17.7-.1h2.5l3.9 10.5a611.5 611.5 0 0 1 3.5-5.3l-3.5-5.2h2.9a313 313 0 0 0 2 3.4l2.1-3.3 2.7-.1a945.8 945.8 0 0 0-3.4 5.2l3.8 6c-2.7.1-4.1-1.9-5.4-3.9L847 225h-5l-1-2.7c-2.6.3-4.8 2-7 3.3 1.2-3.9 2.7-7.6 4.1-11.4m1.2 2.8c-.5 1.3-1 2.6-1.3 3.8h2.6l-1.3-3.8zm20.6-2.8h2.4l4.4 7.1v-7h2.4v11.2c-4-.7-4.9-4.9-7-7.7v7.2H860v-10.8zm13.4 10.5c-4.4-2.2-3.5-10 1.5-10.7 2.7-.7 4.5 1.5 6 3.3l-2 .6c-1.2-.8-2.3-2.2-4-1.9-2.9 1.4-2.6 7.2 1.1 7.3a34 34 0 0 0 3-1.7l-3-.8v-1.6h4.5v6l-1.9-.7c-1.7.4-3.6 1.3-5.2.2zm15.8 0c-4.6-2-3.5-10.3 1.8-10.7 2.9-.6 4.8 1.9 5.6 4.3-2.4-.5-5.3-4-7.3-1-1 1.9-.8 5.2 1.7 6 1.5.1 2.5-1.2 3.8-1.8l-3.1-.7v-1.6h4.6v6l-1.8-.6c-1.7.3-3.6 1.2-5.3.2zm8.8-10.5h2.4V225l-2.4.1v-10.8zm4.5 0c2.7.1 5.7-.5 8.2 1 .2 1.3 0 2.7 0 4 .3 1.7 1.6 4-.4 5.2-2.4 1-5.2.5-7.8.6v-10.8m2.4 1.6v3.1c1.3-.3 2.7-.5 4-1 .2-2.2-2.7-1.5-4-2m0 4.1v3.3l4.2-.7c.5-2.7-2.4-2.2-4.2-2.6zm8.1-5.8c2.7 0 5.6-.3 8.2.8.1 1.4.2 2.8.1 4.2.4 1.8 1.4 4.1-.6 5.3-2.5.9-5.2.4-7.7.5v-10.8m2.5 1.6v3.2c1.5-.4 3.4-.5 4.3-2-1.4-.5-2.9-.9-4.3-1.2m0 4.2l-.1 3.4c1.4-.3 2.9-.5 4.3-.9.3-2.5-2.5-2.1-4.2-2.5zM926.2 214.4c3.3-1.5 7.4 1 7.3 4.6.7 3.7-2.8 7.3-6.5 6.2-5-1-5.3-9-.8-10.8m1 1.8c-3 1.4-2 8 1.8 7 3.6-1.2 2.4-8.6-1.7-7zm8-2h2.5c0 3-.2 5.9.4 8.7 1.2.4 2.4.4 3.6-.2.5-2.8.3-5.7.3-8.5h2.4c0 3 .2 5.9-.3 8.7-1.5 3.6-8.4 3.3-8.8-1-.2-2.5 0-5.1 0-7.7zm11.1 4.5c-1.4-2.5 1.2-5 3.7-4.7 2.5-.4 3.9 1.8 5 3.6-2.5-.5-5-2.5-7.5-.6 2.4 1.7 7.8 1.6 7 5.6-1.5 4.5-8.8 3-9.6-1.5 2.8 1 5.6 3.2 8.4 1-2.3-1.3-5-1.8-7-3.4zm-637.5-5.2c3.6 1.2 4.8 5 6.8 7.8v-7l2.3-.1-.1 11.3c-3.8-.7-4.7-5-6.8-7.7v7.2h-2.3l.1-11.5zm211 .7c2.9.4 7-1.2 9 2 0 1.2-.4 2.5-.7 3.8l.9 5h-2.3l-.7-4-3.8-.3v4.3h-2.5v-10.8m2.5 2v3l4-.2v-2.7l-4-.2zm217.4-2h9l-.1 2h-3.2v8.8h-2.5v-8.7h-3.2v-2zM84.2 455.7h2.5c0 2.8-.1 5.7.2 8.5 1.1.5 2.3.6 3.5.4 1-2.9.5-6 .6-8.9h2.4v7.3c0 4.7-8.1 5.2-9 .9-.4-2.7-.2-5.5-.2-8.2zm20 0h2.5v8.8h5.2v2h-7.7v-10.8zm50 0h2.4l4.5 7.1v-7.1h2.3l-.1 11.5c-3.7-1.2-4.8-5-6.8-7.8v7.1h-2.3a1944 1944 0 0 1 0-10.8zm160.8 0h2.4v10.8H315v-10.8zm37.2 0h2.5c0 2.8-.2 5.7.2 8.5 1.1.5 2.3.6 3.5.4 1-2.9.5-6 .6-8.9h2.4v7.3c0 4.7-8.1 5.2-9 .9-.4-2.7-.2-5.5-.2-8.2zm150 0h2.5c0 2.7.2 5.5-.2 8.2-1 3.6-6.6 3.9-8.5 1-1-3-.4-6.1-.5-9.2h2.4c0 3-.4 6 .6 8.9 1.2.1 2.5.2 3.5-.5.4-2.8.2-5.6.2-8.4zm44 0c2.7.2 5.7-.6 8.2.8 1.5 1.4.4 3.3.1 5l1 5.7c-2.4-.7-2.7-3-3.4-4.9h-3.4v4.2h-2.5v-10.8m2.5 1.7v3.5c1.4-.3 2.7-.4 4-.8 1-2.8-2.3-2.2-4-2.7zm74.3-1.7h2.4v10.8H623v-10.8zm4.5 0h2.4l4.4 7.2v-7.2h2.4c0 3.8 0 7.7-.2 11.5-3.6-1.2-4.8-5-6.7-7.8v7.1h-2.3v-10.8zm37.7 0c2.5 0 5.2-.3 7.6.4 2.2 1 1.2 3.6.7 5.4l1 5.7c-2.4-.7-2.7-3-3.4-4.9h-3.4v4.2h-2.5v-10.8m2.5 1.7a67.7 67.7 0 0 0 0 3.5c1.7-.4 3.9-.1 4.6-2.1-1.3-1-3-1.1-4.6-1.4zm48.5-1.7h2.4l4.5 7.1v-7.1h2.3l-.1 11.4c-3.7-1-4.8-5-6.8-7.7v7.1h-2.3v-10.8zm-640.7 0H83v2h-5l-.1 2.5h4.6l-.2 2H78v4.3h-2.4v-10.8zm20 0h2.4v8.8h5.3v2h-7.7v-10.8zm22 0h3.4l2.5 7.4 2.4-7.4h3.4v10.8h-2.4V459c-.8 2.5-1.6 5-2.7 7.5h-1.6c-1.1-2.4-1.9-5-2.7-7.5v7.5h-2.3v-10.8zm15.7.4c3-1.8 7.4.2 7.7 3.8 1 3.6-2 7.7-5.9 6.9-5-.6-6-8.4-1.8-10.7m1 2c-1.7 1.5-1.5 4.3-.2 6 1.8 1.5 4.5.2 4.6-2.1.8-2.5-2-6-4.4-4zm10.2-1.7c2.8-2.1 7.5-.6 8.2 2.9 1.2 3.6-1.6 8.2-5.6 7.5-5-.3-6.2-7.6-2.6-10.3m1.8 1.5c-2.5 1.6-1.8 7 1.6 6.7 4.4-.4 2.6-9.4-1.7-6.7zm90.3-2.9c3.7.8 3.1 5.1 4.2 7.9l1.7-7.3h2.3l1.8 7.4c1-2.8.4-7.2 4.1-8-.7 3.9-1.8 7.6-2.8 11.4h-2.4a366 366 0 0 1-1.8-7.2c-1 2.7-.6 6.7-3.9 7.9a93.3 93.3 0 0 1-3.2-12zm18 0c1 .6 2.5 1 2.8 2.4a84.3 84.3 0 0 1 3.3 9.6c-2-1.2-4-3.1-6.5-3.1a16.7 16.7 0 0 1-3.9 3.3c1-4.2 2.6-8.2 4.3-12.1m-.5 7.1h2.7l-1.3-3.8-1.4 3.8zm18.7-6.6h2.5v10.8h-2.5v-10.8zm4.5-.5c3.6 1 4.7 4.9 6.6 7.6v-7h2.4v10.7h-2.5l-4.4-7.1v7l-2.3.2c0-3.8 0-7.6.2-11.4zm12.4 10.4c-3.5-3.1-1.6-10.3 3.5-10.1 2.6-.4 4 2.1 5.2 4-2.3 0-4.9-3-7-1.3-1.5 1.7-1.5 4.7.3 6.2 1.8 1.2 3.3-.8 4.8-1.4l-3.4-.7.4-1.6h4.4v5.6c-2.7-.1-6 1.3-8.2-.7zm15.8.2c-3.6-2.8-2.3-10 2.5-10.3 3-.6 4.9 1.8 5.8 4.2a50.8 50.8 0 0 1-5.4-2.5c-2.6 1.2-3.5 4.8-1.4 7 1.7 1.4 3.5-.3 4.9-1.3l-3.1-.6v-1.6h4.6v5.6c-2.6-.1-5.6 1.2-8-.5zm37-9.4c2.8-2.1 7.4-.6 8.2 2.9 1.2 3.5-1.5 8.1-5.6 7.5-5-.3-6.2-7.6-2.6-10.4m1.8 1.5c-2.5 1.6-1.8 7.2 1.7 6.8 4.3-.5 2.6-9.4-1.7-6.8zm19 1.8c-1-4 4.8-5.5 7.2-3.2l1.6 2.9c-2.4-.6-5-3-7.3-.8 2.3 1.3 5.4 1.5 7.1 3.6 1 3.3-2.9 5.3-5.7 4.5-2.2-.2-3-2.6-3.8-4.3 2.6.7 5.1 3.7 7.8 1.6-1.7-2.3-5.2-2-6.8-4.3zm53.3-4.6c3.6.8 3.2 5 4.2 7.7 1-2.6.5-6.5 3.7-7.7a100.4 100.4 0 0 1 2.1 8c1-2.8.5-7.1 4-8-1.2 4-.7 9.7-4.8 12.1a124 124 0 0 1-2.2-8l-1.7 7.3h-2.5c-1-3.8-2-7.5-2.8-11.4zm17.7.6h2.5c1.4 3.8 2.9 7.5 4 11.4-2.2-1.2-4-3.1-6.6-3.1a16.8 16.8 0 0 1-3.9 3.3c1-4 2.6-7.8 4-11.6m1.2 2.8c-.5 1.3-1 2.6-1.3 3.8h2.6l-1.3-3.8zm17.3-2.8h2.5v10.8h-2.5v-10.8zm4.5-.5c3.6 1 4.7 4.9 6.6 7.6v-7h2.4v10.7h-2.5l-4.4-7.1v7l-2.2.2c-.1-3.8-.2-7.6.1-11.4zm12.3 10.3c-3.4-3.2-1.5-10.2 3.5-10 2.7-.4 4 2.1 5.3 4-2.3 0-4.8-3-7-1.3-1.5 1.7-1.5 4.8.4 6.2 1.7 1.2 3.2-.8 4.6-1.4l-3.3-.7.4-1.6h4.4v5.6c-2.7-.1-6 1.3-8.3-.8zm14.8-.9c-2.9-3.9.6-10.6 5.8-9 4.3 1 4.2 6.3 3 9.7l.9 1.6c-3.2-.6-7.5.9-9.7-2.3m1.4-3.5c-.2 2 1.6 3.1 2.7 4.4l.6-3 2.4 1c-.1-2 .6-5.5-2.3-6-2-.5-3.5 1.8-3.4 3.6zm23.7-5.4h2.5c1.4 3.8 3 7.5 4 11.4-2.1-1.3-4-3.2-6.7-3a15 15 0 0 1-3.8 3.2c1-4 2.6-7.8 4-11.6m1.2 2.8l-1.3 3.9h2.7l-1.4-3.9zm6.1-2.8c3 .5 7.7-1.4 9 2.3l-.6 3.6.9 5-2-.1-1.3-3.9-3.4-.6-.2 4.5h-2.4v-10.8m2.5 1.9l.1 3.3c2.2 0 4-.7 4.4-3l-4.5-.3zm17.3-1.9h8v2l-5.6.1v2.2h5.3v1.9h-5.3v2.6h5.8v2h-8.2v-10.8zm50.3-.6c3.7.7 3 5 4 7.8 1-2.7.6-6.6 3.9-7.7a85.4 85.4 0 0 1 2 8c1.1-2.8.4-7.4 4.2-8-.8 3.8-1.9 7.6-3 11.4l-2.3-.2-1.8-7.2-1.8 7.4-2.4-.2-2.9-11.3zm17.6.6h2.5c1.4 3.8 3 7.5 4 11.5-2-1-3.6-3.4-6-3-1.6.8-3 2-4.5 3 1-4 2.6-7.7 4-11.5m1.2 2.8l-1.3 3.9h2.7l-1.4-3.9zm6.2-3.4c3.7 1 4.8 5 6.8 7.7v-7l2.3-.1c0 3.8 0 7.6-.2 11.4-3.6-1.2-4.8-5-6.7-7.8v7.2h-2.3l.1-11.4zm27.9 10.2c-3.2-3-1.5-9.8 3.3-9.8 2.8-.5 4.4 2 5.5 4-2.3-.2-4.8-3-7.1-1.2-1.4 1.9-1.3 5.2 1 6.4 1.7.4 2.9-1 4.2-1.7l-3.2-.7.2-1.6h4.4v5.6c-2.8-.1-6.2 1.4-8.4-1zm18.3 1.5c-5.5-.6-6.1-9.6-1-11 3.2-1.3 5.9 1 7 3.8-2.4-.1-5.4-3.6-7.4-1-1.1 1.7-1 4.6.9 5.8 2.4 1 4.1-2.1 6.5-2.4-.8 2.6-2.9 5.5-6 4.8zm18-11h8v2h-5.6v2.2h5.3v1.9h-5.3v2.6h5.8v2H676v-10.8zm9.6 4.3c-1-2.8 1.8-5.1 4.4-4.6 2.4-.3 3.4 2.1 4.6 3.8-2.6-.3-5.2-3-7.6-.6 2.4 1.4 6.4 1.2 7.3 4.4-.5 5.5-9.3 4.5-9.8-.7 2.5.7 5.7 4.2 7.8 1-2.2-1.3-4.8-1.7-6.7-3.4z"/>
			<path d="M699.1 466.7c-5.5-1-5.5-10-.1-11.1 3-1 5.4 1.5 6.5 4.1-1.9-.6-3.7-1.6-5.6-2.2-3.9.5-3.2 8 1 7.2l2.4-2.3h2.2c-1 2.6-3.3 5.2-6.4 4.3zm7.4-11h8v2H709v2.3h5.3v1.9h-5.3l.1 2.6h5.7v2h-8.2v-10.8zm20.1 0h8.8l.2 2a6723 6723 0 0 0-3.3.1v8.7h-2.5v-8.7h-3.2v-2zm69.7.5c3.1-2 7.6.1 8 3.8.8 3.6-2.4 7.7-6.2 6.7-5-.7-5.7-8.1-1.8-10.5m1 2c-2.2 2-1 7.5 2.6 6.4 4-1.4 1.4-9.7-2.6-6.4zm8.4-2.5h2.5v8.8h5.2v2h-7.7v-10.8zm24.3 0h3.4l2.5 7.4a903.4 903.4 0 0 1 2.4-7.4h3.4v10.8h-2.4V459c-.8 2.5-1.6 5-2.7 7.4l-1.6.1c-1.1-2.4-1.9-5-2.7-7.5v7.4l-2.2.3-.1-11zm15.4.6c3-2.2 7.9 0 8 3.8 1 3.7-2.4 7.7-6.3 6.6-4.6-1-5.4-7.9-1.7-10.4m1 2c-1.8 2.2-.9 7.1 2.5 6.4 4.5-1.2 1.6-10.1-2.6-6.4z"/>
			<path d="M857.3 456.2c3-2 7.6 0 8 3.8.8 3.6-2.3 7.6-6.1 6.8-5-.7-5.9-8.2-1.9-10.6m1 2c-2.1 2-1 7.4 2.5 6.4 4.1-1 1.6-9.7-2.5-6.4zm8.9-3c3.6 1 4.7 4.9 6.6 7.6v-7h2.4V467c-3.8-1-5-5-7-7.7v7l-2.2.2c0-3.8-.1-7.6.2-11.4z"/>
		</g>
		<path fill="#d9dada" d="M477.5 214.1l2.5.1V225h-2.5v-10.9zm378 0h2.5V225h-2.5v-10.8z"/>
		<path fill="#e0e0e0ff" d="M261.7 455c3.5 1.3 4.7 5 6.8 7.8.6-2.4 0-4.8-.3-7h2.5c0 3.7 0 7.6-.2 11.4-3.6-1.2-4.8-5-6.7-7.9v7.2h-2.3c0-3.8 0-7.6.2-11.5zm180 0c3.5 1.3 4.7 5 6.6 7.8v-7h2.4c0 3.7 0 7.6-.2 11.4-3.6-1.2-4.8-5-6.7-7.8v7.1h-2.3c0-3.8 0-7.6.2-11.4z"/>
		<path fill="#e1e1e1ff" d="M330 455.7c2.3 0 4.7-.2 7 .3 2.2.4 1.1 3.1 1.3 4.6.3 1.8 1.5 4.1-.6 5.4-2.4.8-5.1.5-7.7.6v-11m1.5 3.5l2.2 1-1.5 1.3.4 3.6c1.4-.4 2.9-.6 4.2-1.1a4 4 0 0 0-2.6-2.5l2.4-3.4c-1.8-.2-3.8-.5-5.1 1zm483.2-3.5c2.3.2 4.8-.2 7 .6 3.5 1.9 3.4 7.7.3 9.8-2.4.8-4.9.4-7.3.6v-11m2.5 1.8v7.5c2.2-.4 5.1-1 4.6-3.9.4-2.7-2.6-3.2-4.6-3.6z"/>
		<path fill="#e5e5e5" d="M526.3 455.7h9v2H532v8.8h-2.4v-8.7h-3.3v-2z"/>
		<path fill="#5d6063" d="M723.1 220.8c-.9-1.3-.6-2.2.8-2.8 2.2.1 1.3 4.3-.8 2.8z"/>
	</g>
	<g id="phases" fill="#fec10d">
		<path d="M131.4 34.54c16.04-2.34 32.88.13 47.22 7.81a76.68 76.68 0 0 1 36.76 42.3c4.64 12.71 5.38 26.66 3.11 39.95-3.76 20.68-16.6 39.4-34.37 50.57-24.4 15.78-57.82 15.74-82.17-.11-14.7-9.36-26.17-23.81-31.55-40.42a77.72 77.72 0 0 1 3.61-57.61c10.67-22.4 32.79-38.95 57.39-42.49m2.91 1.88c-21.4 2.39-41.36 14.73-53.19 32.7a74.38 74.38 0 0 0-12.09 48.93c1.84 19.12 11.7 37.2 26.43 49.46a74.57 74.57 0 0 0 83.93 7.84 74.68 74.68 0 0 0 33.37-38.7c6.02-15.74 6.28-33.52 1.17-49.55a74.94 74.94 0 0 0-38.95-44.13 75.5 75.5 0 0 0-40.67-6.55z"/>
		<path fill="#282b2e" d="M134.31 36.42a75.5 75.5 0 0 1 40.67 6.55 74.94 74.94 0 0 1 38.95 44.13c5.11 16.03 4.85 33.81-1.17 49.55a74.68 74.68 0 0 1-33.37 38.7 74.57 74.57 0 0 1-83.93-7.84c-14.73-12.26-24.59-30.34-26.43-49.46a74.38 74.38 0 0 1 12.09-48.93c11.83-17.97 31.79-30.31 53.19-32.7z"/>
		<path d="M319.53 34.15c14.4-1.04 28.98 2.71 41.44 9.92a76.63 76.63 0 0 1 34.39 41.77 76.22 76.22 0 0 1-1.14 52.26 77.14 77.14 0 0 1-25.1 33.15c-14.1 10.71-32.01 16.37-49.72 15.38 16.33-1.87 32.12-8.75 44.07-20.12 15.09-13.9 23.87-34.12 24.41-54.56.04-13.77-3.05-27.69-9.98-39.67-11.91-21.04-34.26-35.77-58.37-38.13z"/>
		<path d="M496.91 34a77.7 77.7 0 0 1 51.25 14.78c11.28 8.65 20.62 20.09 25.75 33.44a76.2 76.2 0 0 1 .15 55.95 76.7 76.7 0 0 1-37.29 40.65c-12.26 6.16-26.19 8.67-39.85 7.79 19.48-10.32 33.18-29.56 39.14-50.53 5.08-18.22 4.76-38.01-1.34-55.95-6.47-19.26-19.95-36.28-37.81-46.13z"/>
		<path d="M683.04 33.79c20.11.24 40.18 8.44 54.11 23.06 21.4 20.94 28.01 55.07 16.29 82.59a76.86 76.86 0 0 1-37.36 39.66c-10.24 5.06-21.62 7.5-33 7.74-.03-51.01-.19-102.03-.04-153.05z"/>
		<path d="M868.46 34.55c7.03-.49 14.05 1.9 20.69 4.1 17.04 6.29 31.54 18.92 40.39 34.76 7.41 13.53 10.8 29.3 9.14 44.67a76.54 76.54 0 0 1-66.74 68.12c-3.91.88-6.93-2.23-9.95-4.14-14.75-10.04-25.36-25.46-30.86-42.32a93.53 93.53 0 0 1 .66-60.86c6.55-18.38 19.38-34.98 36.67-44.33z"/>
		<path d="M833.61 279.46c10.86-4.7 22.77-5.93 34.49-5.95-14.83 1.75-29.41 6.96-41.1 16.41-14.23 11.14-24.07 27.52-27.85 45.14-2.43 15.08-1.35 30.96 4.75 45.09 8.14 19.42 24.74 35.07 44.53 42.21 5.82 2.15 11.98 3.08 18.04 4.3-15.54.45-31.26-3.38-44.41-11.78-14.5-9.14-25.95-23.2-31.49-39.47a76.52 76.52 0 0 1 3.95-59.85 76.76 76.76 0 0 1 39.09-36.1z"/>
		<path d="M133.28 274.35a75.85 75.85 0 0 1 48.42 9.91 76.44 76.44 0 0 1 34.25 42.83 76.07 76.07 0 0 1-1.17 49.65 76.78 76.78 0 0 1-32.17 38.84 76.28 76.28 0 0 1-49.68 10.31c-28.03-3.48-53.12-23.96-61.98-50.8a76.54 76.54 0 0 1 5.63-62.49c11.51-20.71 33.18-35.33 56.7-38.25z"/>
		<path d="M310.57 274.7c2.73-.37 5.78-1.16 8.26.5 13.4 7.87 24.21 19.96 30.94 33.94a93.27 93.27 0 0 1 7.63 59.98c-4.51 23.07-18.7 44.29-39.07 56.25-.97.63-2.02.9-3.16.8-20.44-1.96-39.79-12.77-52.36-28.98a76.22 76.22 0 0 1-15.4-36.05c-2.82-19.49 2.07-40.07 13.82-55.94 11.59-16.14 29.77-27.25 49.34-30.5z"/>
		<path d="M467.39 282.47c10.85-5.76 23.1-8.64 35.36-8.83-.06 51.03.02 102.06-.04 153.08-15.45-.32-30.86-4.92-43.51-13.88-13.54-9.46-24-23.36-28.98-39.14a77.03 77.03 0 0 1 3.39-55.85 76.97 76.97 0 0 1 33.78-35.38z"/>
		<path d="M644.2 284.18a77 77 0 0 1 44.24-10.3c-9.65 5.85-18.68 13.08-25.19 22.38-20.87 28.23-22.86 68.71-5.58 99.13 7.41 12.85 17.97 24.23 31.25 31.08-15.83 1.03-31.99-2.55-45.57-10.85-14.68-8.87-26.34-22.76-32.19-38.91a76.37 76.37 0 0 1-1.87-47.44c5.15-18.83 18.09-35.26 34.91-45.09z"/>
	</g>
</svg>
