<svg id="Layer_1" xmlns="http://www.w3.org/2000/svg" viewBox="0 0 600 600">
	<g id="moon">
		<g fill="#f5bb3a">
			<path d="M187.9,347.7c0.5-0.6,1-1.1,1.5-1.7c1.4-1.6,2.8-3.1,4.3-4.6c1.1-1.1,2.3-2,3.5-3.1c1.8-1.6,3.7-3.2,5.6-4.7 c1.4-1.1,3-2.1,4.5-3.1c1.8-1.2,3.6-2.4,5.5-3.6c1.7-1,3.5-1.9,5.4-2.9c1.8-0.9,3.5-1.8,5.3-2.6c2-0.9,4.1-1.7,6.2-2.4 c1.7-0.6,3.5-1.2,5.2-1.7c2.2-0.7,4.5-1.3,6.8-1.8c1.7-0.4,3.4-0.7,5.2-1c2.4-0.4,4.9-0.8,7.3-1c0.3,0,0.6,0,0.8-0.1 c-0.2,0-0.4,0-0.4,0c-27.5-26.5-27.6-72.9-27.6-74.4C215.4,152.8,288,88.4,293.3,84c0.2-0.2,0.4-0.4,0.4-0.4 C205.6,87,135,159.6,135,248.5c0,43.1,16.4,82.2,43.4,111.6c2.2-3.4,4.6-6.7,7.1-9.8C186.3,349.4,187.1,348.6,187.9,347.7z M208.3,143.3l11-11.4c2.3-2.4,6.1-2.4,8.5-0.1c2.4,2.3,2.4,6.1,0.1,8.5l-11,11.4c-1.2,1.2-2.7,1.8-4.3,1.8c-1.5,0-3-0.6-4.2-1.7 C206.1,149.4,206,145.6,208.3,143.3z M180.4,301.6c-17.8-39.4-15.8-87.4,5.3-125.3c1.6-2.9,5.3-4,8.2-2.3 c2.9,1.6,3.9,5.3,2.3,8.2c-19.2,34.6-21.1,78.4-4.8,114.5c1.4,3,0,6.6-3,7.9c-0.8,0.4-1.6,0.5-2.5,0.5 C183.6,305.1,181.4,303.8,180.4,301.6z"/>
			<path d="M291.1,316.6c-0.1,0-0.1-0.1-0.1-0.2C291,316.5,291.1,316.5,291.1,316.6 C291.1,316.6,291.1,316.6,291.1,316.6z"/>
		</g>
		<g fill="#d06c30">
			<path d="M227,239.2c0,1.6,0.1,47.9,27.6,74.4c0,0,0.2,0,0.4,0c0.6,0,1.2-0.1,1.8-0.1c2.5-0.2,4.9-0.5,7.4-0.5 c7,0,13.8,0.9,20.4,2.3c1,0.2,1.9,0.4,2.9,0.6c1.2,0.3,2.4,0.4,3.6,0.7c0,0,0,0,0,0c0,0-0.1-0.1-0.1-0.1 c-27-29.3-46.8-72.1-46.8-115c0-44.6,17.8-85,46.7-114.7c1.2-1.3,2-2.2,2.4-2.6C288,88.4,215.4,152.8,227,239.2z"/>
			<path d="M345.6,353.6c10,13.3,16.8,29.3,19.2,46.6c19.1-8,36.2-19.7,50.8-34.1c-2.2,0.2-4.2,0.2-6.4,0.2 C386.6,366.3,365.2,361.8,345.6,353.6z"/>
		</g>
		<g fill="#ee8e38">
			<path d="M188.3,304.6c3-1.4,4.4-4.9,3-7.9c-16.3-36.1-14.4-79.9,4.8-114.5c1.6-2.9,0.6-6.6-2.3-8.2 c-2.9-1.6-6.6-0.6-8.2,2.3c-21,37.8-23.1,85.8-5.3,125.3c1,2.2,3.2,3.5,5.5,3.5C186.7,305.1,187.5,305,188.3,304.6z"/>
			<path d="M212.6,153.4c1.6,0,3.1-0.6,4.3-1.8l11-11.4c2.3-2.4,2.2-6.2-0.1-8.5c-2.4-2.3-6.2-2.2-8.5,0.1l-11,11.4 c-2.3,2.4-2.2,6.2,0.1,8.5C209.6,152.9,211.1,153.4,212.6,153.4z"/>
		</g>
	</g>
	<g id="stars">
		<path fill="#f5bb3a" d="M373.8,289.4l-1.2,7.2l6.6-3.4c6.1-3.2,13.4-3.2,19.7,0l6.5,3.4l-1.2-7.2c-1.2-7,1.1-13.9,6.1-18.8l5.3-5.2 l-7.3-1.1c-7-1-12.8-5.3-16-11.5l-3.2-6.6l-3.4,6.6c-3,6.2-9,10.6-16,11.5l-7.3,1.1l5.4,5.2C372.7,275.5,375,282.4,373.8,289.4z M392.6,267.8c2,0,3.6,1.6,3.6,3.6c0,2-1.6,3.6-3.6,3.6s-3.6-1.6-3.6-3.6C389,269.4,390.6,267.8,392.6,267.8z"/>
		<path fill="#d5562b" d="M425.9,187.6l-1.7,9.7l8.8-4.6c8.4-4.4,18.2-4.4,26.6,0l8.8,4.6l-1.7-9.7c-1.6-9.4,1.6-18.7,8.3-25.3l7.1-7 l-9.8-1.4c-9.4-1.3-17.4-7.2-21.5-15.6l-4.4-9l-4.4,9c-4.1,8.4-12.1,14.3-21.5,15.6l-9.8,1.4l7.1,7 C424.3,168.9,427.4,178.3,425.9,187.6z M449.9,157.1c2,0,3.6,1.6,3.6,3.6s-1.6,3.6-3.6,3.6c-2,0-3.6-1.6-3.6-3.6 S447.9,157.1,449.9,157.1z"/>
		<path fill="#ec7b31" d="M310.8,179.6l-1.2,7.3l6.5-3.4c6.2-3.4,13.6-3.4,19.8,0l6.5,3.4l-1.2-7.3c-1.2-6.8,1.1-13.8,6.1-18.7 l5.3-5.2l-7.3-1.1c-7-1-12.8-5.3-16-11.5l-3.2-6.7l-3.4,6.7c-3,6.2-9,10.6-16,11.5l-7.3,1.1l5.4,5.2 C309.7,165.8,312,172.8,310.8,179.6z M322.4,158c2,0,3.6,1.6,3.6,3.6s-1.6,3.6-3.6,3.6c-2,0-3.6-1.6-3.6-3.6S320.4,158,322.4,158 z"/>
		<g fill="#fff">
			<circle cx="449.9" cy="160.7" r="3.6"/>
			<circle cx="392.6" cy="271.4" r="3.6"/>
			<circle cx="322.4" cy="161.7" r="3.6"/>
		</g>
	</g>
	<g id="cloud">
		<path fill="#69c9d2" d="M293.6,350.8c-0.9-0.2-1.8-0.3-2.5-0.9c-6.9-5.3-16.4-7.2-24.8-5c-3.2,0.9-6.5-1-7.4-4.2 c-0.9-3.2,1-6.5,4.2-7.4c6.2-1.7,12.9-1.7,19.3-0.2c-9.6-13.1-18.2-20.2-18.2-20.2c-2.5,0-4.9,0.3-7.4,0.5 c-0.6,0-1.2,0.1-1.8,0.1c-0.3,0-0.6,0-0.8,0.1c-2.5,0.2-4.9,0.6-7.3,1c-1.7,0.3-3.5,0.6-5.2,1c-2.3,0.5-4.6,1.1-6.8,1.8 c-1.8,0.5-3.5,1.1-5.2,1.7c-2.1,0.8-4.1,1.5-6.2,2.4c-1.8,0.8-3.6,1.7-5.3,2.6c-1.8,0.9-3.6,1.8-5.4,2.9 c-1.9,1.1-3.7,2.3-5.5,3.6c-1.5,1-3,2-4.5,3.1c-2,1.5-3.8,3.1-5.6,4.7c-1.2,1-2.4,2-3.5,3.1c-1.5,1.5-2.9,3-4.3,4.6 c-0.5,0.6-1,1.1-1.5,1.7c-0.8,0.9-1.6,1.7-2.3,2.6c-2.6,3.1-4.9,6.4-7.1,9.8c-10.2,15.7-16,34.4-16,54.5c0,7.3,0.7,14.4,2.3,21.2 l-0.1,0.1c-9.1-4-19.1-6.1-29.5-6.1c-38.4,0-70,28.8-74.5,66c-0.4,3-0.6,6.1-0.6,9.2c0,3.8,0.2,7.7,1,11.3h248V410.3 C309,386.6,302,366.5,293.6,350.8z M122.9,463.5c-7,0.1-14.4,2.7-19.6,7.8c-5.1,5-8.1,12.2-8.1,19.3c0,3.3-2.7,6-6,6s-6-2.7-6-6 c0-10.3,4.4-20.7,11.8-27.9c7.6-7.3,18.1-11.1,28.2-11.2c3.3,0,6,2.8,5.9,6.1C129,460.9,126.1,463.6,122.9,463.5z M235.9,351.8 c-22.2,7.8-38.2,30.6-38.2,54.1c0,3.3-2.7,6-6,6s-6-2.7-6-6c0-28.5,19.4-56,46.2-65.4c3.1-1.1,6.6,0.5,7.7,3.7 C240.6,347.3,239,350.7,235.9,351.8z"/>
		<path fill="#58aab2" d="M433.1,388.9c-25.4,0-48.8,8.9-67.2,23.8c-0.1-4.2-0.5-8.4-1.1-12.5c-2.4-17.3-9.2-33.2-19.2-46.6h-0.1 c-13.2-17.9-32.3-31.1-54.4-37.1c0,0,0,0,0,0c-1.2-0.3-2.4-0.5-3.6-0.7c-0.9-0.2-1.9-0.4-2.9-0.6c-6.6-1.4-13.3-2.3-20.4-2.3 c0,0,8.6,7.1,18.2,20.2c5.8,1.3,11.3,3.7,15.9,7.3c2.6,2,3.1,5.8,1.1,8.4c-1.2,1.5-3,2.3-4.7,2.3c-0.4,0-0.8-0.3-1.2-0.4 c8.4,15.7,15.4,35.8,15.4,59.5v106.1h229.1c1.2-6.7,1.9-13.6,1.9-20.5C540,436.8,492.1,388.9,433.1,388.9z M494,457 c-0.9,0.4-1.8,0.6-2.7,0.6c-2.2,0-4.3-1.2-5.4-3.3c-9.8-19.5-31.9-32.3-53.6-31.3c-3.6,0.4-6.1-2.4-6.3-5.7 c-0.2-3.3,2.4-6.1,5.7-6.3c26.6-1.5,53,14.3,64.9,37.8C498.1,451.9,496.9,455.5,494,457z"/>
		<g fill="#c5e5d5">
			<path d="M123.1,451.5c-10.1,0.1-20.6,3.9-28.2,11.2c-7.4,7.2-11.8,17.7-11.8,27.9c0,3.3,2.7,6,6,6s6-2.7,6-6 c0-7.1,3.1-14.3,8.1-19.3c5.3-5.1,12.6-7.7,19.6-7.8c3.2,0.1,6-2.6,6.1-5.9C129,454.3,126.4,451.6,123.1,451.5z"/>
			<path d="M231.9,340.5c-26.8,9.5-46.2,37-46.2,65.4c0,3.3,2.7,6,6,6s6-2.7,6-6c0-23.5,16.1-46.3,38.2-54.1 c3.1-1.1,4.8-4.5,3.7-7.7C238.4,341,235,339.4,231.9,340.5z"/>
			<path d="M263.2,333.4c-3.2,0.9-5.1,4.2-4.2,7.4c0.9,3.2,4.2,5.1,7.4,4.2c8.4-2.3,17.9-0.4,24.8,5 c0.7,0.6,1.6,0.7,2.5,0.9c0.4,0.1,0.7,0.4,1.2,0.4c1.8,0,3.6-0.8,4.7-2.3c2-2.6,1.5-6.4-1.1-8.4c-4.7-3.6-10.2-6-15.9-7.3 C276.1,331.7,269.4,331.7,263.2,333.4z"/>
			<path d="M431.7,411.1c-3.3,0.2-5.8,3-5.7,6.3c0.2,3.3,2.7,6.1,6.3,5.7c21.7-1,43.8,11.8,53.6,31.3 c1.1,2.1,3.2,3.3,5.4,3.3c0.9,0,1.8-0.2,2.7-0.6c3-1.5,4.1-5.1,2.6-8.1C484.7,425.3,458.3,409.6,431.7,411.1z"/>
		</g>
	</g>
</svg>
