<svg xmlns="http://www.w3.org/2000/svg" viewBox="0 0 600 600"><path fill="#f5bb3a" d="M188 348l1-2 5-5 3-3 6-4 4-4 6-3 5-3 6-3a66 66 0 0 1 11-4 75 75 0 0 1 12-3l7-1h1c-28-26-28-73-28-74-12-86 61-151 66-155h1a165 165 0 0 0-116 276l8-10 2-2zm20-205l11-11a6 6 0 1 1 9 8l-11 12-4 2-5-2c-2-3-2-6 0-9zm-28 159c-17-40-15-88 6-126 1-3 5-4 8-2s4 5 2 8c-19 35-21 79-5 115a6 6 0 0 1-5 8c-2 0-5-1-6-3zm111 15v-1 1z"/><path fill="#d06c30" d="M227 239c0 2 0 48 28 75h2l7-1 21 2 2 1 4 1c-27-30-47-73-47-115 0-45 18-85 47-115l2-3c-5 4-78 69-66 155zm119 115c10 13 16 29 19 46 19-8 36-19 51-34h-7c-22 0-44-4-63-12z"/><path fill="#ee8e38" d="M188 305c3-2 5-5 3-8-16-36-14-80 5-115 2-3 1-6-2-8s-7-1-8 2c-21 38-23 86-6 126 1 2 4 3 6 3h2zm25-152l4-1 11-12c2-2 2-6 0-8-3-3-6-3-9 0l-11 11c-2 3-2 6 0 9l5 1z"/><path fill="#f5bb3a" d="M374 289l-1 8 6-4c6-3 14-3 20 0l6 4-1-8c-1-7 1-14 6-18l6-6-8-1c-7-1-12-5-16-11l-3-7-3 7c-3 6-9 10-16 11l-8 1 6 6c5 5 7 11 6 18zm19-21c2 0 3 1 3 3s-1 4-3 4-4-2-4-4 2-3 4-3z"/><path fill="#d5562b" d="M426 188l-2 9 9-4c8-5 18-5 27 0l8 4-1-9c-2-10 1-19 8-26l7-7-10-1c-9-1-17-7-21-16l-5-9-4 9c-4 9-12 15-21 16l-10 1 7 7c6 7 9 16 8 26zm24-31c2 0 3 2 3 4s-1 3-3 3-4-1-4-3 2-4 4-4z"/><path fill="#ec7b31" d="M311 180l-1 7 6-3c6-4 14-4 20 0l6 3-1-7c-1-7 1-14 6-19l6-5-8-1c-7-1-12-6-16-12l-3-7-3 7c-3 6-9 11-16 12l-8 1 6 5c5 5 7 12 6 19zm11-22c2 0 4 2 4 4s-2 3-4 3-3-1-3-3 1-4 3-4z"/><g fill="#fff"><circle cx="450" cy="161" r="4"/><circle cx="393" cy="271" r="4"/><circle cx="322" cy="162" r="4"/></g><path fill="#69c9d2" d="M294 351l-3-1c-7-5-16-7-25-5a6 6 0 1 1-3-12h19c-9-13-18-20-18-20h-7l-2 1h-1l-7 1-5 1-7 1-5 2-6 3-6 2-5 3-6 4-4 3-6 4-3 4-5 4-1 2-2 2-7 10a100 100 0 0 0-14 76 75 75 0 0 0-104 80h248V410c0-23-7-43-15-59zM123 464c-7 0-14 2-20 7-5 5-8 13-8 20 0 3-2 6-6 6s-6-3-6-6c0-11 5-21 12-28 8-8 18-11 28-11 4 0 6 2 6 6 0 3-3 6-6 6zm113-112c-22 8-38 30-38 54 0 3-3 6-6 6s-6-3-6-6c0-29 19-56 46-65 3-2 6 0 8 3 1 3-1 7-4 8z"/><path fill="#58aab2" d="M433 389c-25 0-49 9-67 24a104 104 0 0 0-20-59c-14-18-33-32-55-38h-3a144 144 0 0 0-24-3s9 7 18 20c6 1 12 4 16 7 3 2 3 6 1 9l-4 2h-1c8 15 15 35 15 59v106h229l2-20c0-59-48-107-107-107zm61 68l-3 1c-2 0-4-2-5-4a59 59 0 0 0-54-31c-3 0-6-2-6-6 0-3 2-6 6-6 26-1 53 14 65 38 1 3 0 7-3 8z"/><path fill="#c5e5d5" d="M123 452c-10 0-21 3-28 11-8 7-12 17-12 28 0 3 3 6 6 6s6-3 6-6c0-8 3-15 8-20s13-7 20-8c3 1 6-2 6-5 0-4-3-6-6-6zm109-111a71 71 0 0 0-46 65c0 3 2 6 6 6s6-3 6-6c0-24 16-46 38-54 3-1 5-5 4-8-2-3-5-5-8-3zm31-8a6 6 0 1 0 3 12c9-2 18 0 25 5l3 1h1l5-2c2-3 1-6-2-8-4-4-10-6-15-8h-20zm169 78c-4 0-6 3-6 6 0 4 3 7 6 6 22-1 44 12 54 31a6 6 0 0 0 8 3c3-1 4-5 3-8a70 70 0 0 0-65-38z"/></svg>
