<svg id="moon_phases" aria-labelledby="moonTitle moonDesc" role="img" xmlns="http://www.w3.org/2000/svg" viewBox="0 0 1000 487" xml:space="preserve">
	<title id="moonTitle">Moon Phases</title>
	<desc id="moonDesc">Illustration showing the different moon phases</desc>
	<path fill="#2a2e33" d="M0 0h1000v487H0z"/>
	<g id="text" fill="#e6e6e6" font-size="22">
		<text x="50" y="220">
			<tspan x="90">New Moon</tspan>
			<tspan x="280">Young Moon</tspan>
			<tspan x="460">Waxing Crescent</tspan>
			<tspan x="630">Waxing Quarter</tspan>
			<tspan x="810">Waxing Gibbous</tspan>
		</text>
		<text x="50" y="460">
			<tspan x="90">Full Moon</tspan>
			<tspan x="250">Waning Gibbous</tspan>
			<tspan x="430">Waning Quarter</tspan>
			<tspan x="600">Waning Crescent</tspan>
			<tspan x="800">Old Moon</tspan>
		</text>
	</g>
	<g id="phases" fill="#fec10d">
		<g id="new_moon">
			<path id="nm_outL" d="M131.4 34.54c16.04-2.34 32.88.13 47.22 7.81a76.68 76.68 0 0 1 36.76 42.3c4.64 12.71 5.38 26.66 3.11 39.95-3.76 20.68-16.6 39.4-34.37 50.57-24.4 15.78-57.82 15.74-82.17-.11-14.7-9.36-26.17-23.81-31.55-40.42a77.72 77.72 0 0 1 3.61-57.61c10.67-22.4 32.79-38.95 57.39-42.49m2.91 1.88c-21.4 2.39-41.36 14.73-53.19 32.7a74.38 74.38 0 0 0-12.09 48.93c1.84 19.12 11.7 37.2 26.43 49.46a74.57 74.57 0 0 0 83.93 7.84 74.68 74.68 0 0 0 33.37-38.7c6.02-15.74 6.28-33.52 1.17-49.55a74.94 74.94 0 0 0-38.95-44.13 75.5 75.5 0 0 0-40.67-6.55z"/>
			<path id="nm_core" fill="#282b2e" d="M134.31 36.42a75.5 75.5 0 0 1 40.67 6.55 74.94 74.94 0 0 1 38.95 44.13c5.11 16.03 4.85 33.81-1.17 49.55a74.68 74.68 0 0 1-33.37 38.7 74.57 74.57 0 0 1-83.93-7.84c-14.73-12.26-24.59-30.34-26.43-49.46a74.38 74.38 0 0 1 12.09-48.93c11.83-17.97 31.79-30.31 53.19-32.7z"/>
		</g>
		<path id="young_moon" d="M319.53 34.15c14.4-1.04 28.98 2.71 41.44 9.92a76.63 76.63 0 0 1 34.39 41.77 76.22 76.22 0 0 1-1.14 52.26 77.14 77.14 0 0 1-25.1 33.15c-14.1 10.71-32.01 16.37-49.72 15.38 16.33-1.87 32.12-8.75 44.07-20.12 15.09-13.9 23.87-34.12 24.41-54.56.04-13.77-3.05-27.69-9.98-39.67-11.91-21.04-34.26-35.77-58.37-38.13z"/>
		<path id="waxing_crescent" d="M496.91 34a77.7 77.7 0 0 1 51.25 14.78c11.28 8.65 20.62 20.09 25.75 33.44a76.2 76.2 0 0 1 .15 55.95 76.7 76.7 0 0 1-37.29 40.65c-12.26 6.16-26.19 8.67-39.85 7.79 19.48-10.32 33.18-29.56 39.14-50.53 5.08-18.22 4.76-38.01-1.34-55.95-6.47-19.26-19.95-36.28-37.81-46.13z"/>
		<path id="waxing_quarter" d="M683.04 33.79c20.11.24 40.18 8.44 54.11 23.06 21.4 20.94 28.01 55.07 16.29 82.59a76.86 76.86 0 0 1-37.36 39.66c-10.24 5.06-21.62 7.5-33 7.74-.03-51.01-.19-102.03-.04-153.05z"/>
		<path id="waxing_gibbous" d="M868.46 34.55c7.03-.49 14.05 1.9 20.69 4.1 17.04 6.29 31.54 18.92 40.39 34.76 7.41 13.53 10.8 29.3 9.14 44.67a76.54 76.54 0 0 1-66.74 68.12c-3.91.88-6.93-2.23-9.95-4.14-14.75-10.04-25.36-25.46-30.86-42.32a93.53 93.53 0 0 1 .66-60.86c6.55-18.38 19.38-34.98 36.67-44.33z"/>
		<path id="full_moon" d="M133.28 274.35a75.85 75.85 0 0 1 48.42 9.91 76.44 76.44 0 0 1 34.25 42.83 76.07 76.07 0 0 1-1.17 49.65 76.78 76.78 0 0 1-32.17 38.84 76.28 76.28 0 0 1-49.68 10.31c-28.03-3.48-53.12-23.96-61.98-50.8a76.54 76.54 0 0 1 5.63-62.49c11.51-20.71 33.18-35.33 56.7-38.25z"/>
		<path id="waning_gibbous" d="M310.57 274.7c2.73-.37 5.78-1.16 8.26.5 13.4 7.87 24.21 19.96 30.94 33.94a93.27 93.27 0 0 1 7.63 59.98c-4.51 23.07-18.7 44.29-39.07 56.25-.97.63-2.02.9-3.16.8-20.44-1.96-39.79-12.77-52.36-28.98a76.22 76.22 0 0 1-15.4-36.05c-2.82-19.49 2.07-40.07 13.82-55.94 11.59-16.14 29.77-27.25 49.34-30.5z"/>
		<path id="waning_quarter" d="M467.39 282.47c10.85-5.76 23.1-8.64 35.36-8.83-.06 51.03.02 102.06-.04 153.08-15.45-.32-30.86-4.92-43.51-13.88-13.54-9.46-24-23.36-28.98-39.14a77.03 77.03 0 0 1 3.39-55.85 76.97 76.97 0 0 1 33.78-35.38z"/>
		<path id="waning_crescent" d="M644.2 284.18a77 77 0 0 1 44.24-10.3c-9.65 5.85-18.68 13.08-25.19 22.38-20.87 28.23-22.86 68.71-5.58 99.13 7.41 12.85 17.97 24.23 31.25 31.08-15.83 1.03-31.99-2.55-45.57-10.85-14.68-8.87-26.34-22.76-32.19-38.91a76.37 76.37 0 0 1-1.87-47.44c5.15-18.83 18.09-35.26 34.91-45.09z"/>
		<path id="old_moon" d="M833.61 279.46c10.86-4.7 22.77-5.93 34.49-5.95-14.83 1.75-29.41 6.96-41.1 16.41-14.23 11.14-24.07 27.52-27.85 45.14-2.43 15.08-1.35 30.96 4.75 45.09 8.14 19.42 24.74 35.07 44.53 42.21 5.82 2.15 11.98 3.08 18.04 4.3-15.54.45-31.26-3.38-44.41-11.78-14.5-9.14-25.95-23.2-31.49-39.47a76.52 76.52 0 0 1 3.95-59.85 76.76 76.76 0 0 1 39.09-36.1z"/>
	</g>
</svg>
