<svg id="01d" xmlns="http://www.w3.org/2000/svg" xmlns:xlink="http://www.w3.org/1999/xlink" viewBox="0 0 500 500">
	<defs>
		<style>
			.s1 {stop-color:#FFF76B}
			.s2 {stop-color:#FFF845}
			.s3 {stop-color:#FFDA4E}
			.s4 {stop-color:#FB8933}
			.s5 {stop-color:#fdc830}
			.s6 {stop-color:#f37335}
		</style>
		<radialGradient id="sunCore" gradientUnits="userSpaceOnUse" r="95" spreadMethod="pad">
			<stop class="s1" stop-color="#FFF76B" offset="0"/>
			<stop class="s2" stop-color="#FFF845" offset="0.1"/>
			<stop class="s3" stop-color="#FFDA4E" offset="0.3"/>
			<stop class="s4" stop-color="#FB8933" offset="1"/>
		</radialGradient>
		<radialGradient id="sunRays" gradientUnits="userSpaceOnUse" r="100%" spreadMethod="pad">
			<stop class="s4" stop-color="#FB8933" offset="0.5"/>
			<stop class="s3" stop-color="#FFDA4E" offset="0.7"/>
			<stop class="s2" stop-color="#FFF845" offset="0.9"/>
			<stop class="s1" stop-color="#FFF76B" offset="1"/>
		</radialGradient>
		<radialGradient id="sunB" gradientUnits="userSpaceOnUse" r="20%" spreadMethod="pad">
			<stop class="s5" stop-color="#fdc830" offset="0"/>
			<stop class="s6" stop-color="#f37335" offset="1"/>
		</radialGradient>
	</defs>
	<path fill="#FFF" d="M250.52 167c-45.87 0-83.19 37.31-83.19 83.18 0 45.87 37.32 83.19 83.2 83.19 45.86 0 83.18-37.32 83.18-83.19S296.4 167 250.52 167z"/>
	<path fill="url(#sunRays)" d="M250.52 145.98c-57.46 0-104.2 46.74-104.2 104.2s46.74 104.2 104.2 104.2 104.2-46.74 104.2-104.2-46.74-104.2-104.2-104.2zm0 187.39c-45.87 0-83.19-37.32-83.19-83.19S204.65 167 250.53 167c45.86 0 83.18 37.32 83.18 83.2 0 45.86-37.31 83.18-83.19 83.18zM250.52 128.2c-5.8 0-10.51-4.71-10.51-10.51V60.15a10.5 10.5 0 1 1 21.02 0v57.54c0 5.8-4.71 10.5-10.51 10.5zM250.52 450.36c-5.8 0-10.5-4.7-10.5-10.51v-57.18a10.5 10.5 0 1 1 21 0v57.18c0 5.8-4.7 10.51-10.5 10.51zM439.5 260.69H383a10.5 10.5 0 1 1 0-21.02h56.5a10.5 10.5 0 1 1 0 21.02zM118.03 260.68H60.5a10.5 10.5 0 1 1 0-21.01h57.52a10.5 10.5 0 1 1 0 21.01zM344.2 167a10.5 10.5 0 0 1-7.43-17.94l30.85-30.85a10.5 10.5 0 0 1 14.86 14.86l-30.85 30.85a10.47 10.47 0 0 1-7.43 3.08zM125.64 385.57a10.5 10.5 0 0 1-7.43-17.94l31.19-31.2a10.51 10.51 0 0 1 14.86 14.86l-31.2 31.2a10.48 10.48 0 0 1-7.42 3.08zM375.46 385.63c-2.7 0-5.38-1.02-7.43-3.07l-31.66-31.66a10.5 10.5 0 0 1 14.86-14.86l31.65 31.66a10.5 10.5 0 0 1-7.42 17.94zM156.83 167c-2.69 0-5.38-1.02-7.43-3.08l-31.2-31.2a10.5 10.5 0 1 1 14.87-14.86l31.2 31.2a10.5 10.5 0 0 1-7.44 17.94z"/>
	<g>
		<path fill="url(#sunCore)" stroke="url(#sunCore)" d="M250.52 333.37c-45.87 0-83.19-37.32-83.19-83.19S204.65 167 250.53 167c45.86 0 83.18 37.32 83.18 83.2 0 45.86-37.31 83.18-83.19 83.18z"/>
	</g>
</svg>
