<svg id="01d" xmlns="http://www.w3.org/2000/svg" viewBox="0 0 500 500">
	<g id="sunrays" fill="#FEC10D">
		<path d="M250.523,145.977c-57.461,0-104.21,46.747-104.21,104.206c0,57.458,46.749,104.204,104.21,104.204 c57.459,0,104.205-46.746,104.205-104.204C354.729,192.723,307.982,145.977,250.523,145.977z M250.523,333.368 c-45.875,0-83.191-37.316-83.191-83.186c0-45.87,37.32-83.188,83.191-83.188c45.869,0,83.188,37.318,83.188,83.188 C333.711,296.052,296.395,333.368,250.523,333.368z"/>
		<path d="M250.516,128.196c-5.804,0-10.509-4.706-10.509-10.509v-57.54c0-5.804,4.705-10.509,10.509-10.509 c5.805,0,10.51,4.706,10.51,10.509v57.54C261.023,123.49,256.32,128.196,250.516,128.196z"/>
		<path d="M250.521,450.362c-5.807,0-10.509-4.705-10.509-10.513v-57.184c0-5.804,4.705-10.509,10.509-10.509 c5.804,0,10.508,4.705,10.508,10.509v57.184C261.029,445.657,256.326,450.362,250.521,450.362z"/>
		<path d="M439.491,260.688h-56.487c-5.805,0-10.51-4.703-10.51-10.506c0-5.804,4.705-10.509,10.51-10.509h56.487 c5.804,0,10.509,4.705,10.509,10.509C450,255.984,445.295,260.688,439.491,260.688z"/>
		<path d="M118.027,260.684H60.509c-5.804,0-10.509-4.703-10.509-10.509c0-5.804,4.705-10.509,10.509-10.509h57.518 c5.804,0,10.509,4.705,10.509,10.509S123.831,260.684,118.027,260.684z"/>
		<path d="M344.197,167.001c-2.69,0-5.379-1.026-7.432-3.078c-4.104-4.104-4.104-10.758,0-14.862l30.853-30.854 c4.104-4.104,10.758-4.104,14.862,0c4.104,4.104,4.104,10.758,0,14.862l-30.854,30.854 C349.576,165.975,346.887,167.001,344.197,167.001z"/>
		<path d="M125.636,385.569c-2.689,0-5.378-1.025-7.431-3.077c-4.104-4.104-4.105-10.758-0.001-14.862l31.192-31.197 c4.104-4.104,10.757-4.104,14.863-0.001c4.104,4.104,4.104,10.761,0.001,14.861l-31.193,31.198 C131.015,384.543,128.325,385.569,125.636,385.569z"/>
		<path d="M375.456,385.635c-2.688,0-5.378-1.023-7.431-3.078l-31.66-31.658c-4.104-4.104-4.104-10.762,0-14.862 c4.104-4.104,10.757-4.104,14.861,0l31.658,31.66c4.104,4.104,4.104,10.759,0,14.86 C380.836,384.608,378.146,385.635,375.456,385.635z"/>
		<path d="M156.831,167.001c-2.689,0-5.379-1.026-7.431-3.078l-31.196-31.198 c-4.104-4.104-4.104-10.758,0.001-14.862c4.104-4.104,10.758-4.105,14.862,0l31.196,31.197c4.104,4.104,4.104,10.758,0,14.862 C162.21,165.975,159.521,167.001,156.831,167.001z"/>
	</g>
	<path d="M250.523,333.368c-45.875,0-83.191-37.316-83.191-83.186c0-45.87,37.32-83.188,83.191-83.188 c45.869,0,83.188,37.318,83.188,83.188C333.711,296.052,296.395,333.368,250.523,333.368z" id="suncore" fill="#FCE6B1"/>
</svg>
