<svg id="02d" xmlns="http://www.w3.org/2000/svg" viewBox="0 0 500 500">
	<defs>
		<style>
			.s1 {stop-color:#FFF76B}
			.s2 {stop-color:#FFF845}
			.s3 {stop-color:#FFDA4E}
			.s4 {stop-color:#FB8933}
			.s5 {stop-color:#fff}
			.s6 {stop-color:#f37335}
			.s7,.cloudOutline {fill:#808083}
			.s8 {stop-color:#000}
		</style>
		<radialGradient id="sunCore" gradientUnits="userSpaceOnUse" r="95" spreadMethod="pad">
			<stop class="s1" stop-color="#FFF76B" offset="0"/>
			<stop class="s2" stop-color="#FFF845" offset="10%"/>
			<stop class="s3" stop-color="#FFDA4E" offset="30%"/>
			<stop class="s4" stop-color="#FB8933" offset="100%"/>
		</radialGradient>
		<radialGradient id="sunRays" gradientUnits="userSpaceOnUse" r="100%" spreadMethod="pad">
			<stop class="s4" stop-color="#FB8933" offset="5%"/>
			<stop class="s3" stop-color="#FFDA4E" offset="72%"/>
			<stop class="s2" stop-color="#FFF845" offset="94%"/>
			<stop class="s1" stop-color="#FFF76B" offset="100%"/>
		</radialGradient>
		<linearGradient id="lightCloud" gradientUnits="userSpaceOnUse" x1="0%" y1="0%" x2="0%" y2="100%" spreadMethod="pad">
			<stop class="s5" stop-color="#fff" offset="63%"/>
			<stop class="s7" stop-color="#808083" offset="83%"/>
			<stop class="s8" stop-color="#000" offset="100%"/>
		</linearGradient>
		<linearGradient id="darkCloud" gradientUnits="userSpaceOnUse" x1="0%" y1="0%" x2="0%" y2="100%" spreadMethod="pad">
			<stop class="s7" stop-color="#808083" offset="63%"/>
			<stop class="s8" stop-color="#000" offset="100%"/>
		</linearGradient>
	</defs>
	<path fill="#FFF" d="M258.58 167c-45.88 0-83.2 37.31-83.2 83.18 0 45.87 37.32 83.19 83.2 83.19 45.87 0 83.18-37.32 83.18-83.19S304.45 167 258.58 167z"/>
	<g id="rays" fill="url(#sunRays)">
		<path d="M258.58 145.98c-57.47 0-104.21 46.74-104.21 104.2s46.74 104.2 104.2 104.2 104.21-46.74 104.21-104.2-46.75-104.2-104.2-104.2zm0 187.39c-45.88 0-83.2-37.32-83.2-83.19S212.7 167 258.58 167c45.87 0 83.18 37.32 83.18 83.2 0 45.86-37.31 83.18-83.18 83.18zM258.57 128.2c-5.8 0-10.51-4.71-10.51-10.51V60.15a10.5 10.5 0 1 1 21.02 0v57.54c0 5.8-4.7 10.5-10.51 10.5zM258.57 450.36c-5.8 0-10.5-4.7-10.5-10.51v-57.19a10.5 10.5 0 1 1 21.01 0v57.19c0 5.8-4.7 10.51-10.5 10.51zM447.54 260.69h-56.48a10.5 10.5 0 1 1 0-21.02h56.48a10.5 10.5 0 1 1 0 21.02zM126.08 260.68H68.56a10.5 10.5 0 1 1 0-21.01h57.52a10.5 10.5 0 1 1 0 21.01zM352.25 167a10.5 10.5 0 0 1-7.43-17.94l30.85-30.85a10.51 10.51 0 0 1 14.86 14.86l-30.85 30.85a10.47 10.47 0 0 1-7.43 3.08zM133.69 385.57a10.51 10.51 0 0 1-7.43-17.94l31.19-31.2a10.51 10.51 0 0 1 14.86 14.86l-31.2 31.2a10.48 10.48 0 0 1-7.42 3.08zM383.5 385.63c-2.68 0-5.37-1.02-7.42-3.07l-31.66-31.66a10.5 10.5 0 0 1 14.86-14.86l31.66 31.66a10.5 10.5 0 0 1-7.43 17.94z"/>
		<path d="M164.88 167c-2.69 0-5.38-1.02-7.43-3.08l-31.2-31.2a10.5 10.5 0 0 1 14.87-14.86l31.2 31.2a10.5 10.5 0 0 1-7.44 17.94z"/>
	</g>
	<path fill="url(#sunCore)" stroke="url(#sunCore)" d="M258.57 333.19c-45.88 0-83.2-37.32-83.2-83.19s37.33-83.19 83.2-83.19c45.87 0 83.19 37.32 83.19 83.19s-37.32 83.19-83.2 83.19z"/>
	<g fill="url(#lightCloud)" stroke="url(#lightCloud)">
		<path fill="none" style="display:none" d="M260.5 309.6a46.23 46.23 0 0 0-46.14-44.39c-2.61 0-5.23.23-7.82.7a75.24 75.24 0 0 0-58.97-28.35c-40.87 0-74.27 32.59-75.58 73.15a50.52 50.52 0 0 0-30.04 46.21 50.69 50.69 0 0 0 50.62 50.64h150a50.7 50.7 0 0 0 50.64-50.64 50.45 50.45 0 0 0-32.7-47.33zm-17.94 76.7h-150a29.4 29.4 0 0 1-29.35-29.38 29.3 29.3 0 0 1 22.2-28.44c5.02-1.26 8.4-5.95 8.02-11.1-.11-1.5-.22-2.92-.22-4.22a54.42 54.42 0 0 1 54.36-54.35c18.53 0 35.6 9.34 45.68 24.98a10.63 10.63 0 0 0 12.57 4.23 24.95 24.95 0 0 1 8.55-1.55 24.94 24.94 0 0 1 24.91 24.91c0 1.32-.13 2.75-.4 4.37a10.63 10.63 0 0 0 8.68 12.26 29.25 29.25 0 0 1 24.39 28.9 29.42 29.42 0 0 1-29.39 29.39z"/>
		<path d="M247.56 328.02a10.63 10.63 0 0 1-8.69-12.26c.28-1.62.41-3.05.41-4.37a24.94 24.94 0 0 0-24.91-24.92c-2.85 0-5.72.53-8.55 1.55a10.63 10.63 0 0 1-12.57-4.23 54.13 54.13 0 0 0-45.68-24.98 54.42 54.42 0 0 0-54.36 54.36c0 1.3.1 2.71.22 4.21.38 5.15-3 9.85-8.01 11.1a29.3 29.3 0 0 0-22.21 28.44 29.4 29.4 0 0 0 29.36 29.38h150a29.42 29.42 0 0 0 29.38-29.38 29.26 29.26 0 0 0-24.39-28.9z"/>
	</g>
</svg>
