<svg id="02d" xmlns="http://www.w3.org/2000/svg" viewBox="0 0 500 500">
	<path fill="#FEC10D" d="M258.576,145.977c-57.462,0-104.211,46.747-104.211,104.206c0,57.458,46.749,104.204,104.211,104.204 c57.458,0,104.205-46.746,104.205-104.204C362.781,192.723,316.034,145.977,258.576,145.977z M258.576,333.368 c-45.872,0-83.192-37.316-83.192-83.186c0-45.87,37.32-83.188,83.192-83.188c45.869,0,83.188,37.318,83.188,83.188 C341.764,296.052,304.445,333.368,258.576,333.368z"/>
	<path fill="#FEC10D" d="M258.566,128.196c-5.805,0-10.508-4.706-10.508-10.509v-57.54c0-5.804,4.704-10.509,10.508-10.509 c5.806,0,10.51,4.706,10.51,10.509v57.54C269.076,123.49,264.372,128.196,258.566,128.196z"/>
	<path fill="#FEC10D" d="M258.573,450.362c-5.806,0-10.509-4.705-10.509-10.514v-57.184c0-5.804,4.704-10.509,10.509-10.509 c5.805,0,10.509,4.705,10.509,10.509v57.184C269.082,445.657,264.378,450.362,258.573,450.362z"/>
	<path fill="#FEC10D" d="M447.543,260.688h-56.486c-5.806,0-10.511-4.703-10.511-10.505c0-5.804,4.705-10.509,10.511-10.509 h56.486c5.804,0,10.509,4.705,10.509,10.509C458.052,255.984,453.347,260.688,447.543,260.688z"/>
	<path fill="#FEC10D" d="M126.079,260.684H68.562c-5.805,0-10.51-4.703-10.51-10.509c0-5.804,4.705-10.509,10.51-10.509h57.518 c5.804,0,10.509,4.705,10.509,10.509C136.588,255.979,131.883,260.684,126.079,260.684z"/>
	<path fill="#FEC10D" d="M352.249,167.001c-2.69,0-5.379-1.026-7.433-3.078c-4.104-4.104-4.104-10.758,0-14.862l30.854-30.854 c4.104-4.104,10.758-4.104,14.863,0c4.104,4.104,4.104,10.758,0,14.862l-30.854,30.854 C357.628,165.975,354.938,167.001,352.249,167.001z"/>
	<path fill="#FEC10D" d="M133.688,385.569c-2.689,0-5.378-1.025-7.431-3.077c-4.104-4.104-4.104-10.758-0.001-14.862 l31.192-31.197c4.104-4.104,10.758-4.104,14.863-0.001c4.104,4.104,4.104,10.762,0.001,14.861l-31.193,31.198 C139.067,384.543,136.377,385.569,133.688,385.569z"/>
	<path fill="#FEC10D" d="M383.508,385.635c-2.689,0-5.378-1.022-7.431-3.078l-31.66-31.657c-4.104-4.104-4.104-10.763,0-14.862 c4.104-4.104,10.757-4.104,14.862,0l31.66,31.66c4.104,4.104,4.104,10.759,0,14.859 C388.889,384.608,386.197,385.635,383.508,385.635z"/>
	<path fill="#FEC10D" d="M164.883,167.001c-2.689,0-5.379-1.026-7.431-3.078l-31.195-31.198c-4.104-4.104-4.104-10.758,0-14.862 s10.758-4.105,14.862,0l31.195,31.197c4.104,4.104,4.104,10.758,0,14.862C170.263,165.975,167.572,167.001,164.883,167.001z"/>
	<path fill="#FCE6B1" d="M258.568,333.188c-45.875,0-83.19-37.314-83.19-83.188c0-45.87,37.32-83.188,83.19-83.188 c45.869,0,83.188,37.318,83.188,83.188S304.439,333.188,258.568,333.188z"/>
	<path id="cloud-outline" fill="#808083" d="M260.508,309.594c-0.947-24.632-21.282-44.38-46.143-44.38c-2.616,0-5.23,0.229-7.825,0.687 c-14.287-17.878-35.806-28.345-58.968-28.345c-40.872,0-74.274,32.591-75.58,73.151c-18.046,8.002-30.044,25.948-30.044,46.213 c0,27.924,22.707,50.642,50.619,50.642h149.995c27.924,0,50.644-22.718,50.644-50.642 C293.206,335.493,279.918,316.888,260.508,309.594z M242.563,386.298H92.567c-16.189,0-29.359-13.181-29.359-29.382 c0-13.453,9.133-25.145,22.21-28.432c5.008-1.264,8.386-5.958,8.008-11.108c-0.109-1.5-0.213-2.917-0.213-4.212 c0-29.971,24.386-54.352,54.359-54.352c18.532,0,35.607,9.336,45.676,24.976c2.688,4.175,7.906,5.933,12.573,4.235 c2.825-1.028,5.7-1.551,8.544-1.551c13.739,0,24.917,11.178,24.917,24.912c0,1.319-0.134,2.748-0.409,4.367 c-0.985,5.784,2.903,11.272,8.687,12.262c14.131,2.417,24.387,14.57,24.387,28.898 C271.945,373.117,258.766,386.298,242.563,386.298z"/>
	<path id="cloud-core" fill="#E5E5E5" d="M247.562,328.018c-5.783-0.985-9.672-6.478-8.688-12.262c0.275-1.619,0.408-3.048,0.408-4.367 c0-13.738-11.178-24.914-24.916-24.914c-2.844,0-5.719,0.521-8.545,1.549c-4.666,1.697-9.885-0.061-12.572-4.231 c-10.068-15.642-27.145-24.979-45.677-24.979c-29.974,0-54.358,24.383-54.358,54.354c0,1.295,0.104,2.712,0.213,4.212 c0.378,5.15-3,9.851-8.008,11.108c-13.078,3.286-22.211,14.979-22.211,28.432c0,16.201,13.17,29.382,29.359,29.382h149.996 c16.201,0,29.382-13.181,29.382-29.382C271.945,342.588,261.689,330.435,247.562,328.018z"/>
</svg>
