<svg id="11d" xmlns="http://www.w3.org/2000/svg" viewBox="0 0 500 500">
	<defs>
		<style>
			svg, symbol {
				--wh: #dff0fe;
			 	--bl: #000;
			 	--rd: #ff0000;
			 	--lB: #98ccfd;
			 	--dB: #4788c7;
				--lG: #a5a5a5;
			 	--dG: #808083;
			 	--lY: #fce6b1;
			 	--dY: #ffc843;
			 	--bY: #3f3a02;
			 	--s1: #fff76b;
			 	--s2: #fff845;
			 	--s3: #ffda4e;
			 	--s4: #fb8933;
			 	--s5: #fdc830;
			 	--s6: #f37335;
			}
		</style>
		<radialGradient id="sunCore" gradientUnits="userSpaceOnUse" r="95" spreadMethod="pad">
			<stop stop-color="var(--s1)" offset="0"/>
			<stop stop-color="var(--s2)" offset="10%"/>
			<stop stop-color="var(--s3)" offset="30%"/>
			<stop stop-color="var(--s4)" offset="100%"/>
		</radialGradient>
		<radialGradient id="sunRays" gradientUnits="userSpaceOnUse" r="100%" spreadMethod="pad">
			<stop stop-color="var(--s4)" offset="5%"/>
			<stop stop-color="var(--s3)" offset="72%"/>
			<stop stop-color="var(--s2)" offset="94%"/>
			<stop stop-color="var(--s1)" offset="100%"/>
		</radialGradient>
		<linearGradient id="lightCloud" gradientUnits="userSpaceOnUse" x1="0%" y1="0%" x2="0%" y2="100%" spreadMethod="pad">
			<stop stop-color="var(--wh)" offset="63%"/>
			<stop stop-color="var(--dG)" offset="83%"/>
			<stop stop-color="var(--bl)" offset="100%"/>
		</linearGradient>
		<linearGradient id="darkCloud" gradientUnits="userSpaceOnUse" x1="0%" y1="0%" x2="0%" y2="100%" spreadMethod="pad">
			<stop stop-color="var(--lG)" offset="33%"/>
			<stop stop-color="var(--dG)" offset="56%"/>
			<stop stop-color="var(--bl)" offset="100%"/>
		</linearGradient>
	</defs>
	<path fill="url(#sunCore)" d="M298.31 300.46c-46.87 0-85-38.13-85-85s38.14-85 85-85c46.87 0 85 38.13 85 85s-38.13 85-85 85z"/>
	<path fill="url(#sunRays)" d="M298.32 110.06c-58.13 0-105.41 47.29-105.41 105.4 0 58.12 47.28 105.4 105.4 105.4 58.12 0 105.4-47.28 105.4-105.4 0-58.11-47.27-105.4-105.4-105.4zm0 189.55c-46.4 0-84.15-37.75-84.15-84.15 0-46.4 37.75-84.14 84.15-84.14 46.4 0 84.14 37.74 84.14 84.14s-37.75 84.15-84.14 84.15zm-.02-207.53a10.63 10.63 0 0 1-10.62-10.63v-58.2a10.63 10.63 0 1 1 21.26 0v58.2c0 5.87-4.76 10.63-10.63 10.63zM489.45 226.1h-57.13a10.63 10.63 0 1 1 0-21.27h57.13a10.63 10.63 0 0 1 0 21.26zm-96.39-94.77a10.64 10.64 0 0 1-7.52-18.14l31.21-31.21A10.63 10.63 0 0 1 431.78 97l-31.2 31.2a10.58 10.58 0 0 1-7.52 3.12zm31.62 221.15c-2.72 0-5.43-1.04-7.51-3.11l-32.02-32.03a10.64 10.64 0 0 1 15.03-15.03l32.02 32.02a10.64 10.64 0 0 1-7.52 18.15zM203.55 131.33a10.6 10.6 0 0 1-7.52-3.11l-31.55-31.56a10.63 10.63 0 0 1 15.03-15.03l31.55 31.56a10.63 10.63 0 0 1-7.51 18.14z"/>
	<g id="cloud">
		<g fill="url(#darkCloud)" stroke="url(#darkCloud)">
			<path d="M303.33 359.28H72.17c-28.11 0-51-22.9-51-51.03a50.9 50.9 0 0 1 38.58-49.4 10.67 10.67 0 0 0 8.01-11.13c-.18-2.42-.34-4.7-.34-6.9 0-49.35 40.16-89.51 89.52-89.51a89.16 89.16 0 0 1 75.23 41.13 10.63 10.63 0 0 0 12.57 4.23 44.2 44.2 0 0 1 15.13-2.73 44.2 44.2 0 0 1 44.15 44.14c0 2.36-.23 4.88-.71 7.7a10.63 10.63 0 0 0 8.69 12.26 50.82 50.82 0 0 1 42.36 50.2 51.09 51.09 0 0 1-51.03 51.04z"/>
			<path d="M325.27 239.44l.02-1.35a65.49 65.49 0 0 0-65.41-65.4c-4.83 0-9.66.55-14.42 1.64a110.24 110.24 0 0 0-88.52-44.28c-61.08 0-110.78 49.7-110.78 110.78v.07A72.1 72.1 0 0 0-.08 308.25c0 39.86 32.41 72.3 72.25 72.3h231.16c39.86 0 72.3-32.44 72.3-72.3a72.01 72.01 0 0 0-50.36-68.81zm-21.94 119.84H72.17c-28.12 0-51-22.9-51-51.03a50.9 50.9 0 0 1 38.58-49.4 10.67 10.67 0 0 0 8.01-11.13 95.7 95.7 0 0 1-.34-6.9c0-49.35 40.16-89.5 89.52-89.5a89.16 89.16 0 0 1 75.23 41.12 10.63 10.63 0 0 0 12.57 4.23 44.18 44.18 0 0 1 15.13-2.73 44.2 44.2 0 0 1 44.15 44.15c0 2.35-.23 4.87-.71 7.7a10.63 10.63 0 0 0 8.69 12.26 50.82 50.82 0 0 1 42.36 50.2 51.09 51.09 0 0 1-51.03 51.03z"/>
		</g>
		<path fill="var(--dB)" d="M65.77 471.06a13 13 0 0 1-10.02-21.3l37.13-44.88a13 13 0 1 1 20.05 16.59L75.8 466.35a13 13 0 0 1-10.03 4.7zm206.85 0a13 13 0 0 1-10.01-21.3l37.13-44.88a13 13 0 1 1 20.04 16.59l-37.13 44.88a13 13 0 0 1-10.03 4.7z"/>
		<path fill="var(--dY)" d="M230.77 388.93h-31.12c-14.69 16.38-38.12 44.06-38.3 44.06h24.02l-44.6 66.07 82.76-76.16h-21.45l28.69-33.97z"/>
	</g>
</svg>
