<svg id="11n" xmlns="http://www.w3.org/2000/svg" viewBox="0 0 500 500">
	<path fill="#FFEEB6" d="M289.523,68.663c0-8.072,0.623-16.105,1.854-24.033c-48.018,21.08-80.217,69.214-80.217,122.756 c0,73.878,60.104,133.98,133.979,133.98c52.975,0,100.896-31.75,122.248-79.104c-7.469,1.093-15.028,1.643-22.628,1.643 C359.166,223.904,289.523,154.263,289.523,68.663z"/>
	<path fill="#EAC618" d="M481.121,197.65c-11.778,3.313-24.01,4.994-36.355,4.994c-73.877,0-133.979-60.104-133.979-133.983 c0-12.746,1.795-25.372,5.334-37.527l5.354-18.391l-18.438,5.186C271.1,26.91,242.32,46.417,221.998,72.856 c-20.994,27.311-32.09,59.998-32.09,94.527c0,85.602,69.64,155.242,155.238,155.242c34.275,0,66.772-10.952,93.978-31.673 c26.317-20.048,45.879-48.492,55.082-80.098l5.355-18.392L481.121,197.65z M345.146,301.366 c-73.877,0-133.979-60.104-133.979-133.982c0-53.542,32.197-101.676,80.214-122.755c-1.234,7.927-1.857,15.959-1.857,24.032 c0,85.602,69.645,155.243,155.241,155.243c7.601,0,15.159-0.551,22.628-1.643C446.043,269.617,398.118,301.366,345.146,301.366z"/>
	<path fill="#FCC013" d="M231.293,388.34h-31.122c-14.685,16.375-38.114,44.057-38.303,44.057h24.026l-44.602,66.064l82.754-76.156 h-21.441L231.293,388.34z"/>
	<path fill="#58A1D4" d="M66.297,470.465c-2.922,0-5.859-0.979-8.285-2.984c-5.537-4.58-6.313-12.779-1.732-18.316l37.125-44.875 c4.58-5.537,12.781-6.314,18.316-1.732c5.535,4.58,6.314,12.777,1.732,18.316L76.329,465.75 C73.756,468.857,70.04,470.465,66.297,470.465z"/>
	<path fill="#58A1D4" d="M273.145,470.465c-2.92,0-5.855-0.98-8.285-2.986c-5.533-4.578-6.311-12.779-1.729-18.314l37.131-44.877 c4.58-5.535,12.781-6.313,18.318-1.729c5.533,4.58,6.309,12.779,1.729,18.316l-37.131,44.875 C280.604,468.857,276.889,470.465,273.145,470.465z"/>
	<path fill="#CCC" d="M303.852,358.563H72.696c-28.119,0-50.996-22.894-50.996-51.028c0-23.374,15.863-43.688,38.576-49.396 c5.008-1.26,8.384-5.983,8.007-11.138c-0.177-2.415-0.344-4.696-0.344-6.896c0-49.358,40.16-89.514,89.522-89.514 c30.522,0,58.645,15.375,75.227,41.129c2.688,4.173,7.902,5.934,12.573,4.234c4.984-1.814,10.076-2.734,15.136-2.734 c24.348,0,44.15,19.805,44.15,44.147c0,2.356-0.232,4.874-0.714,7.695c-0.985,5.786,2.901,11.272,8.687,12.263 c24.549,4.198,42.365,25.313,42.365,50.203C354.886,335.671,331.992,358.563,303.852,358.563z"/>
	<path fill="#808083" d="M325.788,238.716c0.011-0.45,0.017-0.898,0.017-1.345c0-36.065-29.345-65.407-65.412-65.407 c-4.826,0-9.647,0.553-14.417,1.65c-20.889-27.869-53.414-44.28-88.512-44.28c-61.086,0-110.783,49.692-110.783,110.773 c0,0.025,0,0.051,0,0.077c-27.618,10.621-46.24,37.181-46.24,67.345c0,39.857,32.413,72.29,72.256,72.29H303.85 c39.862,0,72.295-32.433,72.295-72.29C376.143,275.615,355.48,248.085,325.788,238.716z M303.848,358.56H72.694 c-28.119,0-50.996-22.893-50.996-51.026c0-23.373,15.862-43.688,38.576-49.395c5.009-1.26,8.385-5.979,8.007-11.131 c-0.176-2.417-0.344-4.699-0.344-6.9c0-49.358,40.16-89.514,89.523-89.514c30.521,0,58.644,15.375,75.226,41.129 c2.688,4.175,7.907,5.933,12.571,4.235c4.988-1.814,10.08-2.734,15.136-2.734c24.344,0,44.15,19.805,44.15,44.147 c0,2.356-0.232,4.874-0.714,7.695c-0.985,5.784,2.901,11.272,8.687,12.262c24.549,4.197,42.365,25.311,42.365,50.201 C354.882,335.667,331.988,358.56,303.848,358.56z"/>
</svg>
