<svg id="13d" xmlns="http://www.w3.org/2000/svg" viewBox="0 0 500 500">
	<path fill="#FCE6B1" d="M298.314,287.341c-46.597,0-84.501-37.904-84.501-84.497c0-46.592,37.908-84.498,84.501-84.498 c46.592,0,84.498,37.906,84.498,84.498C382.813,249.437,344.908,287.341,298.314,287.341z"/>
	<path fill="#FEC10D" d="M298.316,97.444c-58.125,0-105.407,47.283-105.407,105.402c0,58.119,47.286,105.402,105.407,105.402 c58.117,0,105.397-47.283,105.397-105.402C403.717,144.727,356.436,97.444,298.316,97.444z M298.316,286.989 c-46.399,0-84.147-37.746-84.147-84.146c0-46.397,37.748-84.143,84.147-84.143c46.396,0,84.142,37.746,84.142,84.143 C382.458,249.243,344.712,286.989,298.316,286.989z"/>
	<path fill="#FEC10D" d="M298.309,79.459c-5.871,0-10.629-4.759-10.629-10.63V10.63c0-5.87,4.758-10.63,10.629-10.63 s10.631,4.76,10.631,10.63v58.199C308.938,74.7,304.18,79.459,298.309,79.459z"/>
	<path fill="#FEC10D" d="M489.453,213.474h-57.137c-5.871,0-10.63-4.759-10.63-10.63c0-5.87,4.759-10.63,10.63-10.63h57.137 c5.871,0,10.63,4.76,10.63,10.63C500.083,208.715,495.324,213.474,489.453,213.474z"/>
	<path fill="#FEC10D" d="M393.064,118.711c-2.725,0-5.44-1.037-7.521-3.113c-4.147-4.15-4.147-10.881,0-15.032l31.207-31.209 c4.147-4.151,10.881-4.152,15.033-0.001c4.148,4.151,4.148,10.882,0,15.033l-31.207,31.209 C398.506,117.673,395.785,118.711,393.064,118.711z"/>
	<path fill="#FEC10D" d="M424.684,339.856c-2.721,0-5.438-1.035-7.517-3.109l-32.022-32.025c-4.148-4.148-4.148-10.883,0-15.033 c4.151-4.148,10.881-4.146,15.032,0l32.023,32.022c4.147,4.15,4.147,10.881,0,15.033 C430.124,338.817,427.403,339.856,424.684,339.856z"/>
	<path fill="#FEC10D" d="M203.548,118.711c-2.721,0-5.441-1.037-7.517-3.113l-31.554-31.556c-4.151-4.151-4.151-10.882,0-15.033 c4.151-4.15,10.882-4.151,15.033,0.001l31.554,31.556c4.151,4.151,4.151,10.882,0,15.032 C208.989,117.673,206.268,118.711,203.548,118.711z"/>
	<g id="snow" fill="#8FCDF0">
		<path d="M226.745,457.438l-13.518-7.836l13.518-7.83c6.092-3.529,8.182-11.355,4.654-17.447 c-2.275-3.928-6.514-6.363-11.061-6.363c-2.235,0-4.441,0.594-6.385,1.721l-13.416,7.77v-15.508 c0-7.039-5.726-12.764-12.765-12.764c-7.041,0-12.768,5.725-12.768,12.764v15.486l-13.397-7.77c-1.944-1.129-4.155-1.73-6.396-1.73 c-4.541,0-8.776,2.439-11.053,6.365c-3.535,6.092-1.453,13.918,4.637,17.445l13.516,7.838l-13.52,7.83 c-6.092,3.527-8.179,11.35-4.65,17.445c2.273,3.932,6.513,6.373,11.061,6.373c2.233,0,4.441-0.6,6.385-1.727l13.418-7.771v15.504 c0,7.041,5.728,12.768,12.767,12.768s12.766-5.727,12.766-12.768v-15.479l13.397,7.771c1.944,1.127,4.155,1.725,6.394,1.725 c4.547,0,8.78-2.439,11.058-6.363c1.713-2.955,2.171-6.391,1.299-9.689C231.805,461.906,229.695,459.148,226.745,457.438z"/>
		<path d="M97.096,445.726l-13.514-7.838l13.518-7.83c6.091-3.529,8.179-11.354,4.65-17.447 c-2.275-3.928-6.514-6.363-11.062-6.363c-2.233,0-4.442,0.594-6.386,1.721l-13.416,7.77v-15.51c0-7.039-5.727-12.77-12.766-12.77 c-7.041,0-12.769,5.729-12.769,12.77v15.486l-13.397-7.77c-1.945-1.131-4.156-1.73-6.396-1.73c-4.542,0-8.777,2.438-11.056,6.365 c-3.531,6.092-1.449,13.918,4.639,17.445l13.515,7.836l-13.519,7.83c-6.092,3.531-8.178,11.354-4.65,17.449 c2.274,3.93,6.514,6.371,11.061,6.371c2.234,0,4.443-0.604,6.387-1.725l13.416-7.771v15.504c0,7.041,5.727,12.768,12.768,12.768 s12.767-5.727,12.767-12.768v-15.486l13.396,7.77c1.945,1.133,4.157,1.729,6.394,1.729c4.546,0,8.779-2.438,11.056-6.363 c1.711-2.949,2.172-6.387,1.296-9.686C102.153,450.19,100.045,447.435,97.096,445.726z"/>
		<path d="M356.398,445.726l-13.515-7.838l13.518-7.83c6.092-3.529,8.183-11.354,4.651-17.447 c-2.271-3.928-6.513-6.363-11.058-6.363c-2.231,0-4.437,0.594-6.387,1.721l-13.409,7.77v-15.51c0-7.039-5.727-12.77-12.767-12.77 c-7.041,0-12.768,5.729-12.768,12.77v15.486l-13.397-7.77c-1.944-1.131-4.156-1.73-6.396-1.73c-4.546,0-8.777,2.438-11.056,6.365 c-3.532,6.092-1.45,13.918,4.64,17.445l13.518,7.836l-13.518,7.83c-6.09,3.531-8.178,11.354-4.65,17.449 c2.271,3.93,6.513,6.371,11.057,6.371c2.235,0,4.441-0.604,6.387-1.725l13.416-7.771v15.504c0,7.041,5.726,12.768,12.766,12.768 c7.042,0,12.767-5.727,12.767-12.768v-15.486l13.397,7.77c1.945,1.133,4.154,1.729,6.395,1.729c4.547,0,8.779-2.438,11.057-6.363 c1.712-2.949,2.172-6.387,1.298-9.686C361.454,450.192,359.349,447.435,356.398,445.726z"/>
	</g>
	<path fill="#808083" d="M325.27,226.816c0.01-0.45,0.019-0.899,0.019-1.346c0-36.065-29.347-65.407-65.411-65.407 c-4.828,0-9.655,0.554-14.422,1.65c-20.889-27.869-53.415-44.28-88.512-44.28c-61.085,0-110.782,49.693-110.782,110.773 c0,0.025,0,0.052,0,0.077c-27.615,10.625-46.24,37.187-46.24,67.349c0,39.861,32.414,72.291,72.256,72.291H303.33 c39.863,0,72.294-32.43,72.294-72.291C375.622,263.718,354.961,236.187,325.27,226.816z M303.328,346.663H72.173 c-28.119,0-50.996-22.896-50.996-51.031c0-23.373,15.863-43.686,38.576-49.393c5.009-1.258,8.385-5.984,8.007-11.138 c-0.177-2.415-0.344-4.695-0.344-6.896c0-49.357,40.16-89.514,89.522-89.514c30.522,0,58.645,15.376,75.227,41.13 c2.688,4.174,7.906,5.935,12.573,4.234c4.984-1.814,10.077-2.734,15.135-2.734c24.345,0,44.15,19.805,44.15,44.147 c0,2.356-0.232,4.874-0.713,7.695c-0.986,5.787,2.898,11.275,8.687,12.266c24.548,4.197,42.364,25.311,42.364,50.201 C354.361,323.771,331.469,346.663,303.328,346.663z"/>
	<path fill="#F2F2F2" d="M303.33,346.663H72.175c-28.119,0-50.996-22.896-50.996-51.03c0-23.374,15.863-43.687,38.576-49.394 c5.008-1.26,8.384-5.985,8.007-11.137c-0.177-2.415-0.344-4.696-0.344-6.896c0-49.358,40.16-89.514,89.522-89.514 c30.522,0,58.645,15.375,75.227,41.129c2.688,4.173,7.902,5.934,12.573,4.234c4.984-1.814,10.076-2.734,15.135-2.734 c24.346,0,44.15,19.805,44.15,44.147c0,2.356-0.232,4.874-0.713,7.695c-0.986,5.785,2.897,11.273,8.686,12.263 c24.549,4.199,42.365,25.313,42.365,50.203C354.365,323.771,331.471,346.663,303.33,346.663z"/>
</svg>
