<svg id="13n" xmlns="http://www.w3.org/2000/svg" viewBox="0 0 500 500">
	<path fill="#8FCDF0" d="M97.096,445.726l-13.514-7.838l13.518-7.83c6.091-3.529,8.179-11.354,4.65-17.447 c-2.275-3.928-6.514-6.363-11.062-6.363c-2.233,0-4.442,0.594-6.386,1.721l-13.416,7.77v-15.51c0-7.039-5.727-12.77-12.766-12.77 c-7.041,0-12.769,5.729-12.769,12.77v15.486l-13.397-7.77c-1.945-1.131-4.156-1.73-6.396-1.73c-4.542,0-8.777,2.438-11.056,6.365 c-3.531,6.092-1.449,13.918,4.639,17.445l13.515,7.836l-13.519,7.83c-6.092,3.531-8.178,11.354-4.65,17.449 c2.274,3.93,6.514,6.371,11.061,6.371c2.234,0,4.443-0.604,6.387-1.725l13.416-7.771v15.504c0,7.041,5.727,12.768,12.768,12.768 s12.767-5.727,12.767-12.768v-15.486l13.396,7.77c1.945,1.133,4.157,1.729,6.394,1.729c4.546,0,8.779-2.438,11.056-6.363 c1.711-2.949,2.172-6.387,1.296-9.686C102.153,450.19,100.045,447.435,97.096,445.726z"/>
	<path fill="#8FCDF0" d="M226.745,457.438l-13.518-7.836l13.518-7.83c6.092-3.529,8.182-11.355,4.654-17.447 c-2.275-3.928-6.514-6.363-11.061-6.363c-2.235,0-4.441,0.594-6.385,1.721l-13.416,7.77v-15.508 c0-7.039-5.726-12.764-12.765-12.764c-7.041,0-12.768,5.725-12.768,12.764v15.486l-13.397-7.77c-1.944-1.129-4.155-1.73-6.396-1.73 c-4.541,0-8.776,2.439-11.053,6.365c-3.535,6.092-1.453,13.918,4.637,17.445l13.516,7.838l-13.52,7.83 c-6.092,3.527-8.179,11.35-4.65,17.445c2.273,3.932,6.513,6.373,11.061,6.373c2.233,0,4.441-0.6,6.385-1.727l13.418-7.771v15.504 c0,7.041,5.728,12.768,12.767,12.768s12.766-5.727,12.766-12.768v-15.479l13.397,7.771c1.944,1.127,4.155,1.725,6.394,1.725 c4.547,0,8.78-2.439,11.058-6.363c1.713-2.955,2.171-6.391,1.299-9.689C231.805,461.906,229.695,459.148,226.745,457.438z"/>
	<path fill="#8FCDF0" d="M356.398,445.726l-13.515-7.838l13.518-7.83c6.092-3.529,8.183-11.354,4.651-17.447 c-2.271-3.928-6.513-6.363-11.058-6.363c-2.231,0-4.437,0.594-6.387,1.721l-13.409,7.77v-15.51c0-7.039-5.727-12.77-12.767-12.77 c-7.041,0-12.768,5.729-12.768,12.77v15.486l-13.397-7.77c-1.944-1.131-4.156-1.73-6.396-1.73c-4.546,0-8.777,2.438-11.056,6.365 c-3.532,6.092-1.45,13.918,4.64,17.445l13.518,7.836l-13.518,7.83c-6.09,3.531-8.178,11.354-4.65,17.449 c2.271,3.93,6.513,6.371,11.057,6.371c2.235,0,4.441-0.604,6.387-1.725l13.416-7.771v15.504c0,7.041,5.726,12.768,12.766,12.768 c7.042,0,12.767-5.727,12.767-12.768v-15.486l13.397,7.77c1.945,1.133,4.154,1.729,6.395,1.729c4.547,0,8.779-2.438,11.057-6.363 c1.712-2.949,2.172-6.387,1.298-9.686C361.454,450.192,359.349,447.435,356.398,445.726z"/>
	<path fill="#FFEEB6" d="M289.523,55.919c0-8.073,0.623-16.106,1.854-24.034c-48.018,21.08-80.216,69.213-80.216,122.756 c0,73.877,60.105,133.979,133.98,133.979c52.975,0,100.896-31.751,122.248-79.104c-7.469,1.094-15.029,1.643-22.629,1.643 C359.166,211.158,289.523,141.519,289.523,55.919z"/>
	<path fill="#EAC618" d="M481.121,184.906c-11.779,3.313-24.01,4.994-36.355,4.994c-73.877,0-133.979-60.104-133.979-133.982 c0-12.746,1.795-25.372,5.334-37.527L321.475,0l-18.438,5.186C271.1,14.167,242.322,33.674,222,60.113 c-20.994,27.311-32.09,59.998-32.09,94.527c0,85.601,69.639,155.242,155.237,155.242c34.277,0,66.773-10.953,93.979-31.674 c26.316-20.048,45.879-48.492,55.082-80.097l5.354-18.393L481.121,184.906z M345.146,288.622 c-73.877,0-133.98-60.104-133.98-133.982c0-53.542,32.196-101.676,80.214-122.755c-1.234,7.927-1.857,15.959-1.857,24.032 c0,85.603,69.645,155.243,155.24,155.243c7.602,0,15.16-0.551,22.627-1.644C446.041,256.872,398.117,288.622,345.146,288.622z"/>
	<path fill="#F2F2F2" d="M303.85,345.82H72.693c-28.118,0-50.995-22.895-50.995-51.029c0-23.374,15.862-43.688,38.575-49.395 c5.009-1.261,8.385-5.986,8.008-11.139c-0.178-2.415-0.344-4.696-0.344-6.896c0-49.357,40.16-89.514,89.521-89.514 c30.521,0,58.645,15.375,75.227,41.129c2.688,4.174,7.902,5.934,12.573,4.234c4.984-1.814,10.076-2.734,15.136-2.734 c24.348,0,44.15,19.805,44.15,44.147c0,2.356-0.232,4.874-0.715,7.694c-0.984,5.785,2.902,11.272,8.688,12.264 c24.549,4.199,42.365,25.313,42.365,50.203C354.883,322.928,331.99,345.82,303.85,345.82z"/>
	<path fill="#808083" d="M325.787,225.972c0.012-0.45,0.018-0.899,0.018-1.345c0-36.066-29.346-65.407-65.412-65.407 c-4.826,0-9.648,0.554-14.417,1.649c-20.891-27.868-53.416-44.279-88.513-44.279c-61.087,0-110.784,49.693-110.784,110.773 c0,0.024,0,0.051,0,0.076c-27.615,10.623-46.24,37.185-46.24,67.347c0,39.857,32.414,72.291,72.256,72.291H303.85 c39.861,0,72.295-32.434,72.295-72.291C376.143,262.872,355.48,235.341,325.787,225.972z M303.848,345.817H72.693 c-28.118,0-50.995-22.893-50.995-51.027c0-23.373,15.862-43.688,38.575-49.394c5.009-1.261,8.386-5.979,8.008-11.133 c-0.178-2.416-0.344-4.699-0.344-6.9c0-49.357,40.16-89.514,89.522-89.514c30.521,0,58.644,15.375,75.226,41.129 c2.688,4.174,7.907,5.932,12.571,4.235c4.987-1.813,10.08-2.733,15.136-2.733c24.344,0,44.15,19.805,44.15,44.146 c0,2.357-0.232,4.874-0.715,7.695c-0.984,5.783,2.902,11.271,8.688,12.263c24.549,4.196,42.365,25.312,42.365,50.201 C354.881,322.925,331.988,345.817,303.848,345.817z"/>
</svg>
