<svg id="50n" xmlns="http://www.w3.org/2000/svg" viewBox="0 0 500 500">
	<path id="Layer_3_1_" fill="#D6D6D8" d="M363.691,305.819H132.537c-28.119,0-50.996-22.895-50.996-51.03c0-23.374,15.863-43.687,38.576-49.394 c5.008-1.26,8.384-5.985,8.007-11.138c-0.177-2.415-0.344-4.696-0.344-6.896c0-49.358,40.16-89.514,89.522-89.514 c30.522,0,58.644,15.375,75.226,41.129c2.689,4.173,7.902,5.934,12.574,4.234c4.984-1.814,10.076-2.734,15.135-2.734 c24.347,0,44.15,19.805,44.15,44.147c0,2.356-0.231,4.874-0.713,7.695c-0.986,5.785,2.9,11.272,8.686,12.263 c24.55,4.199,42.365,25.313,42.365,50.203C414.729,282.928,391.833,305.819,363.691,305.819z"/>
	<path fill="#808083" d="M385.634,186.037c0.011-0.45,0.017-0.899,0.017-1.345c0-36.065-29.344-65.407-65.411-65.407 c-4.827,0-9.653,0.553-14.423,1.65c-20.89-27.87-53.414-44.28-88.513-44.28c-61.086,0-110.782,49.693-110.782,110.773 c0,0.025,0,0.051,0,0.077c-27.614,10.622-46.239,37.184-46.239,67.347c0,39.861,32.414,72.29,72.256,72.29h231.155 c39.863,0,72.295-32.429,72.295-72.29C435.987,222.938,415.326,195.405,385.634,186.037z M363.693,305.882H132.537 c-28.119,0-50.996-22.894-50.996-51.03c0-23.375,15.863-43.685,38.576-49.392c5.008-1.259,8.385-5.983,8.008-11.134 c-0.178-2.416-0.345-4.697-0.345-6.898c0-49.358,40.159-89.514,89.522-89.514c30.523,0,58.646,15.375,75.228,41.129 c2.688,4.175,7.908,5.932,12.572,4.235c4.985-1.814,10.078-2.734,15.137-2.734c24.346,0,44.15,19.805,44.15,44.147 c0,2.356-0.231,4.874-0.714,7.695c-0.985,5.785,2.902,11.274,8.687,12.263c24.55,4.198,42.365,25.311,42.365,50.203 C414.729,282.989,391.834,305.882,363.693,305.882z"/>
	<path fill="#A7A9AB" d="M370.943,423.346h-78.377c-5.871,0-10.631-4.759-10.631-10.63s4.76-10.63,10.631-10.63h78.377 c5.871,0,10.63,4.759,10.63,10.63S376.814,423.346,370.943,423.346z"/>
	<path fill="#A7A9AB" d="M175.485,162.91H65.453c-5.871,0-10.63-4.759-10.63-10.63c0-5.871,4.759-10.63,10.63-10.63h110.032 c5.87,0,10.63,4.759,10.63,10.63C186.115,158.151,181.355,162.91,175.485,162.91z"/>
	<path fill="#A7A9AB" d="M445.082,271.938H288.326c-5.871,0-10.631-4.76-10.631-10.631s4.76-10.63,10.631-10.63h156.756 c5.871,0,10.63,4.759,10.63,10.63S450.953,271.938,445.082,271.938z"/>
	<path fill="#A7A9AB" d="M217.952,423.346H61.196c-5.87,0-10.63-4.759-10.63-10.63s4.76-10.63,10.63-10.63h156.756 c5.87,0,10.63,4.759,10.63,10.63S223.822,423.346,217.952,423.346z"/>
	<path fill="#A7A9AB" d="M381.148,369.002H101.499c-5.87,0-10.63-4.759-10.63-10.63s4.76-10.63,10.63-10.63h279.649 c5.871,0,10.629,4.759,10.629,10.63S387.02,369.002,381.148,369.002z"/>
	<path fill="#A7A9AB" d="M199.203,239.126H54.918c-5.871,0-10.63-4.759-10.63-10.63s4.759-10.63,10.63-10.63h144.285 c5.871,0,10.63,4.759,10.63,10.63S205.074,239.126,199.203,239.126z"/>
	<path fill="#A7A9AB" d="M426.562,179.762H324.162c-5.871,0-10.63-4.759-10.63-10.63s4.759-10.63,10.63-10.63h102.399 c5.87,0,10.631,4.759,10.631,10.63S432.432,179.762,426.562,179.762z"/>
	<path fill="#A7A9AB" d="M240.848,288.596H130.965c-5.871,0-10.63-4.76-10.63-10.631s4.759-10.63,10.63-10.63h109.883 c5.871,0,10.63,4.759,10.63,10.63S246.719,288.596,240.848,288.596z"/>
	<path fill="#A7A9AB" d="M277.486,203.536H193.27c-5.87,0-10.63-4.759-10.63-10.63c0-5.871,4.76-10.63,10.63-10.63h84.216 c5.871,0,10.63,4.759,10.63,10.63C288.116,198.777,283.357,203.536,277.486,203.536z"/>
</svg>
