<svg id="precipion" xmlns="http://www.w3.org/2000/svg" xmlns:xlink="http://www.w3.org/1999/xlink" viewBox="0 0 400 269">
	<defs>
		<style>.cls-1{fill:#225fac;}.cls-2{fill:#1f2658;}</style>
		<g id="prec_snow" fill="#00AEBD" transform="scale(0.8) translate(150, 10)">
			<path d="M188.503,286.08l-19.758-11.365l19.722-11.43c2.867-1.661,3.844-5.333,2.183-8.199 c-1.661-2.867-5.331-3.845-8.2-2.184l-19.722,11.43l-0.037-22.794c-0.006-3.311-2.69-5.99-6-5.99c-0.003,0-0.007,0-0.01,0  c-3.313,0.005-5.995,2.695-5.99,6.01l0.037,22.793l-19.759-11.365c-2.872-1.651-6.54-0.663-8.192,2.21  c-1.652,2.872-0.663,6.54,2.21,8.193l19.758,11.365l-19.722,11.429c-2.867,1.661-3.844,5.333-2.183,8.199  c1.113,1.921,3.127,2.993,5.197,2.993c1.021,0,2.056-0.261,3.003-0.81l19.721-11.429l0.037,22.793c0.006,3.31,2.69,5.99,6,5.99  c0.003,0,0.007,0,0.01,0c3.313-0.005,5.995-2.695,5.99-6.01l-0.037-22.794l19.76,11.365c0.942,0.542,1.971,0.8,2.985,0.8  c2.077,0,4.097-1.079,5.207-3.009C192.365,291.4,191.376,287.731,188.503,286.08z"/>
			<path d="M91.619,276.364l-14.11-8.147l14.11-8.146c2.87-1.657,3.853-5.327,2.196-8.196 c-1.655-2.868-5.325-3.852-8.196-2.196l-14.111,8.147v-16.294c0-3.313-2.687-6-6-6c-3.313,0-6,2.687-6,6v16.293l-14.11-8.146  c-2.871-1.656-6.539-0.672-8.196,2.196c-1.656,2.87-0.674,6.539,2.196,8.196l14.11,8.146l-14.11,8.147  c-2.87,1.657-3.853,5.327-2.196,8.196c1.111,1.925,3.128,3.001,5.202,3.001c1.018,0,2.05-0.259,2.994-0.805l14.11-8.146v16.293  c0,3.314,2.687,6,6,6c3.313,0,6-2.686,6-6v-16.294l14.111,8.147c0.945,0.545,1.977,0.805,2.994,0.805 c2.074,0,4.091-1.076,5.202-3.001C95.472,281.69,94.489,278.021,91.619,276.364z"/>
			<path d="M274.493,276.364l-14.11-8.147l14.11-8.146c2.87-1.657,3.853-5.327,2.196-8.196 c-1.656-2.868-5.327-3.852-8.196-2.196l-14.11,8.146v-16.293c0-3.313-2.686-6-6-6c-3.313,0-6,2.687-6,6v16.294l-14.111-8.147  c-2.872-1.656-6.539-0.672-8.196,2.196c-1.656,2.87-0.674,6.539,2.196,8.196l14.11,8.146l-14.11,8.147  c-2.87,1.657-3.853,5.327-2.196,8.196c1.111,1.925,3.128,3.001,5.202,3.001c1.018,0,2.05-0.259,2.994-0.805l14.111-8.147v16.294  c0,3.314,2.687,6,6,6c3.314,0,6-2.686,6-6V278.61l14.11,8.146c0.945,0.545,1.977,0.805,2.994,0.805c2.074,0,4.091-1.076,5.202-3.001  C278.346,281.69,277.363,278.021,274.493,276.364z"/>
		</g>
		<g id="prec_rain" fill="#225fac">
			<path d="M481.1,392.79a9.55,9.55,0,0,0-9.54,9.63v25.95a9.54,9.54,0,1,0,19.08,0V402.42a9.58,9.58,0,0,0-9.54-9.63" transform="translate(-196.3 -171.37)"/>
			<path d="M404.92,392.79a9.51,9.51,0,0,0-9.54,9.63v28.31a9.51,9.51,0,1,0,19,0V402.42a9.56,9.56,0,0,0-9.47-9.63" transform="translate(-196.3 -171.37)"/>
			<path d="M443,373.78a9.53,9.53,0,0,0-9.54,9.62v23.54a9.54,9.54,0,1,0,19.08,0V383.4a9.54,9.54,0,0,0-9.54-9.62" transform="translate(-196.3 -171.37)"/>
			<path d="M366.77,373.78a9.48,9.48,0,0,0-9.48,9.62v23.54a9.51,9.51,0,1,0,19,0V383.4a9.52,9.52,0,0,0-9.53-9.62" transform="translate(-196.3 -171.37)"/>
			<path d="M519.19,373.78a9.53,9.53,0,0,0-9.53,9.62v33a9.54,9.54,0,1,0,19.07,0v-33a9.52,9.52,0,0,0-9.54-9.62" transform="translate(-196.3 -171.37)"/>
		</g>
	</defs>
	<title>precipion</title>
	<use xlink:href="#prec_snow"/>
	<g class="cls-2" fill="#1f2658">
		<path id="cloud" d="M538.27,342.81H347.7a38.11,38.11,0,0,1-8.65-75.21,64.73,64.73,0,0,1-.83-10.51,66.69,66.69,0,0,1,130.51-19.3A42.9,42.9,0,0,1,538,266.63h.29a38.09,38.09,0,1,1,0,76.18m15.11-93.21a62,62,0,0,0-58-40.15A60.93,60.93,0,0,0,477.8,212a85.72,85.72,0,0,0-158.62,43.21,57.15,57.15,0,0,0,28.57,106.65H538.27A57.15,57.15,0,0,0,553.38,249.6" transform="translate(-196.3 -171.37)"/>
		<g id="wind_marker">
			<path d="M262.8,250.82a9.11,9.11,0,1,0,.05,18.22l138.38-.44a9.11,9.11,0,1,0-.06-18.22Z" transform="translate(-196.3 -171.37)"/>
			<path d="M196.3,329.39c0,24.08,19.27,43.68,43,43.74h.35c3.22,0,17.61-.63,28.48-11.39,7.59-7.51,11.43-17.83,11.43-30.67a10.11,10.11,0,1,0-20.22,0c0,7-1.76,12.37-5.23,15.87-5.41,5.45-13.82,5.65-14.49,5.66a1.46,1.46,0,0,0-.21,0,23.21,23.21,0,0,1,0-46.42h192.1a10.27,10.27,0,0,0,0-20.54H239.38C215.62,285.64,196.3,305.27,196.3,329.39Z" transform="translate(-196.3 -171.37)"/>
		</g>
	</g>
</svg>
