<svg xmlns="http://www.w3.org/2000/svg" xmlns:xlink="http://www.w3.org/1999/xlink" viewBox="0 0 500 500">
	<defs>
		<g id="sun-full">
			<path id="sunrays-full" fill="#FEC10D" d="M250.5 128.2c-5.8 0-10.5-4.7-10.5-10.5V60a10.5 10.5 0 1 1 21 0v57.6c0 5.8-4.7 10.5-10.5 10.5zM250.5 450.4c-5.8 0-10.5-4.7-10.5-10.6v-57.1a10.5 10.5 0 1 1 21 0v57.1c0 5.9-4.7 10.6-10.5 10.6zM439.5 260.7H383a10.5 10.5 0 1 1 0-21h56.5a10.5 10.5 0 1 1 0 21zM118 260.7H60.5a10.5 10.5 0 1 1 0-21H118a10.5 10.5 0 1 1 0 21zM344.2 167a10.5 10.5 0 0 1-7.4-18l30.8-30.8a10.5 10.5 0 0 1 14.9 14.9l-30.9 30.8c-2 2-4.7 3.1-7.4 3.1zM125.6 385.6a10.5 10.5 0 0 1-7.4-18l31.2-31.2a10.5 10.5 0 0 1 14.9 14.9L133 382.5c-2 2-4.8 3-7.5 3zM375.5 385.6c-2.7 0-5.4-1-7.5-3l-31.6-31.7a10.5 10.5 0 0 1 14.8-14.9l31.7 31.7a10.5 10.5 0 0 1-7.4 18zM156.8 167c-2.7 0-5.3-1-7.4-3l-31.2-31.3a10.5 10.5 0 1 1 14.9-14.8l31.2 31.2a10.5 10.5 0 0 1-7.5 17.9z"/>
			<path id="sunrays-half" fill="#F47722" d="M312.3 367.6A10.5 10.5 0 1 0 293 376l10.2 23.9a10.5 10.5 0 1 0 19.3-8.3l-10.2-23.9zM188.8 132.4a10.5 10.5 0 1 0 19.3-8.3l-10.2-23.8a10.5 10.5 0 1 0-19.4 8.3l10.3 23.8zM368.1 188.3a10.5 10.5 0 0 0 8.3 19.3l23.8-10.2a10.4 10.4 0 0 0 5.6-13.8A10.5 10.5 0 0 0 392 178L368 188.3zM132.9 311.8a10.4 10.4 0 0 0 5.5-13.8 10.5 10.5 0 0 0-13.8-5.5l-23.8 10.2a10.4 10.4 0 0 0-5.5 13.8A10.5 10.5 0 0 0 109 322l23.8-10.2zM400.3 302.6l-23.9-10.2c-1.3-.6-2.7-.9-4-.9a10.5 10.5 0 0 0-4.2 20.2l23.8 10.2a10.5 10.5 0 0 0 8.3-19.3zM100.7 197.5l23.9 10.2a10.5 10.5 0 0 0 8.3-19.3L109 178.2a10.5 10.5 0 0 0-13.8 5.5 10.4 10.4 0 0 0 5.5 13.8zM298.4 137.9a10.4 10.4 0 0 0 13.8-5.5l10.2-23.9a10.5 10.5 0 0 0-19.3-8.2L292.9 124c-2.3 5.3.2 11.5 5.5 13.8zM202.6 362.2a10.4 10.4 0 0 0-13.8 5.5l-10.1 23.8a10.5 10.5 0 0 0 19.3 8.3l10.2-23.9a10.4 10.4 0 0 0-5.6-13.7z"/>
			<path id="sun-outline" fill="#FEC10D" d="M250.52 145.98c-57.46 0-104.2 46.74-104.2 104.2s46.74 104.2 104.2 104.2 104.2-46.74 104.2-104.2-46.74-104.2-104.2-104.2zm0 187.39c-45.87 0-83.19-37.32-83.19-83.19S204.65 167 250.53 167c45.86 0 83.18 37.32 83.18 83.2 0 45.86-37.31 83.18-83.19 83.18z"/>
			<path id="suncore" fill="#FCE6B1" d="M250.52 333.37c-45.87 0-83.19-37.32-83.19-83.19S204.65 167 250.53 167c45.86 0 83.18 37.32 83.18 83.2 0 45.86-37.31 83.18-83.19 83.18z"/>
		</g>
		<g id="moon-full">
			<path id="moon-outline" fill="#3f3a02" d="M386 280a134 134 0 0 1-165-167l6-18-19 5A156 156 0 0 0 95 250a155 155 0 0 0 304 43l6-18-19 5zM250 384a134 134 0 0 1-53-257c-2 8-2 16-2 24a155 155 0 0 0 178 154c-22 47-70 79-123 79z"/>
			<path id="moon-core" fill="#ffc843" stroke="#ffc843" d="M195 151c0-8 0-16 2-24a134 134 0 1 0 176 178l-23 1c-86 0-155-69-155-155z"/>
		</g>
		<path id="stars" fill="#58A1D4" d="M358 114l5 9 10 1-7 7 1 10-9-5-8 5 1-10-7-7 10-1zM277 126l7 13 14 2-10 11 2 14-13-7-13 7 2-14-10-11 14-2zM332 195l8 16 18 3-13 13 3 17-16-8-16 8 4-17-13-13 17-3z"/>
		<g id="cloud-s">
			<path id="cloud-s-outline" d="M260.508,309.594c-0.947-24.632-21.282-44.38-46.143-44.38c-2.616,0-5.23,0.229-7.825,0.687 c-14.287-17.878-35.806-28.345-58.968-28.345c-40.872,0-74.274,32.591-75.58,73.151c-18.046,8.002-30.044,25.948-30.044,46.213 c0,27.924,22.707,50.642,50.619,50.642h149.995c27.924,0,50.644-22.718,50.644-50.642 C293.206,335.493,279.918,316.888,260.508,309.594z M242.563,386.298H92.567c-16.189,0-29.359-13.181-29.359-29.382 c0-13.453,9.133-25.145,22.21-28.432c5.008-1.264,8.386-5.958,8.008-11.108c-0.109-1.5-0.213-2.917-0.213-4.212 c0-29.971,24.386-54.352,54.359-54.352c18.532,0,35.607,9.336,45.676,24.976c2.688,4.175,7.906,5.933,12.573,4.235 c2.825-1.028,5.7-1.551,8.544-1.551c13.739,0,24.917,11.178,24.917,24.912c0,1.319-0.134,2.748-0.409,4.367 c-0.985,5.784,2.903,11.272,8.687,12.262c14.131,2.417,24.387,14.57,24.387,28.898 C271.945,373.117,258.766,386.298,242.563,386.298z"/>
			<path id="cloud-s-core" d="M247.562,328.018c-5.783-0.985-9.672-6.478-8.688-12.262c0.275-1.619,0.408-3.048,0.408-4.367 c0-13.738-11.178-24.914-24.916-24.914c-2.844,0-5.719,0.521-8.545,1.549c-4.666,1.697-9.885-0.061-12.572-4.231 c-10.068-15.642-27.145-24.979-45.677-24.979c-29.974,0-54.358,24.383-54.358,54.354c0,1.295,0.104,2.712,0.213,4.212 c0.378,5.15-3,9.851-8.008,11.108c-13.078,3.286-22.211,14.979-22.211,28.432c0,16.201,13.17,29.382,29.359,29.382h149.996 c16.201,0,29.382-13.181,29.382-29.382C271.945,342.588,261.689,330.435,247.562,328.018z"/>
		</g>
		<g id="cloud-l">
			<path id="cloud-l-outline" fill="#808083" d="M325.955,291.434c0.011-0.451,0.016-0.896,0.016-1.346c0-36.064-29.344-65.407-65.41-65.407 c-4.828,0-9.656,0.554-14.42,1.65c-20.889-27.869-53.415-44.28-88.512-44.28c-61.085,0-110.782,49.693-110.782,110.773 c0,0.025,0,0.051,0,0.076c-27.615,10.623-46.24,37.186-46.24,67.348c0,39.861,32.414,72.291,72.256,72.291h231.156 c39.862,0,72.295-32.43,72.295-72.291C376.309,328.334,355.646,300.803,325.955,291.434z M304.016,411.279H72.859 c-28.119,0-50.996-22.896-50.996-51.031c0-23.373,15.863-43.688,38.576-49.391c5.009-1.263,8.385-5.986,8.007-11.14 c-0.177-2.413-0.344-4.694-0.344-6.896c0-49.357,40.16-89.514,89.522-89.514c30.522,0,58.645,15.376,75.227,41.13 c2.688,4.175,7.906,5.934,12.573,4.234c4.984-1.814,10.076-2.734,15.135-2.734c24.346,0,44.151,19.805,44.151,44.147 c0,2.354-0.233,4.875-0.714,7.695c-0.986,5.785,2.902,11.271,8.688,12.264c24.547,4.197,42.364,25.313,42.364,50.201 C355.049,388.387,332.154,411.279,304.016,411.279z"/>
			<path id="cloud-l-core" fill="#D6D6D8" d="M304.016,411.28H72.859c-28.118,0-50.995-22.895-50.995-51.03c0-23.374,15.862-43.688,38.575-49.394 c5.009-1.261,8.385-5.985,8.008-11.139c-0.178-2.413-0.344-4.694-0.344-6.896c0-49.357,40.16-89.513,89.521-89.513 c30.521,0,58.645,15.375,75.227,41.128c2.688,4.174,7.902,5.935,12.573,4.234c4.984-1.814,10.076-2.734,15.137-2.734 c24.344,0,44.149,19.806,44.149,44.147c0,2.355-0.231,4.874-0.714,7.694c-0.984,5.784,2.9,11.271,8.688,12.264 c24.549,4.199,42.364,25.313,42.364,50.203C355.05,388.389,332.156,411.28,304.016,411.28z"/>
		</g>
		<g id="cloud">
			<path id="cloud-outline" d="M387.499,234.139c0.011-0.451,0.017-0.899,0.017-1.346c0-36.066-29.345-65.407-65.412-65.407 c-4.828,0-9.651,0.553-14.422,1.65c-20.89-27.869-53.414-44.28-88.513-44.28c-61.085,0-110.782,49.693-110.782,110.773 c0,0.025,0,0.051,0,0.077c-27.617,10.621-46.239,37.184-46.239,67.348c0,39.861,32.414,72.29,72.256,72.29h231.155 c39.863,0,72.294-32.429,72.294-72.29C437.853,271.04,417.191,243.508,387.499,234.139z M365.559,353.984H134.403 c-28.119,0-50.996-22.895-50.996-51.03c0-23.374,15.863-43.687,38.576-49.394c5.008-1.261,8.384-5.985,8.007-11.139 c-0.177-2.415-0.344-4.696-0.344-6.896c0-49.358,40.16-89.514,89.522-89.514c30.522,0,58.645,15.375,75.227,41.129 c2.688,4.173,7.902,5.934,12.573,4.234c4.984-1.814,10.076-2.734,15.136-2.734c24.347,0,44.15,19.805,44.15,44.147 c0,2.356-0.232,4.874-0.714,7.695c-0.985,5.785,2.901,11.273,8.687,12.263c24.549,4.199,42.365,25.313,42.365,50.203 C416.593,331.093,393.699,353.984,365.559,353.984z"/>
			<path id="cloud-core" d="M365.559,353.984H134.403c-28.119,0-50.996-22.895-50.996-51.03c0-23.374,15.863-43.687,38.576-49.394 c5.008-1.261,8.384-5.985,8.007-11.139c-0.177-2.415-0.344-4.696-0.344-6.896c0-49.358,40.16-89.514,89.522-89.514 c30.522,0,58.645,15.375,75.227,41.129c2.688,4.173,7.902,5.934,12.573,4.234c4.984-1.814,10.076-2.734,15.136-2.734 c24.347,0,44.15,19.805,44.15,44.147c0,2.356-0.232,4.874-0.714,7.695c-0.985,5.785,2.901,11.273,8.687,12.263 c24.549,4.199,42.365,25.313,42.365,50.203C416.593,331.093,393.699,353.984,365.559,353.984z"/>
		</g>
		<g id="cloud-dark-s">
			<use fill="#808083" xlink:href="#cloud-s-outline"/>
			<use fill="#D8D8D8" xlink:href="#cloud-s-core"/>
		</g>
		<g id="cloud-light-s">
			<use fill="#98ccfd" xlink:href="#cloud-s-outline"/>
			<use fill="#fff" xlink:href="#cloud-s-core"/>
		</g>
		<g id="cloud-dark">
			<use fill="#808083" xlink:href="#cloud-outline"/>
			<use fill="#D8D8D8" xlink:href="#cloud-core"/>
		</g>
		<g id="cloud-light">
			<use fill="#98ccfd" xlink:href="#cloud-outline"/>
			<use fill="#fff" xlink:href="#cloud-core"/>
		</g>
		<g id="mist" fill="#A7A9AB" transform="translate(0, 50)">
			<path id="mist-T" d="M175.5 163h-110a10.6 10.6 0 1 1 0-21.3h110a10.6 10.6 0 0 1 0 21.2zM277.5 203.5h-84.2a10.6 10.6 0 0 1 0-21.2h84.2a10.6 10.6 0 1 1 0 21.2zM426.6 179.8H324.2a10.6 10.6 0 1 1 0-21.3h102.4a10.6 10.6 0 0 1 0 21.3z"/>
			<path id="mist-C" d="M199.2 239.1H54.9a10.6 10.6 0 1 1 0-21.2h144.3a10.6 10.6 0 1 1 0 21.2zM240.8 288.6H131a10.6 10.6 0 0 1 0-21.3h109.8a10.6 10.6 0 1 1 0 21.3zM445 272H288.4a10.6 10.6 0 0 1 0-21.3h156.8a10.6 10.6 0 1 1 0 21.2z"/>
			<path id="mist-B" d="M381.1 369H101.5a10.6 10.6 0 0 1 0-21.3h279.6a10.6 10.6 0 1 1 0 21.3zM371 423.3h-78.4a10.6 10.6 0 1 1 0-21.2h78.3a10.6 10.6 0 1 1 0 21.2zM218 423.3H61.2a10.6 10.6 0 0 1 0-21.2H218a10.6 10.6 0 0 1 0 21.2z"/>
		</g>
		<g id="rain" fill="#58A1D4" transform="translate(0, 30)">
			<path id="drop-L" d="M128 427a13 13 0 0 1-10-21l37-45a13 13 0 1 1 20 17l-37 45c-3 3-6 4-10 4z"/>
			<path id="drop-C" d="M232 427a13 13 0 0 1-10-21l37-45a13 13 0 1 1 20 17l-37 45c-3 3-6 4-10 4z"/>
			<path id="drop-R" d="M335 427a13 13 0 0 1-10-21l37-45a13 13 0 1 1 20 17l-37 45c-3 3-6 4-10 4z"/>
		</g>
		<g id="thunder" fill="#58A1D4">
			<g transform="translate(0, 30)">
				<use xlink:href="#drop-L"/>
				<use xlink:href="#drop-R"/>
			</g>
			<path id="lightning" fill="#FCC013" transform="translate(50, 0)" d="M231 389h-31l-39 44h24l-44 66 83-76h-22l29-34z"/>
		</g>
		<g id="snow" fill="#8FCDF0" transform="translate(50, 0)">
			<path id="flake-L" d="M97.096 445.726l-13.514-7.838 13.518-7.83c6.091-3.529 8.179-11.354 4.65-17.447-2.275-3.928-6.514-6.363-11.062-6.363-2.233 0-4.442.594-6.386 1.721l-13.416 7.77v-15.51c0-7.039-5.727-12.77-12.766-12.77-7.041 0-12.769 5.729-12.769 12.77v15.486l-13.397-7.77a12.74 12.74 0 0 0-6.396-1.73 12.82 12.82 0 0 0-11.056 6.365c-3.531 6.092-1.449 13.918 4.639 17.445l13.515 7.836-13.519 7.83c-6.092 3.531-8.178 11.354-4.65 17.449a12.814 12.814 0 0 0 11.061 6.371c2.234 0 4.443-.604 6.387-1.725l13.416-7.771v15.504c0 7.041 5.727 12.768 12.768 12.768s12.767-5.727 12.767-12.768v-15.486l13.396 7.77a12.72 12.72 0 0 0 6.394 1.729c4.546 0 8.779-2.438 11.056-6.363a12.683 12.683 0 0 0 1.296-9.686 12.67 12.67 0 0 0-5.932-7.757z"/>
			<path id="flake-C" d="M226.745 457.438l-13.518-7.836 13.518-7.83c6.092-3.529 8.182-11.355 4.654-17.447-2.275-3.928-6.514-6.363-11.061-6.363-2.235 0-4.441.594-6.385 1.721l-13.416 7.77v-15.508c0-7.039-5.726-12.764-12.765-12.764-7.041 0-12.768 5.725-12.768 12.764v15.486l-13.397-7.77a12.755 12.755 0 0 0-6.396-1.73 12.815 12.815 0 0 0-11.053 6.365c-3.535 6.092-1.453 13.918 4.637 17.445l13.516 7.838-13.52 7.83c-6.092 3.527-8.179 11.35-4.65 17.445a12.81 12.81 0 0 0 11.061 6.373c2.233 0 4.441-.6 6.385-1.727l13.418-7.771v15.504c0 7.041 5.728 12.768 12.767 12.768s12.766-5.727 12.766-12.768v-15.479l13.397 7.771a12.768 12.768 0 0 0 6.394 1.725 12.82 12.82 0 0 0 11.058-6.363 12.705 12.705 0 0 0 1.299-9.689 12.712 12.712 0 0 0-5.941-7.76z"/>
			<path id="flake-R" d="M356.398 445.726l-13.515-7.838 13.518-7.83c6.092-3.529 8.183-11.354 4.651-17.447-2.271-3.928-6.513-6.363-11.058-6.363-2.231 0-4.437.594-6.387 1.721l-13.409 7.77v-15.51c0-7.039-5.727-12.77-12.767-12.77-7.041 0-12.768 5.729-12.768 12.77v15.486l-13.397-7.77a12.737 12.737 0 0 0-6.396-1.73 12.814 12.814 0 0 0-11.056 6.365c-3.532 6.092-1.45 13.918 4.64 17.445l13.518 7.836-13.518 7.83c-6.09 3.531-8.178 11.354-4.65 17.449a12.808 12.808 0 0 0 11.057 6.371 12.82 12.82 0 0 0 6.387-1.725l13.416-7.771v15.504c0 7.041 5.726 12.768 12.766 12.768 7.042 0 12.767-5.727 12.767-12.768v-15.486l13.397 7.77a12.712 12.712 0 0 0 6.395 1.729c4.547 0 8.779-2.438 11.057-6.363a12.688 12.688 0 0 0 1.298-9.686 12.743 12.743 0 0 0-5.946-7.757z"/>
		</g>

		<g id="01d">
			<use xlink:href="#sun-full"/>
		</g>
		<g id="01n">
			<use xlink:href="#moon-full"/>
			<use xlink:href="#stars"/>
		</g>
		<g id="02d">
			<use xlink:href="#sun-full"/>
			<use xlink:href="#cloud-light-s"/>
		</g>
		<g id="02n">
			<use xlink:href="#moon-full"/>
			<use xlink:href="#stars"/>
			<use xlink:href="#cloud-light-s"/>
		</g>
		<g id="03d">
			<g transform="translate(80, -50)">
				<use xlink:href="#sunrays-half"/>
				<use xlink:href="#sun-outline"/>
				<use xlink:href="#suncore"/>
			</g>
			<use xlink:href="#cloud-light"/>
		</g>
		<g id="03n">
			<g transform="translate(80, -50)">
				<use xlink:href="#moon-full"/>
				<use xlink:href="#stars"/>
			</g>
			<use xlink:href="#cloud-dark"/>
		</g>
		<g id="04d">
			<use xlink:href="#cloud-light"/>
		</g>
		<g id="04n">
			<use xlink:href="#cloud-dark"/>
		</g>
		<g id="09d">
			<use xlink:href="#cloud-dark"/>
			<use xlink:href="#rain"/>
		</g>
		<g id="09n">
			<use xlink:href="#cloud-dark"/>
			<use xlink:href="#rain"/>
		</g>
		<g id="10d">
			<g transform="translate(80, -50)">
				<use xlink:href="#sunrays-half"/>
				<use xlink:href="#sun-outline"/>
				<use xlink:href="#suncore"/>
			</g>
			<use xlink:href="#cloud-dark"/>
			<use xlink:href="#rain"/>
		</g>
		<g id="10n">
			<g transform="translate(80, -50)">
				<use xlink:href="#moon-full"/>
				<use xlink:href="#stars"/>
			</g>
			<use xlink:href="#cloud-dark"/>
			<use xlink:href="#rain"/>
		</g>
		<g id="11d">
			<g transform="translate(80, -50)">
				<use xlink:href="#sunrays-half"/>
				<use xlink:href="#sun-outline"/>
				<use xlink:href="#suncore"/>
			</g>
			<use xlink:href="#cloud-dark"/>
			<use xlink:href="#thunder"/>
		</g>
		<g id="11n">
			<g transform="translate(80, -50)">
				<use xlink:href="#moon-full"/>
				<use xlink:href="#stars"/>
			</g>
			<use xlink:href="#cloud-dark"/>
			<use xlink:href="#thunder"/>
		</g>
		<g id="13d">
			<g transform="translate(80, -50)">
				<use xlink:href="#sunrays-half"/>
				<use xlink:href="#sun-outline"/>
				<use xlink:href="#suncore"/>
			</g>
			<use xlink:href="#cloud-light"/>
			<use xlink:href="#snow"/>
		</g>
		<g id="13n">
			<g transform="translate(80, -50)">
				<use xlink:href="#moon-full"/>
				<use xlink:href="#stars"/>
			</g>
			<use xlink:href="#cloud-dark"/>
			<use xlink:href="#snow"/>
		</g>
		<g id="50d">
			<use xlink:href="#cloud-light"/>
			<use xlink:href="#mist"/>
		</g>
		<g id="50n">
			<use xlink:href="#cloud-dark"/>
			<use xlink:href="#mist"/>
		</g>
	</defs>
	<use xlink:href="#11n"/>
</svg>
