<svg xmlns="http://www.w3.org/2000/svg" viewBox="0 0 80 80"><defs><style>.cls-1{opacity:0.95;}.cls-2{fill:#231f20;}.cls-3{fill:aqua;}.cls-4,.cls-5,.cls-6{fill:none;stroke-width:2px;}.cls-4,.cls-5{stroke:#fff;}.cls-4{stroke-linejoin:round;}.cls-5,.cls-6{stroke-miterlimit:10;}.cls-6{stroke:aqua;}</style></defs><title>INV III.02_artificial &amp;amp; daylight</title><g id="Background_INV_black" data-name="Background_INV black" class="cls-1"><circle class="cls-2" cx="40" cy="40" r="33.97"/></g><g id="_04_review_icons_INV" data-name="04 review icons INV"><path class="cls-3" d="M59.1,53.13A15.54,15.54,0,0,1,38.51,58a15.76,15.76,0,0,0,1.9,2.15A15.51,15.51,0,0,0,59.54,35.92c-.28-.18-.56-.34-.84-.5A15.5,15.5,0,0,1,59.1,53.13Z"/><path class="cls-4" d="M57.52,34.18c-.31-.2-.62-.38-.93-.56A15.5,15.5,0,0,1,36.4,56.24,15.39,15.39,0,0,0,40.28,60,15.52,15.52,0,1,0,57.52,34.18Z"/><circle class="cls-3" cx="34.06" cy="32.9" r="5"/><path class="cls-5" d="M36.33,26a6.83,6.83,0,1,1-9.46,1.89A6.82,6.82,0,0,1,36.33,26Z"/><line class="cls-6" x1="18.86" y1="22.57" x2="23.75" y2="25.81"/><line class="cls-5" x1="41.14" y1="37.32" x2="46.03" y2="40.57"/><line class="cls-5" x1="29.91" y1="40.96" x2="28.21" y2="46.58"/><line class="cls-6" x1="37.25" y1="15.83" x2="35.55" y2="21.46"/><line class="cls-6" x1="24.56" y1="38.22" x2="19.93" y2="41.84"/><line class="cls-5" x1="44.86" y1="21.48" x2="40.23" y2="25.1"/><line class="cls-5" x1="21.73" y1="32.14" x2="15.86" y2="32.41"/><line class="cls-6" x1="49.19" y1="30.91" x2="43.32" y2="31.18"/><line class="cls-5" x1="28.82" y1="21.51" x2="26.65" y2="16.05"/><line class="cls-6" x1="38.4" y1="47.27" x2="36.23" y2="41.81"/></g></svg>