<svg id="moon_flat" xmlns="http://www.w3.org/2000/svg" viewBox="0 0 512 512">
	<title>moon-flat</title>
	<path fill="#757889" d="M173 154h-3a70 70 0 0 0-136 3 51 51 0 0 0 17 99h122a51 51 0 0 0 0-102z"/>
	<path fill="#d4d8dd" d="M461 262c0 87-58 160-137 184a192 192 0 0 1-111 0 192 192 0 0 1 0-367 192 192 0 0 1 111 0c79 23 137 97 137 183z"/>
	<path fill-opacity=".08" d="M324 79a230 230 0 0 1 0 367 192 192 0 0 0 0-367z"/>
	<path fill="#fff" fill-opacity=".2" d="M122 262a230 230 0 0 1 91-183 192 192 0 0 0 0 367 230 230 0 0 1-91-184z"/>
	<path fill="#757889" d="M461 282h-3a70 70 0 0 0-136 3 51 51 0 0 0 17 99h122a51 51 0 0 0 0-102z"/>
	<g fill="#b6bbbf">
		<circle cx="198" cy="230" r="32"/>
		<circle cx="218" cy="326" r="19"/>
		<circle cx="294" cy="186" r="19"/>
	</g>
	<g fill="#d4d8dd">
		<circle cx="499" cy="102" r="13"/>
		<circle cx="461" cy="26" r="19"/>
		<circle cx="422" cy="90" r="13"/>
		<circle cx="109" cy="467" r="13"/>
		<circle cx="51" cy="429" r="19"/>
		<circle cx="13" cy="493" r="13"/>
	</g>
	<path fill-opacity=".08" d="M461 282h-3a70 70 0 0 0-80-50 71 71 0 0 1 55 50h2a51 51 0 0 1 0 102h26a51 51 0 0 0 0-102z"/>
</svg>
