<svg id="bf0" xmlns="http://www.w3.org/2000/svg" viewBox="0 0 120 120" style="--wh:#dff0fe;--bf0:#99ffcc;--bf1:#99ff66;--bf2:#ccff00;--bf3:#ffcc00;--bf4:#ff6600;--bf5:#ff0000;--bfs:#065381">
<g id="wrapp" data-name="wrapp" fill="var(--bf0)"><path stroke="var(--bfs)" stroke-miterlimit="10" d="M95.4 54.9a38.7 38.7 0 0 0 5.1-4.7A40.6 40.6 0 0 1 62 90.6zM54.9 24.6a38.7 38.7 0 0 0-4.7-5.1A40.6 40.6 0 0 1 90.6 58zM24.6 65.1a38.7 38.7 0 0 0-5.1 4.7A40.6 40.6 0 0 1 58 29.4zM65.1 95.4a38.7 38.7 0 0 0 4.7 5.1A40.6 40.6 0 0 1 29.4 62z"/><path d="M95.4 54.9a38.4 38.4 0 0 1-4.8 3.1c-1-17.9-16.3-31.5-35.7-33.4a38.4 38.4 0 0 1 3.1 4.8c-17.9 1-31.5 16.3-33.4 35.7a38.4 38.4 0 0 1 4.8-3.1c1 17.9 16.3 31.5 35.7 33.4a38.4 38.4 0 0 1-3.1-4.8c17.8-1 31.5-16.3 33.4-35.7z"/><path fill="var(--wh)" d="M60.6 80.7A30.7 30.7 0 0 0 82 71.4l-5.2.8a20.7 20.7 0 0 0 4.1-12.3v-.5A30.7 30.7 0 0 0 71.6 38a47.9 47.9 0 0 1 .8 5.2 20.7 20.7 0 0 0-12.3-4.1h-.5a30.7 30.7 0 0 0-21.4 9.2l5.2-.8a20.7 20.7 0 0 0-4.1 12.3v.5a30.7 30.7 0 0 0 9.2 21.4 47.9 47.9 0 0 1-.8-5.2A20.7 20.7 0 0 0 60 80.6z"/><path d="M68.6 59.9a8.6 8.6 0 1 0-8.6 8.6 8.6 8.6 0 0 0 8.6-8.6z"/><animateTransform attributeName="transform" type="rotate" from="0 60 60" to="360 60 60" begin="1s" dur="60s" repeatCount="indefinite"/></g>
</svg>
