<?xml version="1.0" encoding="UTF-8"?>
<!-- Generator: Adobe Illustrator 17.1.0, SVG Export Plug-In . SVG Version: 6.00 Build 0)  -->
<!DOCTYPE svg PUBLIC "-//W3C//DTD SVG 1.1//EN" "http://www.w3.org/Graphics/SVG/1.1/DTD/svg11.dtd">
<svg version="1.1" id="Icons" xmlns="http://www.w3.org/2000/svg" xmlns:xlink="http://www.w3.org/1999/xlink" x="0px" y="0px" viewBox="0 0 100 100" enable-background="new 0 0 100 100" xml:space="preserve">
<path id="MobileMe" fill="#8AC936" d="M95,62.7c0,9.8-7.9,17.8-17.7,17.8H22.7c-9.8,0-17.7-8-17.7-17.8c0-8.9,6.4-16.2,14.9-17.6  c-0.1-0.6-0.2-1.3-0.2-1.9c0-6.2,5-11.3,11.2-11.3c2.8,0,5.3,1,7.2,2.7c3.5-7.9,7.9-15.1,20.4-15.1c15.2,0,22.3,11.8,22.3,24.2  c0,0.5,0,1-0.1,1.5C88.9,46.9,95,54.1,95,62.7z"/>
</svg>