<svg id="rain" xmlns="http://www.w3.org/2000/svg" viewBox="0 0 102.293 105.03" xml:space="preserve">
	<path fill="#424143" d="M24.369,90.809c6.816,2.242,5.852-17.803,5.852-17.803S16.783,88.311,24.369,90.809z M39.401,104.793  c9.213,3.031,7.908-24.064,7.908-24.064S29.147,101.416,39.401,104.793z M8.777,82.476c5.088,1.674,4.369-13.291,4.369-13.291  S3.115,80.611,8.777,82.476z M77.204,94.141c6.815,2.242,5.852-17.803,5.852-17.803S69.617,91.644,77.204,94.141z M77.549,11.304  c-0.305-0.013-0.614-0.021-0.924-0.023C71.008,4.201,62.398,0,53.353,0c-10.8,0-20.78,5.95-25.982,15.32  c-1.193-0.181-2.4-0.28-3.594-0.28c-13.219,0-23.973,10.753-23.973,23.971c0,13.22,10.754,23.975,23.973,23.975h12.582  c-0.314-1.327-0.498-2.704-0.498-4.126c0-0.98,0.1-1.936,0.252-2.874H23.776c-9.357,0-16.973-7.615-16.973-16.975  c0-9.357,7.615-16.971,16.973-16.971c0.904,0,1.822,0.074,2.73,0.221c3.607,0.582,6.867,2.281,9.43,4.913l5.016-4.883  c-1.965-2.02-4.23-3.635-6.701-4.835C38.393,11.023,45.595,7,53.353,7c5.51,0,10.81,2.043,14.91,5.611  c-4.199,1.401-8.02,3.868-11.039,7.219l5.201,4.686c3.572-3.965,8.68-6.239,14.012-6.239c0.273,0,0.545,0.011,0.814,0.022  C87.369,18.728,95.292,27,95.292,37.132c0,1.593-0.221,3.133-0.594,4.611c2.207,1.424,4.088,3.299,5.543,5.478  c1.321-3.102,2.051-6.512,2.051-10.089C102.291,23.238,91.422,11.893,77.549,11.304z M85.072,42.299  c-0.106-0.004-0.215-0.005-0.321-0.008c-3.354-4.121-8.427-6.559-13.752-6.559c-6.336,0-12.193,3.436-15.339,8.866  c-0.61-0.079-1.227-0.13-1.842-0.13c-7.936,0-14.393,6.456-14.393,14.391c0,7.937,6.457,14.394,14.393,14.394h30.588  c8.539,0,15.486-6.945,15.486-15.484C99.894,49.446,93.383,42.652,85.072,42.299z M84.406,68.252H53.818  c-5.178,0-9.393-4.214-9.393-9.394c0-5.179,4.215-9.391,9.393-9.391c0.504,0,1.013,0.041,1.511,0.122  c1.995,0.322,3.801,1.263,5.219,2.719l3.582-3.488c-1.051-1.079-2.244-1.969-3.539-2.661c2.356-3.351,6.238-5.428,10.408-5.428  c2.817,0,5.526,0.969,7.729,2.655c-2.203,0.87-4.211,2.224-5.828,4.018l3.715,3.348c1.988-2.205,4.828-3.47,7.793-3.47  c0.154,0,0.305,0.005,0.455,0.012c5.625,0.238,10.031,4.838,10.031,10.473C94.894,63.549,90.191,68.252,84.406,68.252z   M60.402,94.873c5.088,1.675,4.367-13.29,4.367-13.29S54.738,93.008,60.402,94.873z"/>
</svg>
