<?xml version="1.0" encoding="UTF-8"?>
<!-- Generator: Adobe Illustrator 17.1.0, SVG Export Plug-In . SVG Version: 6.00 Build 0)  -->
<!DOCTYPE svg PUBLIC "-//W3C//DTD SVG 1.1//EN" "http://www.w3.org/Graphics/SVG/1.1/DTD/svg11.dtd">
<svg version="1.1" id="Layer_1" xmlns="http://www.w3.org/2000/svg" xmlns:xlink="http://www.w3.org/1999/xlink" x="0px" y="0px" viewBox="0 0 50 50" enable-background="new 0 0 50 50" xml:space="preserve">
<g>
	<path fill="#6BC11F" d="M35.5,17.5c-0.4-3.1-3-5.4-6.1-5.4c-1.5,0-2.9,0.6-3.9,1.5c-1-1.3-2.6-2.1-4.3-2.1c-2.6,0-4.8,1.9-5.4,4.3   c-2.9,0.2-5.1,2.6-5.1,5.5c0,3,2.5,5.5,5.5,5.5c0.6,0,1.3-0.1,1.8-0.3c1,1.4,2.6,2.3,4.5,2.3c1.1,0,2.2-0.3,3-0.9   c1,1,2.3,1.6,3.8,1.6c2.2,0,4.1-1.3,5-3.2c0.3,0.1,0.5,0.1,0.8,0.1c2.4,0,4.4-2,4.4-4.4C39.4,19.5,37.7,17.7,35.5,17.5z"/>
	<path fill="#6BC11F" d="M16.2,29.3c0,0-1.7,2.8-1.7,3.7s0.8,1.7,1.7,1.7c0.9,0,1.7-0.8,1.7-1.7S16.2,29.3,16.2,29.3z"/>
	<path fill="#6BC11F" d="M18.9,37c0,0.9,0.8,1.7,1.7,1.7s1.7-0.8,1.7-1.7s-1.7-3.7-1.7-3.7S18.9,36,18.9,37z"/>
	<path fill="#6BC11F" d="M25,29.3c0,0-1.7,2.8-1.7,3.7s0.8,1.7,1.7,1.7s1.7-0.8,1.7-1.7S25,29.3,25,29.3z"/>
	<path fill="#6BC11F" d="M27.7,37c0,0.9,0.8,1.7,1.7,1.7s1.7-0.8,1.7-1.7s-1.7-3.7-1.7-3.7S27.7,36,27.7,37z"/>
	<path fill="#6BC11F" d="M32.1,33c0,0.9,0.8,1.7,1.7,1.7s1.7-0.8,1.7-1.7s-1.7-3.7-1.7-3.7S32.1,32,32.1,33z"/>
</g>
</svg>