<?xml version="1.0" encoding="utf-8"?>
<!-- Generator: Adobe Illustrator 15.1.0, SVG Export Plug-In . SVG Version: 6.00 Build 0)  -->
<!DOCTYPE svg PUBLIC "-//W3C//DTD SVG 1.1//EN" "http://www.w3.org/Graphics/SVG/1.1/DTD/svg11.dtd">
<svg version="1.1" id="Layer_1" xmlns="http://www.w3.org/2000/svg" xmlns:xlink="http://www.w3.org/1999/xlink" x="0px" y="0px"
	 width="102.488px" height="104.584px" viewBox="0 0 102.488 104.584" enable-background="new 0 0 102.488 104.584"
	 xml:space="preserve">
<path fill="#414042" d="M85.27,42.299c-0.105-0.004-0.216-0.005-0.322-0.008c-3.354-4.121-8.427-6.559-13.752-6.559
	c-6.336,0-12.193,3.436-15.339,8.866c-0.61-0.079-1.226-0.13-1.841-0.13c-7.937,0-14.393,6.456-14.393,14.391
	c0,7.937,6.456,14.394,14.393,14.394h30.588c8.539,0,15.486-6.945,15.486-15.484C100.09,49.446,93.581,42.652,85.27,42.299z
	 M84.604,68.252H54.016c-5.179,0-9.393-4.214-9.393-9.394c0-5.179,4.214-9.391,9.393-9.391c0.504,0,1.012,0.041,1.51,0.122
	c1.996,0.322,3.801,1.263,5.219,2.719l3.582-3.488c-1.051-1.079-2.244-1.969-3.539-2.661c2.356-3.351,6.237-5.428,10.408-5.428
	c2.817,0,5.526,0.969,7.729,2.655c-2.203,0.87-4.21,2.224-5.827,4.018l3.715,3.348c1.987-2.205,4.827-3.47,7.793-3.47
	c0.154,0,0.306,0.005,0.454,0.012c5.626,0.238,10.032,4.838,10.032,10.473C95.09,63.549,90.386,68.252,84.604,68.252z
	 M77.747,11.304c-0.307-0.013-0.614-0.021-0.926-0.023C71.204,4.201,62.596,0,53.549,0c-10.8,0-20.78,5.95-25.983,15.32
	c-1.193-0.181-2.399-0.28-3.593-0.28C10.754,15.04,0,25.793,0,39.011c0,13.22,10.754,23.975,23.973,23.975h12.581
	c-0.313-1.327-0.497-2.704-0.497-4.126c0-0.98,0.101-1.936,0.252-2.874H23.973C14.615,55.986,7,48.371,7,39.011
	c0-9.357,7.614-16.971,16.973-16.971c0.904,0,1.822,0.074,2.729,0.221c3.607,0.582,6.868,2.281,9.431,4.913l5.016-4.883
	c-1.966-2.02-4.231-3.635-6.702-4.835C38.588,11.023,45.791,7,53.55,7c5.51,0,10.81,2.043,14.909,5.611
	c-4.199,1.401-8.021,3.868-11.039,7.219l5.201,4.686c3.572-3.965,8.68-6.239,14.013-6.239c0.272,0,0.544,0.011,0.813,0.022
	C87.564,18.728,95.489,27,95.489,37.132c0,1.593-0.221,3.133-0.595,4.611c2.209,1.424,4.088,3.299,5.544,5.478
	c1.32-3.102,2.05-6.512,2.05-10.089C102.488,23.238,91.62,11.893,77.747,11.304z M17.342,74.844l1.498,0.896l1.875-1.045
	l0.031-2.146l-1.842-1.102l-1.875,1.045l-0.027,1.746l-0.385-0.23l-0.014,0.01l0.021-0.895l-0.586-0.357l-0.461,0.25l-0.004-0.523
	l-0.598-0.339l-0.768,0.453v-0.015l-0.389-0.225l1.514-0.873v-2.146l-1.861-1.072l-1.859,1.072v2.146l1.514,0.873l-0.389,0.225
	v0.017l-0.77-0.455l-0.598,0.339l-0.006,0.523l-0.459-0.25l-0.586,0.357l0.021,0.895l-0.014-0.01l-0.385,0.23l-0.027-1.746
	l-1.875-1.045l-1.844,1.102l0.033,2.146l1.875,1.045l1.5-0.896l0.006,0.449l0.014,0.008l-0.77,0.449l0.004,0.687l0.289,0.166
	l-0.291,0.166L8.85,77.456l0.773,0.452l-0.016,0.009l-0.006,0.446l-1.5-0.896l-1.875,1.047l-0.033,2.145l1.844,1.102l1.875-1.043
	l0.027-1.746l0.385,0.229l0.012-0.006l-0.021,0.889l0.586,0.358l0.461-0.252l0.006,0.526l0.598,0.336l0.77-0.451v0.015l0.389,0.226
	l-1.514,0.873v2.146l1.859,1.072l1.861-1.072v-2.146l-1.514-0.873l0.389-0.226V80.6l0.768,0.451l0.598-0.336l0.004-0.526
	l0.463,0.252l0.586-0.358l-0.021-0.889l0.012,0.006l0.385-0.229l0.027,1.746l1.875,1.043l1.842-1.102l-0.031-2.145l-1.875-1.047
	l-1.498,0.896l-0.008-0.446l-0.016-0.009l0.773-0.452l-0.006-0.687l-0.291-0.166l0.291-0.166l0.002-0.687l-0.768-0.449l0.014-0.008
	L17.342,74.844z M17.887,73.736l1.539-0.856c0.17-0.096,0.387-0.033,0.482,0.137c0.095,0.172,0.033,0.389-0.137,0.481l-1.541,0.858
	c-0.17,0.097-0.387,0.035-0.482-0.137C17.655,74.049,17.715,73.834,17.887,73.736z M9.198,74.219
	c-0.096,0.172-0.312,0.232-0.484,0.137l-1.539-0.858c-0.17-0.094-0.232-0.311-0.137-0.481c0.094-0.17,0.311-0.231,0.482-0.137
	l1.539,0.856C9.231,73.834,9.291,74.049,9.198,74.219z M8.973,79.519l-1.539,0.856c-0.174,0.096-0.389,0.035-0.484-0.139
	c-0.096-0.17-0.033-0.387,0.137-0.482l1.541-0.856c0.172-0.099,0.389-0.033,0.482,0.137C9.205,79.208,9.143,79.422,8.973,79.519z
	 M17.836,79.035c0.096-0.17,0.311-0.233,0.482-0.137l1.541,0.856c0.17,0.096,0.232,0.312,0.137,0.482
	c-0.096,0.174-0.312,0.234-0.482,0.139l-1.539-0.856C17.801,79.422,17.741,79.208,17.836,79.035z M13.118,71.353v-1.765
	c0-0.195,0.158-0.354,0.354-0.354c0.197,0,0.355,0.159,0.355,0.354v1.765c0,0.194-0.158,0.354-0.355,0.354
	C13.276,71.709,13.118,71.549,13.118,71.353z M13.827,81.953v1.763c0,0.196-0.158,0.354-0.355,0.354
	c-0.195,0-0.354-0.158-0.354-0.354v-1.763c0-0.196,0.158-0.354,0.354-0.354C13.668,81.596,13.827,81.756,13.827,81.953z
	 M16.692,76.896l0.006,0.664l-1.645-0.917l-0.729,0.437l0.012,0.849l1.643,0.916l-0.564,0.344l0.02,0.752l-0.65-0.383l-0.574,0.326
	v-1.879l-0.736-0.427l-0.734,0.427v1.881l-0.576-0.328l-0.65,0.383l0.02-0.752l-0.566-0.344l1.643-0.916l0.014-0.849l-0.729-0.437
	l-1.645,0.917l0.006-0.664l-0.5-0.293l0.5-0.291l-0.004-0.661l1.643,0.915l0.729-0.437l-0.014-0.85l-1.643-0.915l0.566-0.345
	l-0.018-0.754l0.648,0.383l0.576-0.328v1.883l0.734,0.426l0.736-0.426v-1.88l0.574,0.325l0.648-0.383l-0.018,0.754l0.566,0.345
	l-1.645,0.915l-0.012,0.85l0.729,0.437l1.643-0.915l-0.006,0.661l0.502,0.291L16.692,76.896z M34.389,78.436l0.236-0.141
	l0.016,1.064l1.143,0.637l1.125-0.672l-0.02-1.307l-1.145-0.639l-0.912,0.545l-0.006-0.271l-0.008-0.005l0.471-0.276l-0.004-0.418
	l-0.178-0.102l0.178-0.102l0.002-0.418l-0.469-0.273l0.008-0.006l0.006-0.273l0.912,0.547l1.145-0.637l0.02-1.309l-1.125-0.672
	l-1.143,0.637l-0.016,1.064l-0.236-0.142l-0.008,0.006l0.014-0.545l-0.357-0.22l-0.281,0.153l-0.002-0.319l-0.365-0.207
	l-0.467,0.276v-0.009l-0.238-0.137l0.924-0.531v-1.311l-1.135-0.653l-1.133,0.653v1.311l0.922,0.531l-0.238,0.137v0.01l-0.469-0.277
	l-0.363,0.207l-0.004,0.319L30.91,74.51l-0.357,0.22l0.012,0.545l-0.008-0.006l-0.234,0.142l-0.018-1.064l-1.143-0.637l-1.123,0.672
	l0.02,1.309l1.143,0.637l0.914-0.547l0.004,0.273l0.01,0.006l-0.469,0.273l0.002,0.418l0.176,0.102l-0.178,0.102l-0.002,0.418
	l0.471,0.276l-0.01,0.005l-0.004,0.271l-0.914-0.545l-1.143,0.639l-0.02,1.307l1.123,0.672l1.143-0.637l0.018-1.064l0.234,0.141
	l0.008-0.004l-0.014,0.541l0.357,0.22l0.281-0.154l0.004,0.321l0.363,0.205l0.469-0.275v0.01l0.238,0.138l-0.922,0.532v1.309
	l1.133,0.654l1.135-0.654v-1.309l-0.924-0.532l0.238-0.138v-0.01l0.467,0.275l0.365-0.205l0.002-0.321l0.283,0.154l0.355-0.22
	l-0.012-0.541L34.389,78.436z M35.133,78.336c0.059-0.104,0.189-0.144,0.295-0.084l0.939,0.522c0.104,0.06,0.141,0.19,0.082,0.295
	s-0.189,0.144-0.293,0.084l-0.939-0.522C35.112,78.572,35.075,78.441,35.133,78.336z M35.164,75.105l0.938-0.522
	c0.104-0.058,0.236-0.021,0.295,0.084c0.059,0.104,0.02,0.235-0.084,0.295l-0.939,0.521c-0.104,0.061-0.236,0.021-0.293-0.083
	C35.022,75.295,35.059,75.164,35.164,75.105z M29.866,75.4c-0.059,0.104-0.191,0.144-0.295,0.083l-0.939-0.521
	c-0.104-0.06-0.141-0.189-0.082-0.295c0.057-0.104,0.189-0.142,0.295-0.084l0.938,0.522C29.885,75.164,29.922,75.295,29.866,75.4z
	 M29.729,78.631l-0.939,0.522c-0.105,0.06-0.236,0.021-0.295-0.084c-0.057-0.104-0.02-0.235,0.084-0.295l0.939-0.522
	c0.105-0.06,0.236-0.021,0.295,0.084C29.869,78.441,29.832,78.572,29.729,78.631z M32.256,73.652v-1.075
	c0-0.119,0.096-0.216,0.215-0.216c0.121,0,0.217,0.097,0.217,0.216v1.075c0,0.119-0.096,0.217-0.217,0.217
	C32.352,73.869,32.256,73.771,32.256,73.652z M32.688,80.115v1.075c0,0.119-0.096,0.216-0.217,0.216
	c-0.119,0-0.215-0.097-0.215-0.216v-1.075c0-0.119,0.096-0.217,0.215-0.217C32.592,79.898,32.688,79.996,32.688,80.115z M33,77.662
	l1,0.558l-0.344,0.209l0.012,0.459l-0.396-0.232l-0.35,0.199v-1.146l-0.449-0.26l-0.449,0.26v1.147l-0.35-0.2l-0.396,0.232
	l0.012-0.459l-0.346-0.209l1.002-0.558l0.008-0.518l-0.445-0.267l-1.002,0.56l0.004-0.405l-0.305-0.179l0.305-0.179l-0.002-0.401
	l1,0.56l0.445-0.268l-0.008-0.52l-1.002-0.557l0.346-0.211l-0.012-0.459l0.396,0.232l0.35-0.199v1.146l0.449,0.26l0.449-0.26v-1.146
	l0.35,0.196l0.395-0.232l-0.01,0.46l0.346,0.211l-1.002,0.558l-0.008,0.519l0.443,0.267l1.002-0.559l-0.004,0.402l0.307,0.178
	l-0.305,0.179l0.002,0.405l-1.002-0.561l-0.443,0.268L33,77.662z M66.754,83.781l0.912,0.547l1.145-0.637l0.02-1.31l-1.125-0.672
	l-1.143,0.637l-0.016,1.065l-0.236-0.142l-0.008,0.006l0.014-0.545l-0.357-0.219l-0.28,0.152l-0.002-0.318l-0.365-0.207
	l-0.467,0.275v-0.009l-0.238-0.137l0.925-0.531v-1.31l-1.136-0.654l-1.133,0.654v1.31l0.922,0.531l-0.237,0.137v0.011l-0.47-0.277
	l-0.362,0.207l-0.004,0.318l-0.279-0.152l-0.357,0.219l0.012,0.545l-0.008-0.006l-0.234,0.142l-0.018-1.065l-1.143-0.637
	l-1.123,0.672l0.02,1.31l1.143,0.637l0.914-0.547l0.004,0.274l0.011,0.005l-0.47,0.272l0.002,0.42l0.177,0.101l-0.179,0.102
	l-0.002,0.419l0.472,0.275l-0.011,0.005l-0.004,0.272l-0.914-0.547l-1.143,0.64l-0.02,1.307l1.123,0.673l1.143-0.638l0.018-1.063
	l0.234,0.14l0.008-0.004l-0.014,0.542l0.357,0.219l0.281-0.154l0.004,0.321l0.362,0.205l0.47-0.274v0.008l0.237,0.139l-0.922,0.531
	v1.31l1.133,0.654l1.136-0.654v-1.31l-0.925-0.531l0.238-0.139v-0.008l0.467,0.274l0.365-0.205l0.002-0.321l0.282,0.154l0.355-0.219
	l-0.012-0.542l0.006,0.004l0.236-0.14l0.016,1.063l1.143,0.638l1.125-0.673l-0.02-1.307l-1.145-0.64l-0.912,0.547l-0.006-0.272
	l-0.008-0.005l0.471-0.275l-0.004-0.419l-0.178-0.102l0.178-0.101l0.002-0.42l-0.469-0.272l0.008-0.005L66.754,83.781z
	 M67.086,83.105l0.938-0.522c0.104-0.058,0.236-0.021,0.295,0.084s0.021,0.235-0.084,0.295l-0.938,0.521
	c-0.104,0.061-0.236,0.021-0.294-0.083C66.944,83.295,66.981,83.164,67.086,83.105z M61.788,83.4
	c-0.06,0.104-0.191,0.144-0.295,0.083l-0.939-0.521c-0.104-0.06-0.141-0.189-0.082-0.295c0.057-0.104,0.189-0.142,0.295-0.085
	l0.938,0.523C61.807,83.164,61.844,83.295,61.788,83.4z M61.651,86.631l-0.939,0.522c-0.104,0.06-0.235,0.021-0.295-0.084
	c-0.057-0.104-0.02-0.235,0.084-0.295l0.939-0.522c0.105-0.06,0.236-0.021,0.295,0.084C61.792,86.441,61.754,86.572,61.651,86.631z
	 M67.055,86.336c0.059-0.104,0.189-0.144,0.295-0.084l0.939,0.522c0.104,0.06,0.141,0.19,0.082,0.295
	c-0.06,0.104-0.189,0.144-0.293,0.084l-0.939-0.522C67.034,86.572,66.997,86.441,67.055,86.336z M64.178,81.652v-1.075
	c0-0.119,0.096-0.216,0.215-0.216c0.121,0,0.217,0.096,0.217,0.216v1.075c0,0.119-0.096,0.217-0.217,0.217
	C64.274,81.869,64.178,81.771,64.178,81.652z M64.61,88.115v1.075c0,0.119-0.096,0.216-0.217,0.216
	c-0.119,0-0.215-0.097-0.215-0.216v-1.075c0-0.119,0.096-0.217,0.215-0.217C64.514,87.898,64.61,87.996,64.61,88.115z
	 M66.358,85.032l0.002,0.405l-1.002-0.56l-0.443,0.267l0.009,0.518l1,0.558l-0.345,0.209l0.013,0.459l-0.396-0.232l-0.351,0.199
	v-1.146l-0.449-0.26l-0.448,0.26v1.147l-0.351-0.2l-0.396,0.232l0.012-0.459l-0.346-0.209l1.002-0.558l0.008-0.518l-0.445-0.267
	l-1.002,0.56l0.004-0.405l-0.305-0.179l0.305-0.179l-0.002-0.401l1,0.56l0.445-0.268l-0.008-0.52l-1.002-0.557l0.346-0.211
	l-0.012-0.459l0.396,0.232l0.351-0.199v1.146l0.448,0.26l0.449-0.26v-1.146l0.351,0.196l0.395-0.232l-0.01,0.46l0.346,0.211
	l-1.002,0.558l-0.008,0.519l0.443,0.267l1.002-0.559l-0.005,0.402l0.308,0.178L66.358,85.032z M85.071,83.383l1.498,0.897
	l1.877-1.046l0.031-2.146l-1.842-1.103l-1.875,1.045l-0.027,1.747l-0.385-0.23l-0.014,0.01l0.021-0.895l-0.586-0.357l-0.461,0.25
	l-0.006-0.523l-0.599-0.339l-0.766,0.452v-0.014l-0.389-0.226l1.512-0.873v-2.146l-1.859-1.072l-1.858,1.072v2.146l1.514,0.873
	l-0.389,0.226v0.016l-0.771-0.454l-0.599,0.339l-0.004,0.523l-0.459-0.25l-0.586,0.357l0.021,0.895l-0.016-0.01l-0.385,0.23
	l-0.027-1.747l-1.873-1.045l-1.844,1.103l0.033,2.146l1.875,1.046l1.498-0.897l0.008,0.449l0.012,0.008l-0.768,0.449l0.004,0.688
	l0.289,0.164l-0.291,0.166l-0.004,0.688l0.771,0.451l-0.014,0.008l-0.009,0.448l-1.498-0.896l-1.875,1.047l-0.032,2.146l1.844,1.103
	l1.873-1.045l0.026-1.746l0.386,0.229l0.015-0.006l-0.021,0.891l0.586,0.357l0.461-0.252l0.004,0.525l0.598,0.336l0.771-0.451v0.016
	l0.389,0.225l-1.514,0.873v2.146l1.859,1.072l1.858-1.072v-2.146l-1.512-0.873l0.389-0.225v-0.016l0.767,0.451l0.598-0.336
	l0.006-0.525l0.463,0.252l0.586-0.357l-0.021-0.891l0.013,0.006l0.385-0.229l0.027,1.746l1.875,1.045l1.842-1.103l-0.03-2.146
	l-1.875-1.047l-1.5,0.896l-0.007-0.448l-0.016-0.008l0.771-0.451l-0.004-0.688l-0.291-0.166l0.291-0.164l0.002-0.688l-0.768-0.449
	l0.014-0.008L85.071,83.383z M85.618,82.276l1.539-0.857c0.17-0.095,0.387-0.033,0.482,0.139c0.096,0.17,0.033,0.387-0.139,0.48
	l-1.539,0.858c-0.17,0.096-0.387,0.034-0.482-0.138C85.385,82.588,85.444,82.373,85.618,82.276z M76.926,82.758
	c-0.094,0.172-0.311,0.232-0.482,0.138l-1.539-0.858c-0.172-0.095-0.231-0.312-0.139-0.48c0.096-0.172,0.312-0.232,0.484-0.139
	l1.539,0.857C76.961,82.373,77.022,82.588,76.926,82.758z M76.704,88.057l-1.541,0.857c-0.172,0.096-0.388,0.035-0.482-0.139
	c-0.096-0.17-0.033-0.387,0.137-0.48l1.541-0.858c0.17-0.097,0.387-0.033,0.482,0.138C76.934,87.746,76.874,87.961,76.704,88.057z
	 M85.565,87.575c0.098-0.171,0.312-0.234,0.484-0.138l1.539,0.858c0.172,0.094,0.234,0.312,0.137,0.48
	c-0.094,0.174-0.311,0.234-0.482,0.139l-1.539-0.857C85.532,87.961,85.471,87.746,85.565,87.575z M80.846,79.891v-1.764
	c0-0.195,0.16-0.354,0.355-0.354c0.196,0,0.354,0.158,0.354,0.354v1.764c0,0.195-0.158,0.355-0.354,0.355
	C81.006,80.248,80.846,80.088,80.846,79.891z M81.557,90.493v1.764c0,0.194-0.158,0.354-0.355,0.354
	c-0.194,0-0.354-0.158-0.354-0.354v-1.764c0-0.195,0.16-0.355,0.354-0.355C81.399,90.137,81.557,90.297,81.557,90.493z
	 M84.422,85.435l0.004,0.665l-1.643-0.918l-0.729,0.437l0.012,0.851l1.644,0.914l-0.564,0.344l0.02,0.752l-0.649-0.383l-0.574,0.326
	v-1.879l-0.735-0.427l-0.734,0.427v1.881l-0.578-0.328l-0.648,0.383l0.019-0.752L78.7,87.383l1.643-0.914l0.014-0.851l-0.729-0.437
	L77.982,86.1l0.007-0.665l-0.5-0.292l0.5-0.293l-0.004-0.659l1.643,0.915l0.729-0.438l-0.014-0.85L78.7,82.905l0.565-0.346
	l-0.021-0.752l0.648,0.381l0.578-0.328v1.883l0.734,0.426l0.735-0.426v-1.879l0.574,0.324l0.647-0.383l-0.02,0.754l0.566,0.346
	l-1.644,0.914l-0.012,0.85l0.729,0.438l1.643-0.915L84.42,84.85l0.502,0.293L84.422,85.435z M50.131,90.463l2.098,1.256l2.627-1.465
	l0.045-3.006l-2.58-1.543l-2.626,1.463l-0.037,2.446l-0.539-0.323l-0.02,0.014l0.029-1.252l-0.82-0.502l-0.645,0.352l-0.006-0.734
	l-0.838-0.474l-1.074,0.633v-0.021l-0.545-0.312l2.119-1.223v-3.006l-2.604-1.502l-2.604,1.502v3.006l2.117,1.223l-0.543,0.312
	v0.022l-1.08-0.636l-0.836,0.475l-0.008,0.733l-0.643-0.353l-0.818,0.502l0.027,1.252l-0.02-0.014l-0.539,0.324l-0.037-2.445
	l-2.625-1.464l-2.58,1.543l0.045,3.005l2.625,1.465l2.1-1.256l0.01,0.629l0.018,0.011l-1.076,0.63l0.006,0.96l0.406,0.231
	l-0.408,0.231l-0.006,0.962l1.082,0.633l-0.021,0.012l-0.01,0.627l-2.1-1.254l-2.625,1.465l-0.045,3.004l2.58,1.543l2.625-1.463
	l0.037-2.444l0.539,0.319l0.018-0.008l-0.029,1.244l0.82,0.502l0.645-0.354l0.008,0.736l0.836,0.472l1.08-0.633v0.021l0.543,0.315
	l-2.117,1.222v3.005l2.604,1.504l2.604-1.504v-3.005L45.2,98.853l0.545-0.315v-0.021l1.074,0.632l0.838-0.473l0.006-0.735
	l0.646,0.354l0.822-0.502L49.1,96.549l0.018,0.008l0.539-0.32l0.037,2.443l2.626,1.464l2.58-1.543l-0.045-3.003l-2.627-1.465
	l-2.098,1.254l-0.01-0.627L50.1,94.749l1.08-0.634l-0.006-0.962l-0.408-0.232l0.408-0.23l0.004-0.96l-1.076-0.63l0.02-0.012
	L50.131,90.463z M50.895,88.91l2.154-1.202c0.238-0.132,0.543-0.047,0.676,0.192c0.135,0.239,0.047,0.543-0.191,0.676l-2.156,1.201
	c-0.239,0.135-0.542,0.049-0.675-0.19C50.569,89.346,50.653,89.045,50.895,88.91z M38.727,89.586
	c-0.135,0.239-0.438,0.325-0.678,0.19l-2.156-1.201c-0.238-0.133-0.324-0.437-0.191-0.676s0.438-0.324,0.678-0.192l2.154,1.202
	C38.774,89.045,38.86,89.344,38.727,89.586z M38.412,97.006l-2.156,1.199c-0.24,0.137-0.543,0.051-0.678-0.191
	c-0.133-0.238-0.045-0.543,0.193-0.676l2.156-1.201c0.24-0.135,0.543-0.047,0.676,0.192C38.737,96.568,38.651,96.871,38.412,97.006z
	 M50.823,96.33c0.135-0.239,0.436-0.327,0.677-0.192l2.156,1.201c0.238,0.133,0.326,0.438,0.191,0.676
	c-0.135,0.242-0.438,0.328-0.676,0.191l-2.156-1.199C50.776,96.871,50.69,96.568,50.823,96.33z M44.215,85.571v-2.47
	c0-0.273,0.223-0.496,0.496-0.496c0.275,0,0.498,0.223,0.498,0.496v2.47c0,0.273-0.223,0.497-0.498,0.497
	C44.438,86.068,44.215,85.844,44.215,85.571z M45.209,100.417v2.466c0,0.273-0.223,0.496-0.498,0.496
	c-0.273,0-0.496-0.223-0.496-0.496v-2.466c0-0.277,0.223-0.498,0.496-0.498C44.987,99.918,45.209,100.139,45.209,100.417z
	 M49.223,93.334l0.006,0.93l-2.303-1.284l-1.02,0.61l0.018,1.188l2.299,1.28l-0.791,0.48l0.027,1.055l-0.91-0.535l-0.805,0.455
	v-2.631l-1.029-0.596l-1.029,0.596v2.633l-0.809-0.457l-0.91,0.535l0.027-1.055l-0.791-0.48l2.301-1.28l0.018-1.188l-1.021-0.61
	L40.2,94.264l0.008-0.93l-0.701-0.41l0.701-0.408l-0.006-0.926l2.299,1.281l1.021-0.611l-0.018-1.188l-2.301-1.281l0.791-0.484
	l-0.025-1.053l0.908,0.533l0.809-0.458v2.636l1.029,0.597l1.029-0.597v-2.631l0.805,0.453l0.908-0.535l-0.025,1.055l0.793,0.484
	l-2.301,1.281l-0.018,1.188l1.02,0.611l2.301-1.281l-0.008,0.926l0.703,0.408L49.223,93.334z"/>
</svg>
