<?xml version="1.0" encoding="UTF-8"?>
<!-- Generator: Adobe Illustrator 19.1.0, SVG Export Plug-In . SVG Version: 6.00 Build 0)  -->
<svg version="1.1" id="Layer_1" xmlns="http://www.w3.org/2000/svg" xmlns:xlink="http://www.w3.org/1999/xlink" x="0px" y="0px" viewBox="0 0 400 400" enable-background="new 0 0 400 400" xml:space="preserve">
<metadata><?xpacket begin="﻿" id="W5M0MpCehiHzreSzNTczkc9d"?>
<x:xmpmeta xmlns:x="adobe:ns:meta/" x:xmptk="Adobe XMP Core 5.6-c067 79.157747, 2015/03/30-23:40:42        ">
   <rdf:RDF xmlns:rdf="http://www.w3.org/1999/02/22-rdf-syntax-ns#">
      <rdf:Description rdf:about=""/>
   </rdf:RDF>
</x:xmpmeta>
                                                                                                    
                                                                                                    
                                                                                                    
                                                                                                    
                                                                                                    
                                                                                                    
                                                                                                    
                                                                                                    
                                                                                                    
                                                                                                    
                                                                                                    
                                                                                                    
                                                                                                    
                                                                                                    
                                                                                                    
                                                                                                    
                                                                                                    
                                                                                                    
                                                                                                    
                                                                                                    
                           
<?xpacket end="w"?></metadata>
<path fill="#328BCB" d="M274.8,257.3c0,0-55,26.9-64,32.5c-9,5.6-12.4,8.2-16.9,14.7c-13.9,20.3-8.6,48,11.9,61.9  c20.5,13.8,48.4,8.5,62.3-11.8c4.5-6.6,5.3-10.3,7.6-21.5c2.3-11.2,6.2-71.1,6.2-71.1C282.3,257.3,279.1,255.2,274.8,257.3z"/>
<path fill="#328BCB" d="M155.8,257.3c0,0-55,26.9-64,32.5c-9,5.6-12.4,8.2-16.9,14.7c-13.9,20.3-8.6,48,11.9,61.9  c20.5,13.8,48.4,8.5,62.3-11.8c4.5-6.6,5.3-10.3,7.6-21.5c2.3-11.2,6.2-71.1,6.2-71.1C163.2,257.3,160.1,255.2,155.8,257.3z"/>
<path fill="#D8D9D9" d="M283.1,76.4c-6.2,0-12.3,0.8-18,2.4c-10.8-31.7-39.9-54.4-74.2-54.4c-42,0-76.3,34.1-78.5,77.1  c-2.6-0.3-5.2-0.6-7.8-0.6c-32.7,0-59.1,27.5-59.1,61.4c0,33.9,26.5,61.4,59.1,61.4h178.5c39.2,0,70.9-32.9,70.9-73.6  C354,109.4,322.2,76.4,283.1,76.4z"/>
</svg>