<?xml version="1.0" encoding="utf-8"?>
<!-- Generator: Adobe Illustrator 16.0.0, SVG Export Plug-In . SVG Version: 6.00 Build 0)  -->
<!DOCTYPE svg PUBLIC "-//W3C//DTD SVG 1.1//EN" "http://www.w3.org/Graphics/SVG/1.1/DTD/svg11.dtd">
<svg version="1.1" id="icon" xmlns="http://www.w3.org/2000/svg" xmlns:xlink="http://www.w3.org/1999/xlink" x="0px" y="0px"
	 width="500px" height="500px" viewBox="0 0 500 500" enable-background="new 0 0 500 500" xml:space="preserve">
<g>
	<path fill="#FFFFFF" d="M250,134.267c-63.938,0-115.733,51.813-115.733,115.734c0,63.937,51.796,115.733,115.733,115.733
		c63.97,0,115.732-51.797,115.732-115.733C365.732,186.079,313.971,134.267,250,134.267z"/>
	<path fill="#FFFFFF" d="M430.284,233.467c-7.978-86.962-76.693-155.711-163.75-163.638V2h-33.067v67.829
		C146.41,77.756,77.692,146.505,69.716,233.467H2v33.067h67.715c7.977,86.93,76.694,155.678,163.752,163.653V498h33.068v-67.813
		c87.056-7.977,155.771-76.725,163.75-163.653H498v-33.067H430.284z M250,398.801c-82.15,0-148.801-66.65-148.801-148.801
		c0-82.167,66.65-148.801,148.801-148.801c82.18,0,148.799,66.635,148.799,148.801C398.8,332.15,332.181,398.801,250,398.801z"/>
</g>
</svg>
