<?xml version="1.0" encoding="utf-8"?>
<!-- Generator: Adobe Illustrator 16.0.0, SVG Export Plug-In . SVG Version: 6.00 Build 0)  -->
<!DOCTYPE svg PUBLIC "-//W3C//DTD SVG 1.1//EN" "http://www.w3.org/Graphics/SVG/1.1/DTD/svg11.dtd">
<svg version="1.1" id="Layer_1" xmlns="http://www.w3.org/2000/svg" xmlns:xlink="http://www.w3.org/1999/xlink" x="0px" y="0px"
	 width="500px" height="500px" viewBox="0 0 500 500" enable-background="new 0 0 500 500" xml:space="preserve">
<g>
	<g>
		<path fill-rule="evenodd" clip-rule="evenodd" fill="#59A1D3" d="M113.977,115.339c2.899,4.844,14.121-1.967,13.468,8.981
			c-6.257-3.009-11.605,1.331-16.46-1.502C112.673,121.016,115.271,120.101,113.977,115.339z"/>
		<path fill-rule="evenodd" clip-rule="evenodd" fill="#59A1D3" d="M75.073,118.32c-6.383,7.479,6.417,5.775,5.984,11.972
			c5.337-1.26,0.186-3.688,1.496-8.97c3.036,2.46,5.973,4.997,5.995,10.465c-6.811-1.824-5.874,4.11-11.972,2.998
			c-5.699-4.066-0.488-10.225-11.967-8.986C66.466,121.695,69.326,118.556,75.073,118.32z"/>
		<path fill-rule="evenodd" clip-rule="evenodd" fill="#59A1D3" d="M112.486,128.802c5.184,1.2,5.743-2.229,10.472-1.496
			c1.282,1.211,0.876,4.093,2.986,4.482c-1.058,5.431-10.915,2.066-16.455,2.998c-2.685-4.296-4.257-9.693-7.484-13.463
			C105.687,118.72,111.029,124.49,112.486,128.802z"/>
		<path fill-rule="evenodd" clip-rule="evenodd" fill="#59A1D3" d="M329.431,121.323c-5.852,8.121-21.38,14.499-16.46,28.427
			c-13.556,4.821-3.463-12.395-2.98-19.458C315.47,126.314,321.475,122.846,329.431,121.323z"/>
		<path fill-rule="evenodd" clip-rule="evenodd" fill="#59A1D3" d="M100.514,122.818c0,2.981,0,5.983,0,8.97
			c-5.655,0.176-8.054-2.92-8.98-7.468C96.109,125.394,95.934,121.729,100.514,122.818z"/>
		<path fill-rule="evenodd" clip-rule="evenodd" fill="#59A1D3" d="M75.073,164.714c3.228,1.282,7.37,0.137,10.477,4.482
			c3.151-0.411-2.164-3.989,1.496-5.984c4.137,2.345,10.707,2.257,14.959,4.493c1.627-0.367,1.024-2.981,3.002-2.992
			c-1.633-9.063-7.896-30.75,5.978-26.942c-0.976,4.011-4.279,5.693-5.978,8.976c2.126,7.354,7.633,11.32,8.97,19.457
			c3.611-2.373,1.726-10.235,10.482-7.474c-2.06,1.918-1.479,6.498-1.501,10.466c-8.898-0.214-14.559,13.852-19.452,22.454
			c3.715,10.252,19.956,7.956,20.953,20.937c5.721-3.003-0.789-9.474,5.978-11.967c-2.91-6.657-1.375-8.51-2.992-16.449
			c5.452-2.652,7.397,0.537,13.474,2.986c1.315,5.299-3.852,7.698,1.485,8.976c4.827,1.337,2.115-4.883,4.493-5.984
			c3.819,7.162,6.641,15.309,13.468,19.446c-2.143,6.345-11.819,5.151-17.961,7.474c0.986,4.487,3.211-1.431,5.994,0
			c-3.282,3.123,1.304,4.854-1.501,7.49c-16.63-3.469-13.737,15.243-22.438,22.438c1.228,3.748,4.099,5.874,4.488,10.477
			c-4.707,0.22-5.14-3.835-5.989-7.474c-12.17,1.654-21.315-0.68-25.436,10.466c0.159,3.824,2.745,5.249,4.482,7.484
			c7.002,1.513,4.975-6.005,11.972-4.493c-4.75,8.504,6.91,8.833,5.989,17.951c16.986-9.118,28.164-1.009,43.391,6.005
			c1.085,4.559-2.586,4.384-1.501,8.964c9.134-3.266,17.222,1.074,23.939,4.493c-7.244,6.707-2.115,25.808-16.46,25.446
			c-2.844,18.093-27.386,22.455-25.43,40.395c-1.693,3.287-5.008,4.964-5.989,8.964c-0.8,5.304,5.299,3.682,4.488,8.986
			c-20.608-12.625-4.986-41.293-5.979-65.829c-8.844-8.768-21.534-22.695-8.98-32.932c-13.523-6.422-24.372-15.518-40.399-19.44
			c-1.2-9.293-7.874-13.085-13.457-17.961c0.679,5.293,6.69,5.26,5.978,11.967c-8.334-9.436-18.756-23.693-14.958-40.383
			c-8.712-13.15-18.377-38.229-40.405-28.433c1.173,1.332,1.616,3.364,1.501,5.973c-8.701-3.392-10.252,5.792-19.446,5.994
			c1.195-5.781,9.266-4.696,10.465-10.477c-3.545-3.441-11.627-2.356-10.465-10.482c-1.118-5.09,5.501-2.449,5.978-5.972
			c-0.022-4.472-11.09,2.104-8.98-4.493c-0.23-7.024,6.06,0.745,7.484-2.997c1.173-6.165-7.167-2.806-5.983-8.976
			c4.685,0.685,4.219-3.764,5.983-5.994c26.285,4.712,40.843,2.548,61.347,5.994c0.931-1.748,0.756-3.912,4.488-5.994
			c-1.83-2.658-8.669-0.291-5.989-7.479c-4.718-0.707-3.392,4.597-8.97,3.003c0.093-7.562,0.685-11.32,1.49-14.964
			c10.203,0.274,12.597,8.35,20.948,10.471c2.154-0.34,0.521-4.466,2.992-4.482c3.271,3.271,3.633,16.882,11.967,19.446
			C91.577,162.456,75.342,157.218,75.073,164.714z"/>
		<path fill-rule="evenodd" clip-rule="evenodd" fill="#59A1D3" d="M97.522,137.771c1.962,2.729,4.258,9.036,1.49,11.979
			C93.44,148.764,93.577,140.457,97.522,137.771z"/>
		<path fill-rule="evenodd" clip-rule="evenodd" fill="#59A1D3" d="M115.479,139.273c3.358,6.032,0.564,1.945,7.479,1.501
			c1.726,2.208,1.726,3.765,0,5.973c3.742,0.197,4.679,2.854,5.989-1.49c7.348,7.622,11.66,18.268,22.438,22.449
			c1.282,4.767-2.356,4.63-2.986,7.479c-5.518-8.454-16.559-11.386-20.953-20.958c-2.181,2.323-7.666,1.326-11.967,1.512
			C110.673,153.026,108.448,141.35,115.479,139.273z"/>
		<path fill-rule="evenodd" clip-rule="evenodd" fill="#59A1D3" d="M143.905,182.659c-5.627,4.071-6.395-9.512-16.46-5.972
			c0.767-4.734,9.518-1.458,8.98-7.49c4.669,2.811,10.411,4.553,10.471,11.961C141.62,180.521,138.99,179.53,143.905,182.659z"/>
		<path fill-rule="evenodd" clip-rule="evenodd" fill="#59A1D3" d="M200.754,170.692c4.559,3.123,8.953-2.28,13.479,1.501
			c-0.351,5.15-4.449,6.525-8.986,7.484C203.921,176.517,200.688,175.24,200.754,170.692z"/>
		<path fill-rule="evenodd" clip-rule="evenodd" fill="#59A1D3" d="M124.459,179.678c-1.282,0.274-1.425-0.581-1.501-1.501
			c-2.564-0.066-3.869,1.118-4.493,2.98c-1.622-0.367-1.014-2.97-2.986-2.98C115.829,173.393,125.171,174.747,124.459,179.678z"/>
		<path fill-rule="evenodd" clip-rule="evenodd" fill="#59A1D3" d="M431.172,215.579c3.331-4.181-1.721,12.608,7.484,7.479
			c-4.175,3.825-7.507,8.455-7.484,16.465c-5.053,3.408-13.765,3.178-14.947,10.477
			C411.227,239.601,437.111,236.642,431.172,215.579z"/>
		<path fill-rule="evenodd" clip-rule="evenodd" fill="#59A1D3" d="M401.254,267.95c1.173,5.381,11.441,9.458,5.984,16.46
			C402.065,282.131,401.123,275.566,401.254,267.95z"/>
		<path fill-rule="evenodd" clip-rule="evenodd" fill="#59A1D3" d="M396.762,284.41c4.098,4.187-1.765,11.135-2.981,14.97
			c-3.616,0.614-3.266-2.751-7.484-1.513C384.926,288.52,393.824,289.451,396.762,284.41z"/>
		<path fill-rule="evenodd" clip-rule="evenodd" fill="#59A1D3" d="M423.697,309.846c-1.161,5.172,1.403,6.586,4.494,7.484
			c3.232,0.241,0.679-5.314,1.49-7.484c6.41,5.566,9.194,14.762,16.46,19.451c1.731,10.718-4.329,13.611-5.983,20.942
			c-12.264,1.786-16.613-4.329-20.942-10.466c-10.554-1.084-15.266,3.683-23.944,4.482c-0.537-5.797-2.762-10.082-4.482-17.939
			C403.129,322.186,407.096,309.703,423.697,309.846z"/>
		<path fill-rule="evenodd" clip-rule="evenodd" fill="#59A1D3" d="M301.004,311.347c5.479,2.083,1.425,18.937-5.983,17.95
			C294.626,318.098,295.81,317.374,301.004,311.347z"/>
		<path fill-rule="evenodd" clip-rule="evenodd" fill="#59A1D3" d="M473.078,344.256c1.994,1.523,5.556,1.414,5.983,4.482
			c-3.419,7.068-5.381,15.572-14.97,16.46C466.612,357.855,478.535,354.94,473.078,344.256z"/>
		<path fill-rule="evenodd" clip-rule="evenodd" fill="#59A1D3" d="M372.827,288.903c1.731-8.733-6.794-20.142-11.967-26.937
			c-7.562,1.918-11.988,6.959-16.46,11.967c-0.975,5.469,3.244,5.731,2.992,10.477c-14.017-2.433-9.983-22.926-22.443-26.937
			c-12.482,2.027-16.461-4.471-23.945-7.474c-4.252,1.994,1.15,6.641,1.502,8.986c4.492,0,8.975,0,13.468,0
			c1.425,7.748-9.49,15.167-19.463,16.449c0.197,3.299,6.345,0.635,8.986,1.501c-3.44,15.232-22.597,16.8-14.959,38.893
			c-13.183,6.772-8.229,31.682-31.418,28.427c-9.282-19.562-5.644-35.846-11.967-55.353c0.45-3.463-4.318-1.665-4.493-4.493
			c-21.249,4.998-36.317-1.688-32.92-25.424c7.156-4.318,10.301-12.657,16.46-17.973c-5.501-3.254-6.224-5.523-4.493-13.457
			c4.734-2.061,5.008-0.334,10.477,0c0.592-5.595-1.184-8.783-5.984-8.976c10.499-3.474,16.876-11.057,20.953-20.958
			c2.159,2.329,4.954,4.021,5.984,7.479c3.518,0.038,4.405-2.57,8.964-1.485c0.241-6.296,7.058-6.904,4.493-11.967
			c3.134-0.63,3.979,1.014,5.983,1.49c0-1.49,0-2.992,0-4.493c-0.164-2.865-5.008,1.759-8.964,0
			c-2.488-9.452,4.712-9.238,4.471-16.454c-6.017,0.953-5.906,8.043-10.466,10.465c1.644,6.69,2.038,16.91-5.983,17.961
			c0.965-5.469-1.02-7.973-2.991-10.471c-3.857,0.131-1.578,6.4-7.485,4.482c2.795-20.142,14.038-31.846,26.926-41.89
			c7.693,4.784,20.821,4.137,22.454,14.964c-1.917,2.043-7.058,2.043-8.997,0c-3.32,0.213,1.951,3.759,0,7.479
			c13.217-3.266,16.932-15.988,34.433-14.964c1.907-0.345,1.962-4.455,0-4.482c4.143-4.049,8.208,4.686,11.967,5.979
			c-1.6-8.066-2.521-16.575,3.003-20.942c3.528,0.455,2.772,5.2,7.474,4.482c13.348-9.956,24.021-17.841,38.903-28.416
			c4.768,2.701,9.446,5.512,14.959,7.479c1.983,9.956-7.156,8.789-8.976,14.953c12.22-3.447,17.261,4.997,28.427,0
			c1.732,1.77,1.688,5.298,1.49,8.975c2.894,1.995,6.027-1.096,10.477,1.502c5.129,0.635,4.494-4.493,7.475-5.984
			c9.973,1.014,10.345,8.899,25.446,7.485c0,1.49,0,2.976,0,4.487c19.155-0.805,33.687,1.825,40.394,16.455
			c-3.935,4.608-5.041,1.008-8.965-1.501c-3.857,1.128-5.205,4.784-4.492,10.465c-19.189,2.762-24.833,19.068-32.92,32.931
			c-2.686-9.704,2.838-24.077,11.967-26.931c-5.184-4.4-12.965-3.041-13.457,4.493c-10.082-4.449-21.107,0.027-23.945,7.474
			c16.745,20.411-18.147,28.482-11.979,43.396c-5.632-2.186-4.186-14.821-13.457-8.986c9.557,11.632-3.923,37.331-16.46,29.922
			c-4.953,6.214,8.745,11.945,0,17.951c-5.293,0.821-3.682-5.282-8.975-4.472c-5.743,8.581,10.563,14.903,5.972,22.443
			c9.173,3.813,22.586,7.88,34.422,4.472c-19.375,9.644-50.268-3.31-52.372-25.425C364.434,277.419,366.351,289.331,372.827,288.903
			z M263.613,236.526c-3.727-4.762-5.775-11.184-11.979-13.468c-1.457,7.452,6.039,5.929,7.485,10.477
			c-2.247,2.257-2.696,6.295-5.983,7.479c-1.096-4.564,2.575-4.389,1.49-8.97c-4.603,1.112-2.871-4.109-7.474-3.002
			c-0.351,2.663,1.501,7.501-3.002,5.995c-0.482-3.474,0.241-5.748,1.49-7.479c-9.688-1.217-11.167,5.775-13.457,11.967
			c5.819-0.657,11.835-1.134,16.46-2.997c1.249,1.737,1.972,4.011,1.49,7.49c5.479-0.986,5.742,3.244,10.477,2.98
			c4.821-7.358,11.901,2.346,20.931,0c0.658-2.849,3.244-3.759,3.003-7.474c-5.413-0.061-11.813,0.833-13.457-2.997
			c0-10.603,12.339-3.765,19.451-4.482c0.899-7.436-8.997-4.953-4.493-11.961c-4.449,0.794-5.468,7.912-8.975,1.484
			C274.944,228.927,267.711,231.173,263.613,236.526z"/>
		<path fill-rule="evenodd" clip-rule="evenodd" fill="#59A1D3" d="M229.181,190.149c-1.819,6.263,5.041,12.887,5.994,20.948
			c-3.605-0.614-3.244,2.729-7.484,1.49c-3.387-5.249,3.156-4.909,0-8.97c-4.712-0.23-0.636,8.334-7.474,5.978
			c-1.172-9.068,6.63-6.849,2.992-14.964C226.945,194.883,227.888,192.335,229.181,190.149z"/>
		<path fill-rule="evenodd" clip-rule="evenodd" fill="#59A1D3" d="M413.221,299.38c1.578-11.616,25.074,5.809,32.921-1.513
			c-0.121,5.699-11.179,5.699-1.491,8.986C431.949,313.21,424.268,292.322,413.221,299.38z"/>
	</g>
</g>
</svg>
