<?xml version="1.0" encoding="utf-8"?>
<!-- Generator: Adobe Illustrator 16.0.0, SVG Export Plug-In . SVG Version: 6.00 Build 0)  -->
<!DOCTYPE svg PUBLIC "-//W3C//DTD SVG 1.1//EN" "http://www.w3.org/Graphics/SVG/1.1/DTD/svg11.dtd">
<svg version="1.1" id="Layer_1" xmlns="http://www.w3.org/2000/svg" xmlns:xlink="http://www.w3.org/1999/xlink" x="0px" y="0px"
	 width="100px" height="100px" viewBox="0 0 100 100" enable-background="new 0 0 100 100" xml:space="preserve">
<path fill="#6A6A6A" d="M34.264,63.169c10.979,20.588,15.782,34.999,15.782,34.999c0.083-0.207,0.174-0.431,0.26-0.646
	c-0.714-4.616-2.528-13.468-6.892-23.6c-6.405-14.868-14.869-34.884-2.974-49.409c6.175-7.435,22.76-8.121,29.622,3.087
	c6.862,11.209,1.944,25.05,0,30.31c1.2-2.265,2.126-4.023,2.631-5.032c2.746-5.49,12.353-26.078,0-39.803
	C60.341-0.65,44.558,1.408,38.382,4.839C11.618,18.45,23.283,42.584,34.264,63.169z"/>
<path fill="#8C8B8B" d="M70.063,27.6C63.2,16.392,46.615,17.078,40.44,24.513c-11.896,14.525-3.432,34.541,2.974,49.409
	c4.363,10.132,6.178,18.983,6.892,23.6c4.111-10.271,14.543-29.771,19.757-39.612C72.007,52.649,76.925,38.809,70.063,27.6z"/>
<circle fill="#F2F2F2" stroke="#6A6A6A" stroke-width="0.5905" stroke-miterlimit="10" cx="50.661" cy="31.147" r="23.264"/>
<path fill="#E19105" stroke="#6A6A6A" stroke-width="0.5287" stroke-miterlimit="10" d="M66.917,38.938
	c-0.338,0-0.651,0.1-0.926,0.254l-4.832-7.897l4.782-7.813c0.284,0.174,0.616,0.281,0.976,0.281c1.036,0,1.875-0.84,1.875-1.876
	s-0.839-1.875-1.875-1.875s-1.877,0.839-1.877,1.875c0,0.019,0.006,0.032,0.006,0.048l-4.944,0.127l-4.211,0.108l-4.377-8.049
	c0.584-0.319,0.983-0.93,0.983-1.642c0-1.036-0.839-1.875-1.875-1.875c-1.035,0-1.876,0.839-1.876,1.875
	c0,0.712,0.401,1.322,0.984,1.642l-4.377,8.049l-9.155-0.235c0-0.016,0.005-0.029,0.005-0.048c0-1.036-0.84-1.875-1.875-1.875
	s-1.876,0.839-1.876,1.875s0.841,1.876,1.876,1.876c0.357,0,0.69-0.107,0.975-0.281l4.782,7.813l-4.832,7.897
	c-0.274-0.154-0.587-0.254-0.925-0.254c-1.035,0-1.876,0.841-1.876,1.877c0,1.035,0.841,1.877,1.876,1.877s1.875-0.842,1.875-1.877
	c0-0.054-0.012-0.105-0.016-0.159l5.461-0.141l3.705-0.095l4.377,8.05c-0.583,0.317-0.984,0.929-0.984,1.64
	c0,1.036,0.841,1.876,1.876,1.876c1.036,0,1.875-0.84,1.875-1.876c0-0.711-0.399-1.322-0.983-1.64l4.377-8.05l9.167,0.235
	c-0.005,0.054-0.018,0.105-0.018,0.159c0,1.035,0.841,1.877,1.877,1.877s1.875-0.842,1.875-1.877
	C68.792,39.779,67.953,38.938,66.917,38.938z"/>
<g>
	<radialGradient id="SVGID_1_" cx="50.623" cy="12.4092" r="2.0264" gradientUnits="userSpaceOnUse">
		<stop  offset="0" style="stop-color:#F2F2F2"/>
		<stop  offset="0.1798" style="stop-color:#DBDADA"/>
		<stop  offset="0.5453" style="stop-color:#B0AFAF"/>
		<stop  offset="0.8311" style="stop-color:#969595"/>
		<stop  offset="1" style="stop-color:#8C8B8B"/>
	</radialGradient>
	<circle fill="url(#SVGID_1_)" stroke="#6A6A6A" stroke-width="0.5287" stroke-miterlimit="10" cx="50.623" cy="12.408" r="2.027"/>
	<radialGradient id="SVGID_2_" cx="34.2324" cy="21.9258" r="2.0269" gradientUnits="userSpaceOnUse">
		<stop  offset="0" style="stop-color:#F2F2F2"/>
		<stop  offset="0.1798" style="stop-color:#DBDADA"/>
		<stop  offset="0.5453" style="stop-color:#B0AFAF"/>
		<stop  offset="0.8311" style="stop-color:#969595"/>
		<stop  offset="1" style="stop-color:#8C8B8B"/>
	</radialGradient>
	<circle fill="url(#SVGID_2_)" stroke="#6A6A6A" stroke-width="0.5287" stroke-miterlimit="10" cx="34.232" cy="21.926" r="2.028"/>
	<radialGradient id="SVGID_3_" cx="34.2324" cy="40.6953" r="2.0269" gradientUnits="userSpaceOnUse">
		<stop  offset="0" style="stop-color:#F2F2F2"/>
		<stop  offset="0.1798" style="stop-color:#DBDADA"/>
		<stop  offset="0.5453" style="stop-color:#B0AFAF"/>
		<stop  offset="0.8311" style="stop-color:#969595"/>
		<stop  offset="1" style="stop-color:#8C8B8B"/>
	</radialGradient>
	<circle fill="url(#SVGID_3_)" stroke="#6A6A6A" stroke-width="0.5287" stroke-miterlimit="10" cx="34.232" cy="40.696" r="2.028"/>
	<radialGradient id="SVGID_4_" cx="50.623" cy="50.2129" r="2.0264" gradientUnits="userSpaceOnUse">
		<stop  offset="0" style="stop-color:#F2F2F2"/>
		<stop  offset="0.1798" style="stop-color:#DBDADA"/>
		<stop  offset="0.5453" style="stop-color:#B0AFAF"/>
		<stop  offset="0.8311" style="stop-color:#969595"/>
		<stop  offset="1" style="stop-color:#8C8B8B"/>
	</radialGradient>
	<circle fill="url(#SVGID_4_)" stroke="#6A6A6A" stroke-width="0.5287" stroke-miterlimit="10" cx="50.623" cy="50.213" r="2.027"/>
	<radialGradient id="SVGID_5_" cx="67.0127" cy="40.6953" r="2.0264" gradientUnits="userSpaceOnUse">
		<stop  offset="0" style="stop-color:#F2F2F2"/>
		<stop  offset="0.1798" style="stop-color:#DBDADA"/>
		<stop  offset="0.5453" style="stop-color:#B0AFAF"/>
		<stop  offset="0.8311" style="stop-color:#969595"/>
		<stop  offset="1" style="stop-color:#8C8B8B"/>
	</radialGradient>
	<circle fill="url(#SVGID_5_)" stroke="#6A6A6A" stroke-width="0.5287" stroke-miterlimit="10" cx="67.013" cy="40.696" r="2.026"/>
	<radialGradient id="SVGID_6_" cx="67.0127" cy="21.9258" r="2.0264" gradientUnits="userSpaceOnUse">
		<stop  offset="0" style="stop-color:#F2F2F2"/>
		<stop  offset="0.1798" style="stop-color:#DBDADA"/>
		<stop  offset="0.5453" style="stop-color:#B0AFAF"/>
		<stop  offset="0.8311" style="stop-color:#969595"/>
		<stop  offset="1" style="stop-color:#8C8B8B"/>
	</radialGradient>
	<circle fill="url(#SVGID_6_)" stroke="#6A6A6A" stroke-width="0.5287" stroke-miterlimit="10" cx="67.013" cy="21.926" r="2.026"/>
</g>
<defs>
	<filter id="Adobe_OpacityMaskFilter" filterUnits="userSpaceOnUse" x="24" y="3.985" width="52.605" height="30.506">
		<feFlood  style="flood-color:white;flood-opacity:1" result="back"/>
		<feBlend  in="SourceGraphic" in2="back" mode="normal"/>
	</filter>
</defs>
<mask maskUnits="userSpaceOnUse" x="24" y="3.985" width="52.605" height="30.506" id="SVGID_7_">
	<g filter="url(#Adobe_OpacityMaskFilter)">
		<defs>
			<filter id="Adobe_OpacityMaskFilter_1_" filterUnits="userSpaceOnUse" x="24.335" y="4.342" width="52.27" height="30.149">
				<feFlood  style="flood-color:white;flood-opacity:1" result="back"/>
				<feBlend  in="SourceGraphic" in2="back" mode="normal"/>
			</filter>
		</defs>
		<mask maskUnits="userSpaceOnUse" x="24.335" y="4.342" width="52.27" height="30.149" id="SVGID_7_">
			<g filter="url(#Adobe_OpacityMaskFilter_1_)">
			</g>
		</mask>
		
			<linearGradient id="SVGID_8_" gradientUnits="userSpaceOnUse" x1="-18.606" y1="-39.4971" x2="33.6641" y2="-39.4971" gradientTransform="matrix(-1 0 0 -1 58 -20.0811)">
			<stop  offset="0" style="stop-color:#FFFFFF"/>
			<stop  offset="0.0963" style="stop-color:#F9F9F9"/>
			<stop  offset="0.2205" style="stop-color:#E9E9E9"/>
			<stop  offset="0.3601" style="stop-color:#CFCFCF"/>
			<stop  offset="0.5108" style="stop-color:#AAAAAA"/>
			<stop  offset="0.6705" style="stop-color:#7A7A7A"/>
			<stop  offset="0.8353" style="stop-color:#414141"/>
			<stop  offset="1" style="stop-color:#000000"/>
		</linearGradient>
		<path mask="url(#SVGID_7_)" fill="url(#SVGID_8_)" d="M76.332,26.039c-0.765-3.189-2.238-6.199-4.108-8.854
			c-1.907-2.643-4.288-4.921-7.017-6.642c-5.442-3.422-12.133-4.997-18.344-3.751c-3.104,0.611-6.056,1.875-8.707,3.592
			c-0.668,0.42-1.301,0.898-1.946,1.351c-0.613,0.501-1.264,0.953-1.845,1.492l-0.896,0.774l-0.854,0.822
			c-0.293,0.266-0.567,0.55-0.836,0.841c-0.266,0.289-0.554,0.563-0.804,0.867l-0.775,0.89l-0.687,0.905l-0.62,0.966l-0.563,1.015
			c-0.728,1.376-1.268,2.872-1.729,4.404c-0.871,3.079-1.367,6.336-1.352,9.637v0.005c0,0.076-0.062,0.138-0.137,0.139
			c-0.065,0-0.121-0.044-0.136-0.105c-0.805-3.274-0.809-6.724-0.259-10.102c0.273-1.695,0.75-3.37,1.415-4.999
			c0.18-0.402,0.356-0.807,0.556-1.202c0.217-0.389,0.424-0.781,0.651-1.167l0.746-1.123l0.793-1.035
			c2.202-2.677,4.852-4.977,7.865-6.695c3.014-1.701,6.318-2.922,9.744-3.435c3.422-0.53,6.938-0.312,10.243,0.556
			c3.3,0.874,6.455,2.264,9.24,4.221c5.549,3.941,9.447,10.012,10.631,16.592c0.014,0.074-0.036,0.146-0.111,0.158
			c-0.071,0.014-0.141-0.032-0.156-0.103L76.332,26.039z"/>
	</g>
</mask>
<g>
	<g>
		<defs>
			<path id="SVGID_9_" d="M76.332,26.039c-0.765-3.189-2.238-6.199-4.108-8.854c-1.907-2.643-4.288-4.921-7.017-6.642
				c-5.442-3.422-12.133-4.997-18.344-3.751c-3.104,0.611-6.056,1.875-8.707,3.592c-0.668,0.42-1.301,0.898-1.946,1.351
				c-0.613,0.501-1.264,0.953-1.845,1.492l-0.896,0.774l-0.854,0.822c-0.293,0.266-0.567,0.55-0.836,0.841
				c-0.266,0.289-0.554,0.563-0.804,0.867l-0.775,0.89l-0.687,0.905l-0.62,0.966l-0.563,1.015c-0.728,1.376-1.268,2.872-1.729,4.404
				c-0.871,3.079-1.367,6.336-1.352,9.637v0.005c0,0.076-0.062,0.138-0.137,0.139c-0.065,0-0.121-0.044-0.136-0.105
				c-0.805-3.274-0.809-6.724-0.259-10.102c0.273-1.695,0.75-3.37,1.415-4.999c0.18-0.402,0.356-0.807,0.556-1.202
				c0.217-0.389,0.424-0.781,0.651-1.167l0.746-1.123l0.793-1.035c2.202-2.677,4.852-4.977,7.865-6.695
				c3.014-1.701,6.318-2.922,9.744-3.435c3.422-0.53,6.938-0.312,10.243,0.556c3.3,0.874,6.455,2.264,9.24,4.221
				c5.549,3.941,9.447,10.012,10.631,16.592c0.014,0.074-0.036,0.146-0.111,0.158c-0.071,0.014-0.141-0.032-0.156-0.103
				L76.332,26.039z"/>
		</defs>
		<use xlink:href="#SVGID_9_"  overflow="visible" fill="#8C8B8B"/>
		<clipPath id="SVGID_10_">
			<use xlink:href="#SVGID_9_"  overflow="visible"/>
		</clipPath>
		<rect x="24" y="4" clip-path="url(#SVGID_10_)" fill="#8C8B8B" width="26" height="30"/>
		<rect x="50" y="4.26" clip-path="url(#SVGID_10_)" fill="#8C8B8B" width="0" height="29.989"/>
		<rect x="50" y="3.985" clip-path="url(#SVGID_10_)" fill="#8C8B8B" width="0" height="30.411"/>
		<rect x="50" y="4.26" clip-path="url(#SVGID_10_)" fill="#8C8B8B" width="0" height="29.989"/>
		<rect x="50" y="3.985" clip-path="url(#SVGID_10_)" fill="#8C8B8B" width="0" height="30.411"/>
		<rect x="50" y="3.985" clip-path="url(#SVGID_10_)" fill="#8C8B8B" width="0" height="30.411"/>
		<rect x="50" y="4.26" clip-path="url(#SVGID_10_)" fill="#8C8B8B" width="0" height="29.989"/>
		<rect x="50" y="3.985" clip-path="url(#SVGID_10_)" fill="#8C8B8B" width="0" height="30.411"/>
		<rect x="50" y="4" clip-path="url(#SVGID_10_)" fill="#8C8B8B" width="1" height="30"/>
		<rect x="51" y="3.985" clip-path="url(#SVGID_10_)" fill="#8C8B8B" width="0" height="30.411"/>
		<rect x="51" y="3.985" clip-path="url(#SVGID_10_)" fill="#8C8B8B" width="0" height="30.411"/>
		<rect x="51" y="4.26" clip-path="url(#SVGID_10_)" fill="#8C8B8B" width="0" height="29.989"/>
		<rect x="51" y="3.985" clip-path="url(#SVGID_10_)" fill="#8C8B8B" width="0" height="30.411"/>
		<rect x="51" y="4.26" clip-path="url(#SVGID_10_)" fill="#8C8B8B" width="0" height="29.989"/>
		<rect x="51" y="3.985" clip-path="url(#SVGID_10_)" fill="#8C8B8B" width="0" height="30.411"/>
		<rect x="51" y="3.985" clip-path="url(#SVGID_10_)" fill="#8C8B8B" width="0" height="30.411"/>
		<rect x="51" y="4.26" clip-path="url(#SVGID_10_)" fill="#8C8B8B" width="0" height="29.989"/>
		<rect x="51" y="3.985" clip-path="url(#SVGID_10_)" fill="#8C8B8B" width="0" height="30.411"/>
		<rect x="51" y="3.985" clip-path="url(#SVGID_10_)" fill="#8C8B8B" width="0" height="30.411"/>
		<rect x="51" y="4" clip-path="url(#SVGID_10_)" fill="#8C8B8B" width="1" height="30"/>
		<rect x="52" y="3.985" clip-path="url(#SVGID_10_)" fill="#8C8B8B" width="0" height="30.411"/>
		<rect x="52" y="4.26" clip-path="url(#SVGID_10_)" fill="#8C8B8B" width="0" height="29.989"/>
		<rect x="52" y="3.985" clip-path="url(#SVGID_10_)" fill="#8C8B8B" width="0" height="30.411"/>
		<rect x="52" y="3.985" clip-path="url(#SVGID_10_)" fill="#8C8B8B" width="0" height="30.411"/>
		<rect x="52" y="4.26" clip-path="url(#SVGID_10_)" fill="#8C8B8B" width="0" height="29.989"/>
		<rect x="52" y="3.985" clip-path="url(#SVGID_10_)" fill="#8C8B8B" width="0" height="30.411"/>
		<rect x="52" y="4.26" clip-path="url(#SVGID_10_)" fill="#8C8B8B" width="0" height="29.989"/>
		<rect x="52" y="3.985" clip-path="url(#SVGID_10_)" fill="#8C8B8B" width="0" height="30.411"/>
		<rect x="52" y="3.985" clip-path="url(#SVGID_10_)" fill="#8C8B8B" width="0" height="30.411"/>
		<rect x="52" y="4" clip-path="url(#SVGID_10_)" fill="#8C8B8B" width="1" height="30"/>
		<rect x="53" y="3.985" clip-path="url(#SVGID_10_)" fill="#8C8B8B" width="0" height="30.411"/>
		<rect x="53" y="3.985" clip-path="url(#SVGID_10_)" fill="#8C8B8B" width="0" height="30.411"/>
		<rect x="53" y="4.26" clip-path="url(#SVGID_10_)" fill="#8C8B8B" width="0" height="29.989"/>
		<rect x="53" y="3.985" clip-path="url(#SVGID_10_)" fill="#8C8B8B" width="0" height="30.411"/>
		<rect x="53" y="4.26" clip-path="url(#SVGID_10_)" fill="#8C8B8B" width="0" height="29.989"/>
		<rect x="53" y="3.985" clip-path="url(#SVGID_10_)" fill="#8C8B8B" width="0" height="30.411"/>
		<rect x="53" y="3.985" clip-path="url(#SVGID_10_)" fill="#8C8B8B" width="0" height="30.411"/>
		<rect x="53" y="4.26" clip-path="url(#SVGID_10_)" fill="#8C8B8B" width="0" height="29.989"/>
		<rect x="53" y="3.985" clip-path="url(#SVGID_10_)" fill="#8C8B8B" width="0" height="30.411"/>
		<rect x="53" y="4" clip-path="url(#SVGID_10_)" fill="#8C8B8B" width="1" height="30"/>
		<rect x="54" y="3.985" clip-path="url(#SVGID_10_)" fill="#8C8B8B" width="0" height="30.411"/>
		<rect x="54" y="3.985" clip-path="url(#SVGID_10_)" fill="#8C8B8B" width="0" height="30.411"/>
		<rect x="54" y="4.26" clip-path="url(#SVGID_10_)" fill="#8C8B8B" width="0" height="29.989"/>
		<rect x="54" y="3.985" clip-path="url(#SVGID_10_)" fill="#8C8B8B" width="0" height="30.411"/>
		<rect x="54" y="3.985" clip-path="url(#SVGID_10_)" fill="#8C8B8B" width="0" height="30.411"/>
		<rect x="54" y="4.26" clip-path="url(#SVGID_10_)" fill="#8C8B8B" width="0" height="29.989"/>
		<rect x="54" y="3.985" clip-path="url(#SVGID_10_)" fill="#8C8B8B" width="0" height="30.411"/>
		<rect x="54" y="4.26" clip-path="url(#SVGID_10_)" fill="#8C8B8B" width="0" height="29.989"/>
		<rect x="54" y="3.985" clip-path="url(#SVGID_10_)" fill="#8C8B8B" width="0" height="30.411"/>
		<rect x="54" y="3.985" clip-path="url(#SVGID_10_)" fill="#8C8B8B" width="0" height="30.411"/>
		<rect x="54" y="4" clip-path="url(#SVGID_10_)" fill="#8C8B8B" width="1" height="30"/>
		<rect x="55" y="3.985" clip-path="url(#SVGID_10_)" fill="#8C8B8B" width="0" height="30.411"/>
		<rect x="55" y="4.26" clip-path="url(#SVGID_10_)" fill="#8C8B8B" width="0" height="29.989"/>
		<rect x="55" y="3.985" clip-path="url(#SVGID_10_)" fill="#8C8B8B" width="0" height="30.411"/>
		<rect x="55" y="3.985" clip-path="url(#SVGID_10_)" fill="#8C8B8B" width="0" height="30.411"/>
		<rect x="55" y="4.26" clip-path="url(#SVGID_10_)" fill="#8C8B8B" width="0" height="29.989"/>
		<rect x="55" y="3.985" clip-path="url(#SVGID_10_)" fill="#8C8B8B" width="0" height="30.411"/>
		<rect x="55" y="3.985" clip-path="url(#SVGID_10_)" fill="#8C8B8B" width="0" height="30.411"/>
		<rect x="55" y="4.26" clip-path="url(#SVGID_10_)" fill="#8C8B8B" width="0" height="29.989"/>
		<rect x="55" y="3.985" clip-path="url(#SVGID_10_)" fill="#8C8B8B" width="0" height="30.411"/>
		<rect x="55" y="4" clip-path="url(#SVGID_10_)" fill="#8C8B8B" width="2" height="30"/>
		<rect x="57" y="3.985" clip-path="url(#SVGID_10_)" fill="#8C8B8B" width="0" height="30.411"/>
		<rect x="57" y="3.985" clip-path="url(#SVGID_10_)" fill="#8C8B8B" width="0" height="30.411"/>
		<rect x="57" y="4.26" clip-path="url(#SVGID_10_)" fill="#8C8B8B" width="0" height="29.989"/>
		<rect x="57" y="3.985" clip-path="url(#SVGID_10_)" fill="#8C8B8B" width="0" height="30.411"/>
		<rect x="57" y="4.26" clip-path="url(#SVGID_10_)" fill="#8C8B8B" width="0" height="29.989"/>
		<rect x="57" y="3.985" clip-path="url(#SVGID_10_)" fill="#8C8B8B" width="0" height="30.411"/>
		<rect x="57" y="3.985" clip-path="url(#SVGID_10_)" fill="#8C8B8B" width="0" height="30.411"/>
		<rect x="57" y="4.26" clip-path="url(#SVGID_10_)" fill="#8C8B8B" width="0" height="29.989"/>
		<rect x="57" y="3.985" clip-path="url(#SVGID_10_)" fill="#8C8B8B" width="0" height="30.411"/>
		<rect x="57" y="3.985" clip-path="url(#SVGID_10_)" fill="#8C8B8B" width="0" height="30.411"/>
		<rect x="57" y="4" clip-path="url(#SVGID_10_)" fill="#8C8B8B" width="1" height="30"/>
		<rect x="58" y="3.985" clip-path="url(#SVGID_10_)" fill="#8C8B8B" width="0" height="30.411"/>
		<rect x="58" y="4.26" clip-path="url(#SVGID_10_)" fill="#8C8B8B" width="0" height="29.989"/>
		<rect x="58" y="3.985" clip-path="url(#SVGID_10_)" fill="#8C8B8B" width="0" height="30.411"/>
		<rect x="58" y="3.985" clip-path="url(#SVGID_10_)" fill="#8C8B8B" width="0" height="30.411"/>
		<rect x="58" y="4.26" clip-path="url(#SVGID_10_)" fill="#8C8B8B" width="0" height="29.989"/>
		<rect x="58" y="3.985" clip-path="url(#SVGID_10_)" fill="#8C8B8B" width="0" height="30.411"/>
		<rect x="58" y="4" clip-path="url(#SVGID_10_)" fill="#8C8B8B" width="1" height="30"/>
		<rect x="59" y="3.985" clip-path="url(#SVGID_10_)" fill="#8C8B8B" width="0" height="30.411"/>
		<rect x="59" y="3.985" clip-path="url(#SVGID_10_)" fill="#8C8B8B" width="0" height="30.411"/>
		<rect x="59" y="4.26" clip-path="url(#SVGID_10_)" fill="#8C8B8B" width="0" height="29.989"/>
		<rect x="59" y="3.985" clip-path="url(#SVGID_10_)" fill="#8C8B8B" width="0" height="30.411"/>
		<rect x="59" y="3.985" clip-path="url(#SVGID_10_)" fill="#8C8B8B" width="0" height="30.411"/>
		<rect x="59" y="4.26" clip-path="url(#SVGID_10_)" fill="#8C8B8B" width="0" height="29.989"/>
		<rect x="59" y="3.985" clip-path="url(#SVGID_10_)" fill="#8C8B8B" width="0" height="30.411"/>
		<rect x="59" y="4.26" clip-path="url(#SVGID_10_)" fill="#8C8B8B" width="0" height="29.989"/>
		<rect x="59" y="3.985" clip-path="url(#SVGID_10_)" fill="#8C8B8B" width="0" height="30.411"/>
		<rect x="59" y="3.985" clip-path="url(#SVGID_10_)" fill="#8C8B8B" width="0" height="30.411"/>
		<rect x="59" y="4" clip-path="url(#SVGID_10_)" fill="#8C8B8B" width="1" height="30"/>
		<rect x="60" y="3.985" clip-path="url(#SVGID_10_)" fill="#8C8B8B" width="0" height="30.411"/>
		<rect x="60" y="4.26" clip-path="url(#SVGID_10_)" fill="#8C8B8B" width="0" height="29.989"/>
		<rect x="60" y="3.985" clip-path="url(#SVGID_10_)" fill="#8C8B8B" width="0" height="30.411"/>
		<rect x="60" y="3.985" clip-path="url(#SVGID_10_)" fill="#8C8B8B" width="0" height="30.411"/>
		<rect x="60" y="4.26" clip-path="url(#SVGID_10_)" fill="#8C8B8B" width="0" height="29.989"/>
		<rect x="60" y="3.985" clip-path="url(#SVGID_10_)" fill="#8C8B8B" width="0" height="30.411"/>
		<rect x="60" y="4.26" clip-path="url(#SVGID_10_)" fill="#8C8B8B" width="0" height="29.989"/>
		<rect x="60" y="3.985" clip-path="url(#SVGID_10_)" fill="#8C8B8B" width="0" height="30.411"/>
		<rect x="60" y="3.985" clip-path="url(#SVGID_10_)" fill="#8C8B8B" width="0" height="30.411"/>
		<rect x="60" y="4" clip-path="url(#SVGID_10_)" fill="#8C8B8B" width="1" height="30"/>
		<rect x="61" y="3.985" clip-path="url(#SVGID_10_)" fill="#8C8B8B" width="0" height="30.411"/>
		<rect x="61" y="3.985" clip-path="url(#SVGID_10_)" fill="#8C8B8B" width="0" height="30.411"/>
		<rect x="61" y="4.26" clip-path="url(#SVGID_10_)" fill="#8C8B8B" width="0" height="29.989"/>
		<rect x="61" y="3.985" clip-path="url(#SVGID_10_)" fill="#8C8B8B" width="0" height="30.411"/>
		<rect x="61" y="4.26" clip-path="url(#SVGID_10_)" fill="#8C8B8B" width="0" height="29.989"/>
		<rect x="61" y="3.985" clip-path="url(#SVGID_10_)" fill="#8C8B8B" width="0" height="30.411"/>
		<rect x="61" y="3.985" clip-path="url(#SVGID_10_)" fill="#8C8B8B" width="0" height="30.411"/>
		<rect x="61" y="4.26" clip-path="url(#SVGID_10_)" fill="#8C8B8B" width="0" height="29.989"/>
		<rect x="61" y="3.985" clip-path="url(#SVGID_10_)" fill="#8C8B8B" width="0" height="30.411"/>
		<rect x="61" y="4" clip-path="url(#SVGID_10_)" fill="#8C8B8B" width="1" height="30"/>
		<rect x="62" y="3.985" clip-path="url(#SVGID_10_)" fill="#8C8B8B" width="0" height="30.411"/>
		<rect x="62" y="3.985" clip-path="url(#SVGID_10_)" fill="#8C8B8B" width="0" height="30.411"/>
		<rect x="62" y="4.26" clip-path="url(#SVGID_10_)" fill="#8C8B8B" width="0" height="29.989"/>
		<rect x="62" y="3.985" clip-path="url(#SVGID_10_)" fill="#8C8B8B" width="0" height="30.411"/>
		<rect x="62" y="3.985" clip-path="url(#SVGID_10_)" fill="#8C8B8B" width="0" height="30.411"/>
		<rect x="62" y="4.26" clip-path="url(#SVGID_10_)" fill="#8C8B8B" width="0" height="29.989"/>
		<rect x="62" y="3.985" clip-path="url(#SVGID_10_)" fill="#8C8B8B" width="0" height="30.411"/>
		<rect x="62" y="4.26" clip-path="url(#SVGID_10_)" fill="#8C8B8B" width="0" height="29.989"/>
		<rect x="62" y="3.985" clip-path="url(#SVGID_10_)" fill="#8C8B8B" width="0" height="30.411"/>
		<rect x="62" y="3.985" clip-path="url(#SVGID_10_)" fill="#8C8B8B" width="0" height="30.411"/>
		<rect x="62" y="4" clip-path="url(#SVGID_10_)" fill="#8C8B8B" width="2" height="30"/>
		<rect x="64" y="3.985" clip-path="url(#SVGID_10_)" fill="#8C8B8B" width="0" height="30.411"/>
		<rect x="64" y="4.26" clip-path="url(#SVGID_10_)" fill="#8C8B8B" width="0" height="29.989"/>
		<rect x="64" y="3.985" clip-path="url(#SVGID_10_)" fill="#8C8B8B" width="0" height="30.411"/>
		<rect x="64" y="3.985" clip-path="url(#SVGID_10_)" fill="#8C8B8B" width="0" height="30.411"/>
		<rect x="64" y="4.26" clip-path="url(#SVGID_10_)" fill="#8C8B8B" width="0" height="29.989"/>
		<rect x="64" y="3.985" clip-path="url(#SVGID_10_)" fill="#8C8B8B" width="0" height="30.411"/>
		<rect x="64" y="3.985" clip-path="url(#SVGID_10_)" fill="#8C8B8B" width="0" height="30.411"/>
		<rect x="64" y="4.26" clip-path="url(#SVGID_10_)" fill="#8C8B8B" width="0" height="29.989"/>
		<rect x="64" y="3.985" clip-path="url(#SVGID_10_)" fill="#8C8B8B" width="0" height="30.411"/>
		<rect x="64" y="4" clip-path="url(#SVGID_10_)" fill="#8C8B8B" width="1" height="30"/>
		<rect x="65" y="3.985" clip-path="url(#SVGID_10_)" fill="#8C8B8B" width="0" height="30.411"/>
		<rect x="65" y="3.985" clip-path="url(#SVGID_10_)" fill="#8C8B8B" width="0" height="30.411"/>
		<rect x="65" y="4.26" clip-path="url(#SVGID_10_)" fill="#8C8B8B" width="0" height="29.989"/>
		<rect x="65" y="3.985" clip-path="url(#SVGID_10_)" fill="#8C8B8B" width="0" height="30.411"/>
		<rect x="65" y="4.26" clip-path="url(#SVGID_10_)" fill="#8C8B8B" width="0" height="29.989"/>
		<rect x="65" y="3.985" clip-path="url(#SVGID_10_)" fill="#8C8B8B" width="0" height="30.411"/>
		<rect x="65" y="3.985" clip-path="url(#SVGID_10_)" fill="#8C8B8B" width="0" height="30.411"/>
		<rect x="65" y="4.26" clip-path="url(#SVGID_10_)" fill="#8C8B8B" width="0" height="29.989"/>
		<rect x="65" y="3.985" clip-path="url(#SVGID_10_)" fill="#8C8B8B" width="0" height="30.411"/>
		<rect x="65" y="3.985" clip-path="url(#SVGID_10_)" fill="#8C8B8B" width="0" height="30.411"/>
		<rect x="65" y="4" clip-path="url(#SVGID_10_)" fill="#8C8B8B" width="1" height="30"/>
		<rect x="66" y="3.985" clip-path="url(#SVGID_10_)" fill="#8C8B8B" width="0" height="30.411"/>
		<rect x="66" y="4.26" clip-path="url(#SVGID_10_)" fill="#8C8B8B" width="0" height="29.989"/>
		<rect x="66" y="3.985" clip-path="url(#SVGID_10_)" fill="#8C8B8B" width="0" height="30.411"/>
		<rect x="66" y="3.985" clip-path="url(#SVGID_10_)" fill="#8C8B8B" width="0" height="30.411"/>
		<rect x="66" y="4.26" clip-path="url(#SVGID_10_)" fill="#8C8B8B" width="0" height="29.989"/>
		<rect x="66" y="3.985" clip-path="url(#SVGID_10_)" fill="#8C8B8B" width="0" height="30.411"/>
		<rect x="66" y="4.26" clip-path="url(#SVGID_10_)" fill="#8C8B8B" width="0" height="29.989"/>
		<rect x="66" y="3.985" clip-path="url(#SVGID_10_)" fill="#8C8B8B" width="0" height="30.411"/>
		<rect x="66" y="3.985" clip-path="url(#SVGID_10_)" fill="#8C8B8B" width="0" height="30.411"/>
		<rect x="66" y="4" clip-path="url(#SVGID_10_)" fill="#8C8B8B" width="1" height="30"/>
		<rect x="67" y="3.985" clip-path="url(#SVGID_10_)" fill="#8C8B8B" width="0" height="30.411"/>
		<rect x="67" y="3.985" clip-path="url(#SVGID_10_)" fill="#8C8B8B" width="0" height="30.411"/>
		<rect x="67" y="4.26" clip-path="url(#SVGID_10_)" fill="#8C8B8B" width="0" height="29.989"/>
		<rect x="67" y="3.985" clip-path="url(#SVGID_10_)" fill="#8C8B8B" width="0" height="30.411"/>
		<rect x="67" y="4.26" clip-path="url(#SVGID_10_)" fill="#8C8B8B" width="0" height="29.989"/>
		<rect x="67" y="3.985" clip-path="url(#SVGID_10_)" fill="#8C8B8B" width="0" height="30.411"/>
		<rect x="67" y="3.985" clip-path="url(#SVGID_10_)" fill="#8C8B8B" width="0" height="30.411"/>
		<rect x="67" y="4.26" clip-path="url(#SVGID_10_)" fill="#8C8B8B" width="0" height="29.989"/>
		<rect x="67" y="3.985" clip-path="url(#SVGID_10_)" fill="#8C8B8B" width="0" height="30.411"/>
		<rect x="67" y="4" clip-path="url(#SVGID_10_)" fill="#8C8B8B" width="1" height="30"/>
		<rect x="68" y="3.985" clip-path="url(#SVGID_10_)" fill="#8C8B8B" width="0" height="30.411"/>
		<rect x="68" y="3.985" clip-path="url(#SVGID_10_)" fill="#8C8B8B" width="0" height="30.411"/>
		<rect x="68" y="4.26" clip-path="url(#SVGID_10_)" fill="#8C8B8B" width="0" height="29.989"/>
		<rect x="68" y="3.985" clip-path="url(#SVGID_10_)" fill="#8C8B8B" width="0" height="30.411"/>
		<rect x="68" y="3.985" clip-path="url(#SVGID_10_)" fill="#8C8B8B" width="0" height="30.411"/>
		<rect x="68" y="4.26" clip-path="url(#SVGID_10_)" fill="#8C8B8B" width="0" height="29.989"/>
		<rect x="68" y="3.985" clip-path="url(#SVGID_10_)" fill="#8C8B8B" width="0" height="30.411"/>
		<rect x="68" y="4.26" clip-path="url(#SVGID_10_)" fill="#8C8B8B" width="0" height="29.989"/>
		<rect x="68" y="3.985" clip-path="url(#SVGID_10_)" fill="#8C8B8B" width="0" height="30.411"/>
		<rect x="68" y="3.985" clip-path="url(#SVGID_10_)" fill="#8C8B8B" width="0" height="30.411"/>
		<rect x="68" y="4" clip-path="url(#SVGID_10_)" fill="#8C8B8B" width="1" height="30"/>
		<rect x="69" y="3.985" clip-path="url(#SVGID_10_)" fill="#8C8B8B" width="0" height="30.411"/>
		<rect x="69" y="4.26" clip-path="url(#SVGID_10_)" fill="#8C8B8B" width="0" height="29.989"/>
		<rect x="69" y="3.985" clip-path="url(#SVGID_10_)" fill="#8C8B8B" width="0" height="30.411"/>
		<rect x="69" y="3.985" clip-path="url(#SVGID_10_)" fill="#8C8B8B" width="0" height="30.411"/>
		<rect x="69" y="4.26" clip-path="url(#SVGID_10_)" fill="#8C8B8B" width="0" height="29.989"/>
		<rect x="69" y="3.985" clip-path="url(#SVGID_10_)" fill="#8C8B8B" width="0" height="30.411"/>
		<rect x="69" y="4.26" clip-path="url(#SVGID_10_)" fill="#8C8B8B" width="0" height="29.989"/>
		<rect x="69" y="3.985" clip-path="url(#SVGID_10_)" fill="#8C8B8B" width="0" height="30.411"/>
		<rect x="69" y="3.985" clip-path="url(#SVGID_10_)" fill="#8C8B8B" width="0" height="30.411"/>
		<rect x="69" y="4" clip-path="url(#SVGID_10_)" fill="#8C8B8B" width="1" height="30"/>
		<rect x="70" y="3.985" clip-path="url(#SVGID_10_)" fill="#8C8B8B" width="0" height="30.411"/>
		<rect x="70" y="3.985" clip-path="url(#SVGID_10_)" fill="#8C8B8B" width="0" height="30.411"/>
		<rect x="70" y="4.26" clip-path="url(#SVGID_10_)" fill="#8C8B8B" width="0" height="29.989"/>
		<rect x="70" y="3.985" clip-path="url(#SVGID_10_)" fill="#8C8B8B" width="0" height="30.411"/>
		<rect x="70" y="4.26" clip-path="url(#SVGID_10_)" fill="#8C8B8B" width="0" height="29.989"/>
		<rect x="70" y="3.985" clip-path="url(#SVGID_10_)" fill="#8C8B8B" width="0" height="30.411"/>
		<rect x="70" y="3.985" clip-path="url(#SVGID_10_)" fill="#8C8B8B" width="0" height="30.411"/>
		<rect x="70" y="4" clip-path="url(#SVGID_10_)" fill="#8C8B8B" width="2" height="30"/>
		<rect x="72" y="3.985" clip-path="url(#SVGID_10_)" fill="#8C8B8B" width="0" height="30.411"/>
		<rect x="72" y="4.26" clip-path="url(#SVGID_10_)" fill="#8C8B8B" width="0" height="29.989"/>
		<rect x="72" y="3.985" clip-path="url(#SVGID_10_)" fill="#8C8B8B" width="0" height="30.411"/>
		<rect x="72" y="3.985" clip-path="url(#SVGID_10_)" fill="#8C8B8B" width="0" height="30.411"/>
		<rect x="72" y="4.26" clip-path="url(#SVGID_10_)" fill="#8C8B8B" width="0" height="29.989"/>
		<rect x="72" y="3.985" clip-path="url(#SVGID_10_)" fill="#8C8B8B" width="0" height="30.411"/>
		<rect x="72" y="3.985" clip-path="url(#SVGID_10_)" fill="#8C8B8B" width="0" height="30.411"/>
		<rect x="72" y="4.26" clip-path="url(#SVGID_10_)" fill="#8C8B8B" width="0" height="29.989"/>
		<rect x="72" y="3.985" clip-path="url(#SVGID_10_)" fill="#8C8B8B" width="0" height="30.411"/>
		<rect x="72" y="4" clip-path="url(#SVGID_10_)" fill="#8C8B8B" width="1" height="30"/>
		<rect x="73" y="3.985" clip-path="url(#SVGID_10_)" fill="#8C8B8B" width="0" height="30.411"/>
		<rect x="73" y="3.985" clip-path="url(#SVGID_10_)" fill="#8C8B8B" width="0" height="30.411"/>
		<rect x="73" y="4.26" clip-path="url(#SVGID_10_)" fill="#8C8B8B" width="0" height="29.989"/>
		<rect x="73" y="3.985" clip-path="url(#SVGID_10_)" fill="#8C8B8B" width="0" height="30.411"/>
		<rect x="73" y="4.26" clip-path="url(#SVGID_10_)" fill="#8C8B8B" width="0" height="29.989"/>
		<rect x="73" y="3.985" clip-path="url(#SVGID_10_)" fill="#8C8B8B" width="0" height="30.411"/>
		<rect x="73" y="3.985" clip-path="url(#SVGID_10_)" fill="#8C8B8B" width="0" height="30.411"/>
		<rect x="73" y="4.26" clip-path="url(#SVGID_10_)" fill="#8C8B8B" width="0" height="29.989"/>
		<rect x="73" y="3.985" clip-path="url(#SVGID_10_)" fill="#8C8B8B" width="0" height="30.411"/>
		<rect x="73" y="3.985" clip-path="url(#SVGID_10_)" fill="#8C8B8B" width="0" height="30.411"/>
		<rect x="73" y="4" clip-path="url(#SVGID_10_)" fill="#8C8B8B" width="1" height="30"/>
		<rect x="74" y="3.985" clip-path="url(#SVGID_10_)" fill="#8C8B8B" width="0" height="30.411"/>
		<rect x="74" y="4.26" clip-path="url(#SVGID_10_)" fill="#8C8B8B" width="0" height="29.989"/>
		<rect x="74" y="3.985" clip-path="url(#SVGID_10_)" fill="#8C8B8B" width="0" height="30.411"/>
		<rect x="74" y="3.985" clip-path="url(#SVGID_10_)" fill="#8C8B8B" width="0" height="30.411"/>
		<rect x="74" y="4.26" clip-path="url(#SVGID_10_)" fill="#8C8B8B" width="0" height="29.989"/>
		<rect x="74" y="3.985" clip-path="url(#SVGID_10_)" fill="#8C8B8B" width="0" height="30.411"/>
		<rect x="74" y="4.26" clip-path="url(#SVGID_10_)" fill="#8C8B8B" width="0" height="29.989"/>
		<rect x="74" y="3.985" clip-path="url(#SVGID_10_)" fill="#8C8B8B" width="0" height="30.411"/>
		<rect x="74" y="3.985" clip-path="url(#SVGID_10_)" fill="#8C8B8B" width="0" height="30.411"/>
		<rect x="74" y="4" clip-path="url(#SVGID_10_)" fill="#8C8B8B" width="1" height="30"/>
		<rect x="75" y="3.985" clip-path="url(#SVGID_10_)" fill="#8C8B8B" width="0" height="30.411"/>
		<rect x="75" y="3.985" clip-path="url(#SVGID_10_)" fill="#8C8B8B" width="0" height="30.411"/>
		<rect x="75" y="4.26" clip-path="url(#SVGID_10_)" fill="#8C8B8B" width="0" height="29.989"/>
		<rect x="75" y="3.985" clip-path="url(#SVGID_10_)" fill="#8C8B8B" width="0" height="30.411"/>
		<rect x="75" y="4.26" clip-path="url(#SVGID_10_)" fill="#8C8B8B" width="0" height="29.989"/>
		<rect x="75" y="3.985" clip-path="url(#SVGID_10_)" fill="#8C8B8B" width="0" height="30.411"/>
		<rect x="75" y="3.985" clip-path="url(#SVGID_10_)" fill="#8C8B8B" width="0" height="30.411"/>
		<rect x="75" y="4.26" clip-path="url(#SVGID_10_)" fill="#8C8B8B" width="0" height="29.989"/>
		<rect x="75" y="3.985" clip-path="url(#SVGID_10_)" fill="#8C8B8B" width="0" height="30.411"/>
		<rect x="75" y="4" clip-path="url(#SVGID_10_)" fill="#8C8B8B" width="1" height="30"/>
		<rect x="76" y="3.985" clip-path="url(#SVGID_10_)" fill="#8C8B8B" width="0" height="30.411"/>
		<rect x="76" y="3.985" clip-path="url(#SVGID_10_)" fill="#8C8B8B" width="0" height="30.411"/>
		<rect x="76" y="4.26" clip-path="url(#SVGID_10_)" fill="#8C8B8B" width="0" height="29.989"/>
		<rect x="76" y="3.985" clip-path="url(#SVGID_10_)" fill="#8C8B8B" width="0" height="30.411"/>
		<rect x="76" y="3.985" clip-path="url(#SVGID_10_)" fill="#8C8B8B" width="0" height="30.411"/>
		<rect x="76" y="4.26" clip-path="url(#SVGID_10_)" fill="#8C8B8B" width="0" height="29.989"/>
		<rect x="76" y="3.985" clip-path="url(#SVGID_10_)" fill="#8C8B8B" width="0" height="30.411"/>
	</g>
</g>
</svg>
