<?xml version="1.0" encoding="UTF-8" standalone="no"?>
<svg xmlns:osb="http://www.openswatchbook.org/uri/2009/osb" xmlns:dc="http://purl.org/dc/elements/1.1/" xmlns:cc="http://creativecommons.org/ns#" xmlns:rdf="http://www.w3.org/1999/02/22-rdf-syntax-ns#" xmlns:svg="http://www.w3.org/2000/svg" xmlns="http://www.w3.org/2000/svg" xmlns:sodipodi="http://sodipodi.sourceforge.net/DTD/sodipodi-0.dtd" xmlns:inkscape="http://www.inkscape.org/namespaces/inkscape" version="1.1" x="0px" y="0px" viewBox="0 0 48 48" enable-background="new 0 0 48 48" xml:space="preserve" id="svg6899" inkscape:version="0.91 r13725" sodipodi:docname="3-grey.svg"><metadata id="metadata6929"><rdf:RDF><cc:Work rdf:about=""><dc:format>image/svg+xml</dc:format><dc:type rdf:resource="http://purl.org/dc/dcmitype/StillImage"/><dc:title/></cc:Work></rdf:RDF></metadata><defs id="defs6927"><linearGradient id="linearGradient5604" osb:paint="solid"><stop style="stop-color:#000000;stop-opacity:1;" offset="0" id="stop5606"/></linearGradient><linearGradient id="linearGradient5596" osb:paint="solid"><stop style="stop-color:#000000;stop-opacity:1;" offset="0" id="stop5598"/></linearGradient></defs><sodipodi:namedview pagecolor="#ffffff" bordercolor="#666666" borderopacity="1" objecttolerance="10" gridtolerance="10" guidetolerance="10" inkscape:pageopacity="0" inkscape:pageshadow="2" inkscape:window-width="1394" inkscape:window-height="784" id="namedview6925" showgrid="false" inkscape:zoom="6.9532167" inkscape:cx="-10.90793" inkscape:cy="27.276433" inkscape:window-x="441" inkscape:window-y="321" inkscape:window-maximized="0" inkscape:current-layer="g6903"/><g id="g6901" style="fill:#000000;fill-opacity:1;stroke:#ffffff;stroke-opacity:1"><g id="g6903" style="fill:#000000;fill-opacity:1;stroke:#ffffff;stroke-opacity:1"><path fill="none" stroke="#000000" stroke-width="2" stroke-linecap="round" stroke-linejoin="round" stroke-miterlimit="10" d="    M35.5,37c5.2,0,9.5-4.3,9.5-9.5c0-3.2-1.6-6-4-7.8c0-0.2,0-0.5,0-0.7c0-6.6-5.4-12-12-12s-12,5.4-12,12c0,1.2,0.2,2.4,0.5,3.5    C16,21,13.9,20,11.5,20C6.8,20,3,23.8,3,28.5c0,4.7,3.8,8.5,8.5,8.5" id="path6905" style="fill:#1a1a1a;fill-opacity:0;stroke:#4d4d4d;stroke-opacity:1"/><path fill="none" stroke="#000000" stroke-width="2" stroke-linecap="round" stroke-miterlimit="10" d="M19,35.5    c0,1.4-1.1,2.5-2.5,2.5S14,36.9,14,35.5s2.5-4.5,2.5-4.5S19,34.1,19,35.5z" id="path6907" style="fill:#000000;fill-opacity:1;stroke:#4d4d4d;stroke-opacity:1"/><path fill="none" stroke="#000000" stroke-width="2" stroke-linecap="round" stroke-miterlimit="10" d="M35,43.5    c0,1.4-1.1,2.5-2.5,2.5c-1.4,0-2.5-1.1-2.5-2.5s2.5-4.5,2.5-4.5S35,42.1,35,43.5z" id="path6909" style="fill:#000000;fill-opacity:1;stroke:#4d4d4d;stroke-opacity:1"/><path fill="none" stroke="#000000" stroke-width="2" stroke-linecap="round" stroke-miterlimit="10" d="M30,35.5    c0,1.4-1.1,2.5-2.5,2.5S25,36.9,25,35.5s2.5-4.5,2.5-4.5S30,34.1,30,35.5z" id="path6911" style="fill:#000000;fill-opacity:0.92138362;stroke:#4d4d4d;stroke-opacity:0.96794873"/><path fill="none" stroke="#000000" stroke-width="2" stroke-linecap="round" stroke-miterlimit="10" d="M25,43.5    c0,1.4-1.1,2.5-2.5,2.5S20,44.9,20,43.5s2.5-4.5,2.5-4.5S25,42.1,25,43.5z" id="path6913" style="fill:#000000;fill-opacity:1;stroke:#4d4d4d;stroke-opacity:1"/><path fill="none" stroke="#000000" stroke-width="2" stroke-linecap="round" stroke-linejoin="round" stroke-miterlimit="10" d="    M8.8,20.4c-2.7-3.2-2.3-7.9,0.8-10.6s7.9-2.3,10.6,0.8" id="path6915" style="fill:#1a1a1a;fill-opacity:0;stroke:#4d4d4d;stroke-opacity:1"/><line fill="none" stroke="#000000" stroke-width="2" stroke-linecap="round" stroke-linejoin="round" stroke-miterlimit="10" x1="5.1" y1="9.5" x2="2.7" y2="8.4" id="line6917" style="fill:#000000;fill-opacity:1;stroke:#ffffff;stroke-opacity:1"/><line fill="none" stroke="#000000" stroke-width="2" stroke-linecap="round" stroke-linejoin="round" stroke-miterlimit="10" x1="17.3" y1="4.9" x2="18.1" y2="2.5" id="line6919" style="fill:#000000;fill-opacity:1;stroke:#ffffff;stroke-opacity:1"/><line fill="none" stroke="#000000" stroke-width="2" stroke-linecap="round" stroke-linejoin="round" stroke-miterlimit="10" x1="3.8" y1="17" x2="1.3" y2="17.3" id="line6921" style="fill:#000000;fill-opacity:1;stroke:#ffffff;stroke-opacity:1"/><line fill="none" stroke="#000000" stroke-width="2" stroke-linecap="round" stroke-linejoin="round" stroke-miterlimit="10" x1="10.2" y1="4.9" x2="9.2" y2="2.5" id="line6923" style="fill:#000000;fill-opacity:1;stroke:#ffffff;stroke-opacity:1"/></g></g></svg>