<?xml version="1.0" encoding="UTF-8" standalone="no"?>
<svg xmlns:dc="http://purl.org/dc/elements/1.1/" xmlns:cc="http://creativecommons.org/ns#" xmlns:rdf="http://www.w3.org/1999/02/22-rdf-syntax-ns#" xmlns:svg="http://www.w3.org/2000/svg" xmlns="http://www.w3.org/2000/svg" xmlns:sodipodi="http://sodipodi.sourceforge.net/DTD/sodipodi-0.dtd" xmlns:inkscape="http://www.inkscape.org/namespaces/inkscape" viewBox="0 0 60 60" version="1.1" x="0px" y="0px" id="svg13898" inkscape:version="0.91 r13725" sodipodi:docname="14-grey.svg">
  <metadata id="metadata13940">
    <rdf:RDF>
      <cc:Work rdf:about="">
        <dc:format>image/svg+xml</dc:format>
        <dc:type rdf:resource="http://purl.org/dc/dcmitype/StillImage"/>
        <dc:title>31 -Windy- (Outline)</dc:title>
      </cc:Work>
    </rdf:RDF>
  </metadata>
  <defs id="defs13938"/>
  <sodipodi:namedview pagecolor="#ffffff" bordercolor="#666666" borderopacity="1" objecttolerance="10" gridtolerance="10" guidetolerance="10" inkscape:pageopacity="0" inkscape:pageshadow="2" inkscape:window-width="1648" inkscape:window-height="805" id="namedview13936" showgrid="false" inkscape:zoom="3.9333333" inkscape:cx="-18.056787" inkscape:cy="28.585297" inkscape:window-x="215" inkscape:window-y="152" inkscape:window-maximized="0" inkscape:current-layer="svg13898"/>
  <title id="title13900">31 -Windy- (Outline)</title>
  <desc id="desc13902">Created with Sketch.</desc>
  <g stroke="none" stroke-width="1" fill="none" fill-rule="evenodd" id="g13904" style="fill:#4d4d4d;fill-opacity:1">
    <g transform="translate(-119.000000, -700.000000)" fill="#000000" id="g13906" style="fill:#4d4d4d;fill-opacity:1">
      <g transform="translate(119.000000, 700.000000)" id="g13908" style="fill:#4d4d4d;fill-opacity:1">
        <path d="M48.1362,25.7896 C47.6472,25.7896 47.2192,25.4306 47.1482,24.9326 C47.0692,24.3856 47.4482,23.8786 47.9952,23.7996 C50.0282,23.5046 52.0722,23.7876 52.1592,23.7996 C52.7052,23.8756 53.0862,24.3816 53.0102,24.9276 C52.9332,25.4746 52.4232,25.8586 51.8822,25.7796 C51.8632,25.7776 50.0242,25.5286 48.2802,25.7796 C48.2322,25.7866 48.1842,25.7896 48.1362,25.7896" id="path13910" style="fill:#4d4d4d;fill-opacity:1"/>
        <path d="M31.8447,24.3159 C31.2927,24.3159 30.8447,23.8679 30.8447,23.3159 C30.8447,20.6169 28.5087,18.4209 25.6377,18.4209 C22.7667,18.4209 20.4307,20.6169 20.4307,23.3159 C20.4307,23.8679 19.9837,24.3159 19.4307,24.3159 C18.8787,24.3159 18.4307,23.8679 18.4307,23.3159 C18.4307,19.5139 21.6637,16.4209 25.6377,16.4209 C29.6117,16.4209 32.8447,19.5139 32.8447,23.3159 C32.8447,23.8679 32.3967,24.3159 31.8447,24.3159" id="path13912" style="fill:#4d4d4d;fill-opacity:1"/>
        <path d="M51,41 C50.448,41 50,40.552 50,40 C50,39.448 50.448,39 51,39 C55.318,39 58,36.653 58,32.874 C58,29.455 55.354,26.402 51.844,25.774 C51.372,25.689 51.027,25.282 51.02,24.803 C50.938,18.846 45.845,14 39.669,14 C35.847,14 32.009,15.955 29.889,18.979 C29.583,19.417 28.987,19.537 28.536,19.251 C27.676,18.708 26.674,18.421 25.638,18.421 C22.767,18.421 20.431,20.617 20.431,23.316 C20.431,23.371 20.436,23.424 20.439,23.479 L20.447,23.593 C20.449,23.63 20.449,23.667 20.447,23.704 C20.437,23.884 20.431,23.969 20.431,24.053 C20.431,24.445 20.202,24.8 19.845,24.963 C17.038,26.241 15,29.315 15,32.272 C15,36.919 19.018,39 23,39 C23.552,39 24,39.448 24,40 C24,40.552 23.552,41 23,41 C17.112,41 13,37.411 13,32.272 C13,28.719 15.206,25.174 18.434,23.433 C18.432,23.392 18.431,23.354 18.431,23.316 C18.431,19.514 21.664,16.421 25.638,16.421 C26.738,16.421 27.813,16.659 28.792,17.116 C31.368,13.941 35.455,12 39.669,12 C46.658,12 52.466,17.306 52.984,23.981 C57.035,25.07 60,28.762 60,32.874 C60,37.734 56.383,41 51,41" id="path13914" style="fill:#4d4d4d;fill-opacity:1"/>
        <path d="M18.8447,12.3159 C18.2927,12.3159 17.8447,11.8679 17.8447,11.3159 C17.8447,8.6169 15.5087,6.4209 12.6377,6.4209 C9.7667,6.4209 7.4307,8.6169 7.4307,11.3159 C7.4307,11.8679 6.9837,12.3159 6.4307,12.3159 C5.8787,12.3159 5.4307,11.8679 5.4307,11.3159 C5.4307,7.5139 8.6637,4.4209 12.6377,4.4209 C16.6117,4.4209 19.8447,7.5139 19.8447,11.3159 C19.8447,11.8679 19.3967,12.3159 18.8447,12.3159" id="path13916" style="fill:#4d4d4d;fill-opacity:1"/>
        <path d="M14.708,30 L9.534,30 C4.099,30 0,25.818 0,20.272 C0,16.719 2.206,13.174 5.434,11.433 C5.432,11.392 5.431,11.354 5.431,11.316 C5.431,7.514 8.664,4.421 12.638,4.421 C13.738,4.421 14.813,4.659 15.791,5.116 C18.368,1.941 22.455,0 26.669,0 C33.933,0 39.922,5.731 40.02,12.776 C40.027,13.328 39.586,13.782 39.034,13.79 L39.02,13.79 C38.474,13.79 38.028,13.351 38.02,12.803 C37.937,6.846 32.845,2 26.669,2 C22.847,2 19.009,3.955 16.889,6.979 C16.583,7.417 15.988,7.537 15.536,7.251 C14.676,6.708 13.674,6.421 12.638,6.421 C9.767,6.421 7.431,8.617 7.431,11.316 C7.431,11.371 7.436,11.424 7.439,11.479 L7.447,11.593 C7.449,11.63 7.449,11.667 7.447,11.704 C7.437,11.884 7.431,11.969 7.431,12.053 C7.431,12.445 7.202,12.801 6.845,12.963 C4.038,14.24 2,17.314 2,20.272 C2,24.678 5.239,28 9.534,28 L14.708,28 C15.26,28 15.708,28.448 15.708,29 C15.708,29.552 15.26,30 14.708,30" id="path13918" style="fill:#4d4d4d;fill-opacity:1"/>
        <path d="M51.8867,24.2817 C51.5557,24.2817 51.2327,24.1177 51.0417,23.8177 C50.7457,23.3517 50.8837,22.7337 51.3497,22.4377 C54.2617,20.5877 55.9997,17.4327 55.9997,13.9997 C55.9997,8.4857 51.5137,3.9997 45.9997,3.9997 C42.9577,3.9997 40.1167,5.3677 38.2047,7.7537 C37.8607,8.1857 37.2297,8.2557 36.7997,7.9087 C36.3687,7.5637 36.2987,6.9347 36.6447,6.5037 C38.9377,3.6417 42.3467,1.9997 45.9997,1.9997 C52.6167,1.9997 57.9997,7.3837 57.9997,13.9997 C57.9997,18.1207 55.9147,21.9067 52.4217,24.1257 C52.2557,24.2317 52.0707,24.2817 51.8867,24.2817" id="path13920" style="fill:#4d4d4d;fill-opacity:1"/>
        <path d="M46.9995,31 C45.4965,31 44.0895,30.456 43.0005,29.477 C41.9115,30.456 40.5055,31 39.0015,31 C37.0985,31 35.3505,30.127 34.2055,28.604 C33.8735,28.163 33.9615,27.536 34.4035,27.204 C34.8455,26.873 35.4715,26.962 35.8035,27.402 C36.5675,28.417 37.7335,29 39.0015,29 C40.2715,29 41.4385,28.417 42.2025,27.399 C42.4775,27.035 42.9645,26.901 43.3855,27.076 C43.5755,27.155 43.7305,27.288 43.8375,27.451 C44.6025,28.436 45.7505,29 46.9995,29 C48.2695,29 49.4365,28.417 50.2005,27.399 C50.5315,26.958 51.1575,26.869 51.6005,27.2 C52.0415,27.532 52.1315,28.159 51.7995,28.601 C50.6545,30.125 48.9045,31 46.9995,31" id="path13922" style="fill:#4d4d4d;fill-opacity:1"/>
        <path d="M18.9951,22 C17.4921,22 16.0861,21.456 14.9961,20.477 C13.9071,21.456 12.5011,22 10.9971,22 C9.0951,22 7.3471,21.127 6.2011,19.605 C5.8691,19.164 5.9571,18.537 6.3981,18.205 C6.8411,17.872 7.4671,17.962 7.7991,18.402 C8.5631,19.417 9.7291,20 10.9971,20 C12.2671,20 13.4341,19.417 14.1981,18.399 C14.4731,18.035 14.9601,17.902 15.3811,18.076 C15.5711,18.155 15.7261,18.288 15.8331,18.45 C16.7601,19.645 18.3081,20.215 19.7811,19.923 C20.3221,19.821 20.8491,20.167 20.9561,20.709 C21.0641,21.25 20.7121,21.777 20.1701,21.885 C19.7851,21.961 19.3901,22 18.9951,22" id="path13924" style="fill:#4d4d4d;fill-opacity:1"/>
        <path d="M41,48 L15,48 C14.448,48 14,47.552 14,47 C14,46.448 14.448,46 15,46 L41,46 C41.552,46 42,46.448 42,47 C42,47.552 41.552,48 41,48" id="path13926" style="fill:#4d4d4d;fill-opacity:1"/>
        <path d="M41,60 C40.448,60 40,59.552 40,59 C40,58.448 40.448,58 41,58 C42.654,58 44,56.654 44,55 C44,53.346 42.654,52 41,52 L19,52 C18.448,52 18,51.552 18,51 C18,50.448 18.448,50 19,50 L41,50 C43.757,50 46,52.243 46,55 C46,57.757 43.757,60 41,60" id="path13928" style="fill:#4d4d4d;fill-opacity:1"/>
        <path d="M41,44 L26,44 C25.448,44 25,43.552 25,43 C25,42.448 25.448,42 26,42 L41,42 C42.654,42 44,40.654 44,39 C44,37.346 42.654,36 41,36 C40.448,36 40,35.552 40,35 C40,34.448 40.448,34 41,34 C43.757,34 46,36.243 46,39 C46,41.757 43.757,44 41,44" id="path13930" style="fill:#4d4d4d;fill-opacity:1"/>
        <path d="M41,40 L37,40 C36.448,40 36,39.552 36,39 C36,38.448 36.448,38 37,38 L41,38 C41.552,38 42,38.448 42,39 C42,39.552 41.552,40 41,40" id="path13932" style="fill:#4d4d4d;fill-opacity:1"/>
        <path d="M41,56 L37,56 C36.448,56 36,55.552 36,55 C36,54.448 36.448,54 37,54 L41,54 C41.552,54 42,54.448 42,55 C42,55.552 41.552,56 41,56" id="path13934" style="fill:#4d4d4d;fill-opacity:1"/>
      </g>
    </g>
  </g>
</svg>