<?xml version="1.0" encoding="UTF-8" standalone="no"?>
<svg xmlns:dc="http://purl.org/dc/elements/1.1/" xmlns:cc="http://creativecommons.org/ns#" xmlns:rdf="http://www.w3.org/1999/02/22-rdf-syntax-ns#" xmlns:svg="http://www.w3.org/2000/svg" xmlns="http://www.w3.org/2000/svg" xmlns:sodipodi="http://sodipodi.sourceforge.net/DTD/sodipodi-0.dtd" xmlns:inkscape="http://www.inkscape.org/namespaces/inkscape" viewBox="0 0 47.999997 48" version="1.1" x="0px" y="0px" id="svg7525" inkscape:version="0.91 r13725" sodipodi:docname="4-grey.svg">
  <metadata id="metadata7533">
    <rdf:RDF>
      <cc:Work rdf:about="">
        <dc:format>image/svg+xml</dc:format>
        <dc:type rdf:resource="http://purl.org/dc/dcmitype/StillImage"/>
        <dc:title/>
      </cc:Work>
    </rdf:RDF>
  </metadata>
  <defs id="defs7531"/>
  <sodipodi:namedview pagecolor="#ffffff" bordercolor="#666666" borderopacity="1" objecttolerance="10" gridtolerance="10" guidetolerance="10" inkscape:pageopacity="0" inkscape:pageshadow="2" inkscape:window-width="1225" inkscape:window-height="723" id="namedview7529" showgrid="false" inkscape:zoom="4.9166667" inkscape:cx="-28.881358" inkscape:cy="24" inkscape:window-x="630" inkscape:window-y="297" inkscape:window-maximized="0" inkscape:current-layer="svg7525"/>
  <path style="color:#000000;font-style:normal;font-variant:normal;font-weight:normal;font-stretch:normal;font-size:medium;line-height:normal;font-family:sans-serif;text-indent:0;text-align:start;text-decoration:none;text-decoration-line:none;text-decoration-style:solid;text-decoration-color:#000000;letter-spacing:normal;word-spacing:normal;text-transform:none;direction:ltr;block-progression:tb;writing-mode:lr-tb;baseline-shift:baseline;text-anchor:start;white-space:normal;clip-rule:nonzero;display:inline;overflow:visible;visibility:visible;opacity:1;isolation:auto;mix-blend-mode:normal;color-interpolation:sRGB;color-interpolation-filters:linearRGB;solid-color:#000000;solid-opacity:1;fill:#4d4d4d;fill-opacity:1;fill-rule:evenodd;stroke:none;stroke-width:1.99999976;stroke-linecap:butt;stroke-linejoin:round;stroke-miterlimit:4;stroke-dasharray:none;stroke-dashoffset:0;stroke-opacity:1;marker:none;color-rendering:auto;image-rendering:auto;shape-rendering:auto;text-rendering:auto;enable-background:accumulate" d="M 24.219249,1.001597 C 20.164262,0.942474 16.255953,2.5271587 13.388207,5.3936497 11.77435,7.0075526 10.614394,8.8476436 9.8735884,11 c -2.5899468,0.03413 -5.1000235,1.086122 -6.9491377,2.927785 -3.89808312,3.896555 -3.89980671,10.246283 -0.00195,14.142839 1.911649,1.910597 4.517669,2.967129 7.2206943,2.927384 l 27.991916,0 c 2.601532,-0.03798 5.101421,-1.088418 6.941322,-2.927384 3.898086,-3.896556 3.898086,-10.244332 0,-14.140886 C 43.225338,12.083559 40.708055,11.032582 38.113621,11 37.376246,8.8510765 36.222497,7.0093065 34.614631,5.3956026 l -0.002,-0.00195 C 31.85269,2.6348258 28.122006,1.0589431 24.219249,1.001597 Z m -0.02931,1.9997608 c 3.383755,0.049284 6.615282,1.4142314 9.008285,3.8061852 1.52788,1.5340775 2.649132,3.426576 3.260645,5.503248 0.132488,0.448785 0.558593,0.745724 1.025667,0.714758 2.298011,-0.151514 4.547111,0.694034 6.177445,2.320035 3.13237,3.132433 3.133171,8.179204 0,11.311147 -1.472456,1.471617 -3.458647,2.311114 -5.540554,2.341517 l -27.993871,0 c -2.1631777,0.03181 -4.2607492,-0.812418 -5.7906214,-2.341517 -3.1335711,-3.132343 -3.1335711,-8.180756 0,-11.3131 1.6283147,-1.620636 3.8746674,-2.463486 6.1676764,-2.314176 0.466365,0.03002 0.891384,-0.266727 1.023714,-0.714758 0.614874,-2.080136 1.740313,-3.9731095 3.27432,-5.507154 2.486412,-2.4853256 5.871467,-3.8579072 9.387294,-3.8061852 z M 24.00044,6.0049047 c -1.352687,-0.019123 -1.352687,2.0188836 0,1.9997607 3.134037,-2e-6 5.745457,1.6867212 7.105431,4.4389216 0.591168,1.19557 2.385157,0.308691 1.793451,-0.886613 C 31.225096,8.1688132 27.868166,6.0049027 24.00044,6.0049047 Z M 12.997476,33.001675 c -2.197887,0 -4.0010771,1.802489 -4.0010771,3.999521 0,2.197032 1.8031901,3.999522 4.0010771,3.999522 2.197887,0 4.001078,-1.80249 4.001078,-3.999522 0,-2.197032 -1.803191,-3.999521 -4.001078,-3.999521 z m 22.506063,0 c -1.92167,0 -3.500943,1.578658 -3.500943,3.499581 0,1.920923 1.579273,3.499581 3.500943,3.499581 1.921671,0 3.500943,-1.578658 3.500943,-3.499581 0,-1.920923 -1.579272,-3.499581 -3.500943,-3.499581 z m -14.503907,0.99988 c -0.552434,0 -1.000269,0.447662 -1.000269,0.999881 0,0.552218 0.447835,0.99988 1.000269,0.99988 0.552434,0 1.00027,-0.447662 1.00027,-0.99988 0,-0.552219 -0.447836,-0.999881 -1.00027,-0.999881 z m -8.002156,0.999881 c 1.116716,0 2.000539,0.883479 2.000539,1.99976 0,1.116282 -0.883823,1.999761 -2.000539,1.999761 -1.116715,0 -2.000539,-0.883479 -2.000539,-1.999761 0,-1.116281 0.883824,-1.99976 2.000539,-1.99976 z m 22.506063,0 c 0.8405,0 1.500405,0.659648 1.500405,1.49982 0,0.840173 -0.659905,1.499821 -1.500405,1.499821 -0.840499,0 -1.500404,-0.659648 -1.500404,-1.499821 0,-0.840172 0.659905,-1.49982 1.500404,-1.49982 z m -9.50256,1.99976 c -2.750319,0 -5.001347,2.250152 -5.001347,4.999402 0,2.74925 2.251028,4.999402 5.001347,4.999402 2.75032,0 5.001348,-2.250152 5.001348,-4.999402 0,-2.74925 -2.251028,-4.999402 -5.001348,-4.999402 z m 0,1.999761 c 1.669149,0 3.000809,1.331142 3.000809,2.999641 0,1.6685 -1.33166,2.999641 -3.000809,2.999641 -1.669148,0 -3.000808,-1.331141 -3.000808,-2.999641 0,-1.668499 1.33166,-2.999641 3.000808,-2.999641 z m -9.002425,3.999522 c -0.552434,0 -1.000269,0.447661 -1.000269,0.99988 0,0.552219 0.447835,0.99988 1.000269,0.99988 0.552434,0 1.00027,-0.447661 1.00027,-0.99988 0,-0.552219 -0.447836,-0.99988 -1.00027,-0.99988 z m 17.004581,0 c -0.552434,0 -1.000269,0.447661 -1.000269,0.99988 0,0.552219 0.447835,0.99988 1.000269,0.99988 0.552434,0 1.00027,-0.447661 1.00027,-0.99988 0,-0.552219 -0.447836,-0.99988 -1.00027,-0.99988 z" id="path7527"/>
</svg>