<?xml version="1.0" encoding="UTF-8" standalone="no"?>
<svg xmlns:dc="http://purl.org/dc/elements/1.1/" xmlns:cc="http://creativecommons.org/ns#" xmlns:rdf="http://www.w3.org/1999/02/22-rdf-syntax-ns#" xmlns:svg="http://www.w3.org/2000/svg" xmlns="http://www.w3.org/2000/svg" xmlns:sodipodi="http://sodipodi.sourceforge.net/DTD/sodipodi-0.dtd" xmlns:inkscape="http://www.inkscape.org/namespaces/inkscape" version="1.1" x="0px" y="0px" viewBox="0 0 48 48" enable-background="new 0 0 48 48" xml:space="preserve" id="svg8141" inkscape:version="0.91 r13725" sodipodi:docname="5-grey.svg"><metadata id="metadata8161"><rdf:RDF><cc:Work rdf:about=""><dc:format>image/svg+xml</dc:format><dc:type rdf:resource="http://purl.org/dc/dcmitype/StillImage"/><dc:title/></cc:Work></rdf:RDF></metadata><defs id="defs8159"/><sodipodi:namedview pagecolor="#ffffff" bordercolor="#666666" borderopacity="1" objecttolerance="10" gridtolerance="10" guidetolerance="10" inkscape:pageopacity="0" inkscape:pageshadow="2" inkscape:window-width="1168" inkscape:window-height="787" id="namedview8157" showgrid="false" inkscape:zoom="4.9166667" inkscape:cx="32.371429" inkscape:cy="24" inkscape:window-x="522" inkscape:window-y="77" inkscape:window-maximized="0" inkscape:current-layer="svg8141"/><g id="g8143" style="fill:#333333;fill-opacity:0;stroke:#4d4d4d;stroke-opacity:1"><g id="g8145" style="fill:#333333;fill-opacity:0;stroke:#4d4d4d;stroke-opacity:1"><path fill="none" stroke="#000000" stroke-width="2" stroke-linecap="round" stroke-linejoin="round" stroke-miterlimit="10" d="    M35.5,36c5.2,0,9.5-4.3,9.5-9.5c0-3.2-1.6-6-4-7.8c0-0.2,0-0.5,0-0.7c0-6.6-5.4-12-12-12s-12,5.4-12,12c0,1.2,0.2,2.4,0.5,3.5    C16,20,13.9,19,11.5,19C6.8,19,3,22.8,3,27.5" id="path8147" style="fill:#333333;fill-opacity:0;stroke:#4d4d4d;stroke-opacity:1"/><path fill="none" stroke="#000000" stroke-width="2" stroke-linecap="round" stroke-linejoin="round" stroke-miterlimit="10" d="    M31.7,23.3c0.8,0.8,1.3,1.9,1.3,3.2s-0.5,2.4-1.3,3.2c-0.8,0.8-1.9,1.3-3.2,1.3H3" id="path8149" style="fill:#333333;fill-opacity:0;stroke:#4d4d4d;stroke-opacity:1"/><line fill="none" stroke="#000000" stroke-width="2" stroke-linecap="round" stroke-linejoin="round" stroke-miterlimit="10" x1="29" y1="34" x2="9" y2="34" id="line8151" style="fill:#333333;fill-opacity:0;stroke:#4d4d4d;stroke-opacity:1"/><path fill="none" stroke="#000000" stroke-width="2" stroke-linecap="round" stroke-linejoin="round" stroke-miterlimit="10" d="    M31,40c0-1.7-1.3-3-3-3H13" id="path8153" style="fill:#333333;fill-opacity:0;stroke:#4d4d4d;stroke-opacity:1"/><path fill="none" stroke="#000000" stroke-width="2" stroke-linejoin="round" stroke-miterlimit="10" d="M20.1,10    c-1.5-3-4.5-5-8.1-5c-0.3,0-0.7,0-1,0.1c0.6,1.1,1,2.3,1,3.6c0,3.9-3.1,7-7,7c-0.6,0-1.3-0.1-1.9-0.3c0.4,2.2,1.5,4.2,3.2,5.6" id="path8155" style="fill:#333333;fill-opacity:0;stroke:#4d4d4d;stroke-opacity:1"/></g></g></svg>