<?xml version="1.0" encoding="UTF-8" standalone="no"?>
<svg xmlns:dc="http://purl.org/dc/elements/1.1/" xmlns:cc="http://creativecommons.org/ns#" xmlns:rdf="http://www.w3.org/1999/02/22-rdf-syntax-ns#" xmlns:svg="http://www.w3.org/2000/svg" xmlns="http://www.w3.org/2000/svg" xmlns:sodipodi="http://sodipodi.sourceforge.net/DTD/sodipodi-0.dtd" xmlns:inkscape="http://www.inkscape.org/namespaces/inkscape" version="1.1" x="0px" y="0px" viewBox="0 0 48 48" enable-background="new 0 0 48 48" xml:space="preserve" id="svg9431" inkscape:version="0.91 r13725" sodipodi:docname="7-grey.svg"><metadata id="metadata9453"><rdf:RDF><cc:Work rdf:about=""><dc:format>image/svg+xml</dc:format><dc:type rdf:resource="http://purl.org/dc/dcmitype/StillImage"/><dc:title/></cc:Work></rdf:RDF></metadata><defs id="defs9451"/><sodipodi:namedview pagecolor="#ffffff" bordercolor="#666666" borderopacity="1" objecttolerance="10" gridtolerance="10" guidetolerance="10" inkscape:pageopacity="0" inkscape:pageshadow="2" inkscape:window-width="1302" inkscape:window-height="738" id="namedview9449" showgrid="false" inkscape:zoom="4.9166667" inkscape:cx="-9.0911543" inkscape:cy="3.5996034" inkscape:window-x="587" inkscape:window-y="318" inkscape:window-maximized="0" inkscape:current-layer="svg9431"/><g id="g9433" style="fill:#333333;fill-opacity:0;stroke:#4d4d4d;stroke-opacity:1"><g id="g9435" style="fill:#333333;fill-opacity:0;stroke:#4d4d4d;stroke-opacity:1"><path fill="none" stroke="#000000" stroke-width="2" stroke-linecap="round" stroke-linejoin="round" stroke-miterlimit="10" d="    M8.8,25.4c-2.7-3.2-2.3-7.9,0.8-10.6s7.9-2.3,10.6,0.8" id="path9437" style="fill:#333333;fill-opacity:0;stroke:#4d4d4d;stroke-opacity:1"/><line fill="none" stroke="#000000" stroke-width="2" stroke-linecap="round" stroke-linejoin="round" stroke-miterlimit="10" x1="5.1" y1="14.5" x2="2.7" y2="13.4" id="line9439" style="fill:#333333;fill-opacity:0;stroke:#4d4d4d;stroke-opacity:1"/><line fill="none" stroke="#000000" stroke-width="2" stroke-linecap="round" stroke-linejoin="round" stroke-miterlimit="10" x1="17.3" y1="9.9" x2="18.1" y2="7.5" id="line9441" style="fill:#333333;fill-opacity:0;stroke:#4d4d4d;stroke-opacity:1"/><line fill="none" stroke="#000000" stroke-width="2" stroke-linecap="round" stroke-linejoin="round" stroke-miterlimit="10" x1="3.8" y1="22" x2="1.3" y2="22.3" id="line9443" style="fill:#333333;fill-opacity:0;stroke:#4d4d4d;stroke-opacity:1"/><line fill="none" stroke="#000000" stroke-width="2" stroke-linecap="round" stroke-linejoin="round" stroke-miterlimit="10" x1="10.2" y1="9.9" x2="9.2" y2="7.5" id="line9445" style="fill:#333333;fill-opacity:0;stroke:#4d4d4d;stroke-opacity:1"/><path fill="none" stroke="#000000" stroke-width="2" stroke-linecap="round" stroke-linejoin="round" stroke-miterlimit="10" d="    M41,24.7c0-0.2,0-0.5,0-0.7c0-6.6-5.4-12-12-12s-12,5.4-12,12c0,1.2,0.2,2.4,0.5,3.5C16,26,13.9,25,11.5,25C6.8,25,3,28.8,3,33.5    c0,4.7,3.8,8.5,8.5,8.5s19.9,0,24,0c5.2,0,9.5-4.3,9.5-9.5C45,29.3,43.4,26.5,41,24.7z" id="path9447" style="fill:#333333;fill-opacity:0;stroke:#4d4d4d;stroke-opacity:1"/></g></g></svg>