<?xml version="1.0" encoding="UTF-8" ?>
<!DOCTYPE svg PUBLIC "-//W3C//DTD SVG 1.1//EN" "http://www.w3.org/Graphics/SVG/1.1/DTD/svg11.dtd">
<svg width="80pt" height="80pt" viewBox="0 0 80 80" version="1.1" xmlns="http://www.w3.org/2000/svg">
<path fill="#515151" opacity="1.00" d=" M 12.33 24.75 C 19.49 16.44 29.27 7.81 41.05 9.03 C 45.22 9.10 48.41 11.99 51.51 14.40 C 54.74 15.99 58.58 17.18 60.37 20.62 C 63.99 27.14 61.77 34.68 61.01 41.62 C 63.00 44.43 62.04 47.74 61.02 50.71 C 60.45 50.96 59.32 51.44 58.75 51.69 C 58.24 59.88 52.84 67.46 44.89 69.90 C 39.06 72.99 32.55 69.72 27.70 66.28 C 23.05 62.86 21.11 57.20 20.49 51.68 C 19.91 51.43 18.75 50.94 18.17 50.70 C 17.23 47.72 16.08 44.32 18.36 41.62 C 18.02 37.76 17.70 33.87 16.82 30.08 C 16.32 27.65 13.99 26.34 12.33 24.75 M 35.28 11.25 C 27.26 12.78 20.95 18.43 15.37 24.03 C 19.94 28.74 19.80 35.66 20.45 41.74 C 21.52 39.24 22.24 36.27 24.64 34.68 C 29.13 31.50 34.85 31.56 40.07 30.71 C 43.93 30.19 47.34 28.14 50.44 25.88 C 53.04 27.38 55.85 29.03 57.18 31.87 C 58.58 34.92 58.55 38.37 58.96 41.64 C 59.91 34.81 62.09 27.12 58.21 20.80 C 56.00 17.17 51.01 17.62 48.35 14.56 C 45.03 11.11 39.84 9.99 35.28 11.25 M 40.92 32.60 C 35.71 33.54 29.91 33.26 25.44 36.55 C 22.96 38.27 22.96 41.54 22.43 44.22 C 21.58 44.08 19.89 43.81 19.04 43.68 C 18.93 45.63 19.16 47.58 19.52 49.50 C 20.25 49.54 21.72 49.62 22.46 49.66 C 22.84 52.96 22.87 56.44 24.54 59.40 C 27.12 64.20 32.04 67.26 37.13 68.81 C 40.95 70.17 44.77 67.89 48.05 66.12 C 53.91 62.91 56.73 56.12 56.75 49.67 C 57.46 49.63 58.88 49.56 59.59 49.53 C 59.92 47.65 60.24 45.76 60.51 43.88 C 59.54 43.94 57.60 44.06 56.63 44.12 C 57.00 38.35 56.49 31.29 50.87 28.09 C 47.82 30.10 44.58 31.99 40.92 32.60 Z" />
<path fill="#515151" d=" M 50.17 19.16 C 51.80 18.65 52.35 19.21 51.83 20.84 C 50.20 21.34 49.64 20.78 50.17 19.16 Z" />
<path fill="#515151" d=" M 50.16 23.17 C 51.78 22.65 52.34 23.20 51.83 24.83 C 50.21 25.35 49.65 24.80 50.16 23.17 Z" />
<path fill="#515151" opacity="1.00" d=" M 27.58 43.82 C 29.33 43.49 31.09 42.73 32.89 42.99 C 34.47 44.01 36.09 44.95 37.94 45.38 C 34.64 47.78 29.99 47.15 27.58 43.82 Z" />
<path fill="#515151" opacity="1.00" d=" M 45.30 44.45 C 45.68 43.98 46.44 43.03 46.82 42.55 C 48.76 42.91 50.70 43.31 52.62 43.76 C 50.11 47.13 45.31 47.58 42.00 45.12 C 42.82 44.96 44.48 44.62 45.30 44.45 Z" />
<path fill="#515151" opacity="0.80" d=" M 28.17 59.31 C 30.15 56.44 33.95 57.09 36.95 56.97 C 41.79 57.17 46.87 56.25 51.42 58.39 C 48.76 60.59 45.15 59.90 41.97 60.05 C 37.37 59.99 32.69 60.37 28.17 59.31 M 33.09 58.65 C 37.58 59.25 42.17 59.34 46.62 58.39 C 42.13 57.89 37.54 57.64 33.09 58.65 Z" />
<path fill="#2c2c2c" opacity="0.55" d=" M 33.09 58.65 C 37.54 57.64 42.13 57.89 46.62 58.39 C 42.17 59.34 37.58 59.25 33.09 58.65 Z" />
</svg>
