<svg xmlns="http://www.w3.org/2000/svg" viewBox="0 0 40 40">
	<defs>
		<clipPath id="clip-path">
			<circle cx="19.78" cy="20" r="16.66" fill="none" transform="rotate(-45 19.77 20)"/>
		</clipPath>
	</defs>
	<path fill="#aaa" d="M22 4.69V0h-4v4.63a15.38 15.38 0 0 1 4 .06zM22 35.3a15.36 15.36 0 0 1-4 .06V40h4zM4.45 18H0v4h4.45a15.36 15.36 0 0 1 0-4zM35.11 22H40v-4h-4.88a15.36 15.36 0 0 1-.01 4zM31.51 9.91l3.34-3.34-1.41-1.42-3.33 3.33a15.37 15.37 0 0 1 1.4 1.43zM8.27 30.32l-3.12 3.12 1.41 1.41 3.13-3.13a15.33 15.33 0 0 1-1.42-1.4zM9.69 8.28L6.57 5.15 5.15 6.56l3.12 3.12a15.38 15.38 0 0 1 1.42-1.4zM30.1 31.51l3.34 3.34 1.41-1.41-3.35-3.35a15.37 15.37 0 0 1-1.4 1.42z"/>
	<g clip-path="url(#clip-path)">
		<path fill="#555" d="M19.77 19.99l-15.7-7.85 7.86-7.85 7.84 15.7z"/>
	</g>
	<path fill="#aaa" d="M34.44 20a14.66 14.66 0 0 1-25 10.37A14.66 14.66 0 1 1 30.15 9.63 14.56 14.56 0 0 1 34.44 20m2 0a16.66 16.66 0 1 0-4.88 11.78A16.6 16.6 0 0 0 36.44 20z"/>
</svg>
