<svg xmlns="http://www.w3.org/2000/svg" viewBox="0 0 77 77"><defs><style>.cls-1{fill:#3fa9f5;}.cls-2{fill:none;stroke:#3fa9f5;stroke-miterlimit:10;stroke-width:4px;}</style></defs><title>WindDirectionA</title><g id="Layer_2" data-name="Layer 2"><g id="Layer_1-2" data-name="Layer 1"><g id="Arrow_33" data-name="Arrow 33"><polygon class="cls-1" points="58 33.2 36.3 37.1 36.3 31 22.3 39 36.3 47 36.3 40.9 58 44.8 58 33.2"/><path class="cls-1" d="M38.5,4A34.5,34.5,0,1,1,4,38.5,34.5,34.5,0,0,1,38.5,4m0-4A38.5,38.5,0,1,0,77,38.5,38.5,38.5,0,0,0,38.5,0Z"/><line class="cls-2" x1="39" y1="7" x2="39" y2="14"/><line class="cls-2" x1="63" y1="39" x2="70" y2="39"/><line class="cls-2" x1="6" y1="39" x2="13" y2="39"/><line class="cls-2" x1="39" y1="71" x2="39" y2="64"/></g></g></g></svg>