<svg id="Day" xmlns="http://www.w3.org/2000/svg" viewBox="0 0 267 267"><style>.st0{fill:#a2bdca}</style><title>Morecast Icons 151015</title><path class="st0" d="M220.4 167H27.3c-2.7 0-4.8-2.8-4.8-5.5s2.2-5.5 4.8-5.5h193.1c2.7 0 4.8 2.8 4.8 5.5s-2.1 5.5-4.8 5.5zM235.1 141.4c-.1-6.9-2.4-13.6-6.6-19.2-5.6-7.3-14-12-23.2-12.9v-.2c0-36.8-29.8-66.6-66.6-66.6-2.9 0-5.8.2-8.7.6-24.8 3.2-45.8 20-54.2 43.6-24.2.2-43.8 20-43.7 44.3 0 3.5.5 7 1.3 10.4h201.7zM220.4 224H27.3c-2.8 0-5-2.2-5-5s2.2-5 5-5h193.1c2.8 0 5 2.2 5 5s-2.2 5-5 5zM239.7 196H46.6c-2.8 0-5-2.2-5-5s2.2-5 5-5h193.1c2.8 0 5 2.2 5 5s-2.2 5-5 5z"/></svg>