<svg id="Day" xmlns="http://www.w3.org/2000/svg" viewBox="0 0 267 267"><style>.st0{fill:#a2bdca}</style><title>Morecast Icons 151015</title><path class="st0" d="M159.6 199.2c-16.7 0-30.2-13.4-30.2-30s13.4-30.1 30-30.1c6.5-18 23.5-30 42.6-30.1 24.8 0 45.5 20.1 45.5 44.8v.2c9.6 1.1 19.4 11 19.4 22.6 0 12.4-10.7 22.7-23.1 22.7l-84.2-.1z"/><path class="st0" d="M120.1 169.1c.1-19.2 13.9-35.6 32.8-39 3.6-7.3 8.8-13.7 15.3-18.7-9.5-26.2-34.3-43.6-62.2-43.6-2.9 0-5.8.2-8.6.6-24.7 3.2-45.5 19.9-53.8 43.4-24.3.1-43.7 19.8-43.6 44s19.9 43.6 44.1 43.5h89.8c-8.8-7.6-13.8-18.6-13.8-30.2z"/></svg>