<svg id="Day" xmlns="http://www.w3.org/2000/svg" viewBox="0 0 267 267"><defs><style>.cls-1{fill:#38a7df;opacity:.75}.cls-2{fill:none}.cls-3{fill:#5c686e}.cls-4{fill:#535f66}</style></defs><title>Morecast Icons 151015</title><path class="cls-1" d="M133.9 234.87a4.75 4.75 0 0 1-4.43-6.49l20.41-52.22a4.76 4.76 0 0 1 8.86 3.46l-20.41 52.22a4.76 4.76 0 0 1-4.43 3.03z"/><path class="cls-2" d="M171.47 98.71h-.32a.68.68 0 0 0 .32 0z"/><path class="cls-3" d="M171.15 98.69h.32a.47.47 0 0 0-.32 0z"/><path class="cls-4" d="M171.47 98.71a.68.68 0 0 1-.32 0c0-36.17-30.28-66.56-66.44-66.56-28.53 0-52.92 17.34-61.92 42.79C19 75.26 0 97.26 0 121.17a40.41 40.41 0 0 0 26.78 38.58l16.33-41.5a4.75 4.75 0 1 1 8.89 3.48L36.07 162.1a48.58 48.58 0 0 0 7.09.56H68.8c0-.14 0-.28.07-.42l11.66-29.87a4.75 4.75 0 0 1 8.86 3.45l-10.48 26.84h31.74c0-.14 0-.29.08-.44l17.3-44a4.76 4.76 0 0 1 8.85 3.48l-16.11 40.94H155c0-.14 0-.28.07-.42l11.66-29.87a4.75 4.75 0 0 1 8.86 3.45l-10.47 26.84h1.66c18.07 0 32.91-13.9 32.91-32-.01-16.81-13.02-31.91-28.22-31.93z"/><path class="cls-1" d="M98.91 211a4.75 4.75 0 0 1-4.43-6.49l11.07-28.34a4.76 4.76 0 0 1 8.86 3.46L103.34 208a4.76 4.76 0 0 1-4.43 3zM47.71 234.87a4.75 4.75 0 0 1-4.43-6.49l20.41-52.22a4.76 4.76 0 0 1 8.86 3.46l-20.41 52.22a4.76 4.76 0 0 1-4.43 3.03zM14 211a4.75 4.75 0 0 1-4.43-6.49l11.07-28.34a4.76 4.76 0 0 1 8.86 3.46L18.4 208a4.76 4.76 0 0 1-4.4 3z"/><path class="cls-4" d="M247.73 117.78v-.12c0-24.53-20.53-44.41-45.06-44.41a44.53 44.53 0 0 0-23.4 6.68 73.3 73.3 0 0 1 2 11.11 41.51 41.51 0 0 1 21.46 14.61 40.61 40.61 0 0 1-7.86 57h49.3c12.26 0 22.86-10.23 22.86-22.5-.03-11.48-9.79-21.23-19.3-22.37z"/><path class="cls-2" d="M171.47 98.71h-.32a.68.68 0 0 0 .32 0z"/><path class="cls-3" d="M171.15 98.69h.32a.47.47 0 0 0-.32 0z"/></svg>