<svg id="Day" xmlns="http://www.w3.org/2000/svg" viewBox="0 0 267 267"><style>.st0{fill:#535f66}.st1{fill:#fdd002}</style><title>Morecast Icons 151015</title><path class="st0" d="M203 96.3v-.2c0-36.2-28.8-65.6-65-65.6-27.7 0-52.4 17.6-61.6 43.7-23.8.3-43 18.9-43 42.8 0 24.1 19.6 42.9 43.8 42.9h124.6c18.1 0 31.7-13.9 31.7-32 0-16.8-11.5-29.9-30.5-31.6z"/><path class="st1" d="M145.8 160H122c-1.6 0-3 .2-3.9-1.1-.9-1.1-1.1-2.6-.5-3.9l22-57.2c1-2.4 3.7-3.6 6.1-2.6 2.4.9 3.7 3.1 2.7 5.5L128.9 151h16.9c2.5-.2 4.6 1.7 4.8 4.2.2 2.5-1.7 4.6-4.2 4.8h-.6zM112.4 170h23.8c2.4-.2 4.6 1.6 4.8 4.1.1.7-.1 1.4-.3 2l-22.1 57.4c-1 2.4-3.8 3.6-6.2 2.5-2.3-1-3.5-3.6-2.6-6l19.6-51h-16.9c-2.5.2-4.7-1.6-4.9-4.1s1.6-4.7 4.1-4.9h.7zM155.3 170h23.8c2.4-.2 4.6 1.6 4.8 4.1.1.7-.1 1.4-.3 2L171 209.6c-1 2.4-3.8 3.6-6.2 2.5-2.3-1-3.5-3.6-2.6-6l10-27.2h-16.9c-2.5.2-4.6-1.7-4.8-4.2-.2-2.5 1.7-4.6 4.2-4.8.2.1.4.1.6.1zM69.6 170h23.8c2.4-.2 4.6 1.6 4.8 4.1.1.7-.1 1.4-.3 2l-12.6 33.6c-1 2.4-3.8 3.6-6.2 2.5-2.3-1-3.5-3.6-2.6-6l10-27.2H69.6c-2.5.2-4.6-1.7-4.8-4.2-.2-2.5 1.7-4.6 4.2-4.8h.6z"/></svg>