<svg id="Day" xmlns="http://www.w3.org/2000/svg" viewBox="0 0 267 267"><defs><style>.cls-1{fill:#38a7df;opacity:.5}.cls-2{fill:#bad7e5}.cls-3{fill:none}.cls-4{fill:#5c686e}.cls-5{fill:#535f66}</style></defs><title>Morecast Icons 151015</title><path class="cls-1" d="M167.61 235a4.71 4.71 0 0 1-1.73-.33 4.76 4.76 0 0 1-2.71-6.17l20.44-52.3a4.76 4.76 0 1 1 8.87 3.47L172.05 232a4.76 4.76 0 0 1-4.44 3zM81.29 235a4.76 4.76 0 0 1-4.44-6.5l20.44-52.3a4.76 4.76 0 0 1 8.87 3.47L85.72 232a4.77 4.77 0 0 1-4.43 3z"/><path class="cls-2" d="M62.12 189.69l6.73-6.69a4.76 4.76 0 1 0-6.73-6.73L55.38 183l-6.73-6.73a4.76 4.76 0 1 0-6.73 6.73l6.73 6.73-6.73 6.73a4.76 4.76 0 1 0 6.73 6.73l6.73-6.73 6.73 6.73a4.76 4.76 0 0 0 6.73-6.73zM147.83 189.69l6.73-6.73a4.76 4.76 0 1 0-6.73-6.73L141.1 183l-6.73-6.73a4.76 4.76 0 1 0-6.73 6.73l6.73 6.73-6.73 6.73a4.76 4.76 0 1 0 6.73 6.73l6.73-6.73 6.73 6.73a4.76 4.76 0 0 0 6.73-6.73z"/><path class="cls-3" d="M205.24 98.65h-.32a.68.68 0 0 0 .32 0z"/><path class="cls-4" d="M204.93 98.64h.32a.52.52 0 0 0-.32 0z"/><path class="cls-5" d="M205.24 98.65a.68.68 0 0 1-.32 0C204.93 62.41 174.6 32 138.37 32c-28.58 0-53 17.36-62 42.86-23.88.31-42.87 22.34-42.87 46.29a40.47 40.47 0 0 0 26.82 38.64l16.35-41.57a4.76 4.76 0 0 1 8.86 3.49l-15.9 40.44a48.6 48.6 0 0 0 7.1.56h67.61c0-.14 17.41-44.49 17.41-44.49a4.76 4.76 0 1 1 8.86 3.49l-16.14 41h46.07c18.1 0 33-13.92 33-32-.04-16.91-13.07-32.04-28.3-32.06zm-73.19 35.87a4.76 4.76 0 1 1-6.73 6.73l-6.73-6.73-6.73 6.73a4.76 4.76 0 0 1-6.73-6.73l6.73-6.73-6.73-6.73a4.76 4.76 0 0 1 6.73-6.73l6.73 6.73 6.73-6.73a4.76 4.76 0 0 1 6.73 6.73l-6.73 6.73zm86 0a4.76 4.76 0 1 1-6.73 6.73l-6.73-6.73-6.73 6.73a4.76 4.76 0 0 1-6.73-6.73l6.73-6.73-6.73-6.73a4.76 4.76 0 0 1 6.73-6.73l6.73 6.73 6.73-6.73a4.76 4.76 0 0 1 6.73 6.73l-6.73 6.73z"/><path class="cls-3" d="M205.24 98.65h-.32a.68.68 0 0 0 .32 0z"/><path class="cls-4" d="M204.93 98.64h.32a.52.52 0 0 0-.32 0z"/></svg>