<svg id="Day" xmlns="http://www.w3.org/2000/svg" viewBox="0 0 267 267"><defs><style>.cls-1{fill:#535f66}.cls-2{fill:#fdd002}</style></defs><title>Morecast Icons 151015</title><path class="cls-1" d="M247.64 115.88v-.12c0-24.65-20.63-44.63-45.28-44.63a44.75 44.75 0 0 0-23.52 6.71 73.66 73.66 0 0 1 2 11.17 41.72 41.72 0 0 1 21.57 14.69 40.81 40.81 0 0 1-7.9 57.29H244c12.32 0 23-10.28 23-22.61 0-11.56-9.81-21.38-19.36-22.5z"/><path class="cls-1" d="M194.41 108.91a33.08 33.08 0 0 0-23-12.78v-.17A65.92 65.92 0 0 0 105.48 30a66.82 66.82 0 0 0-8.59.6 65.68 65.68 0 0 0-53.58 43.19A43.6 43.6 0 1 0 44 161h124a32.59 32.59 0 0 0 33-32.51 32.09 32.09 0 0 0-6.59-19.58z"/><path class="cls-2" d="M112.9 162H89a4.65 4.65 0 0 1-4.46-6.35L106.71 98a4.78 4.78 0 0 1 6.17-2.74c2.46 1 3.7 2.91 2.75 5.36L96 151h16.9c2.64 0 4.78 2.86 4.78 5.5s-2.14 5.5-4.78 5.5zM79.45 169h23.89a5.35 5.35 0 0 1 4.46 7.08l-22.16 57.75a4.82 4.82 0 0 1-6.17 2.81 4.4 4.4 0 0 1-2.75-5.82L96.38 180H79.45c-2.64 0-4.78-2.86-4.78-5.5s2.14-5.5 4.78-5.5z"/></svg>