<svg id="Day" xmlns="http://www.w3.org/2000/svg" viewBox="0 0 267 267"><defs><style>.cls-1{fill:none}.cls-2{fill:#c6d1d7}.cls-3{fill:#38a7df;opacity:.75}.cls-4{fill:#a2bdca}</style></defs><title>Morecast Icons 151015</title><path class="cls-1" d="M205.24 98.65h-.32a.68.68 0 0 0 .32 0z"/><path class="cls-2" d="M204.93 98.64h.32a.47.47 0 0 0-.32 0z"/><path class="cls-3" d="M129.52 235a4.76 4.76 0 0 1-4.44-6.5l20.44-52.3a4.76 4.76 0 0 1 8.87 3.47L134 232a4.76 4.76 0 0 1-4.48 3z"/><path class="cls-4" d="M205.24 98.65a.68.68 0 0 1-.32 0C204.93 62.41 174.6 32 138.38 32c-28.58 0-53 17.36-62 42.86-23.88.31-42.88 22.34-42.88 46.29 0 24.16 19.09 41.56 43.23 41.56h29.51c0-.14 0-.29.08-.44l17.33-44.05a4.76 4.76 0 0 1 8.86 3.49l-16.13 41h34.26c0-.14 0-.28.07-.42l11.68-29.92a4.76 4.76 0 0 1 8.87 3.46l-10.49 26.88h39.76c18.1 0 33-13.92 33-32-.03-16.91-13.06-32.04-28.29-32.06z"/><path class="cls-3" d="M94.47 211.12a4.76 4.76 0 0 1-4.44-6.5l11.09-28.39a4.76 4.76 0 0 1 8.88 3.47l-11.09 28.39a4.77 4.77 0 0 1-4.44 3.03z"/><path class="cls-1" d="M205.24 98.65h-.32a.68.68 0 0 0 .32 0z"/><path class="cls-2" d="M204.93 98.64h.32a.47.47 0 0 0-.32 0z"/></svg>