<svg id="Day" xmlns="http://www.w3.org/2000/svg" viewBox="0 0 267 267"><style>.st0{fill:#fdb201}.st1{fill:#bad7e5}</style><title>Morecast Icons 151015</title><path class="st0" d="M135 82.7c15.8-25.4 49.2-33.2 74.6-17.4s33.2 49.2 17.4 74.6c-3.9 6.3-9 11.7-15.1 15.9 3.5 2.5 6.7 5.5 9.3 8.9v.1c29.5-22.2 35.5-64.1 13.3-93.6s-64.1-35.5-93.6-13.3c-8.5 6.4-15.4 14.8-20 24.4 1.3-.1 2.6-.1 3.8-.1 3.4-.2 6.9.1 10.3.5z"/><path class="st0" d="M226.4 111.4c0-25.1-20.3-45.4-45.3-45.4-14.5 0-28.2 6.9-36.7 18.7 30.2 8.2 52.2 34.1 55.5 65.2 1.1.3 2.2.8 3.2 1.3 14.3-8.1 23.3-23.3 23.3-39.8z"/><path class="st1" d="M213.6 170.4c-5.6-7.3-13.9-11.9-23-12.8v-.2c0-36.5-29.5-66-66-66-2.9 0-5.7.2-8.6.6-24.6 3.1-45.3 19.9-53.6 43.2-24.1-.1-43.7 19.3-43.9 43.4-.1 24.1 19.3 43.7 43.4 43.9h125.3c18 .2 32.8-14.2 33-32.2v-.3c0-7.1-2.3-13.9-6.6-19.6z"/></svg>