<svg id="Day" xmlns="http://www.w3.org/2000/svg" viewBox="0 0 267 267"><defs><style>.cls-1{fill:#a2bdca}.cls-2{fill:#38a7df;opacity:.75}.cls-3{fill:#bad7e5}</style></defs><title>Morecast Icons 151015</title><path class="cls-1" d="M171.49 104.05h-.32a.68.68 0 0 0 .32 0zM171.17 104h.32a.49.49 0 0 0-.32 0z"/><path class="cls-2" d="M95.88 234.18a4.75 4.75 0 0 1-4.43-6.49l20.41-52.22a4.76 4.76 0 0 1 8.86 3.46l-20.41 52.22a4.76 4.76 0 0 1-4.43 3.03z"/><path class="cls-3" d="M171.49 99.3a.68.68 0 0 1-.32 0c0-36.17-30.28-66.57-66.45-66.57-28.54 0-52.92 17.34-61.93 42.79C19 75.85 0 97.86 0 121.76c0 24.13 19.06 41.5 43.17 41.5h29.46c0-.14 0-.29.08-.43l17.31-44a4.76 4.76 0 1 1 8.85 3.48l-16.1 40.94h84c18.07 0 32.91-13.9 32.91-32 .02-16.82-12.99-31.94-28.19-31.95zm-29.66 35.81a4.75 4.75 0 1 1-6.72 6.72l-6.72-6.72-6.72 6.72a4.75 4.75 0 0 1-6.72-6.72l6.72-6.72-6.72-6.72a4.75 4.75 0 0 1 6.72-6.72l6.72 6.72 6.72-6.72a4.75 4.75 0 0 1 6.72 6.72l-6.72 6.72zM78 190.2l6.72-6.72a4.75 4.75 0 0 0-6.72-6.73l-6.72 6.72-6.72-6.72a4.75 4.75 0 0 0-6.72 6.72l6.72 6.72-6.72 6.72a4.75 4.75 0 1 0 6.72 6.72l6.72-6.72 6.72 6.73a4.75 4.75 0 0 0 6.72-6.72z"/><path class="cls-3" d="M247.73 118.37v-.12c0-24.53-20.53-44.41-45.06-44.41a44.53 44.53 0 0 0-23.41 6.68 73.3 73.3 0 0 1 2 11.11 41.51 41.51 0 0 1 21.46 14.61 40.61 40.61 0 0 1-7.86 57h49.3c12.26 0 22.86-10.23 22.86-22.5-.02-11.48-9.78-21.23-19.29-22.37z"/><path class="cls-1" d="M171.49 104.05h-.32a.68.68 0 0 0 .32 0zM171.17 104h.32a.49.49 0 0 0-.32 0z"/></svg>