<svg id="Day" xmlns="http://www.w3.org/2000/svg" viewBox="0 0 267 267"><defs><style>.cls-1{fill:#bad7e5}.cls-2{fill:#fdb201}</style></defs><title>Morecast Icons 151015</title><path class="cls-1" d="M48.3 160.3a88.76 88.76 0 0 1-4.08-25.3H12.67a12.67 12.67 0 1 0 0 25.34H48.3z"/><path class="cls-2" d="M176.45 97.71a14.14 14.14 0 0 1 .48-3.6 58.94 58.94 0 1 0 10.89 17.52 14.24 14.24 0 0 1-11.37-13.92z"/><path class="cls-1" d="M26.8 179.41a6.71 6.71 0 1 0 0 13.42h41a6.71 6.71 0 1 0 0-13.42h-41zM17.14 186.12a9.67 9.67 0 0 0 .2 1.95 11.88 11.88 0 0 1-.2-1.95zM258.89 105.81a8.11 8.11 0 0 0 0-16.22h-68.23a8.11 8.11 0 0 0 0 16.22h68.23zM238.69 117.77h-18.18a89.2 89.2 0 0 1 1.36 13.42h16.83a6.71 6.71 0 1 0-.01-13.42z"/><path class="cls-2" d="M196.29 111.92a67 67 0 1 1-15.14-24.75 14.14 14.14 0 0 1 9.5-3.68h8.07a82.55 82.55 0 0 0-137.54 90.64h7a11.94 11.94 0 0 1 8.87 20 82.56 82.56 0 0 0 135.72-82.21h-16.48z"/></svg>