<svg id="Day" xmlns="http://www.w3.org/2000/svg" viewBox="0 0 267 267"><defs><style>.cls-1{fill:#38a7df;opacity:.75}.cls-2{fill:none}.cls-3{fill:#c6d1d7}.cls-4{fill:#bad7e5}</style></defs><title>Morecast Icons 151015</title><path class="cls-1" d="M96.12 235.11a4.78 4.78 0 0 1-4.46-6.53L112.2 176a4.79 4.79 0 0 1 8.91 3.49l-20.54 52.55a4.79 4.79 0 0 1-4.45 3.07z"/><path class="cls-2" d="M172.55 98.93h-.32a.69.69 0 0 0 .32 0z"/><path class="cls-3" d="M172.23 98.92h.32a.52.52 0 0 0-.32 0z"/><path class="cls-4" d="M172.55 98.93a.69.69 0 0 1-.32 0c0-36.4-30.47-67-66.87-67-28.71.01-53.25 17.45-62.3 43.07C19.08 75.34 0 97.48 0 121.53c0 24.27 19.17 41.76 43.43 41.76h29.65a3.58 3.58 0 0 1 .07-.44l17.42-44.26a4.78 4.78 0 1 1 8.91 3.5l-16.21 41.2h34.42c0-.14 0-.29.07-.43l11.74-30.06a4.78 4.78 0 1 1 8.91 3.48l-10.54 27h39.95c18.18 0 33.12-14 33.12-32.19 0-16.94-13.09-32.14-28.39-32.16z"/><path class="cls-1" d="M60.9 211.08a4.78 4.78 0 0 1-4.46-6.53L67.58 176a4.79 4.79 0 1 1 8.91 3.49L65.36 208a4.79 4.79 0 0 1-4.46 3.08z"/><path class="cls-4" d="M247.61 118v-.12c0-24.68-20.66-44.69-45.34-44.69a44.81 44.81 0 0 0-23.55 6.72 73.76 73.76 0 0 1 2 11.18 41.77 41.77 0 0 1 21.59 14.71 40.86 40.86 0 0 1-7.91 57.36H244c12.33 0 23-10.3 23-22.64 0-11.52-9.82-21.37-19.39-22.52z"/><path class="cls-2" d="M172.55 98.93h-.32a.69.69 0 0 0 .32 0z"/><path class="cls-3" d="M172.23 98.92h.32a.52.52 0 0 0-.32 0z"/></svg>