<svg id="Day" xmlns="http://www.w3.org/2000/svg" viewBox="0 0 267 267"><defs><style>.cls-1{fill:#bad7e5}</style></defs><title>Morecast Icons 151015</title><path class="cls-1" d="M127.38 191.29a4.75 4.75 0 0 0-6.71 0L114 198l-6.71-6.71a4.75 4.75 0 0 0-6.71 6.71l6.71 6.71-6.71 6.71a4.75 4.75 0 1 0 6.71 6.71l6.71-6.71 6.71 6.71a4.75 4.75 0 0 0 6.71-6.71l-6.71-6.71 6.71-6.71a4.75 4.75 0 0 0-.04-6.71zM42.49 191.29a4.75 4.75 0 0 0-6.71 0L29.06 198l-6.71-6.71a4.75 4.75 0 0 0-6.72 6.71l6.71 6.71-6.71 6.71a4.75 4.75 0 1 0 6.71 6.71l6.71-6.71 6.71 6.71a4.75 4.75 0 0 0 6.71-6.71l-6.71-6.71 6.73-6.71a4.75 4.75 0 0 0 0-6.71zM85.23 191.29a4.75 4.75 0 0 0-6.71 0L71.8 198l-6.71-6.71a4.75 4.75 0 1 0-6.72 6.71l6.71 6.71-6.71 6.71a4.75 4.75 0 1 0 6.71 6.71l6.71-6.71 6.71 6.71a4.75 4.75 0 1 0 6.71-6.71l-6.71-6.71 6.73-6.71a4.75 4.75 0 0 0 0-6.71zM170.11 191.29a4.75 4.75 0 0 0-6.71 0l-6.71 6.71-6.69-6.71a4.75 4.75 0 0 0-6.71 6.71l6.71 6.71-6.71 6.71a4.75 4.75 0 1 0 6.71 6.71l6.71-6.71 6.71 6.71a4.75 4.75 0 0 0 6.71-6.71l-6.71-6.71 6.71-6.71a4.75 4.75 0 0 0-.02-6.71zM171.24 113.95a.68.68 0 0 1-.32 0c0-36.12-30.24-66.47-66.35-66.47-28.5 0-52.85 17.31-61.84 42.73C18.94 90.54 0 112.51 0 136.38c0 24.09 19 41.44 43.11 41.44h123.44c18 0 32.86-13.88 32.86-31.94 0-16.82-12.99-31.88-28.17-31.93zM52 149.71a4.75 4.75 0 1 1-6.71 6.71l-6.71-6.71-6.71 6.71a4.75 4.75 0 0 1-6.71-6.71l6.68-6.71-6.71-6.71a4.75 4.75 0 0 1 6.71-6.71l6.71 6.71 6.71-6.71a4.75 4.75 0 0 1 6.74 6.7L45.27 143zm42.74 0a4.75 4.75 0 1 1-6.74 6.71l-6.71-6.71-6.71 6.71a4.75 4.75 0 1 1-6.71-6.71l6.71-6.71-6.71-6.71a4.75 4.75 0 0 1 6.71-6.71l6.71 6.71 6.71-6.72a4.75 4.75 0 0 1 6.71 6.71L88 143zm42.15 0a4.75 4.75 0 1 1-6.71 6.71l-6.71-6.71-6.71 6.71a4.75 4.75 0 0 1-6.71-6.71l6.71-6.71-6.76-6.72a4.75 4.75 0 0 1 6.71-6.71l6.71 6.71 6.71-6.71a4.75 4.75 0 0 1 6.71 6.71l-6.68 6.72zm42.74 0a4.75 4.75 0 1 1-6.71 6.71l-6.71-6.71-6.71 6.71a4.75 4.75 0 0 1-6.71-6.71l6.71-6.71-6.71-6.71a4.75 4.75 0 0 1 6.71-6.71l6.71 6.71 6.71-6.71a4.75 4.75 0 0 1 6.71 6.71L172.9 143z"/><path class="cls-1" d="M247.76 132.9v-.12c0-24.5-20.5-44.35-45-44.35a44.47 44.47 0 0 0-23.37 6.67 73.2 73.2 0 0 1 2 11.1 41.45 41.45 0 0 1 21.43 14.59 40.55 40.55 0 0 1-7.85 56.92h49.23c12.24 0 22.83-10.22 22.83-22.47-.03-11.48-9.78-21.24-19.27-22.34z"/></svg>