<svg id="Day" xmlns="http://www.w3.org/2000/svg" viewBox="0 0 267 267"><defs><style>.cls-1{fill:#fdd002}</style></defs><title>Morecast Icons 151015</title><path class="cls-1" d="M150.37 128h-24.1c-1.59 0-3.07.08-4-1.23a4 4 0 0 1-.53-4l22.35-57.93a4.78 4.78 0 0 1 6.23-2.67c2.48 1 3.73 3.26 2.77 5.74L133.29 119h17.08a4.51 4.51 0 1 1 0 9zM116.63 138h24.09a4.42 4.42 0 0 1 4.5 6.09l-22.35 58.06a4.82 4.82 0 0 1-6.23 2.74 4.32 4.32 0 0 1-2.77-5.76L133.71 148h-17.08a5 5 0 0 1 0-10zM160 138h24.1a4.42 4.42 0 0 1 4.5 6.09l-12.72 34a4.82 4.82 0 0 1-6.23 2.74 4.32 4.32 0 0 1-2.77-5.76l10.2-27H160a5 5 0 0 1 0-10.07zM193.74 128h-24.1a4.48 4.48 0 0 1-4.5-6.16l12.72-34a4.82 4.82 0 0 1 6.23-2.75 4.9 4.9 0 0 1 2.77 6.3L176.66 119h17.08a4.51 4.51 0 1 1 0 9zM73.26 138h24.1a4.42 4.42 0 0 1 4.5 6.09l-12.72 34a4.82 4.82 0 0 1-6.23 2.74 4.32 4.32 0 0 1-2.77-5.83l10.2-27H73.26a5 5 0 0 1 0-10zM107 128H82.9a4.48 4.48 0 0 1-4.5-6.16l12.72-34a4.82 4.82 0 0 1 6.23-2.75 4.9 4.9 0 0 1 2.77 6.3L89.92 119H107a4.51 4.51 0 1 1 0 9z"/></svg>