<svg id="Day" xmlns="http://www.w3.org/2000/svg" viewBox="0 0 267 267"><defs><style>.cls-1{fill:#fdb201}.cls-2{fill:#38a7df;opacity:.5}.cls-3{fill:#a2bdca}.cls-4{fill:#bad7e5}</style></defs><title>Morecast Icons 151015</title><path class="cls-1" d="M135 47.23A53.95 53.95 0 1 1 211.69 120a42 42 0 0 1 9.26 8.85v.06a66.65 66.65 0 1 0-100.07-82.33c1.29-.07 2.57-.13 3.81-.13a75.88 75.88 0 0 1 10.31.78z"/><path class="cls-1" d="M226.06 75.76a45.23 45.23 0 0 0-81.77-26.68 75.41 75.41 0 0 1 55.28 65c1.11.34 2.15.84 3.22 1.27a45.24 45.24 0 0 0 23.27-39.59z"/><path class="cls-2" d="M116.74 257.94a4.76 4.76 0 0 1-4.44-6.5l20.46-52.33a4.77 4.77 0 1 1 8.88 3.47l-20.45 52.33a4.77 4.77 0 0 1-4.45 3.03z"/><path class="cls-3" d="M191.35 122.45H191a.68.68 0 0 0 .35 0zM191 122.44h.32a.49.49 0 0 0-.32 0z"/><path class="cls-4" d="M191.35 122.45a.68.68 0 0 1-.32 0c0-36.25-30.34-66.71-66.59-66.71-28.6 0-53 17.37-62.06 42.88C38.51 99 19.5 121 19.5 145c0 24.18 19.1 41.58 43.26 41.58h29.52c0-.14 0-.29.08-.43L109.7 142a4.77 4.77 0 1 1 8.87 3.49l-16.14 41h84.2c18.11 0 33-13.93 33-32.06-.01-16.82-13.05-31.96-28.28-31.98zm-29.72 35.89a4.76 4.76 0 1 1-6.74 6.74l-6.74-6.74-6.74 6.74a4.76 4.76 0 0 1-6.74-6.74l6.74-6.74-6.74-6.74a4.76 4.76 0 0 1 6.74-6.74l6.74 6.74 6.74-6.74a4.76 4.76 0 0 1 6.74 6.74l-6.74 6.74zM97.7 213.54l6.74-6.74a4.76 4.76 0 1 0-6.74-6.74L91 206.8l-6.74-6.74a4.76 4.76 0 1 0-6.74 6.74l6.74 6.74-6.74 6.74a4.76 4.76 0 1 0 6.71 6.72l6.77-6.72 6.7 6.72a4.76 4.76 0 0 0 6.74-6.74z"/><path class="cls-3" d="M191.35 122.45H191a.68.68 0 0 0 .35 0zM191 122.44h.32a.49.49 0 0 0-.32 0z"/></svg>