<svg id="Day" xmlns="http://www.w3.org/2000/svg" viewBox="0 0 267 267"><defs><style>.cls-1{fill:none}.cls-2{fill:#899aa4}.cls-3{fill:#bad7e5}</style></defs><title>Morecast Icons 151015</title><path class="cls-1" d="M205.24 113.89h-.32a.69.69 0 0 0 .32 0z"/><path class="cls-2" d="M204.93 113.88h.32a1 1 0 0 0-.32 0z"/><path class="cls-1" d="M109.45 129.56a4.76 4.76 0 0 0-6.73 0L96 136.29l-6.73-6.73a4.76 4.76 0 0 0-6.73 6.73l6.71 6.71-6.73 6.73a4.76 4.76 0 1 0 6.73 6.73l6.75-6.7 6.73 6.73a4.76 4.76 0 1 0 6.73-6.73l-6.74-6.76 6.73-6.73a4.76 4.76 0 0 0 0-6.71zM194.59 129.56a4.76 4.76 0 0 0-6.73 0l-6.73 6.73-6.73-6.73a4.76 4.76 0 0 0-6.73 6.73l6.73 6.73-6.73 6.73a4.76 4.76 0 1 0 6.73 6.73l6.73-6.73 6.73 6.73a4.76 4.76 0 0 0 6.73-6.73l-6.74-6.75 6.73-6.73a4.76 4.76 0 0 0 .01-6.71zM205.24 113.89h-.32a.69.69 0 0 0 .32 0z"/><path class="cls-2" d="M204.93 113.88h.32a1 1 0 0 0-.32 0z"/><path class="cls-3" d="M178.33 204.93l6.73-6.73a4.76 4.76 0 0 0-6.73-6.73l-6.73 6.73-6.73-6.73a4.76 4.76 0 0 0-6.73 6.73l6.73 6.73-6.73 6.73a4.76 4.76 0 1 0 6.73 6.73l6.73-6.73 6.73 6.73a4.76 4.76 0 0 0 6.73-6.73zM99.92 191.46a4.76 4.76 0 0 0-6.73 0l-6.73 6.73-6.73-6.73A4.76 4.76 0 1 0 73 198.2l6.73 6.73-6.73 6.73a4.76 4.76 0 1 0 6.73 6.73l6.73-6.73 6.73 6.73a4.76 4.76 0 0 0 6.73-6.73l-6.73-6.73 6.73-6.73a4.76 4.76 0 0 0 0-6.74zM135.47 204.93l6.73-6.73a4.76 4.76 0 0 0-6.73-6.73l-6.73 6.73-6.74-6.74a4.76 4.76 0 0 0-6.73 6.73l6.73 6.73-6.73 6.73a4.76 4.76 0 1 0 6.73 6.75l6.73-6.73 6.73 6.73a4.76 4.76 0 0 0 6.73-6.73z"/><path class="cls-1" d="M109.45 129.56a4.76 4.76 0 0 0-6.73 0L96 136.29l-6.73-6.73a4.76 4.76 0 0 0-6.73 6.73l6.71 6.71-6.73 6.73a4.76 4.76 0 1 0 6.73 6.73l6.75-6.7 6.73 6.73a4.76 4.76 0 1 0 6.73-6.73l-6.74-6.76 6.73-6.73a4.76 4.76 0 0 0 0-6.71zM194.59 129.56a4.76 4.76 0 0 0-6.73 0l-6.73 6.73-6.73-6.73a4.76 4.76 0 0 0-6.73 6.73l6.73 6.73-6.73 6.73a4.76 4.76 0 1 0 6.73 6.73l6.73-6.73 6.73 6.73a4.76 4.76 0 0 0 6.73-6.73l-6.74-6.75 6.73-6.73a4.76 4.76 0 0 0 .01-6.71z"/><path class="cls-3" d="M205.24 113.89a.69.69 0 0 1-.32 0c0-36.23-30.32-66.67-66.55-66.67-28.58 0-53 17.36-62 42.86-23.86.34-42.86 22.38-42.86 46.32 0 24.16 19.09 41.56 43.23 41.56h123.8c18.1 0 33-13.92 33-32-.04-16.96-13.07-32.05-28.3-32.07zm-95.8 35.87a4.76 4.76 0 1 1-6.73 6.73L96 149.76l-6.73 6.73a4.76 4.76 0 1 1-6.73-6.73l6.71-6.76-6.73-6.73a4.76 4.76 0 0 1 6.73-6.73l6.75 6.75 6.73-6.73a4.76 4.76 0 1 1 6.73 6.73l-6.74 6.71zm42.86 0a4.76 4.76 0 1 1-6.73 6.73l-6.73-6.73-6.73 6.73a4.76 4.76 0 0 1-6.73-6.73l6.73-6.73-6.73-6.73a4.76 4.76 0 0 1 6.73-6.73l6.73 6.73 6.73-6.73a4.76 4.76 0 1 1 6.73 6.73l-6.72 6.7zm42.28 0a4.76 4.76 0 1 1-6.73 6.73l-6.73-6.73-6.73 6.73a4.76 4.76 0 0 1-6.73-6.73l6.73-6.73-6.73-6.73a4.76 4.76 0 0 1 6.73-6.73l6.73 6.73 6.73-6.73a4.76 4.76 0 0 1 6.73 6.73l-6.73 6.7z"/></svg>