<svg id="Day" xmlns="http://www.w3.org/2000/svg" viewBox="0 0 267 267"><defs><style>.cls-1{fill:#a2bdca}.cls-2{fill:#fdb201}</style></defs><title>Morecast Icons 151015</title><path class="cls-1" d="M230.74 170.33H60.67a3.6 3.6 0 1 1 0-7.21h170.07a3.6 3.6 0 0 1 0 7.21M263.31 189.55H46.57a3.6 3.6 0 1 1 0-7.21h216.74a3.6 3.6 0 1 1 0 7.21M194.33 208.77H3.51a3.6 3.6 0 1 1 0-7.21h190.82a3.6 3.6 0 0 1 0 7.21M229.6 228H51.76a3.6 3.6 0 1 1 0-7.21H229.6a3.6 3.6 0 1 1 0 7.21"/><path class="cls-2" d="M34.17 192a13.66 13.66 0 0 1-1.58-6.31 14.28 14.28 0 0 1 9.74-13.49 81.57 81.57 0 1 1 156.47-32.53 75.59 75.59 0 0 1-1.14 13.33h19.41a93.32 93.32 0 0 0 .93-13.32 100.79 100.79 0 0 0-201.58 0A99.17 99.17 0 0 0 31.13 192h3z"/><path class="cls-2" d="M60.67 153h127.25a66.88 66.88 0 0 0 1.29-13.32 72 72 0 0 0-144 .17 70.61 70.61 0 0 0 3.15 20.91A14.21 14.21 0 0 1 60.67 153z"/></svg>