<svg id="Day" xmlns="http://www.w3.org/2000/svg" viewBox="0 0 267 267"><style>.st0{fill:none}.st1{fill:#c6d1d7}.st2{fill:#bad7e5}.st3{opacity:.75;fill:#38a7df;enable-background:new}</style><title>Morecast Icons 151015</title><path class="st0" d="M205.2 98.6h-.3.3z"/><path class="st1" d="M204.9 98.5h.3-.3z"/><path class="st2" d="M205.2 98.6h-.3c0-36.2-30.3-66.7-66.6-66.7-28.6 0-53 17.4-62 42.9-23.9.3-42.9 22.4-42.9 46.3 0 24.2 19.1 41.6 43.2 41.6h123.8c18.1 0 33-13.9 33-32 .1-17-12.9-32.1-28.2-32.1zM142 129.1l-8.8 22.4c-1.2 2.4-4 3.3-6.4 2.2-2.1-1-3.1-3.4-2.4-5.7l8.8-22.4c1.2-2.4 4-3.3 6.4-2.2 2 1 3.1 3.4 2.4 5.7z"/><path class="st3" d="M96.6 203.1c-2.6 0-4.8-2.1-4.8-4.8 0-.6.1-1.2.3-1.7l8.8-22.4c1-2.4 3.7-3.7 6.2-2.7 2.4 1 3.7 3.7 2.7 6.2l-8.8 22.4c-.6 1.8-2.4 3-4.4 3zM139.5 203.1c-2.6 0-4.8-2.1-4.8-4.8 0-.6.1-1.2.3-1.7l8.8-22.4c1-2.4 3.7-3.7 6.2-2.7s3.7 3.7 2.7 6.2l-8.8 22.4c-.7 1.8-2.4 3-4.4 3z"/><path class="st0" d="M205.2 98.6h-.3.3z"/><path class="st1" d="M204.9 98.5h.3-.3z"/></svg>