<svg id="Day" xmlns="http://www.w3.org/2000/svg" viewBox="0 0 267 267"><defs><style>.cls-1{fill:#fdb201}.cls-2{fill:#38a7df;opacity:.75}.cls-3{fill:#bad7e5}.cls-4{fill:none}.cls-5{fill:#5c686e}.cls-6{fill:#535f66}</style></defs><title>Morecast Icons 151015</title><path class="cls-1" d="M135 46.75a53.95 53.95 0 1 1 76.65 72.76 42 42 0 0 1 9.26 8.85v.06a66.65 66.65 0 1 0-100.03-82.33c1.29-.07 2.57-.13 3.81-.13a75.88 75.88 0 0 1 10.31.79z"/><path class="cls-1" d="M226.06 75.28a45.23 45.23 0 0 0-81.77-26.68 75.41 75.41 0 0 1 55.28 65c1.11.34 2.15.84 3.22 1.27a45.24 45.24 0 0 0 23.27-39.59z"/><path class="cls-2" d="M153.69 258.43a4.71 4.71 0 0 1-1.73-.33 4.76 4.76 0 0 1-2.71-6.17l20.45-52.33a4.77 4.77 0 1 1 8.88 3.47l-20.45 52.33a4.76 4.76 0 0 1-4.44 3.03zM67.32 258.43a4.76 4.76 0 0 1-4.44-6.5l20.45-52.33a4.77 4.77 0 0 1 8.88 3.47L71.75 255.4a4.77 4.77 0 0 1-4.43 3.03z"/><path class="cls-3" d="M48.14 213.06l6.74-6.74a4.76 4.76 0 0 0-6.74-6.74l-6.74 6.74-6.74-6.74a4.76 4.76 0 0 0-6.74 6.74l6.74 6.74-6.74 6.74a4.76 4.76 0 1 0 6.74 6.74l6.74-6.74 6.74 6.74a4.76 4.76 0 1 0 6.74-6.74zM133.9 213.06l6.74-6.74a4.76 4.76 0 0 0-6.74-6.74l-6.74 6.74-6.74-6.74a4.76 4.76 0 1 0-6.74 6.74l6.74 6.74-6.74 6.74a4.76 4.76 0 1 0 6.74 6.74l6.74-6.74 6.74 6.74a4.76 4.76 0 1 0 6.74-6.74z"/><path class="cls-4" d="M191.35 122H191a.68.68 0 0 0 .35 0z"/><path class="cls-5" d="M191 122h.32a.52.52 0 0 0-.32 0z"/><path class="cls-6" d="M191.35 122a.68.68 0 0 1-.32 0c0-36.25-30.35-66.71-66.59-66.71-28.6 0-53 17.37-62.05 42.88-23.88.34-42.88 22.39-42.88 46.35a40.49 40.49 0 0 0 26.84 38.66l16.35-41.63a4.77 4.77 0 1 1 8.87 3.45l-15.92 40.5a48.63 48.63 0 0 0 7.1.56h67.65c0-.14 17.42-44.52 17.42-44.52a4.77 4.77 0 1 1 8.87 3.49l-16.15 41h46.09c18.11 0 33-13.93 33-32.06-.01-16.85-13.05-31.97-28.28-31.97zm-73.23 35.89a4.76 4.76 0 1 1-6.74 6.74l-6.74-6.74-6.74 6.74a4.76 4.76 0 1 1-6.74-6.74l6.74-6.74-6.74-6.74a4.76 4.76 0 1 1 6.74-6.74l6.74 6.74 6.74-6.74a4.76 4.76 0 1 1 6.74 6.74l-6.74 6.74zm86.06 0a4.76 4.76 0 1 1-6.74 6.74l-6.74-6.74-6.7 6.7a4.76 4.76 0 0 1-6.74-6.74l6.74-6.74-6.74-6.74a4.76 4.76 0 0 1 6.74-6.74l6.74 6.74 6.74-6.74a4.76 4.76 0 1 1 6.74 6.74l-6.74 6.74z"/><path class="cls-4" d="M191.35 122H191a.68.68 0 0 0 .35 0z"/><path class="cls-5" d="M191 122h.32a.52.52 0 0 0-.32 0z"/></svg>