<svg id="Day" xmlns="http://www.w3.org/2000/svg" viewBox="0 0 267 267"><style>.st0{fill:none}.st1{fill:#c6d1d7}.st2{fill:#bad7e5}</style><title>Morecast Icons 151015</title><path class="st0" d="M205.2 113.9h-.3.3z"/><path class="st1" d="M204.9 113.9h.3-.3z"/><path class="st0" d="M205.2 113.9h-.3.3z"/><path class="st1" d="M204.9 113.9h.3-.3z"/><path class="st2" d="M159.3 204.9l6.7-6.7c1.8-1.9 1.8-4.9-.1-6.7-1.8-1.8-4.7-1.8-6.6 0l-6.7 6.7-6.7-6.7c-1.8-1.9-4.8-2-6.7-.1-1.9 1.8-2 4.8-.1 6.7 0 .1.1.1.1.1l6.7 6.7-6.7 6.7c-1.9 1.8-2 4.8-.1 6.7 1.8 1.9 4.8 2 6.7.1.1 0 .1-.1.1-.1l6.7-6.7 6.7 6.7c1.9 1.8 4.9 1.8 6.7-.1 1.8-1.8 1.8-4.7 0-6.6l-6.7-6.7zM111.7 204.9l6.7-6.7c1.8-1.9 1.8-4.9-.1-6.7-1.8-1.8-4.7-1.8-6.6 0l-6.7 6.7-6.7-6.7c-1.9-1.8-4.9-1.8-6.7.1-1.8 1.8-1.8 4.7 0 6.6l6.7 6.7-6.7 6.7c-1.9 1.8-2 4.8-.1 6.7 1.8 1.9 4.8 2 6.7.1.1 0 .1-.1.1-.1l6.7-6.7 6.7 6.7c1.9 1.8 4.9 1.8 6.7-.1 1.8-1.8 1.8-4.7 0-6.6l-6.7-6.7z"/><path class="st0" d="M127.9 129.6c-1.9-1.9-4.9-1.9-6.7 0l-6.7 6.7-6.7-6.7c-1.9-1.8-4.9-1.8-6.7.1-1.8 1.8-1.8 4.7 0 6.6l6.7 6.7-6.7 6.7c-1.9 1.8-2 4.8-.1 6.7 1.8 1.9 4.8 2 6.7.1.1 0 .1-.1.1-.1l6.7-6.7 6.7 6.7c1.8 1.9 4.8 2 6.7.1 1.9-1.8 2-4.8.1-6.7 0-.1-.1-.1-.1-.1l-6.7-6.8 6.7-6.7c1.9-1.8 1.9-4.8 0-6.6z"/><path class="st2" d="M205.2 113.9h-.3c0-36.2-30.3-66.7-66.6-66.7-28.6 0-53 17.4-62 42.9-23.9.3-42.9 22.4-42.9 46.3 0 24.2 19.1 41.6 43.2 41.6h123.8c18.1 0 33-13.9 33-32 .1-17-12.9-32.1-28.2-32.1zm-77.3 35.9c1.9 1.8 2 4.8.1 6.7-1.8 1.9-4.8 2-6.7.1-.1 0-.1-.1-.1-.1l-6.7-6.7-6.7 6.7c-1.9 1.8-4.9 1.8-6.7-.1-1.8-1.8-1.8-4.7 0-6.6l6.7-6.7-6.7-6.7c-1.8-1.9-1.8-4.9.1-6.7 1.8-1.8 4.7-1.8 6.6 0l6.7 6.7 6.7-6.7c1.9-1.8 4.9-1.8 6.7.1 1.8 1.8 1.8 4.7 0 6.6l-6.7 6.7 6.7 6.7zm47.6 0c1.9 1.8 2 4.8.1 6.7-1.8 1.9-4.8 2-6.7.1-.1 0-.1-.1-.1-.1l-6.7-6.7-6.7 6.7c-1.9 1.8-4.9 1.8-6.7-.1-1.8-1.8-1.8-4.7 0-6.6l6.7-6.7-6.7-6.7c-1.8-1.9-1.8-4.9.1-6.7 1.8-1.8 4.7-1.8 6.6 0l6.7 6.7 6.7-6.7c1.9-1.8 4.9-1.8 6.7.1 1.8 1.8 1.8 4.7 0 6.6l-6.7 6.7 6.7 6.7z"/><path class="st0" d="M127.9 129.6c-1.9-1.9-4.9-1.9-6.7 0l-6.7 6.7-6.7-6.7c-1.9-1.8-4.9-1.8-6.7.1-1.8 1.8-1.8 4.7 0 6.6l6.7 6.7-6.7 6.7c-1.9 1.8-2 4.8-.1 6.7 1.8 1.9 4.8 2 6.7.1.1 0 .1-.1.1-.1l6.7-6.7 6.7 6.7c1.8 1.9 4.8 2 6.7.1 1.9-1.8 2-4.8.1-6.7 0-.1-.1-.1-.1-.1l-6.7-6.8 6.7-6.7c1.9-1.8 1.9-4.8 0-6.6z"/></svg>