<svg id="Day" xmlns="http://www.w3.org/2000/svg" viewBox="0 0 267 267"><defs><style>.cls-1{fill:none}.cls-2{fill:#5c686e}.cls-3{fill:#38a7df;opacity:.75}.cls-4{fill:#bad7e5}.cls-5{fill:#535f66}</style></defs><title>Morecast Icons 151015</title><path class="cls-1" d="M181.57 127.21h-.32a.68.68 0 0 0 .32 0z"/><path class="cls-2" d="M181.25 127.2h.32a.52.52 0 0 0-.32 0z"/><path class="cls-3" d="M134.34 235.2a4.72 4.72 0 0 1-1.73-.33 4.77 4.77 0 0 1-2.71-6.18l20.48-52.39a4.77 4.77 0 1 1 8.89 3.47l-20.48 52.39a4.77 4.77 0 0 1-4.45 3.04zM47.87 235.2a4.76 4.76 0 0 1-4.44-6.51L63.9 176.3a4.77 4.77 0 0 1 8.89 3.47l-20.48 52.4a4.78 4.78 0 0 1-4.44 3.03z"/><path class="cls-4" d="M28.67 189.78l6.74-6.78a4.77 4.77 0 0 0-6.75-6.74L21.92 183l-6.74-6.74A4.77 4.77 0 0 0 8.43 183l6.75 6.75-6.75 6.74a4.77 4.77 0 1 0 6.75 6.75l6.74-6.75 6.75 6.75a4.77 4.77 0 0 0 6.75-6.75zM114.52 189.78l6.75-6.75a4.77 4.77 0 1 0-6.75-6.74l-6.74 6.71-6.78-6.71a4.77 4.77 0 1 0-6.71 6.71l6.75 6.75-6.75 6.74a4.77 4.77 0 1 0 6.75 6.75l6.74-6.75 6.75 6.75a4.77 4.77 0 1 0 6.75-6.75z"/><path class="cls-5" d="M172 98.59a.68.68 0 0 1-.32 0c0-36.29-30.38-66.78-66.67-66.78C76.42 31.8 52 49.19 42.93 74.73 19 75.07 0 97.14 0 121.13a40.54 40.54 0 0 0 26.87 38.7l16.38-41.64a4.77 4.77 0 0 1 8.88 3.49l-15.94 40.51a48.68 48.68 0 0 0 7.11.56H111c0-.14 17.44-44.56 17.44-44.56a4.77 4.77 0 1 1 8.88 3.49l-16.16 41.07h46.14c18.13 0 33-13.95 33-32.09.03-16.89-13.02-32.05-28.3-32.07zm-73.28 35.93a4.77 4.77 0 1 1-6.72 6.74l-6.74-6.75-6.75 6.75a4.77 4.77 0 0 1-6.75-6.75l6.75-6.74-6.77-6.77a4.77 4.77 0 1 1 6.75-6.74l6.74 6.74 6.77-6.71a4.77 4.77 0 0 1 6.72 6.71L92 127.78zm86.16 0a4.77 4.77 0 1 1-6.75 6.75l-6.74-6.75-6.75 6.75a4.77 4.77 0 0 1-6.75-6.75l6.75-6.74-6.74-6.78a4.77 4.77 0 0 1 6.75-6.74l6.75 6.74 6.74-6.74a4.77 4.77 0 1 1 6.75 6.74l-6.75 6.75z"/><path class="cls-5" d="M247.67 117.73v-.12c0-24.61-20.6-44.55-45.2-44.55a44.68 44.68 0 0 0-23.47 6.7 73.54 73.54 0 0 1 2 11.15 41.64 41.64 0 0 1 21.53 14.66 40.74 40.74 0 0 1-7.89 57.19h49.46c12.3 0 22.93-10.27 22.93-22.57-.03-11.54-9.82-21.32-19.36-22.46z"/><path class="cls-1" d="M181.57 127.21h-.32a.68.68 0 0 0 .32 0z"/><path class="cls-2" d="M181.25 127.2h.32a.52.52 0 0 0-.32 0z"/></svg>