<svg id="Day" xmlns="http://www.w3.org/2000/svg" viewBox="0 0 267 267"><defs><style>.cls-1{fill:#fdb201}.cls-2{fill:none}.cls-3{fill:#5c686e}.cls-4{fill:#bad7e5}</style></defs><title>Morecast Icons 151015</title><path class="cls-1" d="M135 62a53.95 53.95 0 1 1 76.65 72.76 42 42 0 0 1 9.26 8.85v.06a66.65 66.65 0 1 0-100.03-82.33c1.29-.07 2.57-.14 3.81-.14A76 76 0 0 1 135 62z"/><path class="cls-1" d="M226.06 90.53a45.23 45.23 0 0 0-81.77-26.68 75.41 75.41 0 0 1 55.28 65c1.11.34 2.15.84 3.22 1.27a45.24 45.24 0 0 0 23.27-39.59z"/><path class="cls-2" d="M191.35 137.21H191a.69.69 0 0 0 .35 0z"/><path class="cls-3" d="M191 137.2h.32a1 1 0 0 0-.32 0z"/><path class="cls-2" d="M191.35 137.21H191a.69.69 0 0 0 .35 0z"/><path class="cls-3" d="M191 137.2h.32a1 1 0 0 0-.32 0z"/><path class="cls-4" d="M147.33 214.83a4.76 4.76 0 0 0-6.74 0l-6.74 6.74-6.74-6.74a4.76 4.76 0 0 0-6.74 6.74l6.74 6.74-6.73 6.69a4.76 4.76 0 1 0 6.74 6.74l6.74-6.74 6.74 6.74a4.76 4.76 0 0 0 6.74-6.74l-6.74-6.74 6.74-6.74a4.76 4.76 0 0 0-.01-6.69zM62.14 214.83a4.76 4.76 0 0 0-6.74 0l-6.74 6.74-6.74-6.74a4.76 4.76 0 0 0-6.74 6.74l6.74 6.74-6.73 6.69a4.76 4.76 0 1 0 6.74 6.74l6.74-6.74 6.74 6.74a4.76 4.76 0 0 0 6.73-6.74l-6.74-6.74 6.74-6.74a4.76 4.76 0 0 0 0-6.69zM105 214.83a4.76 4.76 0 0 0-6.74 0l-6.74 6.74-6.74-6.74a4.76 4.76 0 0 0-6.74 6.74l6.74 6.74-6.7 6.69a4.76 4.76 0 1 0 6.74 6.74l6.73-6.74 6.74 6.74A4.76 4.76 0 0 0 105 235l-6.74-6.74 6.74-6.74a4.76 4.76 0 0 0 0-6.69zM190.22 214.83a4.76 4.76 0 0 0-6.74 0l-6.74 6.74-6.74-6.74a4.76 4.76 0 0 0-6.74 6.74l6.74 6.74-6.73 6.69a4.76 4.76 0 1 0 6.74 6.74l6.74-6.74 6.74 6.74a4.76 4.76 0 0 0 6.74-6.74l-6.74-6.74 6.74-6.74a4.76 4.76 0 0 0-.01-6.69zM191.35 137.21a.69.69 0 0 1-.32 0c0-36.25-30.34-66.71-66.59-66.71-28.6 0-53 17.37-62.06 42.88-23.87.34-42.88 22.39-42.88 46.35 0 24.18 19.1 41.58 43.26 41.58h123.88c18.11 0 33-13.93 33-32.05-.02-16.88-13.06-32.03-28.29-32.05zM71.67 173.1a4.76 4.76 0 1 1-6.74 6.74l-6.74-6.74-6.74 6.74a4.76 4.76 0 1 1-6.74-6.74l6.74-6.74-6.74-6.74a4.76 4.76 0 1 1 6.74-6.74l6.74 6.74 6.74-6.74a4.76 4.76 0 0 1 6.74 6.74l-6.74 6.74zm42.89 0a4.76 4.76 0 1 1-6.74 6.74l-6.74-6.74-6.74 6.74a4.76 4.76 0 1 1-6.74-6.74l6.74-6.74-6.74-6.74a4.76 4.76 0 1 1 6.74-6.74l6.74 6.74 6.74-6.74a4.76 4.76 0 1 1 6.74 6.74l-6.74 6.74zm42.3 0a4.76 4.76 0 1 1-6.74 6.74l-6.74-6.74-6.74 6.74a4.76 4.76 0 0 1-6.74-6.74l6.74-6.74-6.74-6.74a4.76 4.76 0 0 1 6.74-6.74l6.74 6.74 6.74-6.74a4.76 4.76 0 0 1 6.74 6.74l-6.74 6.74zm42.89 0a4.76 4.76 0 1 1-6.74 6.74l-6.74-6.74-6.74 6.74a4.76 4.76 0 0 1-6.74-6.74l6.74-6.74-6.74-6.74a4.76 4.76 0 0 1 6.74-6.74l6.74 6.74 6.74-6.74a4.76 4.76 0 0 1 6.74 6.74l-6.75 6.74z"/></svg>