<svg id="Day" xmlns="http://www.w3.org/2000/svg" viewBox="0 0 267 267"><defs><style>.cls-1{fill:#a2bdca}.cls-2{fill:#38a7df;opacity:.75}.cls-3{fill:#bad7e5}.cls-4{fill:none}.cls-5{fill:#7b8b97}</style></defs><title>Morecast Icons 151015</title><path class="cls-1" d="M205.24 98.73h-.32a.69.69 0 0 0 .32 0zM204.93 98.71h.32a.48.48 0 0 0-.32 0z"/><path class="cls-1" d="M205.24 98.73h-.32a.69.69 0 0 0 .32 0zM204.93 98.71h.32a.48.48 0 0 0-.32 0z"/><path class="cls-2" d="M104.83 235a4.76 4.76 0 0 1-4.44-6.5l20.44-52.3a4.76 4.76 0 0 1 8.87 3.47l-20.44 52.3a4.77 4.77 0 0 1-4.43 3.03z"/><path class="cls-3" d="M87.45 189.77l6.74-6.77a4.76 4.76 0 0 0-6.73-6.73L80.72 183 74 176.3a4.76 4.76 0 0 0-6.75 6.7l6.75 6.77-6.73 6.73a4.76 4.76 0 1 0 6.73 6.73l6.73-6.73 6.73 6.73a4.76 4.76 0 1 0 6.73-6.73z"/><path class="cls-4" d="M156.49 114.39a4.76 4.76 0 0 0-6.73 0l-6.76 6.74-6.73-6.73a4.76 4.76 0 0 0-6.73 6.73l6.73 6.73-6.73 6.73a4.76 4.76 0 1 0 6.73 6.73l6.73-6.72 6.73 6.73a4.76 4.76 0 0 0 6.73-6.73l-6.73-6.73 6.73-6.73a4.76 4.76 0 0 0 .03-6.75z"/><path class="cls-5" d="M205.24 98.73a.69.69 0 0 1-.32 0C204.93 62.49 174.6 32 138.38 32c-28.58 0-53 17.36-62 42.86-23.88.39-42.88 22.43-42.88 46.37 0 24.16 19.09 41.56 43.23 41.56H83c0-.14 0-.29.08-.43l17.33-44.06a4.76 4.76 0 1 1 8.86 3.49l-16.13 41h74.89l17.39-44.48a4.76 4.76 0 1 1 8.87 3.47l-16 41h22.23c18.1 0 33-13.92 33-32-.02-16.9-13.05-32.03-28.28-32.05zm-48.75 35.87a4.76 4.76 0 1 1-6.73 6.73L143 134.6l-6.73 6.73a4.76 4.76 0 0 1-6.73-6.73l6.73-6.73-6.73-6.73a4.76 4.76 0 0 1 6.73-6.73l6.73 6.73 6.73-6.73a4.76 4.76 0 0 1 6.73 6.73l-6.73 6.73z"/><path class="cls-3" d="M171.58 189.77l6.73-6.73a4.76 4.76 0 0 0-6.73-6.73l-6.74 6.69-6.73-6.73a4.76 4.76 0 0 0-6.73 6.73l6.73 6.73-6.73 6.73a4.76 4.76 0 1 0 6.73 6.73l6.73-6.73 6.73 6.73a4.76 4.76 0 1 0 6.73-6.73z"/><path class="cls-4" d="M156.49 114.39a4.76 4.76 0 0 0-6.73 0l-6.76 6.74-6.73-6.73a4.76 4.76 0 0 0-6.73 6.73l6.73 6.73-6.73 6.73a4.76 4.76 0 1 0 6.73 6.73l6.73-6.72 6.73 6.73a4.76 4.76 0 0 0 6.73-6.73l-6.73-6.73 6.73-6.73a4.76 4.76 0 0 0 .03-6.75z"/></svg>