<svg id="Day" xmlns="http://www.w3.org/2000/svg" viewBox="0 0 267 267"><defs><style>.cls-1{fill:#fdb201}.cls-2{fill:#bad7e5}</style></defs><title>Morecast Icons 151015</title><path class="cls-1" d="M158.16 30.92a102.51 102.51 0 0 0-101.22 86.63 55.56 55.56 0 0 1 20.86-4.65 83.29 83.29 0 1 1 65.62 102.26 33 33 0 0 1-20.89 7.4h-15.16a102.55 102.55 0 1 0 50.79-191.64z"/><path class="cls-1" d="M231.43 133.5a73.24 73.24 0 0 0-143.72-20 55.55 55.55 0 0 1 46.71 47.31c11.08 4.59 20.84 15.55 20.84 29.68a31.29 31.29 0 0 1-4.35 15.9c2.39.23 4.8.37 7.24.37a73.28 73.28 0 0 0 73.28-73.26z"/><path class="cls-2" d="M36.76 212.78h-.09c-16.79 0-30.42-13.08-30.42-29.88a30.22 30.22 0 0 1 30-30.12 45.05 45.05 0 0 1 16.21-21.56 45.89 45.89 0 0 1 72.65 37v.13c9.77 1.16 20.33 10.33 20.33 22.14 0 12.6-10.34 22.28-22.94 22.28H36.76z"/></svg>