<svg id="Day" xmlns="http://www.w3.org/2000/svg" viewBox="0 0 267 267"><defs><style>.cls-1{fill:#fdb201}.cls-2{fill:#535f66}.cls-3{fill:#fdd002}</style></defs><title>Morecast Icons 151015</title><path class="cls-1" d="M135 45a53.95 53.95 0 1 1 76.65 72.76 42 42 0 0 1 9.26 8.85v.06a66.65 66.65 0 1 0-100.03-82.35c1.29-.07 2.57-.13 3.81-.13A76 76 0 0 1 135 45z"/><path class="cls-1" d="M226.06 73.51a45.23 45.23 0 0 0-81.77-26.68 75.41 75.41 0 0 1 55.28 65c1.11.34 2.15.84 3.22 1.27a45.24 45.24 0 0 0 23.27-39.59z"/><path class="cls-2" d="M190 120.15V120A65.15 65.15 0 0 0 63.33 98.16c-23.84.33-42.95 19-42.95 42.89C20.38 165.19 40 184 64.11 184h124.53c18.08 0 31.77-13.92 31.77-32-.01-17-11.41-30.17-30.41-31.85z"/><path class="cls-3" d="M132.6 184h-23.79c-1.57 0-3 .1-3.92-1.19a3.92 3.92 0 0 1-.52-4l22.07-57.18a4.72 4.72 0 0 1 6.15-2.63c2.45.95 3.68 3.14 2.74 5.58L115.74 175h16.86a4.51 4.51 0 1 1 0 9zM99.3 194h23.79a4.32 4.32 0 0 1 4.44 6l-22.07 57.31a4.75 4.75 0 0 1-6.15 2.7 4.69 4.69 0 0 1-2.74-6.08L116.16 203H99.3a4.51 4.51 0 1 1 0-9z"/></svg>