<svg id="Day" xmlns="http://www.w3.org/2000/svg" viewBox="0 0 267 267"><style>.st0{fill:#bad7e5}.st1{fill:#fdb201}</style><title>Morecast Icons 151015</title><path class="st0" d="M120.1 192.7c.1-19.2 13.9-35.6 32.8-39 3.6-7.3 8.8-13.7 15.3-18.7-9.5-26.2-34.3-43.6-62.2-43.6-2.9 0-5.8.2-8.6.6-24.7 3.2-45.5 19.9-53.8 43.3-24.3.2-43.7 19.9-43.6 44.1s20 43.6 44.2 43.5H134c-8.9-7.6-13.9-18.6-13.9-30.2z"/><path class="st1" d="M229.6 111.3c0-37.1-30-67.1-67.1-67.2-25.7 0-49.1 14.7-60.4 37.8 1.3-.1 2.6-.1 3.8-.1 3.5 0 7 .3 10.4.8 15.9-25.5 49.4-33.3 74.9-17.4 20.1 12.5 29.7 36.5 23.9 59.5 4.2 1 8.2 2.5 12 4.4 1.7-5.8 2.5-11.8 2.5-17.8z"/><path class="st1" d="M206.4 123.2c6.6-24.3-7.7-49.3-32-55.9-18.2-5-37.6 1.8-48.8 17.1 23 6.3 41.8 23 50.6 45.1 7.9-4.3 16.8-6.5 25.8-6.5 1.5 0 3 .1 4.4.2z"/><path class="st0" d="M159.6 222.9c-16.7 0-30.2-13.4-30.2-30s13.4-30.1 30-30.1c6.5-18 23.5-30 42.6-30.1 24.8 0 45.5 20.1 45.5 44.8v.1c9.6 1.1 19.4 11 19.4 22.6 0 12.4-10.7 22.7-23.1 22.7h-84.2z"/></svg>