<svg id="Day" xmlns="http://www.w3.org/2000/svg" viewBox="0 0 267 267"><defs><style>.cls-1{fill:#535f66}.cls-2{fill:#fdd002}</style></defs><title>Morecast Icons 151015</title><path class="cls-1" d="M167 96.17V96c0-36.26-27.29-65.66-63.54-65.66-28.6 0-51.84 18.29-60.86 43.8A43 43 0 0 0 0 117.55C0 141.73 20 161 44.2 161H169c18.11 0 30.16-14.37 30.16-32.51C199.12 111.5 188 97.85 167 96.17z"/><path class="cls-1" d="M247.69 115.14V115c0-24.59-20.58-44.52-45.16-44.52a44.64 44.64 0 0 0-23.46 6.7 73.47 73.47 0 0 1 2 11.14A41.61 41.61 0 0 1 202.56 103a40.71 40.71 0 0 1-7.88 57.14h49.42c12.29 0 22.91-10.26 22.91-22.55-.01-11.54-9.79-21.3-19.32-22.45z"/><path class="cls-2" d="M117.58 161H93.75a4.41 4.41 0 0 1-3.93-1.62 4.33 4.33 0 0 1-.52-4.19l22.11-57.39a4.75 4.75 0 0 1 6.16-2.69 4.61 4.61 0 0 1 2.74 6L100.69 152h16.89a4.51 4.51 0 1 1 0 9zM83.63 172h24.09a4.42 4.42 0 0 1 4.5 6.09l-22.35 58.06a4.82 4.82 0 0 1-6.23 2.74 4.32 4.32 0 0 1-2.77-5.76L100.71 182H83.63a5 5 0 0 1 0-10zM127 172h24.1a4.42 4.42 0 0 1 4.5 6.09l-12.72 34a4.82 4.82 0 0 1-6.23 2.74 4.32 4.32 0 0 1-2.77-5.76l10.2-27H127a5 5 0 0 1 0-10.07zM40.26 172h24.1a4.42 4.42 0 0 1 4.5 6.09l-12.72 34a4.82 4.82 0 0 1-6.23 2.74 4.32 4.32 0 0 1-2.77-5.83l10.2-27H40.26a5 5 0 0 1 0-10z"/></svg>