<svg id="Day" xmlns="http://www.w3.org/2000/svg" viewBox="0 0 267 267"><defs><style>.cls-1{fill:none}.cls-2{fill:#5c686e}.cls-3{fill:#38a7df;opacity:.75}.cls-4{fill:#bad7e5;opacity:.5}.cls-5{fill:#535f66}</style></defs><title>Morecast Icons 151015</title><path class="cls-1" d="M205.24 98.78h-.32a.69.69 0 0 0 .32 0z"/><path class="cls-2" d="M204.93 98.77h.32a.48.48 0 0 0-.32 0z"/><path class="cls-3" d="M81.24 234.72a4.76 4.76 0 0 1-4.44-6.5l20.44-52.3a4.76 4.76 0 0 1 8.87 3.47l-20.44 52.3a4.77 4.77 0 0 1-4.43 3.03z"/><path class="cls-4" d="M67.51 172L55.6 191.05 43.7 172h23.81z"/><path class="cls-3" d="M167.43 234.72a4.76 4.76 0 0 1-4.44-6.5l20.44-52.3a4.76 4.76 0 0 1 8.87 3.47l-20.44 52.3a4.77 4.77 0 0 1-4.43 3.03z"/><path class="cls-4" d="M153.7 172l-11.91 19.05-11.9-19.05h23.81z"/><path class="cls-5" d="M205.24 98.78a.69.69 0 0 1-.32 0c0-36.23-30.32-66.67-66.55-66.67-28.58 0-53 17.36-62 42.86-23.87.33-42.87 22.37-42.87 46.31a40.47 40.47 0 0 0 26.82 38.64l16.36-41.57a4.76 4.76 0 1 1 8.86 3.49l-15.91 40.44a48.66 48.66 0 0 0 7.1.56h67.6c0-.14 17.41-44.49 17.41-44.49a4.76 4.76 0 1 1 8.86 3.49l-16.13 41h46.06c18.1 0 33-13.92 33-32-.03-16.91-13.06-32.04-28.29-32.06zm-92.5 49.77l-11.9-19h23.81zm86.19 0l-11.9-19h23.81z"/><path class="cls-1" d="M205.24 98.78h-.32a.69.69 0 0 0 .32 0z"/><path class="cls-2" d="M204.93 98.77h.32a.48.48 0 0 0-.32 0z"/></svg>