<svg id="Day" xmlns="http://www.w3.org/2000/svg" viewBox="0 0 267 267"><defs><style>.cls-1{fill:#a2bdca}.cls-2{fill:#38a7df;opacity:.75}.cls-3{fill:#bad7e5}</style></defs><title>Morecast Icons 151015</title><path class="cls-1" d="M205.24 99.13h-.32a.69.69 0 0 0 .32 0zM204.93 99.12h.32a.49.49 0 0 0-.32 0z"/><path class="cls-2" d="M129.52 234.55a4.76 4.76 0 0 1-4.44-6.5l20.44-52.3a4.76 4.76 0 1 1 8.87 3.47L134 231.52a4.76 4.76 0 0 1-4.48 3.03z"/><path class="cls-3" d="M205.24 99.13a.69.69 0 0 1-.32 0c0-36.23-30.32-66.67-66.55-66.67-28.58 0-53 17.36-62 42.86-23.87.33-42.87 22.37-42.87 46.31 0 24.16 19.09 41.56 43.23 41.56h29.51c0-.14 0-.29.08-.43l17.33-44.06a4.76 4.76 0 1 1 8.86 3.49l-16.13 41h84.15c18.1 0 33-13.92 33-32-.03-16.9-13.06-32.04-28.29-32.06zM175.54 135a4.76 4.76 0 1 1-6.73 6.73l-6.74-6.73-6.73 6.73a4.76 4.76 0 0 1-6.74-6.73l6.73-6.73-6.73-6.73a4.76 4.76 0 0 1 6.73-6.73l6.73 6.73 6.73-6.73a4.76 4.76 0 0 1 6.73 6.73l-6.73 6.73zM111.66 190.17l6.73-6.73a4.76 4.76 0 0 0-6.73-6.73l-6.73 6.73-6.73-6.73a4.76 4.76 0 0 0-6.73 6.73l6.73 6.73-6.73 6.73a4.76 4.76 0 1 0 6.73 6.73l6.73-6.73 6.73 6.73a4.76 4.76 0 0 0 6.73-6.73z"/><path class="cls-1" d="M205.24 99.13h-.32a.69.69 0 0 0 .32 0zM204.93 99.12h.32a.49.49 0 0 0-.32 0z"/></svg>