<svg id="Day" xmlns="http://www.w3.org/2000/svg" viewBox="0 0 267 267"><defs><style>.cls-1{fill:#a2bdca}.cls-2{fill:#bad7e5}</style></defs><title>Morecast Icons 151015</title><path class="cls-1" d="M213.69 198.42a4.76 4.76 0 0 0-6.73 0l-6.73 6.73-6.73-6.73a4.76 4.76 0 1 0-6.73 6.73l6.73 6.73-6.73 6.73a4.76 4.76 0 1 0 6.73 6.73l6.73-6.73 6.73 6.73a4.76 4.76 0 0 0 6.73-6.73l-6.69-6.74 6.73-6.73a4.76 4.76 0 0 0 0-6.73M260.43 157a4.76 4.76 0 0 0-6.73 0l-6.7 6.7-6.75-6.7a4.76 4.76 0 0 0-6.73 6.73l6.73 6.73-6.73 6.73a4.76 4.76 0 0 0 6.73 6.73l6.73-6.73 6.73 6.73a4.76 4.76 0 1 0 6.73-6.73l-6.73-6.73 6.73-6.73a4.75 4.75 0 0 0 0-6.73"/><path class="cls-2" d="M199.37 140.67a21.21 21.21 0 0 0-21.21 21.21 4.76 4.76 0 1 0 9.52 0 11.69 11.69 0 1 1 11.69 11.69H45.63a4.76 4.76 0 1 0 0 9.52h153.74a21.21 21.21 0 1 0 0-42.41M153.11 195.8H80.63a4.76 4.76 0 0 0 0 9.52h72.48A11.69 11.69 0 1 1 141.42 217a4.76 4.76 0 1 0-9.51 0 21.21 21.21 0 1 0 21.21-21.21"/><path class="cls-2" d="M176.77 95.41h-.32c0-36.19-30.3-66.61-66.49-66.61-28.56 0-53 17.35-62 42.82C24.15 72 5.17 94 5.17 117.89c0 24.14 19.07 41.52 43.2 41.52h116.36s0-16.15 12.3-25.7c13-10.05 28-6.93 28-6.93-.03-16.85-13.03-31.35-28.26-31.37zm-83.09 39.4a4.76 4.76 0 1 1-6.73 6.73l-6.73-6.73-6.73 6.73a4.76 4.76 0 0 1-6.73-6.73l6.73-6.73-6.73-6.73a4.76 4.76 0 0 1 6.73-6.73l6.73 6.73 6.73-6.73a4.76 4.76 0 0 1 6.73 6.73l-6.73 6.73zm47.77 0a4.76 4.76 0 1 1-6.73 6.73l-6.72-6.73-6.73 6.73a4.76 4.76 0 1 1-6.73-6.73l6.73-6.73-6.73-6.73a4.76 4.76 0 0 1 6.73-6.73l6.73 6.73 6.73-6.73a4.76 4.76 0 0 1 6.73 6.73l-6.73 6.73z"/></svg>