<svg id="Day" xmlns="http://www.w3.org/2000/svg" viewBox="0 0 267 267"><defs><style>.cls-1{fill:#38a7df;opacity:.75}.cls-2{fill:none}.cls-3{fill:#5c686e}.cls-4{fill:#535f66}.cls-5{fill:#c6d1d7}.cls-6{fill:#fdb201}</style></defs><title>Morecast Icons 151015</title><path class="cls-1" d="M153.7 257.94a4.76 4.76 0 0 1-4.44-6.5l20.45-52.33a4.77 4.77 0 1 1 8.88 3.47l-20.45 52.33a4.77 4.77 0 0 1-4.44 3.03z"/><path class="cls-2" d="M191.35 122.45H191a.69.69 0 0 0 .35 0z"/><path class="cls-3" d="M191 122.44h.32a.49.49 0 0 0-.32 0z"/><path class="cls-4" d="M191.35 122.45a.69.69 0 0 1-.32 0c0-36.25-30.34-66.71-66.59-66.71-28.6 0-53 17.37-62.06 42.88C38.51 99 19.5 121 19.5 145a40.5 40.5 0 0 0 26.84 38.66L62.7 142a4.77 4.77 0 1 1 8.87 3.49L55.65 186a48.69 48.69 0 0 0 7.11.56h25.69c0-.14 0-.28.07-.42l11.68-29.93a4.76 4.76 0 0 1 8.88 3.46l-10.5 26.9h31.82c0-.14 0-.29.08-.44L147.82 142a4.77 4.77 0 1 1 8.87 3.49l-16.14 41h34.28c0-.14 0-.28.07-.42l11.68-29.93a4.76 4.76 0 0 1 8.88 3.46L185 186.55h1.67c18.11 0 33-13.93 33-32.06-.05-16.88-13.09-32.02-28.32-32.04z"/><path class="cls-1" d="M118.62 234a4.76 4.76 0 0 1-4.44-6.5l11.1-28.41a4.77 4.77 0 1 1 8.88 3.47L123.06 231a4.77 4.77 0 0 1-4.44 3zM67.32 257.94a4.76 4.76 0 0 1-4.44-6.5l20.45-52.33a4.77 4.77 0 1 1 8.88 3.47l-20.46 52.33a4.77 4.77 0 0 1-4.43 3.03zM33.51 234a4.76 4.76 0 0 1-4.44-6.5l11.1-28.41a4.77 4.77 0 1 1 8.83 3.49L37.94 231a4.77 4.77 0 0 1-4.43 3z"/><path class="cls-2" d="M191.35 122.45H191a.69.69 0 0 0 .35 0z"/><path class="cls-5" d="M191 122.44h.32a.49.49 0 0 0-.32 0z"/><path class="cls-6" d="M135 47.23A53.95 53.95 0 1 1 211.69 120a42 42 0 0 1 9.26 8.85v.06a66.65 66.65 0 1 0-100.07-82.33c1.29-.07 2.57-.13 3.81-.13a75.88 75.88 0 0 1 10.31.78z"/><path class="cls-6" d="M226.06 75.77a45.23 45.23 0 0 0-81.77-26.68 75.41 75.41 0 0 1 55.28 65c1.11.34 2.15.84 3.22 1.27a45.24 45.24 0 0 0 23.27-39.59z"/><path class="cls-2" d="M191.35 122.45H191a.69.69 0 0 0 .35 0z"/><path class="cls-3" d="M191 122.44h.32a.49.49 0 0 0-.32 0z"/><path class="cls-2" d="M191.35 122.45H191a.69.69 0 0 0 .35 0z"/><path class="cls-5" d="M191 122.44h.32a.49.49 0 0 0-.32 0z"/></svg>