<svg id="Day" xmlns="http://www.w3.org/2000/svg" viewBox="0 0 267 267"><defs><style>.cls-1{fill:#fdb201}.cls-2{fill:#a9bbc7}</style></defs><title>Morecast Icons 151015</title><path class="cls-1" d="M248.92 143.81a4.52 4.52 0 1 1-4.52-4.52 4.52 4.52 0 0 1 4.52 4.52M267 143.81a4.52 4.52 0 1 1-4.52-4.52 4.52 4.52 0 0 1 4.52 4.52M230.84 161.89a4.52 4.52 0 1 1-4.52-4.52 4.52 4.52 0 0 1 4.52 4.52M248.92 161.89a4.52 4.52 0 1 1-4.52-4.52 4.52 4.52 0 0 1 4.52 4.52M230.84 125.72a4.52 4.52 0 1 1-4.52-4.52 4.52 4.52 0 0 1 4.52 4.52M248.92 125.72a4.52 4.52 0 1 1-4.52-4.52 4.52 4.52 0 0 1 4.52 4.52"/><path class="cls-2" d="M193.24 133.64a20.91 20.91 0 0 0-20.91 20.91 20.49 20.49 0 0 0 .22 2.82h9.2a11.71 11.71 0 0 1-.38-2.82 11.87 11.87 0 1 1 23.73 0 11.71 11.71 0 0 1-.38 2.82 11.86 11.86 0 0 1-11.49 9h-70.8a4.52 4.52 0 0 0 0 9h70.8a20.89 20.89 0 0 0 20.69-18.08 20.49 20.49 0 0 0 .22-2.82 20.9 20.9 0 0 0-20.9-20.91"/><path class="cls-1" d="M82.44 145.59s-12.95-24.73-26.35-24.73S0 178.17 0 178.17l55.61-.23zM117.91 153a4.52 4.52 0 1 0 4.52-4.52 4.52 4.52 0 0 0-4.52 4.52M99.83 153a4.52 4.52 0 1 0 4.52-4.52 4.52 4.52 0 0 0-4.52 4.52M99.83 170.81a4.52 4.52 0 1 0 4.52-4.52 4.52 4.52 0 0 0-4.52 4.52M81 170.81a4.52 4.52 0 1 0 4.52-4.52 4.52 4.52 0 0 0-4.52 4.52M117.91 134.89a4.52 4.52 0 1 0 4.52-4.52 4.52 4.52 0 0 0-4.52 4.52"/><path class="cls-1" d="M54.13 177.93a3.29 3.29 0 0 1-2.52-5.41c21.19-25.16 71.69-83.69 83-83.69 11.9 0 39.66 28.92 46.09 36.21a3.29 3.29 0 1 1-4.93 4.36c-18-20.35-35.2-34-41.16-34-6.78 1-45 42.18-78 81.35a3.28 3.28 0 0 1-2.48 1.18z"/></svg>