<svg id="Day" xmlns="http://www.w3.org/2000/svg" viewBox="0 0 267 267"><defs><style>.cls-1{fill:none}.cls-2{fill:#c6d1d7}.cls-3{fill:#38a7df;opacity:.75}.cls-4,.cls-5{fill:#bad7e5}.cls-4{opacity:.5}</style></defs><title>Morecast Icons 151015</title><path class="cls-1" d="M205.24 98.78h-.32a.68.68 0 0 0 .32 0z"/><path class="cls-2" d="M204.93 98.77h.32a.47.47 0 0 0-.32 0z"/><path class="cls-1" d="M205.24 98.78h-.32a.68.68 0 0 0 .32 0z"/><path class="cls-2" d="M204.93 98.77h.32a.47.47 0 0 0-.32 0z"/><path class="cls-3" d="M129.25 234.72a4.76 4.76 0 0 1-4.44-6.5l20.44-52.3a4.76 4.76 0 0 1 8.87 3.47l-20.44 52.3a4.77 4.77 0 0 1-4.43 3.03z"/><path class="cls-4" d="M115.51 174l-11.9 19.05L91.7 174h23.81z"/><path class="cls-5" d="M205.24 98.78a.68.68 0 0 1-.32 0c0-36.23-30.32-66.67-66.55-66.67-28.58 0-53 17.36-62 42.86-23.87.33-42.87 22.37-42.87 46.31 0 24.16 19.09 41.56 43.23 41.56h29.51c0-.14 17.41-44.49 17.41-44.49a4.76 4.76 0 0 1 8.86 3.49l-16.13 41h84.16c18.1 0 33-13.92 33-32-.04-16.91-13.07-32.04-28.3-32.06zM161 148.56l-11.9-19h23.81z"/><path class="cls-1" d="M205.24 98.78h-.32a.68.68 0 0 0 .32 0z"/><path class="cls-2" d="M204.93 98.77h.32a.47.47 0 0 0-.32 0z"/><path class="cls-1" d="M205.24 98.78h-.32a.68.68 0 0 0 .32 0z"/><path class="cls-2" d="M204.93 98.77h.32a.47.47 0 0 0-.32 0z"/></svg>