<svg id="Day" xmlns="http://www.w3.org/2000/svg" viewBox="0 0 267 267"><defs><style>.cls-1{fill:none}.cls-2{fill:#5c686e}.cls-3{fill:#38a7df;opacity:.75}.cls-4{fill:#535f66}</style></defs><title>Morecast Icons 151015</title><path class="cls-1" d="M205.24 98.69h-.32a.68.68 0 0 0 .32 0z"/><path class="cls-2" d="M204.93 98.68h.32a.47.47 0 0 0-.32 0z"/><path class="cls-3" d="M167.82 235a4.76 4.76 0 0 1-4.44-6.5l20.44-52.3a4.76 4.76 0 1 1 8.87 3.47L172.26 232a4.77 4.77 0 0 1-4.44 3z"/><path class="cls-4" d="M205.24 98.69a.68.68 0 0 1-.32 0C204.93 62.45 174.6 32 138.38 32c-28.58 0-53 17.36-62 42.86-23.88.35-42.88 22.38-42.88 46.33a40.47 40.47 0 0 0 26.82 38.64l16.36-41.57a4.76 4.76 0 0 1 8.86 3.49l-15.91 40.44a48.66 48.66 0 0 0 7.1.56h25.67c0-.14 0-.28.07-.42l11.68-29.92a4.76 4.76 0 0 1 8.87 3.46l-10.49 26.88h31.79c0-.14 0-.29.08-.44l17.33-44.05a4.76 4.76 0 0 1 8.86 3.49l-16.13 41h34.26c0-.14 0-.28.07-.42l11.68-29.92a4.76 4.76 0 1 1 8.87 3.46l-10.49 26.88h1.66c18.1 0 33-13.92 33-32-.01-16.91-13.04-32.04-28.27-32.06z"/><path class="cls-3" d="M132.77 211.08a4.76 4.76 0 0 1-4.44-6.5l11.09-28.39a4.76 4.76 0 0 1 8.87 3.47l-11.09 28.39a4.77 4.77 0 0 1-4.43 3.03zM81.49 235a4.76 4.76 0 0 1-4.44-6.5l20.44-52.3a4.76 4.76 0 0 1 8.87 3.47L85.93 232a4.76 4.76 0 0 1-4.44 3zM47.7 211.08a4.76 4.76 0 0 1-4.44-6.5l11.09-28.39a4.76 4.76 0 0 1 8.87 3.47l-11.08 28.39a4.76 4.76 0 0 1-4.44 3.03z"/><path class="cls-1" d="M205.24 98.69h-.32a.68.68 0 0 0 .32 0z"/><path class="cls-2" d="M204.93 98.68h.32a.47.47 0 0 0-.32 0z"/></svg>