<svg id="Day" xmlns="http://www.w3.org/2000/svg" viewBox="0 0 267 267"><defs><style>.cls-1{fill:#bad7e5}.cls-2{fill:#a2bdca}</style></defs><title>Morecast Icons 151015</title><path class="cls-1" d="M225 121a32.51 32.51 0 0 0-22.62-12.56v-.17A64.86 64.86 0 0 0 76.44 86.45a42.8 42.8 0 0 0-41.31 53.16h196.25A31.5 31.5 0 0 0 225 121M188.19 177.4a4.7 4.7 0 0 0-6.64 0l-6.65 6.6-6.64-6.64a4.7 4.7 0 1 0-6.64 6.64l6.64 6.64-6.64 6.64a4.7 4.7 0 1 0 6.64 6.64l6.64-6.64 6.64 6.64a4.7 4.7 0 1 0 6.64-6.64l-6.64-6.64 6.64-6.64a4.7 4.7 0 0 0 0-6.64M71.55 175.78a4.7 4.7 0 0 0 6.64 0l6.64-6.64 6.64 6.64a4.7 4.7 0 0 0 6.64-6.64l-6.64-6.64 6.64-6.64a4.7 4.7 0 1 0-6.64-6.64l-6.64 6.64-6.64-6.64a4.7 4.7 0 1 0-6.64 6.64l6.64 6.64-6.64 6.64a4.7 4.7 0 0 0 0 6.64"/><path class="cls-2" d="M228.8 167.2H111.35a4.7 4.7 0 0 1 0-9.39H228.8a4.7 4.7 0 0 1 0 9.39M147.56 195.37H43a4.7 4.7 0 0 1 0-9.37h104.56a4.7 4.7 0 0 1 0 9.39M57.73 167.2H38.19a4.7 4.7 0 0 1 0-9.39h19.54a4.7 4.7 0 1 1 0 9.39M224.08 195.37h-23.59a4.7 4.7 0 0 1 0-9.39h23.59a4.7 4.7 0 0 1 0 9.39M190.1 223.56H75.29a4.7 4.7 0 0 1 0-9.39H190.1a4.7 4.7 0 0 1 0 9.39"/></svg>