<svg id="Day" xmlns="http://www.w3.org/2000/svg" viewBox="0 0 267 267"><defs><style>.cls-1{fill:#535f66}.cls-2{fill:#fdd002}</style></defs><title>Morecast Icons 151015</title><path class="cls-1" d="M203 96.15V96A65.15 65.15 0 0 0 76.33 74.16c-23.84.33-42.95 19-42.95 42.89C33.38 141.19 53 160 77.11 160h124.53c18.08 0 31.77-13.92 31.77-32C233.4 111 222 97.83 203 96.15z"/><path class="cls-2" d="M145.6 160h-23.79c-1.57 0-3 .1-3.92-1.19a3.92 3.92 0 0 1-.52-4l22.07-57.18a4.72 4.72 0 0 1 6.15-2.63c2.45.95 3.68 3.14 2.74 5.58L128.74 151h16.86a4.51 4.51 0 1 1 0 9zM112.3 170h23.79a4.32 4.32 0 0 1 4.44 6l-22.07 57.31a4.75 4.75 0 0 1-6.15 2.7 4.69 4.69 0 0 1-2.74-6.08L129.16 179H112.3a4.51 4.51 0 1 1 0-9z"/></svg>