<svg id="Day" xmlns="http://www.w3.org/2000/svg" viewBox="0 0 267 267"><defs><style>.cls-1{fill:#bad7e5}.cls-2{fill:none}</style></defs><title>Morecast Icons 151015</title><path class="cls-1" d="M172 113.86a.69.69 0 0 1-.32 0c0-36.29-30.38-66.78-66.66-66.78C76.43 47.06 52 64.45 42.93 90 19 90.34 0 112.41 0 136.39 0 160.6 19.12 178 43.31 178h124c18.13 0 33-13.94 33-32.09.03-16.91-13.02-32.04-28.31-32.05zm-77.42 35.93a4.77 4.77 0 1 1-6.75 6.75l-6.74-6.75-6.75 6.75a4.77 4.77 0 1 1-6.75-6.75l6.75-6.79-6.74-6.7a4.77 4.77 0 0 1 6.75-6.75l6.75 6.75 6.74-6.75a4.77 4.77 0 0 1 6.75 6.75l-6.76 6.7zm47.71 0a4.77 4.77 0 1 1-6.75 6.75l-6.75-6.75-6.79 6.74a4.77 4.77 0 1 1-6.75-6.75L122 143l-6.75-6.74a4.77 4.77 0 0 1 6.75-6.75l6.74 6.75 6.75-6.75a4.77 4.77 0 0 1 6.75 6.75l-6.7 6.74zM126 205.05l6.75-6.74a4.77 4.77 0 1 0-6.75-6.75l-6.75 6.75-6.74-6.75a4.77 4.77 0 1 0-6.75 6.75l6.75 6.74-6.75 6.75a4.77 4.77 0 1 0 6.75 6.75l6.74-6.75 6.75 6.75a4.77 4.77 0 0 0 6.75-6.75zM78.29 205.05l6.71-6.74a4.77 4.77 0 1 0-6.75-6.75l-6.74 6.75-6.75-6.75a4.77 4.77 0 1 0-6.75 6.75l6.75 6.74-6.75 6.75a4.77 4.77 0 1 0 6.75 6.75l6.75-6.75 6.74 6.75A4.77 4.77 0 0 0 85 211.8z"/><path class="cls-2" d="M94.58 129.55a4.77 4.77 0 0 0-6.75 0l-6.74 6.75-6.75-6.75a4.77 4.77 0 0 0-6.75 6.75l6.75 6.7-6.75 6.75a4.77 4.77 0 1 0 6.75 6.75l6.75-6.75 6.74 6.75a4.77 4.77 0 1 0 6.75-6.75L87.83 143l6.75-6.74a4.77 4.77 0 0 0 0-6.71z"/><path class="cls-1" d="M247.67 133v-.12c0-24.61-20.6-44.56-45.21-44.56A44.68 44.68 0 0 0 179 95a73.54 73.54 0 0 1 2 11.15 41.65 41.65 0 0 1 21.53 14.66 40.74 40.74 0 0 1-7.92 57.19h49.46c12.3 0 22.93-10.27 22.93-22.57 0-11.51-9.79-21.29-19.33-22.43z"/><path class="cls-2" d="M94.58 129.55a4.77 4.77 0 0 0-6.75 0l-6.74 6.75-6.75-6.75a4.77 4.77 0 0 0-6.75 6.75l6.75 6.7-6.75 6.75a4.77 4.77 0 1 0 6.75 6.75l6.75-6.75 6.74 6.75a4.77 4.77 0 1 0 6.75-6.75L87.83 143l6.75-6.74a4.77 4.77 0 0 0 0-6.71z"/></svg>