<svg id="Day" xmlns="http://www.w3.org/2000/svg" viewBox="0 0 267 267"><defs><style>.cls-1{fill:#38a7df;opacity:.75}.cls-2{fill:none}.cls-3{fill:#c6d1d7}.cls-4{fill:#bad7e5}.cls-5{fill:#fdb201}</style></defs><title>Morecast Icons 151015</title><path class="cls-1" d="M116.74 257.78a4.76 4.76 0 0 1-4.44-6.5l20.46-52.33a4.77 4.77 0 1 1 8.88 3.47l-20.45 52.33a4.77 4.77 0 0 1-4.45 3.03z"/><path class="cls-2" d="M191.35 122.61H191a.69.69 0 0 0 .35 0z"/><path class="cls-3" d="M191 122.6h.32a.49.49 0 0 0-.32 0z"/><path class="cls-4" d="M191.35 122.61a.69.69 0 0 1-.32 0c0-36.25-30.34-66.71-66.59-66.71-28.6 0-53 17.37-62.06 42.88-23.88.34-42.88 22.39-42.88 46.35 0 24.17 19.1 41.58 43.26 41.58h29.52c0-.14 0-.29.08-.44l17.34-44.08a4.77 4.77 0 1 1 8.87 3.49l-16.14 41h34.28c0-.14 0-.28.07-.42l11.68-29.93a4.76 4.76 0 1 1 8.88 3.46l-10.5 26.9h39.78c18.11 0 33-13.93 33-32.06 0-16.86-13.04-32-28.27-32.02z"/><path class="cls-1" d="M81.67 233.85a4.76 4.76 0 0 1-4.44-6.5l11.1-28.41a4.77 4.77 0 0 1 8.88 3.47l-11.1 28.41a4.77 4.77 0 0 1-4.44 3.03z"/><path class="cls-5" d="M135 47.4a53.95 53.95 0 1 1 76.65 72.76 42 42 0 0 1 9.26 8.85v.06a66.65 66.65 0 1 0-100.03-82.33c1.29-.07 2.57-.13 3.81-.13a75.88 75.88 0 0 1 10.31.79z"/><path class="cls-5" d="M226.06 75.93a45.23 45.23 0 0 0-81.77-26.68 75.41 75.41 0 0 1 55.28 65c1.11.34 2.15.84 3.22 1.27a45.24 45.24 0 0 0 23.27-39.59z"/><path class="cls-2" d="M191.35 122.61H191a.69.69 0 0 0 .35 0z"/><path class="cls-3" d="M191 122.6h.32a.49.49 0 0 0-.32 0z"/></svg>