<svg id="Day" xmlns="http://www.w3.org/2000/svg" viewBox="0 0 267 267"><defs><style>.cls-1{fill:none}.cls-2{fill:#899aa4}.cls-3{fill:#7b8b97}.cls-4{fill:#38a7df;opacity:.75}</style></defs><title>Morecast Icons 151015</title><path class="cls-1" d="M205.24 98.68h-.32a.68.68 0 0 0 .32 0z"/><path class="cls-2" d="M204.93 98.66h.32a.47.47 0 0 0-.32 0z"/><path class="cls-3" d="M205.24 98.68a.68.68 0 0 1-.32 0C204.93 62.43 174.6 32 138.38 32c-28.58 0-53 17.36-62 42.86-23.88.33-42.88 22.37-42.88 46.31 0 24.16 19.09 41.56 43.23 41.56h6.34c0-.14 0-.29.08-.44l17.33-44.05a4.76 4.76 0 0 1 8.86 3.49l-16.13 41h33c0-.14 0-.28.07-.42L138 132.39a4.76 4.76 0 0 1 8.87 3.46l-10.49 26.88h31.79c0-.14 0-.29.08-.44l17.33-44.05a4.76 4.76 0 0 1 8.86 3.49l-16.13 41h22.25c18.1 0 33-13.92 33-32-.06-16.9-13.09-32.04-28.32-32.05z"/><path class="cls-4" d="M156 211.09a4.76 4.76 0 0 1-4.44-6.5l11.09-28.39a4.76 4.76 0 0 1 8.87 3.47l-11.09 28.39a4.77 4.77 0 0 1-4.43 3.03zM104.71 235a4.76 4.76 0 0 1-4.44-6.5l20.44-52.3a4.76 4.76 0 0 1 8.87 3.47L109.15 232a4.76 4.76 0 0 1-4.44 3zM70.92 211.09a4.76 4.76 0 0 1-4.44-6.5l11.09-28.39a4.76 4.76 0 0 1 8.87 3.47l-11.08 28.4a4.76 4.76 0 0 1-4.44 3.02z"/><path class="cls-1" d="M205.24 98.68h-.32a.68.68 0 0 0 .32 0z"/><path class="cls-2" d="M204.93 98.66h.32a.47.47 0 0 0-.32 0z"/></svg>