<svg xmlns="http://www.w3.org/2000/svg" xmlns:xlink="http://www.w3.org/1999/xlink"><symbol viewBox="0 0 22.31 13.17" id="bicycle"><title>bicycle</title><path d="M18 4.4a4.39 4.39 0 0 0-.85.08L16.06.75a10.66 10.66 0 0 1 2.24 0c.47.09.63.25.66.67s-.07.57-.14.64a1.53 1.53 0 0 1-1.06.26.35.35 0 1 0 0 .7 2.06 2.06 0 0 0 1.57-.48 1.48 1.48 0 0 0 .33-1.16A1.32 1.32 0 0 0 18.43.07a13 13 0 0 0-2.78 0 .38.38 0 0 0-.45.48l.5 1.78H8.55l-.27-.76h1.25a.5.5 0 0 0 .53-.44.55.55 0 0 0-.51-.49L6.4.25a.47.47 0 0 0-.53.49V1a.53.53 0 0 0 .5.56h1l.34 1L6.29 4.8a4.39 4.39 0 1 0 2.44 4.6h1.91l5.36-6 .37 1.29A4.38 4.38 0 1 0 18 4.4zM8 3.49l1.84 5.12H8.77A4.38 4.38 0 0 0 7 5.21zm-.1 5.12H4.85L6.5 6a3.51 3.51 0 0 1 1.4 2.61zm-3.51 3.66a3.52 3.52 0 1 1 1.43-6.72L3.9 8.66c-.25.41-.07.74.41.74h3.53a3.52 3.52 0 0 1-3.45 2.87zm6.24-4l-1.8-5.13h6.36zm7.37 4a3.52 3.52 0 0 1-1.4-6.75l1 3.59a.39.39 0 0 0 .38.29h.11a.39.39 0 0 0 .27-.4l-1-3.6a3.51 3.51 0 1 1 .61 7z"/></symbol><symbol viewBox="0 0 21.84 13.27" id="bike"><title>bike</title><path d="M4.9 10.8a2 2 0 0 1-.24.38l-.14.14-.12.12a1.84 1.84 0 0 1-1.2.44H3a1.65 1.65 0 0 1-1.08-.54A1.78 1.78 0 0 1 1.36 10a1.87 1.87 0 0 1 .54-1.32A1.72 1.72 0 0 1 3 8.17h.24a1.7 1.7 0 0 1 .46.06 1.27 1.27 0 0 1 .3.1l1.16-.86A3.8 3.8 0 0 0 4.41 7a3.07 3.07 0 0 0-.74-.18h-.46a3.13 3.13 0 0 0-2.27.94A3.1 3.1 0 0 0 0 10a3 3 0 0 0 .94 2.25 3.07 3.07 0 0 0 2.27 1 3.28 3.28 0 0 0 1.2-.25 3 3 0 0 0 1.08-.74 1.81 1.81 0 0 0 .36-.42 2.82 2.82 0 0 0 .38-.68l.12-.36a4.37 4.37 0 0 0 .1-.69 13.61 13.61 0 0 0-1.45.25 1.46 1.46 0 0 1-.1.44z"/><path d="M21.73 9.21a2.89 2.89 0 0 0-.48-1c-.12-.16-.24-.28-.36-.44a5.29 5.29 0 0 0-.53-.43l.55-.61a5.32 5.32 0 0 0-3.07 0L17.57 6a7.89 7.89 0 0 1 2.69-.82 1.83 1.83 0 0 0-.2-1.2 2.19 2.19 0 0 0-.7-2 21.14 21.14 0 0 1-1.75-2 1 1 0 0 0-.61.86l.32.58h-.18a.32.32 0 0 0-.14-.08 1.47 1.47 0 0 0-.4-.1l-1 .28a.21.21 0 0 0-.16 0 .38.38 0 0 0-.2.26.4.4 0 0 0 0 .3.44.44 0 0 0 .26.2.41.41 0 0 0 .3-.06l.58-.2a2.31 2.31 0 0 0 1.36 1.12h.12a11.24 11.24 0 0 0-3.37 0 6.49 6.49 0 0 0-2.23-.84 2.55 2.55 0 0 0-2.15.44 4.82 4.82 0 0 0-1.43 1.71c-1.53.14-2.55-.14-3-.84-.46-1-2-1.2-4.7-.78-.44.3-.3.68.4 1.12a50 50 0 0 0 6.74 2.89 1.59 1.59 0 0 0-.74.88l-2.13.4-1.5.88a1.09 1.09 0 0 0-.44-.1h-.1a.9.9 0 0 0-.54.2l-.12.1a1.09 1.09 0 0 0 0 1.5l.12.1a1.09 1.09 0 0 0 .62.2h.12a1 1 0 0 0 .59-.2v-.06a.94.94 0 0 0 .24-.38 1.13 1.13 0 0 0 .1-.36L7 9.47a2.78 2.78 0 0 0 .32 1.61 1.21 1.21 0 0 0 .54.42H14a7.07 7.07 0 0 1 3.19-5.2l.24.6c-1.27.84-1.77 1.3-2 2.81V10a3.23 3.23 0 0 0 3.21 3.21A3.28 3.28 0 0 0 19.8 13a3.23 3.23 0 0 0 1.1-.74 3.9 3.9 0 0 0 .36-.42 2.76 2.76 0 0 0 .36-.68 2.52 2.52 0 0 0 .12-.36 3.49 3.49 0 0 0 .1-.8 3.53 3.53 0 0 0-.11-.79zm-1.79 2.11a1.81 1.81 0 0 1-1.34.56 1.72 1.72 0 0 1-1.3-.56 1.73 1.73 0 0 1-.55-1.3 1.8 1.8 0 0 1 .56-1.32 1.78 1.78 0 0 1 1.3-.54A1.84 1.84 0 0 1 20.48 10v.05a1.79 1.79 0 0 1-.54 1.27z"/><path d="M19.36 9.27a1.05 1.05 0 0 0-1.4-.1.45.45 0 0 0-.1.1 1 1 0 0 0 0 1.5l.1.1a1.14 1.14 0 0 0 .62.2.29.29 0 0 0 .14 0 1 1 0 0 0 .56-.24l.06-.06a1.13 1.13 0 0 0 .32-.74 1.07 1.07 0 0 0-.3-.74z"/></symbol><symbol viewBox="0 0 30 24.26" id="camera"><title>camera</title><g data-name="MC Web Desktop Community Webcams" fill="#00579a"><path d="M15 7.49a6.12 6.12 0 1 0 6.12 6.12A6.12 6.12 0 0 0 15 7.49zm0 9.78a3.62 3.62 0 1 1 3.62-3.62A3.62 3.62 0 0 1 15 17.27z"/><path d="M28.69 3.06h-5.78L19.28 0h-8.56L7.08 3.06H1.3A1.3 1.3 0 0 0 0 4.34V23a1.3 1.3 0 0 0 1.3 1.3h27.35A1.36 1.36 0 0 0 30 22.91V4.34a1.3 1.3 0 0 0-1.31-1.28zM15 21.52a7.87 7.87 0 1 1 7.87-7.87A7.87 7.87 0 0 1 15 21.52z"/></g></symbol><symbol viewBox="0 0 31.87 11.13" id="car"><title>car</title><path d="M31.8 7.8a.56.56 0 0 0-.4-.35 2.51 2.51 0 0 0 0-1 2.45 2.45 0 0 0-.6-.92 16.87 16.87 0 0 0-6.18-2 25 25 0 0 0-7.08-3c-.27-.07-.55-.12-.8-.17A16.78 16.78 0 0 0 14.57 0h-1a13.48 13.48 0 0 0-3.19.4c-1 .25-2.12.55-3.19.9a22.81 22.81 0 0 0-4 1.87 13.07 13.07 0 0 0-2 .3C.51 3.94.18 5.19 0 7.13c-.3 1.35.92 2 3.67 2v-.35a3.11 3.11 0 0 1 3.17-3.09 3.32 3.32 0 0 1 1.16.2 3.18 3.18 0 0 1 1 .69 3 3 0 0 1 1 2.24 4.84 4.84 0 0 1 0 .6h12.33a3.88 3.88 0 0 1-.07-.77 3 3 0 0 1 .92-2.22 2.88 2.88 0 0 1 2.19-.9 2.8 2.8 0 0 1 1.12.2 3.27 3.27 0 0 1 1.1.7 3.11 3.11 0 0 1 .9 2.22 3.15 3.15 0 0 1-.07.7H31a.67.67 0 0 0 .77-.5v-.22a1.51 1.51 0 0 0 .03-.83zM7.61 3.14c-.45-.27-.55-.55-.27-.82 1.25-.92 3.24-1.45 6-1.5l.15 2.52zm7.51.15L14.9.85a9.88 9.88 0 0 1 1.3.15l.72.1q4.38.95 5.08 2.56z"/><path d="M25.37 6.33a2.4 2.4 0 1 0 2.4 2.4 2.4 2.4 0 0 0-2.4-2.4zm0 4A1.59 1.59 0 1 1 27 8.74a1.59 1.59 0 0 1-1.59 1.59zm-18.62-4a2.4 2.4 0 1 0 2.4 2.4 2.4 2.4 0 0 0-2.4-2.4zm0 4a1.59 1.59 0 1 1 1.59-1.6 1.59 1.59 0 0 1-1.59 1.6z"/></symbol><symbol viewBox="0 0 11.1 11.1" id="clock"><title>clock</title><g data-name="2017-04-05 MC Web Desktop Route" fill="#282828"><path d="M5.55 11.1a5.55 5.55 0 1 1 5.55-5.55 5.55 5.55 0 0 1-5.55 5.55zm0-10.48a4.92 4.92 0 1 0 4.92 4.92A4.92 4.92 0 0 0 5.55.62z"/><path d="M5.6 5.86V1.44h-.63v5.05h3.56v-.63H5.6z"/></g></symbol><symbol viewBox="0 0 10 10" id="close"><title>close</title><path fill="#008fc5" d="M10 1.74L8.26 0 5 3.26 1.74 0 0 1.74 3.26 5 0 8.26 1.74 10 5 6.74 8.26 10 10 8.26 6.74 5 10 1.74z" data-name="Ebene 1"/></symbol><symbol viewBox="0 0 10 10" id="close-2"><title>close</title><path d="M10 1.74L8.26 0 5 3.26 1.74 0 0 1.74 3.26 5 0 8.26 1.74 10 5 6.74 8.26 10 10 8.26 6.74 5 10 1.74z" data-name="Ebene 1"/></symbol><symbol viewBox="0 0 22 15" id="cloud"><title>cloud</title><path d="M18.36 7.67h-.07a6.79 6.79 0 0 0 .07-.94A6.69 6.69 0 0 0 5.19 5H5a5 5 0 0 0 0 10h13.4a3.66 3.66 0 0 0 0-7.33z" data-name="Ebene 1"/></symbol><symbol viewBox="0 0 28.01 30" id="comments"><title>comments</title><g data-name="MC Web Desktop Community MyProfile"><path d="M14 0a14 14 0 1 0 4.47 27.26 1.4 1.4 0 0 1 .45-.06c1.47 0 4.49 1.48 7 2.8-.53-2.65-1.16-6.81-.28-8.11A14 14 0 0 0 14 0z" fill="#fbaf18"/><path fill="#fff" d="M20.17 13.85h-5.61V8.24h-1.19v5.61H7.76v1.19h5.61v5.61h1.19v-5.61h5.61v-1.19z"/></g></symbol><symbol viewBox="0 0 20 15" id="crown"><title>crown</title><path d="M18.74 2.61a1.28 1.28 0 0 0-1.26 1.3 1.32 1.32 0 0 0 .41 1C17 5.78 16 7 14.82 7.31a2.19 2.19 0 0 1-.8.07 3.41 3.41 0 0 1-2.3-1.93 21.28 21.28 0 0 1-1.27-2.94 1.3 1.3 0 0 0 .81-1.21 1.26 1.26 0 1 0-2.53 0 1.3 1.3 0 0 0 .81 1.21 21.28 21.28 0 0 1-1.26 2.94A3.41 3.41 0 0 1 6 7.39a2.19 2.19 0 0 1-.8-.07C4 7 3 5.78 2.11 4.87a1.32 1.32 0 0 0 .41-1 1.28 1.28 0 0 0-1.26-1.3 1.3 1.3 0 0 0 0 2.61 1.23 1.23 0 0 0 .29 0c.36 1.56 1.12 4.29 1.62 6.44h13.66c.5-2.15 1.26-4.89 1.62-6.44a1.23 1.23 0 0 0 .29 0 1.3 1.3 0 0 0 0-2.61zM3.89 15h12.22l.48-2.08H3.41z" data-name="Ebene 1"/></symbol><symbol viewBox="0 0 15 15" id="fullscreen"><title>fullscreen</title><path d="M0 0v4.69h1.88V1.88h2.79V0H0zm14.99.01h-4.68v1.88h2.81v2.79h1.87V.01zM15 15v-4.69h-1.88v2.81h-2.79V15H15zM.01 14.99h4.68v-1.88H1.88v-2.79H.01v4.67z" data-name="Ebene 1"/></symbol><symbol viewBox="0 0 15 15" id="fullscreen-end"><title>fullscreen-end</title><path d="M4.67 4.69V0H2.79v2.81H0v1.88h4.67zm5.64-.01h4.68V2.81h-2.81V.01h-1.87v4.67zm.02 5.63V15h1.88v-2.81H15v-1.88h-4.67zm-5.64.01H.01v1.88h2.81v2.79h1.87v-4.67z" data-name="Ebene 1"/></symbol><symbol viewBox="0 0 15 15" id="gear"><title>gear</title><path d="M15 6.52a.47.47 0 0 0-.49-.52h-.76a1.12 1.12 0 0 1-.81-.44L12.62 5a1.1 1.1 0 0 1 .27-.88l.54-.54a.52.52 0 0 0 0-.73l-1.3-1.29a.52.52 0 0 0-.73 0l-.54.53a1.1 1.1 0 0 1-.88.27L9.3 2.1a1.11 1.11 0 0 1-.44-.81V.53A.51.51 0 0 0 8.37 0H6.53a.5.5 0 0 0-.48.53v.76a1.12 1.12 0 0 1-.45.81l-.6.32a1.11 1.11 0 0 1-.88-.27l-.54-.54a.52.52 0 0 0-.73 0L1.51 2.9a.52.52 0 0 0 0 .73l.49.54a1.1 1.1 0 0 1 .32.83l-.22.7a1.09 1.09 0 0 1-.81.42H.52a.54.54 0 0 0-.52.54v1.83A.52.52 0 0 0 .52 9h.76a1.1 1.1 0 0 1 .81.43l.32.63a1.1 1.1 0 0 1-.27.88l-.54.54a.52.52 0 0 0 0 .73l1.3 1.29a.52.52 0 0 0 .73 0l.55-.5a1.1 1.1 0 0 1 .88-.27l.68.22a1.12 1.12 0 0 1 .44.81v.76a.49.49 0 0 0 .49.52h1.84a.49.49 0 0 0 .49-.56v-.76a1.12 1.12 0 0 1 .45-.81l.64-.32a1.11 1.11 0 0 1 .88.27l.54.54a.52.52 0 0 0 .73 0l1.3-1.29a.52.52 0 0 0 0-.73l-.54-.54a1.1 1.1 0 0 1-.27-.88l.22-.66a1.1 1.1 0 0 1 .81-.42h.76a.5.5 0 0 0 .48-.53zM7.52 11.4a3.89 3.89 0 1 1 3.91-3.89 3.9 3.9 0 0 1-3.91 3.89z" data-name="Ebene 2"/></symbol><symbol viewBox="0 0 15 15" id="globe"><title>globe</title><path d="M7.5 0A7.5 7.5 0 1 0 15 7.5 7.5 7.5 0 0 0 7.5 0zm7 8.66a2.74 2.74 0 0 1 .09-.51 1.55 1.55 0 0 1-.08.6.28.28 0 0 0 0-.09zm-2 3.89a7.14 7.14 0 0 1-10-10.1l.1-.09a.88.88 0 0 1-.1.22c-.11.16-.28.22-.39.37a1.51 1.51 0 0 0-.22.49 1.41 1.41 0 0 1-.12.56 1 1 0 0 0-.18.57c.29.09.16-.43.41-.46a2 2 0 0 1 0 .76c0 .29-.09.36.09.61s.18.33.45.36a.5.5 0 0 1 .46.34c.19 0 .3.07.32.28a2.32 2.32 0 0 0 .32.21c.12 0 .33-.14.45 0s-.25.82-.33 1a.84.84 0 0 0 .15 1c.15.11.3.16.35.36a2.32 2.32 0 0 0 .09.51c.13.27.42.36.63.57a1.3 1.3 0 0 1 .25 1 6.9 6.9 0 0 0 .21 1.09c.06.38.17.74.25 1.11s.3.7.65.64c0-.13-.11-.24-.13-.37a2.28 2.28 0 0 1 0-.37.65.65 0 0 1 .12-.62c.06-.08.14-.14.2-.22s0-.11 0-.27.06-.1.18-.17a1 1 0 0 0 .18-.18 2.82 2.82 0 0 0 .36-.38c.09-.15.08-.36.18-.51s.27-.18.42-.29S8 10.25 8 10a2.34 2.34 0 0 1 .43-1c.27-.35.39-.64.06-1-.16-.09-.24 0-.49-.1a4 4 0 0 0-.49-.19h-.25c-.09 0-.08-.08-.17-.07s-.33.28-.44.1.13-.38.12-.51a.69.69 0 0 0-.24-.53.41.41 0 0 1-.27-.07A1.47 1.47 0 0 1 6 6.49c-.1-.07-.3-.18-.35-.3s-.21-.08-.34-.07H5c-.11 0-.23-.1-.35-.08a1.06 1.06 0 0 0-.26.15 1.86 1.86 0 0 1-.57.21c-.31.06-.36-.06-.35-.35V6c.11-.32-.09-.34-.32-.42 0-.23.25-.39.13-.64-.24 0-.49.65-.7.37s.07-.72.18-.88a1.66 1.66 0 0 1 .74-.48.32.32 0 0 1 .35.19c.07.15 0 .29 0 .46.2 0 .15-.3.14-.44s.1-.21.22-.37.12-.32.25-.46A3.43 3.43 0 0 1 4.79 3a2.57 2.57 0 0 1 .41-.19c.14-.08-.06-.38.23-.36.11 0 0 .07.19 0l.23-.09c.28-.11.08-.15 0-.29s.07-.16.24-.18.1-.06.21 0 0 .15.18.15.08-.28 0-.37-.13-.26-.34-.26a.34.34 0 0 0 0-.22C6 1.15 5.93 1 5.79 1s-.19.1-.29.23-.28.11-.35.27 0 .3-.27.25a.88.88 0 0 0 0-.34h-.25c0-.27.3-.29.5-.32s.3-.26.51-.3S6 1 6.2.87s.07-.16 0-.26L6.13.5l.55-.09a1.82 1.82 0 0 0 .15.29s.09.09.11.14S6.9 1 7 1s.49-.37.58-.44.18-.14.15-.23a7.15 7.15 0 0 1 1.71.3l.13.17c.1.14.16.26.33.32s.43 0 .29.26-.26-.07-.33-.13-.34-.2-.34 0 .73.27.58.62c.09 0 .26.14.23.26s-.24.06-.23.25a.46.46 0 0 0 .49.43h.11c.3-.11.07-.53.42-.57a.41.41 0 0 1 .34.12c.1.08.16.26.3.24s0-.15-.06-.23a.89.89 0 0 1 .38.25c.09.14.08.34.31.16a.9.9 0 0 0-.07-.11.63.63 0 0 1 .62.37c.28.56-.4.12-.44.41-.17 0-.24-.19-.39-.27s-.2 0-.25-.06 0-.15-.12-.2c-.25-.21-.83.13-1.06.26a.15.15 0 0 0-.17.11v.26c0 .11-.24.23-.3.35-.15.3.15.73.11 1.06s-.22.38-.14.54.15.12.19.2a2.22 2.22 0 0 0 .11.24 9.32 9.32 0 0 0 .61.73.44.44 0 0 0 .44.13 2.43 2.43 0 0 0 .47-.14c.17-.08.2-.2.38-.12s.27.25.44.1c.14.14 0 .38 0 .53a.66.66 0 0 0 .18.53.53.53 0 0 1 .15.5 5.86 5.86 0 0 1-.12.6c0 .2-.17.35-.16.56a3.15 3.15 0 0 1 .06.55 4.47 4.47 0 0 1-.08.58c0 .18-.18.34-.23.53a.62.62 0 0 0 .09.55c.13.15.26.07.41 0a3.29 3.29 0 0 0 .64-.92 6 6 0 0 0 .54-.92l.1-.2a7.1 7.1 0 0 1-1.83 3.07z" data-name="2cb57f44-eecd-41f2-9174-81625c9aaf98"/></symbol><symbol viewBox="0 0 15 15" id="graph"><title>graph</title><g data-name="Ebene 1"><path d="M4.61 6.4h2.95V15H4.61zm3.72 1.65h2.95V15H8.33zm3.72-2.62H15V15h-2.95zM.89 9.87h2.95V15H.89z"/><path d="M9.67 5.49L14.9.57 14.34 0 9.66 4.39 5.79 1.26 0 6.71l.54.56 5.27-4.8 3.86 3.02z"/></g></symbol><symbol viewBox="0 0 20 18.03" id="heart"><title>heart</title><path d="M14.18 0A5.79 5.79 0 0 0 10 1.77a5.82 5.82 0 0 0-8.57 7.86L10 18l8-7.89A5.81 5.81 0 0 0 14.18 0z" data-name="Ebene 1"/></symbol><symbol viewBox="0 0 20 18.03" id="heart-outline"><title>heart-outline</title><path d="M10 18L1.4 9.64A5.82 5.82 0 0 1 10 1.77a5.82 5.82 0 1 1 8.07 8.37zM2.93 9.92l7.07 6.9 7.45-7.31a5 5 0 1 0-7.15-6.82l-.3.41-.33-.41A5 5 0 0 0 .86 5.82a4.9 4.9 0 0 0 1.6 3.64l.49.45z" fill="#231f20" data-name="Ebene 1"/></symbol><symbol viewBox="0 0 4.36 14.97" id="lightning"><title>lightning</title><path d="M3.89 7H1.45A.52.52 0 0 1 1 6.34l2.25-6a.52.52 0 1 1 1 .37L2.17 6h1.72a.52.52 0 0 1 0 1zM.78 15a.52.52 0 0 1-.49-.7L2.3 9H.58a.52.52 0 0 1-.12-1H3a.52.52 0 0 1 .49.7l-2.25 6a.52.52 0 0 1-.46.3z" data-name="lightning"/></symbol><symbol viewBox="0 0 25 25" id="loading"><title>loading</title><g data-name="Ebene 1" fill="#008fc5"><path d="M12.5 0A12.5 12.5 0 1 0 25 12.5 12.5 12.5 0 0 0 12.5 0zm0 22.5a10 10 0 1 1 10-10 10 10 0 0 1-10 10z" opacity=".2"/><path d="M12.5 2.5V0A12.5 12.5 0 0 0 0 12.5h2.5a10 10 0 0 1 10-10z"/></g></symbol><symbol viewBox="0 0 50 68" id="map-pin-active"><title>map-pin-active</title><g data-name="Ebene 1"><path d="M25 0A24.92 24.92 0 0 0 0 24.85 24.63 24.63 0 0 0 4.73 39.4a25 25 0 0 0 3.63 4c2.51 2.76 8.05 8.88 10.06 11.54C21.05 58.41 24.56 68 24.56 68h.88s3.51-9.59 6.14-13.08c2-2.65 7.51-8.75 10-11.52A24.81 24.81 0 0 0 25 0z" fill="#00579a"/><ellipse cx="25" cy="25.06" rx="12.92" ry="12.84" fill="#fff"/></g></symbol><symbol viewBox="0 0 20 3.55" id="more"><title>more</title><g fill="#231f20" data-name="Ebene 1"><circle cx="18.22" cy="1.78" r="1.78"/><circle cx="10" cy="1.78" r="1.78"/><circle cx="1.78" cy="1.78" r="1.78"/></g></symbol><symbol viewBox="0 0 15.01 15" id="pause"><title>pause</title><path d="M0 0h5v15H0zm10 0h5v15h-5z" data-name="Ebene 1"/></symbol><symbol viewBox="0 0 10.26 16.64" id="pedestrian"><title>pedestrian</title><circle cx="5.55" cy="1.48" r="1.48"/><path d="M.17 16.14l.83.46a.29.29 0 0 0 .39-.11l3-5.21a.38.38 0 0 0-.07-.45l-.7-.66a.22.22 0 0 0-.31 0v.07L0 15.74a.29.29 0 0 0 .12.39zM9.31 9l-.66.66a.29.29 0 0 1-.41 0L6.85 8.31a.79.79 0 0 1-.2-.49V6.27c0-.16.09-.2.21-.08l2.45 2.44a.29.29 0 0 1 0 .37z"/><path d="M3.85 3.56l1.94.58a.41.41 0 0 1 .21.38v4.61a.8.8 0 0 0 .2.49l1.51 1.48a2.3 2.3 0 0 1 .34.46l2.17 4.12a.3.3 0 0 1-.12.4l-.81.47a.28.28 0 0 1-.38-.1l-2.18-4a2.12 2.12 0 0 0-.29-.45L3.93 9.62a.76.76 0 0 1-.21-.49V5.72l-.06.49a1.73 1.73 0 0 1-.18.54L1.57 10a.29.29 0 0 1-.39.11l-.81-.5a.29.29 0 0 1-.11-.39l3.17-5.49a.38.38 0 0 1 .42-.17z"/></symbol><symbol viewBox="0 0 12.53 17.44" id="pen"><title>pen</title><path d="M7.26 2L8.36.38s.87-1 2.77.25 1.31 2.45 1.31 2.45l-1.12 1.68a3.49 3.49 0 0 0-1.59-2.07A3.4 3.4 0 0 0 7.26 2z"/><path d="M0 17.44l4.27-2 6.6-10A2.66 2.66 0 0 0 9.4 3.19c-1.4-.93-2.29-.64-2.6-.45l-6.6 10zm1.27-1.24L1 16l-.32-.19.12-3a4.35 4.35 0 0 1 1.77.72A4.42 4.42 0 0 1 4 14.93z"/></symbol><symbol viewBox="0 0 10.34 15" id="pin"><title>pin</title><path d="M5.17 0A5.17 5.17 0 0 0 0 5.17C0 8 5.17 15 5.17 15s5.17-7 5.17-9.87A5.17 5.17 0 0 0 5.17 0zm0 7.5a2.76 2.76 0 1 1 2.76-2.76A2.77 2.77 0 0 1 5.17 7.5z"/></symbol><symbol viewBox="0 0 15 15" id="play"><title>play</title><path d="M0 0v15l15-7.43z" data-name="Ebene 1"/></symbol><symbol viewBox="0 0 7.63 12" id="prec"><title>rain</title><path d="M7.63 8.28A3.77 3.77 0 0 1 3.82 12 3.77 3.77 0 0 1 0 8.28C0 6.22 3.82 0 3.82 0s3.81 6.22 3.81 8.28z" data-name="Ebene 1"/></symbol><symbol viewBox="0 0 14.04 15" id="search"><title>search</title><path d="M13.49 14.64a1.56 1.56 0 0 1-2.2-.19L9 11.92a1.55 1.55 0 0 1-.31-1.46 5.61 5.61 0 0 1-3.46.82 5.69 5.69 0 0 1-3.87-2A5.64 5.64 0 0 1 0 5.17a5.56 5.56 0 0 1 2-3.85 5.69 5.69 0 0 1 8 8.06 1.57 1.57 0 0 1 1.4.54l2.3 2.53a1.55 1.55 0 0 1-.21 2.19zM9.61 6a3.93 3.93 0 0 0-.94-2.87 4 4 0 0 0-5.57-.5 3.93 3.93 0 0 0-.43 5.55 4 4 0 0 0 5.58.48A3.87 3.87 0 0 0 9.61 6z" data-name="Ebene 1"/></symbol><symbol viewBox="0 0 14.44 18" id="share"><title>share</title><path d="M11.66 12.44a2.77 2.77 0 0 0-1.85.71L5.36 10a2.78 2.78 0 0 0 0-2l4.45-3.15a2.78 2.78 0 1 0-.73-1L4.63 6.93a2.78 2.78 0 1 0 0 4.14l4.45 3.11a2.78 2.78 0 1 0 2.58-1.75z" data-name="Ebene 1"/></symbol><symbol viewBox="0 0 13.07 11.42" id="snow"><title>snow</title><path d="M9.67 0h.07a.34.34 0 0 1 .26.43v.08L9 2.06v.08h.23L10.57 2a.32.32 0 0 1 .38.24.37.37 0 0 1-.32.42l-2 .15h-.08L7.38 5a.08.08 0 0 0 0 .1 2.11 2.11 0 0 1 .13.25.07.07 0 0 0 .08.05h2.36a.1.1 0 0 0 .1-.05l1.09-1.63a.37.37 0 0 1 .51-.12.31.31 0 0 1 .13.42L11 5.17l-.12.19h1.85a.34.34 0 0 1 .34.34.33.33 0 0 1-.3.36h-1.89v.07l.83 1.22a.52.52 0 0 1 .09.18.34.34 0 0 1-.3.38.37.37 0 0 1-.38-.18l-1-1.58a.15.15 0 0 0-.14-.08H7.55c-.05 0-.09 0-.11.06a.64.64 0 0 1-.1.15.06.06 0 0 0 0 .08l1.24 2.16h.07l2 .13a.38.38 0 0 1 .37.48.28.28 0 0 1-.31.24l-1-.06H9v.07l.88 1.5a.33.33 0 0 1 0 .38.38.38 0 0 1-.38.16.33.33 0 0 1-.24-.18l-.88-1.5v-.08l-.21.43-.47 1a.31.31 0 0 1-.39.21h-.06a.37.37 0 0 1-.19-.49l.31-.64L8 9a.09.09 0 0 0 0-.1L6.68 6.69a.07.07 0 0 0-.08 0c-.09 0-.13 0-.17.09L5.16 8.85a.13.13 0 0 0 0 .14L6 10.74a.38.38 0 0 1-.36.54.29.29 0 0 1-.25-.18L4.87 10l-.17-.34v.07c-.29.5-.58 1-.86 1.52a.36.36 0 0 1-.61 0 .32.32 0 0 1 0-.38l.56-1 .35-.62h-.27l-1.34.1c-.25 0-.38-.09-.4-.32a.37.37 0 0 1 .34-.4l2-.15a.09.09 0 0 0 .08-.06l1.22-2.06c0-.06 0-.24-.07-.23H3.11a.1.1 0 0 0-.11 0L1.93 7.79a.37.37 0 0 1-.5.13.31.31 0 0 1-.17-.4v-.08l.62-.94.27-.4H.43A.37.37 0 0 1 0 5.83v-.17a.36.36 0 0 1 .38-.26h1.81v-.07l-.47-.63-.43-.64a.31.31 0 0 1 .07-.43.37.37 0 0 1 .51.11L3 5.33a.11.11 0 0 0 .11.06h2.44c.06 0 .2-.3.18-.33L4.5 3a.1.1 0 0 0-.09-.06l-.94-.06-1-.12a.37.37 0 0 1-.33-.41.3.3 0 0 1 .24-.35h.07l1.28.08H4v-.03L3.12.58a.35.35 0 0 1 0-.27.38.38 0 0 1 .27-.31.33.33 0 0 1 .34.18l.88 1.51.45-.69.3-.65a.31.31 0 0 1 .41-.16.38.38 0 0 1 .2.5l-.85 1.8a.09.09 0 0 0 0 .09l1.2 2.06h.35a.08.08 0 0 0 .08 0l1.18-2.07a.11.11 0 0 0 0-.09l-.31-.63L7 .68A.36.36 0 0 1 7.16.2a.31.31 0 0 1 .45.1v.06l.53 1.07.17.34V1.7L9.25.25A.49.49 0 0 1 9.52 0z" fill="#00b9ff" data-name="2017-04-03 MC Web Desktop Landingpage"/></symbol><symbol viewBox="0 0 30 30" id="social-facebook"><title>social-facebook</title><g data-name="Ebene 1"><circle cx="15" cy="15" r="15" fill="#274ba7"/><path d="M18.81 7v2.55h-1.53a1.44 1.44 0 0 0-1.14.35 1.62 1.62 0 0 0-.29 1.1v1.85h2.87l-.38 2.9h-2.49v7.43h-3v-7.46h-2.5v-2.9h2.5v-2.14a3.79 3.79 0 0 1 1-2.83 3.7 3.7 0 0 1 2.71-1 16.2 16.2 0 0 1 2.25.15z" fill="#fff"/></g></symbol><symbol viewBox="0 0 12.98 25" id="social-facebook-icon"><title>facebook-icon</title><path d="M13 .18v4h-2.38a2.21 2.21 0 0 0-1.74.54 2.49 2.49 0 0 0-.45 1.62v2.81h4.4l-.59 4.45H8.43V25h-4.6V13.6H0V9.15h3.83V5.87a5.81 5.81 0 0 1 1.56-4.33A5.67 5.67 0 0 1 9.56 0 24.85 24.85 0 0 1 13 .18z" data-name="Ebene 1"/></symbol><symbol viewBox="0 0 30 30" id="social-google-plus"><title>social-google+</title><g data-name="Ebene 1"><circle cx="15" cy="15" r="15" fill="#ea3928"/><path d="M17.45 15.15a6.65 6.65 0 0 1-.75 3.19 5.4 5.4 0 0 1-2.13 2.19 6.31 6.31 0 0 1-3.17.79 6.19 6.19 0 0 1-2.45-.5 6.17 6.17 0 0 1-3.36-3.36 6.27 6.27 0 0 1 0-4.9 6.17 6.17 0 0 1 3.35-3.37 6.19 6.19 0 0 1 2.45-.5 6 6 0 0 1 4.22 1.65L13.91 12a3.47 3.47 0 0 0-2.51-1 3.77 3.77 0 0 0-2 .53 4 4 0 0 0 0 6.9 3.77 3.77 0 0 0 2 .53 4.16 4.16 0 0 0 1.31-.2 3.33 3.33 0 0 0 1-.49 3.59 3.59 0 0 0 .68-.68 3.08 3.08 0 0 0 .42-.71 3.19 3.19 0 0 0 .18-.64H11.4V14.1h6a5.61 5.61 0 0 1 .05 1.05zm7.46-1v1.75h-1.8v1.8h-1.8v-1.8h-1.8v-1.8h1.8v-1.8h1.81v1.8z" fill="#fff"/></g></symbol><symbol viewBox="0 0 39.29 25" id="social-google-plus-icon"><title>google-plus-icon</title><path d="M24.51 12.79A13.18 13.18 0 0 1 23 19.11a10.7 10.7 0 0 1-4.23 4.33A12.51 12.51 0 0 1 12.5 25a12.26 12.26 0 0 1-4.86-1A12.23 12.23 0 0 1 1 17.36a12.44 12.44 0 0 1 0-9.72A12.23 12.23 0 0 1 7.64 1a12.26 12.26 0 0 1 4.86-1 11.82 11.82 0 0 1 8.37 3.27l-3.39 3.26a6.88 6.88 0 0 0-5-1.93 7.47 7.47 0 0 0-3.86 1.06 7.91 7.91 0 0 0-3.86 6.84 7.91 7.91 0 0 0 3.86 6.84 7.47 7.47 0 0 0 3.88 1.06 8.24 8.24 0 0 0 2.6-.4 6.6 6.6 0 0 0 2-1 7.11 7.11 0 0 0 1.34-1.34 6.11 6.11 0 0 0 .84-1.42 6.33 6.33 0 0 0 .31-1.24H12.5v-4.3h11.8a11.11 11.11 0 0 1 .21 2.09zm14.79-2.08v3.58h-3.57v3.56h-3.58v-3.56h-3.57v-3.58h3.56V7.15h3.58v3.56z" data-name="Ebene 1"/></symbol><symbol viewBox="0 0 30 30" id="social-instagram"><title>social-instagram</title><g data-name="Ebene 1"><circle cx="15" cy="15" r="15" fill="#245f87"/><path d="M21.26 20.8V14h-1.42a4.53 4.53 0 0 1 .16 1.36 4.67 4.67 0 0 1-.67 2.45 4.92 4.92 0 0 1-1.83 1.78 5.06 5.06 0 0 1-2.53.65 4.92 4.92 0 0 1-3.55-1.43A4.63 4.63 0 0 1 10 15.36a4.53 4.53 0 0 1 .2-1.36H8.71v6.8a.63.63 0 0 0 .64.64h11.27a.63.63 0 0 0 .45-.18.61.61 0 0 0 .19-.46zm-3-5.62a3 3 0 0 0-1-2.23 3.32 3.32 0 0 0-4.59 0 3.08 3.08 0 0 0 0 4.46 3.32 3.32 0 0 0 4.59 0 3 3 0 0 0 1.01-2.22zm3-3.79V9.66a.71.71 0 0 0-.26-.51.69.69 0 0 0-.52-.22H18.7a.69.69 0 0 0-.52.22.71.71 0 0 0-.21.51v1.74a.72.72 0 0 0 .73.73h1.83a.72.72 0 0 0 .73-.73zm1.83-2.19v12A2.09 2.09 0 0 1 21 23.31H9a2.09 2.09 0 0 1-2.08-2.08V9.2A2.09 2.09 0 0 1 9 7.13h12a2.09 2.09 0 0 1 2.09 2.07z" fill="#fff"/></g></symbol><symbol viewBox="0 0 30 30" id="social-twitter"><title>social-twitter</title><g data-name="Ebene 1"><circle cx="15" cy="15" r="15" fill="#3dace2"/><path d="M23.73 10.08a7.37 7.37 0 0 1-2 .56 3.38 3.38 0 0 0 1.54-1.94 6.91 6.91 0 0 1-2.27.85 3.3 3.3 0 0 0-2.53-1.09A3.48 3.48 0 0 0 15 11.94a3.19 3.19 0 0 0 .08.79 9.84 9.84 0 0 1-4-1.08 9.86 9.86 0 0 1-3.15-2.56 3.44 3.44 0 0 0-.48 1.75A3.28 3.28 0 0 0 9 13.74a4.1 4.1 0 0 1-1.66-.43 3.31 3.31 0 0 0 .83 2.21 3.48 3.48 0 0 0 2 1.2 3.23 3.23 0 0 1-.84.13 4.66 4.66 0 0 1-.65-.07 3.53 3.53 0 0 0 1.23 1.72 3.3 3.3 0 0 0 2 .7 6.87 6.87 0 0 1-4.31 1.53 6.67 6.67 0 0 1-.83 0 9.75 9.75 0 0 0 5.33 1.56 10.13 10.13 0 0 0 3.48-.59 9 9 0 0 0 2.78-1.57 10.44 10.44 0 0 0 2-2.27A10 10 0 0 0 22 12.34a4.41 4.41 0 0 0 0-.45 6.76 6.76 0 0 0 1.73-1.81z" fill="#fff"/></g></symbol><symbol viewBox="0 0 30.77 25" id="social-twitter-icon"><title>twitter-icon</title><path d="M30.77 2.94a13.37 13.37 0 0 1-3.64 1 6.13 6.13 0 0 0 2.8-3.49A12.55 12.55 0 0 1 25.9 2a6 6 0 0 0-4.6-2 6.08 6.08 0 0 0-4.46 1.85A6.08 6.08 0 0 0 15 6.31a5.79 5.79 0 0 0 .15 1.44 17.86 17.86 0 0 1-7.27-2A17.89 17.89 0 0 1 2.1 1.14a6.25 6.25 0 0 0-.87 3.19A6 6 0 0 0 4 9.59a7.44 7.44 0 0 1-3-.79v.06a6 6 0 0 0 1.5 4 6.31 6.31 0 0 0 3.7 2.18 5.86 5.86 0 0 1-1.53.24 8.46 8.46 0 0 1-1.17-.12 6.41 6.41 0 0 0 2.19 3.14 6 6 0 0 0 3.65 1.26 12.47 12.47 0 0 1-7.84 2.7 12.11 12.11 0 0 1-1.5-.08A17.7 17.7 0 0 0 9.68 25 18.39 18.39 0 0 0 16 23.93a16.25 16.25 0 0 0 5-2.85A19 19 0 0 0 24.65 17a18.18 18.18 0 0 0 3-9.93 8 8 0 0 0 0-.81 12.26 12.26 0 0 0 3.12-3.32z" data-name="Ebene 1"/></symbol><symbol viewBox="0 0 30 30" id="social-youtube"><title>social-youtube</title><g data-name="Ebene 1"><circle cx="15" cy="15" r="15" fill="#cb1f1f"/><path fill="#7a1414" d="M13.09 12.36l4.15 2.92.71-.38-4.86-2.54z"/><path d="M24 11.31a4 4 0 0 0-.73-1.83 2.61 2.61 0 0 0-1.83-.78c-2.56-.19-6.4-.19-6.4-.19s-3.84 0-6.4.19a2.61 2.61 0 0 0-1.83.78A4 4 0 0 0 6 11.31a28.1 28.1 0 0 0-.18 3v1.4a28.1 28.1 0 0 0 .18 3 4 4 0 0 0 .73 1.83 3.09 3.09 0 0 0 2 .79c1.46.14 6.22.19 6.22.19s3.85 0 6.41-.19a2.61 2.61 0 0 0 1.83-.78 4 4 0 0 0 .81-1.87 28.15 28.15 0 0 0 .18-3V14.3a28.15 28.15 0 0 0-.18-2.99zm-10.91 6.25v-5.2l4.86 2.54z" fill="#fff"/></g></symbol><symbol viewBox="0 0 15 15" id="star"><title>star</title><path d="M7.5 0l2.32 4.94 5.18.79-3.75 3.84.88 5.43-4.63-2.56L2.87 15l.88-5.43L0 5.73l5.18-.79z" data-name="Ebene 1"/></symbol><symbol viewBox="0 0 19 12.98" id="sunrise"><title>sunrise</title><g data-name="Ebene 1-2"><path d="M9.51 3a6.39 6.39 0 0 0-5.33 10h10.67A6.39 6.39 0 0 0 9.51 3z" fill="#fcb017"/><path fill="#092847" d="M13.04 9.09l-3.5-3.5-3.69 3.69.4.4L9.24 6.7v6.28h.58V6.69l2.82 2.81.4-.41z"/><path d="M2.41 13a7.88 7.88 0 1 1 14.19 0h1.76a9.51 9.51 0 1 0-17.7 0z" fill="#fcb017"/></g></symbol><symbol viewBox="0 0 19 12.97" id="sunset"><title>sunset</title><g data-name="Ebene 1-2"><path d="M9.51 3a6.39 6.39 0 0 0-5.33 10h10.67A6.39 6.39 0 0 0 9.51 3z" fill="#fcb017"/><path d="M2.41 13a7.88 7.88 0 1 1 14.19 0h1.76a9.51 9.51 0 1 0-17.7 0z" fill="#fcb017"/><path fill="#092847" d="M12.78 8.69l-2.99 2.99V5.39h-.58v6.29L6.4 8.87l-.41.41 3.51 3.51 3.69-3.69-.41-.41z"/></g></symbol><symbol viewBox="0 0 11.95 15.49" id="table-view"><title>table-view</title><path d="M11.55 0H.4a.4.4 0 0 0-.4.4v14.69a.4.4 0 0 0 .4.4h11.15a.4.4 0 0 0 .4-.4V.4a.4.4 0 0 0-.4-.4zm-.4 5h-5V.8h5zm-5 .4h5v4.5h-5zm-.38 4.5H.8V5.41h5zm0-9.1V5H.8V.8zm-5 9.5h5v4.39H.8zm5.37 4.39V10.3h5v4.39z" data-name="Ebene 1"/></symbol><symbol viewBox="0 0 13.1 31.16" id="turn-locations"><title>turn-locations</title><path d="M12.68 6.18L6.5 0 0 6.5l.72.72L6 1.91V13h1V2l5 4.9zM12.39 24l-5.31 5.3V18.15h-1v11l-4.94-4.89-.72.74 6.18 6.16 6.5-6.5z" fill="#282828" data-name="Ebene 1"/></symbol><symbol viewBox="0 0 16 19" id="webcam"><title>webcam</title><g data-name="2017-04-03 MC Web Desktop Landingpage"><path d="M8 10.59a2.71 2.71 0 1 0-2.75-2.7A2.71 2.71 0 0 0 8 10.59zM8 5.9a2 2 0 1 1-2 2 2 2 0 0 1 2-2z"/><path d="M8 15.77a7.94 7.94 0 0 0 8-7.88A7.94 7.94 0 0 0 8 0a7.94 7.94 0 0 0-8 7.88 7.94 7.94 0 0 0 8 7.88zM7.34 1.6h1.31a.4.4 0 0 1 0 .8H7.34a.4.4 0 0 1 0-.8zM8 3.88a4 4 0 1 1-.06 0z"/><path d="M12 15.56a8.73 8.73 0 0 1-1.49.59l.37.36c.58.56.39 1-.41 1H5.54c-.81 0-1-.46-.41-1l.37-.36a8.73 8.73 0 0 1-1.5-.59L1.53 18c-.58.56-.39 1 .41 1H14c.81 0 1-.46.41-1z"/></g></symbol><symbol viewBox="0 0 8.3 12.8" id="wind"><title>wind</title><path d="M0 0l4.2 2.3L8.3 0 4.2 12.8z" fill="#008fc5" data-name="Ebene 1"/></symbol><symbol viewBox="0 0 8.3 12.8" id="wind-2"><title>wind</title><path d="M0 0l4.2 2.3L8.3 0 4.2 12.8z" data-name="Ebene 1"/></symbol><symbol viewBox="0 0 12 12" id="wind-rotated"><title>wind-rotated</title><path d="M5.87 12L4.56 7.44 0 6.13 12 0z" data-name="Ebene 1"/></symbol></svg>