<?xml version="1.0" encoding="UTF-8" standalone="no"?>
<svg xmlns:dc="http://purl.org/dc/elements/1.1/" xmlns:cc="http://creativecommons.org/ns#" xmlns:rdf="http://www.w3.org/1999/02/22-rdf-syntax-ns#" xmlns:svg="http://www.w3.org/2000/svg" xmlns="http://www.w3.org/2000/svg" xmlns:sodipodi="http://sodipodi.sourceforge.net/DTD/sodipodi-0.dtd" xmlns:inkscape="http://www.inkscape.org/namespaces/inkscape" version="1.1" x="0px" y="0px" viewBox="0 0 24 24" enable-background="new 0 0 24 24" xml:space="preserve" id="svg5407" inkscape:version="0.91 r13725" sodipodi:docname="1-grey.svg"><metadata id="metadata5443"><rdf:RDF><cc:Work rdf:about=""><dc:format>image/svg+xml</dc:format><dc:type rdf:resource="http://purl.org/dc/dcmitype/StillImage"/><dc:title/></cc:Work></rdf:RDF></metadata><defs id="defs5441"/><sodipodi:namedview pagecolor="#ffffff" bordercolor="#666666" borderopacity="1" objecttolerance="10" gridtolerance="10" guidetolerance="10" inkscape:pageopacity="0" inkscape:pageshadow="2" inkscape:window-width="1411" inkscape:window-height="979" id="namedview5439" showgrid="false" inkscape:zoom="11.313708" inkscape:cx="25.433451" inkscape:cy="2.8839093" inkscape:window-x="294" inkscape:window-y="53" inkscape:window-maximized="0" inkscape:current-layer="svg5407"/><path d="M19.63,9.613c0-2.701-2.197-4.898-4.898-4.898c-1.555,0-2.981,0.726-3.904,1.953c-0.275-0.049-0.558-0.075-0.846-0.075  c-2.035,0-3.833,1.274-4.526,3.153c-2.461,0.011-4.459,2.015-4.459,4.479c0,2.47,2.009,4.479,4.478,4.479h0.854v0.077  c0,0.326,0.264,0.591,0.59,0.591c0.327,0,0.591-0.265,0.591-0.591v-1.465c0-0.326-0.264-0.591-0.591-0.591  c-0.326,0-0.59,0.265-0.59,0.591v0.206H5.474c-1.817,0-3.296-1.479-3.296-3.298c0-1.817,1.479-3.297,3.296-3.297  c0.117,0,0.233,0.006,0.347,0.02c0.286,0.025,0.56-0.157,0.632-0.44c0.417-1.609,1.868-2.732,3.528-2.732  c1.952,0,3.55,1.529,3.64,3.48c0.008,0.176,0.094,0.338,0.234,0.445c0.14,0.106,0.32,0.143,0.491,0.104  c1.566-0.371,2.926,0.826,2.926,2.315c0,1.313-1.067,2.381-2.381,2.381c-0.326,0-0.591,0.264-0.591,0.591s0.265,0.591,0.591,0.591  c1.965,0,3.563-1.599,3.563-3.563c0-0.393-0.066-0.771-0.185-1.124C19.138,12.086,19.63,10.877,19.63,9.613z M14.729,10.56  c-0.28-1.563-1.304-2.854-2.685-3.506c0.694-0.731,1.653-1.157,2.687-1.157c2.05,0,3.718,1.667,3.718,3.717  c0,0.83-0.282,1.628-0.782,2.274C16.981,11.032,15.916,10.496,14.729,10.56z" id="path5409" style="fill:#4d4d4d;fill-opacity:1"/><path d="m 21.362695,3.909 c -0.2,-0.256 -0.57,-0.305 -0.829,-0.104 l -1.33,1.034 c -0.256,0.2 -0.303,0.571 -0.103,0.829 0.116,0.149 0.291,0.228 0.467,0.228 0.126,0 0.255,-0.041 0.362,-0.125 l 1.33,-1.034 c 0.256,-0.199 0.303,-0.57 0.103,-0.828 z" id="path5411" style="fill:#4d4d4d;fill-opacity:1" inkscape:connector-curvature="0"/><path d="M15.08,3.891c0.003,0,0.008,0,0.014,0c0.326-0.008,0.584-0.279,0.576-0.605l-0.04-1.684  c-0.009-0.326-0.265-0.604-0.605-0.576c-0.326,0.008-0.585,0.278-0.576,0.605l0.039,1.684C14.496,3.636,14.759,3.891,15.08,3.891z" id="path5413" style="fill:#4d4d4d;fill-opacity:1"/><path d="M22.612,8.878l-1.683,0.04c-0.326,0.008-0.584,0.279-0.577,0.606c0.009,0.321,0.271,0.576,0.591,0.576  c0.005,0,0.01,0,0.015,0l1.684-0.041c0.326-0.008,0.583-0.279,0.576-0.605C23.209,9.129,22.958,8.877,22.612,8.878z" id="path5415" style="fill:#4d4d4d;fill-opacity:1"/><path d="M6.918,14.669c-0.326,0-0.59,0.266-0.59,0.591v0.592c0,0.326,0.264,0.591,0.59,0.591c0.327,0,0.591-0.265,0.591-0.591V15.26  C7.509,14.935,7.245,14.669,6.918,14.669z" id="path5417" style="fill:#4d4d4d;fill-opacity:1"/><path d="M6.918,19.655c-0.326,0-0.59,0.264-0.59,0.591v0.591c0,0.327,0.264,0.59,0.59,0.59c0.327,0,0.591-0.263,0.591-0.59v-0.591  C7.509,19.919,7.245,19.655,6.918,19.655z" id="path5419" style="fill:#4d4d4d;fill-opacity:1"/><path d="M9.122,15.593c-0.327,0-0.591,0.264-0.591,0.591v0.591c0,0.327,0.264,0.591,0.591,0.591s0.591-0.264,0.591-0.591v-0.591  C9.713,15.856,9.448,15.593,9.122,15.593z" id="path5421" style="fill:#4d4d4d;fill-opacity:1"/><path d="M8.531,19.704c0,0.327,0.264,0.591,0.591,0.591s0.591-0.264,0.591-0.591V18.24c0-0.327-0.265-0.591-0.591-0.591  s-0.591,0.264-0.591,0.591V19.704z" id="path5423" style="fill:#4d4d4d;fill-opacity:1"/><path d="M8.531,21.761c0,0.325,0.264,0.59,0.591,0.59s0.591-0.265,0.591-0.59v-0.593c0-0.325-0.265-0.59-0.591-0.59  s-0.591,0.265-0.591,0.59V21.761z" id="path5425" style="fill:#4d4d4d;fill-opacity:1"/><path d="M11.326,15.925c-0.327,0-0.592,0.265-0.592,0.591v0.591c0,0.327,0.265,0.592,0.592,0.592c0.326,0,0.591-0.265,0.591-0.592  v-0.591C11.917,16.189,11.651,15.925,11.326,15.925z" id="path5427" style="fill:#4d4d4d;fill-opacity:1"/><path d="M10.734,20.037c0,0.326,0.265,0.591,0.592,0.591c0.326,0,0.591-0.265,0.591-0.591v-1.465c0-0.326-0.265-0.591-0.591-0.591  c-0.327,0-0.592,0.265-0.592,0.591V20.037z" id="path5429" style="fill:#4d4d4d;fill-opacity:1"/><path d="M10.734,22.092c0,0.327,0.265,0.591,0.592,0.591c0.326,0,0.591-0.264,0.591-0.591v-0.59c0-0.327-0.265-0.591-0.591-0.591  c-0.327,0-0.592,0.264-0.592,0.591V22.092z" id="path5431" style="fill:#4d4d4d;fill-opacity:1"/><path d="M13.528,15.297c-0.326,0-0.591,0.266-0.591,0.591v0.592c0,0.326,0.265,0.591,0.591,0.591c0.327,0,0.591-0.265,0.591-0.591  v-0.592C14.119,15.563,13.855,15.297,13.528,15.297z" id="path5433" style="fill:#4d4d4d;fill-opacity:1"/><path d="M12.938,19.409c0,0.326,0.265,0.591,0.591,0.591c0.327,0,0.591-0.265,0.591-0.591v-1.465c0-0.326-0.264-0.591-0.591-0.591  c-0.326,0-0.591,0.265-0.591,0.591V19.409z" id="path5435" style="fill:#4d4d4d;fill-opacity:1"/><path d="M12.938,21.465c0,0.326,0.265,0.59,0.591,0.59c0.327,0,0.591-0.264,0.591-0.59v-0.591c0-0.327-0.264-0.591-0.591-0.591  c-0.326,0-0.591,0.264-0.591,0.591V21.465z" id="path5437" style="fill:#4d4d4d;fill-opacity:1"/></svg>