<?xml version="1.0" encoding="UTF-8" standalone="no"?>
<svg xmlns:dc="http://purl.org/dc/elements/1.1/" xmlns:cc="http://creativecommons.org/ns#" xmlns:rdf="http://www.w3.org/1999/02/22-rdf-syntax-ns#" xmlns:svg="http://www.w3.org/2000/svg" xmlns="http://www.w3.org/2000/svg" xmlns:sodipodi="http://sodipodi.sourceforge.net/DTD/sodipodi-0.dtd" xmlns:inkscape="http://www.inkscape.org/namespaces/inkscape" version="1.1" x="0px" y="0px" viewBox="0 0 100 100" style="enable-background:new 0 0 100 100;" xml:space="preserve" id="svg11940" inkscape:version="0.91 r13725" sodipodi:docname="11-grey.svg"><metadata id="metadata11956"><rdf:RDF><cc:Work rdf:about=""><dc:format>image/svg+xml</dc:format><dc:type rdf:resource="http://purl.org/dc/dcmitype/StillImage"/><dc:title/></cc:Work></rdf:RDF></metadata><defs id="defs11954"/><sodipodi:namedview pagecolor="#ffffff" bordercolor="#666666" borderopacity="1" objecttolerance="10" gridtolerance="10" guidetolerance="10" inkscape:pageopacity="0" inkscape:pageshadow="2" inkscape:window-width="1124" inkscape:window-height="625" id="namedview11952" showgrid="false" inkscape:zoom="2.36" inkscape:cx="15.983703" inkscape:cy="88.087845" inkscape:window-x="684" inkscape:window-y="211" inkscape:window-maximized="0" inkscape:current-layer="svg11940"/><g id="g11942" style="fill:#4d4d4d;fill-opacity:1"><path d="M80.4,53c0.6-1.9,0.9-3.9,0.9-5.9c0-11-9-20-20-20c-3.2,0-6.4,0.8-9.3,2.3c-2.7-0.9-5.6-1.4-8.7-1.4   c-13.8,0-25.3,10.2-26.9,23.4C9.9,54.2,5.5,60.7,5.5,68c0,10,8.1,18.2,18.2,18.2h46.5c10,0,18.2-8.1,18.2-18.2   C88.3,61.7,85.2,56.2,80.4,53z M61.3,32.1c8.3,0,15,6.7,15,15c0,1.2-0.2,2.4-0.5,3.6c-1.8-0.6-3.7-0.9-5.6-0.9H70   c-1.3-7.3-5.7-13.5-11.8-17.4C59.2,32.2,60.3,32.1,61.3,32.1z M70.2,81.1H23.7c-7.3,0-13.2-5.9-13.2-13.2c0-5.7,3.6-10.7,9.1-12.5   c1-0.3,1.7-1.2,1.7-2.2C22,41.8,31.7,32.9,43.4,32.9c11.3,0,21,8.6,22,19.6c0.1,1.3,1.2,2.3,2.5,2.3h2.3c7.3,0,13.2,5.9,13.2,13.2   S77.4,81.1,70.2,81.1z" id="path11944" style="fill:#4d4d4d;fill-opacity:1"/><path d="M63.8,22.4v-9c0-1.4-1.1-2.5-2.5-2.5s-2.5,1.1-2.5,2.5v9c0,1.4,1.1,2.5,2.5,2.5S63.8,23.7,63.8,22.4z" id="path11946" style="fill:#4d4d4d;fill-opacity:1"/><path d="M93.8,44.6h-9c-1.4,0-2.5,1.1-2.5,2.5s1.1,2.5,2.5,2.5h9c1.4,0,2.5-1.1,2.5-2.5S95.2,44.6,93.8,44.6z" id="path11948" style="fill:#4d4d4d;fill-opacity:1"/><path d="M80.7,31.2l6.3-6.3c1-1,1-2.6,0-3.5s-2.6-1-3.5,0l-6.3,6.3c-1,1-1,2.6,0,3.5c0.5,0.5,1.1,0.7,1.8,0.7S80.2,31.7,80.7,31.2z   " id="path11950" style="fill:#4d4d4d;fill-opacity:1"/></g></svg>