<?xml version="1.0" encoding="UTF-8" standalone="no"?>
<svg xmlns:dc="http://purl.org/dc/elements/1.1/" xmlns:cc="http://creativecommons.org/ns#" xmlns:rdf="http://www.w3.org/1999/02/22-rdf-syntax-ns#" xmlns:svg="http://www.w3.org/2000/svg" xmlns="http://www.w3.org/2000/svg" xmlns:sodipodi="http://sodipodi.sourceforge.net/DTD/sodipodi-0.dtd" xmlns:inkscape="http://www.inkscape.org/namespaces/inkscape" version="1.1" x="0px" y="0px" viewBox="0 0 100 100" style="enable-background:new 0 0 100 100;" xml:space="preserve" id="svg12560" inkscape:version="0.91 r13725" sodipodi:docname="12-grey.svg"><metadata id="metadata12576"><rdf:RDF><cc:Work rdf:about=""><dc:format>image/svg+xml</dc:format><dc:type rdf:resource="http://purl.org/dc/dcmitype/StillImage"/><dc:title/></cc:Work></rdf:RDF></metadata><defs id="defs12574"/><sodipodi:namedview pagecolor="#ffffff" bordercolor="#666666" borderopacity="1" objecttolerance="10" gridtolerance="10" guidetolerance="10" inkscape:pageopacity="0" inkscape:pageshadow="2" inkscape:window-width="1238" inkscape:window-height="680" id="namedview12572" showgrid="false" inkscape:zoom="2.36" inkscape:cx="-47.805522" inkscape:cy="49.228814" inkscape:window-x="560" inkscape:window-y="339" inkscape:window-maximized="0" inkscape:current-layer="svg12560" showguides="false"/><style type="text/css" id="style12562">
	.st0{display:none;}
	.st1{display:inline;fill:#FFCCCC;stroke:#000000;stroke-width:4;stroke-linecap:round;stroke-miterlimit:10;}
	.st2{fill:#FFFFFF;stroke:#000000;stroke-width:4;stroke-miterlimit:10;}
	.st3{fill:none;stroke:#000000;stroke-width:4;stroke-linecap:round;stroke-miterlimit:10;}
	.st4{stroke:#000000;stroke-width:4;stroke-miterlimit:10;}
	.st5{fill:none;stroke:#000000;stroke-width:4;stroke-miterlimit:10;}
	.st6{stroke:#FFFFFF;stroke-width:4;stroke-miterlimit:10;}
	.st7{fill:none;stroke:#000000;stroke-width:4;stroke-linecap:round;stroke-miterlimit:10;stroke-dasharray:5,7;}
	.st8{fill:#FFFFFF;stroke:#000000;stroke-width:7;stroke-miterlimit:10;}
	.st9{fill:none;stroke:#000000;stroke-width:7;stroke-linecap:round;stroke-miterlimit:10;}
	.st10{stroke:#000000;stroke-width:7;stroke-miterlimit:10;}
</style><g class="st0" id="g12564"><rect x="-862.5" y="-147" class="st1" width="1225.4" height="301.5" id="rect12566"/></g><g id="g12568" style="fill:#4d4d4d;fill-opacity:1"><path d="M94.3,32.8c-1-1-2.6-1-3.6,0L76.2,47.3c-0.1,0.1-0.1,0.1-0.1,0.2H56.1l25.7-25.7c1-1,1-2.6,0-3.6c-1-1-2.6-1-3.6,0   L52.5,43.9V24c0.1,0,0.1-0.1,0.2-0.1L67.2,9.3c1-1,1-2.6,0-3.6c-1-1-2.6-1-3.6,0L52.5,16.9V7.5C52.5,6.1,51.4,5,50,5   s-2.5,1.1-2.5,2.5v9.4L36.3,5.7c-1-1-2.6-1-3.6,0c-1,1-1,2.6,0,3.6l14.6,14.6c0.1,0.1,0.1,0.1,0.2,0.1v19.9L21.7,18.2   c-1-1-2.6-1-3.6,0c-1,1-1,2.6,0,3.6l25.7,25.7H24c0-0.1-0.1-0.1-0.1-0.2L9.3,32.8c-1-1-2.6-1-3.6,0c-1,1-1,2.6,0,3.6l11.2,11.2H7.5   C6.1,47.5,5,48.6,5,50s1.1,2.5,2.5,2.5h9.4L5.7,63.7c-1,1-1,2.6,0,3.6C6.2,67.7,6.9,68,7.5,68s1.3-0.2,1.8-0.7l14.6-14.6   c0.1-0.1,0.1-0.1,0.1-0.2h19.9L18.2,78.3c-1,1-1,2.6,0,3.6c0.5,0.5,1.1,0.7,1.8,0.7c0.6,0,1.3-0.2,1.8-0.7l25.7-25.7V76   c-0.1,0-0.1,0.1-0.2,0.1L32.8,90.7c-1,1-1,2.6,0,3.6c0.5,0.5,1.1,0.7,1.8,0.7c0.6,0,1.3-0.2,1.8-0.7l11.2-11.2v9.4   c0,1.4,1.1,2.5,2.5,2.5s2.5-1.1,2.5-2.5v-9.4l11.2,11.2c0.5,0.5,1.1,0.7,1.8,0.7s1.3-0.2,1.8-0.7c1-1,1-2.6,0-3.6L52.7,76.2   c-0.1-0.1-0.1-0.1-0.2-0.1V56.1l25.7,25.7c0.5,0.5,1.1,0.7,1.8,0.7s1.3-0.2,1.8-0.7c1-1,1-2.6,0-3.6L56.1,52.5H76   c0,0.1,0.1,0.1,0.1,0.2l14.6,14.6c0.5,0.5,1.1,0.7,1.8,0.7s1.3-0.2,1.8-0.7c1-1,1-2.6,0-3.6L83.1,52.5h9.4c1.4,0,2.5-1.1,2.5-2.5   s-1.1-2.5-2.5-2.5h-9.4l11.2-11.2C95.2,35.3,95.2,33.8,94.3,32.8z" id="path12570" style="fill:#4d4d4d;fill-opacity:1"/></g></svg>