<?xml version="1.0" encoding="UTF-8" standalone="no"?>
<svg xmlns:dc="http://purl.org/dc/elements/1.1/" xmlns:cc="http://creativecommons.org/ns#" xmlns:rdf="http://www.w3.org/1999/02/22-rdf-syntax-ns#" xmlns:svg="http://www.w3.org/2000/svg" xmlns="http://www.w3.org/2000/svg" xmlns:sodipodi="http://sodipodi.sourceforge.net/DTD/sodipodi-0.dtd" xmlns:inkscape="http://www.inkscape.org/namespaces/inkscape" viewBox="0 0 60 60" version="1.1" x="0px" y="0px" id="svg13216" inkscape:version="0.91 r13725" sodipodi:docname="13-grey.svg">
  <metadata id="metadata13268">
    <rdf:RDF>
      <cc:Work rdf:about="">
        <dc:format>image/svg+xml</dc:format>
        <dc:type rdf:resource="http://purl.org/dc/dcmitype/StillImage"/>
        <dc:title>3 -Snow- (Outline)</dc:title>
      </cc:Work>
    </rdf:RDF>
  </metadata>
  <defs id="defs13266"/>
  <sodipodi:namedview pagecolor="#ffffff" bordercolor="#666666" borderopacity="1" objecttolerance="10" gridtolerance="10" guidetolerance="10" inkscape:pageopacity="0" inkscape:pageshadow="2" inkscape:window-width="1361" inkscape:window-height="689" id="namedview13264" showgrid="false" inkscape:zoom="3.9333333" inkscape:cx="-43.639831" inkscape:cy="10.689352" inkscape:window-x="483" inkscape:window-y="242" inkscape:window-maximized="0" inkscape:current-layer="svg13216"/>
  <title id="title13218">3 -Snow- (Outline)</title>
  <desc id="desc13220">Created with Sketch.</desc>
  <g stroke="none" stroke-width="1" fill="none" fill-rule="evenodd" id="g13222" style="stroke:none;stroke-opacity:1;fill:#4d4d4d;fill-opacity:1">
    <g transform="translate(-359.000000, -340.000000)" fill="#000000" id="g13224" style="stroke:none;stroke-opacity:1;fill:#4d4d4d;fill-opacity:1">
      <g transform="translate(359.000000, 340.000000)" id="g13226" style="stroke:none;stroke-opacity:1;fill:#4d4d4d;fill-opacity:1">
        <path d="M44.9985,29 C44.5125,29 44.0865,28.646 44.0115,28.15 C43.9285,27.604 44.3035,27.094 44.8495,27.011 C47.4365,26.618 50.0395,26.994 50.1495,27.011 C50.6955,27.092 51.0725,27.6 50.9925,28.146 C50.9125,28.692 50.3975,29.073 49.8575,28.989 C49.8335,28.985 47.4335,28.641 45.1505,28.989 C45.0995,28.997 45.0485,29 44.9985,29" id="path13228" style="stroke:none;stroke-opacity:1;fill:#4d4d4d;fill-opacity:1"/>
        <path d="M24,27 C23.448,27 23,26.552 23,26 C23,22.14 19.86,19 16,19 C12.14,19 9,22.14 9,26 C9,26.552 8.552,27 8,27 C7.448,27 7,26.552 7,26 C7,21.038 11.038,17 16,17 C20.962,17 25,21.038 25,26 C25,26.552 24.552,27 24,27" id="path13230" style="stroke:none;stroke-opacity:1;fill:#4d4d4d;fill-opacity:1"/>
        <path d="M48,51 C47.448,51 47,50.552 47,50 C47,49.448 47.448,49 48,49 C53.514,49 58,44.501 58,38.972 C58,34.156 54.482,29.861 49.818,28.983 L49.014,28.831 L49.003,28.013 C48.895,19.735 42.202,13 34.084,13 C29.077,13 24.042,15.705 21.256,19.891 L20.703,20.723 L19.87,20.169 C18.72,19.404 17.382,19 16,19 C12.14,19 9,22.14 9,26 C9,26.088 9.007,26.175 9.013,26.261 L9.024,26.451 L9.015,26.625 C9.008,26.75 9,26.876 9,27 L9,27.63 L8.432,27.902 C4.705,29.688 2,34 2,38.155 C2,44.337 6.299,49 12,49 C12.552,49 13,49.448 13,50 C13,50.552 12.552,51 12,51 C5.159,51 0,45.478 0,38.155 C0,33.399 2.857,28.648 7.016,26.381 C7.007,26.254 7,26.128 7,26 C7,21.038 11.038,17 16,17 C17.451,17 18.864,17.346 20.138,18.008 C23.396,13.664 28.654,11 34.084,11 C43.029,11 50.448,18.195 50.975,27.194 C56.173,28.56 60,33.484 60,38.972 C60,45.604 54.617,51 48,51" id="path13232" style="stroke:none;stroke-opacity:1;fill:#4d4d4d;fill-opacity:1"/>
        <path d="M25.9595,15.2139 C25.4505,15.2139 25.0155,14.8279 24.9655,14.3109 C24.6145,10.7129 21.6195,7.9999 18.0005,7.9999 C16.6175,7.9999 15.2795,8.4039 14.1295,9.1689 C13.6715,9.4759 13.0495,9.3499 12.7435,8.8899 C9.7015,4.3179 5.7505,1.9999 1.0005,1.9999 C0.4475,1.9999 0.0005,1.5519 0.0005,0.9999 C0.0005,0.4479 0.4475,-0.0001 1.0005,-0.0001 C6.1035,-0.0001 10.5355,2.4179 13.8675,7.0049 C15.1405,6.3449 16.5515,5.9999 18.0005,5.9999 C22.6545,5.9999 26.5045,9.4889 26.9555,14.1169 C27.0095,14.6669 26.6075,15.1549 26.0575,15.2089 C26.0245,15.2129 25.9915,15.2139 25.9595,15.2139" id="path13234" style="stroke:none;stroke-opacity:1;fill:#4d4d4d;fill-opacity:1"/>
        <path d="M44,6 C43.448,6 43,5.552 43,5 L43,1 C43,0.448 43.448,0 44,0 C44.552,0 45,0.448 45,1 L45,5 C45,5.552 44.552,6 44,6" id="path13236" style="stroke:none;stroke-opacity:1;fill:#4d4d4d;fill-opacity:1"/>
        <path d="M59,17 L55,17 C54.448,17 54,16.552 54,16 C54,15.448 54.448,15 55,15 L59,15 C59.552,15 60,15.448 60,16 C60,16.552 59.552,17 59,17" id="path13238" style="stroke:none;stroke-opacity:1;fill:#4d4d4d;fill-opacity:1"/>
        <path d="M53.9536,12.3164 C53.5786,12.3164 53.2186,12.1044 53.0486,11.7424 C52.8126,11.2424 53.0276,10.6474 53.5276,10.4114 L57.1466,8.7084 C57.6456,8.4724 58.2416,8.6874 58.4766,9.1874 C58.7126,9.6874 58.4976,10.2824 57.9976,10.5184 L54.3786,12.2214 C54.2416,12.2864 54.0966,12.3164 53.9536,12.3164" id="path13240" style="stroke:none;stroke-opacity:1;fill:#4d4d4d;fill-opacity:1"/>
        <path d="M39.3169,7.0469 C38.9419,7.0469 38.5819,6.8349 38.4119,6.4729 L36.7089,2.8539 C36.4729,2.3539 36.6879,1.7579 37.1879,1.5229 C37.6869,1.2879 38.2829,1.5019 38.5179,2.0019 L40.2209,5.6209 C40.4569,6.1209 40.2419,6.7159 39.7419,6.9519 C39.6049,7.0169 39.4599,7.0469 39.3169,7.0469" id="path13242" style="stroke:none;stroke-opacity:1;fill:#4d4d4d;fill-opacity:1"/>
        <path d="M49.8813,7.7051 C49.6983,7.7051 49.5133,7.6551 49.3473,7.5501 C48.8813,7.2551 48.7423,6.6371 49.0373,6.1701 L51.1763,2.7901 C51.4713,2.3241 52.0893,2.1841 52.5563,2.4791 C53.0233,2.7751 53.1613,3.3931 52.8663,3.8591 L50.7273,7.2401 C50.5373,7.5401 50.2133,7.7051 49.8813,7.7051" id="path13244" style="stroke:none;stroke-opacity:1;fill:#4d4d4d;fill-opacity:1"/>
        <path d="M56.6743,25.0215 C56.4913,25.0215 56.3063,24.9715 56.1403,24.8665 L52.7603,22.7275 C52.2933,22.4325 52.1543,21.8145 52.4493,21.3475 C52.7453,20.8805 53.3623,20.7425 53.8293,21.0375 L57.2103,23.1765 C57.6763,23.4715 57.8153,24.0895 57.5203,24.5565 C57.3303,24.8565 57.0063,25.0215 56.6743,25.0215" id="path13246" style="stroke:none;stroke-opacity:1;fill:#4d4d4d;fill-opacity:1"/>
        <path d="M34.7041,11.1177 C34.5211,11.1177 34.3361,11.0677 34.1701,10.9627 L30.7901,8.8237 C30.3231,8.5287 30.1841,7.9107 30.4791,7.4437 C30.7751,6.9767 31.3921,6.8377 31.8591,7.1337 L35.2401,9.2727 C35.7061,9.5677 35.8451,10.1857 35.5501,10.6527 C35.3601,10.9527 35.0361,11.1177 34.7041,11.1177" id="path13248" style="stroke:none;stroke-opacity:1;fill:#4d4d4d;fill-opacity:1"/>
        <path d="M49.7368,26.373 C49.4008,26.373 49.0718,26.204 48.8828,25.896 C48.5948,25.425 48.7418,24.81 49.2128,24.52 C52.2108,22.682 53.9998,19.497 53.9998,16 C53.9998,10.486 49.5138,6 43.9998,6 C39.8538,6 36.1988,8.502 34.6888,12.374 C34.4878,12.888 33.9098,13.143 33.3938,12.942 C32.8798,12.742 32.6248,12.162 32.8258,11.647 C34.6368,7.002 39.0228,4 43.9998,4 C50.6168,4 55.9998,9.383 55.9998,16 C55.9998,20.198 53.8538,24.02 50.2588,26.226 C50.0958,26.326 49.9148,26.373 49.7368,26.373" id="path13250" style="stroke:none;stroke-opacity:1;fill:#4d4d4d;fill-opacity:1"/>
        <path d="M22,60 C21.448,60 21,59.552 21,59 L21,49 C21,48.448 21.448,48 22,48 C22.552,48 23,48.448 23,49 L23,59 C23,59.552 22.552,60 22,60" id="path13252" style="stroke:none;stroke-opacity:1;fill:#4d4d4d;fill-opacity:1"/>
        <path d="M26.999,58 C26.824,58 26.646,57.954 26.485,57.857 L16.485,51.857 C16.012,51.573 15.858,50.959 16.143,50.485 C16.426,50.012 17.041,49.858 17.515,50.143 L27.515,56.143 C27.988,56.427 28.142,57.041 27.857,57.515 C27.67,57.827 27.339,58 26.999,58" id="path13254" style="stroke:none;stroke-opacity:1;fill:#4d4d4d;fill-opacity:1"/>
        <path d="M17.001,58 C16.661,58 16.33,57.827 16.143,57.515 C15.858,57.041 16.012,56.427 16.485,56.143 L26.485,50.143 C26.959,49.858 27.573,50.012 27.857,50.485 C28.142,50.959 27.988,51.573 27.515,51.857 L17.515,57.857 C17.354,57.954 17.176,58 17.001,58" id="path13256" style="stroke:none;stroke-opacity:1;fill:#4d4d4d;fill-opacity:1"/>
        <path d="M38,49 C37.448,49 37,48.552 37,48 L37,38 C37,37.448 37.448,37 38,37 C38.552,37 39,37.448 39,38 L39,48 C39,48.552 38.552,49 38,49" id="path13258" style="stroke:none;stroke-opacity:1;fill:#4d4d4d;fill-opacity:1"/>
        <path d="M42.999,47 C42.824,47 42.646,46.954 42.485,46.857 L32.485,40.857 C32.012,40.573 31.858,39.959 32.143,39.485 C32.426,39.012 33.04,38.857 33.515,39.143 L43.515,45.143 C43.988,45.427 44.142,46.041 43.857,46.515 C43.67,46.827 43.339,47 42.999,47" id="path13260" style="stroke:none;stroke-opacity:1;fill:#4d4d4d;fill-opacity:1"/>
        <path d="M33.001,47 C32.661,47 32.33,46.827 32.143,46.515 C31.858,46.041 32.012,45.427 32.485,45.143 L42.485,39.143 C42.959,38.858 43.573,39.012 43.857,39.485 C44.142,39.959 43.988,40.573 43.515,40.857 L33.515,46.857 C33.354,46.954 33.176,47 33.001,47" id="path13262" style="stroke:none;stroke-opacity:1;fill:#4d4d4d;fill-opacity:1"/>
      </g>
    </g>
  </g>
</svg>