<?xml version="1.0" encoding="UTF-8" standalone="no"?>
<svg xmlns:dc="http://purl.org/dc/elements/1.1/" xmlns:cc="http://creativecommons.org/ns#" xmlns:rdf="http://www.w3.org/1999/02/22-rdf-syntax-ns#" xmlns:svg="http://www.w3.org/2000/svg" xmlns="http://www.w3.org/2000/svg" xmlns:sodipodi="http://sodipodi.sourceforge.net/DTD/sodipodi-0.dtd" xmlns:inkscape="http://www.inkscape.org/namespaces/inkscape" version="1.1" x="0px" y="0px" viewBox="0 0 48 48" enable-background="new 0 0 48 48" xml:space="preserve" id="svg10710" inkscape:version="0.91 r13725" sodipodi:docname="9-grey.svg"><metadata id="metadata10724"><rdf:RDF><cc:Work rdf:about=""><dc:format>image/svg+xml</dc:format><dc:type rdf:resource="http://purl.org/dc/dcmitype/StillImage"/><dc:title/></cc:Work></rdf:RDF></metadata><defs id="defs10722"/><sodipodi:namedview pagecolor="#ffffff" bordercolor="#666666" borderopacity="1" objecttolerance="10" gridtolerance="10" guidetolerance="10" inkscape:pageopacity="0" inkscape:pageshadow="2" inkscape:window-width="1165" inkscape:window-height="626" id="namedview10720" showgrid="false" inkscape:zoom="4.9166667" inkscape:cx="-22.177627" inkscape:cy="24" inkscape:window-x="701" inkscape:window-y="240" inkscape:window-maximized="0" inkscape:current-layer="svg10710"/><g id="g10712" style="fill:#333333;fill-opacity:0;stroke:#4d4d4d;stroke-opacity:1"><g id="g10714" style="fill:#333333;fill-opacity:0;stroke:#4d4d4d;stroke-opacity:1"><path fill="none" stroke="#000000" stroke-width="2" stroke-linecap="round" stroke-linejoin="round" stroke-miterlimit="10" d="    M35.5,36c5.2,0,9.5-4.3,9.5-9.5c0-3.2-1.6-6-4-7.8c0-0.2,0-0.5,0-0.7c0-6.6-5.4-12-12-12s-12,5.4-12,12c0,1.2,0.2,2.4,0.5,3.5    C16,20,13.9,19,11.5,19C6.8,19,3,22.8,3,27.5c0,4.7,3.8,8.5,8.5,8.5" id="path10716" style="fill:#333333;fill-opacity:0;stroke:#4d4d4d;stroke-opacity:1"/><polygon fill="none" stroke="#000000" stroke-width="2" stroke-linecap="round" stroke-linejoin="round" stroke-miterlimit="10" points="    22,25 18.4,35 23.2,34.5 20,46 29.1,32 25,32 30,25   " id="polygon10718" style="fill:#333333;fill-opacity:0;stroke:#4d4d4d;stroke-opacity:1"/></g></g></svg>