<svg xmlns="http://www.w3.org/2000/svg" viewBox="0 0 72.09 56.33"><defs><style>.\34 f30c419-d714-4408-921d-69e8b7380930{fill:#7f3f97;}</style></defs><title>halak</title><g id="d3fbbe3d-14e4-4db0-8239-2bc07c88c96c" data-name="Réteg 2"><g id="6271eba8-c812-4ae5-a338-45297fa83102" data-name="Réteg 1"><path class="4f30c419-d714-4408-921d-69e8b7380930" d="M24.37,44.14c-4.06-1.42-2.84-10.76-2.84-10.76-6.7.81-6.9-4.67-6.9-4.67,2.44,3.45,10.56,3,10.56,3-2-8.33-9.54-6.09-9.54-6.09,2-3,6.7.2,6.7.2l.61-4.47c-10.15.61-7.72-6.9-7.72-6.9s-.41,6.9,7.31,5.08,6.9-8.73,6.9-8.73c-1.22,1.42-2.23,2.64-2.23,2.64A7.35,7.35,0,0,1,29.85,8.4C16.25,1.09,10,13.48,10,13.48,2.64,12.06,0,19.37,0,19.37c2,0,7.31,2.84,7.31,2.84C6.3,41.1,23.56,45.16,23.56,45.16,18.68,55.52,29,56.33,29,56.33c1.63-6.9-1.22-8.94-1.22-8.94,2.23,1.22,3-1,4.67-1.42s5.48.81,5.48.81C33.1,39.68,24.37,44.14,24.37,44.14ZM22.54,9a1.62,1.62,0,1,1-1.62,1.62A1.62,1.62,0,0,1,22.54,9Z"/><path class="4f30c419-d714-4408-921d-69e8b7380930" d="M64.78,34.12c1-18.89-16.25-22.95-16.25-22.95C53.41.81,43.05,0,43.05,0c-1.62,6.91,1.22,8.94,1.22,8.94-2.23-1.22-3,1-4.67,1.42s-5.48-.81-5.48-.81c4.87,7.11,13.61,2.64,13.61,2.64,4.06,1.42,2.84,10.76,2.84,10.76,6.7-.81,6.91,4.67,6.91,4.67-2.44-3.45-10.56-3-10.56-3,2,8.33,9.54,6.09,9.54,6.09-2,3-6.7-.2-6.7-.2l-.61,4.47c10.15-.61,7.72,6.9,7.72,6.9s.41-6.9-7.31-5.08-6.91,8.73-6.91,8.73c1.22-1.42,2.23-2.64,2.23-2.64a7.35,7.35,0,0,1-2.64,5.08c13.61,7.31,19.9-5.08,19.9-5.08,7.31,1.42,10-5.89,10-5.89C70.06,37,64.78,34.12,64.78,34.12ZM49.55,47.32a1.62,1.62,0,1,1,1.62-1.62A1.62,1.62,0,0,1,49.55,47.32Z"/></g></g></svg>