<svg xmlns="http://www.w3.org/2000/svg" viewBox="0 0 62.26 58.76"><defs><style>.d83b6c7f-d3f2-424d-9b14-da2873b6e763{fill:#7f3f97;}</style></defs><title>ikrek</title><g id="0d7cc771-ec70-4d26-911c-9785801af576" data-name="Réteg 2"><g id="dbaa484d-4657-4717-8caa-785bf31c6ed6" data-name="Réteg 1"><path class="d83b6c7f-d3f2-424d-9b14-da2873b6e763" d="M24.93,58.45a20.89,20.89,0,0,1-12-11.92,28.49,28.49,0,0,1-1.38-13.2C14.84,9.05,29,11.38,29,11.38c-.39-7.33-9.69-6.58-13.31-7.14A10.84,10.84,0,0,1,9.11,0S-4.46,11.08,1.52,30.37s16.3,27.3,22.82,28.39Z"/><path class="d83b6c7f-d3f2-424d-9b14-da2873b6e763" d="M29.33,12.33A21.94,21.94,0,0,1,29.61,19c-.5,2.71-1.42,6.19-.58,7.89s3.09,3.48-.58,5.6c0,0-1.17,2.2-.42,3s-.25,1.19-.92,1.19c0,0,.75,1.61-.42,1.7l-1.25.17S24.35,38.82,25,41s-2.92,2.2-4.68.85a1.83,1.83,0,0,0-2.51,1.36c-.67,2.12-1.42,4.92-.42,7,0,0,4.93-2.71,7.52-.08s1.75,6.87.25,7.12c0,0-11.88-5.2-12.26-17S17.28,12.74,29.33,12.33Z"/><path class="d83b6c7f-d3f2-424d-9b14-da2873b6e763" d="M37.34,58.45a20.89,20.89,0,0,0,12-11.92,28.48,28.48,0,0,0,1.39-13.2C47.42,9.05,33.28,11.38,33.28,11.38,33.67,4.05,43,4.8,46.59,4.24A10.84,10.84,0,0,0,53.15,0s13.56,11.08,7.59,30.37-16.3,27.3-22.82,28.39Z"/><path class="d83b6c7f-d3f2-424d-9b14-da2873b6e763" d="M32.93,12.33A22,22,0,0,0,32.65,19c.5,2.71,1.42,6.19.59,7.89s-3.09,3.48.58,5.6c0,0,1.17,2.2.42,3s.25,1.19.92,1.19c0,0-.75,1.61.42,1.7l1.25.17s1.08.34.42,2.54,2.92,2.2,4.68.85a1.83,1.83,0,0,1,2.51,1.36c.67,2.12,1.42,4.92.42,7,0,0-4.93-2.71-7.52-.08s-1.75,6.87-.25,7.12c0,0,11.88-5.2,12.26-17S45,12.74,32.93,12.33Z"/></g></g></svg>