<svg xmlns="http://www.w3.org/2000/svg" viewBox="0 0 63.2 50.04"><defs><style>.a0215192-044a-4cb1-b7b5-272231161390{fill:#7f3f97;}</style></defs><title>kos</title><g id="9f2c5749-cb71-4bdb-b189-225f82f2caea" data-name="Réteg 2"><g id="2733147d-4aa9-4f1c-a0e9-2c6a3c8d3a56" data-name="Réteg 1"><path class="a0215192-044a-4cb1-b7b5-272231161390" d="M38.86,9.48s-5.58-15.21-24.34-7c0,0,20,4.82,8,20l2.79,4.82S34,28,34.8,33.82c0,0-4.18-4.31-8.24-3.55,0,0,3.3,9.38,4.69,12.55s2.66,7.35,7.1,7.23,4.94-.38,7.48-5.58a132.92,132.92,0,0,0,5.45-14.7S46,31.53,43.55,33.82c0,0,.25-6.34,7.73-6.72l3.8-5.32S41,12,63.2,2.13C63.2,2.13,49.76-6,38.86,9.48Z"/><path class="a0215192-044a-4cb1-b7b5-272231161390" d="M56.78,18.35S61,9.6,56.4,6.06,41.31,1.75,35.36,10,39.29,23,44.74,21.52c3-.83,5.77-2.38,6.86-4.43C52.5,15.4,53,11,48.41,10.24c-1.79-.29-5.05,1-5.2,3.42,0,0-2.15.76-.63-1.65s3.67-5.65,9.76-3.8C56.52,9.48,56.78,15.94,56.78,18.35Z"/><path class="a0215192-044a-4cb1-b7b5-272231161390" d="M1.75,17.84S-2.43,9.1,2.13,5.55s15.08-4.31,21,3.93S19.24,22.53,13.79,21c-3-.83-5.77-2.38-6.86-4.43-.9-1.69-1.38-6.11,3.18-6.85,1.79-.29,5.05,1,5.2,3.42,0,0,2.16.76.63-1.65S12.28,5.86,6.19,7.7C2,9,1.75,15.44,1.75,17.84Z"/></g></g></svg>