<svg xmlns="http://www.w3.org/2000/svg" viewBox="0 0 58.56 62.85"><defs><style>.\37 3ad1c2a-9cf1-42ab-b4a9-7af30edc72c5{fill:#7f3f97;}</style></defs><title>nyilas</title><g id="793b11c1-44c5-4885-aabe-7801d08862b4" data-name="Réteg 2"><g id="4f825021-24f0-4406-b2b3-81e153c5fb8e" data-name="Réteg 1"><polygon class="73ad1c2a-9cf1-42ab-b4a9-7af30edc72c5" points="15.03 62.85 18.29 54.16 18.02 49 44.69 9.76 46 13.68 52.16 0 39.21 8.25 43.56 9.06 16.66 48.18 12.2 50.18 7.43 59.59 13.13 56.06 15.03 62.85"/><path class="73ad1c2a-9cf1-42ab-b4a9-7af30edc72c5" d="M0,18.91S5.64,23,13.12,12,25.93,4.73,27.3,9.46s.92,16.62,14.18,18.15,15.4,7,7.47,17.08-8.54,11.13-6.1,16.47c0,0-1.37-4.42,1.53-7.78s16.32-15.25,13.88-22-5.34-6.1-13.12-8.24-11.74-4.27-12.2-12-6.25-13.42-12-10.07S9.46,13.57,7.32,15.4,2,19.52,0,18.91Z"/><polygon class="73ad1c2a-9cf1-42ab-b4a9-7af30edc72c5" points="6.71 18.45 12.2 50.18 11.59 51.09 5.95 18.76 6.71 18.45"/><polygon class="73ad1c2a-9cf1-42ab-b4a9-7af30edc72c5" points="17.52 55.8 42.72 53.07 42.26 53.8 17.34 56.53 17.52 55.8"/></g></g></svg>