<svg xmlns="http://www.w3.org/2000/svg" viewBox="0 0 60.35 61.76"><defs><style>.a78eb248-e43e-463f-8495-f417c6c7a533{fill:#7f3f97;}</style></defs><title>rak</title><g id="c22f1fbb-f244-4fa9-9921-146ba3948077" data-name="Réteg 2"><g id="5c792318-c74e-47b8-b501-70b4cb555f6c" data-name="Réteg 1"><path class="a78eb248-e43e-463f-8495-f417c6c7a533" d="M19.73,24.91l-3,5.89L9.17,19s-2.64-.2,1.42-4.67C13.69,10.95,19.93-2.9,31.3.55c0,0-8.53,3.25-9.75,8.12,0,0,8.33-1.83,10.15-5.48,0,0,.81,6.09-10.15,9.34l-3,.61-3.86,4.67Z"/><path class="a78eb248-e43e-463f-8495-f417c6c7a533" d="M48.95,24.91l3,5.89L59.51,19s2.64-.2-1.42-4.67C55,10.95,48.75-2.9,37.37.55c0,0,8.53,3.25,9.75,8.12,0,0-8.33-1.83-10.15-5.48,0,0-.81,6.09,10.15,9.34l3,.61L54,17.81Z"/><path class="a78eb248-e43e-463f-8495-f417c6c7a533" d="M18.23,32.06A37.2,37.2,0,0,1,28.56,16.5S25.5,14.33,27,13.31l3.19,2h8.41l2.55-1.91s2.3.64-.64,3.19c0,0,10.46,11.09,10.07,17.34s-11.22,9.69-16.7,9.82S15.68,37.41,18.23,32.06Z"/><path class="a78eb248-e43e-463f-8495-f417c6c7a533" d="M40.42,43.4l-2.81,1.15s8.93,7.9,3.44,17.21C41.06,61.76,49.09,57.17,40.42,43.4Z"/><path class="a78eb248-e43e-463f-8495-f417c6c7a533" d="M44.75,41.75,41.57,43s6.89,5.1,8.29,7.65.13,9.43.13,9.43,3.32-3.19,2-11.47C52,48.63,48.58,43.79,44.75,41.75Z"/><path class="a78eb248-e43e-463f-8495-f417c6c7a533" d="M27.44,41.75,31,38.94l3.06-.51A25.1,25.1,0,0,0,50.52,28.36S49.63,35,35.09,41.24C35.09,41.24,29.86,43.4,27.44,41.75Z"/><path class="a78eb248-e43e-463f-8495-f417c6c7a533" d="M33.05,33.46,31.9,37.28s13.64-1.15,17.21-18C49.12,19.31,42.61,33.33,33.05,33.46Z"/><path class="a78eb248-e43e-463f-8495-f417c6c7a533" d="M28.18,43.15,31,44.3s-8.92,7.91-3.44,17.21C27.54,61.51,19.51,56.92,28.18,43.15Z"/><path class="a78eb248-e43e-463f-8495-f417c6c7a533" d="M23.84,41.49,27,42.77s-6.89,5.1-8.29,7.65-.13,9.43-.13,9.43-3.32-3.19-2-11.48C16.58,48.38,20,43.53,23.84,41.49Z"/><path class="a78eb248-e43e-463f-8495-f417c6c7a533" d="M23.08,41.24l-3.57-2.81-3.06-.51A25.1,25.1,0,0,1,0,27.85s.89,6.63,15.43,12.88C15.43,40.73,20.66,42.89,23.08,41.24Z"/><path class="a78eb248-e43e-463f-8495-f417c6c7a533" d="M16.83,33.2,18,37S4.34,35.88.76,19.05C.76,19.05,7.27,33.08,16.83,33.2Z"/></g></g></svg>