<svg xmlns="http://www.w3.org/2000/svg" viewBox="0 0 52.14 67.51"><defs><style>.\34 e6f8d2e-f056-4da1-ab5c-7a0c39283147{fill:#7f3f97;}</style></defs><title>szuz</title><g id="fffe6660-434a-4a9c-89dc-041642745a7d" data-name="Réteg 2"><g id="eedc3034-2548-4500-badb-6e4d8454cb7a" data-name="Réteg 1"><path class="4e6f8d2e-f056-4da1-ab5c-7a0c39283147" d="M38.55,67.09a11.17,11.17,0,0,0,7.31-.45s.15-3.88,2.09-6,5.82-8.06,3.43-12.39l-1.49.15a3.42,3.42,0,0,0-.6-3.13c-1.19-1.34-3.13-2.09-4.92-.15,0,0-2.69,2.39,1.94,1.79,0,0,2.69-.15.6,2.24,0,0-1.94.3-2.39,1.19,0,0,1.19-3.58-1.34-4,0,0-1.34.15-2.24,4s-2.54,4-2.09,6,1.79,3.14,1.49,4.63S40.49,65.3,38.55,67.09Z"/><ellipse class="4e6f8d2e-f056-4da1-ab5c-7a0c39283147" cx="44.19" cy="36.16" rx="11.46" ry="1.83" transform="translate(1.29 73.85) rotate(-80.59)"/><path class="4e6f8d2e-f056-4da1-ab5c-7a0c39283147" d="M32.86,34.55a29,29,0,0,0,1.35-11.29c-.34-6.4-8.26-10.79-10.79-12S19.71,6.57,20.22,4,12.3,0,12.3,0C9.43,2.19-5.06,15.17,1.85,40.11S30.5,66.4,30.5,66.4a16.39,16.39,0,0,0,.33-4.32c-1.55-4.66-7.56-1.66-9.63-.83s-3.11,0-3.21-5.49,3.94-3.31,3.94-3.31c5.39,2.38,5.7-2.59,5.7-2.59,3,.31,2.07-2.28,2.07-2.28,1.35-.1,1.55-1.14,1.45-2.8s.83-1.55.83-1.55c1.24,0,2.8-1.45,1.24-3.42S32.86,34.55,32.86,34.55Zm-2.12-2.24.16,1.28c-.64-1.28-4.31-.32-4.31-.32A3.31,3.31,0,0,1,30.74,32.31Zm-1.8,6.91A6.11,6.11,0,0,1,25.86,37s2.73-3.66,5-1.16Z"/><path class="4e6f8d2e-f056-4da1-ab5c-7a0c39283147" d="M32.86,19A11,11,0,0,0,22.52,29.12S22.84,40,16.78,42.84,9,52.41,13.27,58.95c0,0-10.21-9.57-1.75-18.34s8.61-14.35,8.45-19,5.73-8.8,8.6-7.21C28.57,14.42,31.9,16.86,32.86,19Z"/></g></g></svg>