<svg id="heavyfog" xmlns="http://www.w3.org/2000/svg" viewBox="0 0 48 48" xml:space="preserve" style="background: #000;">
	<defs>
		<style>
			@keyframes animatedMist {
				0% {
					-webkit-transform: translateX(-150%);
					        transform: translateX(-250%);
				}
				100% {
					-webkit-transform: translateX(150%);
					        transform: translateX(250%);
				}
			}
			#fog1, #fog2 {
				/*transform-origin: left;
				transform-box: fill-box;*/
			}
			#fog1 {
				-webkit-animation: animatedMist 60s linear infinite;
				        animation: animatedMist 15s linear infinite;
			}
			#fog2 {
				-webkit-animation: animatedMist 30s linear infinite;
				        animation: animatedMist 10s linear infinite;
				-webkit-animation-delay: 4s;
				        animation-delay: 4s;
			}
		</style>
		<filter id="cld1" x="-0.16268677" width="1.3253735" y="-0.45734104" height="1.9146821" filterUnits="objectBoundingBox">
			<feGaussianBlur stdDeviation="3.090625"/>
		</filter>
		<filter id="cld2" x="-0.14342204" width="1.2868441" y="-0.73480548" height="2.469611" filterUnits="objectBoundingBox">
			<feGaussianBlur stdDeviation="2.7142921"/>
		</filter>
	</defs>
	<g  fill="#f2f2f2" stroke="#7dd8ea" stroke-linecap="round" stroke-linejoin="round" stroke-width="0.5">
		<path id="fog1" filter="url(#cld1)" d="M 7.9802123,24.048515 L 7.9802123,24.079765 C 4.2458503,24.337893 1.3239623,26.549942 1.3239623,29.267265 C 1.3239623,32.157727 4.6256095,34.517264 8.6989623,34.517265 L 15.980212,34.517265 L 15.980212,34.548515 C 14.214378,34.677388 12.823962,35.783464 12.823962,37.142265 C 12.823962,38.501067 14.214378,39.607143 15.980212,39.736015 L 15.980212,39.767265 L 39.323962,39.767265 C 43.233946,39.767265 46.417712,37.407727 46.417712,34.517265 C 46.417711,31.689521 43.366709,29.397279 39.573962,29.298515 L 30.573962,29.298515 L 30.573962,29.267265 C 32.618057,29.13311 34.230212,28.028419 34.230212,26.673515 C 34.230212,25.318612 32.618056,24.213921 30.573962,24.079765 L 30.573962,24.048515 L 30.167712,24.048515 L 7.9802123,24.048515 z"/>
		<g style="transform: translateY(-15%);">
			<path id="fog2" filter="url(#cld2)" style="transform:translateX(-250%)" d="M 6.9397397,13.659329 L 6.9397397,13.685511 C 3.3150339,13.901778 0.9985426,14.01941 1.22761,15.76586 C 1.4325244,17.328164 2.0912732,18.142852 6.0534854,18.276222 L 5.3097124,18.465046 L 4.7432402,18.491228 C 2.9774062,18.599202 1.6814023,19.242668 1.6814023,20.381111 C 1.6814023,21.822987 4.0607975,21.745436 7.0140009,21.842061 C 9.9672043,21.938684 13.494215,21.737423 15.789448,21.987757 L 15.789448,22.000848 L 15.789448,22.01394 L 27.461323,22.01394 L 39.133198,22.01394 C 43.043182,22.01394 46.132536,22.302939 46.132536,19.881227 C 46.132535,17.512061 40.060348,17.479794 36.267601,17.397047 C 32.276446,17.397047 30.22227,17.208223 27.362013,17.208223 L 27.362013,17.182041 C 29.406108,17.069642 34.039448,16.1441 34.039448,15.008922 C 34.039448,13.873745 31.577584,13.797911 29.53349,13.685511 L 29.53349,13.659329 L 29.12724,13.659329 L 6.9397397,13.659329 z"/>
		</g>
	</g>
</svg>
