<?xml version="1.0" encoding="windows-1252"?>
<!-- Generator: Adobe Illustrator 19.0.0, SVG Export Plug-In . SVG Version: 6.00 Build 0)  -->
<svg version="1.1" id="Layer_1" xmlns="http://www.w3.org/2000/svg" xmlns:xlink="http://www.w3.org/1999/xlink" x="0px" y="0px" viewBox="0 0 496.008 496.008" style="enable-background:new 0 0 496.008 496.008;" xml:space="preserve">
<g>
	<path style="fill:#333333;" d="M293.208,491.896l-2.904-15.736c109.92-20.248,189.704-116.2,189.704-228.16v-24h16v24   C496.008,367.672,410.72,470.24,293.208,491.896z"/>
	<path style="fill:#333333;" d="M259.624,495.736l-0.752-15.984c5.176-0.24,10.312-0.648,15.408-1.216l1.768,15.904   C270.624,495.04,265.152,495.48,259.624,495.736z"/>
	<path style="fill:#333333;" d="M254.424,463.904l-0.456-16c4.92-0.136,9.968-0.472,15-0.992l1.64,15.92   C265.184,463.392,259.736,463.752,254.424,463.904z"/>
	<path style="fill:#333333;" d="M287.176,460.456l-2.888-15.736c79.336-14.544,141.776-74.848,159.072-153.648l15.624,3.44   C440.304,379.608,372.864,444.752,287.176,460.456z"/>
	<path style="fill:#333333;" d="M248.008,432v-16c5.128,0,10.312-0.232,15.424-0.704l1.456,15.936   C259.288,431.744,253.608,432,248.008,432z"/>
	<path style="fill:#333333;" d="M282.776,428.72l-3-15.72c59.416-11.368,108.288-54.112,127.544-111.544l15.168,5.096   C401.4,369.448,347.856,416.264,282.776,428.72z"/>
	<path style="fill:#333333;" d="M16.008,272h-16v-24C0.008,128.328,85.296,25.76,202.8,4.112l2.904,15.736   C95.784,40.096,16.008,136.048,16.008,248V272z"/>
	<path style="fill:#333333;" d="M221.744,17.472L219.96,1.568c5.424-0.6,10.896-1.04,16.424-1.296l0.752,15.984   C231.952,16.496,226.824,16.904,221.744,17.472z"/>
	<path style="fill:#333333;" d="M227.04,49.088l-1.64-15.92c5.424-0.552,10.872-0.912,16.184-1.072l0.456,16   C237.12,48.232,232.072,48.568,227.04,49.088z"/>
	<path style="fill:#333333;" d="M52.032,207.872l-15.672-3.184C53.752,119.24,123.064,51.264,208.832,35.552l2.888,15.736   C132.312,65.84,68.144,128.768,52.032,207.872z"/>
	<path style="fill:#333333;" d="M232.576,80.704l-1.456-15.936C236.712,64.264,242.392,64,248,64v16   C242.88,80,237.688,80.24,232.576,80.704z"/>
	<path style="fill:#333333;" d="M88.584,194.832l-15.168-5.064C94.44,126.688,148.016,79.76,213.24,67.28l3,15.72   C156.696,94.384,107.792,137.24,88.584,194.832z"/>
</g>
<path style="fill:#FFA64D;" d="M248,360H88c-48.52,0-88-39.48-88-88s39.48-88,88-88h68.184c21-30.144,55-48,91.816-48h160  c48.52,0,88,39.48,88,88s-39.48,88-88,88h-68.176C318.808,342.144,284.808,360,248,360z"/>
<path style="fill:#333333;" d="M408.008,184c-13.128,0-24.704,6.448-32,16.248c-7.296-9.8-18.872-16.248-32-16.248  c-20.064,0-36.568,14.904-39.416,34.192C293.848,197.888,272.528,184,248.008,184c-35.288,0-64,28.712-64,64  c0,0.088,0.016,0.176,0.016,0.264C176.728,238.456,165.152,232,152.008,232c-13.128,0-24.704,6.448-32,16.248  c-7.296-9.8-18.872-16.248-32-16.248c-22.056,0-40,17.944-40,40s17.944,40,40,40c13.128,0,24.704-6.448,32-16.248  c7.296,9.8,18.872,16.248,32,16.248c20.064,0,36.568-14.904,39.416-34.192C202.168,298.112,223.488,312,248.008,312  c35.288,0,64-28.712,64-64c0-0.088-0.016-0.176-0.016-0.264c7.296,9.808,18.872,16.264,32.016,16.264  c13.128,0,24.704-6.448,32-16.248c7.296,9.8,18.872,16.248,32,16.248c22.056,0,40-17.944,40-40S430.064,184,408.008,184z   M88.008,296c-13.232,0-24-10.768-24-24s10.768-24,24-24s24,10.768,24,24S101.24,296,88.008,296z M152.008,296  c-13.232,0-24-10.768-24-24s10.768-24,24-24s24,10.768,24,24S165.24,296,152.008,296z M248.008,296c-26.472,0-48-21.528-48-48  s21.528-48,48-48s48,21.528,48,48S274.48,296,248.008,296z M344.008,248c-13.232,0-24-10.768-24-24s10.768-24,24-24s24,10.768,24,24  S357.24,248,344.008,248z M408.008,248c-13.232,0-24-10.768-24-24s10.768-24,24-24s24,10.768,24,24S421.24,248,408.008,248z"/>
<g>
</g>
<g>
</g>
<g>
</g>
<g>
</g>
<g>
</g>
<g>
</g>
<g>
</g>
<g>
</g>
<g>
</g>
<g>
</g>
<g>
</g>
<g>
</g>
<g>
</g>
<g>
</g>
<g>
</g>
</svg>