<svg id="01n" xmlns="http://www.w3.org/2000/svg" viewBox="0 0 500 500">
	<defs>
		<style>
			.moon {fill:#FFEEB6}
			.stars {fill:#58A1D4}
		</style>
		<linearGradient id="moonDark" gradientUnits="userSpaceOnUse" x1="0%" y1="0%" x2="0%" y2="100%">
			<stop stop-color="#FFC843" offset="0"/>
			<stop stop-color="#3f3a02" offset="80%"/>
		</linearGradient>
		<linearGradient id="moon" gradientUnits="userSpaceOnUse" x1="0%" y1="0%" x2="0%" y2="100%">
			<stop stop-color="#FCE6B1" offset="0"/>
			<stop stop-color="#FFC843" offset="50%"/>
			<stop stop-color="#3f3a02" offset="80%"/>
		</linearGradient>
	</defs>
	<path fill="#EAC618" d="M386.4 279.97c-11.79 3.3-24.02 4.99-36.36 4.99-73.88 0-133.99-60.1-133.99-133.98 0-12.75 1.8-25.38 5.34-37.53l5.35-18.39-18.44 5.19a156.3 156.3 0 0 0-81.04 54.92 153.8 153.8 0 0 0-32.09 94.53c0 85.6 69.65 155.24 155.25 155.24 34.27 0 66.77-10.95 93.98-31.67a156.4 156.4 0 0 0 55.08-80.1l5.35-18.39-18.44 5.19zM250.4 383.68c-73.87 0-133.98-60.1-133.98-133.98 0-53.54 32.2-101.67 80.22-122.75a156.08 156.08 0 0 0-1.86 24.03c0 85.6 69.64 155.24 155.24 155.24 7.6 0 15.16-.55 22.63-1.64-21.35 47.35-69.27 79.1-122.25 79.1z"/>
	<path fill="#58A1D4" d="M358.37 113.73l4.42 8.95 9.87 1.43-7.14 6.97 1.68 9.83-8.83-4.64-8.83 4.64 1.68-9.83-7.14-6.97 9.87-1.43zM276.96 125.51l6.62 13.41 14.8 2.15-10.71 10.44 2.53 14.73-13.24-6.95-13.23 6.95 2.52-14.73-10.7-10.44 14.79-2.15zM332.46 195.11l8.01 16.23 17.9 2.6-12.96 12.62 3.07 17.83-16.02-8.41-16.02 8.41 3.07-17.83-12.96-12.62 17.9-2.6z"/>
	<path fill="url(#moon)" d="M194.8 150.98c0-8.07.61-16.1 1.85-24.04-48.02 21.08-80.22 69.22-80.22 122.76 0 73.88 60.1 133.98 133.98 133.98 52.98 0 100.9-31.75 122.25-79.1a156.28 156.28 0 0 1-22.63 1.64c-85.6 0-155.24-69.64-155.24-155.24z"/>
</svg>
