<svg id="03d" xmlns="http://www.w3.org/2000/svg" viewBox="0 0 500 500">
	<defs>
		<style>
			svg, symbol {
				--wh: #dff0fe;
			 	--bl: #000;
			 	--rd: #ff0000;
			 	--lB: #98ccfd;
			 	--dB: #4788c7;
			 	--dG: #808083;
			 	--lY: #fce6b1;
			 	--dY: #ffc843;
			 	--bY: #3f3a02;
			 	--s1: #fff76b;
			 	--s2: #fff845;
			 	--s3: #ffda4e;
			 	--s4: #fb8933;
			 	--s5: #fdc830;
			 	--s6: #f37335;
			}
		</style>
		<radialGradient id="sunCore" gradientUnits="userSpaceOnUse" r="95" spreadMethod="pad">
			<stop stop-color="var(--s1)" offset="0"/>
			<stop stop-color="var(--s2)" offset="10%"/>
			<stop stop-color="var(--s3)" offset="30%"/>
			<stop stop-color="var(--s4)" offset="100%"/>
		</radialGradient>
		<radialGradient id="sunRays" gradientUnits="userSpaceOnUse" r="100%" spreadMethod="pad">
			<stop stop-color="var(--s4)" offset="5%"/>
			<stop stop-color="var(--s3)" offset="72%"/>
			<stop stop-color="var(--s2)" offset="94%"/>
			<stop stop-color="var(--s1)" offset="100%"/>
		</radialGradient>
		<linearGradient id="lightCloud" gradientUnits="userSpaceOnUse" x1="0%" y1="0%" x2="0%" y2="100%" spreadMethod="pad">
			<stop class="s5" stop-color="var(--wh)" offset="63%"/>
			<stop class="s7" stop-color="var(--dG)" offset="83%"/>
			<stop class="s8" stop-color="var(--bl)" offset="100%"/>
		</linearGradient>
	</defs>
	<path fill="var(--wh)" d="M299 183.9c-46.08 0-83.57 37.48-83.57 83.56 0 46.08 37.5 83.57 83.58 83.57 46.07 0 83.56-37.49 83.56-83.57 0-46.07-37.49-83.56-83.56-83.56z"/>
	<path fill="url(#sunCore)" stroke="url(#sunCore)" d="M300 350.96c-46.6 0-84.5-37.9-84.5-84.5 0-46.59 37.91-84.5 84.5-84.5 46.6 0 84.5 37.91 84.5 84.5 0 46.6-37.9 84.5-84.5 84.5z"/>
	<path fill="url(#sunRays)" d="M299 162.78c-57.72 0-104.68 46.96-104.68 104.69 0 57.72 46.96 104.68 104.69 104.68 57.72 0 104.68-46.96 104.68-104.68 0-57.73-46.96-104.69-104.68-104.69zm0 188.25c-46.08 0-83.57-37.49-83.57-83.56 0-46.08 37.5-83.57 83.58-83.57 46.07 0 83.56 37.49 83.56 83.57 0 46.07-37.49 83.56-83.56 83.56zM488.84 278.02h-56.75a10.56 10.56 0 0 1 0-21.12h56.75a10.56 10.56 0 0 1 0 21.12zM166.7 278.02h-56.75a10.56 10.56 0 0 1 0-21.12h56.75a10.56 10.56 0 0 1 0 21.12zM299.4 145.32a10.56 10.56 0 0 1-10.56-10.55V78.02a10.56 10.56 0 0 1 21.11 0v56.75c0 5.83-4.72 10.55-10.55 10.55zM393.1 183.9a10.56 10.56 0 0 1-7.46-18.02l31-31a10.56 10.56 0 0 1 14.93 14.93l-31 31a10.52 10.52 0 0 1-7.46 3.1zM424.51 403.54c-2.7 0-5.4-1.03-7.46-3.1l-31.8-31.8a10.56 10.56 0 1 1 14.92-14.94l31.8 31.81a10.56 10.56 0 0 1-7.46 18.03zM204.88 183.9c-2.7 0-5.4-1.03-7.46-3.09l-31.34-31.34A10.56 10.56 0 1 1 181 134.54l31.34 31.34a10.56 10.56 0 0 1-7.47 18.02zM173.54 403.53a10.56 10.56 0 0 1-7.47-18.03l31.81-31.8a10.56 10.56 0 0 1 14.93 14.93l-31.8 31.81a10.53 10.53 0 0 1-7.47 3.1z"/>
	<path display="none" fill="#808083" d="M325.95 291.43c.02-.45.02-.9.02-1.34a65.48 65.48 0 0 0-65.4-65.4c-4.84 0-9.66.55-14.43 1.64a110.24 110.24 0 0 0-88.51-44.28c-61.09 0-110.78 49.7-110.78 110.77v.08A72.11 72.11 0 0 0 .6 360.25c0 39.86 32.41 72.29 72.25 72.29h231.16c39.86 0 72.3-32.43 72.3-72.3a72.02 72.02 0 0 0-50.37-68.8zm-21.93 119.85H72.86c-28.12 0-51-22.9-51-51.03a50.89 50.89 0 0 1 38.58-49.4c5-1.26 8.38-5.98 8-11.13-.17-2.42-.34-4.7-.34-6.9 0-49.36 40.16-89.51 89.52-89.51a89.16 89.16 0 0 1 75.23 41.13 10.63 10.63 0 0 0 12.57 4.23 44.17 44.17 0 0 1 15.14-2.73 44.2 44.2 0 0 1 44.15 44.14c0 2.36-.23 4.88-.71 7.7a10.63 10.63 0 0 0 8.68 12.26 50.82 50.82 0 0 1 42.37 50.2 51.09 51.09 0 0 1-51.03 51.04z"/>
	<path fill="url(#lightCloud)" d="M304.02 411.28H72.86c-28.12 0-51-22.9-51-51.03a50.9 50.9 0 0 1 38.58-49.4c5-1.26 8.38-5.98 8-11.13-.17-2.42-.34-4.7-.34-6.9 0-49.36 40.16-89.51 89.52-89.51a89.16 89.16 0 0 1 75.23 41.13 10.62 10.62 0 0 0 12.57 4.23 44.18 44.18 0 0 1 15.14-2.73 44.2 44.2 0 0 1 44.15 44.14c0 2.36-.23 4.88-.71 7.7a10.63 10.63 0 0 0 8.68 12.26 50.82 50.82 0 0 1 42.37 50.2 51.09 51.09 0 0 1-51.03 51.04z"/>
</svg>
