<svg id="04d" xmlns="http://www.w3.org/2000/svg" viewBox="0 0 500 500">
	<defs>
		<style>
			svg, symbol {
				--wh: #dff0fe;
				--bl: #000;
				--rd: #ff0000;
				--lB: #98ccfd;
				--dB: #4788c7;
				--dG: #808083;
				--lY: #fce6b1;
				--dY: #ffc843;
				--bY: #3f3a02;
				--s1: #fff76b;
				--s2: #fff845;
				--s3: #ffda4e;
				--s4: #fb8933;
				--s5: #fdc830;
				--s6: #f37335;
			}
		</style>
		<linearGradient id="moonDark" gradientUnits="userSpaceOnUse" x1="0%" y1="0%" x2="0%" y2="100%">
			<stop stop-color="#FFC843" offset="0"/>
			<stop stop-color="#3f3a02" offset="80%"/>
		</linearGradient>
		<linearGradient id="moon" gradientUnits="userSpaceOnUse" x1="0%" y1="0%" x2="0%" y2="100%">
			<stop stop-color="#FCE6B1" offset="0"/>
			<stop stop-color="#FFC843" offset="50%"/>
			<stop stop-color="#3f3a02" offset="80%"/>
		</linearGradient>
		<linearGradient id="lightCloud" gradientUnits="userSpaceOnUse" x1="0%" y1="0%" x2="0%" y2="100%" spreadMethod="pad">
			<stop class="s5" stop-color="#fff" offset="63%"/>
			<stop class="s7" stop-color="#808083" offset="83%"/>
			<stop class="s8" stop-color="#000" offset="100%"/>
		</linearGradient>
		<linearGradient id="darkCloud" gradientUnits="userSpaceOnUse" x1="0%" y1="0%" x2="0%" y2="100%" spreadMethod="pad">
			<stop class="s7" stop-color="#808083" offset="63%"/>
			<stop class="s8" stop-color="#000" offset="100%"/>
		</linearGradient>
	</defs>
	<path fill="url(#moon)" d="M289.52 122.38c0-8.07.63-16.1 1.86-24.03-48.02 21.08-80.22 69.21-80.22 122.75 0 73.88 60.1 133.98 133.98 133.98 52.98 0 100.9-31.75 122.25-79.1a156.39 156.39 0 0 1-22.63 1.64c-85.6 0-155.24-69.64-155.24-155.24z"/>
	<path fill="url(#moonDark)" d="M481.12 251.37c-11.78 3.31-24 5-36.35 5-73.88 0-133.98-60.11-133.98-134 0-12.74 1.8-25.37 5.33-37.52l5.36-18.39-18.44 5.19A156.29 156.29 0 0 0 222 126.57a153.8 153.8 0 0 0-32.09 94.53c0 85.6 69.64 155.25 155.24 155.25 34.27 0 66.77-10.96 93.97-31.68a156.4 156.4 0 0 0 55.09-80.1l5.35-18.39-18.44 5.19zM345.15 355.08c-73.88 0-133.98-60.1-133.98-133.98 0-53.54 32.2-101.67 80.21-122.75a156.33 156.33 0 0 0-1.85 24.03c0 85.6 69.64 155.24 155.24 155.24 7.6 0 15.16-.55 22.63-1.64-21.36 47.36-69.28 79.1-122.25 79.1z"/>
	<g fill="url(#lightCloud)" stroke="url(#lightCloud)">
		<path d="M303.85 412.28H72.69c-28.11 0-51-22.9-51-51.03a50.9 50.9 0 0 1 38.58-49.4c5.01-1.25 8.39-5.98 8.01-11.13-.18-2.42-.34-4.7-.34-6.9 0-49.36 40.16-89.51 89.52-89.51a89.16 89.16 0 0 1 75.23 41.13 10.63 10.63 0 0 0 12.57 4.23 44.17 44.17 0 0 1 15.14-2.73 44.2 44.2 0 0 1 44.15 44.14c0 2.36-.24 4.88-.72 7.7a10.63 10.63 0 0 0 8.69 12.26 50.82 50.82 0 0 1 42.36 50.2 51.09 51.09 0 0 1-51.03 51.04z"/>
		<path d="M325.79 292.44l.01-1.35a65.48 65.48 0 0 0-65.4-65.4c-4.83 0-9.66.55-14.43 1.64a110.24 110.24 0 0 0-88.5-44.28c-61.1 0-110.79 49.7-110.79 110.78v.07A72.1 72.1 0 0 0 .44 361.25c0 39.86 32.41 72.29 72.26 72.29h231.15c39.86 0 72.3-32.43 72.3-72.3a72 72 0 0 0-50.36-68.8zm-21.94 119.84H72.69c-28.12 0-51-22.9-51-51.03a50.9 50.9 0 0 1 38.58-49.4c5.01-1.25 8.39-5.97 8.01-11.13-.18-2.41-.34-4.7-.34-6.9 0-49.35 40.15-89.5 89.52-89.5a89.16 89.16 0 0 1 75.22 41.12 10.63 10.63 0 0 0 12.58 4.24 44.17 44.17 0 0 1 15.13-2.74 44.2 44.2 0 0 1 44.15 44.15c0 2.35-.23 4.87-.71 7.7a10.63 10.63 0 0 0 8.69 12.26 50.82 50.82 0 0 1 42.36 50.2 51.09 51.09 0 0 1-51.03 51.03z"/>
	</g>
</svg>
