<svg xmlns="http://www.w3.org/2000/svg" viewBox="0 0 500 500">
	<defs>
		<linearGradient id="moon" gradientUnits="userSpaceOnUse" x1="0%" y1="0%" x2="0%" y2="100%">
			<stop stop-color="#FCE6B1" offset="0"/>
			<stop stop-color="#FFC843" offset="50%"/>
			<stop stop-color="#3f3a02" offset="80%"/>
		</linearGradient>
	</defs>
	<path fill="url(#moon)" d="M289.52 83.22c0-8.07.63-16.1 1.86-24.03-48.01 21.08-80.21 69.21-80.21 122.75 0 73.88 60.1 133.99 133.98 133.99 52.97 0 100.9-31.75 122.24-79.11a156.27 156.27 0 0 1-22.62 1.64c-85.6 0-155.25-69.64-155.25-155.24z"/>
	<path fill="#EAC618" d="M481.12 212.2c-11.78 3.32-24 5-36.35 5-73.88 0-133.99-60.1-133.99-133.98 0-12.75 1.8-25.37 5.34-37.53l5.35-18.39-18.44 5.19A156.3 156.3 0 0 0 222 87.4a153.8 153.8 0 0 0-32.1 94.53c0 85.6 69.65 155.24 155.25 155.24 34.28 0 66.77-10.95 93.97-31.67a156.4 156.4 0 0 0 55.09-80.1l5.35-18.39-18.44 5.19zM345.15 315.94c-73.88 0-133.98-60.1-133.98-133.99 0-53.54 32.2-101.67 80.21-122.75a156.1 156.1 0 0 0-1.86 24.03c0 85.6 69.64 155.24 155.24 155.24 7.6 0 15.16-.55 22.63-1.64-21.35 47.36-69.27 79.1-122.24 79.1z"/>
	<path fill="#FFF" d="M312.52 271.89a10.63 10.63 0 0 1-8.69-12.27c.48-2.82.71-5.33.71-7.7a44.2 44.2 0 0 0-44.15-44.14 44.2 44.2 0 0 0-15.13 2.74 10.63 10.63 0 0 1-12.57-4.24 89.16 89.16 0 0 0-75.23-41.13c-49.36 0-89.52 40.16-89.52 89.52 0 2.2.16 4.48.34 6.9.38 5.15-3 9.87-8 11.13a50.9 50.9 0 0 0-38.58 49.39 51.07 51.07 0 0 0 51 51.03h231.15a51.09 51.09 0 0 0 51.03-51.03c0-24.9-17.82-46-42.36-50.2z"/>
	<path fill="#808083" d="M325.79 253.27l.01-1.34a65.48 65.48 0 0 0-65.4-65.41c-4.83 0-9.66.55-14.43 1.65a110.24 110.24 0 0 0-88.5-44.28c-61.1 0-110.8 49.7-110.8 110.77v.08A72.1 72.1 0 0 0 .45 322.1c0 39.86 32.41 72.29 72.26 72.29h231.15c39.86 0 72.3-32.43 72.3-72.3a72 72 0 0 0-50.36-68.8zm-21.94 119.85H72.69c-28.11 0-51-22.9-51-51.03a50.9 50.9 0 0 1 38.58-49.4c5.01-1.25 8.39-5.97 8.01-11.12a95.8 95.8 0 0 1-.34-6.9c0-49.36 40.16-89.52 89.52-89.52a89.16 89.16 0 0 1 75.23 41.13 10.63 10.63 0 0 0 12.57 4.23 44.2 44.2 0 0 1 15.13-2.73 44.2 44.2 0 0 1 44.15 44.15c0 2.35-.23 4.87-.71 7.7a10.63 10.63 0 0 0 8.69 12.26 50.82 50.82 0 0 1 42.36 50.2 51.09 51.09 0 0 1-51.03 51.03z"/>
	<path fill="#58A1D4" d="M88.08 472.7a10.63 10.63 0 0 1-8.19-17.4l30.34-36.67a10.63 10.63 0 1 1 16.38 13.55l-30.34 36.67a10.6 10.6 0 0 1-8.2 3.85zM173.08 472.7a10.63 10.63 0 0 1-8.19-17.4l30.34-36.67a10.63 10.63 0 1 1 16.38 13.55l-30.33 36.67a10.6 10.6 0 0 1-8.2 3.85zM257.09 472.7a10.63 10.63 0 0 1-8.18-17.4l30.33-36.67a10.63 10.63 0 0 1 16.38 13.55l-30.34 36.67a10.6 10.6 0 0 1-8.2 3.85z"/>
</svg>
