<svg id="11n" xmlns="http://www.w3.org/2000/svg" viewBox="0 0 500 500">
	<defs>
		<linearGradient id="moon" gradientUnits="userSpaceOnUse" x1="0%" y1="0%" x2="0%" y2="100%">
			<stop stop-color="#FCE6B1" offset="0"/>
			<stop stop-color="#FFC843" offset="50%"/>
			<stop stop-color="#3f3a02" offset="80%"/>
		</linearGradient>
	</defs>
	<path fill="url(#moon)" d="M289.52 68.66c0-8.07.63-16.1 1.86-24.03-48.02 21.08-80.22 69.21-80.22 122.76 0 73.87 60.1 133.98 133.98 133.98 52.97 0 100.9-31.75 122.25-79.1a156.24 156.24 0 0 1-22.63 1.63c-85.6 0-155.24-69.64-155.24-155.24z"/>
	<path fill="#EAC618" d="M481.12 197.65c-11.78 3.31-24 5-36.35 5-73.88 0-133.98-60.11-133.98-133.99 0-12.74 1.8-25.37 5.33-37.53l5.35-18.39-18.43 5.19A156.3 156.3 0 0 0 222 72.86c-21 27.3-32.1 60-32.1 94.52 0 85.6 69.65 155.24 155.25 155.24 34.27 0 66.77-10.95 93.97-31.67a156.4 156.4 0 0 0 55.09-80.1l5.35-18.39-18.44 5.19zM345.15 301.37c-73.88 0-133.98-60.1-133.98-133.99 0-53.54 32.2-101.67 80.21-122.75a156.21 156.21 0 0 0-1.86 24.03c0 85.6 69.65 155.24 155.24 155.24 7.6 0 15.16-.55 22.63-1.64-21.35 47.36-69.27 79.1-122.24 79.1z"/>
	<path fill="#FCC013" d="M231.3 388.34h-31.13c-14.68 16.38-38.11 44.06-38.3 44.06h24.02l-44.6 66.06 82.76-76.15H202.6l28.7-33.97z"/>
	<path fill="#58A1D4" d="M66.3 470.46a13 13 0 0 1-10.02-21.3l37.13-44.87a13 13 0 1 1 20.04 16.58l-37.12 44.88a13 13 0 0 1-10.03 4.71zM273.14 470.46a13 13 0 0 1-10.01-21.3l37.13-44.87a13 13 0 1 1 20.05 16.58l-37.13 44.88a13 13 0 0 1-10.04 4.71z"/>
	<path fill="#CCC" d="M303.85 358.56H72.7c-28.12 0-51-22.9-51-51.03a50.9 50.9 0 0 1 38.58-49.4c5-1.25 8.38-5.97 8-11.13-.17-2.41-.34-4.7-.34-6.9 0-49.35 40.16-89.5 89.52-89.5a89.16 89.16 0 0 1 75.23 41.12 10.63 10.63 0 0 0 12.57 4.23 44.17 44.17 0 0 1 15.14-2.73 44.2 44.2 0 0 1 44.15 44.15c0 2.35-.23 4.87-.72 7.7a10.63 10.63 0 0 0 8.69 12.25 50.82 50.82 0 0 1 42.37 50.2 51.09 51.09 0 0 1-51.04 51.04z"/>
	<path fill="#808083" d="M325.79 238.72l.01-1.35a65.48 65.48 0 0 0-65.4-65.4c-4.83 0-9.65.55-14.42 1.64a110.24 110.24 0 0 0-88.52-44.28c-61.08 0-110.78 49.7-110.78 110.78v.07A72.1 72.1 0 0 0 .44 307.53c0 39.86 32.41 72.29 72.26 72.29h231.15c39.86 0 72.3-32.43 72.3-72.3a72.01 72.01 0 0 0-50.36-68.8zm-21.94 119.84H72.69c-28.11 0-51-22.9-51-51.03a50.9 50.9 0 0 1 38.58-49.4c5.01-1.25 8.39-5.97 8.01-11.12-.17-2.42-.34-4.7-.34-6.9 0-49.36 40.16-89.52 89.52-89.52a89.16 89.16 0 0 1 75.23 41.13 10.63 10.63 0 0 0 12.57 4.24 44.2 44.2 0 0 1 15.13-2.74 44.2 44.2 0 0 1 44.15 44.15c0 2.36-.23 4.87-.71 7.7a10.63 10.63 0 0 0 8.69 12.26 50.82 50.82 0 0 1 42.36 50.2 51.09 51.09 0 0 1-51.03 51.03z"/>
</svg>
