<svg id="13n" xmlns="http://www.w3.org/2000/svg" viewBox="0 0 500 500">
	<path fill="#8FCDF0" d="M97.1 445.73l-13.52-7.84 13.52-7.83a12.78 12.78 0 0 0 4.65-17.45 12.81 12.81 0 0 0-17.45-4.64l-13.41 7.77v-15.51c0-7.04-5.73-12.77-12.77-12.77a12.78 12.78 0 0 0-12.77 12.77v15.48l-13.4-7.77a12.74 12.74 0 0 0-17.45 4.64 12.78 12.78 0 0 0 4.64 17.45l13.52 7.83-13.52 7.83a12.78 12.78 0 0 0 6.4 23.82c2.24 0 4.45-.6 6.4-1.72L45.35 460v15.5c0 7.05 5.73 12.78 12.77 12.78s12.77-5.73 12.77-12.77v-15.49l13.4 7.77a12.72 12.72 0 0 0 6.39 1.73c4.54 0 8.78-2.44 11.05-6.36a12.68 12.68 0 0 0 1.3-9.69 12.67 12.67 0 0 0-5.93-7.75zM226.75 457.44l-13.52-7.84 13.52-7.83a12.78 12.78 0 0 0 4.65-17.44 12.81 12.81 0 0 0-17.45-4.65l-13.41 7.77v-15.5a12.78 12.78 0 0 0-25.54 0v15.48l-13.4-7.77a12.75 12.75 0 1 0-12.8 22.08l13.51 7.84-13.52 7.83a12.78 12.78 0 0 0 6.41 23.82c2.24 0 4.44-.6 6.39-1.73l13.41-7.77v15.5a12.78 12.78 0 0 0 25.53 0v-15.48l13.4 7.77a12.77 12.77 0 1 0 12.81-22.08zM356.4 445.73l-13.52-7.84 13.52-7.83a12.78 12.78 0 0 0-6.4-23.81c-2.24 0-4.44.6-6.4 1.72l-13.4 7.77v-15.51c0-7.04-5.73-12.77-12.77-12.77a12.78 12.78 0 0 0-12.77 12.77v15.48l-13.4-7.77a12.74 12.74 0 0 0-17.45 4.64 12.77 12.77 0 0 0 4.64 17.45l13.52 7.83-13.52 7.83a12.79 12.79 0 0 0 6.41 23.82c2.24 0 4.44-.6 6.39-1.72l13.41-7.78v15.5a12.78 12.78 0 0 0 25.53 0v-15.48l13.4 7.77a12.82 12.82 0 0 0 17.45-4.63 12.74 12.74 0 0 0-4.65-17.44z"/>
	<path fill="#FFEEB6" d="M289.52 55.92c0-8.07.63-16.1 1.86-24.04-48.02 21.08-80.22 69.22-80.22 122.76 0 73.88 60.1 133.98 133.98 133.98 52.98 0 100.9-31.75 122.25-79.1a156.11 156.11 0 0 1-22.63 1.64c-85.6 0-155.24-69.64-155.24-155.24z"/>
	<path fill="#EAC618" d="M481.12 184.9c-11.78 3.32-24 5-36.35 5-73.88 0-133.98-60.1-133.98-133.98 0-12.75 1.8-25.37 5.33-37.53L321.48 0l-18.44 5.19A156.29 156.29 0 0 0 222 60.1c-21 27.31-32.09 60-32.09 94.53 0 85.6 69.64 155.24 155.24 155.24 34.27 0 66.77-10.95 93.98-31.67a156.41 156.41 0 0 0 55.08-80.1l5.35-18.4-18.44 5.2zM345.15 288.63c-73.88 0-133.98-60.1-133.98-133.98 0-53.54 32.2-101.68 80.21-122.75a156.21 156.21 0 0 0-1.86 24.03c0 85.6 69.65 155.24 155.24 155.24 7.6 0 15.16-.55 22.63-1.64-21.35 47.35-69.27 79.1-122.24 79.1z"/>
	<path fill="#F2F2F2" d="M303.85 345.82H72.69c-28.12 0-51-22.9-51-51.03a50.9 50.9 0 0 1 38.58-49.4c5.01-1.25 8.39-5.98 8.01-11.13a95.1 95.1 0 0 1-.34-6.9c0-49.36 40.16-89.51 89.52-89.51a89.16 89.16 0 0 1 75.22 41.13 10.63 10.63 0 0 0 12.58 4.23 44.17 44.17 0 0 1 15.13-2.73 44.2 44.2 0 0 1 44.15 44.14c0 2.36-.23 4.88-.71 7.7a10.63 10.63 0 0 0 8.69 12.26 50.82 50.82 0 0 1 42.36 50.2 51.09 51.09 0 0 1-51.03 51.04z"/>
	<path fill="#808083" d="M325.79 225.97l.01-1.34a65.48 65.48 0 0 0-65.4-65.41c-4.83 0-9.66.55-14.42 1.65a110.25 110.25 0 0 0-88.52-44.28c-61.08 0-110.78 49.7-110.78 110.77v.08A72.1 72.1 0 0 0 .44 294.79c0 39.85 32.41 72.29 72.25 72.29h231.16c39.86 0 72.3-32.44 72.3-72.3a72.01 72.01 0 0 0-50.36-68.8zm-21.94 119.85H72.69c-28.12 0-51-22.9-51-51.03a50.9 50.9 0 0 1 38.58-49.4c5.01-1.25 8.39-5.97 8.01-11.13a95.2 95.2 0 0 1-.34-6.9c0-49.35 40.16-89.51 89.52-89.51a89.16 89.16 0 0 1 75.22 41.13 10.63 10.63 0 0 0 12.58 4.23 44.23 44.23 0 0 1 15.13-2.73 44.2 44.2 0 0 1 44.15 44.15c0 2.35-.23 4.87-.71 7.7a10.63 10.63 0 0 0 8.69 12.25 50.82 50.82 0 0 1 42.36 50.2 51.09 51.09 0 0 1-51.03 51.04z"/>
</svg>
