<svg id="50n" xmlns="http://www.w3.org/2000/svg" viewBox="0 0 500 500">
	<path fill="#808083" d="M382.5 186.04l.01-1.35a65.48 65.48 0 0 0-65.41-65.4c-4.83 0-9.65.55-14.42 1.65a110.24 110.24 0 0 0-88.52-44.28c-61.08 0-110.78 49.69-110.78 110.77v.07a72.1 72.1 0 0 0-46.24 67.35c0 39.86 32.42 72.3 72.26 72.3h231.16c39.86 0 72.29-32.44 72.29-72.3a72 72 0 0 0-50.36-68.81zm-21.94 119.84H129.4c-28.12 0-51-22.9-51-51.03a50.9 50.9 0 0 1 38.58-49.39c5-1.26 8.38-5.98 8-11.13-.17-2.42-.34-4.7-.34-6.9 0-49.36 40.16-89.52 89.52-89.52a89.16 89.16 0 0 1 75.23 41.13 10.63 10.63 0 0 0 12.57 4.24 44.2 44.2 0 0 1 15.14-2.74 44.2 44.2 0 0 1 44.15 44.15c0 2.36-.23 4.88-.71 7.7a10.63 10.63 0 0 0 8.68 12.26 50.82 50.82 0 0 1 42.37 50.2 51.09 51.09 0 0 1-51.03 51.03z"/>
	<path fill="#D6D6D8" d="M360.56 305.88H129.4c-28.12 0-51-22.89-51-51.03a50.9 50.9 0 0 1 38.58-49.39c5-1.26 8.38-5.99 8-11.14-.17-2.41-.34-4.7-.34-6.9 0-49.35 40.16-89.5 89.52-89.5a89.16 89.16 0 0 1 75.23 41.12 10.63 10.63 0 0 0 12.57 4.24 44.17 44.17 0 0 1 15.14-2.74 44.2 44.2 0 0 1 44.15 44.15c0 2.36-.23 4.87-.71 7.7a10.63 10.63 0 0 0 8.68 12.26 50.82 50.82 0 0 1 42.37 50.2 51.09 51.09 0 0 1-51.03 51.03z"/>
	<path fill="#A7A9AB" d="M367.8 423.35h-78.37a10.63 10.63 0 1 1 0-21.26h78.37a10.63 10.63 0 1 1 0 21.26zM172.35 162.91H62.3a10.63 10.63 0 0 1 0-21.26h110.03a10.63 10.63 0 0 1 0 21.26zM441.94 271.94H285.2a10.63 10.63 0 0 1 0-21.26h156.76a10.63 10.63 0 1 1 0 21.26zM214.81 423.35H58.06a10.63 10.63 0 0 1 0-21.26H214.8a10.63 10.63 0 1 1 0 21.26zM378.01 369H98.36a10.63 10.63 0 0 1 0-21.26H378a10.63 10.63 0 0 1 0 21.26zM423.42 179.76h-102.4a10.63 10.63 0 1 1 0-21.26h102.4a10.63 10.63 0 1 1 0 21.26z"/>
</svg>
