<svg xmlns="http://www.w3.org/2000/svg" xmlns:xlink="http://www.w3.org/1999/xlink" viewBox="0 0 794.2 958">
	<defs>
		<style>
			path {
				fill: url(#linear-gradient);
			}
		</style>
		<linearGradient id="linear-gradient" x1="54.331" y1="347.917" x2="763.678" y2="720.868" gradientUnits="userSpaceOnUse">
			<stop offset="0" stop-color="#f15f58"/>
			<stop offset="0.094" stop-color="#c55254"/>
			<stop offset="0.208" stop-color="#97444f"/>
			<stop offset="0.326" stop-color="#70384c"/>
			<stop offset="0.447" stop-color="#502e48"/>
			<stop offset="0.571" stop-color="#372746"/>
			<stop offset="0.701" stop-color="#252144"/>
			<stop offset="0.839" stop-color="#1a1e43"/>
			<stop offset="1" stop-color="#171d43"/>
		</linearGradient>
	</defs>
	<title>compass rose	rose-blue_18_2-08</title>
	<path transform="translate(-3.6 -4.56)" d="M37.7,631.46c-28.6-157,48-315.7,188.6-390.9l4.3,46a324.227,324.227,0,0,0-70.9,58.4l22.3,19.2-14.6,17-22.2-19.1a331.531,331.531,0,0,0-63.6,133l29,5.5-4.2,22-29-5.5a321.078,321.078,0,0,0-1.1,89.2Zm411.4-389-5.5,29,22,4.2,5.5-29.1a332.621,332.621,0,0,1,71.4,24.9,328.93,328.93,0,0,1,61.6,38.5l-19.3,22.3,17,14.6,19.4-22.5a320.206,320.206,0,0,1,58.4,71.1l46-4.1c-75.4-140.7-233.9-217.3-390.8-188.6l25.3,38.7A323.458,323.458,0,0,1,449.1,242.46ZM352,888.96l5.5-29.1-22-4.2-5.5,29.1a331.8,331.8,0,0,1-71.3-24.9,326.269,326.269,0,0,1-61.8-38.7l19.2-22.2-17-14.6-19.4,22.4a320.535,320.535,0,0,1-58.2-70.9l-46,4.1c75.2,140.6,233.9,217.2,390.9,188.6l-25.3-38.5A320.312,320.312,0,0,1,352,888.96Zm372.9-363.7a324.226,324.226,0,0,1-1,89.1l-29.2-5.5-4.2,22,29.2,5.5a331.1,331.1,0,0,1-63.6,133.1l-22.3-19.3-14.6,17,22.5,19.4a324.227,324.227,0,0,1-70.9,58.4l4.1,46c140.6-75.2,217.2-233.9,188.6-390.9ZM510.8,650.96l28.5,311.6L367.4,700.76l-88.6,117.3,36.7-142.4L3.6,704.16l261.9-171.8-117.3-88.6,142.4,36.7-28.5-311.9L434,430.46l88.6-117.3-36.7,142.4,311.9-28.5-261.9,172,117.3,88.6Zm-209.6-50.7a106.953,106.953,0,0,1-4-55.6L112.4,666.06Zm64.6-134a105.088,105.088,0,0,1,55.6-3.7L300,277.76Zm62.5,178.8c43.8-15.1,67-63.2,51.7-107.2a84.157,84.157,0,1,0-51.7,107.2Zm72.9,208.6-65.8-188.5a105.088,105.088,0,0,1-55.6,3.7Zm2.5-267.1,184.9-121.4-188.8,65.8A105.191,105.191,0,0,1,503.7,586.56Zm-89.3,18.8a42.094,42.094,0,1,0-53.6-25.9A42.14,42.14,0,0,0,414.4,605.36ZM228,134.96l-20.3-58.1,59.9,44.4,30.8-10.8L261.5,4.56l-30.8,10.8,20.4,58.6-60.3-44.6-30.6,10.6,37,105.8Z"/>
</svg>
