<svg xmlns="http://www.w3.org/2000/svg" viewBox="0 0 512 512" xml:space="preserve">
	<path style="fill:#FF7059;" d="M255.999,0C152.086,0,67.808,84.334,67.808,188.201c0,43.348,15.726,82.14,38.984,114.747 C255.999,512,255.999,512,255.999,512s0,0,149.225-209.07c23.25-32.599,38.968-71.467,38.968-114.729 C444.192,84.334,360.006,0,255.999,0z"/>
	<path style="fill:#F6F8FB;" d="M396.115,188.201c0,77.54-62.643,140.122-140.116,140.122c-77.373,0-140.134-62.582-140.134-140.122 c0-77.373,62.761-140.16,140.134-140.16C333.475,48.038,396.115,110.828,396.115,188.201z"/>
	<g>
		<polygon style="fill:#34495E;" points="255.999,76.096 236.146,188.209 255.999,300.329 275.834,188.209"/>
		<polygon style="fill:#34495E;" points="143.917,188.209 255.999,208.026 368.076,188.209 255.999,168.43"/>
		<polygon style="fill:#34495E;" points="199.945,132.096 246.086,198.07 312.055,244.262 265.911,178.304"/>
		<polygon style="fill:#34495E;" points="199.942,244.262 265.911,198.039 312.047,132.111 246.102,178.296"/>
	</g>
</svg>
