<svg id="pressure" xmlns="http://www.w3.org/2000/svg" version="1.1" viewBox="0 0 40 40" xml:space="preserve">
	<path style="fill:#B6DCFE;" d="M20,38.5C9.799,38.5,1.5,30.201,1.5,20S9.799,1.5,20,1.5S38.5,9.799,38.5,20S30.201,38.5,20,38.5z"/>
	<path style="fill:#4788C7;" d="M20,2c9.925,0,18,8.075,18,18s-8.075,18-18,18S2,29.925,2,20S10.075,2,20,2 M20,1    C9.507,1,1,9.507,1,20s8.507,19,19,19s19-8.507,19-19S30.493,1,20,1L20,1z"/>
	<circle style="fill:#FFFFFF;" cx="20" cy="20" r="15"/>
	<circle style="fill:#B6DCFE;" cx="20" cy="20" r="5.5"/>
	<path style="fill:#4788C7;" d="M20,15c2.757,0,5,2.243,5,5s-2.243,5-5,5s-5-2.243-5-5S17.243,15,20,15 M20,14    c-3.314,0-6,2.686-6,6s2.686,6,6,6s6-2.686,6-6S23.314,14,20,14L20,14z"/>
	<circle style="fill:#98CCFD;" cx="20" cy="7" r="1"/>
	<ellipse transform="matrix(0.7071 -0.7071 0.7071 0.7071 -4.5563 11)" style="fill:#98CCFD;" cx="11" cy="11" rx="1" ry="1"/>
	<circle style="fill:#98CCFD;" cx="33" cy="20" r="1"/>
	<circle style="fill:#98CCFD;" cx="7" cy="20" r="1"/>
	<circle style="fill:#4788C7;" cx="20" cy="20" r="2"/>
	<line style="fill:none;stroke:#4788C7;stroke-linecap:round;stroke-miterlimit:10;" x1="28.5" y1="11.5" x2="12.5" y2="27.5"/>
	<polygon style="fill:#DFF0FE;" points="11.5,28.5 11.5,25.738 16.103,23.897 14.262,28.5  "/>
	<path style="fill:#4788C7;" d="M15.205,24.795L13.923,28H12v-1.923L15.205,24.795 M17,23l-6,2.4V29h3.6L17,23L17,23z"/>
</svg>
