<svg id="temperatur" xmlns="http://www.w3.org/2000/svg" viewBox="0 0 40 40" xml:space="preserve">
	<path style="fill:#DFF0FE;" d="M17,22.214c-2.481,0-4.5-2.019-4.5-4.5V6c0-2.481,2.019-4.5,4.5-4.5s4.5,2.019,4.5,4.5v11.714   C21.5,20.196,19.481,22.214,17,22.214z"/>
	<path style="fill:#4788C7;" d="M17,2c2.206,0,4,1.794,4,4v11.714c0,2.206-1.794,4-4,4c-2.206,0-4-1.794-4-4V6    C13,3.794,14.794,2,17,2 M17,1c-2.75,0-5,2.25-5,5v11.714c0,2.75,2.25,5,5,5s5-2.25,5-5V6C22,3.25,19.75,1,17,1L17,1z"/>
	<path style="fill:#98CCFD;" d="M17,38.5c-4.136,0-7.5-3.364-7.5-7.5c0-2.283,1.025-4.415,2.813-5.85L12.5,25v-9.5h9V25l0.187,0.15   C23.475,26.585,24.5,28.717,24.5,31C24.5,35.136,21.136,38.5,17,38.5z"/>
	<path style="fill:#4788C7;" d="M21,16v8.76v0.48l0.374,0.3C23.043,26.879,24,28.869,24,31c0,3.86-3.14,7-7,7c-3.86,0-7-3.14-7-7    c0-2.131,0.957-4.121,2.626-5.46L13,25.24v-0.48V16H21 M22,15H12v9.76c-1.827,1.466-3,3.714-3,6.24c0,4.418,3.582,8,8,8    s8-3.582,8-8c0-2.525-1.173-4.773-3-6.24V15L22,15z"/>
	<path style="fill:#4788C7;" d="M25.5,24h5c0.276,0,0.5,0.224,0.5,0.5v0c0,0.276-0.224,0.5-0.5,0.5h-5c-0.276,0-0.5-0.224-0.5-0.5v0  C25,24.224,25.224,24,25.5,24z"/>
	<path style="fill:#4788C7;" d="M25.5,20h5c0.276,0,0.5,0.224,0.5,0.5v0c0,0.276-0.224,0.5-0.5,0.5h-5c-0.276,0-0.5-0.224-0.5-0.5v0  C25,20.224,25.224,20,25.5,20z"/>
	<path style="fill:#4788C7;" d="M25.5,16h5c0.276,0,0.5,0.224,0.5,0.5v0c0,0.276-0.224,0.5-0.5,0.5h-5c-0.276,0-0.5-0.224-0.5-0.5v0  C25,16.224,25.224,16,25.5,16z"/>
	<path style="fill:#4788C7;" d="M25.5,12h5c0.276,0,0.5,0.224,0.5,0.5v0c0,0.276-0.224,0.5-0.5,0.5h-5c-0.276,0-0.5-0.224-0.5-0.5v0  C25,12.224,25.224,12,25.5,12z"/>
	<path style="fill:#4788C7;" d="M25.5,8h5C30.776,8,31,8.224,31,8.5v0C31,8.776,30.776,9,30.5,9h-5C25.224,9,25,8.776,25,8.5v0  C25,8.224,25.224,8,25.5,8z"/>
	<path style="fill:#4788C7;" d="M25.5,4h5C30.776,4,31,4.224,31,4.5v0C31,4.776,30.776,5,30.5,5h-5C25.224,5,25,4.776,25,4.5v0  C25,4.224,25.224,4,25.5,4z"/>
</svg>
