<svg id="weatherDude" version="1.1" xmlns="http://www.w3.org/2000/svg" xmlns:xlink="http://www.w3.org/1999/xlink" viewBox="0 0 1102 728">
	<defs>
		<linearGradient id="dudeG" x1="50.0009803%" y1="99.9938656%" x2="50.0009803%" y2="-0.00844103098%">
			<stop stop-color="#808080" stop-opacity="0.25" offset="0%"/>
			<stop stop-color="#808080" stop-opacity="0.12" offset="54%"/>
			<stop stop-color="#808080" stop-opacity="0.1" offset="100%"/>
		</linearGradient>
	</defs>
	<g stroke="none" stroke-width="1" fill="none" fill-rule="evenodd">
		<path d="M709.17,86.44 C665.39,116.91 608.6,114.94 558.83,99.09 C509.06,83.24 463.35,55 414.83,34.93 C374.407011,18.1731304 331.843098,7.14003647 288.37,2.15 C226.57,-4.85 157.56,3.68 114.5,52.95 C66.55,107.82 70.23,206.77 122.09,257.14 C148.47,282.76 183.02,295.33 213.09,315.33 C243.16,335.33 271.09,368.55 268.54,407.16 C266.16,442.9 238.54,470.32 209.97,487.53 C187.89,500.83 160.68,515.35 158.02,542.9 C155.45,569.55 178.32,590.44 200.16,602.31 C271.41,641.06 359.16,640.69 430.16,601.31 C455.48,587.31 478.76,568.6 505.31,557.66 C575.04,528.93 651.87,557.85 725.7,568.42 C788.430823,577.355005 852.348408,572.731006 913.14,554.86 C949.71,544.12 986.41,527.71 1012.09,497.13 C1030.61,475.13 1042.15,447.18 1052.99,419.63 C1064.53667,390.243333 1075.64,360.65 1086.3,330.85 C1092.69,312.96 1098.99,294.73 1100.64,275.59 C1103.64,240.9 1091.02,206.59 1073.85,177.35 C1033.08,107.86 964.4,58.99 890.07,46.58 C815.74,34.17 736.98,58.41 679.3,111.46" fill="#2783A0" opacity="0.1"/>
		<ellipse fill="#2783A0" opacity="0.1" cx="176" cy="697.43" rx="176" ry="29.99"/>
		<rect fill="#2783A0" x="226.43" y="183.98" width="796.46" height="377.59" rx="30.34"/>
		<g opacity="0.2" transform="translate(232.000000, 252.000000)" fill="#FFFFFF">
			<path d="M157.67,240.93 L28.86,240.93 C21.4498513,240.93 14.3432029,237.98633 9.10343653,232.746563 C3.86367012,227.506797 0.92,220.400149 0.92,212.99 L0.92,28.58 C0.917346119,21.169038 3.860164,14.0608476 9.10050581,8.82050581 C14.3408476,3.580164 21.449038,0.637346119 28.86,0.64 L157.67,0.639998207 L157.67,240.93 Z" />
		</g>
		<g opacity="0.2" transform="translate(859.000000, 252.000000)" fill="#FFFFFF">
			<path d="M129.44,240.93 L0.64,240.93 L0.64,0.639998207 L129.44,0.64 C136.850962,0.637346119 143.959152,3.580164 149.199494,8.82050581 C154.439836,14.0608476 157.382654,21.169038 157.38,28.58 L157.38,212.99 C157.38,220.400149 154.43633,227.506797 149.196563,232.746563 C143.956797,237.98633 136.850149,240.93 129.44,240.93 Z" />
		</g>
		<g opacity="0.2" transform="translate(702.000000, 252.000000)" fill="#FFFFFF">
			<rect x="0.9" y="0.63" width="156.74" height="240.29"/>
		</g>
		<g opacity="0.2" transform="translate(546.000000, 252.000000)" fill="#FFFFFF">
			<rect x="0.16" y="0.63" width="156.74" height="240.29"/>
		</g>
		<g opacity="0.2" transform="translate(389.000000, 252.000000)" fill="#2783A0">
			<rect x="0.42" y="0.63" width="156.74" height="240.29"/>
		</g>
		<path d="M478.51,359.05 C477.256314,359.05 476.24,358.033686 476.24,356.78 L476.24,350.23 C476.24,349.419007 476.672659,348.669619 477.375,348.264122 C478.07734,347.858625 478.94266,347.858625 479.645,348.264122 C480.347341,348.669619 480.78,349.419007 480.78,350.23 L480.78,356.8 C480.769023,358.045869 479.755917,359.050048 478.51,359.05 Z" fill="#FFFFFF"/>
		<path d="M467.01,363.81 C466.410217,363.811029 465.834625,363.573597 465.41,363.15 L460.77,358.5 C460.140624,357.940625 459.872592,357.078824 460.073688,356.26116 C460.274784,355.443495 460.911965,354.804323 461.728998,354.600676 C462.546031,354.39703 463.408664,354.662373 463.97,355.29 L468.62,359.94 C469.266178,360.590317 469.457753,361.565484 469.105617,362.411923 C468.75348,363.258362 467.926765,363.8099 467.01,363.81 Z" fill="#FFFFFF"/>
		<path d="M494.66,391.45 C494.057186,391.451487 493.478315,391.214186 493.05,390.79 L488.41,386.14 C487.782373,385.578664 487.51703,384.716031 487.720676,383.898998 C487.924323,383.081965 488.563495,382.444784 489.38116,382.243688 C490.198824,382.042592 491.060625,382.310624 491.62,382.94 L496.26,387.58 C496.904912,388.229025 497.097135,389.201782 496.747557,390.047323 C496.397979,390.892864 495.574947,391.445878 494.66,391.45 Z" fill="#FFFFFF"/>
		<path d="M501.34,375.31 L494.77,375.31 C493.516314,375.31 492.5,374.293686 492.5,373.04 C492.5,371.786314 493.516314,370.77 494.77,370.77 L501.34,370.77 C502.593686,370.77 503.61,371.786314 503.61,373.04 C503.61,374.293686 502.593686,375.31 501.34,375.31 Z" fill="#FFFFFF"/>
		<path d="M490.01,363.81 C489.095053,363.805878 488.272021,363.252864 487.922443,362.407323 C487.572865,361.561782 487.765088,360.589025 488.41,359.94 L493.05,355.29 C493.620896,354.704248 494.462773,354.470923 495.253742,354.679238 C496.044712,354.887552 496.662448,355.505288 496.870762,356.296258 C497.079077,357.087227 496.845752,357.929104 496.26,358.5 L491.62,363.15 C491.190471,363.572348 490.612389,363.809325 490.01,363.81 Z" fill="#FFFFFF"/>
		<path d="M490.57,373.04 C490.584143,367.815801 487.216781,363.182729 482.243343,361.583553 C477.269905,359.984377 471.833317,361.786597 468.8,366.04 C464.454395,363.57798 459.241216,363.168114 454.564249,364.92077 C449.887281,366.673427 446.227355,370.408418 444.57,375.12 C443.269776,374.971635 441.953682,375.04945 440.68,375.35 C434.621627,376.79385 430.873692,382.867473 432.3,388.93 C433.499856,394.032123 438.058709,397.633617 443.3,397.62 L473.57,397.62 C474.580041,397.61754 475.586519,397.500118 476.57,397.27 C483.378392,395.650769 487.697514,388.949291 486.36,382.08 C489.008243,379.820043 490.544461,376.521371 490.57,373.04 Z M475.57,392.85 C474.915529,393.009744 474.243648,393.08701 473.57,393.08 L443.25,393.08 C439.839364,393.059906 436.9796,390.498704 436.585078,387.110904 C436.190556,383.723103 438.38525,380.573291 441.7,379.77 C442.211005,379.647117 442.734439,379.583365 443.26,379.58 C443.991667,379.579997 444.718242,379.701657 445.41,379.94 C446.02739,380.147204 446.703799,380.081745 447.27,379.76 C447.833467,379.436716 448.230572,378.886597 448.36,378.25 C449.409055,373.192858 453.496524,369.324022 458.603645,368.554273 C463.710767,367.784523 468.756976,370.276723 471.25,374.8 C471.27259,374.830028 471.289532,374.863912 471.3,374.9 C471.71394,375.651802 472.512021,376.110602 473.37,376.09 L473.62,376.09 C476.565064,376.072237 479.307427,377.587355 480.86,380.09 C481.319891,380.86696 481.65719,381.710207 481.86,382.59 C482.000529,383.203808 482.077601,383.830433 482.09,384.46 C482.144095,388.436592 479.436785,391.920385 475.57,392.85 Z M481.65,374.31 C479.630389,372.741119 477.198525,371.792692 474.65,371.58 C474.001115,370.57587 473.246837,369.643917 472.4,368.8 C473.922251,366.562408 476.535685,365.323146 479.231553,365.560552 C481.927421,365.797959 484.284046,367.474899 485.391802,369.944098 C486.499558,372.413297 486.185175,375.288531 484.57,377.46 C483.776894,376.25627 482.790261,375.191923 481.65,374.31 Z" fill="#FFFFFF" fill-rule="nonzero"/>
		<g opacity="0.5" transform="translate(591.000000, 352.000000)" fill="#FFFFFF" fill-rule="nonzero">
			<path d="M67.01,18.23 C65.7154049,12.7013862 60.9824135,8.65263397 55.32,8.23 C52.3288348,3.60599147 47.2689767,0.733059364 41.7654462,0.533872591 C36.2619156,0.334685817 31.0076106,2.83432211 27.69,7.23 C20.8273794,7.55438075 14.8470022,12.0080215 12.57,18.49 C8.41646333,18.0254956 4.34612525,19.8935679 1.99008648,23.3456271 C-0.365952297,26.7976863 -0.622187601,31.268893 1.32406137,34.9675071 C3.27031034,38.6661212 7.1005908,40.9869611 11.28,41 L41.57,41 C42.5800511,40.9977139 43.5865493,40.8802892 44.57,40.65 C48.1283542,39.8043518 51.1685262,37.5042694 52.95,34.31 L54.29,34.31 C55.3000408,34.3075404 56.3065193,34.1901179 57.29,33.96 C60.6669841,33.166624 63.5895894,31.0623382 65.4130859,28.1113506 C67.2365824,25.160363 67.8111361,21.6051515 67.01,18.23 Z M47.24,34.23 C46.2021936,35.1917296 44.940726,35.8791779 43.57,36.23 C42.9143875,36.3832715 42.2432902,36.4604477 41.57,36.46 L11.23,36.46 C7.80331054,36.4608032 4.91973887,33.8939304 4.52366012,30.4902085 C4.12758137,27.0864865 6.34468874,23.9260662 9.68,23.14 C10.667789,22.9189932 11.692211,22.9189932 12.68,23.14 C12.924184,23.1947635 13.1646632,23.2649032 13.4,23.35 C14.0235798,23.5683946 14.7110996,23.5068105 15.2859387,23.1810683 C15.8607779,22.8553261 16.2669094,22.2971745 16.4,21.65 C17.5997441,15.9315868 22.6371001,11.8324801 28.48,11.82 C29.0454809,11.8194541 29.6102697,11.8595575 30.17,11.94 C34.0654327,12.4778016 37.4713054,14.839999 39.34,18.3 C39.7418804,19.0586606 40.5420255,19.5208804 41.4,19.49 L41.57,19.49 C45.0944756,19.4984649 48.248115,21.6811168 49.4975536,24.9767053 C50.7469921,28.2722938 49.8330084,31.9970815 47.2,34.34 L47.24,34.23 Z M56.24,29.46 C55.6601556,29.600999 55.0666232,29.6781247 54.47,29.69 C54.6968835,28.0864872 54.618849,26.4545485 54.24,24.88 C52.9454049,19.3513862 48.2124135,15.302634 42.55,14.88 C40.3730467,11.5140492 37.069281,9.03268015 33.23,7.88 C36.0708537,5.51000508 39.8263806,4.54213118 43.4588677,5.24381758 C47.0913547,5.94550397 50.2162154,8.24246021 51.97,11.5 C52.3770483,12.2585311 53.1796738,12.7199439 54.04,12.69 L54.29,12.69 C58.6089143,12.671516 62.2551103,15.894777 62.7665669,20.1833403 C63.2780234,24.4719035 60.4921276,28.4622595 56.29,29.46 L56.24,29.46 Z"/>
		</g>
		<g opacity="0.5" transform="translate(910.000000, 349.000000)" fill="#FFFFFF">
			<path d="M38.57,42.69 L37.11,41.84 L38.57,41 C38.9272656,40.7981449 39.1497042,40.4210243 39.1535254,40.0106956 C39.1573466,39.600367 38.9419698,39.2191692 38.5885254,39.0106956 C38.235081,38.8022221 37.7972656,38.7981449 37.44,39 L35.97,39.85 L35.97,38.23 C36.0104939,37.799067 35.8034528,37.3823725 35.4355504,37.1543576 C35.0676479,36.9263426 34.6023521,36.9263426 34.2344496,37.1543576 C33.8665472,37.3823725 33.6595061,37.799067 33.7,38.23 L33.7,39.9 L32.25,39.06 C31.8927344,38.8581449 31.454919,38.8622221 31.1014746,39.0706956 C30.7480302,39.2791692 30.5326534,39.660367 30.5364746,40.0706956 C30.5402958,40.4810243 30.7627344,40.8581449 31.12,41.06 L32.57,41.89 L31.12,42.73 C30.8593287,42.8804697 30.6694579,43.1287156 30.5924902,43.419691 C30.5155225,43.7106663 30.5578188,44.0203242 30.71,44.28 C30.9158991,44.6366866 31.2981763,44.8545846 31.71,44.85 C31.908407,44.8534101 32.1033428,44.7977142 32.27,44.69 L33.72,43.86 L33.72,45.55 C33.7750376,46.1357059 34.2667139,46.5833464 34.855,46.5833464 C35.4432861,46.5833464 35.9349624,46.1357059 35.99,45.55 L35.99,43.86 L37.46,44.7 C37.6266572,44.8077142 37.821593,44.8634101 38.02,44.86 C38.4307397,44.8604427 38.8110894,44.6436434 39.02,44.29 C39.1825608,44.0204392 39.226426,43.6956586 39.1411996,43.3926314 C39.0559732,43.0896041 38.8492415,42.8353039 38.57,42.69 Z" />
			<path d="M31.74,33.23 L30.28,32.39 L31.74,31.54 C31.9999965,31.3914667 32.18969,31.1450084 32.2667258,30.8556543 C32.3437617,30.5663002 32.3017244,30.2581473 32.15,30 C32.0012136,29.7376322 31.7537111,29.5456356 31.46259,29.4667512 C31.1714689,29.3878667 30.8608928,29.4286421 30.6,29.58 L29.14,30.43 L29.14,28.75 C29.0849624,28.1642941 28.5932861,27.7166536 28.005,27.7166536 C27.4167139,27.7166536 26.9250376,28.1642941 26.87,28.75 L26.87,30.42 L25.42,29.59 C25.0627344,29.3881449 24.624919,29.3922221 24.2714746,29.6006956 C23.9180302,29.8091692 23.7026534,30.190367 23.7064746,30.6006956 C23.7102958,31.0110243 23.9327344,31.3881449 24.29,31.59 L25.74,32.43 L24.29,33.26 C23.8337018,33.5107793 23.6078247,34.0408801 23.7430153,34.543694 C23.8782058,35.0465079 24.3394641,35.3918601 24.86,35.38 C25.0565964,35.3800157 25.2497335,35.3282825 25.42,35.23 L26.87,34.39 L26.87,36.09 C26.9250376,36.6757059 27.4167139,37.1233464 28.005,37.1233464 C28.5932861,37.1233464 29.0849624,36.6757059 29.14,36.09 L29.14,34.39 L30.57,35.23 C30.7442526,35.3274112 30.9403705,35.3790212 31.14,35.38 C31.6510109,35.3744874 32.095915,35.0295775 32.228605,34.5360636 C32.3612951,34.0425498 32.1493454,33.5210329 31.71,33.26 L31.74,33.23 Z" />
			<path d="M24.93,42.69 L23.47,41.84 L24.93,41 C25.2872656,40.7981449 25.5097042,40.4210243 25.5135254,40.0106956 C25.5173466,39.600367 25.3019698,39.2191692 24.9485254,39.0106956 C24.595081,38.8022221 24.1572656,38.7981449 23.8,39 L22.33,39.85 L22.33,38.23 C22.3704939,37.799067 22.1634528,37.3823725 21.7955504,37.1543576 C21.4276479,36.9263426 20.9623521,36.9263426 20.5944496,37.1543576 C20.2265472,37.3823725 20.0195061,37.799067 20.06,38.23 L20.06,39.9 L18.62,39.06 C18.0677153,38.7451977 17.3648024,38.9377153 17.0500001,39.49 C16.7351978,40.0422848 16.9277153,40.7451977 17.48,41.06 L18.93,41.89 L17.48,42.73 C17.2193287,42.8804697 17.0294579,43.1287156 16.9524902,43.419691 C16.8755225,43.7106663 16.9178188,44.0203242 17.07,44.28 C17.2758991,44.6366866 17.6581763,44.8545846 18.07,44.85 C18.2710516,44.8497595 18.4681923,44.7944218 18.64,44.69 L20.08,43.86 L20.08,45.55 C20.1350376,46.1357059 20.6267139,46.5833464 21.215,46.5833464 C21.8032861,46.5833464 22.2949624,46.1357059 22.35,45.55 L22.35,43.86 L23.82,44.7 C23.9866572,44.8077142 24.181593,44.8634101 24.38,44.86 C24.8910109,44.8544874 25.335915,44.5095775 25.468605,44.0160636 C25.6012951,43.5225498 25.3893454,43.0010329 24.95,42.74 L24.93,42.69 Z" />
			<path d="M55.01,18.63 C53.7010818,13.1101145 48.9760091,9.06813623 43.32,8.63 C39.8259974,3.2316884 33.5683522,0.287451855 27.1817966,1.03693794 C20.7952409,1.78642402 15.3892602,6.09943049 13.24,12.16 C9.08646333,11.6954956 5.01612525,13.5635679 2.66008648,17.0156271 C0.304047703,20.4676863 0.0478123991,24.938893 1.99406137,28.6375071 C3.94031034,32.3361212 7.7705908,34.6569611 11.95,34.67 L15.57,34.67 C16.8236864,34.67 17.84,33.6536864 17.84,32.4 C17.84,31.1463136 16.8236864,30.13 15.57,30.13 L11.92,30.13 C8.78893135,30.1365968 6.06821253,27.9799294 5.36,24.93 C4.5142914,21.3095745 6.74643766,17.684569 10.36,16.81 C11.5918586,16.5215352 12.879586,16.580383 14.08,16.98 C14.7020276,17.2055627 15.3915117,17.1485006 15.9679949,16.8237484 C16.5444782,16.4989962 16.9505755,15.9388808 17.08,15.29 C18.1353455,10.215298 22.2495009,6.34099396 27.3783774,5.59200807 C32.5072539,4.84302218 37.5575252,7.37901636 40.02,11.94 C40.4254321,12.6952275 41.2232252,13.1560885 42.08,13.13 L42.34,13.13 C46.6589143,13.111516 50.3051103,16.334777 50.8165669,20.6233403 C51.3280234,24.9119035 48.5421276,28.9022595 44.34,29.9 C43.684418,30.0534474 43.0133004,30.130626 42.34,30.13 L40.45,30.13 C39.1963136,30.13 38.18,31.1463136 38.18,32.4 C38.18,33.6536864 39.1963136,34.67 40.45,34.67 L42.34,34.67 C46.3338162,34.6862452 50.1134531,32.8658013 52.5904967,29.7328974 C55.0675403,26.5999935 55.9670515,22.5023661 55.03,18.62 L55.01,18.63 Z" />
		</g>
		<g opacity="0.5" transform="translate(753.000000, 347.000000)" fill="#FFFFFF">
			<path d="M45.57,34.33 C44.5865493,34.5602892 43.5800511,34.6777139 42.57,34.68 L37.4,34.68 C36.1463136,34.68 35.13,33.6636864 35.13,32.41 C35.13,31.1563136 36.1463136,30.14 37.4,30.14 L42.57,30.14 C43.2432902,30.1404477 43.9143875,30.0632715 44.57,29.91 C48.7721276,28.9122595 51.5580234,24.9219035 51.0465669,20.6333403 C50.5351103,16.344777 46.8889143,13.121516 42.57,13.14 L42.31,13.14 C41.4520255,13.1708804 40.6518804,12.7086606 40.25,11.95 C37.7990085,7.35331017 32.7272695,4.7888275 27.5723516,5.53965249 C22.4174337,6.29047749 18.2879396,10.1951398 17.25,15.3 C17.1237068,15.9506821 16.7181366,16.513121 16.1406401,16.838444 C15.5631437,17.163767 14.8719456,17.2191743 14.25,16.99 C11.2743565,15.9906076 8.00225398,17.1710497 6.35,19.84 C5.06960608,21.922967 5.01377905,24.5349863 6.20400532,26.6707582 C7.39423159,28.8065301 9.64498201,30.1331363 12.09,30.14 L19.69,30.14 C20.9436864,30.14 21.96,31.1563136 21.96,32.41 C21.96,33.6636864 20.9436864,34.68 19.69,34.68 L12.09,34.68 C7.99841199,34.6773741 4.22845987,32.461243 2.23612457,28.8874915 C0.243789269,25.3137401 0.340918385,20.9417449 2.49,17.46 C4.79798655,13.7462175 9.03406968,11.6884691 13.38,12.17 C15.4954369,6.04612095 20.9311073,1.67478489 27.3662305,0.922350812 C33.8013537,0.16991673 40.0988583,3.169338 43.57,8.64 C50.0693987,9.00481188 55.296984,14.1205641 55.8022383,20.6105556 C56.3074926,27.1005471 51.9346299,32.9637067 45.57,34.33 Z" />
			<polygon points="29.21 34.09 32.41 34.09 25.56 50.63 27.2 38.71 24.15 38.71 26.56 25.5 32.79 25.5"/>
		</g>
		<g opacity="0.5" transform="translate(286.000000, 347.000000)" fill="#FFFFFF">
			<path d="M25.29,11.79 C24.0402206,11.7844943 23.0299879,10.7697915 23.03,9.52 L23.03,2.95 C22.9738141,2.10487296 23.392813,1.29875756 24.1167801,0.859134839 C24.8407473,0.419512116 25.7492527,0.419512116 26.4732199,0.859134839 C27.197187,1.29875756 27.6161859,2.10487296 27.56,2.95 L27.56,9.52 C27.56,10.7736864 26.5436864,11.79 25.29,11.79 Z" />
			<path d="M9.03,28.05 L2.46,28.05 C1.20631362,28.05 0.19,27.0336864 0.19,25.78 C0.19,24.5263136 1.20631362,23.51 2.46,23.51 L9.03,23.51 C10.2836864,23.51 11.3,24.5263136 11.3,25.78 C11.3,27.0336864 10.2836864,28.05 9.03,28.05 Z" />
			<path d="M25.29,50.88 C24.0402206,50.8744943 23.0299879,49.8597915 23.03,48.61 L23.03,42.04 C23.1092867,40.8473991 24.0997664,39.9205822 25.295,39.9205822 C26.4902336,39.9205822 27.4807133,40.8473991 27.56,42.04 L27.56,48.61 C27.56,49.8636864 26.5436864,50.88 25.29,50.88 Z" />
			<path d="M48.12,28.05 L41.57,28.05 C40.3163136,28.05 39.3,27.0336864 39.3,25.78 C39.3,24.5263136 40.3163136,23.51 41.57,23.51 L48.13,23.51 C49.3836864,23.51 50.4,24.5263136 50.4,25.78 C50.4,27.0336864 49.3836864,28.05 48.13,28.05 L48.12,28.05 Z" />
			<path d="M25.29,37.79 C18.662583,37.79 13.29,32.417417 13.29,25.79 C13.29,19.162583 18.662583,13.79 25.29,13.79 C31.917417,13.79 37.29,19.162583 37.29,25.79 C37.29,32.417417 31.917417,37.79 25.29,37.79 Z M25.29,18.31 C21.1657392,18.3155211 17.8263235,21.6623949 17.830003,25.7866577 C17.8336825,29.9109206 21.1790648,33.2518305 25.3033289,33.2499926 C29.427593,33.2481547 32.7699963,29.9042645 32.77,25.78 C32.7644824,21.6528159 29.4171878,18.3099963 25.29,18.31 Z" fill-rule="nonzero"/>
			<path d="M13.8,16.55 C13.196756,16.5536935 12.6170721,16.3160591 12.19,15.89 L9.87,13.57 C9.00290511,12.6803404 9.01203341,11.2589329 9.89048313,10.3804831 C10.7689329,9.50203341 12.1903404,9.49290511 13.08,10.36 L15.4,12.68 C16.0449123,13.3290245 16.2371345,14.3017819 15.8875567,15.1473232 C15.5379789,15.9928645 14.7149468,16.5458784 13.8,16.55 Z" />
			<path d="M11.47,41.87 C10.5550532,41.8658784 9.73202107,41.3128645 9.38244328,40.4673232 C9.03286549,39.6217819 9.22508773,38.6490245 9.87,38 L12.19,35.68 C12.7608957,35.0942477 13.6027725,34.8609233 14.393742,35.0692376 C15.1847115,35.2775519 15.8024481,35.8952885 16.0107624,36.686258 C16.2190767,37.4772275 15.9857523,38.3191043 15.4,38.89 L13.08,41.23 C12.6472701,41.6450349 12.0695725,41.8746787 11.47,41.87 Z" />
			<path d="M39.12,41.87 C38.5171858,41.8714869 37.9383148,41.6341858 37.51,41.21 L35.19,38.89 C34.3229051,38.0003404 34.3320334,36.5789329 35.2104831,35.7004831 C36.0889329,34.8220334 37.5103404,34.8129051 38.4,35.68 L40.72,38 C41.3649123,38.6490245 41.5571345,39.6217819 41.2075567,40.4673232 C40.8579789,41.3128645 40.0349468,41.8658784 39.12,41.87 Z" />
			<path d="M36.79,16.55 C35.8750532,16.5458784 35.0520211,15.9928645 34.7024433,15.1473232 C34.3528655,14.3017819 34.5450877,13.3290245 35.19,12.68 L37.51,10.36 C38.3996596,9.49290511 39.8210671,9.50203341 40.6995169,10.3804831 C41.5779666,11.2589329 41.5870949,12.6803404 40.72,13.57 L38.4,15.89 C37.9716852,16.3141858 37.3928142,16.5514869 36.79,16.55 Z" />
		</g>
		<rect fill="#F6F7F9" x="265.53" y="263.1" width="91.54" height="28" rx="14"/>
		<rect fill="#F6F7F9" x="422.14" y="263.1" width="91.54" height="28" rx="14"/>
		<rect fill="#F6F7F9" x="578.76" y="263.1" width="91.54" height="28" rx="14"/>
		<rect fill="#F6F7F9" x="735.38" y="263.1" width="91.54" height="28" rx="14"/>
		<rect fill="#F6F7F9" x="892" y="263.1" width="91.54" height="28" rx="14"/>
		<path d="M422.14,368.82 C422.14,368.82 392.3,338.87 382.96,338.44 C377.59,338.2 371.39,335.51 367.09,333.28 L365.99,332.7 C366.99,331.39 366.46,330.7 365.94,330.33 C365.768438,330.220354 365.58362,330.132986 365.39,330.07 L294.25,273.87 C294.92,272.8 291.14,260.87 291.14,260.87 L287.36,248.44 L279.36,238.09 C279.36,238.09 281.59,230.85 279.36,227.23 C277.13,223.61 277.59,215.09 276.03,194.44 C274.47,173.79 266.03,172.51 266.03,172.51 C266.03,172.51 233.33,150.81 229.57,151.45 C226.05,152.04 221.35,145.23 220.73,144.31 L220.66,144.21 C220.66,144.21 220.66,144.3 220.6,144.45 C220.653333,143.67 220.673333,142.88 220.66,142.08 C220.66,141.79 220.66,141.51 220.66,141.22 C221.276051,137.796946 222.251448,134.448421 223.57,131.23 C223.85,130.54 224.13,129.89 224.41,129.29 C237.590953,125.636022 247.919061,115.383689 251.67,102.23 C251.73,102 251.78,101.77 251.84,101.54 C253.45,101.74 255.08,101.83 256.66,101.89 L256.96,101.89 C256.452448,100.806297 256.092571,99.6594013 255.89,98.48 L255.57,98.48 C255.472119,97.8942216 255.408677,97.303207 255.38,96.71 C255.5,97.1 255.63,97.49 255.78,97.88 C255.43912,94.2899886 255.995804,90.6715381 257.4,87.35 C259.23,82.7 262.04,78.47 264.05,73.89 C265.557186,70.8257882 266.269044,67.4315671 266.12,64.02 C266.006561,62.7927247 265.699422,61.5911672 265.21,60.46 C265.205726,60.5132477 265.205726,60.5667523 265.21,60.62 C265.21,60.87 265.21,61.12 265.21,61.38 C264.477976,58.9536307 262.807733,56.9198221 260.57,55.73 C258.77,54.85 256.66,54.63 254.99,53.52 C250.06,50.26 250.34,44.98 243.77,43.28 C238.49,41.91 232.9,41.93 227.57,40.5 C216.07,37.44 206.35,39.35 195.23,43.29 C186.91,46.62 178.79,50.89 172.51,57.22 C166.23,63.55 161.95,72.22 162.51,81.04 C162.588555,83.834337 163.384002,86.5615838 164.82,88.96 C166.15,91.04 168.15,92.77 168.82,95.13 C169.62,97.85 168.51,100.73 168.5,103.57 C168.5,106.15 170.31,109.17 172.74,109.13 C173.07603,109.158166 173.414399,109.127713 173.74,109.04 C174.596037,108.755339 175.352567,108.231321 175.92,107.53 C176.07,107.87 176.22,108.21 176.38,108.53 C176.76,109.34 177.18,110.14 177.63,110.91 C177.56,111.34 177.48,111.77 177.38,112.18 C176.451182,115.372401 174.711356,118.269813 172.33,120.59 C171.728443,120.632191 171.145637,120.817318 170.63,121.13 L170.14,121.37 L153.92,129.55 L152.14,129.55 C146.9,129.48 131.79,129.36 129.47,130.29 C126.65,131.44 99.38,133.63 99.38,133.63 C99.38,133.63 84.85,134.48 85.6,155.63 C85.6,155.63 80.11,173.56 78.48,176.54 C76.85,179.52 67.22,208.61 67.22,208.61 L55.99,264.23 L54.65,325.82 C54.65,325.82 54.65,332.82 54.43,341.13 C53.94,354.95 53.25,366.41 52.29,368.4 L53.29,368.8 C53.2460596,368.956441 53.1926273,369.110059 53.13,369.26 L54.01,369.06 L60.24,371.38 C60.24,371.38 44.87,388.83 55.99,393.23 C61.48,395.4 74.49,401.69 86.26,407.5 C83.9410802,420.389736 84.9987271,433.660276 89.33,446.02 C90.8345176,453.209405 91.0882337,460.604384 90.08,467.88 C88.31,478.95 90.23,515.57 90.23,515.57 L90.08,579.73 C90.08,579.73 92.45,620.89 94.53,629.73 C96.61,638.57 90.08,642.23 90.08,642.23 C90.08,642.23 94.35,666.42 99.53,669.63 C99.43,670.1 99.31,670.63 99.18,671.1 C98.1746574,675.054292 96.8674901,678.925647 95.27,682.68 C91.71,691.05 93.94,697.01 93.94,697.01 C93.94,697.01 94.23,708.8 115.57,711.21 C136.91,713.62 136.03,698.71 134.25,693.04 C133.16,689.57 133.95,678.79 134.74,670.93 C134.8,670.3 134.86,669.69 134.92,669.11 C136.23,668.27 137.92,666.48 139.92,662.66 C144.06,654.43 139.92,634.56 136.92,628.03 C133.92,621.5 136.62,614.4 136.62,614.4 C136.62,614.4 133.36,577.78 136.62,574.67 C139.88,571.56 139.29,557.67 139.29,557.67 L144.63,528.99 L150.85,516.79 L152.63,490.1 L157.63,466.54 C157.63,466.54 159.7,464.54 161.48,445.82 C163.26,427.1 165.63,433.04 165.63,433.04 C164.75,445.53 171.56,451.78 171.56,451.78 L173.42,484.43 C173.42,484.43 175.71,508.83 179.5,514.8 C183.29,520.77 179.5,528.14 179.5,528.14 C179.5,528.14 180.75,551.41 179.65,558.23 C178.55,565.05 184.01,580.66 184.01,580.66 L185.49,608.76 C185.49,608.76 176.6,634.02 180.75,642.26 C184.9,650.5 182.83,660.14 182.83,660.14 C183.01592,660.692736 183.315707,661.20033 183.71,661.63 C183.6,662.06 183.49,662.5 183.39,662.96 C182.780406,665.96553 182.346338,669.004005 182.09,672.06 C182.09,672.06 184.31,675.06 194.24,678.73 C204.17,682.4 201.95,688.67 203.43,692.65 C204.91,696.63 214.99,700.16 234.85,699.31 C254.71,698.46 242.11,684.13 242.11,684.13 C242.11,684.13 231.74,669.51 228.18,667.52 C226.95,666.83 225.66,664.58 224.48,661.89 C224.26,661.39 224.05,660.89 223.84,660.35 L224.67,660.14 C224.67,660.14 229.96,618.14 226.11,614.14 C222.26,610.14 227.38,582.91 227.38,582.91 C227.38,582.91 229.96,573.84 228.78,571.28 C227.6,568.72 229.96,558.79 229.96,558.79 C229.96,558.79 231.74,531.79 228.47,525.58 C225.2,519.37 230.25,482.99 230.25,482.99 C230.25,482.99 232.33,448.93 237.57,436.73 C238.57,434.49 239.13,429.73 239.49,423.53 C242.39,422.12 244.19,421.04 244.19,421.04 C244.19,421.04 250.19,340.14 246.63,330.13 C244.46897,323.723026 243.433676,316.990236 243.57,310.23 L250.46,285.75 C250.46,285.75 254.91,297.88 257.8,299.37 C260.69,300.86 264.25,306.83 264.25,306.83 L294.7,331.1 L318.27,348.34 L339.17,365.59 C339.631601,361.584261 340.915043,357.716914 342.94,354.23 L343.68,354.5 C347.54,355.89 352.44,357.61 351.24,356.91 C350.58,356.52 350.93,354.33 351.96,351.46 L352.85,352.32 C357.223011,356.351689 361.802516,360.153479 366.57,363.71 C388.68,380.59 400.29,361.71 400.29,361.71 C400.29,361.71 411.41,371.35 416.89,373.48 C422.37,375.61 422.14,368.82 422.14,368.82 Z" fill="url(#dudeG)"/>
		<path d="M184.86,670.23 C184.86,670.23 186.98,673.23 196.41,676.85 C205.84,680.47 203.73,686.71 205.14,690.66 C206.55,694.61 216.14,698.12 235,697.27 C253.86,696.42 241.9,682.21 241.9,682.21 C241.9,682.21 232.04,667.7 228.66,665.73 C227.49,665.05 226.27,662.81 225.14,660.15 C223.644052,656.357837 222.371867,652.481177 221.33,648.54 C221.33,648.54 190.21,652.77 187.96,655.87 C187.022039,657.51834 186.394959,659.325008 186.11,661.2 C185.526436,664.18453 185.109126,667.199175 184.86,670.23 Z" fill="#B07473"/>
		<path d="M101.07,695.05 C101.07,695.05 101.35,706.74 121.63,709.13 C141.91,711.52 141.06,696.74 139.37,691.13 C138.37,687.69 139.09,676.99 139.84,669.19 C140.31,664.19 140.78,660.42 140.78,660.42 C140.78,660.42 106.7,661.13 106.98,662.96 C106.974722,665.126616 106.661592,667.281489 106.05,669.36 C105.099023,673.276433 103.858957,677.116962 102.34,680.85 C98.96,689.13 101.07,695.05 101.07,695.05 Z" fill="#B07473"/>
		<path d="M341.57,346.43 C342.15,347.63 343.57,349.67 347.04,353.07 C351.190384,357.064347 355.546302,360.839476 360.09,364.38 C381.09,381.13 392.09,362.38 392.09,362.38 C392.09,362.38 402.65,371.96 407.87,374.07 C413.09,376.18 412.87,369.42 412.87,369.42 C412.87,369.42 384.57,339.74 375.69,339.31 C370.58,339.07 364.69,336.41 360.61,334.19 C357.61,332.55 355.55,331.19 355.55,331.19 L347.93,338.54 L341.29,344.94 C341.29,344.94 341.02,345.23 341.57,346.43 Z" fill="#EFB7B9"/>
		<path d="M187.96,655.9 C187.022039,657.54834 186.394959,659.355008 186.11,661.23 C191.35,668.86 222.52,660.86 225.11,660.23 C223.614052,656.437837 222.341867,652.561177 221.3,648.62 C221.3,648.62 190.21,652.8 187.96,655.9 Z" fill="#000000" opacity="0.1"/>
		<path d="M106.05,669.34 C106.247625,669.507476 106.466109,669.64865 106.7,669.76 C111.77,672.06 137.7,669.7 137.7,669.7 C138.462816,669.845888 139.251349,669.652405 139.86,669.17 C140.33,664.17 140.8,660.4 140.8,660.4 C140.8,660.4 106.72,661.11 107,662.94 C106.988228,665.107574 106.668361,667.262467 106.05,669.34 Z" fill="#000000" opacity="0.1"/>
		<path d="M96.69,446.07 C98.1240649,453.207497 98.3673501,460.533083 97.41,467.75 C95.72,478.75 97.55,515.07 97.55,515.07 L97.41,578.73 C97.41,578.73 99.66,619.57 101.63,628.29 C103.6,637.01 97.41,640.69 97.41,640.69 C97.41,640.69 101.63,665.76 106.7,668.07 C111.77,670.38 137.7,668.01 137.7,668.01 C137.7,668.01 140.8,669.14 144.7,661.01 C148.6,652.88 144.7,633.13 141.88,626.64 C139.06,620.15 141.6,613.12 141.6,613.12 C141.6,613.12 138.5,576.79 141.6,573.7 C144.7,570.61 144.13,556.8 144.13,556.8 L149.2,528.35 L155.15,516.23 L156.84,489.75 L161.63,466.38 C161.63,466.38 163.63,464.38 165.29,445.81 C166.95,427.24 169.23,433.14 169.23,433.14 C168.39,445.53 174.86,451.72 174.86,451.72 L176.63,484.12 C176.63,484.12 178.81,508.34 182.41,514.25 C186.01,520.16 182.41,527.49 182.41,527.49 C182.41,527.49 183.6,550.59 182.55,557.35 C181.5,564.11 186.69,579.6 186.69,579.6 L188.1,607.49 C188.1,607.49 179.65,632.55 183.6,640.72 C187.55,648.89 185.6,658.46 185.6,658.46 C188.7,668.33 225.35,658.46 225.35,658.46 C225.35,658.46 230.35,616.78 226.72,612.84 C223.09,608.9 227.93,581.84 227.93,581.84 C227.93,581.84 230.38,572.84 229.26,570.3 C228.14,567.76 230.38,557.9 230.38,557.9 C230.38,557.9 232.07,531.14 228.97,524.95 C225.87,518.76 230.66,482.7 230.66,482.7 C230.66,482.7 232.66,448.9 237.61,436.79 C238.53,434.57 239.1,429.86 239.44,423.65 C240.93,396.04 237.61,338.78 237.61,338.78 L223.83,319.9 L209.45,319.14 L195.57,318.38 L169.51,317 L143.77,315.63 L112.33,313.96 C112.33,313.96 105.86,371.96 96.69,397.06 C95.4186414,400.558294 94.445178,404.157767 93.78,407.82 C91.569772,420.614358 92.5696634,433.757261 96.69,446.07 Z" fill="#444053"/>
		<path d="M173.31,125.23 L184.51,152.69 L208.8,156.69 C208.8,156.69 221.69,161.13 221.05,150.14 C220.72,144.32 222.52,138.14 224.28,133.62 C225.168931,131.317779 226.207825,129.076306 227.39,126.91 C227.39,126.91 177.54,98.81 180.29,108.32 C180.887113,110.406413 180.92848,112.612669 180.41,114.72 C178.92,120.98 173.31,125.23 173.31,125.23 Z" fill="#EFB7B9"/>
		<polygon fill="#B07473" points="202.47 325.23 147.83 325.23 150.64 344.38 203.59 344.38"/>
		<polygon fill="#000000" opacity="0.1" points="202.47 325.23 147.83 325.23 150.64 344.38 203.59 344.38"/>
		<path d="M341.57,346.43 C342.15,347.63 343.57,349.67 347.04,353.07 C348.89,347.64 353.04,339.74 357.24,337.07 C358.529022,336.355937 359.661432,335.390158 360.57,334.23 C357.57,332.59 355.51,331.23 355.51,331.23 L347.89,338.58 L341.57,346.43 Z" fill="#000000" opacity="0.1"/>
		<path d="M334.28,353.68 C334.28,353.68 336.14,354.4 338.36,355.23 C342.03,356.62 346.69,358.33 345.54,357.62 C343.72,356.5 350.06,340.3 356.43,336.22 C361.17,333.22 360.28,331.78 359.51,331.22 C359.353486,331.111584 359.181566,331.02731 359,330.97 L353.86,329.13 L334.28,353.68 Z" fill="#E1E7EF"/>
		<path d="M180.29,108.36 C180.887113,110.446413 180.92848,112.652669 180.41,114.76 C188.789018,130.571224 207.033636,138.43134 224.28,133.66 C225.168931,131.357779 226.207825,129.116306 227.39,126.95 C227.39,126.95 177.57,98.85 180.29,108.36 Z" fill="#000000" opacity="0.1"/>
		<path d="M175.99,95.23 C175.985955,110.641831 185.26724,124.538175 199.505141,130.437895 C213.743043,136.337616 230.132957,133.078578 241.030767,122.180767 C251.928578,111.282957 255.187616,94.8930428 249.287895,80.6551412 C243.388175,66.4172397 229.491831,57.1359554 214.08,57.14 C203.959123,57.0783265 194.234908,61.0715608 187.078234,68.2282344 C179.921561,75.3849079 175.928326,85.1091232 175.99,95.23 Z" fill="#EFB7B9"/>
		<polygon fill="#E1E7EF" points="142.47 325.3 166.76 326.39 194.76 327.64 208.42 328.26 209.42 319.12 220.21 224.54 223.8 152.93 214.08 152.93 187.26 148.49 177.73 144.93 177.73 144.93 165.29 140.23 155.15 160.94 151.77 255.78 143.77 315.61"/>
		<path d="M175.64,220.32 C175.64,220.32 185.35,177.86 192.11,169.62 C192.11,169.62 189.58,155.04 183.98,153.14 C178.38,151.24 192.54,148.49 192.54,148.49 L201.2,151.49 L209.86,155.03 C209.86,155.03 202.25,161.79 203.52,170.66 C202.816496,174.630063 203.17882,178.715698 204.57,182.5 C206.89,188.42 207.31,236.37 204.57,242.71 C201.83,249.05 202.25,262.99 202.25,262.99 L196.57,290.23 L194.67,322.97 L174.16,338.23 L159.79,320.23 L175.64,220.32 Z" fill="#000000" opacity="0.1"/>
		<path d="M174.79,219.47 C174.79,219.47 184.51,177.01 191.27,168.77 C191.27,168.77 188.73,154.2 183.14,152.3 C177.55,150.4 191.69,147.65 191.69,147.65 L200.35,150.65 L209.01,154.19 C209.01,154.19 201.41,160.95 202.68,169.82 C201.965198,173.782564 202.310175,177.863651 203.68,181.65 C206.01,187.56 206.43,235.52 203.68,241.85 C200.93,248.18 201.36,262.13 201.36,262.13 L195.66,289.38 L193.75,322.12 L173.26,337.33 L158.9,319.38 L174.79,219.47 Z" fill="#B07473"/>
		<path d="M221.46,144.48 L200.35,151.48 C200.35,151.48 210.9,156.92 210.91,172.98 C210.91,173 221.65,159.89 221.46,144.48 Z" fill="#000000" opacity="0.1"/>
		<path d="M221.46,143.63 L200.35,150.63 C200.35,150.63 210.9,156.07 210.91,172.12 C210.91,172.15 221.65,159.05 221.46,143.63 Z" fill="#E1E7EF"/>
		<path d="M175.62,123.95 C175.62,123.95 185.99,141.84 200.35,151.5 C200.35,151.5 191.65,148.28 175.62,160.5 C175.62,160.53 165.67,124.76 175.62,123.95 Z" fill="#000000" opacity="0.1"/>
		<path d="M175.62,123.11 C175.62,123.11 185.99,140.99 200.35,150.66 C200.35,150.66 191.65,147.44 175.62,159.66 C175.62,159.69 165.67,123.92 175.62,123.11 Z" fill="#E1E7EF"/>
		<path d="M334.28,353.68 C334.28,353.68 336.14,354.4 338.36,355.23 C344.64,343.09 357.36,332.96 359.51,331.23 C359.353486,331.121584 359.181566,331.03731 359,330.98 L353.86,329.14 L334.28,353.68 Z" fill="#000000" opacity="0.1"/>
		<path d="M191.69,383.82 C192.33,397.97 200.14,424.17 200.14,424.17 C209.96,437.77 231.7,427.79 239.41,423.63 C240.9,396.02 237.58,338.76 237.58,338.76 L223.8,319.88 L209.42,319.12 L220.21,224.54 L223.8,152.93 L218.43,152.93 C216.69,160.21 213.95,172.51 214.43,175.53 C215.13,179.9 207.8,223.42 207.8,223.42 L198.74,278.86 L196.26,293.97 C197.08,296.5 196.47,307.25 195.54,318.38 C195.27,321.49 194.99,324.64 194.71,327.64 C193.71,337.91 192.71,346.5 192.71,346.5 C191.48,356.23 191.69,383.82 191.69,383.82 Z" fill="#000000" opacity="0.1"/>
		<path d="M193.38,382.97 C194.02,397.13 201.83,423.32 201.83,423.32 C213.83,440.01 243.83,421.21 243.83,421.21 C243.83,421.21 249.53,340.94 246.15,331.01 C244.085557,324.668494 243.08866,318.02815 243.2,311.36 L249.74,287.07 C249.74,287.07 253.97,299.07 256.74,300.59 C259.51,302.11 262.86,307.98 262.86,307.98 L291.8,332.06 L314.19,349.17 L334.05,366.28 C335.53,348.54 358.98,331.01 358.98,331.01 L291.4,275.23 C292.03,274.17 288.4,262.34 288.4,262.34 L284.81,250.01 L277.21,239.74 C277.21,239.74 279.32,232.56 277.21,228.97 C275.1,225.38 275.52,216.97 274.04,196.44 C272.56,175.91 264.57,174.69 264.57,174.69 C264.57,174.69 233.57,153.14 229.93,153.77 C226.58,154.37 222.11,147.61 221.52,146.69 L221.46,146.59 C221.46,146.59 215.46,170.32 216.13,174.69 C216.8,179.06 209.5,222.57 209.5,222.57 L200.44,278.01 L197.96,293.13 C199.8,298.79 194.44,345.65 194.44,345.65 C193.17,355.37 193.38,382.97 193.38,382.97 Z" fill="#67647E"/>
		<path d="M93.78,407.82 C105.89,414.06 117.12,420.01 117.12,420.01 C117.12,420.01 135.86,426.21 143.46,391.01 L165.29,331.16 C165.29,331.16 165.86,329.38 166.76,326.4 C167.5,323.97 168.46,320.73 169.49,317.01 C173.78,301.76 179.49,278.47 177.4,269.33 L177.4,268.62 L176.97,186.81 C176.97,186.81 179.28,148.35 177.84,145.18 C177.809763,145.097207 177.77298,145.016953 177.73,144.94 L165.29,140.23 L155.15,160.94 L151.77,255.78 L143.77,315.61 L112.33,313.94 C112.33,313.94 105.86,371.94 96.69,397.04 C95.4175562,400.544784 94.4440807,404.150992 93.78,407.82 Z" fill="#000000" opacity="0.1"/>
		<path d="M65.01,393.68 C75.58,398.04 115.43,419.16 115.43,419.16 C115.43,419.16 134.17,425.37 141.77,390.16 L163.57,330.31 C163.57,330.31 178.92,282.56 175.68,268.48 L175.68,267.77 L175.25,185.95 C175.25,185.95 177.56,147.5 176.12,144.33 C174.77,141.33 173.12,132.42 173.83,124.84 C173.88,124.44 173.92,124.04 173.97,123.64 L173.49,123.9 L158.07,132.01 L156.38,132.01 C151.38,131.94 137.04,131.82 134.84,132.75 C132.16,133.88 106.25,136.06 106.25,136.06 C106.25,136.06 92.45,136.9 93.16,157.92 C93.16,157.92 87.94,175.71 86.4,178.66 C84.86,181.61 75.69,210.48 75.69,210.48 L64.98,265.7 L63.72,326.81 C63.72,326.81 63.58,365.81 61.47,369.06 L69.07,372.06 C69.07,372.06 54.45,389.31 65.01,393.68 Z" fill="#67647E"/>
		<path d="M102.48,359.03 L107.27,365.37 C107.27,365.37 136.56,418.46 103.89,410.72 C71.22,402.98 76,376.23 76,376.23 L78,357.64 L102.48,359.03 Z" fill="#EFB7B9"/>
		<path d="M143.74,645.62 C143.04,645.48 131.63,640.69 123.74,640.69 C115.85,640.69 105.29,639.84 106.56,641.96 C107.83,644.08 123.04,644.35 127.4,646.46 C131.76,648.57 141.06,654.35 141.91,654.63 C142.76,654.91 143.74,645.62 143.74,645.62 Z" fill="#000000" opacity="0.1"/>
		<path d="M222.32,621.68 C222.18,622.52 205.42,641.34 196.13,640.52 C186.84,639.7 222.32,621.68 222.32,621.68 Z" fill="#000000" opacity="0.1"/>
		<path d="M217.39,576.75 C217.39,576.75 199.39,622.52 193.59,624.92 C187.79,627.32 186.97,619.28 190.07,617.03 C193.17,614.78 202.75,599.99 217.39,576.75 Z" fill="#000000" opacity="0.1"/>
		<path d="M124.73,561.68 C124.73,561.68 121.73,578.58 129.23,589.57 C136.73,600.56 124.73,561.68 124.73,561.68 Z" fill="#000000" opacity="0.1"/>
		<path d="M172.05,408.46 C172.37,408.2 145.15,407.05 145.15,407.05 C145.15,407.05 157.4,420.43 172.05,408.46 Z" fill="#000000" opacity="0.1"/>
		<path d="M168.67,420.15 L152.19,421.7 C152.19,421.7 157.96,428.74 168.67,420.15 Z" fill="#000000" opacity="0.1"/>
		<path d="M266.12,244.54 C266.12,244.54 280.91,246.54 282.32,250.88 C283.73,255.22 266.12,244.54 266.12,244.54 Z" fill="#000000" opacity="0.1"/>
		<path d="M292.31,280.73 C291.19,280.31 282.03,277.63 275.56,279.32 C269.09,281.01 259.92,276.22 259.92,276.22 C259.92,276.22 250.63,275.94 252.46,277.22 C254.29,278.5 259.78,277.92 262.88,279.76 C265.98,281.6 274.13,283.14 276.18,282.29 C278.23,281.44 292.31,280.73 292.31,280.73 Z" fill="#000000" opacity="0.1"/>
		<path d="M200.44,278.01 L200.78,285.66 C200.78,285.66 226.69,222.01 233.16,208.34 C239.63,194.67 235.99,164.97 235.99,164.97 L232.32,164.12 L221.57,146.69 L221.51,146.59 C221.51,146.59 215.51,170.32 216.18,174.69 C216.85,179.06 209.55,222.57 209.55,222.57 L200.44,278.01 Z" fill="#67647E"/>
		<path d="M148.57,144.69 C148.57,144.69 159.22,254.23 175.71,267.77 L175.28,185.95 C175.28,185.95 177.59,147.5 176.15,144.33 C174.8,141.33 173.15,132.42 173.86,124.84 L173.52,123.9 L158.1,132.01 L156.41,132.01 L155.41,146.62 L148.57,144.69 Z" fill="#67647E"/>
		<path d="M200.44,278.01 L200.78,285.66 C200.78,285.66 226.69,222.01 233.16,208.34 C239.63,194.67 235.99,164.97 235.99,164.97 L232.32,164.12 L221.57,146.69 L221.51,146.59 C221.51,146.59 215.51,170.32 216.18,174.69 C216.85,179.06 209.55,222.57 209.55,222.57 L200.44,278.01 Z" fill="#000000" opacity="0.1"/>
		<path d="M148.57,144.69 C148.57,144.69 159.22,254.23 175.71,267.77 L175.28,185.95 C175.28,185.95 177.59,147.5 176.15,144.33 C174.8,141.33 173.15,132.42 173.86,124.84 L173.52,123.9 L158.1,132.01 L156.41,132.01 L155.41,146.62 L148.57,144.69 Z" fill="#000000" opacity="0.1"/>
		<circle fill="#444053" cx="203.6" cy="296.08" r="3.15"/>
		<circle fill="#444053" cx="200.44" cy="342.69" r="3.15"/>
		<path d="M175.99,95.23 C175.981862,100.715504 177.165846,106.137262 179.46,111.12 L179.96,110.52 C186.11,102.84 187.42,92.15 192.96,83.97 C194.96,81.05 197.53,78.41 200.83,77.33 C204.13,76.25 208.15,77.08 210.18,79.95 C211.46,81.77 211.84,84.15 213.18,85.95 C215.76,89.34 220.71,89.25 224.86,88.62 C229.01,87.99 233.73,87.28 236.93,90.05 C240.13,92.82 240.36,97.58 242.93,100.79 C244.93,103.24 247.85,104.36 250.98,104.89 C254.614364,90.6263982 249.70515,75.545366 238.370709,66.1544453 C227.036269,56.7635245 211.305465,54.7436894 197.96622,60.9665089 C184.626975,67.1893284 176.067013,80.5409183 175.98,95.26 L175.99,95.23 Z" fill="#000000" opacity="0.1"/>
		<path d="M197.38,46.4 C189.48,49.71 181.76,53.94 175.79,60.23 C169.82,66.52 165.79,75.09 166.24,83.86 C166.318917,86.6205802 167.07436,89.3195714 168.44,91.72 C169.7,93.78 171.6,95.5 172.27,97.84 C173.03,100.54 171.97,103.4 171.97,106.21 C171.97,109.02 174.04,112.37 176.68,111.63 C177.674491,111.256491 178.527524,110.581756 179.12,109.7 C185.26,102.03 186.57,91.33 192.06,83.16 C194.06,80.24 196.63,77.6 199.93,76.52 C203.23,75.44 207.26,76.26 209.29,79.14 C210.57,80.96 210.94,83.34 212.29,85.14 C214.86,88.53 219.82,88.44 223.96,87.81 C228.1,87.18 232.83,86.47 236.04,89.23 C239.25,91.99 239.47,96.76 242.04,99.97 C245.19,103.88 250.75,104.39 255.68,104.59 C253.68,100.1 254.38,94.76 256.12,90.15 C257.86,85.54 260.53,81.34 262.44,76.8 C263.886224,73.7420889 264.57235,70.3800691 264.44,67 C264.15,63.65 262.44,60.28 259.5,58.78 C257.79,57.9 255.78,57.68 254.19,56.58 C249.5,53.35 249.77,48.1 243.53,46.42 C238.53,45.06 233.2,45.08 228.14,43.67 C217.18,40.59 207.95,42.49 197.38,46.4 Z" fill="#585268"/>
		<path d="M86.28,363.54 C86.28,363.54 77.69,371.99 76.56,371.85 C75.43,371.71 73.75,364.24 73.75,364.24 L86.28,363.54 Z" fill="#000000" opacity="0.1"/>
		<path d="M85.44,362.69 C85.44,362.69 76.85,371.14 75.72,371 C74.59,370.86 72.9,363.4 72.9,363.4 L85.44,362.69 Z" fill="#E1E7EF"/>
		<path d="M62.34,369.88 C62.34,369.88 98.96,361.43 108.11,365.37 C108.11,365.37 104.73,344.67 105.29,340.87 C105.85,337.07 105.15,323.82 105.15,323.82 C105.15,323.82 103.04,299.18 105.86,292.28 C108.68,285.38 107.12,267.07 107.12,267.07 L65.44,286.92 C65.44,286.92 64.88,364.38 62.34,369.88 Z" fill="#000000" opacity="0.1"/>
		<path d="M61.5,369.03 C61.5,369.03 98.11,360.58 107.27,364.52 C107.27,364.52 103.89,343.82 104.45,340.02 C105.01,336.22 104.31,323.02 104.31,323.02 C104.31,323.02 102.2,298.37 105.01,291.47 C107.82,284.57 106.28,266.27 106.28,266.27 L64.57,286.08 C64.57,286.08 64.03,363.54 61.5,369.03 Z" fill="#67647E"/>
		<g opacity="0.1" transform="translate(166.000000, 63.000000)" fill="#000000">
			<path d="M88.87,37.56 C87.16,33.21 87.87,28.14 89.56,23.74 C91.3,19.12 93.97,14.93 95.88,10.39 C97.3262239,7.33208894 98.0123504,3.97006908 97.88,0.59 C97.8842735,0.536752274 97.8842735,0.483247726 97.88,0.43 C98.3473977,1.55919849 98.6407368,2.75278539 98.75,3.97 C98.8823504,7.35006908 98.1962239,10.7120889 96.75,13.77 C94.84,18.31 92.18,22.5 90.44,27.12 C89.0893322,30.4243787 88.550939,34.0045222 88.87,37.56 Z" />
			<path d="M10.11,45.23 C11.1058717,44.8542121 11.9614821,44.1802007 12.56,43.3 C18.7,35.63 20.01,24.93 25.5,16.76 C27.5,13.84 30.07,11.2 33.36,10.12 C36.65,9.04 40.69,9.86 42.72,12.74 C44.01,14.56 44.37,16.94 45.72,18.74 C48.3,22.13 53.25,22.04 57.4,21.41 C61.55,20.78 66.27,20.07 69.48,22.83 C72.69,25.59 72.91,30.36 75.48,33.57 C78.59,37.44 84.06,37.97 88.95,38.18 C89.1350101,39.3485624 89.4711607,40.4881128 89.95,41.57 C85.01,41.37 79.45,40.86 76.3,36.95 C73.72,33.74 73.39,28.89 70.3,26.21 C67.21,23.53 62.36,24.15 58.22,24.79 C54.08,25.43 49.12,25.51 46.55,22.12 C45.21,20.35 44.84,17.97 43.55,16.12 C41.55,13.24 37.48,12.42 34.19,13.5 C30.9,14.58 28.29,17.22 26.32,20.14 C20.83,28.31 19.52,39.01 13.38,46.68 C12.787524,47.5617556 11.9344907,48.2364909 10.94,48.61 C8.3,49.35 6.22,46 6.23,43.19 L6.23,43.06 C7.1,44.62 8.5,45.7 10.11,45.23 Z" />
			<path d="M1.87,25.34 C3.14,27.4 5.04,29.12 5.7,31.46 C5.88103519,32.111183 5.97188212,32.7841232 5.97002865,33.46 C5.11,31.78 3.72,30.36 2.72,28.74 C1.67381871,26.962717 0.993805735,24.9940794 0.72,22.95 C1.02683579,23.7812644 1.41189665,24.5815213 1.87,25.34 Z" />
		</g>
	</g>
</svg>
