<svg id="windspeed" xmlns="http://www.w3.org/2000/svg" version="1.1" viewBox="0 0 40 40" xml:space="preserve">
	<defs>
		<style>
			svg, symbol {
			 	--wh: #dff0fe;
			 	--bl: #000;
			 	--rd: #ff0000;
			 	--lB: #98ccfd;
			 	--dB: #4788c7;
			 	--lG: #a5a5a5;
			 	--dG: #808083;
			 	--lY: #fce6b1;
			 	--dY: #ffc843;
			 	--bY: #3f3a02;
			 	--s1: #fff76b;
			 	--s2: #fff845;
			 	--s3: #ffda4e;
			 	--s4: #fb8933;
			 	--s5: #fdc830;
			 	--s6: #f37335;
				--bf0: #99ffcc;/*BF2*/
				--bf1: #99ff66;/*BF3*/
				--bf2: #ccff00;/*BF6*/
				--bf3: #ffcc00;/*BF8*/
				--bf4: #ff6600;/*BF10*/
				--bf5: var(--rd);/*BF12*/
				/*--bfs: #065381;*/
				--bfs: var(--lB)
			}
		</style>
	</defs>
	<circle fill="var(--wh)" cx="7.5" cy="8.5" r="6"/>
	<path fill="var(--dB)" d="M7.5,3C10.533,3,13,5.467,13,8.5S10.533,14,7.5,14C4.467,14,2,11.533,2,8.5S4.467,3,7.5,3 M7.5,2    C3.91,2,1,4.91,1,8.5S3.91,15,7.5,15c3.59,0,6.5-2.91,6.5-6.5S11.09,2,7.5,2L7.5,2z"/>
	<rect fill="var(--dB)" width="22" height="1" x="8" y="8"/>
	<rect fill="var(--dB)" width="1" height="9" x="19" y="12"/>
	<path fill="var(--lB)" d="M7,37.5c-1.378,0-2.5-1.122-2.5-2.5V21c0-1.378,1.122-2.5,2.5-2.5h25c1.378,0,2.5,1.122,2.5,2.5v14   c0,1.378-1.122,2.5-2.5,2.5H7z"/>
	<path fill="var(--dB)" d="M32,19c1.103,0,2,0.897,2,2v14c0,1.103-0.897,2-2,2H7c-1.103,0-2-0.897-2-2V21c0-1.103,0.897-2,2-2    H32 M32,18H7c-1.65,0-3,1.35-3,3v14c0,1.65,1.35,3,3,3h25c1.65,0,3-1.35,3-3V21C35,19.35,33.65,18,32,18L32,18z"/>
	<rect fill="var(--wh)" width="20" height="9" x="9.5" y="23.5"/>
	<path fill="var(--dB)" d="M29,24v8H10v-8H29 M30,23H9v10h21V23L30,23z"/>
	<path fill="var(--dB)" d="M14.5,27L14.5,27c-0.276,0-0.5-0.224-0.5-0.5v-3c0-0.276,0.224-0.5,0.5-0.5h0   c0.276,0,0.5,0.224,0.5,0.5v3C15,26.776,14.776,27,14.5,27z"/>
	<path fill="var(--dB)" d="M19.5,27L19.5,27c-0.276,0-0.5-0.224-0.5-0.5v-3c0-0.276,0.224-0.5,0.5-0.5h0   c0.276,0,0.5,0.224,0.5,0.5v3C20,26.776,19.776,27,19.5,27z"/>
	<path fill="var(--dB)" d="M24.5,27L24.5,27c-0.276,0-0.5-0.224-0.5-0.5v-3c0-0.276,0.224-0.5,0.5-0.5h0   c0.276,0,0.5,0.224,0.5,0.5v3C25,26.776,24.776,27,24.5,27z"/>
	<polygon fill="var(--dB)" points="21.5,27 23,32 20,32 "/>
	<circle fill="var(--wh)" cx="31.5" cy="8.5" r="6"/>
	<path fill="var(--dB)" d="M31.5,3C34.533,3,37,5.467,37,8.5S34.533,14,31.5,14S26,11.533,26,8.5S28.467,3,31.5,3 M31.5,2    C27.91,2,25,4.91,25,8.5s2.91,6.5,6.5,6.5S38,12.09,38,8.5S35.09,2,31.5,2L31.5,2z"/>
	<circle fill="var(--lB)" cx="31.5" cy="8.5" r="3.5"/>
	<path fill="var(--wh)" d="M16.5,2.5c3.309,0,6,2.691,6,6s-2.691,6-6,6V2.5z"/>
	<path fill="var(--dB)" d="M17,3.023c2.799,0.253,5,2.613,5,5.477s-2.201,5.224-5,5.477V3.023 M16.5,2H16v0.025v12.949V15h0.5    c3.59,0,6.5-2.91,6.5-6.5S20.09,2,16.5,2L16.5,2z"/>
	<path fill="var(--dB)" d="M9.5,9h-2C7.225,9,7,8.775,7,8.5v0C7,8.225,7.225,8,7.5,8h2C9.775,8,10,8.225,10,8.5v0  C10,8.775,9.775,9,9.5,9z"/>
</svg>
