<svg id="Layer_1" data-name="Layer 1" xmlns="http://www.w3.org/2000/svg" viewBox="0 0 40 40"><defs><style>.cls-1{fill:none;}.cls-2{fill:#aaa;}</style></defs><title>weather-icons-40x40-Artboard 2</title><rect class="cls-1" width="40" height="40"/><path class="cls-2" d="M29,26.34a8.06,8.06,0,0,0-.66-.59V5a5,5,0,0,0-10,0V25.76a8.1,8.1,0,0,0-.65.58,8,8,0,1,0,11.31,0ZM21.18,38a6.39,6.39,0,0,1,0-12,9.64,9.64,0,0,0-1.79,6A9.65,9.65,0,0,0,21.18,38Zm4.21-24h-4V5a2,2,0,1,1,4,0Z"/><path class="cls-2" d="M9.61,4a1,1,0,0,0,0,2h6V4Z"/><path class="cls-2" d="M12.61,10a1,1,0,0,0,0,2h3V10Z"/><path class="cls-2" d="M12.61,16a1,1,0,1,0,0,2h3V16Z"/><path class="cls-2" d="M9.61,22a1,1,0,0,0,0,2h6V22Z"/></svg>