<svg xmlns="http://www.w3.org/2000/svg" viewBox="0 0 120 120">
  <defs>
    <style>
.cls-1,.cls-2{fill:#4e9ac9;}.cls-1{stroke:#065381;stroke-miterlimit:10;}.cls-3{fill:#fff;}.cls-4{fill:none;}
</style>
  </defs>
  <title>ws1</title>
  <g id="Layer_2" data-name="Layer 2">
    <g id="Layer_1-2" data-name="Layer 1">
      <path class="cls-1" d="M95.4,54.9a38.7,38.7,0,0,0,5.1-4.7A40.6,40.6,0,0,1,62,90.6Z"/>
      <path class="cls-1" d="M54.9,24.6a38.7,38.7,0,0,0-4.7-5.1A40.6,40.6,0,0,1,90.6,58Z"/>
      <path class="cls-1" d="M24.6,65.1a38.7,38.7,0,0,0-5.1,4.7A40.6,40.6,0,0,1,58,29.4Z"/>
      <path class="cls-1" d="M65.1,95.4a38.7,38.7,0,0,0,4.7,5.1A40.6,40.6,0,0,1,29.4,62Z"/>
      <path class="cls-2" d="M95.4,54.9A38.4,38.4,0,0,1,90.6,58c-1-17.9-16.3-31.5-35.7-33.4A38.4,38.4,0,0,1,58,29.4c-17.9,1-31.5,16.3-33.4,35.7A38.4,38.4,0,0,1,29.4,62c1,17.9,16.3,31.5,35.7,33.4A38.4,38.4,0,0,1,62,90.6C79.8,89.6,93.5,74.3,95.4,54.9Z"/>
      <path class="cls-3" d="M60.6,80.7A30.7,30.7,0,0,0,82,71.4l-5.2.8a20.7,20.7,0,0,0,4.1-12.3q0-.3,0-.5A30.7,30.7,0,0,0,71.6,38a47.9,47.9,0,0,1,.8,5.2,20.7,20.7,0,0,0-12.3-4.1h-.5a30.7,30.7,0,0,0-21.4,9.2l5.2-.8a20.7,20.7,0,0,0-4.1,12.3q0,.3,0,.5a30.7,30.7,0,0,0,9.2,21.4,47.9,47.9,0,0,1-.8-5.2,20.7,20.7,0,0,0,12.3,4.1Z"/>
      <path class="cls-2" d="M68.6,59.9a8.6,8.6,0,1,0-8.6,8.6A8.6,8.6,0,0,0,68.6,59.9Z"/>
      <path class="cls-4" d="M81.8,70.2l-2.5.5a21.8,21.8,0,0,0,2.8-10.8c0-.2,0-.4,0-.6a31.7,31.7,0,0,0-9.6-22.2,1.2,1.2,0,0,0-2.1,1.1c.2.8.3,1.7.5,2.5a21.8,21.8,0,0,0-10.8-2.8h-.6a31.7,31.7,0,0,0-22.2,9.6,1.2,1.2,0,0,0,1.1,2l2.5-.5a21.8,21.8,0,0,0-2.8,10.8c0,.2,0,.4,0,.6s.1,1.7.1,2.6a1.2,1.2,0,0,0,2.4-.2c-.1-.8-.1-1.6-.1-2.4s0-.3,0-.5a19.4,19.4,0,0,1,3.8-11.6,1.2,1.2,0,0,0-1.1-1.9H42.1a29.2,29.2,0,0,1,17.5-6.1h.5a19.4,19.4,0,0,1,11.6,3.8,1.2,1.2,0,0,0,1.9-1.1V42a29.2,29.2,0,0,1,6.1,17.5q0,.3,0,.5a19.4,19.4,0,0,1-3.8,11.6,1.2,1.2,0,0,0,1.1,1.9H78a29.2,29.2,0,0,1-17.5,6.1h-.5a19.4,19.4,0,0,1-11.6-3.8,1.2,1.2,0,0,0-1.9,1.1v1.1a29.5,29.5,0,0,1-5.2-10.4,1.2,1.2,0,1,0-2.4.6,32,32,0,0,0,8.6,14.7,1.2,1.2,0,0,0,.9.3l.6-.2a1.2,1.2,0,0,0,.6-1.3c-.2-.8-.3-1.7-.5-2.5a21.8,21.8,0,0,0,10.8,2.8h.6a31.7,31.7,0,0,0,22.2-9.6,1.2,1.2,0,0,0-1.1-2.1Z"/>
				<animateTransform attributeName="transform" type="rotate" from="0 60 60" to="360 60 60" begin="1s" dur="15s" repeatCount="indefinite"/>
      <rect class="cls-4" width="120" height="120"/>
    </g>
  </g>
</svg>