<?xml version="1.0" encoding="UTF-8" ?>
<!DOCTYPE svg PUBLIC "-//W3C//DTD SVG 1.1//EN" "http://www.w3.org/Graphics/SVG/1.1/DTD/svg11.dtd">
<svg width="80pt" height="80pt" viewBox="0 0 80 80" version="1.1" xmlns="http://www.w3.org/2000/svg">
<path fill="#464646" opacity="0.87" d=" M 32.86 12.81 C 36.73 9.54 42.11 8.94 46.87 10.32 C 54.60 12.60 60.64 18.29 65.99 24.07 C 64.37 25.65 62.12 27.00 61.71 29.42 C 60.98 32.61 60.75 35.90 60.43 39.15 C 61.50 41.44 62.55 44.32 60.58 46.47 C 57.41 50.00 57.86 55.24 54.84 58.84 C 51.56 63.14 46.26 65.25 41.13 66.35 C 35.45 65.36 29.61 62.53 26.60 57.40 C 25.07 54.86 24.41 51.95 23.71 49.12 C 20.87 46.58 19.72 42.71 21.75 39.27 C 21.13 33.51 19.33 27.43 21.71 21.83 C 23.34 16.78 29.25 15.94 32.86 12.81 M 29.46 17.48 C 27.53 18.38 25.23 19.10 24.20 21.16 C 21.17 26.59 23.14 32.95 23.27 38.79 C 23.86 35.96 24.14 33.02 25.36 30.37 C 26.58 27.96 29.04 26.57 31.15 25.02 C 33.86 26.77 36.62 28.58 39.83 29.25 C 44.63 30.33 49.94 29.95 54.23 32.73 C 56.51 34.06 57.32 36.71 58.45 38.91 C 58.69 33.48 59.11 27.73 62.84 23.42 C 56.79 17.46 49.36 11.19 40.32 11.73 C 35.87 11.83 33.34 16.02 29.46 17.48 M 26.47 33.14 C 25.86 35.84 25.99 38.62 25.94 41.37 C 24.80 41.57 23.64 41.74 22.52 42.05 C 22.64 43.50 22.91 44.94 23.15 46.38 C 23.86 46.46 25.28 46.63 26.00 46.71 C 26.00 48.11 26.00 49.50 26.00 50.90 C 30.79 47.21 36.84 45.02 42.94 45.70 C 47.83 45.81 52.13 48.37 56.03 51.08 C 56.20 49.77 56.36 48.45 56.54 47.13 C 59.28 46.73 59.52 43.95 60.28 41.85 C 59.05 41.76 57.83 41.67 56.60 41.59 C 55.95 39.16 55.90 36.03 53.46 34.60 C 49.16 31.90 43.91 32.31 39.13 31.17 C 36.14 30.56 33.54 28.85 30.93 27.36 C 29.17 29.03 27.11 30.69 26.47 33.14 M 26.67 53.56 C 29.26 59.56 35.06 63.01 41.16 64.56 C 47.05 62.91 53.10 59.82 55.39 53.74 C 50.77 50.79 45.67 47.85 39.98 48.16 C 35.03 48.34 30.75 51.05 26.67 53.56 Z" />
<path fill="#464646" opacity="0.87" d=" M 33.13 19.17 C 36.48 19.15 31.72 22.24 33.13 19.17 Z" />
<path fill="#464646" opacity="0.87" d=" M 30.89 22.11 C 32.51 21.63 33.03 22.21 32.46 23.84 C 30.84 24.32 30.32 23.75 30.89 22.11 Z" />
<path fill="#464646" opacity="0.87" d=" M 29.31 40.63 C 30.79 39.62 32.12 37.94 34.09 38.05 C 36.12 37.76 37.62 39.47 39.25 40.35 C 35.93 38.89 32.48 38.78 29.31 40.63 Z" />
<path fill="#464646" opacity="0.87" d=" M 43.47 40.73 C 45.31 39.45 47.30 37.71 49.74 38.24 C 51.20 38.81 52.42 39.82 53.67 40.74 C 51.84 40.25 50.09 39.39 48.19 39.21 C 46.58 39.61 45.05 40.24 43.47 40.73 Z" />
<path fill="#464646" opacity="0.87" d=" M 33.08 42.10 C 34.08 39.78 37.35 43.26 35.45 44.42 C 34.38 46.58 30.52 43.14 33.08 42.10 Z" />
<path fill="#464646" opacity="0.87" d=" M 47.00 42.09 C 48.82 40.10 51.83 43.06 49.65 44.75 C 47.86 45.86 46.29 43.80 47.00 42.09 Z" />
<path fill="#464646" opacity="0.87" d=" M 35.11 52.00 C 38.73 50.16 42.90 50.80 46.77 51.16 C 43.72 54.20 38.86 52.54 35.11 52.00 Z" />
<path fill="#464646" opacity="0.87" d=" M 35.22 55.86 C 37.90 52.72 42.57 54.37 46.15 54.24 C 46.25 54.68 46.45 55.55 46.54 55.99 C 42.78 56.31 38.98 56.19 35.22 55.86 Z" />
<path fill="#464646" opacity="0.87" d=" M 33.89 59.87 C 34.41 59.45 35.46 58.60 35.98 58.17 C 39.81 57.85 43.73 57.73 47.54 58.26 C 47.87 58.69 48.52 59.56 48.84 59.99 C 43.86 60.21 38.86 60.28 33.89 59.87 Z" />
</svg>
