<svg xmlns="http://www.w3.org/2000/svg" viewBox="0 0 52.87 46.04">
	<title>ws1</title>
	<g fill="#ddd">
		<ellipse fill="#979797" cx="5.37" cy="42.77" rx="3.26" ry="3.26"/>
		<ellipse cx="14.95" cy="42.77" rx="3.26" ry="3.26"/>
		<ellipse cx="24.52" cy="42.77" rx="3.26" ry="3.26"/>
		<ellipse cx="34.1" cy="42.77" rx="3.26" ry="3.26"/>
		<ellipse cx="43.67" cy="42.77" rx="3.26" ry="3.26"/>
	</g>
	<g fill="#a7d946">
		<path d="M10.74,13C5.4,18.3,5.9,27.48,5.9,27.48L25.26,8.12S16.09,7.61,10.74,13Z"/>
		<path d="M12.49.15C5,1.3,0,9,0,9L27.06,4.84S20-1,12.49.15Z"/>
		<polygon fill="#955926" points="32.1 35.49 23.59 35.49 25.26 9.82 30.39 9.82 32.1 35.49"/>
		<path d="M42.25,4.7C35.12,2.18,27.06,6.59,27.06,6.59l25.81,9.13S49.37,7.22,42.25,4.7Z"/>
		<path d="M39.53,15.78C35.38,9.46,26.29,8.11,26.29,8.11L41.34,31S43.69,22.09,39.53,15.78Z"/>
	</g>
</svg>
