<svg xmlns="http://www.w3.org/2000/svg" viewBox="0 0 56.03 43.4"><defs><style>.cls-1{fill:#979797;}.cls-2{fill:#ddd;}.cls-3{fill:#955926;}.cls-4{fill:#a7d946;}</style></defs><title>ws2</title><g id="Layer_2" data-name="Layer 2"><g id="Design"><ellipse class="cls-1" cx="3.26" cy="40.13" rx="3.26" ry="3.26"/><ellipse class="cls-1" cx="12.83" cy="40.13" rx="3.26" ry="3.26"/><ellipse class="cls-2" cx="22.41" cy="40.13" rx="3.26" ry="3.26"/><ellipse class="cls-2" cx="31.98" cy="40.13" rx="3.26" ry="3.26"/><ellipse class="cls-2" cx="41.55" cy="40.13" rx="3.26" ry="3.26"/><polygon class="cls-3" points="26.93 34.28 18.39 34.28 23.52 8.62 28.66 8.62 26.93 34.28"/><path class="cls-4" d="M42.35,0C34.79,0,28.66,6.83,28.66,6.83L56,6.85S49.91,0,42.35,0Z"/><path class="cls-4" d="M11.29,5.2c-7.09,3.31-10,12-10,12l25.66-12S18.38,1.88,11.29,5.2Z"/><path class="cls-4" d="M41.33,18.38c-3.66-7.1-12.67-9.75-12.67-9.75L41.9,34.36S45,25.48,41.33,18.38Z"/><path class="cls-4" d="M14.09,16.54c-3.75,7.12-.73,16.08-.73,16.08L26.94,6.85S17.84,9.43,14.09,16.54Z"/></g></g></svg>