<svg xmlns="http://www.w3.org/2000/svg" viewBox="0 0 52.89 46.55"><defs><style>.cls-1{fill:#979797;}.cls-2{fill:#ddd;}.cls-3{fill:#955926;}.cls-4{fill:#a7d946;}</style></defs><title>ws3</title><g id="Layer_2" data-name="Layer 2"><g id="Design"><ellipse class="cls-1" cx="3.26" cy="43.29" rx="3.26" ry="3.26"/><ellipse class="cls-1" cx="12.83" cy="43.29" rx="3.26" ry="3.26"/><ellipse class="cls-1" cx="22.41" cy="43.29" rx="3.26" ry="3.26"/><ellipse class="cls-2" cx="31.98" cy="43.29" rx="3.26" ry="3.26"/><ellipse class="cls-2" cx="41.55" cy="43.29" rx="3.26" ry="3.26"/><polygon class="cls-3" points="23.63 36.35 15.09 36.35 23.63 10.68 28.76 10.68 23.63 36.35"/><path class="cls-4" d="M38,.15C30.43,1.28,25.34,9,25.34,9L52.69,4.92S45.54-1,38,.15Z"/><path class="cls-4" d="M10.43,10.68c-5.67,5.45-5.61,14.7-5.61,14.7L25.34,5.63S16.1,5.22,10.43,10.68Z"/><path class="cls-4" d="M41.19,9.77c-7.61-2.44-15.85,2.07-15.85,2.07l27.55,8.82S48.8,12.2,41.19,9.77Z"/><path class="cls-4" d="M21.6,24.78C24,32.33,32.41,36.39,32.41,36.39L23.65,9.06S19.18,17.24,21.6,24.78Z"/></g></g></svg>