<svg xmlns="http://www.w3.org/2000/svg" viewBox="0 0 54.76 47.42"><defs><style>.cls-1{fill:#c60300;}.cls-2{fill:#ddd;}.cls-3{fill:#955926;}.cls-4{fill:#a7d946;}</style></defs><title>ws4</title><g id="Layer_2" data-name="Layer 2"><g id="Design"><ellipse class="cls-1" cx="3.26" cy="44.15" rx="3.26" ry="3.26"/><ellipse class="cls-1" cx="12.83" cy="44.15" rx="3.26" ry="3.26"/><ellipse class="cls-1" cx="22.41" cy="44.15" rx="3.26" ry="3.26"/><ellipse class="cls-1" cx="31.98" cy="44.15" rx="3.26" ry="3.26"/><ellipse class="cls-2" cx="41.55" cy="44.15" rx="3.26" ry="3.26"/><polygon class="cls-3" points="14.62 38.02 7.18 38.02 17.59 12.44 22.73 12.44 14.62 38.02"/><path class="cls-4" d="M38.23,0c-7.17,0-13,6.84-13,6.84h26S45.4,0,38.23,0Z"/><path class="cls-4" d="M42.86,9.73C35.18,7.38,27,12,27,12l27.81,8.53S50.54,12.09,42.86,9.73Z"/><path class="cls-4" d="M11,10.79C6.06,17.16,7.53,26.5,7.53,26.5L25.24,3.42S15.85,4.42,11,10.79Z"/><path class="cls-4" d="M23.57,24.75c3.62,7.1,12.6,9.77,12.6,9.77L23.07,8.82S19.95,17.65,23.57,24.75Z"/></g></g></svg>