<svg xmlns="http://www.w3.org/2000/svg" viewBox="0 0 60 60"><defs><style>.cls-1,.cls-3{fill:#53d0e0;}.cls-1{stroke:#fff;stroke-miterlimit:10;}.cls-2{fill:#fff;}</style></defs><title>cold3</title><g id="Layer_2" data-name="Layer 2"><g id="Layer_1-2" data-name="Layer 1"><rect class="cls-1" x="0.5" y="0.5" width="59" height="59" rx="12" ry="12"/><path class="cls-2" d="M42.8,12.4a3.5,3.5,0,1,1-3.5-3.5,3.5,3.5,0,0,1,3.5,3.5Zm0,0"/><path class="cls-2" d="M50.2,31.4c-1-11.1-6.3-13.3-6.3-13.3a9.8,9.8,0,0,0-10.5.8c-3.5,3.2-4.3,8-4.9,12.7-.3,2.4,3.4,2.4,3.7,0a20.5,20.5,0,0,1,2.2-8v26a1.9,1.9,0,0,0,2,2,2,2,0,0,0,2.1-2V34.9h1.8V49.7a1.9,1.9,0,0,0,3.7,0V39.3l.2-13c0-1.2,0-2.3,0-3.1a20.1,20.1,0,0,1,2.3,8.2c.3,2.4,4,2.4,3.7,0Zm0,0"/><path class="cls-2" d="M15.6,51.8a6.6,6.6,0,0,1-4-11.8c.4-.3,1.3-1,1.3-1.8V11.4a2.7,2.7,0,0,1,5.4,0V38.3c0,.9.9,1.4,1.3,1.7a6.6,6.6,0,0,1-4,11.8Z"/><circle class="cls-3" cx="15.6" cy="45.5" r="4"/><rect class="cls-3" x="14.5" y="24.5" width="2" height="4"/><rect class="cls-3" x="14.5" y="29.5" width="2" height="4"/><rect class="cls-3" x="14.5" y="34.5" width="2" height="4"/></g></g></svg>