<?xml version="1.0" encoding="UTF-8"?>
<!-- Generator: Adobe Illustrator 21.1.0, SVG Export Plug-In . SVG Version: 6.00 Build 0)  -->
<svg version="1.1" id="Layer_1" xmlns="http://www.w3.org/2000/svg" xmlns:xlink="http://www.w3.org/1999/xlink" x="0px" y="0px" viewBox="0 0 512.8 512.2" style="enable-background:new 0 0 512.8 512.2;" xml:space="preserve">
<style type="text/css">
	.st0{fill:#FAFCF8;}
	.st1{fill:#FAFCF9;}
	.st2{fill:#EDEDED;}
	.st3{fill:url(#SVGID_1_);}
	.st4{fill:url(#SVGID_2_);}
	.st5{fill:url(#SVGID_3_);}
	.st6{fill:url(#SVGID_4_);}
	.st7{fill:url(#SVGID_5_);}
	.st8{fill:url(#SVGID_6_);}
	.st9{fill:url(#SVGID_7_);}
	.st10{fill:url(#SVGID_8_);}
	.st11{fill:url(#SVGID_9_);}
	.st12{fill:url(#SVGID_10_);}
	.st13{fill:url(#SVGID_11_);}
	.st14{fill:url(#SVGID_12_);}
	.st15{fill:url(#SVGID_13_);}
	.st16{fill:url(#SVGID_14_);}
</style>
<g>
	<path class="st0" d="M298.3,154.1c16.1,0,29.2,12.3,29.2,27.4S314.4,209,298.3,209s-29.2-12.3-29.2-27.4S282.1,154.1,298.3,154.1z"/>
	<path class="st1" d="M252.4,159.4h44.5V209h-44.5L252.4,159.4z"/>
</g>
<g id="wind">
	<path d="M290,50.6c68,0,123.2,46.4,123.2,103.6S358.1,257.7,290,257.7s-123.2-46.4-123.2-103.6S222,50.6,290,50.6z"/>
	<path d="M106.4,159.6c27.1,0,49.1,22,49.1,49.1s-22,49.1-49.1,49.1s-49.1-22-49.1-49.1S79.3,159.6,106.4,159.6L106.4,159.6z"/>
	<path d="M118.7,198.8h270.7c21.5,0,38.9,13.2,38.9,29.5s-17.4,29.5-38.9,29.5H118.7c-21.5,0-38.9-13.2-38.9-29.5   S97.2,198.8,118.7,198.8z"/>
	<path d="M186.9,96.4c40.5,0,73.3,32.8,73.3,73.3S227.4,243,186.9,243s-73.3-32.8-73.3-73.3S146.4,96.4,186.9,96.4L186.9,96.4z"/>
	<path d="M394.7,111.1c40.5,0,73.3,32.8,73.3,73.3s-32.8,73.3-73.3,73.3s-73.3-32.8-73.3-73.3S354.2,111.1,394.7,111.1L394.7,111.1z   "/>
	<path d="M295.6,58.5c68,0,123.2,46.4,123.2,103.6s-55.2,103.5-123.2,103.5S172.4,219.2,172.4,162S227.5,58.5,295.6,58.5z"/>
	<path d="M112,167.5c27.1,0,49.1,22,49.1,49.1s-22,49.1-49.1,49.1s-49.1-22-49.1-49.1S84.9,167.5,112,167.5L112,167.5z"/>
	<path d="M124.3,206.7H395c21.5,0,38.9,13.2,38.9,29.5s-17.4,29.5-38.9,29.5H124.3c-21.5,0-38.9-13.2-38.9-29.5   S102.8,206.7,124.3,206.7z"/>
	<path d="M192.5,104.4c40.5,0,73.3,32.8,73.3,73.3s-32.8,73.3-73.3,73.3s-73.3-32.8-73.3-73.3l0,0   C119.2,137.2,152,104.4,192.5,104.4z"/>
	<path d="M400.3,119c40.5,0,73.3,32.8,73.3,73.3s-32.8,73.3-73.3,73.3c-40.5,0-73.3-32.8-73.3-73.2C327,151.8,359.8,119,400.3,119   C400.3,119,400.3,119,400.3,119z"/>
	<path d="M205.1,257.9h198.7c3.9,0,7.1,3.9,7.1,8.8s-3.2,8.8-7.1,8.8H205.1c-3.9,0-7.1-3.9-7.1-8.8S201.2,257.9,205.1,257.9z"/>
	<path d="M405,148.4c-20.6-0.1-40,9.7-52.3,26.3h24.8c8-5.7,17.6-8.8,27.4-8.8c25.8,0,46.7,20.6,46.7,46s-20.9,46-46.7,46   c-0.8,0-1.5,0-2.2-0.1v0.1h-42.2c12.1,11.3,28,17.5,44.5,17.5c35.6,0,64.5-28.4,64.5-63.5S440.6,148.4,405,148.4z"/>
	<path d="M364.5,165.9c6.5,0.1,11.7,5.5,11.6,12s-5.5,11.7-12,11.6c-6.5-0.1-11.6-5.4-11.6-11.8   C352.5,171.2,357.9,165.9,364.5,165.9C364.5,165.9,364.5,165.9,364.5,165.9z"/>
	<path d="M202.7,209h93.6c1.9,0,3.3,2.3,3.3,5.2s-1.5,5.2-3.3,5.2h-93.6c-1.9,0-3.3-2.3-3.3-5.2S200.8,209,202.7,209z"/>
	<g>
		<path d="M298.3,143.7c22.3,0,40.3,17,40.3,37.9s-18,37.9-40.3,37.9s-40.3-17-40.3-37.9S276,143.7,298.3,143.7z"/>
	</g>
	<path d="M273,155.4c4.1,0.3,7.3,3.8,7,8c-0.3,4.1-3.8,7.3-8,7c-4-0.3-7-3.5-7-7.5C265.1,158.6,268.7,155.3,273,155.4   C273,155.4,273,155.4,273,155.4z"/>
	<path d="M206.4,329.6h137.1c2.7,0,4.9-2.8,4.9-6.3s-2.2-6.3-4.9-6.3H206.4c-2.7,0-4.9,2.8-4.9,6.3S203.7,329.6,206.4,329.6z"/>
	<path d="M345.8,316.9c-11.8,0-23.1,4.5-31.6,12.7h30l0,0c0.5,0,1,0,1.6,0c18.4,0,33.3,14.8,33.3,33.2c0,18.4-14.8,33.3-33.2,33.3   c-7,0-13.9-2.2-19.6-6.3h-17.6c14.9,20.4,43.6,24.9,64.1,10s24.9-43.6,10-64.1C374.1,323.9,360.4,316.9,345.8,316.9z"/>
	<path d="M317.2,394.9c5,0,9.1-4,9.1-9c0-5-4-9.1-9-9.1s-9.1,4-9.1,9c0,0,0,0,0,0C308.1,390.8,312.1,394.8,317.2,394.9   C317.1,394.8,317.1,394.9,317.2,394.9z"/>
	<path class="st2" d="M275.4,48.7c68,0,123.2,46.4,123.2,103.6s-55.2,103.6-123.2,103.6s-123.2-46.4-123.2-103.5   S207.4,48.7,275.4,48.7z"/>
	<path class="st2" d="M91.8,157.7c27.1,0,49.1,22,49.1,49.1S119,256,91.8,256s-49.1-22-49.1-49.1S64.7,157.7,91.8,157.7L91.8,157.7z   "/>
	<path class="st2" d="M104.1,196.9h270.7c21.5,0,38.9,13.2,38.9,29.5s-17.4,29.5-38.9,29.5H104.1c-21.5,0-38.9-13.2-38.9-29.5   S82.6,196.9,104.1,196.9z"/>
	<path class="st2" d="M172.3,94.6c40.5,0,73.3,32.8,73.2,73.3c0,40.5-32.8,73.3-73.3,73.2c-40.5,0-73.2-32.8-73.2-73.3   C99,127.4,131.8,94.5,172.3,94.6C172.3,94.5,172.3,94.5,172.3,94.6z"/>
	<path class="st2" d="M380.1,109.2c40.5,0,73.3,32.8,73.3,73.3s-32.8,73.3-73.3,73.3s-73.3-32.8-73.3-73.3S339.6,109.2,380.1,109.2   L380.1,109.2z"/>
	
		<linearGradient id="SVGID_1_" gradientUnits="userSpaceOnUse" x1="281" y1="454.07" x2="281" y2="248.13" gradientTransform="matrix(1 0 0 -1 0 512)">
		<stop offset="0" style="stop-color:#E3E3E3"/>
		<stop offset="0.99" style="stop-color:#808081"/>
	</linearGradient>
	<path class="st3" d="M281,56.6c68,0,123.2,46.4,123.2,103.5S349,263.7,281,263.7s-123.2-46.4-123.2-103.5S212.9,56.6,281,56.6z"/>
	
		<linearGradient id="SVGID_2_" gradientUnits="userSpaceOnUse" x1="97.41" y1="454.07" x2="97.41" y2="248.13" gradientTransform="matrix(1 0 0 -1 0 512)">
		<stop offset="0" style="stop-color:#E3E3E3"/>
		<stop offset="0.99" style="stop-color:#808081"/>
	</linearGradient>
	<path class="st4" d="M97.4,165.6c27.1,0,49.1,22,49.1,49.1s-22,49.1-49.1,49.1s-49.1-22-49.1-49.1S70.3,165.6,97.4,165.6   L97.4,165.6z"/>
	
		<linearGradient id="SVGID_3_" gradientUnits="userSpaceOnUse" x1="245.06" y1="454.07" x2="245.06" y2="248.13" gradientTransform="matrix(1 0 0 -1 0 512)">
		<stop offset="0" style="stop-color:#E3E3E3"/>
		<stop offset="0.99" style="stop-color:#808081"/>
	</linearGradient>
	<path class="st5" d="M109.7,204.8h270.7c21.5,0,38.9,13.2,38.9,29.5s-17.4,29.5-38.9,29.5H109.7c-21.5,0-38.9-13.2-38.9-29.5   S88.2,204.8,109.7,204.8z"/>
	
		<linearGradient id="SVGID_4_" gradientUnits="userSpaceOnUse" x1="177.88" y1="454.07" x2="177.88" y2="248.13" gradientTransform="matrix(1 0 0 -1 0 512)">
		<stop offset="0" style="stop-color:#E3E3E3"/>
		<stop offset="0.99" style="stop-color:#808081"/>
	</linearGradient>
	<path class="st6" d="M177.9,102.5c40.5,0,73.3,32.8,73.3,73.3S218.4,249,177.9,249s-73.3-32.8-73.3-73.3S137.4,102.5,177.9,102.5   L177.9,102.5z"/>
	
		<linearGradient id="SVGID_5_" gradientUnits="userSpaceOnUse" x1="385.69" y1="454.07" x2="385.69" y2="248.13" gradientTransform="matrix(1 0 0 -1 0 512)">
		<stop offset="0" style="stop-color:#E3E3E3"/>
		<stop offset="0.99" style="stop-color:#808081"/>
	</linearGradient>
	<path class="st7" d="M385.7,117.1c40.5,0,73.3,32.8,73.3,73.3s-32.8,73.3-73.3,73.3s-73.3-32.8-73.3-73.3S345.2,117.1,385.7,117.1   L385.7,117.1z"/>
	
		<linearGradient id="SVGID_6_" gradientUnits="userSpaceOnUse" x1="160.2872" y1="155.814" x2="313.9572" y2="264.284" gradientTransform="matrix(1 0 0 -1 0 512)">
		<stop offset="0" style="stop-color:#7F7F7F"/>
		<stop offset="1" style="stop-color:#FFFFFF"/>
	</linearGradient>
	<path class="st8" d="M190.6,255.9h198.7c3.9,0,7.1,3.9,7.1,8.8s-3.2,8.8-7.1,8.8H190.6c-3.9,0-7.1-3.9-7.1-8.8   S186.6,255.9,190.6,255.9z"/>
	
		<linearGradient id="SVGID_7_" gradientUnits="userSpaceOnUse" x1="171.8127" y1="147.702" x2="322.8327" y2="254.302" gradientTransform="matrix(1 0 0 -1 0 512)">
		<stop offset="0" style="stop-color:#7F7F7F"/>
		<stop offset="1" style="stop-color:#FFFFFF"/>
	</linearGradient>
	<path class="st9" d="M390.4,146.5c-20.6-0.1-40,9.7-52.3,26.3h24.8c8-5.7,17.6-8.8,27.4-8.8c25.8,0,46.7,20.6,46.7,46   s-20.9,46-46.7,46c-0.8,0-1.5,0-2.2-0.1v0.1h-42.2c12.1,11.3,28,17.5,44.5,17.5c35.6,0,64.5-28.4,64.5-63.5S426,146.5,390.4,146.5z   "/>
	
		<linearGradient id="SVGID_8_" gradientUnits="userSpaceOnUse" x1="138.8479" y1="187.3322" x2="291.4579" y2="295.0522" gradientTransform="matrix(1 0 0 -1 0 512)">
		<stop offset="0" style="stop-color:#7F7F7F"/>
		<stop offset="1" style="stop-color:#FFFFFF"/>
	</linearGradient>
	<path class="st10" d="M349.9,164c6.5,0.1,11.7,5.5,11.6,12s-5.5,11.7-12,11.6c-6.5-0.1-11.6-5.4-11.6-11.8   C338,169.2,343.3,163.9,349.9,164C349.9,164,349.9,164,349.9,164z"/>
	
		<linearGradient id="SVGID_9_" gradientUnits="userSpaceOnUse" x1="116.7495" y1="216.3107" x2="270.3595" y2="324.7507" gradientTransform="matrix(1 0 0 -1 0 512)">
		<stop offset="0" style="stop-color:#7F7F7F"/>
		<stop offset="1" style="stop-color:#FFFFFF"/>
	</linearGradient>
	<path class="st11" d="M188.1,207.1h93.6c1.9,0,3.3,2.3,3.3,5.2s-1.5,5.2-3.3,5.2h-93.6c-1.9,0-3.3-2.3-3.3-5.2   S186.2,207.1,188.1,207.1z"/>
	
		<linearGradient id="SVGID_10_" gradientUnits="userSpaceOnUse" x1="120.8257" y1="217.3761" x2="271.5657" y2="323.7761" gradientTransform="matrix(1 0 0 -1 0 512)">
		<stop offset="0" style="stop-color:#7F7F7F"/>
		<stop offset="1" style="stop-color:#FFFFFF"/>
	</linearGradient>
	<path class="st12" d="M283.7,141.8c-12.7-0.1-24.8,5.7-32.7,15.7h15.5c5.1-3.4,11-5.2,17.1-5.2c16.1,0,29.2,12.3,29.2,27.4   s-13.1,27.4-29.2,27.4c-0.5,0-0.9,0-1.4,0l0,0h-26.4c7.7,6.8,17.6,10.5,27.8,10.4c22.3,0,40.3-17,40.3-37.9S306,141.8,283.7,141.8z   "/>
	
		<linearGradient id="SVGID_11_" gradientUnits="userSpaceOnUse" x1="100.6993" y1="239.9651" x2="253.3793" y2="347.7451" gradientTransform="matrix(1 0 0 -1 0 512)">
		<stop offset="0" style="stop-color:#7F7F7F"/>
		<stop offset="1" style="stop-color:#FFFFFF"/>
	</linearGradient>
	<path class="st13" d="M258.4,153.5c4.1,0.3,7.3,3.8,7,8c-0.3,4.1-3.8,7.3-8,7c-4-0.3-7-3.5-7-7.5   C250.5,156.7,254.1,153.4,258.4,153.5C258.4,153.5,258.4,153.5,258.4,153.5z"/>
	
		<linearGradient id="SVGID_12_" gradientUnits="userSpaceOnUse" x1="177.7273" y1="132.3838" x2="331.3973" y2="240.8538" gradientTransform="matrix(1 0 0 -1 0 512)">
		<stop offset="0" style="stop-color:#7F7F7F"/>
		<stop offset="1" style="stop-color:#FFFFFF"/>
	</linearGradient>
	<path class="st14" d="M191.8,327.6h137.1c2.7,0,4.9-2.8,4.9-6.3s-2.2-6.3-4.9-6.3H191.8c-2.7,0-4.9,2.8-4.9,6.3   S189.1,327.6,191.8,327.6z"/>
	
		<linearGradient id="SVGID_13_" gradientUnits="userSpaceOnUse" x1="222.5468" y1="71.5861" x2="375.1368" y2="179.2861" gradientTransform="matrix(1 0 0 -1 0 512)">
		<stop offset="0" style="stop-color:#7F7F7F"/>
		<stop offset="1" style="stop-color:#FFFFFF"/>
	</linearGradient>
	<path class="st15" d="M302.6,392.9c5,0,9.1-4,9.1-9c0-5-4-9.1-9-9.1s-9.1,4-9.1,9c0,0,0,0,0,0C293.6,388.9,297.6,392.9,302.6,392.9   C302.5,392.9,302.6,392.9,302.6,392.9z"/>
	
		<linearGradient id="SVGID_14_" gradientUnits="userSpaceOnUse" x1="221.1908" y1="73.5155" x2="373.7508" y2="181.2055" gradientTransform="matrix(1 0 0 -1 0 512)">
		<stop offset="0" style="stop-color:#7F7F7F"/>
		<stop offset="1" style="stop-color:#FFFFFF"/>
	</linearGradient>
	<path class="st16" d="M331.2,315c-11.8,0-23.1,4.5-31.6,12.7h30l0,0c0.5,0,1,0,1.6,0c18.4,0,33.3,14.8,33.3,33.2   c0,18.4-14.8,33.3-33.2,33.3c-7,0-13.9-2.2-19.6-6.3h-17.7c14.9,20.4,43.6,24.9,64.1,10s24.9-43.6,10-64.1   C359.5,322,345.8,315,331.2,315z"/>
</g>
</svg>