<?xml version="1.0" encoding="UTF-8"?>
<!-- Generator: Adobe Illustrator 21.1.0, SVG Export Plug-In . SVG Version: 6.00 Build 0)  -->
<svg version="1.1" id="Layer_1" xmlns="http://www.w3.org/2000/svg" xmlns:xlink="http://www.w3.org/1999/xlink" x="0px" y="0px" viewBox="0 0 512.8 512.2" style="enable-background:new 0 0 512.8 512.2;" xml:space="preserve">
<style type="text/css">
	.st0{fill:#FFFFFF;}
	.st1{fill:#EFEFEF;}
	.st2{fill:url(#SVGID_1_);}
	.st3{fill:url(#SVGID_2_);}
	.st4{fill:url(#SVGID_3_);}
	.st5{fill:url(#SVGID_4_);}
	.st6{fill:url(#SVGID_5_);}
</style>
<g id="sleet_day">
	<path d="M125.4,445.7c-16.5-9.8,20.8-91.5,20.8-91.5C146.1,357.8,135.3,451.5,125.4,445.7z"/>
	<path d="M172.1,445.7c-16.5-9.8,20.8-91.5,20.8-91.5C192.8,357.8,181.9,451.5,172.1,445.7z"/>
	<path d="M225.9,445.7c-16.5-9.8,20.8-91.5,20.8-91.5C246.5,357.8,235.7,451.5,225.9,445.7z"/>
	<path d="M272.5,445.7c-16.5-9.8,20.8-91.5,20.8-91.5C293.2,357.8,282.4,451.5,272.5,445.7z"/>
	<path d="M319.2,445.7c-16.5-9.7,20.8-91.5,20.8-91.5C339.9,357.8,329.1,451.5,319.2,445.7z"/>
	<path d="M358.9,380c-20.6-12.2,25.9-114.2,25.9-114.2C384.6,270.2,371.1,387.2,358.9,380z"/>
	<path d="M309.5,380c-20.6-12.2,25.9-114.2,25.9-114.2C335.2,270.2,321.7,387.2,309.5,380z"/>
	<path d="M260.1,380C239.5,367.8,286,265.8,286,265.8C285.8,270.2,272.4,387.2,260.1,380z"/>
	<path d="M210.7,380c-20.6-12.2,25.9-114.2,25.9-114.2C236.4,270.2,222.9,387.2,210.7,380z"/>
	<path d="M161.3,380c-20.6-12.2,25.9-114.2,25.9-114.2C187,270.2,173.6,387.2,161.3,380z"/>
	<path d="M111.9,380c-20.6-12.2,25.9-114.2,25.9-114.2C137.6,270.2,124.2,387.2,111.9,380z"/>
	<path d="M288.4,48.5c68.4,0,123.8,46.6,123.8,104.1s-55.5,104.1-123.8,104.1s-123.9-46.6-123.9-104.1S220,48.5,288.4,48.5z"/>
	<path d="M103.9,158.1c27.3,0,49.4,22.1,49.4,49.4s-22.1,49.4-49.4,49.4s-49.4-22.1-49.4-49.4l0,0   C54.5,180.2,76.6,158.1,103.9,158.1z"/>
	<path d="M116.2,197.6h272.1c21.6,0,39.1,13.3,39.1,29.6s-17.5,29.6-39.1,29.6H116.2c-21.6,0-39.1-13.3-39.1-29.6   S94.6,197.6,116.2,197.6z"/>
	<path d="M184.7,94.7c40.7,0,73.7,33,73.7,73.7s-33,73.6-73.7,73.6s-73.6-33-73.7-73.6C111.1,127.6,144.1,94.7,184.7,94.7   L184.7,94.7z"/>
	<path d="M393.6,109.4c40.7,0,73.7,32.9,73.7,73.6s-32.9,73.7-73.6,73.7S320,223.8,320,183.1c0,0,0,0,0,0   C320,142.4,353,109.4,393.6,109.4z"/>
	<path d="M294,56.5c68.4,0,123.8,46.6,123.8,104.1S362.4,264.7,294,264.7s-123.8-46.6-123.8-104.1S225.6,56.5,294,56.5z"/>
	<path d="M109.5,166.1c27.3,0,49.4,22.1,49.4,49.4s-22.1,49.4-49.4,49.4s-49.4-22.1-49.4-49.4l0,0   C60.1,188.2,82.2,166.1,109.5,166.1z"/>
	<path d="M121.8,205.5h272.1c21.6,0,39.1,13.3,39.1,29.6s-17.5,29.6-39.1,29.6H121.8c-21.6,0-39.1-13.3-39.1-29.6   S100.2,205.5,121.8,205.5z"/>
	<path d="M190.3,102.6c40.7,0,73.6,33,73.6,73.7s-33,73.7-73.6,73.7s-73.7-33-73.7-73.7l0,0C116.7,135.6,149.7,102.6,190.3,102.6z"/>
	<path d="M399.2,117.4c40.7,0,73.6,33,73.6,73.7s-33,73.6-73.6,73.6s-73.6-33-73.6-73.6c0,0,0,0,0,0   C325.6,150.3,358.5,117.4,399.2,117.4z"/>
	<path class="st0" d="M115.4,445.7c-16.5-9.8,20.8-91.5,20.8-91.5C136,357.8,125.2,451.5,115.4,445.7z"/>
	<path class="st0" d="M162,445.7c-16.5-9.8,20.8-91.5,20.8-91.5C182.7,357.8,171.9,451.5,162,445.7z"/>
	<path class="st0" d="M215.8,445.7c-16.5-9.8,20.8-91.5,20.8-91.5C236.4,357.8,225.6,451.5,215.8,445.7z"/>
	<path class="st0" d="M262.5,445.7c-16.5-9.8,20.8-91.5,20.8-91.5C283.1,357.8,272.3,451.5,262.5,445.7z"/>
	<path class="st0" d="M309.2,445.7c-16.5-9.8,20.8-91.5,20.8-91.5C329.8,357.8,319,451.5,309.2,445.7z"/>
	<path class="st0" d="M348.8,380c-20.6-12.2,25.9-114.2,25.9-114.2C374.6,270.2,361.1,387.2,348.8,380z"/>
	<path class="st0" d="M299.4,380c-20.6-12.2,25.9-114.2,25.9-114.2C325.2,270.2,311.7,387.2,299.4,380z"/>
	<path class="st0" d="M250,380c-20.6-12.2,25.9-114.2,25.9-114.2C275.8,270.2,262.3,387.2,250,380z"/>
	<path class="st0" d="M200.6,380c-20.6-12.2,25.9-114.2,25.9-114.2C226.4,270.2,212.9,387.2,200.6,380z"/>
	<path class="st0" d="M151.2,380c-20.6-12.2,25.9-114.2,25.9-114.2C177,270.2,163.5,387.2,151.2,380z"/>
	<path class="st0" d="M101.8,380c-20.6-12.2,25.9-114.2,25.9-114.2C127.6,270.2,114.1,387.2,101.8,380z"/>
	<path class="st1" d="M273.5,48.5c68.4,0,123.8,46.6,123.8,104.1s-55.4,104.1-123.8,104.1s-123.8-46.6-123.8-104.1   S205.1,48.5,273.5,48.5z"/>
	<path class="st1" d="M89,158.1c27.3,0,49.4,22.1,49.4,49.4s-22.1,49.4-49.4,49.4s-49.4-22.1-49.4-49.4l0,0   C39.6,180.2,61.7,158.1,89,158.1z"/>
	<path class="st1" d="M101.3,197.6h272.1c21.6,0,39.1,13.3,39.1,29.6s-17.5,29.6-39.1,29.6H101.3c-21.6,0-39.1-13.3-39.1-29.6   S79.7,197.6,101.3,197.6z"/>
	<path class="st1" d="M169.9,94.7c40.7,0,73.6,33,73.6,73.7s-33,73.6-73.7,73.6c-40.7,0-73.6-33-73.6-73.6   C96.2,127.6,129.2,94.7,169.9,94.7C169.9,94.7,169.9,94.7,169.9,94.7z"/>
	<path class="st1" d="M378.7,109.4c40.7,0,73.7,33,73.7,73.7s-33,73.7-73.7,73.7s-73.6-33-73.6-73.7l0,0   C305.1,142.4,338.1,109.4,378.7,109.4z"/>
	
		<linearGradient id="SVGID_1_" gradientUnits="userSpaceOnUse" x1="279.1" y1="454.14" x2="279.1" y2="247.14" gradientTransform="matrix(1 0 0 -1 0 512)">
		<stop offset="0" style="stop-color:#E3E3E3"/>
		<stop offset="0.99" style="stop-color:#808081"/>
	</linearGradient>
	<path class="st2" d="M279.1,56.5c68.4,0,123.8,46.6,123.8,104.1s-55.4,104.1-123.8,104.1s-123.8-46.6-123.8-104.1   S210.7,56.5,279.1,56.5z"/>
	
		<linearGradient id="SVGID_2_" gradientUnits="userSpaceOnUse" x1="94.57" y1="454.14" x2="94.57" y2="247.14" gradientTransform="matrix(1 0 0 -1 0 512)">
		<stop offset="0" style="stop-color:#E3E3E3"/>
		<stop offset="0.99" style="stop-color:#808081"/>
	</linearGradient>
	<path class="st3" d="M94.6,166.1c27.3,0,49.4,22.1,49.4,49.4s-22.1,49.4-49.4,49.4s-49.4-22.1-49.4-49.4l0,0   C45.2,188.2,67.3,166.1,94.6,166.1z"/>
	
		<linearGradient id="SVGID_3_" gradientUnits="userSpaceOnUse" x1="242.965" y1="454.14" x2="242.965" y2="247.14" gradientTransform="matrix(1 0 0 -1 0 512)">
		<stop offset="0" style="stop-color:#E3E3E3"/>
		<stop offset="0.99" style="stop-color:#808081"/>
	</linearGradient>
	<path class="st4" d="M106.9,205.5H379c21.6,0,39.1,13.3,39.1,29.6s-17.5,29.6-39.1,29.6H106.9c-21.6,0-39.1-13.3-39.1-29.6   S85.3,205.5,106.9,205.5z"/>
	
		<linearGradient id="SVGID_4_" gradientUnits="userSpaceOnUse" x1="175.46" y1="454.14" x2="175.46" y2="247.14" gradientTransform="matrix(1 0 0 -1 0 512)">
		<stop offset="0" style="stop-color:#E3E3E3"/>
		<stop offset="0.99" style="stop-color:#808081"/>
	</linearGradient>
	<path class="st5" d="M175.5,102.6c40.7,0,73.7,33,73.7,73.7s-33,73.7-73.7,73.7s-73.7-33-73.7-73.7l0,0   C101.8,135.6,134.8,102.6,175.5,102.6z"/>
	
		<linearGradient id="SVGID_5_" gradientUnits="userSpaceOnUse" x1="384.33" y1="454.14" x2="384.33" y2="247.14" gradientTransform="matrix(1 0 0 -1 0 512)">
		<stop offset="0" style="stop-color:#E3E3E3"/>
		<stop offset="0.99" style="stop-color:#808081"/>
	</linearGradient>
	<path class="st6" d="M384.3,117.4c40.7,0,73.6,33,73.6,73.7s-33,73.6-73.7,73.6s-73.6-33-73.6-73.7S343.7,117.4,384.3,117.4   L384.3,117.4z"/>
</g>
</svg>