<?xml version="1.0" encoding="UTF-8"?>
<!-- Generator: Adobe Illustrator 21.1.0, SVG Export Plug-In . SVG Version: 6.00 Build 0)  -->
<svg version="1.1" id="Layer_1" xmlns="http://www.w3.org/2000/svg" xmlns:xlink="http://www.w3.org/1999/xlink" x="0px" y="0px" viewBox="0 0 512.8 512.2" style="enable-background:new 0 0 512.8 512.2;" xml:space="preserve">
<style type="text/css">
	.st0{fill:url(#SVGID_1_);}
	.st1{fill:#FFFFFF;}
	.st2{fill:#292929;}
	.st3{fill:url(#SVGID_2_);}
	.st4{fill:url(#SVGID_3_);}
	.st5{fill:url(#SVGID_4_);}
	.st6{fill:url(#SVGID_5_);}
	.st7{fill:url(#SVGID_6_);}
	.st8{fill:url(#SVGID_7_);}
	.st9{fill:url(#SVGID_8_);}
	.st10{fill:url(#SVGID_9_);}
	.st11{fill:url(#SVGID_10_);}
	.st12{fill:url(#SVGID_11_);}
	.st13{fill:url(#SVGID_12_);}
	.st14{fill:url(#SVGID_13_);}
	.st15{fill:url(#SVGID_14_);}
	.st16{fill:url(#SVGID_15_);}
	.st17{fill:url(#SVGID_16_);}
	.st18{fill:url(#SVGID_17_);}
	.st19{fill:url(#SVGID_18_);}
	.st20{fill:url(#SVGID_19_);}
	.st21{fill:url(#SVGID_20_);}
	.st22{fill:url(#SVGID_21_);}
	.st23{fill:url(#SVGID_22_);}
	.st24{fill:url(#SVGID_23_);}
	.st25{fill:url(#SVGID_24_);}
	.st26{fill:url(#SVGID_25_);}
	.st27{fill:url(#SVGID_26_);}
</style>
<g id="cloudy_night">
	<path d="M130.7,225.1C85.6,180.3,84,107.3,124.5,54.6c-63,29.3-90.3,104.2-60.9,167.2s104.2,90.3,167.2,60.9   c18.6-8.6,34.7-21.7,47.1-38C228.7,269.6,169.5,263.5,130.7,225.1z"/>
	
		<linearGradient id="SVGID_1_" gradientUnits="userSpaceOnUse" x1="150.3154" y1="454.08" x2="150.3154" y2="216.34" gradientTransform="matrix(1 0 0 -1 0 512)">
		<stop offset="0" style="stop-color:#FBF49E"/>
		<stop offset="0.99" style="stop-color:#FAA61A"/>
	</linearGradient>
	<path class="st0" d="M116.2,228.1C71.1,183.3,69.5,110.3,110,57.6C47,87,19.8,161.8,49.1,224.8s104.2,90.2,167.2,60.9   c18.5-8.6,34.7-21.7,47-37.9C214.2,272.6,155,266.5,116.2,228.1z"/>
	<path class="st1" d="M164.8,59.6l12.6,21.9l25.6,4.7l-17.8,18.2l3.2,24.8l-23.6-10.6l-23.6,10.6l3.2-24.8l-17.8-18.2l25.6-4.7   L164.8,59.6"/>
	<path class="st1" d="M205.7,158.4l8.7,14.6l17.7,3.1l-12.4,12.1l2.2,16.5l-16.4-7.1l-16.4,7.1l2.2-16.5l-12.4-12.1L197,173   L205.7,158.4"/>
	<path class="st2" d="M259.2,143.1c51.5,0,93.3,35.1,93.3,78.4S310.8,300,259.2,300s-93.3-35.1-93.3-78.4S207.7,143.1,259.2,143.1z"/>
	<path class="st2" d="M120.2,225.7c20.6,0,37.2,16.7,37.2,37.2s-16.7,37.2-37.2,37.2s-37.2-16.7-37.2-37.2S99.6,225.7,120.2,225.7   L120.2,225.7z"/>
	<path class="st2" d="M129.5,255.4h205.1c16.3,0,29.5,10,29.5,22.3s-13.2,22.3-29.5,22.3H129.5c-16.3,0-29.5-10-29.5-22.3   S113.2,255.4,129.5,255.4z"/>
	<path class="st2" d="M181.1,177.8c30.7,0,55.5,24.9,55.5,55.5s-24.9,55.5-55.5,55.5s-55.5-24.9-55.5-55.5l0,0   C125.6,202.7,150.5,177.8,181.1,177.8z"/>
	<path class="st2" d="M338.5,188.9c30.7,0,55.5,24.9,55.5,55.5s-24.9,55.5-55.5,55.5c-30.6,0-55.5-24.9-55.5-55.5   C283,213.8,307.9,188.9,338.5,188.9C338.5,188.9,338.5,188.9,338.5,188.9z"/>
	<path class="st2" d="M264.1,151.4c51.5,0,93.3,35.1,93.3,78.4s-41.8,78.4-93.3,78.4s-93.3-35.1-93.3-78.4S212.6,151.4,264.1,151.4z   "/>
	<path class="st2" d="M125,234c20.6,0,37.2,16.7,37.2,37.2s-16.7,37.2-37.2,37.2s-37.2-16.7-37.2-37.2S104.4,234,125,234L125,234z"/>
	<path class="st2" d="M134.4,263.7h205.1c16.3,0,29.5,10,29.5,22.3s-13.2,22.3-29.5,22.3H134.4c-16.3,0-29.5-10-29.5-22.3   S118.1,263.7,134.4,263.7z"/>
	<path class="st2" d="M186,186.2c30.7,0,55.5,24.9,55.5,55.5s-24.9,55.5-55.5,55.5s-55.5-24.9-55.5-55.5l0,0   C130.5,211,155.3,186.2,186,186.2z"/>
	<path class="st2" d="M343.4,197.3c30.7,0,55.5,24.9,55.5,55.5s-24.9,55.5-55.5,55.5s-55.5-24.9-55.5-55.5S312.8,197.3,343.4,197.3   L343.4,197.3z"/>
	<path class="st2" d="M215.7,296c21.6,0,39.2,17.6,39.2,39.2c0,21.6-17.6,39.2-39.2,39.2s-39.2-17.6-39.2-39.2S194,296,215.7,296   C215.7,296,215.7,296,215.7,296z"/>
	<path class="st2" d="M335.5,235.8c45.5,0,82.4,31,82.4,69.3s-36.9,69.3-82.4,69.3s-82.4-31-82.4-69.3S290,235.8,335.5,235.8z"/>
	<path class="st2" d="M221,335h181.1c14.4,0,26,8.8,26,19.7s-11.7,19.7-26,19.7H221c-14.4,0-26-8.8-26-19.7S206.6,335,221,335z"/>
	<path class="st2" d="M266.6,266.5c27.1,0,49,21.9,49,49s-21.9,49-49,49s-49-21.9-49-49l0,0C217.6,288.5,239.5,266.5,266.6,266.5z"/>
	<path class="st2" d="M405.6,276.3c27.1,0,49,21.9,49,49s-21.9,49-49,49s-49-21.9-49-49S378.5,276.3,405.6,276.3L405.6,276.3z"/>
	<path class="st2" d="M224.7,305.9c22.9,0,41.4,18.5,41.4,41.4s-18.5,41.4-41.4,41.4s-41.4-18.5-41.4-41.4l0,0   C183.2,324.5,201.8,305.9,224.7,305.9z"/>
	<path class="st2" d="M351.4,242.3c48.1,0,87.1,32.8,87.1,73.2s-39,73.2-87.1,73.2s-87.1-32.7-87.1-73.2S303.2,242.3,351.4,242.3z"/>
	<path class="st2" d="M230.2,347.1h191.4c15.2,0,27.5,9.3,27.5,20.9s-12.3,20.9-27.5,20.9H230.2c-15.2,0-27.5-9.3-27.5-20.9   S215,347.1,230.2,347.1z"/>
	<path class="st2" d="M278.5,274.8c28.6,0,51.8,23.2,51.8,51.8s-23.2,51.8-51.8,51.8s-51.8-23.2-51.8-51.8l0,0   C226.6,298,249.8,274.8,278.5,274.8z"/>
	<path class="st2" d="M425.4,285.1c28.6,0,51.8,23.2,51.8,51.8s-23.2,51.8-51.8,51.8s-51.8-23.2-51.8-51.8l0,0   C373.6,308.3,396.8,285.1,425.4,285.1z"/>
	<path class="st2" d="M236.9,312.2c21.8,0,39.4,17.6,39.4,39.4c0,21.8-17.6,39.4-39.4,39.4s-39.4-17.6-39.4-39.4   S215.1,312.2,236.9,312.2L236.9,312.2z"/>
	<path class="st2" d="M357.4,251.7c45.8,0,82.9,31.2,82.9,69.7S403.2,391,357.4,391s-82.9-31.2-82.9-69.7S311.6,251.7,357.4,251.7z"/>
	<path class="st2" d="M242.2,351.5h182.1c14.5,0,26.2,8.9,26.2,19.8s-11.7,19.8-26.2,19.8H242.2c-14.5,0-26.2-8.9-26.2-19.8   S227.7,351.5,242.2,351.5z"/>
	<path class="st2" d="M288,282.6c27.2,0,49.3,22.1,49.3,49.3c0,27.2-22.1,49.3-49.3,49.3s-49.3-22.1-49.3-49.3l0,0   C238.7,304.7,260.8,282.6,288,282.6z"/>
	<path class="st2" d="M427.8,292.5c27.2,0,49.3,22.1,49.3,49.3c0,27.2-22.1,49.3-49.3,49.3c-27.2,0-49.3-22.1-49.3-49.3l0,0   C378.5,314.5,400.6,292.5,427.8,292.5z"/>
	<path class="st2" d="M197.2,278.5c35.5,0,64.3,25,64.3,55.9s-28.8,55.9-64.3,55.9s-64.3-25-64.3-55.9S161.7,278.5,197.2,278.5z"/>
	<path class="st2" d="M101.4,337.3c14.2,0,25.7,11.9,25.7,26.5s-11.5,26.5-25.7,26.5s-25.7-11.9-25.7-26.5S87.2,337.3,101.4,337.3z"/>
	<path class="st2" d="M107.8,358.5h141.3c11.2,0,20.3,7.1,20.3,15.9s-9.1,15.9-20.3,15.9H107.8c-11.2,0-20.3-7.1-20.3-15.9   S96.6,358.5,107.8,358.5z"/>
	<path class="st2" d="M143.4,303.3c21.1,0,38.2,17.7,38.2,39.5s-17.1,39.5-38.2,39.5s-38.2-17.7-38.2-39.5S122.3,303.3,143.4,303.3z   "/>
	<path class="st2" d="M249,324c17.7,0,32.1,14.8,32.1,33.1s-14.4,33.2-32.1,33.2s-32.1-14.8-32.1-33.1S231.3,324,249,324z"/>
	<path class="st2" d="M188.1,278.5c35.5,0,64.3,25,64.3,55.9s-28.8,55.9-64.3,55.9s-64.3-25-64.3-55.9S152.6,278.5,188.1,278.5z"/>
	<path class="st2" d="M92.3,337.3c14.2,0,25.7,11.9,25.7,26.5s-11.5,26.5-25.7,26.5s-25.7-11.9-25.7-26.5S78.1,337.3,92.3,337.3z"/>
	<path class="st2" d="M98.7,358.5H240c11.2,0,20.3,7.1,20.3,15.9s-9.1,15.9-20.3,15.9H98.7c-11.2,0-20.3-7.1-20.3-15.9   S87.4,358.5,98.7,358.5z"/>
	<path class="st2" d="M134.3,303.3c21.1,0,38.2,17.7,38.2,39.5s-17.1,39.5-38.2,39.5S96,364.6,96,342.8S113.1,303.3,134.3,303.3z"/>
	<path class="st2" d="M239.9,324c17.7,0,32.1,14.8,32.1,33.1s-14.4,33.1-32.1,33.1s-32.1-14.8-32.1-33.1S222.2,324,239.9,324z"/>
	<path class="st2" d="M191.9,286.6c34.6,0,62.7,23.6,62.7,52.7S226.5,392,191.9,392s-62.7-23.6-62.7-52.7S157.2,286.6,191.9,286.6z"/>
	<path class="st2" d="M98.4,342.1c13.8,0,25,11.2,25,25s-11.2,25-25,25s-25-11.2-25-25S84.6,342.1,98.4,342.1L98.4,342.1z"/>
	<path class="st2" d="M104.7,362.1h137.8c10.9,0,19.8,6.7,19.8,15s-8.9,15-19.8,15H104.7c-10.9,0-19.8-6.7-19.8-15   S93.7,362.1,104.7,362.1z"/>
	<path class="st2" d="M139.4,310c20.6,0,37.3,16.7,37.3,37.3s-16.7,37.3-37.3,37.3s-37.3-16.7-37.3-37.3l0,0   C102.1,326.7,118.8,310,139.4,310z"/>
	<path class="st2" d="M242.4,329.6c17.3,0,31.3,14,31.3,31.3c0,17.3-14,31.3-31.3,31.3s-31.3-14-31.3-31.3l0,0   C211.1,343.6,225.1,329.6,242.4,329.6z"/>
	<path class="st1" d="M250.4,143.1c51.6,0,93.3,35.1,93.3,78.4S301.9,300,250.4,300S157,264.8,157,221.5S198.8,143.1,250.4,143.1z"/>
	<path class="st1" d="M111.3,225.7c20.6,0,37.2,16.7,37.2,37.2s-16.7,37.2-37.2,37.2s-37.2-16.7-37.2-37.2S90.7,225.7,111.3,225.7   L111.3,225.7z"/>
	<path class="st1" d="M120.6,255.4h205.1c16.3,0,29.5,10,29.5,22.3S342,300,325.7,300H120.6c-16.3,0-29.5-10-29.5-22.3   S104.3,255.4,120.6,255.4z"/>
	<path class="st1" d="M172.3,177.8c30.7,0,55.5,24.9,55.5,55.5s-24.9,55.5-55.5,55.5s-55.5-24.9-55.5-55.5l0,0   C116.8,202.7,141.6,177.8,172.3,177.8z"/>
	<path class="st1" d="M329.7,188.9c30.7,0,55.5,24.9,55.5,55.5s-24.9,55.5-55.5,55.5s-55.5-24.9-55.5-55.5S299,188.9,329.7,188.9   L329.7,188.9z"/>
	
		<linearGradient id="SVGID_2_" gradientUnits="userSpaceOnUse" x1="255.27" y1="360.6" x2="255.27" y2="202.97" gradientTransform="matrix(1 0 0 -1 0 512)">
		<stop offset="0" style="stop-color:#A5A5A5"/>
		<stop offset="1" style="stop-color:#4F4F50"/>
	</linearGradient>
	<path class="st3" d="M255.3,151.4c51.6,0,93.3,35.1,93.3,78.4s-41.8,78.4-93.3,78.4s-93.3-35.1-93.3-78.4S203.7,151.4,255.3,151.4z   "/>
	
		<linearGradient id="SVGID_3_" gradientUnits="userSpaceOnUse" x1="116.23" y1="360.56" x2="116.23" y2="202.93" gradientTransform="matrix(1 0 0 -1 0 512)">
		<stop offset="0" style="stop-color:#A5A5A5"/>
		<stop offset="1" style="stop-color:#4F4F50"/>
	</linearGradient>
	<path class="st4" d="M116.2,234c20.6,0,37.2,16.6,37.3,37.2s-16.6,37.2-37.2,37.3S79,291.8,79,271.3c0,0,0,0,0,0   C79,250.7,95.7,234,116.2,234z"/>
	
		<linearGradient id="SVGID_4_" gradientUnits="userSpaceOnUse" x1="228.05" y1="360.56" x2="228.05" y2="202.93" gradientTransform="matrix(1 0 0 -1 0 512)">
		<stop offset="0" style="stop-color:#A5A5A5"/>
		<stop offset="1" style="stop-color:#4F4F50"/>
	</linearGradient>
	<path class="st5" d="M125.5,263.7h205.1c16.3,0,29.5,10,29.5,22.3s-13.2,22.3-29.5,22.3H125.5c-16.3,0-29.5-10-29.5-22.3   S109.2,263.7,125.5,263.7z"/>
	
		<linearGradient id="SVGID_5_" gradientUnits="userSpaceOnUse" x1="177.16" y1="360.56" x2="177.16" y2="202.93" gradientTransform="matrix(1 0 0 -1 0 512)">
		<stop offset="0" style="stop-color:#A5A5A5"/>
		<stop offset="1" style="stop-color:#4F4F50"/>
	</linearGradient>
	<path class="st6" d="M177.2,186.2c30.7,0,55.5,24.9,55.5,55.5s-24.9,55.5-55.5,55.5s-55.5-24.9-55.5-55.5l0,0   C121.7,211,146.5,186.2,177.2,186.2z"/>
	
		<linearGradient id="SVGID_6_" gradientUnits="userSpaceOnUse" x1="334.58" y1="360.56" x2="334.58" y2="202.93" gradientTransform="matrix(1 0 0 -1 0 512)">
		<stop offset="0" style="stop-color:#A5A5A5"/>
		<stop offset="1" style="stop-color:#4F4F50"/>
	</linearGradient>
	<path class="st7" d="M334.6,197.3c30.7,0,55.5,24.9,55.5,55.5s-24.9,55.5-55.5,55.5s-55.5-24.9-55.5-55.5S303.9,197.3,334.6,197.3   L334.6,197.3z"/>
	
		<radialGradient id="SVGID_7_" cx="314.57" cy="172.71" r="122.85" gradientTransform="matrix(1 0 0 -1 0 512)" gradientUnits="userSpaceOnUse">
		<stop offset="0.37" style="stop-color:#292929;stop-opacity:0.6"/>
		<stop offset="0.69" style="stop-color:#3B3B3B;stop-opacity:0.54"/>
		<stop offset="0.86" style="stop-color:#777777;stop-opacity:0.35"/>
		<stop offset="0.99" style="stop-color:#DEDEDE;stop-opacity:2.000000e-02"/>
		<stop offset="1" style="stop-color:#E3E3E3;stop-opacity:0"/>
	</radialGradient>
	<path class="st8" d="M206.8,296c21.6,0,39.2,17.6,39.2,39.2c0,21.6-17.6,39.2-39.2,39.2s-39.2-17.6-39.2-39.2S185.2,296,206.8,296   C206.8,296,206.8,296,206.8,296z"/>
	
		<radialGradient id="SVGID_8_" cx="314.57" cy="172.71" r="122.85" gradientTransform="matrix(1 0 0 -1 0 512)" gradientUnits="userSpaceOnUse">
		<stop offset="0.37" style="stop-color:#292929;stop-opacity:0.6"/>
		<stop offset="0.69" style="stop-color:#3B3B3B;stop-opacity:0.54"/>
		<stop offset="0.86" style="stop-color:#777777;stop-opacity:0.35"/>
		<stop offset="0.99" style="stop-color:#DEDEDE;stop-opacity:2.000000e-02"/>
		<stop offset="1" style="stop-color:#E3E3E3;stop-opacity:0"/>
	</radialGradient>
	<path class="st9" d="M326.7,235.8c45.5,0,82.4,31,82.4,69.3s-36.9,69.3-82.4,69.3s-82.4-31-82.4-69.3S281.2,235.8,326.7,235.8z"/>
	
		<radialGradient id="SVGID_9_" cx="314.57" cy="172.71" r="122.85" gradientTransform="matrix(1 0 0 -1 0 512)" gradientUnits="userSpaceOnUse">
		<stop offset="0.37" style="stop-color:#292929;stop-opacity:0.6"/>
		<stop offset="0.69" style="stop-color:#3B3B3B;stop-opacity:0.54"/>
		<stop offset="0.86" style="stop-color:#777777;stop-opacity:0.35"/>
		<stop offset="0.99" style="stop-color:#DEDEDE;stop-opacity:2.000000e-02"/>
		<stop offset="1" style="stop-color:#E3E3E3;stop-opacity:0"/>
	</radialGradient>
	<path class="st10" d="M212.1,335h181.1c14.4,0,26,8.8,26,19.7s-11.7,19.7-26,19.7H212.1c-14.4,0-26-8.8-26-19.7   S197.7,335,212.1,335z"/>
	
		<radialGradient id="SVGID_10_" cx="314.57" cy="172.71" r="122.85" gradientTransform="matrix(1 0 0 -1 0 512)" gradientUnits="userSpaceOnUse">
		<stop offset="0.37" style="stop-color:#292929;stop-opacity:0.6"/>
		<stop offset="0.69" style="stop-color:#3B3B3B;stop-opacity:0.54"/>
		<stop offset="0.86" style="stop-color:#777777;stop-opacity:0.35"/>
		<stop offset="0.99" style="stop-color:#DEDEDE;stop-opacity:2.000000e-02"/>
		<stop offset="1" style="stop-color:#E3E3E3;stop-opacity:0"/>
	</radialGradient>
	<path class="st11" d="M257.7,266.5c27.1,0,49,21.9,49,49s-21.9,49-49,49s-49-21.9-49-49l0,0C208.7,288.5,230.7,266.5,257.7,266.5z"/>
	
		<radialGradient id="SVGID_11_" cx="314.57" cy="172.71" r="122.85" gradientTransform="matrix(1 0 0 -1 0 512)" gradientUnits="userSpaceOnUse">
		<stop offset="0.37" style="stop-color:#292929;stop-opacity:0.6"/>
		<stop offset="0.69" style="stop-color:#3B3B3B;stop-opacity:0.54"/>
		<stop offset="0.86" style="stop-color:#777777;stop-opacity:0.35"/>
		<stop offset="0.99" style="stop-color:#DEDEDE;stop-opacity:2.000000e-02"/>
		<stop offset="1" style="stop-color:#E3E3E3;stop-opacity:0"/>
	</radialGradient>
	<path class="st12" d="M396.7,276.3c27.1,0,49,21.9,49,49s-21.9,49-49,49s-49-21.9-49-49S369.7,276.3,396.7,276.3L396.7,276.3z"/>
	<path class="st1" d="M215.8,305.9c22.9,0,41.4,18.5,41.4,41.4s-18.5,41.4-41.4,41.4s-41.4-18.5-41.4-41.4l0,0   C174.4,324.5,192.9,305.9,215.8,305.9z"/>
	<path class="st1" d="M342.5,242.3c48.1,0,87.1,32.8,87.1,73.2s-39,73.2-87.1,73.2s-87.1-32.7-87.1-73.2S294.4,242.3,342.5,242.3z"/>
	<path class="st1" d="M221.4,347.1h191.4c15.2,0,27.5,9.3,27.5,20.9s-12.3,20.8-27.5,20.8H221.4c-15.2,0-27.5-9.3-27.5-20.9   S206.2,347.1,221.4,347.1z"/>
	<path class="st1" d="M269.6,274.8c28.6,0,51.8,23.2,51.8,51.8s-23.2,51.8-51.8,51.8s-51.8-23.2-51.8-51.8l0,0   C217.8,298,241,274.8,269.6,274.8z"/>
	<path class="st1" d="M416.5,285.1c28.6,0,51.8,23.2,51.8,51.8s-23.2,51.8-51.8,51.8s-51.8-23.2-51.8-51.8l0,0   C364.7,308.3,387.9,285.1,416.5,285.1z"/>
	
		<linearGradient id="SVGID_12_" gradientUnits="userSpaceOnUse" x1="228" y1="260.01" x2="228" y2="122.04" gradientTransform="matrix(1 0 0 -1 0 512)">
		<stop offset="0" style="stop-color:#A5A5A5"/>
		<stop offset="1" style="stop-color:#4F4F50"/>
	</linearGradient>
	<path class="st13" d="M228,312.2c21.8,0,39.4,17.6,39.4,39.4c0,21.8-17.6,39.4-39.4,39.4s-39.4-17.6-39.4-39.4   S206.2,312.2,228,312.2L228,312.2z"/>
	
		<linearGradient id="SVGID_13_" gradientUnits="userSpaceOnUse" x1="348.56" y1="260.01" x2="348.56" y2="122.04" gradientTransform="matrix(1 0 0 -1 0 512)">
		<stop offset="0" style="stop-color:#A5A5A5"/>
		<stop offset="1" style="stop-color:#4F4F50"/>
	</linearGradient>
	<path class="st14" d="M348.6,251.7c45.8,0,82.9,31.2,82.9,69.7S394.3,391,348.6,391s-82.9-31.2-82.9-69.7S302.8,251.7,348.6,251.7z   "/>
	
		<linearGradient id="SVGID_14_" gradientUnits="userSpaceOnUse" x1="324.385" y1="260.01" x2="324.385" y2="122.04" gradientTransform="matrix(1 0 0 -1 0 512)">
		<stop offset="0" style="stop-color:#A5A5A5"/>
		<stop offset="1" style="stop-color:#4F4F50"/>
	</linearGradient>
	<path class="st15" d="M233.3,351.5h182.1c14.5,0,26.2,8.9,26.2,19.8s-11.7,19.8-26.2,19.8H233.3c-14.5,0-26.2-8.9-26.2-19.8   S218.9,351.5,233.3,351.5z"/>
	
		<linearGradient id="SVGID_15_" gradientUnits="userSpaceOnUse" x1="279.19" y1="260.01" x2="279.19" y2="122.04" gradientTransform="matrix(1 0 0 -1 0 512)">
		<stop offset="0" style="stop-color:#A5A5A5"/>
		<stop offset="1" style="stop-color:#4F4F50"/>
	</linearGradient>
	<path class="st16" d="M279.2,282.6c27.2,0,49.3,22.1,49.3,49.3c0,27.2-22.1,49.3-49.3,49.3s-49.3-22.1-49.3-49.3l0,0   C229.9,304.7,252,282.6,279.2,282.6z"/>
	
		<linearGradient id="SVGID_16_" gradientUnits="userSpaceOnUse" x1="419" y1="260.01" x2="419" y2="122.04" gradientTransform="matrix(1 0 0 -1 0 512)">
		<stop offset="0" style="stop-color:#A5A5A5"/>
		<stop offset="1" style="stop-color:#4F4F50"/>
	</linearGradient>
	<path class="st17" d="M419,292.5c27.2,0,49.3,22.1,49.3,49.3c0,27.2-22.1,49.3-49.3,49.3c-27.2,0-49.3-22.1-49.3-49.3l0,0   C369.7,314.5,391.8,292.5,419,292.5z"/>
	
		<radialGradient id="SVGID_17_" cx="190.19" cy="140.97" r="109.85" gradientTransform="matrix(1 0 0 -1 0 512)" gradientUnits="userSpaceOnUse">
		<stop offset="0.37" style="stop-color:#292929;stop-opacity:0.6"/>
		<stop offset="0.69" style="stop-color:#3B3B3B;stop-opacity:0.54"/>
		<stop offset="0.86" style="stop-color:#777777;stop-opacity:0.35"/>
		<stop offset="0.99" style="stop-color:#DEDEDE;stop-opacity:2.000000e-02"/>
		<stop offset="1" style="stop-color:#E3E3E3;stop-opacity:0"/>
	</radialGradient>
	<path class="st18" d="M188.4,278.5c35.5,0,64.3,25,64.3,55.9s-28.8,55.9-64.3,55.9s-64.3-25-64.3-55.9S152.9,278.5,188.4,278.5z"/>
	
		<radialGradient id="SVGID_18_" cx="190.19" cy="140.97" r="109.85" gradientTransform="matrix(1 0 0 -1 0 512)" gradientUnits="userSpaceOnUse">
		<stop offset="0.37" style="stop-color:#292929;stop-opacity:0.6"/>
		<stop offset="0.69" style="stop-color:#3B3B3B;stop-opacity:0.54"/>
		<stop offset="0.86" style="stop-color:#777777;stop-opacity:0.35"/>
		<stop offset="0.99" style="stop-color:#DEDEDE;stop-opacity:2.000000e-02"/>
		<stop offset="1" style="stop-color:#E3E3E3;stop-opacity:0"/>
	</radialGradient>
	<path class="st19" d="M92.6,337.3c14.2,0,25.7,11.9,25.7,26.5s-11.5,26.5-25.7,26.5s-25.7-11.9-25.7-26.5S78.4,337.3,92.6,337.3z"/>
	
		<radialGradient id="SVGID_19_" cx="190.19" cy="140.97" r="109.85" gradientTransform="matrix(1 0 0 -1 0 512)" gradientUnits="userSpaceOnUse">
		<stop offset="0.37" style="stop-color:#292929;stop-opacity:0.6"/>
		<stop offset="0.69" style="stop-color:#3B3B3B;stop-opacity:0.54"/>
		<stop offset="0.86" style="stop-color:#777777;stop-opacity:0.35"/>
		<stop offset="0.99" style="stop-color:#DEDEDE;stop-opacity:2.000000e-02"/>
		<stop offset="1" style="stop-color:#E3E3E3;stop-opacity:0"/>
	</radialGradient>
	<path class="st20" d="M99,358.5h141.3c11.2,0,20.3,7.1,20.3,15.9s-9.1,15.9-20.3,15.9H99c-11.2,0-20.3-7.1-20.3-15.9   S87.7,358.5,99,358.5z"/>
	
		<radialGradient id="SVGID_20_" cx="190.19" cy="140.97" r="109.85" gradientTransform="matrix(1 0 0 -1 0 512)" gradientUnits="userSpaceOnUse">
		<stop offset="0.37" style="stop-color:#292929;stop-opacity:0.6"/>
		<stop offset="0.69" style="stop-color:#3B3B3B;stop-opacity:0.54"/>
		<stop offset="0.86" style="stop-color:#777777;stop-opacity:0.35"/>
		<stop offset="0.99" style="stop-color:#DEDEDE;stop-opacity:2.000000e-02"/>
		<stop offset="1" style="stop-color:#E3E3E3;stop-opacity:0"/>
	</radialGradient>
	<path class="st21" d="M134.6,303.3c21.1,0,38.2,17.7,38.2,39.5s-17.1,39.5-38.2,39.5s-38.2-17.7-38.2-39.5S113.4,303.3,134.6,303.3   z"/>
	
		<radialGradient id="SVGID_21_" cx="190.19" cy="140.97" r="109.85" gradientTransform="matrix(1 0 0 -1 0 512)" gradientUnits="userSpaceOnUse">
		<stop offset="0.37" style="stop-color:#292929;stop-opacity:0.6"/>
		<stop offset="0.69" style="stop-color:#3B3B3B;stop-opacity:0.54"/>
		<stop offset="0.86" style="stop-color:#777777;stop-opacity:0.35"/>
		<stop offset="0.99" style="stop-color:#DEDEDE;stop-opacity:2.000000e-02"/>
		<stop offset="1" style="stop-color:#E3E3E3;stop-opacity:0"/>
	</radialGradient>
	<path class="st22" d="M240.2,324c17.7,0,32.1,14.8,32.1,33.1s-14.4,33.1-32.1,33.1s-32.1-14.8-32.1-33.1S222.4,324,240.2,324z"/>
	<path class="st1" d="M179.2,278.5c35.5,0,64.3,25,64.3,55.9s-28.8,55.9-64.3,55.9s-64.3-25-64.3-55.9S143.7,278.5,179.2,278.5z"/>
	<path class="st1" d="M83.4,337.3c14.2,0,25.7,11.9,25.7,26.5s-11.5,26.5-25.7,26.5s-25.7-11.9-25.7-26.5S69.2,337.3,83.4,337.3z"/>
	<path class="st1" d="M89.8,358.5h141.3c11.2,0,20.3,7.1,20.3,15.9s-9.1,15.9-20.3,15.9H89.8c-11.2,0-20.3-7.1-20.3-15.9   S78.6,358.5,89.8,358.5z"/>
	<path class="st1" d="M125.4,303.3c21.1,0,38.2,17.7,38.2,39.5s-17.1,39.5-38.2,39.5s-38.2-17.7-38.2-39.5S104.3,303.3,125.4,303.3z   "/>
	<path class="st1" d="M231,324c17.7,0,32.1,14.8,32.1,33.1s-14.3,33.2-32.1,33.2s-32.1-14.8-32.1-33.1S213.3,324,231,324z"/>
	
		<linearGradient id="SVGID_22_" gradientUnits="userSpaceOnUse" x1="183" y1="223.59" x2="183" y2="117.13" gradientTransform="matrix(1 0 0 -1 0 512)">
		<stop offset="0" style="stop-color:#A5A5A5"/>
		<stop offset="1" style="stop-color:#4F4F50"/>
	</linearGradient>
	<path class="st23" d="M183,286.6c34.6,0,62.7,23.6,62.7,52.7S217.6,392,183,392s-62.7-23.6-62.7-52.7S148.4,286.6,183,286.6z"/>
	
		<linearGradient id="SVGID_23_" gradientUnits="userSpaceOnUse" x1="89.55" y1="223.59" x2="89.55" y2="117.13" gradientTransform="matrix(1 0 0 -1 0 512)">
		<stop offset="0" style="stop-color:#A5A5A5"/>
		<stop offset="1" style="stop-color:#4F4F50"/>
	</linearGradient>
	<path class="st24" d="M89.6,342.1c13.8,0,25,11.2,25,25s-11.2,25-25,25s-25-11.2-25-25S75.7,342.1,89.6,342.1L89.6,342.1z"/>
	
		<linearGradient id="SVGID_24_" gradientUnits="userSpaceOnUse" x1="164.72" y1="223.59" x2="164.72" y2="117.13" gradientTransform="matrix(1 0 0 -1 0 512)">
		<stop offset="0" style="stop-color:#A5A5A5"/>
		<stop offset="1" style="stop-color:#4F4F50"/>
	</linearGradient>
	<path class="st25" d="M95.8,362.1h137.8c10.9,0,19.8,6.7,19.8,15s-8.9,15-19.8,15H95.8c-10.9,0-19.8-6.7-19.8-15   S84.9,362.1,95.8,362.1z"/>
	
		<linearGradient id="SVGID_25_" gradientUnits="userSpaceOnUse" x1="130.52" y1="223.59" x2="130.52" y2="117.13" gradientTransform="matrix(1 0 0 -1 0 512)">
		<stop offset="0" style="stop-color:#A5A5A5"/>
		<stop offset="1" style="stop-color:#4F4F50"/>
	</linearGradient>
	<path class="st26" d="M130.5,310c20.6,0,37.3,16.7,37.3,37.3s-16.7,37.3-37.3,37.3s-37.3-16.7-37.3-37.3l0,0   C93.2,326.7,109.9,310,130.5,310z"/>
	
		<linearGradient id="SVGID_26_" gradientUnits="userSpaceOnUse" x1="233.51" y1="223.59" x2="233.51" y2="117.13" gradientTransform="matrix(1 0 0 -1 0 512)">
		<stop offset="0" style="stop-color:#A5A5A5"/>
		<stop offset="1" style="stop-color:#4F4F50"/>
	</linearGradient>
	<path class="st27" d="M233.5,329.6c17.3,0,31.3,14,31.3,31.3c0,17.3-14,31.3-31.3,31.3s-31.3-14-31.3-31.3l0,0   C202.2,343.6,216.2,329.6,233.5,329.6z"/>
</g>
</svg>