<svg version="1" xmlns="http://www.w3.org/2000/svg" xmlns:xlink="http://www.w3.org/1999/xlink" viewBox="0 0 500 500" xml:space="preserve">
	<g id="rays-half" fill="#F47722">
		<path d="M312.271,367.644c-1.658-3.868-5.449-6.37-9.66-6.37c-1.422,0-2.813,0.284-4.129,0.85   c-2.578,1.103-4.573,3.145-5.617,5.749c-1.043,2.604-1.01,5.46,0.095,8.038l10.204,23.847c1.656,3.871,5.447,6.373,9.66,6.373   c1.424,0,2.813-0.286,4.128-0.85c2.579-1.104,4.573-3.146,5.618-5.749c1.043-2.605,1.01-5.461-0.094-8.04L312.271,367.644z"/>
		<path d="M188.752,132.408c1.656,3.872,5.448,6.373,9.66,6.373c1.423,0,2.813-0.286,4.128-0.849   c2.58-1.104,4.575-3.146,5.619-5.75c1.043-2.605,1.009-5.46-0.094-8.039l-10.206-23.846c-1.656-3.872-5.448-6.374-9.66-6.374   c-1.422,0-2.812,0.286-4.129,0.85c-2.574,1.102-4.568,3.145-5.613,5.752c-1.044,2.607-1.012,5.461,0.09,8.036L188.752,132.408z"/>
		<path d="M368.132,188.266c-5.323,2.278-7.801,8.464-5.522,13.79c1.658,3.871,5.449,6.373,9.66,6.373   c1.422,0,2.813-0.285,4.129-0.849l23.846-10.206c2.58-1.103,4.574-3.146,5.617-5.75c1.045-2.605,1.011-5.459-0.094-8.039   c-1.656-3.871-5.446-6.373-9.66-6.373c-1.424,0-2.813,0.286-4.129,0.849L368.132,188.266z"/>
		<path d="M132.895,311.784c2.579-1.104,4.574-3.146,5.618-5.749c1.044-2.605,1.01-5.46-0.093-8.039   c-1.657-3.871-5.449-6.373-9.66-6.373c-1.421,0-2.811,0.286-4.128,0.85l-23.847,10.204c-2.574,1.104-4.568,3.146-5.613,5.752   c-1.044,2.607-1.012,5.462,0.089,8.036c1.656,3.872,5.448,6.375,9.66,6.375c1.42,0,2.81-0.287,4.129-0.851L132.895,311.784z"/>
		<path d="M400.28,302.566l-23.854-10.188c-1.313-0.562-2.699-0.846-4.119-0.846c-4.217,0-8.01,2.505-9.664,6.381   c-1.104,2.58-1.135,5.435-0.089,8.038s3.041,4.645,5.621,5.745l23.854,10.188c1.313,0.563,2.699,0.849,4.119,0.849   c4.217,0,8.01-2.507,9.664-6.383c1.103-2.58,1.135-5.434,0.088-8.037C404.857,305.709,402.859,303.668,400.28,302.566z"/>
		<path d="M100.744,197.487l23.854,10.187c1.314,0.562,2.701,0.846,4.121,0.846c4.216,0,8.008-2.504,9.662-6.379   c1.104-2.581,1.135-5.436,0.089-8.039c-1.045-2.604-3.042-4.644-5.622-5.746l-23.853-10.188c-1.316-0.561-2.703-0.846-4.123-0.846   c-4.216,0-8.008,2.504-9.662,6.381c-1.103,2.58-1.134,5.435-0.089,8.038C96.167,194.345,98.164,196.386,100.744,197.487z"/>
		<path d="M298.398,137.896c1.314,0.561,2.703,0.845,4.121,0.845c4.217,0,8.01-2.504,9.664-6.38l10.188-23.853   c2.273-5.327-0.207-11.51-5.533-13.785c-1.314-0.562-2.701-0.846-4.122-0.846c-4.215,0-8.008,2.504-9.661,6.38l-10.188,23.854   C290.592,129.435,293.074,135.619,298.398,137.896z"/>
		<path d="M202.626,362.157c-1.316-0.563-2.703-0.85-4.124-0.85c-4.215,0-8.006,2.507-9.66,6.382l-10.189,23.854   c-2.274,5.325,0.208,11.51,5.534,13.785c1.314,0.562,2.701,0.847,4.121,0.847c4.215,0,8.008-2.505,9.664-6.382l10.186-23.853   c1.102-2.579,1.134-5.436,0.089-8.039S205.206,363.258,202.626,362.157z"/>
	</g>
	<g id="rays-full" fill="#F47722">
		<path d="M250.514,128.401c5.859,0,10.629-4.769,10.629-10.63V60.269c0-5.862-4.77-10.63-10.629-10.63   c-5.863,0-10.632,4.768-10.632,10.63v57.502C239.882,123.633,244.65,128.401,250.514,128.401z"/>
		<path d="M250.514,371.955c-5.863,0-10.632,4.769-10.632,10.63v57.146c0,5.858,4.769,10.63,10.632,10.63   c5.859,0,10.629-4.771,10.629-10.63v-57.146C261.143,376.724,256.373,371.955,250.514,371.955z"/>
		<path d="M439.37,239.551h-56.451c-5.86,0-10.63,4.768-10.63,10.63c0,5.86,4.77,10.629,10.63,10.629h56.451   c5.861,0,10.63-4.771,10.63-10.629C450,244.319,445.231,239.551,439.37,239.551z"/>
		<path d="M128.74,250.178c0-5.862-4.769-10.631-10.63-10.631H60.63c-5.861,0-10.63,4.769-10.63,10.631   c0,5.861,4.769,10.631,10.63,10.631h57.48C123.971,260.809,128.74,256.039,128.74,250.178z"/>
		<path d="M343.861,167.488c2.843,0,5.512-1.104,7.516-3.109l40.661-40.661c2.005-2.005,3.11-4.674,3.11-7.516   c0-2.842-1.105-5.512-3.11-7.517c-2.004-2.005-4.673-3.109-7.517-3.109c-2.843,0-5.511,1.104-7.518,3.108l-40.659,40.661   c-4.145,4.145-4.145,10.888,0,15.033C338.352,166.384,341.02,167.488,343.861,167.488z"/>
		<path d="M156.611,333.488c-2.844,0-5.513,1.104-7.516,3.107l-40.409,40.408c-2.006,2.007-3.111,4.677-3.11,7.52   c0,2.842,1.105,5.511,3.11,7.516s4.674,3.11,7.515,3.11c2.842,0,5.512-1.105,7.518-3.11l40.408-40.409   c4.145-4.144,4.145-10.888,0-15.032C162.123,334.593,159.453,333.488,156.611,333.488z"/>
		<path d="M351.377,336.601c-2.005-2.006-4.675-3.109-7.518-3.109c-2.842,0-5.512,1.104-7.518,3.108   c-2.005,2.005-3.107,4.676-3.107,7.519c0,2.842,1.104,5.512,3.108,7.516l39.917,39.917c2.006,2.005,4.676,3.11,7.518,3.11   s5.511-1.105,7.516-3.11s3.109-4.674,3.109-7.516c0-2.843-1.104-5.512-3.109-7.519L351.377,336.601z"/>
		<path d="M149.097,164.382c2.006,2.005,4.676,3.109,7.517,3.109c2.842,0,5.511-1.104,7.516-3.109   c2.006-2.005,3.111-4.675,3.111-7.517c0-2.842-1.105-5.512-3.11-7.517l-40.645-40.645c-2.004-2.005-4.673-3.109-7.516-3.109   c-2.842,0-5.512,1.104-7.518,3.11c-4.144,4.145-4.144,10.888,0,15.032L149.097,164.382z"/>
	</g>
	<path id="suncorering" fill="#F47722" d="M250.514,145.969c-57.458,0-104.208,46.749-104.208,104.212c0,57.458,46.748,104.204,104.208,104.204   c57.463,0,104.211-46.746,104.211-104.204C354.725,192.718,307.977,145.969,250.514,145.969z M250.514,333.125   c-45.737,0-82.946-37.208-82.946-82.944c0-45.74,37.209-82.952,82.946-82.952c45.738,0,82.951,37.212,82.951,82.952   C333.465,295.917,296.252,333.125,250.514,333.125z"/>
	<path id="suncore" fill="#F2C7AA" d="M250.514,333.125c-45.738,0-82.947-37.208-82.947-82.943c0-45.741,37.209-82.953,82.947-82.953  c45.737,0,82.95,37.212,82.95,82.953C333.464,295.917,296.251,333.125,250.514,333.125z"/>
</svg>
