<?xml version="1.0" encoding="UTF-8"?>
<!-- Generator: Adobe Illustrator 16.0.0, SVG Export Plug-In . SVG Version: 6.00 Build 0)  -->
<!DOCTYPE svg PUBLIC "-//W3C//DTD SVG 1.1//EN" "http://www.w3.org/Graphics/SVG/1.1/DTD/svg11.dtd">
<svg version="1.1" id="Layer_2" xmlns="http://www.w3.org/2000/svg" xmlns:xlink="http://www.w3.org/1999/xlink" x="0px" y="0px" width="500px" height="500px" viewBox="0 0 500 500" enable-background="new 0 0 500 500" xml:space="preserve">
<g>
	<g>
		<path fill="#58A1D4" d="M127.733,396.743c-2.92,0-5.858-0.978-8.285-2.983c-5.536-4.579-6.311-12.778-1.731-18.316l37.124-44.878    c4.58-5.534,12.781-6.311,18.317-1.729c5.536,4.574,6.312,12.774,1.731,18.315l-37.124,44.878    C135.192,395.135,131.477,396.743,127.733,396.743z"/>
	</g>
	<g>
		<path fill="#58A1D4" d="M231.771,396.743c-2.921,0-5.859-0.978-8.286-2.983c-5.536-4.579-6.312-12.778-1.731-18.316l37.125-44.878    c4.577-5.534,12.779-6.311,18.314-1.729c5.535,4.574,6.313,12.774,1.732,18.315l-37.125,44.878    C239.229,395.135,235.513,396.743,231.771,396.743z"/>
	</g>
	<g>
		<path fill="#58A1D4" d="M334.584,396.743c-2.921,0-5.857-0.979-8.288-2.983c-5.534-4.579-6.31-12.778-1.728-18.316l37.131-44.877    c4.579-5.534,12.779-6.309,18.314-1.727c5.536,4.574,6.312,12.774,1.731,18.314l-37.132,44.878    C342.042,395.135,338.327,396.743,334.584,396.743z"/>
	</g>
	<g>
		<path fill="#58A1D4" d="M231.771,396.743c-2.921,0-5.859-0.978-8.286-2.983c-5.536-4.579-6.312-12.778-1.731-18.316l37.125-44.878    c4.577-5.534,12.779-6.311,18.314-1.729c5.535,4.574,6.313,12.774,1.732,18.315l-37.125,44.878    C239.229,395.135,235.513,396.743,231.771,396.743z"/>
	</g>
	<g>
		<path fill="#58A1D4" d="M231.771,396.743c-2.921,0-5.859-0.978-8.286-2.983c-5.536-4.579-6.312-12.778-1.731-18.316l37.125-44.878    c4.577-5.534,12.779-6.311,18.314-1.729c5.535,4.574,6.313,12.774,1.732,18.315l-37.125,44.878    C239.229,395.135,235.513,396.743,231.771,396.743z"/>
	</g>
	<g>
		<path fill="#58A1D4" d="M148.789,467.637c-2.921,0-5.859-0.977-8.286-2.982c-5.536-4.579-6.312-12.779-1.731-18.317l37.125-44.878    c4.577-5.534,12.779-6.31,18.314-1.728c5.535,4.573,6.313,12.773,1.733,18.314l-37.125,44.878    C156.247,466.028,152.531,467.637,148.789,467.637z"/>
	</g>
	<g>
		<path fill="#58A1D4" d="M251.602,467.637c-2.919,0-5.857-0.979-8.288-2.982c-5.535-4.579-6.31-12.779-1.728-18.317l37.13-44.877    c4.58-5.534,12.781-6.308,18.316-1.726c5.534,4.573,6.311,12.773,1.729,18.313l-37.131,44.878    C259.061,466.028,255.346,467.637,251.602,467.637z"/>
	</g>
	<g>
		<path fill="#58A1D4" d="M148.789,467.637c-2.921,0-5.859-0.977-8.286-2.982c-5.536-4.579-6.312-12.779-1.731-18.317l37.125-44.878    c4.577-5.534,12.779-6.31,18.314-1.728c5.535,4.573,6.313,12.773,1.733,18.314l-37.125,44.878    C156.247,466.028,152.531,467.637,148.789,467.637z"/>
	</g>
	<g>
		<path fill="#58A1D4" d="M148.789,467.637c-2.921,0-5.859-0.977-8.286-2.982c-5.536-4.579-6.312-12.779-1.731-18.317l37.125-44.878    c4.577-5.534,12.779-6.31,18.314-1.728c5.535,4.573,6.313,12.773,1.733,18.314l-37.125,44.878    C156.247,466.028,152.531,467.637,148.789,467.637z"/>
	</g>
	<g>
		<path fill="#FFFFFF" d="M374.229,182.543c-5.785-0.989-9.674-6.479-8.688-12.263c0.48-2.822,0.714-5.339,0.714-7.695    c0-24.343-19.807-44.147-44.151-44.147c-5.059,0-10.146,0.92-15.135,2.733c-4.671,1.7-9.887-0.061-12.572-4.234    c-16.582-25.754-44.705-41.129-75.228-41.129c-49.363,0-89.522,40.155-89.522,89.514c0,2.199,0.167,4.48,0.344,6.896    c0.377,5.15-2.999,9.878-8.007,11.137c-22.713,5.706-38.576,26.017-38.576,49.391c0,28.138,22.877,51.029,50.996,51.029h231.155    c28.146,0,51.034-22.896,51.034-51.029C416.593,207.854,398.775,186.741,374.229,182.543z"/>
		<path fill="#BFBFBF" d="M365.787,283.775H134.631c-28.119,0-50.996-22.896-50.996-51.029c0-23.374,15.863-43.687,38.576-49.394    c5.008-1.259,8.384-5.985,8.007-11.137c-0.177-2.415-0.344-4.696-0.344-6.896c0-49.358,40.16-89.514,89.522-89.514    c30.522,0,58.645,15.375,75.227,41.129c2.688,4.173,7.902,5.934,12.572,4.234c4.984-1.814,10.076-2.734,15.137-2.734    c24.345,0,44.15,19.805,44.15,44.147c0,2.356-0.232,4.874-0.715,7.695c-0.984,5.785,2.898,11.273,8.688,12.263    c24.549,4.199,42.365,25.313,42.365,50.203C416.821,260.885,393.928,283.775,365.787,283.775z"/>
		<path fill="#808083" d="M387.499,163.93c0.011-0.45,0.017-0.898,0.017-1.345c0-36.065-29.345-65.407-65.412-65.407    c-4.828,0-9.649,0.553-14.422,1.649c-20.89-27.869-53.414-44.279-88.513-44.279c-61.085,0-110.782,49.692-110.782,110.773    c0,0.025,0,0.051,0,0.076c-27.614,10.622-46.239,37.185-46.239,67.347c0,39.861,32.414,72.29,72.256,72.29h231.155    c39.863,0,72.294-32.429,72.294-72.29C437.853,200.83,417.191,173.299,387.499,163.93z M365.559,283.773H134.403    c-28.119,0-50.996-22.896-50.996-51.029c0-23.374,15.863-43.685,38.576-49.391c5.009-1.259,8.385-5.986,8.007-11.137    c-0.177-2.415-0.344-4.696-0.344-6.896c0-49.358,40.16-89.514,89.522-89.514c30.522,0,58.645,15.375,75.227,41.129    c2.688,4.174,7.902,5.935,12.573,4.234c4.984-1.813,10.076-2.733,15.136-2.733c24.349,0,44.15,19.805,44.15,44.147    c0,2.356-0.232,4.873-0.714,7.695c-0.985,5.784,2.901,11.273,8.687,12.263c24.549,4.198,42.365,25.311,42.365,50.201    C416.593,260.882,393.699,283.773,365.559,283.773z"/>
	</g>
</g>
</svg>