<?xml version="1.0" encoding="UTF-8"?>
<!-- Generator: Adobe Illustrator 16.0.0, SVG Export Plug-In . SVG Version: 6.00 Build 0)  -->
<!DOCTYPE svg PUBLIC "-//W3C//DTD SVG 1.1//EN" "http://www.w3.org/Graphics/SVG/1.1/DTD/svg11.dtd">
<svg version="1.1" id="Layer_2" xmlns="http://www.w3.org/2000/svg" xmlns:xlink="http://www.w3.org/1999/xlink" x="0px" y="0px" width="500px" height="500px" viewBox="0 0 500 500" enable-background="new 0 0 500 500" xml:space="preserve">
<g>
	<path fill="#8FCDF0" d="M288.973,417.79l-13.518-7.837l13.518-7.83c6.092-3.529,8.182-11.355,4.654-17.447   c-2.275-3.928-6.514-6.363-11.061-6.363c-2.235,0-4.441,0.594-6.385,1.721l-13.416,7.771v-15.508   c0-7.04-5.726-12.764-12.765-12.764c-7.041,0-12.767,5.724-12.767,12.764v15.485l-13.398-7.77   c-1.945-1.129-4.156-1.729-6.395-1.729c-4.542,0-8.777,2.438-11.054,6.364c-3.534,6.092-1.452,13.919,4.637,17.446l13.516,7.838   l-13.52,7.83c-6.092,3.527-8.178,11.349-4.65,17.445c2.274,3.931,6.513,6.372,11.06,6.372c2.234,0,4.442-0.6,6.386-1.727   l13.417-7.771v15.504c0,7.041,5.728,12.768,12.767,12.768s12.766-5.727,12.766-12.768v-15.479l13.397,7.771   c1.944,1.126,4.155,1.724,6.394,1.724c4.547,0,8.78-2.438,11.058-6.362c1.713-2.955,2.171-6.391,1.299-9.689   C294.032,422.258,291.923,419.5,288.973,417.79z"/>
	<path fill="#8FCDF0" d="M159.323,401.838L145.809,394l13.518-7.829c6.091-3.53,8.179-11.354,4.651-17.448   c-2.276-3.928-6.514-6.362-11.062-6.362c-2.234,0-4.442,0.593-6.386,1.72l-13.416,7.771v-15.51c0-7.04-5.727-12.77-12.765-12.77   c-7.041,0-12.769,5.729-12.769,12.77v15.485l-13.398-7.77c-1.945-1.131-4.156-1.729-6.395-1.729c-4.542,0-8.777,2.438-11.055,6.364   c-3.532,6.092-1.45,13.918,4.638,17.445l13.515,7.837l-13.519,7.83c-6.091,3.531-8.178,11.353-4.65,17.448   c2.274,3.931,6.514,6.372,11.061,6.372c2.234,0,4.442-0.604,6.386-1.726l13.416-7.771v15.504c0,7.041,5.727,12.769,12.768,12.769   c7.04,0,12.766-5.728,12.766-12.769v-15.486l13.396,7.771c1.945,1.132,4.157,1.729,6.394,1.729c4.545,0,8.779-2.438,11.055-6.363   c1.711-2.949,2.172-6.388,1.296-9.686C164.381,406.304,162.272,403.548,159.323,401.838z"/>
	<path fill="#8FCDF0" d="M418.626,401.838L405.111,394l13.518-7.829c6.092-3.53,8.183-11.354,4.651-17.448   c-2.271-3.928-6.513-6.362-11.058-6.362c-2.231,0-4.437,0.593-6.387,1.72l-13.409,7.771v-15.51c0-7.04-5.727-12.77-12.767-12.77   c-7.041,0-12.768,5.729-12.768,12.77v15.485l-13.397-7.77c-1.944-1.131-4.156-1.729-6.396-1.729c-4.546,0-8.777,2.438-11.056,6.364   c-3.532,6.092-1.45,13.918,4.64,17.445l13.518,7.837l-13.518,7.83c-6.09,3.531-8.178,11.353-4.65,17.448   c2.271,3.931,6.513,6.372,11.057,6.372c2.235,0,4.441-0.604,6.387-1.726l13.416-7.771v15.504c0,7.041,5.726,12.769,12.766,12.769   c7.042,0,12.767-5.728,12.767-12.769v-15.486l13.397,7.771c1.945,1.132,4.154,1.729,6.395,1.729c4.547,0,8.779-2.438,11.057-6.363   c1.712-2.949,2.172-6.388,1.298-9.686C423.682,406.305,421.576,403.548,418.626,401.838z"/>
	<path fill="none" d="M374.229,201.541c-5.785-0.989-9.674-6.478-8.688-12.263c0.48-2.821,0.714-5.339,0.714-7.695   c0-24.343-19.807-44.147-44.151-44.147c-5.059,0-10.146,0.92-15.135,2.734c-4.671,1.698-9.887-0.062-12.572-4.234   c-16.582-25.754-44.705-41.13-75.228-41.13c-49.363,0-89.522,40.156-89.522,89.514c0,2.2,0.167,4.48,0.344,6.896   c0.377,5.15-2.999,9.878-8.007,11.137c-22.713,5.707-38.576,26.019-38.576,49.394c0,28.139,22.877,51.029,50.996,51.029h231.155   c28.146,0,51.034-22.896,51.034-51.029C416.593,226.854,398.775,205.74,374.229,201.541z"/>
	<path fill="#F2F2F2" d="M365.561,302.775H134.404c-28.119,0-50.996-22.896-50.996-51.03c0-23.374,15.863-43.687,38.576-49.394   c5.008-1.259,8.384-5.985,8.007-11.137c-0.177-2.415-0.344-4.696-0.344-6.896c0-49.358,40.16-89.514,89.522-89.514   c30.522,0,58.646,15.375,75.228,41.129c2.688,4.173,7.901,5.934,12.572,4.234c4.984-1.814,10.076-2.734,15.137-2.734   c24.348,0,44.149,19.805,44.149,44.147c0,2.356-0.231,4.874-0.714,7.695c-0.984,5.785,2.9,11.273,8.688,12.263   c24.549,4.199,42.364,25.313,42.364,50.203C416.594,279.884,393.7,302.775,365.561,302.775z"/>
	<path fill="#808083" d="M387.499,182.929c0.011-0.45,0.017-0.898,0.017-1.346c0-36.065-29.345-65.407-65.412-65.407   c-4.828,0-9.649,0.554-14.422,1.65c-20.89-27.869-53.414-44.28-88.513-44.28c-61.085,0-110.782,49.693-110.782,110.773   c0,0.025,0,0.052,0,0.077c-27.617,10.621-46.239,37.184-46.239,67.349c0,39.86,32.414,72.289,72.256,72.289h231.155   c39.863,0,72.294-32.429,72.294-72.289C437.853,219.831,417.191,192.299,387.499,182.929z M365.559,302.774H134.403   c-28.119,0-50.996-22.896-50.996-51.029c0-23.375,15.863-43.687,38.576-49.394c5.008-1.259,8.384-5.986,8.007-11.137   c-0.177-2.415-0.344-4.695-0.344-6.896c0-49.357,40.16-89.514,89.522-89.514c30.522,0,58.645,15.376,75.227,41.13   c2.688,4.173,7.902,5.933,12.573,4.234c4.984-1.814,10.076-2.734,15.136-2.734c24.349,0,44.15,19.805,44.15,44.147   c0,2.356-0.232,4.874-0.714,7.695c-0.985,5.785,2.901,11.273,8.687,12.263c24.549,4.199,42.365,25.313,42.365,50.204   C416.593,279.884,393.699,302.774,365.559,302.774z"/>
</g>
</svg>