<?xml version="1.0" encoding="UTF-8"?>
<!-- Generator: Adobe Illustrator 16.0.0, SVG Export Plug-In . SVG Version: 6.00 Build 0)  -->
<!DOCTYPE svg PUBLIC "-//W3C//DTD SVG 1.1//EN" "http://www.w3.org/Graphics/SVG/1.1/DTD/svg11.dtd">
<svg version="1.1" id="Layer_2" xmlns="http://www.w3.org/2000/svg" xmlns:xlink="http://www.w3.org/1999/xlink" x="0px" y="0px" width="500px" height="500px" viewBox="0 0 500 500" enable-background="new 0 0 500 500" xml:space="preserve">
<g>
	<path fill="#FFFFFF" d="M374.229,201.541c-5.785-0.989-9.674-6.478-8.688-12.263c0.48-2.821,0.714-5.339,0.714-7.695   c0-24.343-19.807-44.147-44.151-44.147c-5.059,0-10.146,0.92-15.135,2.734c-4.671,1.698-9.887-0.062-12.572-4.234   c-16.582-25.754-44.705-41.13-75.228-41.13c-49.363,0-89.522,40.156-89.522,89.514c0,2.2,0.167,4.48,0.344,6.896   c0.377,5.15-2.999,9.878-8.007,11.137c-22.713,5.707-38.576,26.019-38.576,49.394c0,28.139,22.877,51.029,50.996,51.029h231.155   c28.146,0,51.034-22.896,51.034-51.029C416.593,226.854,398.775,205.74,374.229,201.541z"/>
	<path fill="#E5E5E5" d="M365.561,302.776H134.404c-28.119,0-50.996-22.896-50.996-51.03c0-23.374,15.863-43.687,38.576-49.394   c5.008-1.259,8.384-5.985,8.007-11.137c-0.177-2.415-0.344-4.696-0.344-6.896c0-49.358,40.16-89.514,89.522-89.514   c30.522,0,58.646,15.375,75.228,41.129c2.688,4.173,7.901,5.934,12.572,4.234c4.983-1.814,10.075-2.734,15.137-2.734   c24.347,0,44.149,19.805,44.149,44.147c0,2.356-0.231,4.874-0.715,7.695c-0.983,5.785,2.901,11.273,8.688,12.263   c24.549,4.199,42.361,25.313,42.361,50.203C416.594,279.885,393.701,302.776,365.561,302.776z"/>
	<path fill="#808083" d="M387.499,182.929c0.011-0.45,0.017-0.898,0.017-1.346c0-36.065-29.345-65.407-65.412-65.407   c-4.828,0-9.649,0.554-14.422,1.65c-20.89-27.869-53.414-44.28-88.513-44.28c-61.085,0-110.782,49.693-110.782,110.773   c0,0.025,0,0.052,0,0.077c-27.617,10.621-46.239,37.184-46.239,67.349c0,39.86,32.414,72.289,72.256,72.289h231.155   c39.863,0,72.294-32.429,72.294-72.289C437.853,219.831,417.191,192.299,387.499,182.929z M365.559,302.774H134.403   c-28.119,0-50.996-22.896-50.996-51.029c0-23.375,15.863-43.687,38.576-49.394c5.008-1.259,8.384-5.986,8.007-11.137   c-0.177-2.415-0.344-4.695-0.344-6.896c0-49.357,40.16-89.514,89.522-89.514c30.522,0,58.645,15.376,75.227,41.13   c2.688,4.173,7.902,5.933,12.573,4.234c4.984-1.814,10.076-2.734,15.136-2.734c24.349,0,44.15,19.805,44.15,44.147   c0,2.356-0.232,4.874-0.714,7.695c-0.985,5.785,2.901,11.273,8.687,12.263c24.549,4.199,42.365,25.313,42.365,50.204   C416.593,279.884,393.699,302.774,365.559,302.774z"/>
</g>
<g>
	<g>
		<path fill="#58A1D4" d="M128.003,414.34c-2.921,0-5.858-0.979-8.285-2.984c-5.536-4.58-6.312-12.78-1.732-18.316l37.125-44.876    c4.58-5.537,12.781-6.313,18.317-1.731c5.535,4.58,6.313,12.777,1.731,18.316l-37.124,44.876    C135.462,412.732,131.746,414.34,128.003,414.34z"/>
	</g>
	<g>
		<path fill="#58A1D4" d="M334.852,414.34c-2.92,0-5.857-0.981-8.285-2.986c-5.535-4.579-6.312-12.779-1.729-18.315l37.13-44.876    c4.58-5.535,12.782-6.312,18.318-1.729c5.535,4.58,6.31,12.78,1.729,18.316l-37.131,44.876    C342.311,412.732,338.595,414.34,334.852,414.34z"/>
	</g>
</g>
<path fill="#8FCDF0" d="M284.973,417.79l-13.518-7.837l13.518-7.83c6.092-3.529,8.182-11.355,4.654-17.447  c-2.275-3.928-6.514-6.363-11.061-6.363c-2.235,0-4.441,0.594-6.385,1.721l-13.416,7.771v-15.508c0-7.04-5.726-12.764-12.765-12.764  c-7.041,0-12.767,5.724-12.767,12.764v15.485l-13.398-7.77c-1.945-1.129-4.156-1.729-6.395-1.729c-4.542,0-8.777,2.438-11.054,6.364  c-3.534,6.092-1.452,13.919,4.637,17.446l13.516,7.838l-13.52,7.83c-6.092,3.527-8.178,11.349-4.65,17.445  c2.274,3.931,6.513,6.372,11.06,6.372c2.234,0,4.442-0.6,6.386-1.727l13.417-7.771v15.504c0,7.041,5.728,12.768,12.767,12.768  s12.766-5.727,12.766-12.768v-15.479l13.397,7.771c1.944,1.126,4.155,1.724,6.394,1.724c4.547,0,8.78-2.438,11.058-6.362  c1.713-2.955,2.171-6.391,1.299-9.689C290.032,422.258,287.923,419.5,284.973,417.79z"/>
</svg>