<?xml version="1.0" encoding="UTF-8"?>
<!-- Generator: Adobe Illustrator 16.0.0, SVG Export Plug-In . SVG Version: 6.00 Build 0)  -->
<!DOCTYPE svg PUBLIC "-//W3C//DTD SVG 1.1//EN" "http://www.w3.org/Graphics/SVG/1.1/DTD/svg11.dtd">
<svg version="1.1" id="Layer_2" xmlns="http://www.w3.org/2000/svg" xmlns:xlink="http://www.w3.org/1999/xlink" x="0px" y="0px" width="500px" height="500px" viewBox="0 0 500 500" enable-background="new 0 0 500 500" xml:space="preserve">
<g>
	<path fill="#808083" d="M382.495,186.037c0.011-0.451,0.016-0.899,0.016-1.345c0-36.065-29.344-65.407-65.411-65.407   c-4.828,0-9.654,0.553-14.423,1.65c-20.889-27.87-53.414-44.28-88.514-44.28c-61.085,0-110.782,49.693-110.782,110.773   c0,0.025,0,0.051,0,0.077c-27.613,10.622-46.239,37.184-46.239,67.347c0,39.861,32.414,72.29,72.256,72.29h231.157   c39.863,0,72.294-32.429,72.294-72.29C432.849,222.938,412.188,195.405,382.495,186.037z M360.555,305.882H129.397   c-28.119,0-50.996-22.894-50.996-51.03c0-23.375,15.863-43.685,38.576-49.392c5.009-1.259,8.385-5.983,8.008-11.134   c-0.178-2.416-0.345-4.697-0.345-6.898c0-49.358,40.16-89.514,89.522-89.514c30.524,0,58.646,15.375,75.229,41.129   c2.688,4.173,7.903,5.932,12.571,4.235c4.986-1.814,10.078-2.734,15.138-2.734c24.344,0,44.15,19.805,44.15,44.147   c0,2.357-0.232,4.874-0.714,7.695c-0.986,5.785,2.901,11.274,8.687,12.263c24.549,4.198,42.365,25.311,42.365,50.203   C411.589,282.989,388.695,305.882,360.555,305.882z"/>
	<path fill="#D6D6D8" d="M360.555,305.884H129.399c-28.119,0-50.996-22.893-50.996-51.03c0-23.374,15.863-43.687,38.576-49.394   c5.008-1.259,8.384-5.985,8.007-11.137c-0.177-2.415-0.344-4.696-0.344-6.896c0-49.358,40.16-89.514,89.522-89.514   c30.522,0,58.645,15.375,75.227,41.129c2.688,4.173,7.902,5.934,12.573,4.234c4.984-1.814,10.076-2.734,15.136-2.734   c24.346,0,44.15,19.805,44.15,44.147c0,2.356-0.232,4.874-0.714,7.695c-0.985,5.785,2.901,11.273,8.687,12.263   c24.549,4.199,42.365,25.313,42.365,50.203C411.589,282.992,388.695,305.884,360.555,305.884z"/>
	<g>
		<path fill="#A7A9AB" d="M367.805,423.346h-78.377c-5.871,0-10.63-4.759-10.63-10.63s4.759-10.63,10.63-10.63h78.377    c5.871,0,10.631,4.759,10.631,10.63S373.676,423.346,367.805,423.346z"/>
	</g>
	<g>
		<path fill="#A7A9AB" d="M172.346,162.91H62.313c-5.87,0-10.63-4.759-10.63-10.63c0-5.871,4.76-10.63,10.63-10.63h110.032    c5.871,0,10.63,4.759,10.63,10.63C182.975,158.151,178.217,162.91,172.346,162.91z"/>
	</g>
	<g>
		<path fill="#A7A9AB" d="M441.943,271.938H285.188c-5.871,0-10.629-4.76-10.629-10.631s4.758-10.63,10.629-10.63h156.758    c5.871,0,10.63,4.759,10.63,10.63S447.813,271.938,441.943,271.938z"/>
	</g>
	<g>
		<path fill="#A7A9AB" d="M214.813,423.346H58.057c-5.87,0-10.63-4.759-10.63-10.63s4.76-10.63,10.63-10.63h156.756    c5.871,0,10.63,4.759,10.63,10.63S220.684,423.346,214.813,423.346z"/>
	</g>
	<g>
		<path fill="#A7A9AB" d="M378.01,369.002H98.359c-5.87,0-10.63-4.759-10.63-10.63s4.76-10.63,10.63-10.63h279.65    c5.871,0,10.63,4.759,10.63,10.63S383.881,369.002,378.01,369.002z"/>
	</g>
	<g>
		<path fill="#A7A9AB" d="M423.422,179.762h-102.4c-5.871,0-10.629-4.759-10.629-10.63s4.758-10.63,10.629-10.63h102.4    c5.871,0,10.63,4.759,10.63,10.63S429.293,179.762,423.422,179.762z"/>
	</g>
</g>
</svg>