<svg id="13d" xmlns="http://www.w3.org/2000/svg" viewBox="0 0 500 500">
	<defs>
		<style>
			svg, symbol {
				--wh: #dff0fe;
			 	--bl: #000;
			 	--rd: #ff0000;
			 	--lB: #98ccfd;
			 	--dB: #4788c7;
				--lG: #a5a5a5;
			 	--dG: #808083;
			 	--lY: #fce6b1;
			 	--dY: #ffc843;
			 	--bY: #3f3a02;
			 	--s1: #fff76b;
			 	--s2: #fff845;
			 	--s3: #ffda4e;
			 	--s4: #fb8933;
			 	--s5: #fdc830;
			 	--s6: #f37335;
			}
		</style>
		<radialGradient id="sunCore" gradientUnits="userSpaceOnUse" r="95" spreadMethod="pad">
			<stop stop-color="var(--s1)" offset="0"/>
			<stop stop-color="var(--s2)" offset="10%"/>
			<stop stop-color="var(--s3)" offset="30%"/>
			<stop stop-color="var(--s4)" offset="100%"/>
		</radialGradient>
		<radialGradient id="sunRays" gradientUnits="userSpaceOnUse" r="100%" spreadMethod="pad">
			<stop stop-color="var(--s4)" offset="5%"/>
			<stop stop-color="var(--s3)" offset="72%"/>
			<stop stop-color="var(--s2)" offset="94%"/>
			<stop stop-color="var(--s1)" offset="100%"/>
		</radialGradient>
		<linearGradient id="lightCloud" gradientUnits="userSpaceOnUse" x1="0%" y1="0%" x2="0%" y2="100%" spreadMethod="pad">
			<stop stop-color="var(--wh)" offset="63%"/>
			<stop stop-color="var(--dG)" offset="83%"/>
			<stop stop-color="var(--bl)" offset="100%"/>
		</linearGradient>
		<linearGradient id="darkCloud" gradientUnits="userSpaceOnUse" x1="0%" y1="0%" x2="0%" y2="100%" spreadMethod="pad">
			<stop stop-color="var(--lG)" offset="33%"/>
			<stop stop-color="var(--dG)" offset="56%"/>
			<stop stop-color="var(--bl)" offset="100%"/>
		</linearGradient>
	</defs>
	<path fill="#FFF" d="M298.32 118.7c-46.4 0-84.15 37.75-84.15 84.15 0 46.4 37.75 84.14 84.15 84.14 46.4 0 84.14-37.74 84.14-84.14s-37.75-84.15-84.14-84.15z"/>
	<path fill="url(#sunCore)" d="M298.31 287.34c-46.6 0-84.5-37.9-84.5-84.5 0-46.59 37.91-84.5 84.5-84.5 46.6 0 84.5 37.91 84.5 84.5 0 46.6-37.9 84.5-84.5 84.5z"/>
	<path fill="url(#sunRays)" d="M298.32 97.44c-58.13 0-105.41 47.29-105.41 105.4 0 58.13 47.28 105.4 105.4 105.4 58.12 0 105.4-47.28 105.4-105.4 0-58.11-47.27-105.4-105.4-105.4zm0 189.55c-46.4 0-84.15-37.75-84.15-84.15 0-46.4 37.75-84.14 84.15-84.14 46.4 0 84.14 37.75 84.14 84.14 0 46.4-37.75 84.15-84.14 84.15zm-.02-207.53a10.63 10.63 0 0 1-10.62-10.63v-58.2a10.63 10.63 0 1 1 21.26 0v58.2c0 5.87-4.76 10.63-10.63 10.63zm191.15 134.01h-57.13a10.63 10.63 0 1 1 0-21.26h57.13a10.63 10.63 0 0 1 0 21.26zm-96.39-94.76a10.64 10.64 0 0 1-7.52-18.14l31.21-31.21a10.63 10.63 0 0 1 15.03 15.03l-31.2 31.2a10.58 10.58 0 0 1-7.52 3.12zm31.62 221.15a10.6 10.6 0 0 1-7.51-3.11l-32.02-32.03a10.64 10.64 0 0 1 15.03-15.03l32.02 32.02a10.64 10.64 0 0 1-7.52 18.15zM203.55 118.71a10.6 10.6 0 0 1-7.52-3.11l-31.55-31.56a10.63 10.63 0 0 1 15.03-15.03l31.55 31.56a10.63 10.63 0 0 1-7.51 18.14z"/>
	<g fill="url(#lightCloud)" stroke="url(#lightCloud)">
		<path d="M325.27 226.82l.02-1.35a65.49 65.49 0 0 0-65.41-65.4c-4.83 0-9.66.55-14.42 1.64a110.24 110.24 0 0 0-88.52-44.28c-61.08 0-110.78 49.7-110.78 110.78v.07A72.11 72.11 0 0 0-.08 295.63c0 39.86 32.42 72.3 72.26 72.3h231.15c39.86 0 72.3-32.44 72.3-72.3a72.02 72.02 0 0 0-50.36-68.81zm-21.94 119.84H72.17c-28.12 0-51-22.9-51-51.03a50.9 50.9 0 0 1 38.58-49.4 10.66 10.66 0 0 0 8.01-11.13c-.18-2.41-.34-4.7-.34-6.9 0-49.35 40.16-89.5 89.52-89.5a89.16 89.16 0 0 1 75.23 41.12 10.63 10.63 0 0 0 12.57 4.24 44.18 44.18 0 0 1 15.13-2.74 44.2 44.2 0 0 1 44.15 44.15c0 2.35-.23 4.87-.71 7.7a10.63 10.63 0 0 0 8.69 12.26 50.82 50.82 0 0 1 42.36 50.2 51.09 51.09 0 0 1-51.03 51.03z"/>
		<path d="M303.33 346.66H72.18c-28.12 0-51-22.9-51-51.03a50.9 50.9 0 0 1 38.58-49.4c5-1.25 8.38-5.98 8-11.13-.17-2.41-.34-4.7-.34-6.9 0-49.35 40.16-89.5 89.52-89.5a89.16 89.16 0 0 1 75.23 41.12 10.63 10.63 0 0 0 12.57 4.24 44.17 44.17 0 0 1 15.14-2.74 44.2 44.2 0 0 1 44.15 44.15c0 2.35-.24 4.87-.72 7.7a10.63 10.63 0 0 0 8.69 12.26 50.82 50.82 0 0 1 42.36 50.2 51.09 51.09 0 0 1-51.03 51.03z"/>
		<path fill="var(--lB)" stroke="none" d="M226.75 457.44l-13.52-7.84 13.52-7.83a12.78 12.78 0 0 0 4.65-17.44 12.81 12.81 0 0 0-17.45-4.65l-13.41 7.77v-15.5a12.78 12.78 0 0 0-25.54 0v15.48l-13.4-7.77a12.75 12.75 0 1 0-12.8 22.08l13.51 7.84-13.52 7.83a12.78 12.78 0 0 0 6.41 23.82c2.24 0 4.44-.6 6.39-1.73l13.41-7.77v15.5a12.78 12.78 0 0 0 25.53 0v-15.48l13.4 7.77a12.77 12.77 0 1 0 12.81-22.08zM97.1 445.73l-13.52-7.84 13.52-7.83a12.78 12.78 0 0 0 4.65-17.45 12.81 12.81 0 0 0-17.45-4.64l-13.41 7.77v-15.51c0-7.04-5.73-12.77-12.77-12.77a12.78 12.78 0 0 0-12.77 12.77v15.48l-13.4-7.77a12.74 12.74 0 0 0-17.45 4.64 12.78 12.78 0 0 0 4.64 17.45l13.52 7.83-13.52 7.83a12.78 12.78 0 0 0 6.4 23.82c2.24 0 4.45-.6 6.4-1.72L45.35 460v15.5c0 7.05 5.73 12.78 12.77 12.78s12.77-5.73 12.77-12.77v-15.49l13.4 7.77a12.72 12.72 0 0 0 6.39 1.73c4.54 0 8.78-2.44 11.05-6.36a12.68 12.68 0 0 0 1.3-9.69 12.67 12.67 0 0 0-5.93-7.75zm259.3 0l-13.52-7.84 13.52-7.83a12.78 12.78 0 0 0-6.4-23.81c-2.24 0-4.44.6-6.4 1.72l-13.4 7.77v-15.51c0-7.04-5.73-12.77-12.77-12.77a12.78 12.78 0 0 0-12.77 12.77v15.48l-13.4-7.77a12.74 12.74 0 0 0-17.45 4.64 12.77 12.77 0 0 0 4.64 17.45l13.52 7.83-13.52 7.83a12.79 12.79 0 0 0 6.41 23.82c2.24 0 4.44-.6 6.39-1.72l13.41-7.78v15.5a12.78 12.78 0 0 0 25.53 0v-15.48l13.4 7.77a12.82 12.82 0 0 0 17.45-4.63 12.74 12.74 0 0 0-4.65-17.44z"/>
	</g>
</svg>
