<svg xmlns="http://www.w3.org/2000/svg" id="heavyfog" viewBox="0 0 48 48"><defs><style>@-webkit-keyframes animatedMist{0%{-webkit-transform:translateX(-250%);transform:translateX(-250%)}to{-webkit-transform:translateX(250%);transform:translateX(250%)}}@keyframes animatedMist{0%{-webkit-transform:translateX(-250%);transform:translateX(-250%)}to{-webkit-transform:translateX(250%);transform:translateX(250%)}}#fog1{-webkit-animation:animatedMist 60s linear infinite;animation:animatedMist 60s linear infinite}#fog2{-webkit-animation:animatedMist 30s linear infinite;animation:animatedMist 30s linear infinite;-webkit-animation-delay:4s;animation-delay:4s}</style><filter id="cld1" width="1.33" height="1.91" x="-.16" y="-.46" filterUnits="objectBoundingBox"><feGaussianBlur stdDeviation="3.09"/></filter><filter id="cld2" width="1.29" height="2.47" x="-.14" y="-.73" filterUnits="objectBoundingBox"><feGaussianBlur stdDeviation="2.71"/></filter></defs><g fill="#f2f2f2" stroke="#7dd8ea" stroke-linecap="round" stroke-linejoin="round" stroke-width=".5"><path id="fog1" d="M7.98 24.05v.03c-3.73.26-6.66 2.47-6.66 5.19 0 2.89 3.3 5.25 7.38 5.25h7.28v.03c-1.77.13-3.16 1.23-3.16 2.6 0 1.35 1.4 2.46 3.16 2.59v.03h23.34c3.91 0 7.1-2.36 7.1-5.25 0-2.83-3.05-5.12-6.85-5.22h-9v-.03c2.05-.14 3.66-1.24 3.66-2.6 0-1.35-1.61-2.46-3.66-2.59v-.03H7.98z" filter="url(#cld1)"/><g style="transform:translateY(-15%)"><path style="transform:translateX(-250%)" id="fog2" d="M6.94 13.66v.03c-3.62.21-5.94.33-5.71 2.08.2 1.56.86 2.37 4.82 2.5l-.74.2-.57.02c-1.76.1-3.06.75-3.06 1.9 0 1.43 2.38 1.36 5.33 1.45 2.96.1 6.48-.1 8.78.15V22h23.34c3.91 0 7 .3 7-2.13 0-2.37-6.07-2.4-9.86-2.48-4 0-6.05-.2-8.9-.2v-.02c2.04-.11 6.67-1.04 6.67-2.17 0-1.14-2.46-1.21-4.5-1.32v-.03H6.93z" filter="url(#cld2)"/></g></g></svg>
