<?xml version="1.0" encoding="UTF-8"?>
<!-- Generator: Adobe Illustrator 16.0.0, SVG Export Plug-In . SVG Version: 6.00 Build 0)  -->
<!DOCTYPE svg PUBLIC "-//W3C//DTD SVG 1.1//EN" "http://www.w3.org/Graphics/SVG/1.1/DTD/svg11.dtd">
<svg version="1.1" xmlns="http://www.w3.org/2000/svg" xmlns:xlink="http://www.w3.org/1999/xlink" x="0px" y="0px" width="500px" height="500px" viewBox="0 0 500 500" enable-background="new 0 0 500 500" xml:space="preserve">
<g id="Layer_1">
	<path fill="#D7D8D8" d="M418.521,458.741"/>
	<g>
		<g>
			<path fill="#CCCCCC" d="M420.293,248.024c-0.274-1.918-0.575-3.8-0.929-5.717c-0.053-0.345-0.105-0.681-0.186-1.017     c-0.009-0.062-0.034-0.159-0.026-0.238c-0.168-0.804-0.326-1.573-0.504-2.342c-0.335-1.52-0.618-2.996-0.989-4.516     c-0.256-1.104-0.574-2.156-0.848-3.278c-0.336-1.158-0.61-2.333-0.946-3.481c-8.234-28.187-24.66-52.927-47.448-71.465     c-0.256-0.256-0.53-0.441-0.769-0.671c-1.582-1.255-3.19-2.519-4.815-3.72c-0.311-0.229-0.61-0.442-0.938-0.618     c-1.255-0.937-2.518-1.891-3.834-2.766c-0.406-0.265-0.84-0.53-1.255-0.804c0,0-0.019-0.026-0.035-0.026     c-31.854-21.135-69.973-28.822-107.56-21.639c-19.051,3.631-36.881,10.886-52.936,21.542     c-46.76,31.014-71.165,85.575-63.627,140.681c0.018,0.211,0.053,0.424,0.071,0.671c0.3,1.998,0.619,4.029,0.99,6.045     c0.052,0.265,0.088,0.512,0.142,0.777c0.017,0.052,0.025,0.141,0.035,0.211c0.106,0.549,0.247,1.114,0.372,1.679     c0.362,1.803,0.76,3.623,1.166,5.443c0.124,0.477,0.274,0.92,0.406,1.379c0.459,1.908,0.955,3.817,1.511,5.672     c0.167,0.531,0.353,1.079,0.512,1.608c0.548,1.75,1.114,3.517,1.75,5.267c0.221,0.707,0.477,1.36,0.716,2.05     c0.601,1.537,1.166,3.11,1.802,4.647c0.362,0.83,0.733,1.661,1.078,2.492c0.601,1.343,1.184,2.703,1.803,4.082     c0.441,0.937,0.928,1.855,1.37,2.774c0.618,1.237,1.22,2.438,1.873,3.658c0.478,0.937,0.999,1.855,1.52,2.757     c0.671,1.202,1.334,2.438,2.067,3.623c0.371,0.653,0.777,1.236,1.167,1.855c0.821,1.342,1.617,2.704,2.492,4.029     c17.451,26.296,42.067,45.045,69.564,55.418c0.442,0.159,0.875,0.336,1.291,0.495c1.36,0.495,2.721,0.972,4.073,1.431     c1.034,0.354,2.05,0.689,3.119,1.025c0.796,0.23,1.608,0.46,2.439,0.725c1.573,0.441,3.11,0.849,4.691,1.29     c0.336,0.089,0.637,0.124,0.981,0.212c13.06,3.27,26.719,4.754,40.627,4.188c18.891-0.706,37.836-5.143,55.675-13.43     c0.274-0.177,0.548-0.318,0.822-0.442c1.873-0.883,3.685-1.785,5.522-2.758c0.954-0.512,1.89-1.077,2.827-1.555     c1.157-0.653,2.307-1.308,3.446-1.961c1.714-1.025,3.419-2.085,5.063-3.182c0.388-0.246,0.777-0.459,1.165-0.725     c0.106-0.07,0.213-0.158,0.311-0.229c1.74-1.148,3.401-2.314,5.054-3.534c0.628-0.441,1.21-0.883,1.793-1.342     c1.229-0.938,2.483-1.856,3.667-2.846c0.557-0.425,1.104-0.867,1.636-1.326c1.643-1.36,3.277-2.757,4.868-4.171     c0.256-0.229,0.521-0.494,0.813-0.759c1.37-1.291,2.669-2.546,4.021-3.853c0.398-0.39,0.777-0.813,1.185-1.185     c1.379-1.414,2.712-2.845,4.029-4.294c0.142-0.106,0.282-0.283,0.379-0.425c28.204-31.278,41.645-73.656,35.875-116.4     C420.372,248.713,420.337,248.369,420.293,248.024z M403.434,234.452c0.283,1.025,0.574,1.997,0.796,3.013     c0.327,1.325,0.601,2.695,0.874,4.002c0.177,0.822,0.362,1.608,0.485,2.413c0.063,0.309,0.133,0.601,0.177,0.919     c0.302,1.696,0.592,3.455,0.831,5.151c0.054,0.327,0.071,0.645,0.132,0.946c5.011,37.707-6.547,76.479-32.418,105.267     c-0.142,0.176-0.301,0.335-0.434,0.476c-1.166,1.291-2.341,2.563-3.587,3.8c-0.362,0.389-0.751,0.761-1.114,1.132     c-1.156,1.148-2.34,2.297-3.569,3.41c-0.273,0.266-0.529,0.495-0.813,0.742c-1.414,1.271-2.871,2.545-4.347,3.747     c-0.487,0.423-1.034,0.829-1.529,1.237c-1.078,0.865-2.155,1.713-3.261,2.579c-0.557,0.389-1.096,0.777-1.661,1.201     c-1.476,1.096-2.959,2.156-4.523,3.182c-0.115,0.07-0.239,0.194-0.362,0.265c-0.371,0.248-0.777,0.478-1.184,0.725     c-1.432,0.955-2.916,1.874-4.393,2.757c-1.086,0.619-2.182,1.237-3.277,1.856c-0.813,0.424-1.591,0.884-2.403,1.343     c-1.741,0.919-3.49,1.785-5.266,2.615c-0.169,0.053-0.337,0.159-0.469,0.23c-9.799,4.559-20.128,7.881-30.917,9.931     c-6.539,1.271-13.077,1.997-19.572,2.244c-1.688,0.071-3.401,0.106-5.115,0.088c-0.354,0-0.698,0.036-1.043,0     c-8.359-0.053-16.683-0.936-24.873-2.579c-0.035,0-0.115-0.018-0.168-0.036c-1.74-0.354-3.481-0.759-5.178-1.184     c-0.424-0.088-0.84-0.194-1.282-0.3c-1.307-0.337-2.58-0.708-3.887-1.079c-0.875-0.246-1.75-0.476-2.589-0.759     c-0.787-0.229-1.625-0.548-2.439-0.796c-1.334-0.459-2.677-0.919-3.994-1.396c-0.31-0.105-0.619-0.229-0.893-0.335     c-27.002-10.25-50.214-29.194-65.554-54.095c-0.309-0.494-0.627-0.954-0.911-1.43c-0.68-1.132-1.316-2.298-1.961-3.446     c-0.442-0.778-0.875-1.538-1.281-2.333c-0.601-1.131-1.167-2.297-1.732-3.464c-0.424-0.777-0.831-1.555-1.202-2.351     c-0.574-1.272-1.113-2.544-1.67-3.834c-0.318-0.708-0.654-1.396-0.945-2.121c-0.565-1.432-1.096-2.88-1.635-4.294     c-0.221-0.602-0.459-1.202-0.681-1.785c-0.556-1.591-1.051-3.199-1.563-4.824c-0.124-0.46-0.301-0.937-0.442-1.396     c-0.503-1.679-0.955-3.446-1.405-5.143c-0.115-0.424-0.212-0.848-0.327-1.255c-0.415-1.625-0.724-3.269-1.078-4.93     c-0.124-0.583-0.265-1.131-0.345-1.715c-0.07-0.212-0.088-0.406-0.124-0.671c-0.354-1.838-0.645-3.658-0.892-5.496     c-0.027-0.194-0.071-0.371-0.08-0.565c-6.512-48.355,14.243-98.49,57.557-127.215c47.034-31.2,106.967-28.037,150.104,3.375     c0.177,0.106,0.354,0.239,0.557,0.398c1.574,1.148,3.094,2.333,4.621,3.561c0.142,0.133,0.283,0.239,0.434,0.363     c9.976,8.155,18.935,17.893,26.394,29.185c7.475,11.248,12.971,23.239,16.602,35.565     C402.904,232.366,403.169,233.427,403.434,234.452z"/>
			<path fill="#CCCCCC" d="M245.386,105.659c4.232-0.804,7.016-4.895,6.272-9.119c-0.018-0.018,0,0,0,0l-6.326-33.223l-0.044,0.009     l0,0c-0.804-4.294-4.948-7.086-9.216-6.255c-4.268,0.786-7.06,4.912-6.256,9.215l0,0h-0.018l6.362,33.188l0.026,0.008     C237.036,103.707,241.144,106.455,245.386,105.659z"/>
			<path fill="#CCCCCC" d="M307.67,431.126c-4.276,0.849-7.052,4.983-6.265,9.243l0,0l0.009,0.017l6.345,33.171l0.017,0.018     c0.867,4.223,4.966,6.962,9.225,6.149c4.207-0.796,6.98-4.895,6.257-9.083c0.026,0,0.034-0.019,0.034-0.019l-6.37-33.204     l-0.026-0.019l0,0C316.064,433.123,311.947,430.313,307.67,431.126z"/>
			<path fill="#CCCCCC" d="M74.401,315.075l0.018-0.018L74.401,315.075l33.223-6.345l-0.018-0.034     c4.224-0.866,6.963-4.948,6.167-9.189c-0.821-4.259-4.886-7.017-9.118-6.274v-0.018l-33.223,6.362l0,0l0,0     c-4.259,0.83-7.061,4.948-6.248,9.225C66.034,313.096,70.125,315.906,74.401,315.075z"/>
			<path fill="#CCCCCC" d="M478.751,221.622v-0.026l-33.241,6.371l0,0l0,0c-4.268,0.813-7.06,4.948-6.247,9.242     c0.831,4.286,4.922,7.051,9.216,6.247l0,0v0.035l33.224-6.353c0.009-0.017,0.018-0.053,0.018-0.053     c4.18-0.857,6.945-4.913,6.141-9.189C487.029,223.663,482.983,220.871,478.751,221.622z"/>
			<path fill="#CCCCCC" d="M183.455,405.467c-3.57-2.421-8.394-1.537-10.877,1.997l-0.009-0.018l-18.988,27.992l0.008,0.018l0,0     c-2.448,3.588-1.502,8.482,2.094,10.956c3.596,2.439,8.5,1.467,10.957-2.103l0,0l-0.009,0.018l18.988-27.992l-0.026-0.018     C187.979,412.748,187.033,407.905,183.455,405.467z"/>
			<path fill="#CCCCCC" d="M369.565,131.257c3.604,2.413,8.518,1.511,10.939-2.121l0.035,0.018l18.997-27.957l-0.054-0.018     c2.386-3.605,1.441-8.447-2.111-10.877c-3.604-2.43-8.438-1.511-10.887,2.033l-0.025-0.018l-19.007,27.975h0.019l0,0     C365.015,123.897,365.978,128.81,369.565,131.257z"/>
			<path fill="#CCCCCC" d="M100.564,158.454l0.009,0.027l27.939,18.997l0.035-0.026c3.587,2.359,8.438,1.396,10.859-2.147     c2.403-3.587,1.502-8.438-2.006-10.886v-0.009l-27.974-19.015l-0.018,0.018l0,0c-3.587-2.421-8.474-1.493-10.921,2.112     C96.032,151.129,96.942,156.033,100.564,158.454L100.564,158.454z"/>
			<path fill="#CCCCCC" d="M452.569,378.27l-27.992-18.962l-0.009,0.019l0,0c-3.613-2.475-8.509-1.503-10.929,2.067     c-2.439,3.604-1.529,8.535,2.075,10.956l0,0l0.01,0.018l27.947,18.979l0.035-0.035c3.597,2.403,8.431,1.467,10.86-2.139     c2.412-3.569,1.528-8.429-2.032-10.868L452.569,378.27z"/>
		</g>
		<g>
			<g>
				<path fill="#D9D9D9" d="M448.642,482.457c-3.169,0-6.182-1.203-8.482-3.387L264.672,312.136      c-0.048-0.017-0.095-0.033-0.143-0.05L22.923,329.522c-0.265,0.021-0.587,0.034-0.909,0.034      c-6.359,0-11.715-4.989-12.192-11.358c-0.424-5.771,3.285-11.104,8.819-12.694l232.247-68.456      c0.049-0.042,0.098-0.084,0.147-0.126L356.698,18.984c2.074-4.222,6.404-6.924,11.049-6.924c1.876,0,3.758,0.443,5.442,1.282      c5.146,2.494,7.851,8.204,6.499,13.849l-56.856,235.461c0.01,0.056,0.021,0.11,0.03,0.166l135.931,200.475      c1.865,2.797,2.513,6.09,1.858,9.324c-0.642,3.176-2.466,5.91-5.142,7.712C453.482,481.722,451.11,482.457,448.642,482.457      L448.642,482.457z"/>
				<path fill="#FFFFFF" d="M367.747,20.272c0.599,0,1.207,0.135,1.783,0.421c1.75,0.848,2.606,2.774,2.173,4.585l-57.282,237.222      c0.247,1.148,0.477,2.28,0.618,3.411l136.957,201.989c1.237,1.855,0.769,4.4-1.104,5.638c-0.685,0.479-1.47,0.706-2.25,0.706      c-1.032,0-2.056-0.396-2.83-1.131L269.013,304.932c-1.122-0.371-2.209-0.725-3.261-1.167l-243.42,17.567      c-0.106,0.009-0.212,0.013-0.317,0.013c-2.075,0-3.844-1.625-4.003-3.76c-0.142-1.927,1.113-3.676,2.898-4.188l234.108-69.004      c0.856-0.813,1.696-1.556,2.606-2.236l106.464-219.59C364.795,21.125,366.24,20.272,367.747,20.272 M367.747,3.849      c-7.751,0-14.974,4.503-18.399,11.473l-0.02,0.04l-0.02,0.04L245.184,230.169L16.312,297.63      c-9.215,2.679-15.385,11.566-14.68,21.159c0.797,10.651,9.75,18.979,20.382,18.979c0.505,0,1.016-0.019,1.519-0.057      l238.05-17.18l172.909,164.482c3.848,3.651,8.868,5.655,14.149,5.655c4.127,0,8.095-1.228,11.49-3.553      c4.459-3.015,7.498-7.577,8.568-12.872c1.09-5.392,0.01-10.88-3.04-15.454l-0.035-0.053l-0.036-0.053L331.645,261.139      l56.023-232.005c2.256-9.428-2.226-18.934-10.896-23.181C373.977,4.576,370.857,3.849,367.747,3.849L367.747,3.849z"/>
			</g>
			<g>
				<path fill="#FFFFFF" d="M279.49,291.946c-6.301,0-12.242-2.763-16.299-7.579c-3.683-4.332-5.46-9.869-4.98-15.563      c0.478-5.686,3.15-10.842,7.526-14.517c3.823-3.232,8.714-5.021,13.75-5.021c6.278,0,12.206,2.737,16.264,7.51      c3.702,4.371,5.472,9.907,4.994,15.6c-0.478,5.688-3.139,10.843-7.493,14.517C289.439,290.142,284.541,291.946,279.49,291.946z"/>
				<path fill="#D9D9D9" d="M279.487,257.477c3.719,0,7.414,1.567,10.008,4.618c4.699,5.549,3.993,13.854-1.538,18.521      c-2.458,2.096-5.47,3.12-8.467,3.12c-3.726,0-7.429-1.583-10.019-4.658c-4.7-5.53-4.028-13.819,1.547-18.502      C273.479,258.495,276.491,257.478,279.487,257.477 M279.488,241.054L279.488,241.054c-6.968,0-13.732,2.473-19.053,6.962      c-6.05,5.091-9.746,12.228-10.408,20.1c-0.662,7.878,1.792,15.538,6.91,21.572c5.62,6.654,13.838,10.47,22.553,10.47      c6.99,0,13.77-2.494,19.095-7.022c6.011-5.088,9.684-12.215,10.343-20.074c0.661-7.882-1.789-15.546-6.9-21.58      C296.387,244.846,288.179,241.054,279.488,241.054L279.488,241.054z"/>
			</g>
		</g>
	</g>
</g>
<g id="Layer_2" display="none">
	<g display="inline">
		<g>
			<path fill="#F8ED34" d="M420.293,248.227c-0.274-1.917-0.575-3.8-0.929-5.717c-0.053-0.345-0.105-0.68-0.186-1.016     c-0.009-0.062-0.034-0.159-0.026-0.239c-0.168-0.804-0.326-1.573-0.504-2.341c-0.335-1.52-0.618-2.996-0.989-4.515     c-0.256-1.105-0.574-2.156-0.848-3.279c-0.336-1.157-0.61-2.333-0.946-3.481c-8.234-28.187-24.66-52.927-47.448-71.465     c-0.256-0.256-0.53-0.442-0.769-0.671c-1.582-1.255-3.19-2.518-4.815-3.72c-0.311-0.23-0.61-0.442-0.938-0.619     c-1.255-0.937-2.518-1.891-3.834-2.766c-0.406-0.265-0.84-0.53-1.255-0.804c0,0-0.019-0.026-0.035-0.026     c-31.854-21.135-69.973-28.823-107.56-21.639c-19.051,3.631-36.881,10.885-52.936,21.542     c-46.76,31.014-71.165,85.576-63.627,140.689c0.018,0.195,0.053,0.425,0.071,0.654c0.3,1.998,0.619,4.029,0.99,6.062     c0.052,0.265,0.088,0.513,0.142,0.777c0.017,0.054,0.025,0.124,0.035,0.195c0.106,0.564,0.247,1.13,0.372,1.696     c0.362,1.803,0.76,3.604,1.166,5.426c0.124,0.477,0.274,0.919,0.406,1.396c0.459,1.909,0.955,3.799,1.511,5.673     c0.167,0.529,0.353,1.06,0.512,1.591c0.548,1.767,1.114,3.534,1.75,5.266c0.221,0.707,0.477,1.36,0.716,2.05     c0.601,1.556,1.166,3.128,1.802,4.647c0.362,0.849,0.733,1.661,1.078,2.492c0.601,1.36,1.184,2.722,1.803,4.082     c0.441,0.954,0.928,1.873,1.37,2.792c0.618,1.22,1.22,2.421,1.873,3.658c0.478,0.918,0.999,1.838,1.52,2.739     c0.671,1.202,1.334,2.456,2.067,3.64c0.371,0.637,0.777,1.237,1.167,1.838c0.821,1.361,1.617,2.722,2.492,4.03     c17.451,26.313,42.067,45.045,69.564,55.419c0.442,0.176,0.875,0.353,1.291,0.513c1.36,0.494,2.721,0.954,4.073,1.431     c1.034,0.336,2.05,0.672,3.119,1.008c0.796,0.229,1.608,0.459,2.439,0.725c1.573,0.441,3.11,0.865,4.691,1.29     c0.336,0.105,0.637,0.123,0.981,0.229c13.06,3.252,26.719,4.736,40.627,4.17c18.891-0.707,37.836-5.143,55.675-13.43     c0.274-0.16,0.548-0.318,0.822-0.442c1.873-0.884,3.685-1.767,5.522-2.757c0.954-0.495,1.89-1.078,2.827-1.555     c1.157-0.654,2.307-1.308,3.446-1.962c1.714-1.008,3.419-2.086,5.063-3.163c0.388-0.265,0.777-0.478,1.165-0.742     c0.106-0.054,0.213-0.159,0.311-0.212c1.74-1.148,3.401-2.315,5.054-3.553c0.628-0.424,1.21-0.884,1.793-1.325     c1.229-0.937,2.483-1.873,3.667-2.845c0.557-0.425,1.104-0.884,1.636-1.325c1.643-1.379,3.277-2.758,4.868-4.171     c0.256-0.247,0.521-0.495,0.813-0.76c1.37-1.291,2.669-2.563,4.021-3.87c0.398-0.389,0.777-0.796,1.185-1.185     c1.379-1.396,2.712-2.827,4.029-4.294c0.142-0.106,0.282-0.283,0.379-0.424c28.204-31.279,41.645-73.657,35.875-116.391     C420.372,248.917,420.337,248.572,420.293,248.227z M403.434,234.655c0.283,1.025,0.574,1.997,0.796,3.013     c0.327,1.326,0.601,2.695,0.874,4.003c0.177,0.822,0.362,1.608,0.485,2.412c0.063,0.31,0.133,0.601,0.177,0.918     c0.302,1.697,0.592,3.455,0.831,5.152c0.054,0.327,0.071,0.645,0.132,0.945c5.011,37.716-6.547,76.488-32.418,105.275     c-0.142,0.177-0.301,0.336-0.434,0.478c-1.166,1.29-2.341,2.545-3.587,3.8c-0.362,0.371-0.751,0.742-1.114,1.112     c-1.156,1.148-2.34,2.297-3.569,3.411c-0.273,0.265-0.529,0.513-0.813,0.742c-1.414,1.272-2.871,2.563-4.347,3.765     c-0.487,0.406-1.034,0.83-1.529,1.219c-1.078,0.866-2.155,1.732-3.261,2.58c-0.557,0.39-1.096,0.777-1.661,1.202     c-1.476,1.096-2.959,2.155-4.523,3.181c-0.115,0.089-0.239,0.194-0.362,0.266c-0.371,0.265-0.777,0.477-1.184,0.724     c-1.432,0.954-2.916,1.892-4.393,2.775c-1.086,0.618-2.182,1.236-3.277,1.838c-0.813,0.441-1.591,0.9-2.403,1.342     c-1.741,0.919-3.49,1.785-5.266,2.615c-0.169,0.071-0.337,0.177-0.469,0.248c-9.799,4.542-20.128,7.882-30.917,9.933     c-6.539,1.254-13.077,1.979-19.572,2.226c-1.688,0.089-3.401,0.106-5.115,0.106c-0.354,0-0.698,0.035-1.043,0     c-8.359-0.053-16.683-0.937-24.873-2.58c-0.035,0-0.115-0.035-0.168-0.053c-1.74-0.337-3.481-0.76-5.178-1.185     c-0.424-0.071-0.84-0.194-1.282-0.282c-1.307-0.354-2.58-0.708-3.887-1.096c-0.875-0.229-1.75-0.478-2.589-0.761     c-0.787-0.212-1.625-0.53-2.439-0.795c-1.334-0.442-2.677-0.901-3.994-1.396c-0.31-0.105-0.619-0.229-0.893-0.335     c-27.002-10.25-50.214-29.193-65.554-54.094c-0.309-0.495-0.627-0.954-0.911-1.432c-0.68-1.131-1.316-2.297-1.961-3.445     c-0.442-0.778-0.875-1.538-1.281-2.315c-0.601-1.131-1.167-2.297-1.732-3.481c-0.424-0.777-0.831-1.555-1.202-2.351     c-0.574-1.255-1.113-2.527-1.67-3.834c-0.318-0.689-0.654-1.396-0.945-2.121c-0.565-1.432-1.096-2.863-1.635-4.276     c-0.221-0.602-0.459-1.202-0.681-1.785c-0.556-1.59-1.051-3.198-1.563-4.824c-0.124-0.46-0.301-0.938-0.442-1.396     c-0.503-1.696-0.955-3.445-1.405-5.16c-0.115-0.424-0.212-0.83-0.327-1.255c-0.415-1.625-0.724-3.27-1.078-4.93     c-0.124-0.566-0.265-1.132-0.345-1.696c-0.07-0.229-0.088-0.425-0.124-0.672c-0.354-1.855-0.645-3.676-0.892-5.514     c-0.027-0.194-0.071-0.354-0.08-0.549c-6.512-48.363,14.243-98.498,57.557-127.223c47.034-31.199,106.967-28.036,150.104,3.375     c0.177,0.106,0.354,0.238,0.557,0.398c1.574,1.148,3.094,2.332,4.621,3.56c0.142,0.133,0.283,0.239,0.434,0.363     c9.976,8.155,18.935,17.893,26.394,29.185c7.475,11.248,12.971,23.238,16.602,35.564     C402.904,232.57,403.169,233.63,403.434,234.655z"/>
			<path fill="#F8ED34" d="M245.386,105.863c4.232-0.804,7.016-4.896,6.272-9.119c-0.018-0.018,0,0,0,0l-6.326-33.224l-0.044,0.009     l0,0c-0.804-4.294-4.948-7.086-9.216-6.256c-4.268,0.786-7.06,4.913-6.256,9.216l0,0h-0.018l6.362,33.188l0.026,0.009     C237.036,103.91,241.144,106.658,245.386,105.863z"/>
			<path fill="#F8ED34" d="M307.67,431.338c-4.276,0.83-7.052,4.966-6.265,9.225l0,0l0.009,0.019l6.345,33.169l0.017,0.019     c0.867,4.224,4.966,6.98,9.225,6.167c4.207-0.795,6.98-4.895,6.257-9.101c0.026,0,0.034-0.019,0.034-0.019l-6.37-33.188     l-0.026-0.017l0,0C316.064,433.335,311.947,430.525,307.67,431.338z"/>
			<path fill="#F8ED34" d="M74.401,315.287l0.018-0.035L74.401,315.287l33.223-6.361l-0.018-0.035     c4.224-0.849,6.963-4.932,6.167-9.173c-0.821-4.259-4.886-7.032-9.118-6.29l0,0l-33.223,6.343v0.019l0,0     c-4.259,0.813-7.061,4.93-6.248,9.225C66.034,313.29,70.125,316.1,74.401,315.287z"/>
			<path fill="#F8ED34" d="M478.751,221.825v-0.026l-33.241,6.37l0,0l0,0c-4.268,0.813-7.06,4.948-6.247,9.243     c0.831,4.285,4.922,7.051,9.216,6.247l0,0v0.035l33.224-6.353c0.009-0.018,0.018-0.053,0.018-0.053     c4.18-0.857,6.945-4.913,6.141-9.189C487.029,223.867,482.983,221.074,478.751,221.825z"/>
			<path fill="#F8ED34" d="M183.455,405.661c-3.57-2.421-8.394-1.52-10.877,2.015l-0.009-0.019l-18.988,27.976l0.008,0.018l0,0     c-2.448,3.587-1.502,8.482,2.094,10.957c3.596,2.438,8.5,1.483,10.957-2.104l0,0l-0.009,0.018l18.988-27.992h-0.026     C187.979,412.941,187.033,408.1,183.455,405.661z"/>
			<path fill="#F8ED34" d="M369.565,131.46c3.604,2.412,8.518,1.511,10.939-2.121l0.035,0.017l18.997-27.957l-0.054-0.018     c2.386-3.605,1.441-8.447-2.111-10.877c-3.604-2.43-8.438-1.511-10.887,2.032l-0.025-0.018l-19.007,27.974h0.019l0,0     C365.015,124.1,365.978,129.013,369.565,131.46z"/>
			<path fill="#F8ED34" d="M100.564,158.657l0.009,0.027l27.939,18.997l0.035-0.027c3.587,2.359,8.438,1.396,10.859-2.147     c2.403-3.587,1.502-8.438-2.006-10.886v-0.008l-27.974-19.015l-0.018,0.018l0,0c-3.587-2.421-8.474-1.494-10.921,2.112     C96.032,151.333,96.942,156.236,100.564,158.657L100.564,158.657z"/>
			<path fill="#F8ED34" d="M452.569,378.481l-27.992-18.979l-0.009,0.018l0,0c-3.613-2.474-8.509-1.502-10.929,2.067     c-2.439,3.606-1.529,8.554,2.075,10.958l0,0l0.01,0.017l27.947,18.997l0.035-0.053c3.597,2.422,8.431,1.467,10.86-2.138     c2.412-3.57,1.528-8.413-2.032-10.868L452.569,378.481z"/>
		</g>
		<g>
			<g>
				<path fill="#D9D9D9" d="M448.633,482.652c-3.145,0-6.141-1.184-8.436-3.333L264.683,312.34c-0.057-0.02-0.112-0.039-0.167-0.059      L22.923,329.716c-0.263,0.021-0.588,0.034-0.91,0.034c-6.359,0-11.714-4.989-12.19-11.357      c-0.423-5.761,3.286-11.087,8.819-12.677l232.249-68.465c0.049-0.042,0.097-0.084,0.146-0.125L356.698,19.187      c2.074-4.222,6.404-6.924,11.049-6.924c1.876,0,3.758,0.443,5.442,1.282c5.146,2.494,7.851,8.204,6.5,13.849l-56.857,235.469      c0.011,0.056,0.021,0.112,0.032,0.169l135.928,200.455c1.849,2.771,2.51,6.167,1.851,9.372c-0.651,3.174-2.48,5.896-5.155,7.68      C453.463,481.922,451.096,482.652,448.633,482.652L448.633,482.652z"/>
				<path fill="#FFFFFF" d="M367.747,20.475c0.599,0,1.207,0.135,1.783,0.421c1.75,0.848,2.606,2.774,2.173,4.586l-57.282,237.231      c0.247,1.148,0.477,2.263,0.618,3.41l136.957,201.972c1.237,1.855,0.769,4.418-1.104,5.638c-0.688,0.48-1.476,0.708-2.259,0.708      c-1.028,0-2.05-0.393-2.821-1.115l-176.799-168.2c-1.122-0.354-2.209-0.725-3.261-1.167l-243.42,17.566      c-0.107,0.009-0.213,0.013-0.319,0.013c-2.074,0-3.842-1.623-4.002-3.759c-0.142-1.927,1.113-3.658,2.898-4.171l234.108-69.013      c0.856-0.813,1.696-1.555,2.606-2.235L364.087,22.77C364.795,21.328,366.24,20.475,367.747,20.475 M367.747,4.052      c-7.751,0-14.974,4.503-18.399,11.473l-0.02,0.04l-0.02,0.04L245.184,230.372L16.29,297.848      c-9.202,2.687-15.362,11.561-14.658,21.136c0.797,10.651,9.749,18.978,20.381,18.978c0.511,0,1.029-0.02,1.54-0.058      l238.031-17.178l172.908,164.499l0.046,0.043l0.046,0.043c3.822,3.581,8.812,5.554,14.05,5.554      c4.108,0,8.059-1.215,11.443-3.516c4.469-2.992,7.521-7.54,8.61-12.836c1.098-5.339-0.006-10.999-3.026-15.528l-0.036-0.054      l-0.035-0.052L331.646,261.351l56.022-232.013c2.256-9.429-2.227-18.935-10.896-23.181      C373.977,4.779,370.857,4.052,367.747,4.052L367.747,4.052z"/>
			</g>
			<g>
				<path fill="#FFFFFF" d="M279.497,292.157c-6.31,0-12.257-2.772-16.314-7.606c-3.674-4.323-5.451-9.86-4.972-15.554      c0.478-5.686,3.151-10.841,7.526-14.516c3.828-3.229,8.716-5.015,13.748-5.015c6.276,0,12.203,2.733,16.262,7.499      c3.704,4.374,5.475,9.909,4.998,15.603c-0.475,5.686-3.132,10.845-7.482,14.527      C289.441,290.353,284.545,292.157,279.497,292.157z"/>
				<path fill="#D9D9D9" d="M279.485,257.678c3.719,0,7.416,1.565,10.01,4.611c4.699,5.549,3.993,13.855-1.538,18.538      c-2.456,2.094-5.466,3.119-8.46,3.119c-3.728,0-7.434-1.587-10.025-4.675c-4.7-5.531-4.028-13.819,1.547-18.502      C273.479,258.693,276.489,257.678,279.485,257.678 M279.485,241.255L279.485,241.255c-6.969,0-13.736,2.473-19.058,6.963      c-6.033,5.067-9.737,12.211-10.4,20.091c-0.662,7.871,1.787,15.524,6.894,21.557c5.622,6.676,13.848,10.504,22.575,10.504      c6.986,0,13.764-2.493,19.088-7.021c6.013-5.098,9.687-12.234,10.344-20.097c0.658-7.881-1.792-15.543-6.901-21.575      C296.378,245.041,288.172,241.255,279.485,241.255L279.485,241.255z"/>
			</g>
		</g>
	</g>
	<path display="inline" fill="#D7D8D8" d="M310.109,89.482"/>
	<path display="inline" fill="#D7D8D8" d="M310.109,89.482"/>
</g>
</svg>