<?xml version="1.0" encoding="utf-8"?>
<!-- Generator: Adobe Illustrator 16.0.0, SVG Export Plug-In . SVG Version: 6.00 Build 0)  -->
<!DOCTYPE svg PUBLIC "-//W3C//DTD SVG 1.1//EN" "http://www.w3.org/Graphics/SVG/1.1/DTD/svg11.dtd">
<svg version="1.1" id="Layer_1" xmlns="http://www.w3.org/2000/svg" xmlns:xlink="http://www.w3.org/1999/xlink" x="0px" y="0px"
	 width="100px" height="100px" viewBox="0 0 100 100" enable-background="new 0 0 100 100" xml:space="preserve">
<path fill="#E19105" d="M49.719,17.858c0.532,0,1.064,0,1.597,0c0.017,0.085,0.031,0.171,0.047,0.257
	c-1.088,0.307-2.177,0.617-3.267,0.92c-2.618,0.727-5.254,1.41-7.7,2.628c-0.989,0.492-2.265,0.941-2.281,2.223
	c-0.017,1.375,1.329,1.792,2.361,2.26c3.042,1.38,6.323,1.965,9.546,2.733c7.082,1.686,14.125,3.487,20.787,6.497
	c3.221,1.455,6.256,3.218,8.961,5.513c7.899,6.708,10.182,16.153,5.729,25.521C80.285,77.378,71.592,84.335,59.84,87.417
	c-5.59,1.466-12.408,1.675-16.607,0.585c0.17-0.464,0.633-0.579,0.973-0.818c7.313-5.14,13.866-11.082,19.142-18.342
	c2.528-3.48,4.613-7.201,5.395-11.519c0.822-4.56-0.391-8.47-3.745-11.678c-3.541-3.386-7.896-5.384-12.37-7.167
	c-5.023-2.002-10.271-3.278-15.449-4.779c-2.689-0.779-5.337-1.68-7.845-2.943c-1.217-0.613-2.39-1.305-3.319-2.331
	c-1.225-1.353-1.23-2.695-0.007-4.062c1.121-1.252,2.568-2.024,4.088-2.662c3.898-1.634,8.002-2.49,12.156-3.132
	c1.578-0.245,3.155-0.522,4.762-0.517C47.899,17.797,48.831,18.129,49.719,17.858z"/>
<path fill="#8C8B8B" d="M22.906,29.315c0.877,2.345,2.611,3.412,4.446,4.338c3.406,1.718,7.064,2.756,10.692,3.867
	c4.736,1.449,9.519,2.755,14.062,4.775c2.201,0.979,4.297,2.133,6.101,3.759c3.323,3,4.12,6.494,2.384,10.617
	c-1.465,3.481-3.783,6.384-6.354,9.093C47.5,72.864,39.59,78.35,30.873,82.729C30.3,83.018,29.881,83,29.344,82.65
	c-6.88-4.457-11.91-10.447-15.098-18.006c-0.391-0.928,0.058-1.045,0.755-1.225c7.6-1.957,15.007-4.463,22.091-7.87
	c1.803-0.866,3.542-1.853,5.141-3.065c0.895-0.68,1.738-1.418,2.357-2.367c0.995-1.526,0.844-2.944-0.449-4.224
	c-1.102-1.09-2.466-1.775-3.876-2.343c-2.89-1.164-5.815-2.24-8.705-3.405c-2.378-0.959-4.693-2.061-6.607-3.823
	C22.976,34.503,22.136,32.308,22.906,29.315z"/>
<path fill="#E19105" d="M49.719,17.858c-0.879,0.4-1.8,0.213-2.71,0.193C47.897,17.77,48.808,17.818,49.719,17.858z"/>
<g id="Layer_2">
	<path fill="#8C8B8B" d="M50.204,2c-26.509,0-48,21.49-48,48s21.49,48,48,48c26.51,0,48-21.49,48-48S76.714,2,50.204,2z
		 M50.204,94.749C25.49,94.749,5.455,74.714,5.455,50S25.49,5.25,50.204,5.25c24.715,0,44.75,20.035,44.75,44.75
		S74.919,94.749,50.204,94.749z"/>
</g>
</svg>
