<?xml version="1.0" encoding="UTF-8" ?>
<!DOCTYPE svg PUBLIC "-//W3C//DTD SVG 1.1//EN" "http://www.w3.org/Graphics/SVG/1.1/DTD/svg11.dtd">
<svg width="80pt" height="80pt" viewBox="0 0 80 80" version="1.1" xmlns="http://www.w3.org/2000/svg">
<path fill="#515151" opacity="1.00" d=" M 12.34 24.66 C 19.41 16.71 28.65 8.25 40.06 8.98 C 43.50 8.89 46.70 10.47 49.26 12.67 C 52.62 15.81 58.08 16.21 60.35 20.58 C 63.97 27.07 61.80 34.60 61.03 41.50 C 62.86 44.40 62.07 47.68 61.07 50.71 C 60.50 50.95 59.34 51.43 58.77 51.68 C 58.24 60.14 52.48 67.80 44.26 70.15 C 38.80 72.80 32.89 69.72 28.29 66.72 C 23.28 63.35 21.12 57.44 20.48 51.68 C 19.89 51.43 18.71 50.93 18.12 50.68 C 17.17 47.63 16.26 44.30 18.34 41.47 C 18.00 37.67 17.71 33.83 16.82 30.11 C 16.29 27.68 13.95 26.33 12.34 24.66 M 15.42 23.98 C 19.83 28.80 19.88 35.61 20.42 41.73 C 21.58 39.02 22.46 35.79 25.24 34.28 C 29.92 31.33 35.65 31.56 40.90 30.56 C 44.48 29.90 47.59 27.90 50.53 25.86 C 52.83 27.32 55.34 28.75 56.80 31.16 C 58.63 34.39 58.52 38.24 58.97 41.82 C 59.80 35.34 61.76 28.43 58.99 22.15 C 57.92 19.54 55.36 18.08 52.83 17.20 C 48.46 15.89 45.91 11.09 41.05 10.88 C 30.78 10.04 22.16 17.06 15.42 23.98 M 40.93 32.60 C 35.72 33.54 29.93 33.27 25.46 36.53 C 22.97 38.26 23.00 41.57 22.37 44.22 C 21.53 44.08 19.84 43.81 19.00 43.67 C 19.12 45.60 19.26 47.54 19.40 49.48 C 20.16 49.52 21.68 49.62 22.44 49.67 C 22.85 52.97 22.89 56.45 24.56 59.42 C 27.13 64.21 32.04 67.26 37.12 68.80 C 41.18 70.17 45.24 67.72 48.66 65.74 C 54.19 62.43 56.65 55.88 56.78 49.68 C 57.74 49.61 58.69 49.54 59.65 49.46 C 59.95 47.59 60.25 45.72 60.52 43.85 C 59.56 43.91 57.63 44.05 56.66 44.12 C 57.00 38.33 56.44 31.43 50.97 28.07 C 47.87 30.04 44.61 31.97 40.93 32.60 Z" />
<path fill="#262626" opacity="0.67" d=" M 50.15 19.18 C 51.78 18.64 52.34 19.19 51.84 20.82 C 50.22 21.36 49.66 20.81 50.15 19.18 Z" />
<path fill="#262626" opacity="0.67" d=" M 50.18 23.15 C 51.82 22.67 52.36 23.23 51.81 24.85 C 50.17 25.33 49.63 24.76 50.18 23.15 Z" />
<path fill="#515151" opacity="1.00" d=" M 27.43 43.79 C 29.32 43.44 31.21 43.13 33.12 42.88 C 34.55 44.07 36.21 44.92 37.91 45.67 C 34.34 47.58 30.00 47.08 27.43 43.79 Z" />
<path fill="#515151" opacity="1.00" d=" M 45.30 44.43 C 45.68 43.95 46.45 43.01 46.83 42.53 C 48.81 42.91 50.78 43.33 52.73 43.80 C 50.02 47.07 45.45 47.47 41.96 45.24 C 42.80 45.04 44.47 44.63 45.30 44.43 Z" />
<path fill="#515151" opacity="1.00" d=" M 30.34 57.07 C 33.47 58.38 36.35 60.75 39.91 60.70 C 43.34 60.53 46.23 58.37 49.53 57.62 C 45.07 63.77 34.17 63.86 30.34 57.07 Z" />
</svg>
