<svg version="1.1" id="legendIcon" xmlns="http://www.w3.org/2000/svg" xmlns:xlink="http://www.w3.org/1999/xlink" viewBox="0 0 200 200" xml:space="preserve">
	<defs>
		<style type="text/css">
			.st0{fill:#1759CD;}
			.st1{fill:url(#a);}
			.st2{fill:url(#b);}
			.st3{fill:url(#c);}
			.st4{fill:#FFFFFF;}
		</style>
		<linearGradient id="a" gradientUnits="userSpaceOnUse" x1="41" y1="94.4" x2="191.3" y2="94.4">
			<stop  offset="0" style="stop-color:#40CFE7"/>
			<stop  offset="1" style="stop-color:#6EDB55"/>
		</linearGradient>
		<linearGradient id="b" xlink:href="#a" gradientUnits="userSpaceOnUse" x1="162.9" y1="48.6" x2="174.188" y2="48.6" />
		<linearGradient id="c" xlink:href="#a" gradientUnits="userSpaceOnUse" x1="145.9" y1="48.6" x2="157.1881" y2="48.6" />
	</defs>
	<path class="st0" d="M12.8,64.2c0,0,37.2-77.4,93.5-56.7c51.4,19,69.5,84.4,73.4,93.5c0.7,1.7,1.4,4.2,1.9,6.1 c3.6,13.2,35.8,105.3-57,86.2C25.6,173.1-20,136.7,12.8,64.2z"/>
	<path class="st1" d="M179,29.7H53.3C46.5,29.7,41,35.2,41,42v104.8c0,6.8,5.5,12.3,12.3,12.3h96.6c1.4,0,2.5-1.1,2.5-2.5 s-1.1-2.5-2.5-2.5H53.3c-4,0-7.2-3.2-7.2-7.2V42c0-4,3.2-7.2,7.2-7.2H179c4,0,7.2,3.2,7.2,7.2v104.8c0,4-3.2,7.2-7.2,7.2h-18.9 c-1.4,0-2.5,1.1-2.5,2.5s1.1,2.5,2.5,2.5H179c6.8,0,12.3-5.5,12.3-12.3V42C191.3,35.2,185.8,29.7,179,29.7z"/>
	<circle class="st2" cx="168.5" cy="48.6" r="5.6"/>
	<circle class="st3" cx="151.5" cy="48.6" r="5.6"/>
	<g class="st4">
		<path d="M120.2,65.9c-20.4,0-36.9,16.5-36.9,36.9c0,5.5,1.3,10.7,3.5,15.4l4.6-1.7c-2-4.2-3.1-8.8-3.1-13.8 c0-17.7,14.3-32,32-32s32,14.3,32,32s-14.3,32-32,32c-7.1,0-13.5-2.2-18.8-6.1l-1.7,4.7c5.8,3.9,12.9,6.3,20.6,6.3 c20.4,0,36.9-16.5,36.9-36.9C157.1,82.4,140.5,65.9,120.2,65.9z"/>
		<path d="M120.5,75.1c-15.4,0-27.8,12.4-27.8,27.8c0,4.4,0.9,8.5,2.8,12.1l12.4-4.4l-5,13.8c4.9,3.9,11,6.3,17.6,6.3 c15.4,0,27.8-12.4,27.8-27.8C148.3,87.6,135.9,75.1,120.5,75.1z M123,78.8c3,0.2,4.7,1.9,5,5.2c0.3,2.8-2.4,5-5,5 c-2.8,0-5.2-2.2-5.2-5C117.9,81,120.2,78.7,123,78.8z M122.9,121c0.6,0,1.3-0.3,2.2-1.4l1.1-1.3l1.6,1.4c-3.6,5-7.7,7.1-11.9,6.6 c-3.3-0.3-5.5-1.9-5.5-4.6c0-0.8,0.2-2,0.6-3.5l4.2-17.1c0.5-1.6,0.6-3,0.6-3.6c0-1.6-0.5-1.9-2.8-2l0.5-2.4l15.4-1.7l-6.7,26.8 c-0.2,0.5-0.2,0.9-0.3,1.1v0.3C121.8,120.7,122.3,121,122.9,121z"/>
		<polygon points="106.7,111.8 98.2,135.3 94.9,128.9 81.1,142.7 75.8,137.4 89.6,123.7 83.3,120.4"/>
	</g>
</svg>
