<svg xmlns="http://www.w3.org/2000/svg" viewBox="0 0 142 29" xml:space="preserve">
	<path id="info_b" d="M1.4 28.5c-.8 0-1.4-.6-1.4-1.4V6.6c0-.8.6-1.4 1.4-1.4h1.9V7H1.8v19.6h16V7h-1.4V5.2h1.7c.8 0 1.5.6 1.5 1.4v20.5c0 .8-.7 1.4-1.5 1.4H1.4z"/>
	<path id="info" d="M3.9 24.6V9.2c.3.3.8.6 1.6.6h8.7c.7 0 1.2-.2 1.5-.5v15.4l-11.8-.1zm9.6-20.9h-2.4A2 2 0 0 0 9.8 0a2 2 0 0 0-1.3 3.7H6c-.4 0-.8.3-.8.8V7c0 .4.4.8.8.8h7.5c.5 0 .8-.4.8-.8V4.5c0-.5-.3-.8-.8-.8"/>
	<g transform="translate(17 5.2)">
		<path id="letters" d="M15.6 15.2c-.2.3-.6.4-1 .4-.3 0-.5 0-.6-.2-.2-.1-.3-.3-.4-.7l-.6-1.6a2 2 0 0 0-.5-.9c-.2-.2-.4-.2-.8-.2H11v3.5a4 4 0 0 1-.8.1h-.7V7.2H11v3.4h.5l.3-.1.2-.3 1.4-2.4.4-.5.5-.1h.9v.2l-1.6 3-.6.6c.4 0 .7.2.9.5.2.2.4.5.5 1l.6 1.6.6 1zm7.3-7.9v8.2l-.8.1h-1l-2.3-4.8-.7-1.7v6.4a3.8 3.8 0 0 1-1.3 0V7.4l.8-.1h1l2.2 4.8.8 1.8V8.1l.1-.7.7-.2h.5zM28 8.4c-1.3 0-1.9 1-1.9 3s.6 3.1 1.8 3.1c1.3 0 1.9-1 1.9-3 0-2.1-.6-3.1-1.9-3.1M25.8 15c-.9-.7-1.3-2-1.3-3.6s.4-2.8 1.3-3.5c.6-.5 1.3-.7 2.1-.7.9 0 1.6.2 2.2.7.9.7 1.3 2 1.3 3.5 0 1.7-.4 2.9-1.3 3.6-.6.5-1.3.7-2.2.7-.8 0-1.5-.2-2.1-.7m7.8-.1l-1.4-7.5.8-.1.6.1.2.7.7 3.7a44.8 44.8 0 0 1 .5 2.5l1-6.8a6.3 6.3 0 0 1 2 0l1.1 6.6v.1h.1l.4-2.4.8-4.5a3.2 3.2 0 0 1 1.5 0v.2l-1.6 8-1.2.1-.8-.1c-.2-.1-.3-.3-.3-.6l-.5-3-.4-2.9H37l-.5 3-.7 3.5-1.1.1-.8-.1c-.2-.1-.3-.3-.4-.6m12.5-.7h2.2v.6c-.1.5-.4.8-1 .8h-3c-.2 0-.5-.1-.6-.3a1 1 0 0 1-.3-.7V7.4l.1-.1h.6c.3 0 .5 0 .7.2l.2.8v6h1m5.1-.7v.7h4v.5c-.2.5-.5.8-1 .8h-3.5c-.3 0-.5-.1-.6-.3a1 1 0 0 1-.3-.7V7.4h5.1v1.2H51v2.2h3a2.3 2.3 0 0 1 0 1.2h-3v1.6zm9.8-.2l.2-1a7.3 7.3 0 0 0-.2-3c-.1-.2-.3-.5-.6-.6a2 2 0 0 0-1.1-.3h-1.2v5.9h1.3c.4 0 .7 0 1-.3.3-.1.5-.4.6-.7m1.6-4c.2.6.3 1.2.3 2a7 7 0 0 1-.3 2.1 3 3 0 0 1-1 1.5l-1 .5a150.8 150.8 0 0 1-4 .1V7.3a80.1 80.1 0 0 1 4 .1l1 .5c.5.4.8.9 1 1.5m5 1.7h1.8c.8 0 1 .3 1 1v3.1a9 9 0 0 1-3 .5c-1.1 0-2-.4-2.6-1.1-.6-.8-.8-1.9-.8-3.2 0-1.3.3-2.4 1-3.1.7-.8 1.6-1.1 2.7-1.1 1 0 2 .3 2.8.9l-.3.6-.4.5c-.7-.5-1.4-.7-2-.7a2 2 0 0 0-1.7.7c-.4.5-.6 1.3-.6 2.3 0 2 .8 3 2.2 3 .4 0 .9 0 1.3-.2V12.4H68c-.3 0-.4 0-.6-.2l-.1-.4V11m6.2 2.6v.7h3.8v.5c-.1.5-.4.8-1 .8H73a1 1 0 0 1-.7-.3 1 1 0 0 1-.2-.7V7.4h5l.1.5-.1.7h-3.5v2.2h2.8l.2.6-.1.6h-3v1.6zm12.4-3.3c0-.6-.1-1-.4-1.3-.2-.4-.6-.6-1.2-.6-1.1 0-1.7 1-1.7 3 0 1 .2 1.7.5 2.2.3.5.8.8 1.4.8.6 0 1.3-.3 2-1a2 2 0 0 1 .8 1 5 5 0 0 1-1.4 1c-.5.2-1 .3-1.7.3a3 3 0 0 1-1.5-.3c-.4-.3-.8-.6-1-1-.5-.8-.7-1.8-.7-3 0-1.3.3-2.4 1-3.1a3 3 0 0 1 2.3-1.1c1 0 1.7.2 2.2.7.6.4.8 1 .8 1.7 0 .5-.3.8-.8.8h-.6m7.5.3V7.3h1.5v8.2a4.2 4.2 0 0 1-1.6 0V12h-3v3.5a4 4 0 0 1-.8.1h-.7V7.2h1.5v3.4h3.1zm5 2.9v.7h3.8v.5c-.1.5-.4.8-1 .8h-3.4a1 1 0 0 1-.7-.3 1 1 0 0 1-.2-.7V7.4h5l.1.5-.1.7h-3.5v2.2h2.8l.1.6v.6h-2.9v1.6zm9.6-3.3c0-.6-.1-1-.3-1.3-.3-.4-.7-.6-1.2-.6-1.2 0-1.7 1-1.7 3 0 1 .1 1.7.4 2.2.4.5.8.8 1.5.8.6 0 1.3-.3 2-1a2 2 0 0 1 .8 1l-1.4 1a5 5 0 0 1-1.7.3 3 3 0 0 1-1.6-.3l-1-1c-.4-.8-.6-1.8-.6-3 0-1.3.3-2.4 1-3.1a3 3 0 0 1 2.3-1.1c.9 0 1.6.2 2.2.7.5.4.8 1 .8 1.7 0 .5-.3.8-.9.8a2 2 0 0 1-.6 0m9 4.8c-.2.3-.5.4-1 .4-.3 0-.5 0-.6-.2-.1-.1-.3-.3-.4-.7l-.5-1.6-.6-.9c-.2-.2-.4-.2-.8-.2h-.7v3.5a4 4 0 0 1-.7.1h-.8V7.2h1.5v3.4h.6l.3-.1s0-.2.2-.3l1.3-2.4.4-.5.5-.1h.9v.2l-1.6 3-.5.6c.3 0 .6.2.8.5l.6 1 .5 1.6.6 1"/>
		<path d="M0 23.3h123.3v-1.8H0zM0 1.8h123.3V0H0z"/>
		<path d="M122.4 23.3h1.8V0h-1.8z"/>
	</g>
</svg>
