<?xml version="1.0" encoding="UTF-8"?>
<!-- Generator: Adobe Illustrator 16.0.0, SVG Export Plug-In . SVG Version: 6.00 Build 0)  -->
<!DOCTYPE svg PUBLIC "-//W3C//DTD SVG 1.1//EN" "http://www.w3.org/Graphics/SVG/1.1/DTD/svg11.dtd">
<svg version="1.1" id="Capa_1" xmlns="http://www.w3.org/2000/svg" xmlns:xlink="http://www.w3.org/1999/xlink" x="0px" y="0px" width="500px" height="500px" viewBox="0 0 500 500" enable-background="new 0 0 500 500" xml:space="preserve">
<g>
	<path fill="#D9D9D9" d="M424.604,398.202l-38.569,28.502c-2.312,1.706-7.138,1.848-9.558,0.243l-33.79-22.274   c-8.693-5.744-21.847-5.813-30.574-0.126l-34.604,22.454c-2.661,1.706-8.065,1.746-10.75,0.065l-35.953-22.708   c-8.973-5.654-22.129-5.11-30.599,1.265l-27.937,21.039c-2.31,1.746-7.1,1.909-9.534,0.332l-34.592-22.436   c-9.097-5.916-22.266-5.128-30.592,1.825l-33.497,27.938c-3.902,3.248-4.423,9.044-1.188,12.945   c1.836,2.18,4.451,3.308,7.075,3.308c2.075,0,4.17-0.704,5.886-2.132l33.495-27.935c2.127-1.782,6.475-2.039,8.797-0.528   l34.604,22.443c8.947,5.814,22.116,5.34,30.612-1.066l27.936-21.039c2.316-1.771,7.225-1.979,9.697-0.407l35.969,22.71   c8.744,5.513,21.875,5.438,30.565-0.19l34.604-22.45c2.608-1.688,7.864-1.658,10.44,0.051l33.79,22.271   c8.88,5.88,22.065,5.534,30.622-0.795l38.569-28.505c4.078-3.021,4.932-8.782,1.923-12.859   C434.441,396.041,428.682,395.178,424.604,398.202z"/>
	<path fill="#D9D9D9" d="M235.374,349.549l96.833-33.175c6.813-2.338,13.396-9.992,13.984-17.185   c7.615-92.269-72.604-174.89-149.137-209.057c-6.583-2.929-11.235,0.797-10.225,7.935l34.37,242.798   C222.211,347.996,228.554,351.891,235.374,349.549z"/>
	<path fill="#D9D9D9" d="M134.416,386.171l32.791,21.276l27.114-20.42c11.415-8.598,29.594-9.361,41.705-1.737l11.055,6.983   c9.748-3.316,20.666-7.016,32.581-11.069c35.867-12.171,61.972-37.634,73.595-50.644c3.828-4.291-1.276-18.047-6.055-15.334   C301.76,341,143.527,379.755,137.151,380.893C135.377,381.219,134.554,383.346,134.416,386.171z"/>
	<path fill="#D9D9D9" d="M200.722,342.57l-84.373-4.614c-5.938-0.327-12.888-4.931-14.969-10.511   c-26.768-71.592,18.409-155.236,71.537-199.563c4.572-3.806,9.105-1.89,9.905,4.006l27.211,200.6   C210.83,338.381,206.665,342.898,200.722,342.57z"/>
</g>
<g>
	<g>
		<path fill="#D9D9D9" d="M382.287,105.215c-16.604-21.854-40.725-35.948-67.927-39.629c-6.203-0.846-12.485-1.138-18.665-0.861    c-24.83,1.137-47.459,11.081-64.696,26.928c-0.233,0.206-0.426,0.392-0.627,0.594l10.143,4.051    c0.21-0.158,0.411-0.355,0.627-0.532c15.1-12.53,34.193-20.305,54.997-21.255c5.604-0.25,11.288,0.001,16.889,0.763    c24.62,3.352,46.448,16.095,61.49,35.866c15.013,19.766,21.457,44.209,18.104,68.822c-3.046,22.535-14.022,42.299-29.902,56.595    c-0.315,0.266-0.608,0.535-0.915,0.776l-5.392,16.36c1.065-0.704,2.136-1.412,3.158-2.137c22.737-16,38.763-41.042,42.749-70.262    C406.025,154.074,398.914,127.061,382.287,105.215z"/>
		<g>
			<path fill="#D9D9D9" d="M325.828,22.824L325.828,22.824L325.828,22.824c0.41-3.044-1.728-5.855-4.794-6.267     c-3.057-0.423-5.867,1.724-6.278,4.773l0,0l-0.011-0.001l-3.237,23.704l0.019,0.009c-0.363,3.023,1.759,5.787,4.794,6.203     c3.013,0.412,5.802-1.694,6.254-4.682l0.012,0.001L325.828,22.824z"/>
			<path fill="#D9D9D9" d="M422.966,178.46l-0.001,0.005l0,0c-3.08-0.414-5.864,1.719-6.289,4.779     c-0.396,3.044,1.742,5.869,4.793,6.272l0,0l-0.002,0.019l23.683,3.22l0.014-0.011c3.021,0.37,5.8-1.751,6.192-4.765     c0.429-3.034-1.672-5.822-4.69-6.28l0.002-0.013L422.966,178.46z"/>
			<path fill="#D9D9D9" d="M394.894,88.625l0.007,0.007l0,0c-2.447,1.855-2.928,5.365-1.063,7.809     c1.875,2.444,5.364,2.932,7.806,1.081l0,0l0.014,0.001l19.031-14.48l0.002-0.012c2.414-1.886,2.867-5.348,1.028-7.781     c-1.846-2.429-5.315-2.914-7.748-1.088c0,0-0.011-0.021-0.028-0.023L394.894,88.625z"/>
			<g>
				<path fill="#D9D9D9" d="M216.138,47.242L216.138,47.242l-0.006-0.001c-1.849-2.453-5.352-2.931-7.804-1.05      c-2.443,1.863-2.919,5.354-1.051,7.81c-0.008,0.017-0.008,0.017-0.008,0.017l-0.006-0.001l14.48,19.027c0,0,0.006,0,0.019-0.004      c1.869,2.406,5.311,2.856,7.751,1.019c2.449-1.862,2.912-5.292,1.114-7.752l0.013-0.005L216.138,47.242z"/>
				<path fill="#D9D9D9" d="M379.271,261.824l-0.008-0.001l0,0c-1.855-2.438-5.334-2.929-7.794-1.073      c-2.458,1.868-2.953,5.374-1.088,7.85l0,0h-0.006l14.474,19.036c0,0,0.001-0.012,0.025-0.01c1.874,2.399,5.32,2.878,7.763,1.021      c2.438-1.856,2.919-5.303,1.104-7.758l0.008-0.014L379.271,261.824z"/>
			</g>
		</g>
	</g>
</g>
</svg>