<?xml version="1.0" encoding="UTF-8"?>
<!-- Generator: Adobe Illustrator 16.0.0, SVG Export Plug-In . SVG Version: 6.00 Build 0)  -->
<!DOCTYPE svg PUBLIC "-//W3C//DTD SVG 1.1//EN" "http://www.w3.org/Graphics/SVG/1.1/DTD/svg11.dtd">
<svg version="1.1" xmlns="http://www.w3.org/2000/svg" xmlns:xlink="http://www.w3.org/1999/xlink" x="0px" y="0px" width="500px" height="500px" viewBox="0 0 500 500" enable-background="new 0 0 500 500" xml:space="preserve">
<g id="Layer_1">
	<path fill="#D7D8D8" d="M418.521,458.741"/>
	<g>
		<g>
			<path fill="#D9D9D9" d="M312.138,180.801c15.007,0,27.216,12.209,27.216,27.216v226.795c0,15.007-12.209,27.216-27.216,27.216     H148.843c-15.007,0-27.216-12.209-27.216-27.216V208.017c0-15.007,12.209-27.216,27.216-27.216H312.138 M312.138,171.729H148.843     c-19.958,0-36.288,16.33-36.288,36.288v226.795c0,19.959,16.33,36.288,36.288,36.288h163.294     c19.959,0,36.288-16.329,36.288-36.288V208.017C348.426,188.059,332.097,171.729,312.138,171.729L312.138,171.729z"/>
		</g>
		<g>
			<path fill="#CCCCCC" d="M379.319,142.307c-26.933-27.827-63.097-43.517-101.83-44.102c-8.832-0.142-17.684,0.504-26.294,1.931     c-34.596,5.768-64.629,23.504-86.113,48.603c-0.292,0.327-0.531,0.62-0.78,0.939l14.893,3.969     c0.266-0.257,0.514-0.567,0.789-0.851c19.048-20.093,44.492-34.197,73.479-39.025c7.806-1.294,15.813-1.896,23.787-1.772     c35.057,0.558,67.783,14.742,92.182,39.911c24.354,25.169,37.493,58.33,36.935,93.377c-0.479,32.075-12.535,61.611-32.381,84.327     c-0.398,0.407-0.762,0.833-1.151,1.241l-4.802,23.813c1.373-1.151,2.755-2.321,4.066-3.526     c29.164-26.224,47.406-64,48.08-105.616C420.789,206.768,406.287,170.117,379.319,142.307z"/>
			<g>
				<path fill="#CCCCCC" d="M286.366,36.367L286.366,36.367L286.366,36.367c0.063-4.332-3.401-7.911-7.77-7.973      c-4.35-0.08-7.929,3.401-7.991,7.743l0,0h-0.018l-0.549,33.754l0.026,0.008c0,4.297,3.438,7.814,7.761,7.885      c4.288,0.071,7.84-3.349,7.974-7.61h0.018L286.366,36.367z"/>
				<path fill="#CCCCCC" d="M448.625,238.085v0.009l0,0c-4.385-0.062-7.929,3.393-8.009,7.752c-0.044,4.332,3.429,7.929,7.771,7.982      l0,0v0.027l33.718,0.53l0.018-0.017c4.297,0.009,7.832-3.429,7.876-7.716c0.09-4.324-3.322-7.876-7.628-8.009v-0.018      L448.625,238.085z"/>
				<path fill="#CCCCCC" d="M394.193,116.942l0.01,0.009l0,0c-3.119,3.012-3.199,8.009-0.178,11.119      c3.038,3.109,8.008,3.207,11.119,0.204l0,0h0.017l24.23-23.486v-0.018c3.065-3.047,3.119-7.973,0.134-11.074      c-2.996-3.092-7.938-3.19-11.039-0.222c0,0-0.019-0.027-0.045-0.027L394.193,116.942z"/>
				<g>
					<path fill="#CCCCCC" d="M136.795,89.019L136.795,89.019h-0.009c-3.003-3.128-7.991-3.207-11.11-0.16       c-3.109,3.021-3.189,7.991-0.159,11.118c-0.009,0.027-0.009,0.027-0.009,0.027H125.5l23.486,24.221c0,0,0.009,0,0.026-0.009       c3.021,3.057,7.921,3.11,11.03,0.125c3.118-3.021,3.189-7.903,0.257-11.048l0.018-0.009L136.795,89.019z"/>
					<path fill="#CCCCCC" d="M401.423,362.235h-0.01l0,0c-3.011-3.118-7.964-3.207-11.1-0.194       c-3.128,3.029-3.234,8.026-0.203,11.162l0,0h-0.01l23.478,24.239c0,0,0,0,0.035,0c3.03,3.048,7.938,3.118,11.048,0.106       c3.101-3.013,3.197-7.921,0.239-11.057l0.009-0.018L401.423,362.235z"/>
				</g>
			</g>
		</g>
		<g>
			<path fill="#CCCCCC" d="M214.996,336.934c0,9.979-8.165,18.144-18.144,18.144H28.144c-9.979,0-18.144-8.165-18.144-18.144     v-90.618c0-9.979,8.165-18.144,18.144-18.144h168.708c9.979,0,18.144,8.165,18.144,18.144V336.934z"/>
		</g>
		<polygon fill="#FFFFFF" points="102.021,329.402 144.254,294.657 102.021,259.906   "/>
	</g>
</g>
<g id="Layer_2" display="none">
	<g display="inline">
		<g>
			<path fill="#D9D9D9" d="M312.138,181.004c15.007,0,27.216,12.209,27.216,27.216v226.803c0,15.007-12.209,27.216-27.216,27.216     H148.843c-15.007,0-27.216-12.209-27.216-27.216V208.22c0-15.007,12.209-27.216,27.216-27.216H312.138 M312.138,171.933H148.843     c-19.958,0-36.288,16.33-36.288,36.288v226.803c0,19.959,16.33,36.288,36.288,36.288h163.294     c19.959,0,36.288-16.329,36.288-36.288V208.22C348.426,188.262,332.097,171.933,312.138,171.933L312.138,171.933z"/>
		</g>
		<g>
			<g>
				<path fill="#F8ED34" d="M379.319,142.511c-26.933-27.827-63.097-43.517-101.83-44.102c-8.832-0.142-17.684,0.504-26.294,1.931      c-34.596,5.768-64.629,23.504-86.113,48.603c-0.292,0.328-0.531,0.62-0.78,0.939l14.893,3.968      c0.266-0.257,0.514-0.567,0.789-0.85c19.048-20.093,44.492-34.197,73.479-39.025c7.806-1.293,15.813-1.896,23.787-1.772      c35.057,0.558,67.783,14.742,92.182,39.911c24.354,25.169,37.493,58.33,36.935,93.378c-0.479,32.083-12.535,61.62-32.381,84.317      c-0.398,0.426-0.762,0.851-1.151,1.241l-4.802,23.832c1.373-1.17,2.755-2.34,4.066-3.526      c29.164-26.241,47.406-64.018,48.08-105.625C420.789,206.971,406.287,170.32,379.319,142.511z"/>
				<g>
					<path fill="#F8ED34" d="M286.366,36.571L286.366,36.571L286.366,36.571c0.063-4.333-3.401-7.912-7.77-7.974       c-4.35-0.08-7.929,3.402-7.991,7.743l0,0h-0.018l-0.549,33.754l0.026,0.008c0,4.297,3.438,7.814,7.761,7.885       c4.288,0.071,7.84-3.349,7.974-7.61h0.018L286.366,36.571z"/>
					<path fill="#F8ED34" d="M448.625,238.289v0.009l0,0c-4.385-0.062-7.929,3.393-8.009,7.752       c-0.044,4.333,3.429,7.929,7.771,7.982l0,0v0.026l33.718,0.532l0.018-0.019c4.297,0.01,7.832-3.429,7.876-7.716       c0.09-4.324-3.322-7.876-7.628-8.009v-0.018L448.625,238.289z"/>
					<path fill="#F8ED34" d="M394.193,117.146l0.01,0.009l0,0c-3.119,3.012-3.199,8.009-0.178,11.119       c3.038,3.11,8.008,3.208,11.119,0.204l0,0h0.017l24.23-23.486v-0.018c3.065-3.047,3.119-7.973,0.134-11.074       c-2.996-3.092-7.938-3.189-11.039-0.222c0,0-0.019-0.026-0.045-0.026L394.193,117.146z"/>
					<g>
						<path fill="#F8ED34" d="M136.795,89.222L136.795,89.222h-0.009c-3.003-3.128-7.991-3.207-11.11-0.159        c-3.109,3.021-3.189,7.991-0.159,11.118c-0.009,0.027-0.009,0.027-0.009,0.027H125.5l23.486,24.221c0,0,0.009,0,0.026-0.009        c3.021,3.057,7.921,3.11,11.03,0.125c3.118-3.021,3.189-7.903,0.257-11.048l0.018-0.009L136.795,89.222z"/>
						<path fill="#F8ED34" d="M401.423,362.431h-0.01l0,0c-3.011-3.101-7.964-3.207-11.1-0.195        c-3.128,3.03-3.234,8.026-0.203,11.181l0,0h-0.01l23.478,24.239c0,0,0-0.018,0.035-0.018c3.03,3.047,7.938,3.136,11.048,0.124        c3.101-3.013,3.197-7.921,0.239-11.057l0.009-0.019L401.423,362.431z"/>
					</g>
				</g>
			</g>
		</g>
		<g>
			<path fill="#EF4237" d="M214.996,337.128c0,9.979-8.165,18.144-18.144,18.144H28.144c-9.979,0-18.144-8.165-18.144-18.144V246.52     c0-9.979,8.165-18.144,18.144-18.144h168.708c9.979,0,18.144,8.165,18.144,18.144V337.128z"/>
		</g>
		<polygon fill="#FFFFFF" points="102.021,329.598 144.254,294.852 102.021,260.11   "/>
	</g>
	<path display="inline" fill="#D7D8D8" d="M310.109,89.482"/>
	<path display="inline" fill="#D7D8D8" d="M310.109,89.482"/>
</g>
</svg>