<?xml version="1.0" encoding="utf-8"?>
<!-- Generator: Adobe Illustrator 16.0.0, SVG Export Plug-In . SVG Version: 6.00 Build 0)  -->
<!DOCTYPE svg PUBLIC "-//W3C//DTD SVG 1.1//EN" "http://www.w3.org/Graphics/SVG/1.1/DTD/svg11.dtd">
<svg version="1.1" id="Layer_1" xmlns="http://www.w3.org/2000/svg" xmlns:xlink="http://www.w3.org/1999/xlink" x="0px" y="0px"
	 width="100px" height="100px" viewBox="0 0 100 100" enable-background="new 0 0 100 100" xml:space="preserve">
<path fill="#8C8B8B" d="M76.203,21.207c1.164,2.625,1.32,5.025,0.41,6.423c-0.357,0.552-0.861,0.868-1.379,0.868
	c-0.535,0-1.025-0.323-1.379-0.912c-0.387-0.645-0.588-1.579-0.588-2.701c0-0.598,0.094-1.159,0.198-1.81
	c0.05-0.304,0.104-0.629,0.15-0.991c0.1-0.714,0.116-1.431,0.077-2.145c-1.293,0.275-2.754,0.521-4.344,0.734
	c0.432,1.163,0.703,2.223,0.92,3.213c1.09,4.935,0.41,8.021-0.59,9.264c-0.332,0.414-0.711,0.634-1.093,0.634
	c-0.304,0-0.599-0.144-0.848-0.416c-0.728-0.793-1.031-2.57-0.832-4.874c0.071-0.824,0.229-1.588,0.411-2.47
	c0.086-0.414,0.179-0.859,0.27-1.35c0.234-1.255,0.346-2.535,0.357-3.823c-14.174,1.666-36.88,1.006-44.285-2.358
	c-1.116,2.26-1.57,4.813-1.232,6.947c0.127,0.811-0.07,1.527-0.449,1.918v7.915l0.391,1.352c0.92,3.169,12.778,5.47,28.198,5.47
	c3.244,0,6.352-0.104,9.24-0.299c9.986-0.756,18.145-2.635,18.564-5.537V18.433c-0.752,0.408-1.785,0.777-3.031,1.111
	C75.697,20.127,75.969,20.679,76.203,21.207"/>
<path fill="#8C8B8B" d="M21.981,41.648v22.694l0.399,1.54c0.923,3.552,12.757,6.13,28.14,6.13c1.248,0,2.473-0.019,3.672-0.052
	c12.373-0.446,23.688-2.683,24.185-6.517v-22.73c-4.89,3.349-16.919,4.874-28.157,4.874C38.896,47.587,25.986,45.972,21.981,41.648
	 M53.195,48.734l9.755,9.75c0.267,0.268,0.267,0.701,0,0.971l-9.755,9.752c-0.264,0.266-0.698,0.266-0.967,0l-9.75-9.752
	c-0.266-0.27-0.266-0.703,0-0.971l9.75-9.75C52.497,48.468,52.932,48.468,53.195,48.734"/>
<path fill="#8C8B8B" d="M34.603,76.741c0.009,0.11,0.009,0.22,0.021,0.331c0.041,0.408,0.087,0.783,0.13,1.134
	c0.09,0.751,0.168,1.401,0.169,2.065c0.002,1.135-0.137,2.024-0.41,2.644c-0.255,0.573-0.628,0.892-1.053,0.892
	c-0.386,0-0.779-0.265-1.106-0.74c-0.854-1.241-1.218-3.789-0.249-6.834c-4.278-0.986-7.841-2.428-9.784-4.435
	c-0.122-0.129-0.234-0.256-0.341-0.385V83.32l0.063-0.139l0.345,1.797c0.219,1.138,1.016,2.193,2.295,3.145
	c11.225,7.47,52.728,5.6,53.691-4.02V72.559c-4.899,3.746-17.015,5.452-28.197,5.452C45.122,78.011,39.537,77.635,34.603,76.741"/>
<path fill="#222222" d="M22.438,91.146c-0.163-0.168-0.31-0.338-0.451-0.512c0.203,4.352,12.757,7.868,28.192,7.868
	c15.506,0,28.112-3.897,28.197-6.364v-0.646c-5.049,4.031-17.767,5.893-28.809,5.893C39.375,97.385,26.896,95.746,22.438,91.146"/>
<path fill="#FFFFFF" d="M21.305,38.729c0.038,5.663,14.399,8.275,28.914,8.275c17.024,0,34.257-3.596,28.816-10.088
	c0,0.003-0.002,0.007-0.002,0.009c8.184,9.777-62.197,12.236-57.212-0.124c-0.002-0.005-0.006-0.009-0.008-0.015
	C21.465,37.473,21.302,38.121,21.305,38.729"/>
<path fill="#E19105" d="M79.033,36.926c0-0.002,0.002-0.006,0.002-0.009c5.439,6.492-11.792,10.09-28.816,10.09
	c-14.515,0-28.876-2.615-28.914-8.277c-0.003-0.609,0.16-1.257,0.508-1.942c0.001,0.005,0.005,0.009,0.008,0.015
	c0.049-0.126,0.093-0.25,0.16-0.377c1.425,4.92,21.944,6.569,37.83,5.371c-2.89,0.194-5.996,0.299-9.24,0.299
	c-15.42,0-27.278-2.301-28.198-5.47l-0.391-1.352l-0.018-0.063l-0.669,1.313c-0.382,0.753-0.576,1.496-0.57,2.21
	c0.005,1.087,0.458,2.053,1.257,2.915c4.004,4.323,16.915,5.938,28.237,5.938c11.238,0,23.269-1.524,28.157-4.874
	c0.93-0.635,1.602-1.336,1.961-2.106c0.417-0.892,0.605-2.32-0.855-4.065l-0.836-0.997l-0.123,0.853
	C78.719,36.577,78.887,36.752,79.033,36.926"/>
<path fill="#6A6A6A" d="M59.811,41.682c-15.885,1.198-36.403-0.451-37.829-5.371c-0.067,0.127-0.111,0.251-0.16,0.377
	c-4.985,12.36,65.396,9.901,57.212,0.124c-0.146-0.174-0.313-0.349-0.513-0.528c-0.049-0.046-0.09-0.092-0.146-0.139
	C77.955,39.047,69.798,40.926,59.811,41.682"/>
<path fill="#FFFFFF" d="M21.311,68.034c-0.118,3.616,4.403,6.137,10.983,7.647c0.027-0.07,0.05-0.144,0.078-0.218
	c0.166-0.433,0.353-0.877,0.585-1.334c-7.608-1.415-12.604-4.039-11.133-8.085c-0.001-0.007-0.005-0.013-0.007-0.02
	C21.496,66.729,21.332,67.398,21.311,68.034"/>
<path fill="#FFFFFF" d="M34.565,76.152c4.671,0.857,10.132,1.274,15.613,1.274c17.029,0,34.28-4.021,28.839-11.276
	c-0.002,0.007-0.004,0.01-0.004,0.017c5.715,7.517-25.799,11.174-44.455,8.24C34.526,74.979,34.536,75.563,34.565,76.152"/>
<path fill="#E19105" d="M32.106,76.23c0.057-0.182,0.122-0.362,0.188-0.549c-6.58-1.512-11.101-4.031-10.983-7.647
	c0.021-0.636,0.185-1.306,0.506-2.007c0.001,0.006,0.005,0.014,0.007,0.019c0.048-0.137,0.093-0.271,0.157-0.411
	c1.263,4.858,17.486,6.86,32.21,6.326c-1.199,0.033-2.424,0.053-3.672,0.053c-15.382,0-27.216-2.58-28.14-6.131l-0.399-1.54
	l-0.013-0.049l-0.681,1.491c-0.347,0.76-0.536,1.51-0.558,2.23c-0.041,1.219,0.382,2.359,1.252,3.396
	c0.107,0.129,0.22,0.256,0.341,0.385C24.266,73.805,27.828,75.245,32.106,76.23"/>
<path fill="#E19105" d="M79.016,66.167c0-0.007,0.002-0.01,0.004-0.017c5.439,7.257-11.812,11.276-28.84,11.276
	c-5.481,0-10.942-0.417-15.613-1.274c0.009,0.195,0.021,0.392,0.037,0.589c4.935,0.894,10.52,1.27,15.576,1.27
	c11.182,0,23.297-1.706,28.197-5.452c0.828-0.635,1.458-1.324,1.835-2.078c0.739-1.478,0.493-3.052-0.729-4.678l-0.857-1.146
	l-0.12,0.925C78.7,65.78,78.868,65.975,79.016,66.167"/>
<path fill="#6A6A6A" d="M54.581,71.359c-14.725,0.533-30.948-1.469-32.21-6.326c-0.064,0.138-0.108,0.273-0.157,0.41
	c-1.471,4.047,3.525,6.671,11.133,8.086c0.396-0.779,0.925-1.584,1.725-2.397c0.027-0.028,0.066-0.044,0.104-0.044
	c0.023,0,0.048,0.008,0.072,0.02c0.057,0.031,0.085,0.098,0.07,0.16c-0.195,0.815-0.317,1.664-0.367,2.539
	c18.656,2.934,50.169-0.725,44.455-8.242c-0.146-0.191-0.314-0.387-0.51-0.584c-0.047-0.045-0.082-0.09-0.129-0.137
	C78.27,68.677,66.954,70.912,54.581,71.359"/>
<path fill="#6A6A6A" d="M79.035,17.021c-0.098,0.45-1.795,1.063-2.129,1.172c-0.668,0.218-1.372,0.395-2.088,0.557
	c0.197,0.271,0.369,0.536,0.525,0.794c1.246-0.334,2.279-0.704,3.031-1.111c1.189-0.645,1.689-1.381,1.32-2.203
	C79.622,16.504,79.396,16.769,79.035,17.021"/>
<path fill="#FFFFFF" d="M21.35,15.645c-0.066,0.096-0.105,0.201-0.113,0.347c0.046-0.053,0.094-0.103,0.142-0.157
	C21.361,15.774,21.357,15.707,21.35,15.645"/>
<path fill="#6A6A6A" d="M67.948,20.851c0.002-0.346,0.005-0.691-0.007-1.036c-5.736,0.637-11.678,0.844-17.398,0.866
	c-6.693,0.024-13.906-0.183-20.525-1.211c-0.624-0.098-3.927-0.637-6.089-1.488c-0.094,0.168-0.183,0.337-0.267,0.511
	C31.067,21.857,53.773,22.517,67.948,20.851"/>
<path fill="#FFFFFF" d="M63.432,19.944c1.521-0.094,3.041-0.214,4.504-0.364c0-0.013-0.004-0.024-0.004-0.035
	C66.509,19.697,65.002,19.832,63.432,19.944"/>
<path fill="#6A6A6A" d="M70.402,19.512c-0.479,0.064-0.963,0.121-1.444,0.177c0.146,0.338,0.272,0.665,0.392,0.984
	c1.592-0.214,3.053-0.459,4.346-0.734c-0.016-0.312-0.049-0.62-0.092-0.931C72.523,19.211,71.436,19.372,70.402,19.512"/>
<path fill="#FFFFFF" d="M73.57,18.748c-1.4,0.26-2.984,0.495-4.721,0.696c0.004,0.011,0.012,0.023,0.017,0.034
	c1.706-0.193,3.304-0.432,4.704-0.725C73.57,18.752,73.57,18.75,73.57,18.748"/>
<path fill="#FFFFFF" d="M21.311,87.1c-0.208,6.668,13.845,9.705,28.256,9.705c17.224,0,34.955-4.34,29.451-11.998
	c-0.002,0.019-0.008,0.033-0.009,0.051c8.354,11.599-62.229,14.84-57.183,0.267c-0.002-0.013-0.008-0.022-0.009-0.033
	C21.496,85.795,21.332,86.465,21.311,87.1"/>
<path fill="#E19105" d="M79.01,84.857c0.002-0.019,0.008-0.033,0.01-0.051c5.504,7.657-12.229,11.998-29.452,11.998
	c-14.412,0-28.464-3.039-28.256-9.705c0.021-0.636,0.185-1.306,0.506-2.011c0.001,0.011,0.007,0.021,0.009,0.033
	c0.048-0.142,0.09-0.283,0.155-0.427c0.27,1.306,1.228,2.445,2.703,3.427c-1.279-0.95-2.077-2.007-2.295-3.146l-0.345-1.795
	l-0.063,0.137l-0.694,1.527c-0.347,0.766-0.536,1.516-0.558,2.234c-0.041,1.275,0.384,2.468,1.257,3.554
	c0.141,0.173,0.288,0.345,0.451,0.513c4.458,4.599,16.937,6.236,27.13,6.236c11.042,0,23.76-1.859,28.809-5.893
	c0.789-0.633,1.4-1.314,1.779-2.053c0.804-1.567,0.578-3.239-0.665-4.973l-0.904-1.259l-0.097,1.021
	C78.688,84.441,78.859,84.652,79.01,84.857"/>
<path fill="#6A6A6A" d="M24.685,87.223c-1.476-0.979-2.434-2.121-2.703-3.426c-0.064,0.143-0.107,0.284-0.155,0.426
	C16.78,98.796,87.363,95.555,79.01,83.958c-0.15-0.206-0.322-0.417-0.521-0.629c-0.041-0.043-0.07-0.083-0.112-0.126
	C77.412,92.82,35.911,94.693,24.685,87.223"/>
<path fill="#E19105" stroke="#222222" stroke-width="0.5" stroke-miterlimit="10" d="M42.478,59.455l9.752,9.752
	c0.267,0.266,0.701,0.266,0.965,0l9.755-9.752c0.267-0.27,0.267-0.703,0-0.971l-9.755-9.75c-0.264-0.266-0.698-0.266-0.965,0
	l-9.752,9.75C42.212,58.752,42.212,59.188,42.478,59.455 M50.512,56.764c0.811-1.384,1.738-3.047,2.202-5.263
	c0.466,2.216,1.394,3.879,2.203,5.263c1.24,2.113,2.301,4.351,0.696,6.646c-0.579,0.83-1.506,1.385-2.899,1.385
	s-2.319-0.555-2.898-1.385C48.211,61.113,49.272,58.877,50.512,56.764"/>
<path fill="#222222" d="M52.714,64.795c1.392,0,2.32-0.555,2.899-1.384c1.604-2.298,0.544-4.534-0.696-6.647
	c-0.812-1.384-1.737-3.047-2.203-5.263c-0.464,2.216-1.391,3.879-2.202,5.263c-1.239,2.113-2.301,4.351-0.696,6.647
	C50.395,64.24,51.323,64.795,52.714,64.795 M50.754,57.633c0.65-1.109,1.395-2.441,1.768-4.219c-0.385,3.258-3.813,6.624-1.66,9.71
	c0.283,0.405,0.672,0.729,1.183,0.92c-0.854-0.108-1.452-0.515-1.849-1.081C48.911,61.12,49.762,59.328,50.754,57.633"/>
<path fill="#FFFFFF" d="M52.043,64.044c-0.511-0.19-0.898-0.515-1.184-0.92c-2.152-3.086,1.275-6.452,1.662-9.71
	c-0.375,1.775-1.114,3.107-1.769,4.219c-0.992,1.695-1.843,3.485-0.56,5.33C50.591,63.529,51.188,63.936,52.043,64.044"/>
<path d="M73.201,17.125c-1.403,0.291-3.133,0.55-5.116,0.771c0,0,0.002,0,0.002,0.002c1.931-0.207,3.659-0.458,5.121-0.75
	L73.201,17.125z"/>
<path fill="#E19105" d="M29.355,13.128c0.992-0.207,2.14-0.398,3.439-0.57c0.561-0.076,1.15-0.146,1.76-0.213
	c4.807-0.716,16.868-1.147,28.818-0.445c17.765,1.444,15.421,4.252,4.422,5.459l0.239,0.439c1.979-0.219,3.723-0.476,5.14-0.775
	L73.1,16.769l0.217,0.226c2.207-0.477,3.601-1.054,3.838-1.739c0.033,0.256-0.148,0.513-0.563,0.771
	c-0.619,0.384-1.717,0.737-3.191,1.054l0.023,0.024c1.739-0.36,3.082-0.781,3.883-1.267c0.469-0.284,1.002-0.967,1.076-1.292
	c-2.42-1.793-14.094-3.181-28.135-3.222c-8.565-0.024-16.25,0.46-21.491,1.243c0.593,0.024,1.202,0.098,1.834,0.24
	C30.164,12.881,29.752,12.992,29.355,13.128"/>
<path fill="#E19105" d="M22.292,14.919c0.7-0.619,1.488-1.147,2.354-1.545c-1.294,0.343-2.21,0.718-2.664,1.113c0,0,0,0,0.001,0
	C22.046,14.635,22.153,14.779,22.292,14.919"/>
<path d="M67.648,17.943c0.051-0.006,0.103-0.009,0.151-0.015v-0.002C67.751,17.932,67.699,17.937,67.648,17.943"/>
<path fill="#E19105" d="M55.792,18.608c4.408-0.154,8.55-0.41,11.996-0.783l-0.056-0.458c-1.631,0.177-3.453,0.321-5.424,0.419
	c-3.971,0.295-8.564,0.454-13.386,0.43c-6.387-0.033-12.164-0.386-16.38-0.94c-3.463-0.456-5.939-1.045-6.859-1.729
	c-0.217,0.23-0.426,0.474-0.624,0.723C30.944,18.062,44.064,18.842,55.792,18.608"/>
<path fill="#FFFFFF" d="M52.068,11.563c7.467,0.051,13.844,0.525,18.054,1.235c4.077,0.685,6.007,1.595,5.043,2.498
	c-0.84,0.79-3.577,1.451-7.435,1.952l0.063,0.112c10.999-1.208,13.343-4.015-4.422-5.459c-11.95-0.703-24.011-0.271-28.818,0.445
	C39.292,11.821,45.451,11.521,52.068,11.563"/>
<path fill="#FFFFFF" d="M65.966,17.456c-1.144,0.124-2.368,0.234-3.657,0.33c1.971-0.1,3.793-0.242,5.426-0.419l-0.014-0.12
	C67.159,17.321,66.573,17.389,65.966,17.456"/>
<path fill="#FFFFFF" d="M68.085,17.897c1.983-0.222,3.713-0.48,5.116-0.774l-0.028-0.1c-1.417,0.299-3.159,0.556-5.14,0.775
	l0.044,0.081C68.079,17.886,68.083,17.892,68.085,17.897"/>
<path fill="#FFFFFF" d="M76.592,16.027c0.413-0.258,0.596-0.515,0.563-0.771c-0.237,0.685-1.631,1.263-3.838,1.739l0.084,0.086
	C74.875,16.764,75.973,16.411,76.592,16.027"/>
<path fill="#FFFFFF" d="M67.788,17.825c-3.446,0.373-7.588,0.629-11.996,0.783c4.278-0.087,8.369-0.309,11.856-0.665
	c0.051-0.006,0.103-0.011,0.151-0.017L67.788,17.825z"/>
<path fill="#6A6A6A" d="M48.924,18.216c4.82,0.024,9.415-0.135,13.385-0.43c1.289-0.096,2.515-0.207,3.657-0.33
	c0.607-0.067,1.193-0.135,1.755-0.208l-0.003-0.028l0.015,0.028c3.855-0.501,6.594-1.162,7.434-1.952
	c0.964-0.903-0.966-1.813-5.043-2.498c-4.21-0.709-10.587-1.182-18.055-1.235c-6.617-0.042-12.776,0.258-17.513,0.782
	c-0.61,0.067-1.199,0.137-1.76,0.213c-1.3,0.171-2.448,0.363-3.439,0.57c-1.417,0.484-2.65,1.337-3.67,2.417
	c0.92,0.687,3.396,1.275,6.859,1.731C36.76,17.831,42.537,18.183,48.924,18.216 M30.355,13.115c1.871-0.419,4.378-0.777,7.348-1.05
	c-2.784,0.286-5.118,0.649-6.828,1.069C30.578,13.208,30.121,13.191,30.355,13.115 M32.496,13.241
	c2.973-0.738,8.099-1.239,13.961-1.435c5.902-0.197,12.462-0.078,17.961,0.388c5.499,0.461,8.829,1.162,9.939,1.911
	c1.076,0.724,0.026,1.49-3.306,2.136c-3.241,0.625-8.081,1.027-13.312,1.18c-5.197,0.155-10.912,0.072-16-0.297
	c-5.189-0.375-8.878-0.975-10.61-1.659C29.344,14.756,29.614,13.957,32.496,13.241 M26.832,14.698
	c0.057-0.128,0.968-0.111,0.953,0.021c-0.031,0.474,0.72,0.943,2.237,1.374c2.081,0.593,5.474,1.07,9.745,1.377
	c2.105,0.151,4.358,0.256,6.672,0.312c2.303,0.058,4.686,0.069,7.07,0.028c3.397-0.054,6.636-0.203,9.526-0.43
	c-3.121,0.27-6.696,0.451-10.475,0.51c-2.377,0.041-4.757,0.03-7.063-0.026c-2.308-0.058-4.559-0.163-6.665-0.313
	c-4.271-0.307-7.664-0.783-9.756-1.372C27.43,15.717,26.68,15.207,26.832,14.698"/>
<path fill="#FFFFFF" d="M31.131,15.464c1.732,0.685,5.421,1.285,10.61,1.659c5.088,0.37,10.803,0.452,16,0.297
	c5.229-0.153,10.069-0.555,13.312-1.18c3.332-0.646,4.383-1.412,3.307-2.136c-1.111-0.75-4.441-1.45-9.94-1.911
	c-5.499-0.465-12.06-0.584-17.961-0.388c-5.862,0.196-10.988,0.696-13.961,1.435C29.614,13.957,29.344,14.756,31.131,15.464
	 M67.783,14.393c0.061-0.053,0.136-0.108,0.23-0.161l0.161,0.044c-0.083,0.048-0.155,0.096-0.214,0.146L67.783,14.393z
	 M68.504,14.509l-0.398-0.063c0.054-0.046,0.117-0.09,0.194-0.133l0.358,0.1C68.602,14.442,68.548,14.476,68.504,14.509
	 M68.216,14.147c0.269-0.1,0.593-0.183,0.949-0.244l0.103,0.063c-0.33,0.055-0.627,0.133-0.877,0.225L68.216,14.147z M68.889,14.319
	l-0.371-0.094c0.237-0.086,0.518-0.159,0.82-0.212C68.999,14.219,68.997,14.208,68.889,14.319 M38.435,12.896
	c2.341-0.31,5.341-0.531,8.667-0.627c-2.005-0.127-0.927-0.486,4.285-0.514c5.971-0.098,22.984,1.13,22.662,2.714
	c-1.486-0.91-7.015-1.456-12.757-1.771c1.015,0.107,1.935,0.229,2.735,0.364c2.796,0.469,4.117,1.093,3.457,1.715
	c-0.659,0.618-3.03,1.122-6.31,1.476c-3.196,0.348-7.305,0.545-11.684,0.524c-4.38-0.023-8.338-0.265-11.23-0.646
	c-2.977-0.392-4.895-0.927-4.97-1.557C33.214,13.942,35.156,13.332,38.435,12.896"/>
<path fill="#6A6A6A" d="M61.292,12.698c5.742,0.315,11.271,0.862,12.757,1.771c0.322-1.584-16.691-2.812-22.662-2.714
	c-5.212,0.028-6.291,0.386-4.285,0.514c1.462-0.042,2.983-0.063,4.546-0.052C55.35,12.24,58.652,12.417,61.292,12.698"/>
<path fill="#FFFFFF" d="M45.499,17.862c2.305,0.058,4.685,0.068,7.062,0.028c3.778-0.059,7.354-0.24,10.476-0.51
	c-2.892,0.227-6.129,0.376-9.526,0.43c-2.385,0.041-4.768,0.03-7.07-0.028c-2.313-0.056-4.566-0.161-6.674-0.313
	c-4.269-0.307-7.662-0.784-9.741-1.377c-1.52-0.43-2.271-0.899-2.239-1.374c0.015-0.133-0.896-0.151-0.953-0.021
	c-0.152,0.509,0.598,1.019,2.246,1.482c2.092,0.589,5.485,1.065,9.756,1.372C40.94,17.701,43.191,17.806,45.499,17.862"/>
<path fill="#FFFFFF" d="M30.876,13.134c1.71-0.419,4.043-0.783,6.828-1.069c-2.97,0.273-5.478,0.631-7.348,1.05
	C30.121,13.191,30.578,13.208,30.876,13.134"/>
<path fill="#222222" d="M38.262,16.132c2.893,0.381,6.851,0.623,11.23,0.646c4.379,0.021,8.486-0.177,11.684-0.524
	c3.278-0.354,5.649-0.858,6.309-1.476c0.66-0.623-0.66-1.247-3.457-1.715c-0.801-0.135-1.721-0.257-2.734-0.364
	c-2.641-0.28-5.943-0.458-9.645-0.482c-1.563-0.011-3.084,0.01-4.546,0.052c-3.326,0.098-6.326,0.317-8.667,0.627
	c-3.279,0.436-5.221,1.047-5.144,1.68C33.367,15.205,35.288,15.74,38.262,16.132 M65.377,14.086
	c0.703,0.475,0.016,0.975-2.161,1.396c-2.12,0.408-5.282,0.672-8.704,0.771c-3.4,0.102-7.138,0.046-10.464-0.194
	c-3.394-0.245-5.806-0.636-6.938-1.085c-1.169-0.463-0.993-0.986,0.893-1.455c1.943-0.482,5.293-0.809,9.128-0.936
	c3.86-0.131,8.148-0.051,11.745,0.251C62.471,13.138,64.648,13.595,65.377,14.086 M36.112,13.366
	c1.252-0.278,2.928-0.519,4.916-0.703c-1.864,0.192-3.424,0.436-4.567,0.714C36.262,13.427,35.957,13.418,36.112,13.366
	 M33.754,14.424c0.039-0.084,0.647-0.074,0.639,0.015c-0.021,0.317,0.48,0.632,1.496,0.919c1.395,0.397,3.664,0.714,6.517,0.921
	c1.411,0.102,2.917,0.171,4.464,0.21c1.539,0.035,3.135,0.043,4.729,0.017c2.272-0.037,4.438-0.137,6.371-0.288
	c-2.088,0.181-4.479,0.301-7.006,0.342c-1.59,0.023-3.181,0.018-4.723-0.019c-1.545-0.037-3.05-0.107-4.459-0.21
	c-2.856-0.204-5.126-0.521-6.526-0.916C34.155,15.107,33.655,14.764,33.754,14.424"/>
<path fill="#E19105" d="M47.131,12.583c-3.833,0.127-7.186,0.454-9.128,0.936c-1.886,0.469-2.062,0.992-0.893,1.455
	c1.132,0.449,3.544,0.84,6.938,1.085c3.327,0.24,7.063,0.296,10.464,0.194c3.422-0.1,6.584-0.363,8.704-0.771
	c2.177-0.421,2.864-0.921,2.161-1.396c-0.729-0.491-2.904-0.949-6.501-1.252C55.279,12.532,50.991,12.452,47.131,12.583
	 M65.171,14.324c-1.385-0.85-8.698-1.163-13.116-1.255c2.174,0.251,3.684,0.777,3.684,1.381c0,0.834-2.87,1.5-6.41,1.483
	c-3.541-0.013-6.412-0.704-6.412-1.536c0-0.779,2.504-1.411,5.714-1.477c-0.003-0.089,0.955-0.194,3.101-0.207
	C55.271,12.655,65.363,13.385,65.171,14.324"/>
<path fill="#FFFFFF" d="M51.73,12.713c-2.146,0.013-3.104,0.118-3.102,0.207c0.229-0.006,0.462-0.008,0.697-0.006
	c0.978,0.004,1.9,0.061,2.727,0.155c4.42,0.093,11.732,0.406,13.117,1.255C65.363,13.385,55.271,12.655,51.73,12.713"/>
<path fill="#6A6A6A" d="M35.258,15.416c1.399,0.395,3.67,0.712,6.524,0.916c1.41,0.103,2.915,0.173,4.46,0.21
	c1.54,0.037,3.133,0.042,4.723,0.019c2.527-0.041,4.918-0.163,7.006-0.342c-1.934,0.151-4.099,0.251-6.371,0.288
	c-1.596,0.026-3.188,0.018-4.729-0.017c-1.547-0.039-3.053-0.109-4.464-0.21c-2.854-0.207-5.123-0.524-6.517-0.921
	c-1.015-0.288-1.517-0.602-1.497-0.919c0.009-0.089-0.599-0.1-0.638-0.015C33.655,14.764,34.155,15.107,35.258,15.416"/>
<path fill="#FFFFFF" d="M36.461,13.377c1.143-0.279,2.703-0.522,4.567-0.714c-1.988,0.185-3.664,0.425-4.916,0.703
	C35.957,13.418,36.262,13.427,36.461,13.377"/>
<path d="M48.63,12.92c-3.212,0.067-5.714,0.698-5.714,1.477c0,0.833,2.871,1.523,6.412,1.536c3.54,0.017,6.41-0.648,6.41-1.483
	c0-0.604-1.51-1.129-3.684-1.381c-0.826-0.094-1.75-0.151-2.728-0.157C49.092,12.912,48.859,12.914,48.63,12.92 M43.986,13.629
	c0.447-0.174,1.041-0.322,1.735-0.436c-0.652,0.118-1.202,0.268-1.611,0.442C44.038,13.666,43.927,13.658,43.986,13.629
	 M49.971,15.798c-1.279,0.047-2.589-0.006-3.739-0.151c-1.152-0.148-2.054-0.381-2.594-0.66c-0.417-0.216-0.594-0.449-0.543-0.677
	c0.017-0.058,0.244-0.052,0.239,0.007c-0.017,0.214,0.165,0.427,0.55,0.626c0.541,0.283,1.443,0.511,2.596,0.659
	c1.15,0.147,2.458,0.201,3.737,0.155c0.91-0.035,1.758-0.115,2.49-0.236C51.92,15.665,50.982,15.763,49.971,15.798 M52.27,13.152
	c1.655,0.204,2.453,0.537,2.619,0.89c0.188,0.17,0.232,0.347,0.11,0.521l0,0c-0.011,0.015-0.026,0.03-0.041,0.046
	c-0.019,0.02-0.034,0.04-0.058,0.06c-0.021,0.017-0.041,0.036-0.065,0.052c-0.024,0.018-0.052,0.037-0.081,0.056
	c-0.023,0.016-0.05,0.033-0.078,0.049c-0.059,0.034-0.124,0.066-0.197,0.1c-1.367,0.606-4.675,0.816-7.384,0.467
	c-0.16-0.021-0.313-0.042-0.461-0.065c-0.052-0.009-0.1-0.018-0.15-0.026c-0.098-0.017-0.195-0.033-0.29-0.051
	c-0.041-0.008-0.081-0.017-0.122-0.024c-0.098-0.021-0.195-0.041-0.288-0.061c-0.03-0.007-0.058-0.015-0.087-0.022
	c-0.053-0.013-0.11-0.024-0.163-0.039c0.004,0,0.008,0,0.012,0c-1.516-0.393-1.944-0.967-0.879-1.438
	c0.882-0.391,2.568-0.617,4.381-0.635C50.048,13.01,51.159,13.04,52.27,13.152"/>
<path fill="#FFFFFF" d="M49.047,13.032c1.001-0.011,2.039,0.041,3.004,0.164c1.467,0.188,2.45,0.502,2.838,0.846
	c-0.166-0.353-0.964-0.687-2.619-0.89C51.159,13.04,50.048,13.01,49.047,13.032"/>
<path fill="#FFFFFF" d="M45.783,15.167c-0.03-0.007-0.058-0.015-0.087-0.022C45.726,15.151,45.753,15.159,45.783,15.167"/>
<path fill="#FFFFFF" d="M54.9,14.669c-0.021,0.017-0.041,0.036-0.065,0.052C54.859,14.705,54.881,14.686,54.9,14.669"/>
<path fill="#FFFFFF" d="M54.999,14.563c-0.011,0.015-0.026,0.03-0.041,0.046C54.973,14.593,54.988,14.578,54.999,14.563"/>
<path fill="#FFFFFF" d="M54.754,14.777c-0.023,0.016-0.05,0.033-0.078,0.049C54.704,14.81,54.73,14.793,54.754,14.777"/>
<path fill="#FFFFFF" d="M46.192,15.251c-0.041-0.008-0.081-0.017-0.122-0.024C46.111,15.235,46.152,15.244,46.192,15.251"/>
<path fill="#FFFFFF" d="M46.632,15.329c-0.052-0.009-0.1-0.018-0.15-0.026C46.532,15.311,46.581,15.319,46.632,15.329"/>
<path fill="#FFFFFF" d="M49.047,13.032c-1.813,0.019-3.499,0.244-4.381,0.635c-1.065,0.471-0.636,1.044,0.879,1.438
	c3.954,0.167,5.535-1.877,9.454-0.542c0.122-0.174,0.078-0.351-0.11-0.521c-0.387-0.343-1.371-0.657-2.838-0.846
	C51.086,13.073,50.048,13.021,49.047,13.032 M46.953,13.279l0.196,0.097c-0.641,0.086-1.23,0.205-1.723,0.347l-0.34-0.068
	C45.615,13.498,46.251,13.37,46.953,13.279 M44.236,14.037c0.116-0.083,0.266-0.168,0.451-0.251l0.321,0.071
	c-0.164,0.072-0.306,0.146-0.423,0.226L44.236,14.037z M45.253,13.911l0.703,0.155c-0.112,0.05-0.214,0.1-0.304,0.153l-0.785-0.099
	C44.972,14.048,45.102,13.979,45.253,13.911 M46.409,13.924l-0.731-0.147c0.467-0.135,1.017-0.246,1.618-0.331
	C46.626,13.769,46.624,13.749,46.409,13.924 M54.648,14.265c-0.66-0.483-3.166-0.847-5.718-0.876
	c-0.923,0.018-0.963-0.205,0.39-0.229C51.943,13.114,54.418,13.666,54.648,14.265"/>
<path fill="#6A6A6A" stroke="#222222" stroke-miterlimit="10" d="M45.546,15.105c-0.005,0-0.009,0-0.013,0
	c0.052,0.015,0.109,0.026,0.163,0.039c0.03,0.007,0.058,0.015,0.087,0.022c0.092,0.02,0.189,0.041,0.288,0.061
	c0.041,0.007,0.081,0.016,0.122,0.024c0.095,0.019,0.192,0.035,0.29,0.051c0.05,0.008,0.098,0.017,0.15,0.026
	c0.148,0.022,0.301,0.044,0.461,0.065c2.709,0.349,6.017,0.139,7.384-0.467c0.073-0.033,0.14-0.066,0.197-0.1
	c0.028-0.017,0.055-0.033,0.078-0.049c0.029-0.019,0.057-0.038,0.081-0.056c0.024-0.017,0.046-0.036,0.065-0.052
	c0.022-0.02,0.039-0.04,0.058-0.06c0.015-0.017,0.03-0.032,0.041-0.046l0,0C51.08,13.228,49.499,15.271,45.546,15.105"/>
<path d="M49.32,13.16c-1.353,0.024-1.313,0.247-0.39,0.229c2.552,0.03,5.058,0.393,5.718,0.876
	C54.418,13.666,51.943,13.114,49.32,13.16"/>
<path fill="#FFFFFF" d="M44.11,13.636c0.41-0.175,0.959-0.325,1.611-0.442c-0.694,0.113-1.288,0.262-1.737,0.436
	C43.927,13.658,44.038,13.666,44.11,13.636"/>
<path fill="#FFFFFF" d="M46.479,15.602c-1.152-0.148-2.055-0.376-2.596-0.659c-0.386-0.199-0.567-0.412-0.55-0.626
	c0.005-0.059-0.22-0.064-0.239-0.007c-0.051,0.229,0.126,0.461,0.543,0.677c0.541,0.279,1.442,0.511,2.594,0.66
	c1.15,0.145,2.459,0.198,3.739,0.151c1.012-0.035,1.949-0.133,2.735-0.277c-0.732,0.122-1.58,0.201-2.49,0.236
	C48.937,15.803,47.629,15.75,46.479,15.602"/>
<path d="M45.652,14.219c0.09-0.051,0.192-0.103,0.304-0.153l-0.703-0.155c-0.151,0.068-0.281,0.137-0.386,0.208L45.652,14.219z"/>
<path d="M45.426,13.723c0.493-0.142,1.082-0.261,1.725-0.347l-0.198-0.097c-0.702,0.09-1.338,0.218-1.867,0.375L45.426,13.723z"/>
<path d="M46.409,13.924c0.215-0.173,0.217-0.155,0.887-0.479c-0.601,0.086-1.151,0.197-1.618,0.332L46.409,13.924z"/>
<path d="M45.007,13.857l-0.323-0.071c-0.182,0.083-0.332,0.168-0.448,0.251l0.349,0.046C44.701,14.003,44.843,13.929,45.007,13.857"
	/>
<path fill="#FFFFFF" d="M68.014,14.232c-0.095,0.054-0.17,0.107-0.229,0.161l0.179,0.03c0.059-0.05,0.131-0.098,0.214-0.146
	L68.014,14.232z"/>
<path fill="#FFFFFF" d="M68.105,14.446l0.397,0.063c0.044-0.034,0.099-0.067,0.154-0.096l-0.358-0.1
	C68.223,14.356,68.158,14.4,68.105,14.446"/>
<path fill="#FFFFFF" d="M69.266,13.966l-0.101-0.063c-0.356,0.062-0.681,0.145-0.949,0.244l0.175,0.044
	C68.641,14.1,68.938,14.021,69.266,13.966"/>
<path fill="#FFFFFF" d="M68.889,14.319c0.108-0.111,0.11-0.1,0.449-0.308c-0.304,0.055-0.583,0.127-0.82,0.214L68.889,14.319z"/>
<path fill="#FFFFFF" d="M22.292,14.919c-0.138-0.141-0.246-0.285-0.309-0.433c-0.001,0-0.001,0-0.001,0
	c-0.243,0.07-0.541,0.416-0.604,0.643c-0.047,0.177-0.049,0.347-0.027,0.515c0.007,0.063,0.011,0.128,0.029,0.19
	C21.664,15.513,21.969,15.207,22.292,14.919"/>
<path fill="#FFFFFF" d="M63.432,19.944c1.57-0.112,3.077-0.247,4.5-0.398c-0.024-0.526-0.063-1.053-0.127-1.579l-0.004-0.038
	c-0.05,0.005-0.102,0.008-0.15,0.015c-3.488,0.356-7.578,0.578-11.857,0.665c-11.728,0.234-24.848-0.546-30.733-2.338
	c-0.34,0.432-0.652,0.889-0.934,1.363c6.604,2.415,22.497,2.629,25.863,2.655C52.641,20.31,58.027,20.282,63.432,19.944"/>
<path fill="#FFFFFF" d="M73.264,17.331l-0.056-0.181c-1.462,0.292-3.19,0.543-5.121,0.75c0.292,0.538,0.543,1.05,0.765,1.545
	c1.734-0.202,3.318-0.436,4.719-0.696C73.495,18.273,73.396,17.801,73.264,17.331"/>
<path fill="#FFFFFF" d="M77.307,15.838c-0.801,0.485-2.144,0.906-3.883,1.267l0.082,0.083c0.445,0.461,0.813,0.899,1.135,1.323
	c1.264-0.318,2.305-0.69,3.022-1.126c0.303-0.183,0.672-0.529,0.956-0.901c0.23,0.177,0.434,0.375,0.425,0.51
	c-0.001,0.009-0.008,0.016-0.009,0.026c0.361-0.251,0.587-0.516,0.66-0.791c0.139-0.523-0.254-1.086-1.312-1.689
	c0,0.001-0.002,0.003-0.002,0.005C78.309,14.871,77.773,15.554,77.307,15.838"/>
<path fill="#222222" d="M73.604,19.008c-0.014-0.085-0.021-0.17-0.033-0.255c-1.399,0.293-2.997,0.532-4.703,0.725
	c0.033,0.071,0.063,0.141,0.092,0.21c0.48-0.056,0.966-0.112,1.443-0.177C71.436,19.372,72.523,19.213,73.604,19.008"/>
<path fill="#222222" d="M74.818,18.75c0.716-0.162,1.42-0.339,2.088-0.557c0.334-0.109,2.031-0.722,2.129-1.172
	c0.001-0.01,0.008-0.019,0.009-0.026c0.009-0.135-0.192-0.333-0.425-0.51c-0.284,0.373-0.653,0.718-0.956,0.901
	c-0.72,0.437-1.761,0.808-3.022,1.126C74.701,18.591,74.764,18.67,74.818,18.75"/>
<path fill="#222222" d="M50.543,20.681c5.721-0.022,11.662-0.229,17.396-0.866c-0.002-0.08-0.002-0.156-0.006-0.234
	c-1.463,0.15-2.982,0.27-4.504,0.364c-5.402,0.338-10.791,0.366-13.442,0.344c-3.367-0.026-19.259-0.24-25.863-2.655
	c-0.067,0.115-0.133,0.231-0.196,0.349c2.162,0.851,5.465,1.39,6.089,1.488C36.637,20.499,43.85,20.705,50.543,20.681"/>
<path d="M19.738,18.853c0.01-0.02,0.019-0.042,0.028-0.063C19.757,18.811,19.748,18.833,19.738,18.853"/>
<path d="M19.507,19.435c0.002-0.007,0.005-0.015,0.008-0.022C19.513,19.42,19.51,19.428,19.507,19.435"/>
<path d="M20.721,17.163c0.04-0.054,0.077-0.108,0.12-0.159C20.8,17.055,20.759,17.108,20.721,17.163"/>
<path fill="#222222" d="M21.981,27.359c0.378-0.392,0.576-1.107,0.449-1.918c-0.338-2.134,0.116-4.688,1.232-6.947
	c0.084-0.174,0.173-0.343,0.267-0.511c0.063-0.118,0.129-0.234,0.196-0.349c0.282-0.474,0.594-0.931,0.936-1.363
	c0.198-0.249,0.406-0.493,0.624-0.723c1.02-1.082,2.253-1.935,3.67-2.419c0.397-0.136,0.809-0.247,1.236-0.321
	c-0.632-0.142-1.241-0.216-1.834-0.24c-1.508-0.059-2.889,0.244-4.111,0.807c-0.866,0.398-1.654,0.927-2.354,1.545
	c-0.323,0.288-0.627,0.594-0.912,0.915c-0.048,0.054-0.096,0.104-0.142,0.157c-2.707,3.174-3.536,7.767-1.628,10.313
	C20.518,27.81,21.439,27.92,21.981,27.359 M22.257,25.25c0.168,1.058-0.225,1.964-0.867,2.149c0.527-0.293,0.83-1.121,0.678-2.07
	c-0.661-4.192,1.788-10.04,6.347-11.893C23.975,15.373,21.604,21.117,22.257,25.25 M28.995,12.829
	c-1.837,0.48-3.453,1.693-5.299,4.196c-0.673,1.031-1.584,1.148-0.666-0.28C24.729,14.064,27.454,12.7,28.995,12.829 M21.699,16.032
	c-0.284,0.277-0.541,0.572-0.781,0.875c0.261-0.31,0.543-0.591,0.848-0.831c-1.709,2.289-2.334,5.898-1.604,8.793
	c0.238,0.567,0.044,1.027-0.284,1.097c-0.048-0.07-0.097-0.151-0.144-0.238c0.026,0.064,0.05,0.131,0.077,0.195
	C18.245,23.633,18.5,18.545,21.699,16.032"/>
<path fill="#FFFFFF" d="M20.721,17.163c-0.381,0.517-0.702,1.061-0.955,1.628c-0.009,0.02-0.019,0.042-0.028,0.063
	c-0.081,0.185-0.155,0.372-0.223,0.56c-0.002,0.007-0.005,0.015-0.008,0.022c-0.707,1.999-0.646,4.207,0.226,6.293
	c0.047,0.087,0.096,0.17,0.144,0.238c0.328-0.07,0.522-0.53,0.284-1.097c-0.729-2.895-0.105-6.504,1.604-8.793
	c-0.305,0.24-0.587,0.521-0.848,0.831c-0.026,0.032-0.054,0.063-0.077,0.096C20.798,17.055,20.761,17.108,20.721,17.163"/>
<path fill="#FFFFFF" d="M23.03,16.745c-0.918,1.429-0.007,1.311,0.666,0.28c1.846-2.503,3.461-3.716,5.299-4.196
	C27.454,12.7,24.729,14.064,23.03,16.745"/>
<path fill="#FFFFFF" d="M22.068,25.33c0.151,0.949-0.151,1.776-0.678,2.07c0.642-0.187,1.035-1.091,0.867-2.149
	c-0.652-4.136,1.718-9.877,6.159-11.814C23.856,15.29,21.407,21.139,22.068,25.33"/>
<path fill="#FFFFFF" d="M19.733,25.729c-0.872-2.086-0.932-4.294-0.226-6.293c0.002-0.007,0.005-0.015,0.008-0.022
	c0.068-0.188,0.142-0.375,0.223-0.56c0.01-0.02,0.019-0.042,0.028-0.063c0.253-0.567,0.574-1.111,0.955-1.628
	c0.039-0.054,0.08-0.108,0.12-0.159c0.023-0.033,0.051-0.064,0.077-0.098c0.24-0.301,0.497-0.597,0.781-0.874
	c-3.199,2.513-3.454,7.601-1.889,9.892C19.783,25.86,19.761,25.793,19.733,25.729"/>
<path fill="#222222" d="M70.129,23.917c-0.347-1.577-0.865-3.56-2.179-5.967c0.325,2.79,0.093,5.094-0.218,6.75
	c-0.287,1.543-0.573,2.608-0.678,3.805c-0.302,3.471,0.57,5.132,1.533,5.132C69.966,33.638,71.527,30.252,70.129,23.917
	 M68.947,33.139c1.332-0.718,1.656-2.93,1.658-5.754C70.746,30.259,70.288,32.667,68.947,33.139 M70.165,30.021
	c-0.161,1.591-0.424,1.28-0.304,0.212c0.199-2.847,0.063-5.707-0.516-8.565C70.273,24.158,70.415,27.419,70.165,30.021
	 M67.62,27.071l0.567-3.704l-0.426,4.279L67.62,27.071z M67.667,28.031l-0.301,1.167l0.174-1.776L67.667,28.031z M68.135,22.854
	l-0.568,4.017l-0.07-0.267L68.135,22.854z M67.484,26.406c0.091-0.51,0.203-1.4,0.402-2.42c-0.117,0.831-0.262,1.887-0.371,2.435
	C67.495,26.519,67.467,26.508,67.484,26.406 M67.421,26.851l0.085,0.266l-0.273,1.632L67.421,26.851z M67.162,28.488
	c0.021-0.17,0.076-0.147,0.063,0.034c-0.354,3.885,1.227,6.329,2.614,4.082C68.455,35.035,66.773,32.729,67.162,28.488"/>
<path fill="#FFFFFF" d="M67.718,17.22l0.003,0.028l0.014,0.12l0.055,0.458l0.013,0.104l0,0l0.005,0.038
	c0.063,0.526,0.102,1.053,0.127,1.579c0,0.011,0.002,0.021,0.002,0.035c0.004,0.078,0.004,0.155,0.008,0.234
	c0.012,0.345,0.009,0.69,0.007,1.036c-0.013,1.289-0.124,2.568-0.356,3.823c-0.093,0.491-0.185,0.936-0.27,1.35
	c-0.186,0.882-0.342,1.646-0.413,2.47c-0.199,2.304,0.104,4.08,0.832,4.874c0.249,0.271,0.544,0.416,0.85,0.416
	c0.38,0,0.759-0.22,1.091-0.634c1-1.243,1.68-4.329,0.592-9.264c-0.219-0.99-0.49-2.05-0.924-3.213
	c-0.119-0.319-0.246-0.646-0.392-0.984c-0.028-0.07-0.062-0.14-0.092-0.21c-0.005-0.011-0.013-0.023-0.015-0.034
	c-0.223-0.495-0.474-1.008-0.766-1.545c0-0.002,0-0.002-0.002-0.002c-0.002-0.005-0.006-0.011-0.008-0.017l-0.044-0.081
	l-0.239-0.439l-0.063-0.112L67.718,17.22z M67.057,28.505c0.104-1.197,0.391-2.262,0.678-3.805c0.31-1.656,0.543-3.96,0.215-6.75
	c1.314,2.408,1.834,4.39,2.181,5.967c1.399,6.334-0.163,9.72-1.538,9.72C67.626,33.638,66.754,31.977,67.057,28.505"/>
<path fill="#D0D2D3" d="M68.947,33.139c1.339-0.473,1.799-2.88,1.658-5.754C70.604,30.209,70.279,32.423,68.947,33.139"/>
<path fill="#FFFFFF" d="M69.861,30.233c-0.12,1.067,0.143,1.379,0.304-0.212c0.25-2.602,0.108-5.863-0.817-8.353
	C69.926,24.527,70.061,27.386,69.861,30.233"/>
<path fill="#D0D2D3" d="M67.225,28.522c0.016-0.181-0.041-0.204-0.063-0.034c-0.389,4.241,1.293,6.547,2.677,4.116
	C68.45,34.851,66.87,32.407,67.225,28.522"/>
<path fill="#D0D2D3" d="M67.518,26.421c0.108-0.548,0.252-1.604,0.369-2.435c-0.197,1.019-0.312,1.911-0.402,2.422
	C67.467,26.508,67.495,26.519,67.518,26.421"/>
<polygon fill="#FFFFFF" points="67.366,29.198 67.667,28.031 67.54,27.421 "/>
<polygon fill="#FFFFFF" points="67.421,26.851 67.232,28.749 67.506,27.117 "/>
<polygon fill="#FFFFFF" points="68.188,23.367 67.62,27.071 67.762,27.646 "/>
<polygon fill="#FFFFFF" points="67.564,26.871 68.135,22.854 67.495,26.604 "/>
<path fill="#222222" d="M73.764,22.104c-0.154,1.13-0.349,1.918-0.351,2.78c-0.001,2.379,0.911,3.467,1.821,3.467
	c1.408,0,2.822-2.614,0.834-7.086c-0.479-1.078-1.162-2.424-2.668-3.977C73.963,19.23,73.928,20.894,73.764,22.104 M73.852,23.799
	l0.248-2.695l-0.058,3.088L73.852,23.799z M73.979,24.475l-0.197,0.865l0.021-1.284L73.979,24.475z M74.001,20.748l-0.22,2.919
	l-0.094-0.183L74.001,20.748z M73.854,21.58c-0.047,0.602-0.098,1.37-0.16,1.772c-0.012,0.07-0.041,0.067-0.035-0.005
	C73.708,22.972,73.742,22.326,73.854,21.58 M73.635,23.668l0.107,0.177l-0.133,1.192L73.635,23.668z M73.521,24.861
	c0.002-0.122,0.063-0.113,0.061,0.015c-0.02,2.798,1.754,4.346,2.939,2.586C75.355,29.351,73.496,27.915,73.521,24.861
	 M75.684,27.948c1.258-0.668,1.39-2.274,1.151-4.28C77.217,25.692,76.968,27.453,75.684,27.948 M76.622,25.59
	c-0.022,1.148-0.312,0.959-0.283,0.185c-0.042-2.04-0.422-4.054-1.235-6.011C76.232,21.417,76.646,23.716,76.622,25.59"/>
<path fill="#FFFFFF" d="M73.208,17.149l0.056,0.181c0.133,0.47,0.229,0.942,0.307,1.417c0,0.001,0,0.004,0,0.005
	c0.014,0.085,0.021,0.17,0.033,0.255c0.043,0.311,0.076,0.619,0.092,0.931c0.039,0.714,0.021,1.431-0.077,2.147
	c-0.048,0.359-0.101,0.685-0.15,0.989c-0.104,0.65-0.198,1.211-0.198,1.81c0,1.123,0.201,2.056,0.588,2.701
	c0.354,0.589,0.844,0.912,1.379,0.912c0.518,0,1.021-0.316,1.38-0.868c0.909-1.397,0.753-3.797-0.413-6.423
	c-0.232-0.528-0.504-1.08-0.855-1.663c-0.158-0.259-0.33-0.523-0.525-0.794c-0.057-0.079-0.118-0.158-0.18-0.239
	c-0.32-0.423-0.688-0.86-1.135-1.322l-0.082-0.083L73.4,17.081l-0.084-0.086L73.1,16.769l0.073,0.254l0.028,0.102L73.208,17.149z
	 M73.4,17.29c1.506,1.553,2.189,2.899,2.668,3.977c1.988,4.472,0.574,7.086-0.834,7.086c-0.91,0-1.822-1.088-1.819-3.467
	c0-0.862,0.194-1.65,0.349-2.78C73.926,20.894,73.963,19.23,73.4,17.29"/>
<path fill="#D0D2D3" d="M75.684,27.948c1.284-0.495,1.533-2.256,1.151-4.28C77.072,25.673,76.941,27.279,75.684,27.948"/>
<path fill="#FFFFFF" d="M76.339,25.775c-0.026,0.775,0.261,0.964,0.283-0.185c0.024-1.875-0.39-4.173-1.521-5.827
	C75.917,21.721,76.297,23.735,76.339,25.775"/>
<path fill="#D0D2D3" d="M73.693,23.353c0.063-0.403,0.113-1.17,0.16-1.772c-0.111,0.746-0.146,1.392-0.195,1.767
	C73.652,23.419,73.682,23.422,73.693,23.353"/>
<path fill="#222222" d="M73.581,24.876c0.002-0.128-0.06-0.137-0.062-0.015c-0.023,3.054,1.836,4.49,3,2.601
	C75.335,29.222,73.563,27.674,73.581,24.876"/>
<polygon fill="#FFFFFF" points="73.781,25.339 73.979,24.475 73.803,24.056 "/>
<polygon fill="#FFFFFF" points="74.1,21.104 73.852,23.799 74.042,24.192 "/>
<polygon fill="#FFFFFF" points="73.635,23.668 73.609,25.038 73.742,23.845 "/>
<polygon fill="#FFFFFF" points="73.781,23.667 74.001,20.748 73.688,23.483 "/>
<path fill="#222222" d="M34.785,71.836c-1.285,1.311-1.869,2.616-2.276,3.682c-1.808,4.715-0.318,8.145,0.952,8.145
	c0.692,0,1.319-1.016,1.316-3.391c-0.002-0.961-0.166-1.89-0.299-3.186C34.336,75.693,34.307,73.839,34.785,71.836 M34.004,79.055
	l-0.05-3.445l0.214,3.063L34.004,79.055z M34.209,78.969l0.018,1.432l-0.17-1.015L34.209,78.969z M33.334,74.116
	c-0.696,1.95-1.019,4.082-1.054,6.339c0.024,0.868-0.222,0.999-0.242-0.284C32.016,78.08,32.368,75.645,33.334,74.116
	 M34.512,79.994c0-0.141,0.046-0.135,0.048,0.002c0.02,3.398-1.457,4.484-2.38,2.063c0.362,0.877,0.791,1.229,1.182,1.164
	c-1.501-1.015-1.794-3.175-1.338-5.466c-0.282,2.317-0.124,4.269,1.346,5.462C33.995,83.104,34.521,81.907,34.512,79.994
	 M34.261,78.752l0.092-0.166l0.021,1.525L34.261,78.752z M34.447,78.275c0.005,0.08-0.015,0.078-0.026-0.004
	c-0.052-0.465-0.092-1.332-0.127-2.015C34.382,77.117,34.41,77.845,34.447,78.275 M34.307,78.366l-0.082,0.173l-0.188-3.299
	L34.307,78.366z"/>
<path fill="#FFFFFF" d="M32.294,75.684c-0.066,0.186-0.131,0.366-0.188,0.549c-0.97,3.045-0.606,5.593,0.249,6.834
	c0.327,0.477,0.72,0.74,1.106,0.74c0.425,0,0.797-0.317,1.053-0.892c0.273-0.618,0.412-1.509,0.41-2.644
	c-0.001-0.666-0.08-1.314-0.169-2.065c-0.042-0.351-0.089-0.726-0.13-1.134c-0.012-0.111-0.012-0.221-0.021-0.331
	c-0.017-0.197-0.028-0.394-0.037-0.589c-0.03-0.59-0.039-1.174-0.005-1.745c0.049-0.875,0.171-1.724,0.367-2.539
	c0.015-0.063-0.013-0.129-0.07-0.16c-0.023-0.013-0.048-0.019-0.071-0.019c-0.037,0-0.076,0.016-0.104,0.045
	c-0.799,0.813-1.329,1.617-1.725,2.396c-0.232,0.457-0.419,0.901-0.585,1.334C32.344,75.539,32.322,75.611,32.294,75.684
	 M34.478,77.086c0.134,1.296,0.297,2.225,0.299,3.188c0.002,2.373-0.624,3.389-1.316,3.389c-1.27,0-2.76-3.43-0.952-8.145
	c0.408-1.064,0.991-2.371,2.276-3.682C34.307,73.839,34.336,75.693,34.478,77.086"/>
<path fill="#FFFFFF" d="M32.024,77.758c-0.458,2.291-0.162,4.454,1.337,5.467c0.002-0.002,0.006-0.004,0.009-0.004
	C31.899,82.025,31.741,80.074,32.024,77.758"/>
<path d="M32.28,80.455c0.035-2.257,0.358-4.389,1.054-6.339c-0.966,1.528-1.318,3.964-1.296,6.055
	C32.058,81.454,32.304,81.323,32.28,80.455"/>
<path fill="#FFFFFF" d="M33.369,83.22c-0.002,0-0.005,0.003-0.008,0.005c-0.391,0.063-0.82-0.289-1.182-1.164
	c0.925,2.42,2.4,1.334,2.38-2.063c-0.002-0.138-0.048-0.142-0.048-0.002C34.521,81.907,33.995,83.104,33.369,83.22"/>
<path fill="#FFFFFF" d="M34.421,78.271c0.011,0.082,0.031,0.084,0.026,0.004c-0.038-0.432-0.065-1.158-0.153-2.019
	C34.331,76.939,34.372,77.807,34.421,78.271"/>
<polygon fill="#FFFFFF" points="34.209,78.969 34.057,79.386 34.225,80.4 "/>
<polygon fill="#FFFFFF" points="34.261,78.752 34.373,80.111 34.351,78.586 "/>
<polygon fill="#FFFFFF" points="34.225,78.539 34.307,78.366 34.037,75.24 "/>
<polygon fill="#FFFFFF" points="33.954,75.609 34.004,79.055 34.168,78.671 "/>
<path fill="#222222" d="M65.309,9.122c5.592-0.962,3.53-5.633-3.306-1.68c-0.998,0.578-2.251,1.374-3.703,2.902
	c1.802-0.789,3.33-1.023,4.448-1.077C63.786,9.22,64.512,9.258,65.309,9.122 M65.286,9.035c-0.113,0.017-0.104-0.034,0.013-0.053
	c2.581-0.431,4.034-2.185,2.43-2.912C69.453,6.759,68.104,8.57,65.286,9.035 M66.002,6.281c1.061-0.161,0.879,0.112,0.166,0.212
	c-1.882,0.362-3.745,1.005-5.563,2.011C62.148,7.278,64.271,6.559,66.002,6.281 M63.896,9.129c0.065,0,0.06,0.024-0.006,0.029
	c-0.345,0.017-0.94,0.091-1.627,0.117C62.818,9.216,63.525,9.139,63.896,9.129"/>
<path fill="#FFFFFF" d="M66.002,6.281c-1.729,0.278-3.854,0.995-5.396,2.221c1.816-1.004,3.681-1.647,5.563-2.009
	C66.881,6.393,67.063,6.12,66.002,6.281"/>
<path fill="#FFFFFF" d="M63.896,9.129c-0.371,0.01-1.078,0.086-1.633,0.146c0.687-0.026,1.282-0.1,1.627-0.117
	C63.956,9.153,63.963,9.129,63.896,9.129"/>
<path fill="#FFFFFF" d="M65.299,8.982c-0.115,0.02-0.126,0.07-0.013,0.053c2.815-0.465,4.167-2.276,2.44-2.965
	C69.333,6.797,67.88,8.551,65.299,8.982"/>
<path fill="#222222" d="M50.818,5.518c0.6,0.489,1.344,1.238,1.963,2.361c-0.057-1.333-0.364-2.231-0.639-2.922
	c-1.875-4.726-5.355-3.356-2.691-0.572C49.83,4.779,50.257,5.062,50.818,5.518 M50.229,4.99c-0.034-0.029-0.023-0.044,0.012-0.016
	c0.204,0.159,0.561,0.489,0.844,0.749C50.712,5.425,50.413,5.142,50.229,4.99 M50.473,2.742c0.835,0.851,1.671,2.075,1.927,3.3
	c-0.521-1.233-1.248-2.313-2.125-3.269C49.924,2.429,49.959,2.225,50.473,2.742 M49.608,1.924c-1.263-0.322-1.317,1.118-0.083,2.396
	c0.056,0.059,0.035,0.087-0.019,0.033C48.155,2.959,48.298,1.534,49.608,1.924"/>
<path fill="#FFFFFF" d="M52.398,6.042c-0.256-1.226-1.092-2.45-1.926-3.3c-0.514-0.517-0.549-0.313-0.198,0.031
	C51.152,3.729,51.879,4.809,52.398,6.042"/>
<path fill="#FFFFFF" d="M49.525,4.32c-1.234-1.278-1.18-2.718,0.083-2.396c-1.311-0.39-1.453,1.035-0.102,2.429
	C49.563,4.407,49.583,4.379,49.525,4.32"/>
<path fill="#FFFFFF" d="M50.229,4.99c0.185,0.152,0.483,0.436,0.855,0.733c-0.283-0.26-0.64-0.59-0.844-0.749
	C50.205,4.946,50.194,4.958,50.229,4.99"/>
<path fill="#222222" d="M24.517,9.624c1.338,0.035,2.564-0.185,4.32-0.34c1.885-0.164,4.462-0.142,7.464,0.672
	c-2.385-2.027-4.462-2.972-6.122-3.641C18.81,1.752,15.108,9.38,24.517,9.624 M26.909,9.37C26.798,9.375,26.79,9.338,26.9,9.324
	c0.628-0.067,1.817-0.102,2.752-0.135C28.495,9.303,27.489,9.321,26.909,9.37 M23.475,5.417c2.91,0.042,6.465,0.679,9.017,2.221
	c-3.026-1.143-6.142-1.719-9.31-1.859C21.981,5.78,21.692,5.4,23.475,5.417 M20.569,5.472c-2.749,1.472-0.375,3.844,3.967,3.936
	c0.198,0.006,0.211,0.082,0.021,0.08C19.818,9.393,17.619,6.908,20.569,5.472"/>
<path fill="#FFFFFF" d="M23.182,5.778c3.168,0.141,6.284,0.716,9.31,1.859c-2.551-1.542-6.107-2.179-9.018-2.221
	C21.692,5.4,21.981,5.78,23.182,5.778"/>
<path fill="#FFFFFF" d="M26.909,9.37c0.58-0.048,1.585-0.067,2.743-0.181c-0.936,0.033-2.125,0.068-2.752,0.135
	C26.791,9.337,26.798,9.375,26.909,9.37"/>
<path fill="#FFFFFF" d="M24.557,9.487c0.19,0.002,0.177-0.074-0.021-0.08c-4.342-0.092-6.716-2.464-3.967-3.936
	C17.619,6.908,19.818,9.393,24.557,9.487"/>
</svg>
