<?xml version="1.0" encoding="utf-8"?>
<!-- Generator: Adobe Illustrator 16.0.0, SVG Export Plug-In . SVG Version: 6.00 Build 0)  -->
<!DOCTYPE svg PUBLIC "-//W3C//DTD SVG 1.1//EN" "http://www.w3.org/Graphics/SVG/1.1/DTD/svg11.dtd">
<svg version="1.1" id="Layer_1" xmlns="http://www.w3.org/2000/svg" xmlns:xlink="http://www.w3.org/1999/xlink" x="0px" y="0px"
	 width="100px" height="100px" viewBox="0 0 100 100" enable-background="new 0 0 100 100" xml:space="preserve">
<path fill="#6A6A6A" d="M73.779,52.739H60.114l-0.053-0.177c-0.206-0.679-0.922-1.063-1.601-0.857
	c-0.491,0.148-0.824,0.561-0.899,1.034H42.123c-0.074-0.474-0.409-0.886-0.898-1.034c-0.679-0.205-1.396,0.179-1.602,0.857
	l-0.053,0.177h-8.774v8.853h6.1L26.694,95.358c-0.205,0.68,0.179,1.397,0.858,1.603c0.124,0.038,0.249,0.054,0.373,0.054
	c0.551,0,1.062-0.358,1.229-0.914l10.427-34.509h20.523l10.427,34.509c0.167,0.556,0.677,0.914,1.229,0.914
	c0.123,0,0.249-0.016,0.372-0.054c0.68-0.205,1.063-0.923,0.857-1.603L62.788,61.592h10.991V52.739z"/>
<path fill="#8C8B8B" d="M60.062,52.563c-0.206-0.679-0.922-1.063-1.601-0.857c-0.491,0.148-0.824,0.561-0.899,1.034H42.123
	c-0.074-0.474-0.409-0.886-0.898-1.034c-0.679-0.205-1.396,0.179-1.602,0.857l-0.053,0.177h-8.774v8.853h6.1l-6.356,21.04h2.684
	l6.357-21.04h20.523l6.356,21.04h2.685l-6.357-21.04h10.991v-8.853H60.114L60.062,52.563z"/>
<g>
	<path fill="#6A6A6A" d="M49.765,50.346c-0.707,0-1.285-0.578-1.285-1.285V3.285C48.479,2.578,49.058,2,49.765,2h0.155
		c0.707,0,1.285,0.578,1.285,1.285v45.775c0,0.707-0.578,1.285-1.285,1.285H49.765z"/>
</g>
<rect x="9.767" y="7.622" fill="#8C8B8B" width="80.15" height="65.634"/>
<rect x="9.767" y="7.622" opacity="0.2" fill="#F2F2F2" width="80.15" height="2.992"/>
<g>
	<path fill="#F2F2F2" d="M86.353,67.79c0,0.239-0.195,0.436-0.437,0.436H13.768c-0.24,0-0.437-0.196-0.437-0.436V13.51
		c0-0.24,0.197-0.436,0.437-0.436h72.148c0.241,0,0.437,0.196,0.437,0.436V67.79z"/>
</g>
<g>
	<rect x="76.831" y="15.747" fill="#E19105" width="1.634" height="1.586"/>
	<path fill="#E19105" d="M78.384,15.827v1.426h-1.473v-1.426H78.384 M78.546,15.666h-1.797v1.747h1.797V15.666L78.546,15.666z"/>
</g>
<g>
	<rect x="76.831" y="18.048" fill="#6A6A6A" width="1.634" height="1.586"/>
	<path fill="#6A6A6A" d="M78.384,18.128v1.425h-1.473v-1.425H78.384 M78.546,17.967h-1.797v1.748h1.797V17.967L78.546,17.967z"/>
</g>
<g>
	<rect x="76.831" y="20.35" fill="#8C8B8B" width="1.634" height="1.586"/>
	<path fill="#8C8B8B" d="M78.384,20.43v1.425h-1.473V20.43H78.384 M78.546,20.269h-1.797v1.747h1.797V20.269L78.546,20.269z"/>
</g>
<g>
	<rect x="76.831" y="22.651" fill="#E19105" width="1.634" height="1.586"/>
	<path fill="#E19105" d="M78.384,22.731v1.425h-1.473v-1.425H78.384 M78.546,22.57h-1.797v1.747h1.797V22.57L78.546,22.57z"/>
</g>
<g>
	<rect x="76.831" y="24.953" fill="#6A6A6A" width="1.634" height="1.586"/>
	<path fill="#6A6A6A" d="M78.384,25.033v1.425h-1.473v-1.425H78.384 M78.546,24.872h-1.797v1.748h1.797V24.872L78.546,24.872z"/>
</g>
<g>
	<g opacity="0.3">
		<path fill="#8C8B8B" d="M79.775,17.092c-0.177,0-0.321-0.145-0.321-0.321v-0.462c0-0.177,0.145-0.321,0.321-0.321h3.401
			c0.177,0,0.321,0.145,0.321,0.321v0.462c0,0.177-0.145,0.321-0.321,0.321H79.775z"/>
	</g>
	<g opacity="0.3">
		<path fill="#8C8B8B" d="M79.775,19.394c-0.177,0-0.321-0.145-0.321-0.321V18.61c0-0.177,0.145-0.321,0.321-0.321h3.401
			c0.177,0,0.321,0.145,0.321,0.321v0.462c0,0.177-0.145,0.321-0.321,0.321H79.775z"/>
	</g>
	<g opacity="0.3">
		<path fill="#8C8B8B" d="M79.775,21.695c-0.177,0-0.321-0.145-0.321-0.321v-0.462c0-0.177,0.145-0.321,0.321-0.321h3.401
			c0.177,0,0.321,0.145,0.321,0.321v0.462c0,0.177-0.145,0.321-0.321,0.321H79.775z"/>
	</g>
	<g opacity="0.3">
		<path fill="#8C8B8B" d="M79.775,23.996c-0.177,0-0.321-0.145-0.321-0.321v-0.462c0-0.177,0.145-0.321,0.321-0.321h3.401
			c0.177,0,0.321,0.145,0.321,0.321v0.462c0,0.177-0.145,0.321-0.321,0.321H79.775z"/>
	</g>
	<g opacity="0.3">
		<path fill="#8C8B8B" d="M79.775,26.298c-0.177,0-0.321-0.145-0.321-0.321v-0.462c0-0.177,0.145-0.321,0.321-0.321h3.401
			c0.177,0,0.321,0.145,0.321,0.321v0.462c0,0.177-0.145,0.321-0.321,0.321H79.775z"/>
	</g>
</g>
<g>
	<path fill="#F2B315" d="M39.184,34.772l-3.522-2.243c2.994-4.701,8.105-7.508,13.672-7.508v4.176
		C45.202,29.197,41.408,31.282,39.184,34.772z"/>
</g>
<g>
	<path fill="#8C8B8B" d="M49.333,57.42c-8.932,0-16.199-7.267-16.199-16.2c0-3.089,0.875-6.095,2.527-8.69l3.522,2.243
		c-1.226,1.925-1.874,4.155-1.874,6.447c0,6.631,5.394,12.025,12.023,12.025V57.42z"/>
</g>
<g>
	<path fill="#6A6A6A" d="M49.333,57.42v-4.175c4.17,0,7.983-2.113,10.198-5.651l3.54,2.216C60.086,54.575,54.951,57.42,49.333,57.42
		z"/>
</g>
<g>
	<path fill="#E19105" d="M63.071,49.81l-3.54-2.216c1.195-1.907,1.827-4.11,1.827-6.374c0-1.974-0.489-3.93-1.412-5.658l3.683-1.97
		c1.246,2.332,1.904,4.97,1.904,7.628C65.533,44.268,64.682,47.238,63.071,49.81z"/>
</g>
<g>
	<path fill="#6A6A6A" d="M59.946,35.562c-2.1-3.926-6.165-6.364-10.613-6.364v-4.176c5.991,0,11.468,3.283,14.295,8.57
		L59.946,35.562z"/>
</g>
<g>
	<g>
		<g>
			<path fill="#8C8B8B" d="M38.222,22.663l4.032,6.637l-0.442,0.283l-3.955-6.516H27.271v-0.525H38
				C38.09,22.542,38.174,22.588,38.222,22.663z"/>
		</g>
	</g>
	<g>
		<g>
			<g>
				<g>
					<circle fill="#8C8B8B" cx="42.008" cy="29.5" r="0.727"/>
					<path fill="#8C8B8B" d="M42.008,28.931c0.313,0,0.568,0.255,0.568,0.569c0,0.314-0.255,0.569-0.568,0.569
						c-0.314,0-0.568-0.255-0.568-0.569C41.44,29.186,41.694,28.931,42.008,28.931 M42.008,28.614c-0.488,0-0.886,0.398-0.886,0.886
						c0,0.488,0.397,0.886,0.886,0.886s0.885-0.398,0.885-0.886C42.894,29.012,42.497,28.614,42.008,28.614L42.008,28.614z"/>
				</g>
			</g>
		</g>
	</g>
</g>
<g>
	<g>
		<g>
			<path fill="#8C8B8B" d="M60.974,22.663L56.941,29.3l0.441,0.283l3.956-6.496h11.209v-0.544H61.195
				C61.105,22.542,61.022,22.588,60.974,22.663z"/>
		</g>
	</g>
	<g>
		<g>
			<g>
				<g>
					<circle fill="#8C8B8B" cx="57.187" cy="29.5" r="0.727"/>
					<path fill="#8C8B8B" d="M57.187,28.931c0.315,0,0.57,0.255,0.57,0.569c0,0.314-0.255,0.569-0.57,0.569
						c-0.313,0-0.567-0.255-0.567-0.569C56.619,29.186,56.873,28.931,57.187,28.931 M57.187,28.614
						c-0.488,0-0.886,0.398-0.886,0.886c0,0.488,0.397,0.886,0.886,0.886s0.886-0.398,0.886-0.886
						C58.072,29.012,57.675,28.614,57.187,28.614L57.187,28.614z"/>
				</g>
			</g>
		</g>
	</g>
</g>
<g>
	<g>
		<g>
			<path fill="#8C8B8B" d="M32.749,54.072l4.032-6.637l-0.442-0.283l-3.955,6.498h-5.114v0.543h5.257
				C32.617,54.192,32.701,54.147,32.749,54.072z"/>
		</g>
	</g>
	<g>
		<g>
			<g>
				<g>
					<circle fill="#8C8B8B" cx="36.536" cy="47.235" r="0.728"/>
					<path fill="#8C8B8B" d="M36.536,46.666c0.314,0,0.568,0.255,0.568,0.569c0,0.313-0.254,0.568-0.568,0.568
						s-0.569-0.254-0.569-0.568C35.966,46.921,36.222,46.666,36.536,46.666 M36.536,46.35c-0.489,0-0.886,0.397-0.886,0.886
						s0.397,0.886,0.886,0.886c0.488,0,0.885-0.397,0.885-0.886S37.023,46.35,36.536,46.35L36.536,46.35z"/>
				</g>
			</g>
		</g>
	</g>
</g>
<g>
	<g>
		<g>
			<path fill="#8C8B8B" d="M60.392,60.047l-4.032-6.637l0.441-0.283l3.954,6.516l11.793-0.019v0.544H60.613
				C60.523,60.168,60.439,60.123,60.392,60.047z"/>
		</g>
	</g>
	<g>
		<g>
			<g>
				<g>
					<path fill="#8C8B8B" d="M56.605,53.938c-0.401,0-0.729-0.326-0.729-0.728c0-0.399,0.327-0.727,0.729-0.727
						c0.399,0,0.726,0.327,0.726,0.727C57.331,53.611,57.005,53.938,56.605,53.938z"/>
					<path fill="#8C8B8B" d="M56.605,52.642c0.313,0,0.567,0.254,0.567,0.568c0,0.313-0.254,0.569-0.567,0.569
						c-0.315,0-0.569-0.256-0.569-0.569C56.036,52.896,56.29,52.642,56.605,52.642 M56.605,52.325c-0.489,0-0.887,0.396-0.887,0.885
						c0,0.237,0.092,0.46,0.26,0.627c0.167,0.167,0.39,0.26,0.627,0.26c0.487,0,0.885-0.397,0.885-0.887
						C57.49,52.722,57.093,52.325,56.605,52.325L56.605,52.325z"/>
				</g>
			</g>
		</g>
	</g>
</g>
<rect x="63.406" y="40.891" fill="#8C8B8B" width="9.142" height="0.525"/>
<g>
	<g>
		<g>
			<g>
				<circle fill="#4C3C38" cx="63.363" cy="41.154" r="0.727"/>
				<path fill="#4C3C38" d="M63.363,40.585c0.313,0,0.567,0.254,0.567,0.568c0,0.315-0.254,0.569-0.567,0.569
					c-0.314,0-0.569-0.254-0.569-0.569C62.794,40.84,63.049,40.585,63.363,40.585 M63.363,40.269c-0.489,0-0.886,0.397-0.886,0.885
					c0,0.488,0.396,0.886,0.886,0.886c0.487,0,0.886-0.397,0.886-0.886C64.249,40.667,63.851,40.269,63.363,40.269L63.363,40.269z"
					/>
			</g>
		</g>
	</g>
</g>
<rect x="27.271" y="20.074" fill="#E19105" width="6.249" height="1.65"/>
<rect x="67.3" y="20.074" fill="#6A6A6A" width="5.248" height="1.651"/>
<rect x="67.3" y="38.392" fill="#E19105" width="5.248" height="1.65"/>
<rect x="67.3" y="57.085" fill="#6A6A6A" width="5.248" height="1.65"/>
<rect x="27.271" y="51.089" fill="#8C8B8B" width="3.526" height="1.65"/>
<path fill="#6A6A6A" d="M91.685,7.618c0,0.707-0.578,1.285-1.284,1.285H9.285C8.578,8.903,8,8.325,8,7.618v-0.96
	c0-0.707,0.578-1.285,1.285-1.285H90.4c0.706,0,1.284,0.578,1.284,1.285V7.618z"/>
<g>
	<path fill="#8C8B8B" d="M91.685,75.117c0,0.707-0.578,1.285-1.285,1.285H9.285C8.578,76.402,8,75.824,8,75.117v-1.763
		c0-0.707,0.578-1.285,1.285-1.285h81.114c0.707,0,1.285,0.578,1.285,1.285V75.117z"/>
</g>
<circle fill="#8C8B8B" cx="49.301" cy="41.376" r="9.016"/>
<path fill="#6A6A6A" d="M8,74.157c0,0,0,0.542,0,1.204c0,0.66,0.578,1.202,1.285,1.202H90.4c0.706,0,1.284-0.542,1.284-1.202
	c0-0.662,0-1.204,0-1.204H8z"/>
<path fill="#8C8B8B" d="M8,7.622c0.002,0.705,0.579,1.281,1.285,1.281H90.4c0.705,0,1.282-0.576,1.284-1.281H8z"/>
</svg>
