<?xml version="1.0" encoding="utf-8"?>
<!-- Generator: Adobe Illustrator 16.0.0, SVG Export Plug-In . SVG Version: 6.00 Build 0)  -->
<!DOCTYPE svg PUBLIC "-//W3C//DTD SVG 1.1//EN" "http://www.w3.org/Graphics/SVG/1.1/DTD/svg11.dtd">
<svg version="1.1" id="Layer_1" xmlns="http://www.w3.org/2000/svg" xmlns:xlink="http://www.w3.org/1999/xlink" x="0px" y="0px"
	 width="100px" height="100px" viewBox="0 0 100 100" enable-background="new 0 0 100 100" xml:space="preserve">
<g>
	<path fill-rule="evenodd" clip-rule="evenodd" fill="#8C8B8B" stroke="#6A6A6A" stroke-width="0.1545" stroke-miterlimit="10" d="
		M87.369,4.113L23.73,28.739c0,0-3.168,1.767,0.817,3.071l26.3,8.489L87.369,4.113z"/>
	<path fill-rule="evenodd" clip-rule="evenodd" fill="#8C8B8B" stroke="#6A6A6A" stroke-width="0.1545" stroke-miterlimit="10" d="
		M12.506,96.217l63.639-24.626c0,0,3.167-1.768-0.817-3.07l-26.3-8.488L12.506,96.217z"/>
	<g>
		<path fill-rule="evenodd" clip-rule="evenodd" fill="#E19105" d="M77.381,70.062c-0.249-0.354-1.111-1.166-4.049-2.093
			L25.767,52.862c-0.05-0.008-3.508-0.441-3.919-5.604c-0.006-0.109-0.581-10.886,0.558-16.98c0.168,0.506,0.738,1.282,2.604,1.734
			l49.174,15.254c0.028,0.009,2.955,1.007,3.451,5.13C77.65,52.51,79.216,63.423,77.381,70.062z"/>
		<path fill="#6A6A6A" d="M22.436,30.543c0.266,0.508,0.928,1.15,2.545,1.542L74.157,47.34c0.029,0.009,2.91,0.997,3.4,5.07
			c0.017,0.109,1.557,10.845-0.211,17.48c-0.36-0.416-1.34-1.159-3.991-1.996L25.759,52.782c-0.034-0.004-3.428-0.424-3.835-5.525
			C21.918,47.147,21.359,36.668,22.436,30.543 M22.42,29.802c-1.276,6.074-0.65,17.463-0.65,17.463
			c0.422,5.292,3.973,5.67,3.973,5.67l47.565,15.106c3.857,1.217,4.095,2.224,4.095,2.224c1.943-6.713,0.308-17.878,0.308-17.878
			c-0.509-4.225-3.506-5.195-3.506-5.195L25.026,31.938C22.191,31.25,22.42,29.802,22.42,29.802L22.42,29.802z"/>
	</g>
	<g>
		<path fill="#6A6A6A" d="M22.436,30.389c0.266,0.508,0.928,1.15,2.545,1.542l49.177,15.255c0.029,0.009,2.91,0.997,3.4,5.07
			c0.017,0.109,1.557,10.844-0.211,17.482c-0.36-0.416-1.34-1.161-3.991-1.998L25.76,52.627c-0.14-0.016-3.43-0.435-3.835-5.525
			C21.918,46.992,21.359,36.514,22.436,30.389 M22.42,29.647c-1.276,6.074-0.65,17.462-0.65,17.462
			c0.422,5.294,3.973,5.67,3.973,5.67l47.565,15.106c3.857,1.218,4.095,2.226,4.095,2.226c1.943-6.715,0.308-17.88,0.308-17.88
			c-0.509-4.224-3.506-5.194-3.506-5.194L25.026,31.783C22.191,31.096,22.42,29.647,22.42,29.647L22.42,29.647z"/>
	</g>
	<path fill-rule="evenodd" clip-rule="evenodd" fill="none" stroke="#6A6A6A" stroke-width="0.1545" stroke-miterlimit="10" d="
		M74.176,47.139L50.971,39.94L87.185,4.06L23.546,28.685c0,0-0.953,0.534-1.155,1.229c-0.009-0.104,0-0.166,0-0.166
		c-1.277,6.074-0.65,17.462-0.65,17.462c0.421,5.293,3.973,5.67,3.973,5.67l22.938,7.285L12.477,96.009l63.64-24.626
		c0,0,1.038-0.582,1.178-1.322c0.066,0.099,0.078,0.151,0.078,0.151c1.945-6.713,0.309-17.88,0.309-17.88
		C77.173,48.109,74.176,47.139,74.176,47.139z"/>
</g>
</svg>
