<?xml version="1.0" encoding="UTF-8"?>
<!-- Generator: Adobe Illustrator 17.1.0, SVG Export Plug-In . SVG Version: 6.00 Build 0)  -->
<!DOCTYPE svg PUBLIC "-//W3C//DTD SVG 1.1//EN" "http://www.w3.org/Graphics/SVG/1.1/DTD/svg11.dtd">
<svg version="1.1" id="Capa_1" xmlns="http://www.w3.org/2000/svg" xmlns:xlink="http://www.w3.org/1999/xlink" x="0px" y="0px" viewBox="0 0 26.7 26.7" enable-background="new 0 0 26.7 26.7" xml:space="preserve">
<path fill="#4D772D" d="M5,16.6c-0.2-0.5-0.4-1-0.5-1.6l-3.8,3.2l5-0.2C5.5,17.6,5.2,17.1,5,16.6z"/>
<path fill="#4D772D" d="M6.6,19.2l-1.7,4.7l4.2-2.6c-0.5-0.3-0.9-0.6-1.4-0.9C7.3,20,6.9,19.6,6.6,19.2z"/>
<path fill="#4D772D" d="M21.7,10.1c0.2,0.5,0.4,1,0.5,1.6l3.8-3.2l-5,0.2C21.2,9.1,21.5,9.6,21.7,10.1z"/>
<path fill="#4D772D" d="M20.1,7.5l1.7-4.7l-4.2,2.6C18,5.7,18.5,6,18.9,6.3C19.4,6.7,19.8,7.1,20.1,7.5z"/>
<path fill="#4D772D" d="M16.3,4.9L15.4,0l-2.3,4.4c0.5,0,1.1,0,1.6,0.1C15.2,4.6,15.8,4.7,16.3,4.9z"/>
<path fill="#4D772D" d="M10.1,5c0.5-0.2,1-0.4,1.6-0.5L8.4,0.8l0.2,5C9.1,5.5,9.6,5.2,10.1,5z"/>
<path fill="#4D772D" d="M6.3,7.8c0.3-0.4,0.7-0.8,1.1-1.2L2.8,4.9l2.6,4.2C5.7,8.6,6,8.2,6.3,7.8z"/>
<path fill="#4D772D" d="M4.5,12c0.1-0.5,0.2-1.1,0.4-1.6L0,11.3l4.4,2.3C4.4,13.1,4.4,12.5,4.5,12z"/>
<path fill="#4D772D" d="M10.4,21.8l0.9,4.9l2.3-4.4c-0.5,0-1.1,0-1.6-0.1C11.5,22.1,10.9,22,10.4,21.8z"/>
<path fill="#4D772D" d="M16.6,21.7c-0.5,0.2-1,0.4-1.6,0.5l3.2,3.8l-0.2-5C17.6,21.2,17.1,21.5,16.6,21.7z"/>
<path fill="#4D772D" d="M20.3,18.9c-0.3,0.4-0.7,0.8-1.1,1.2l4.7,1.7l-2.6-4.2C21,18,20.7,18.5,20.3,18.9z"/>
<path fill="#4D772D" d="M22.2,14.7c-0.1,0.5-0.2,1.1-0.4,1.6l4.9-0.9l-4.4-2.3C22.3,13.6,22.3,14.1,22.2,14.7z"/>
<path fill="#4D772D" d="M14.4,6.3c-3.9-0.6-7.6,2.1-8.2,6c-0.6,3.9,2.1,7.6,6,8.2s7.6-2.1,8.2-6C21,10.5,18.3,6.9,14.4,6.3z"/>
</svg>