<?xml version="1.0" encoding="utf-8"?>
<!-- Generator: Adobe Illustrator 16.0.0, SVG Export Plug-In . SVG Version: 6.00 Build 0)  -->
<!DOCTYPE svg PUBLIC "-//W3C//DTD SVG 1.1//EN" "http://www.w3.org/Graphics/SVG/1.1/DTD/svg11.dtd">
<svg version="1.1" id="Layer_1" xmlns="http://www.w3.org/2000/svg" xmlns:xlink="http://www.w3.org/1999/xlink" x="0px" y="0px"
	 width="100px" height="100px" viewBox="0 0 100 100" enable-background="new 0 0 100 100" xml:space="preserve">
<g>
	<path fill="#6A6A6A" d="M16.797,79.613l-0.023,0.033c-0.894,0.61-1.748,0.844-2.563,0.704c-0.814-0.141-1.56-0.668-2.236-1.582
		c-0.68-0.916-0.951-1.871-0.812-2.862c0.139-0.99,0.658-1.821,1.557-2.486l1.548-1.148c0.896-0.664,1.832-0.928,2.806-0.796
		s1.788,0.641,2.442,1.523c0.694,0.937,0.99,1.83,0.884,2.674c-0.104,0.845-0.567,1.622-1.389,2.331l-0.038,0.013l-1.242-1.675
		c0.465-0.381,0.744-0.755,0.836-1.121c0.092-0.364-0.033-0.779-0.375-1.24c-0.289-0.39-0.674-0.582-1.154-0.572
		c-0.481,0.009-0.976,0.201-1.484,0.578l-1.559,1.154c-0.513,0.379-0.836,0.809-0.971,1.287c-0.134,0.479-0.043,0.933,0.274,1.359
		c0.307,0.415,0.635,0.627,0.983,0.636c0.349,0.01,0.773-0.152,1.273-0.484L16.797,79.613z"/>
	<path fill="#6A6A6A" d="M24.284,85.756c-0.75,0.855-1.639,1.32-2.667,1.4c-1.028,0.078-1.979-0.266-2.852-1.032
		c-0.88-0.773-1.349-1.677-1.409-2.711s0.286-1.978,1.037-2.832l1.096-1.246c0.747-0.853,1.637-1.315,2.67-1.394
		c1.032-0.077,1.986,0.27,2.862,1.039c0.87,0.765,1.334,1.665,1.392,2.698c0.059,1.036-0.287,1.979-1.033,2.831L24.284,85.756z
		 M23.783,83.089c0.435-0.495,0.676-1.004,0.721-1.526c0.046-0.521-0.144-0.97-0.57-1.344c-0.435-0.381-0.905-0.518-1.414-0.403
		c-0.508,0.113-0.981,0.421-1.418,0.92l-1.104,1.257c-0.441,0.501-0.684,1.013-0.73,1.536c-0.045,0.521,0.149,0.974,0.584,1.355
		c0.422,0.372,0.889,0.499,1.399,0.386c0.51-0.114,0.987-0.421,1.427-0.923L23.783,83.089z"/>
	<path fill="#6A6A6A" d="M30.928,83.465l-1.097,6.692l0.033,0.018l4.801-4.802l2.517,1.287l-4.197,8.219l-1.914-0.978l1.041-2.039
		L34.21,88.2l-0.031-0.022l-4.942,4.785l-1.288-0.657l0.977-6.747l-0.037-0.012l-1.71,3.797l-1.041,2.037l-1.914-0.979l4.198-8.218
		L30.928,83.465z"/>
	<path fill="#6A6A6A" d="M40.734,87.486l0.754,6.74l0.037,0.009l3.323-5.921l2.772,0.556l-1.819,9.049l-2.106-0.424l0.452-2.243
		l1.028-4.093l-0.036-0.015l-3.463,5.945l-1.417-0.286l-0.885-6.759l-0.039-0.001l-0.62,4.117l-0.451,2.244l-2.106-0.424
		l1.818-9.049L40.734,87.486z"/>
	<path fill="#6A6A6A" d="M51.031,97.901l-2.136-0.021l0.095-9.229l2.135,0.022L51.031,97.901z"/>
	<path fill="#6A6A6A" d="M58.431,94.767c-0.047-0.321-0.19-0.555-0.427-0.701c-0.239-0.145-0.649-0.274-1.229-0.393
		c-1.207-0.197-2.119-0.466-2.735-0.801c-0.615-0.336-0.98-0.896-1.094-1.685c-0.11-0.764,0.133-1.431,0.728-2
		c0.595-0.567,1.402-0.925,2.424-1.073c1.012-0.145,1.878-0.003,2.599,0.425c0.722,0.427,1.132,1.053,1.229,1.875l-0.008,0.04
		l-2.058,0.296c-0.053-0.365-0.219-0.643-0.498-0.834c-0.278-0.192-0.637-0.258-1.071-0.195c-0.427,0.061-0.748,0.204-0.964,0.428
		c-0.215,0.223-0.304,0.473-0.264,0.749c0.039,0.268,0.192,0.464,0.46,0.589c0.267,0.125,0.755,0.261,1.464,0.407
		c1.083,0.16,1.919,0.43,2.507,0.805c0.591,0.376,0.944,0.959,1.058,1.75c0.115,0.804-0.108,1.476-0.667,2.02
		c-0.56,0.547-1.355,0.891-2.39,1.039c-1.038,0.151-1.973,0.02-2.805-0.393c-0.832-0.413-1.307-1.11-1.428-2.092l0.007-0.036
		l2.064-0.299c0.076,0.527,0.271,0.883,0.589,1.066c0.317,0.185,0.765,0.236,1.342,0.154c0.439-0.063,0.753-0.2,0.944-0.404
		C58.396,95.296,58.471,95.051,58.431,94.767z"/>
	<path fill="#6A6A6A" d="M67.306,92.223c-0.111-0.306-0.298-0.504-0.562-0.599c-0.263-0.093-0.691-0.138-1.283-0.135
		c-1.222,0.051-2.169-0.023-2.84-0.228c-0.671-0.203-1.143-0.68-1.415-1.425c-0.261-0.729-0.16-1.43,0.307-2.109
		c0.467-0.676,1.186-1.19,2.155-1.542c0.961-0.349,1.838-0.387,2.631-0.114c0.795,0.272,1.321,0.802,1.584,1.587v0.041l-1.955,0.709
		c-0.124-0.348-0.342-0.587-0.655-0.717c-0.313-0.131-0.677-0.122-1.09,0.028c-0.405,0.146-0.691,0.351-0.856,0.614
		c-0.164,0.262-0.202,0.523-0.104,0.785c0.091,0.255,0.281,0.416,0.568,0.484c0.288,0.069,0.794,0.103,1.517,0.102
		c1.093-0.063,1.964,0.028,2.62,0.277c0.653,0.249,1.115,0.747,1.388,1.498c0.277,0.763,0.197,1.469-0.24,2.114
		c-0.439,0.646-1.147,1.147-2.129,1.503c-0.984,0.358-1.928,0.42-2.825,0.186c-0.898-0.234-1.508-0.817-1.823-1.757l-0.002-0.039
		l1.962-0.712c0.181,0.5,0.445,0.811,0.794,0.928c0.347,0.116,0.795,0.073,1.344-0.125c0.417-0.151,0.697-0.348,0.841-0.588
		C67.381,92.749,67.403,92.494,67.306,92.223z"/>
	<path fill="#6A6A6A" d="M74.325,91.507l-1.873,1.026l-4.438-8.091l1.874-1.028L74.325,91.507z"/>
	<path fill="#6A6A6A" d="M80.588,82.405c0.697,0.897,0.987,1.857,0.871,2.882c-0.117,1.025-0.632,1.895-1.551,2.607
		c-0.924,0.719-1.899,1.009-2.926,0.872c-1.026-0.135-1.889-0.653-2.586-1.551l-1.019-1.312c-0.697-0.894-0.984-1.855-0.865-2.885
		c0.119-1.027,0.638-1.9,1.56-2.615c0.914-0.711,1.885-0.997,2.913-0.859c1.027,0.138,1.888,0.655,2.583,1.548L80.588,82.405z
		 M77.874,82.394c-0.404-0.521-0.859-0.851-1.363-0.994s-0.98-0.042-1.429,0.306c-0.455,0.355-0.677,0.793-0.66,1.313
		s0.228,1.042,0.635,1.565l1.027,1.32c0.41,0.529,0.866,0.863,1.371,1.007c0.503,0.143,0.984,0.037,1.442-0.319
		c0.443-0.344,0.657-0.778,0.643-1.302c-0.017-0.522-0.229-1.048-0.64-1.575L77.874,82.394z"/>
	<path fill="#6A6A6A" d="M89.868,77.42l-1.354,1.65l-6.69-1.121l-0.015,0.037l4.536,3.725l-1.364,1.661l-7.133-5.858l1.366-1.66
		l6.688,1.122l0.015-0.036l-4.536-3.726l1.355-1.651L89.868,77.42z"/>
</g>
<g>
	<path fill="#6A6A6A" d="M4.464,41.349l-0.268,2.419l7.535,0.836l-0.236,2.135l-7.536-0.835l-0.266,2.401l-1.638-0.183l0.771-6.954
		L4.464,41.349z"/>
	<path fill="#6A6A6A" d="M10.075,34.91l-1.053,3.461l2.201,0.67l1.242-4.082l1.577,0.479l-1.867,6.138l-8.83-2.685l1.871-6.15
		l1.577,0.479l-1.245,4.093l1.898,0.578l1.053-3.462L10.075,34.91z"/>
	<path fill="#6A6A6A" d="M10.51,28.939l-2.028-2.81l1.166-2.18l2.789,4.489l5.445-0.317l-1.225,2.293l-3.542-0.112l2.06,2.884
		l-1.166,2.181l-2.823-4.586l-5.282,0.173l1.157-2.163L10.51,28.939z"/>
	<path fill="#6A6A6A" d="M19.921,22.935L18.06,25.17l1.044,1.547l-1.38,1.655l-5.181-8.197l1.473-1.768l9,3.616l-1.379,1.655
		L19.921,22.935z M17.098,23.75l1.253-1.505l-3.154-1.374l-0.024,0.029L17.098,23.75z"/>
	<path fill="#6A6A6A" d="M25.626,16.874c-0.202-0.254-0.444-0.384-0.724-0.388s-0.698,0.09-1.257,0.282
		c-1.142,0.439-2.063,0.67-2.766,0.691c-0.701,0.022-1.299-0.278-1.795-0.899c-0.481-0.604-0.61-1.302-0.384-2.093
		c0.227-0.792,0.743-1.508,1.548-2.15c0.8-0.638,1.619-0.955,2.458-0.95c0.839,0.004,1.508,0.337,2.008,0.998l0.013,0.038
		l-1.625,1.295c-0.229-0.287-0.514-0.443-0.852-0.468c-0.339-0.024-0.68,0.1-1.023,0.373c-0.338,0.271-0.543,0.555-0.616,0.856
		c-0.072,0.302-0.022,0.561,0.152,0.78c0.168,0.211,0.401,0.303,0.695,0.277c0.295-0.027,0.785-0.156,1.469-0.389
		c1.015-0.409,1.871-0.601,2.57-0.575c0.699,0.026,1.297,0.353,1.795,0.976c0.506,0.635,0.655,1.328,0.447,2.08
		c-0.208,0.752-0.721,1.454-1.537,2.105c-0.82,0.653-1.693,1.012-2.619,1.078s-1.689-0.294-2.288-1.082l-0.014-0.038l1.631-1.3
		c0.332,0.417,0.681,0.625,1.048,0.623c0.368,0.001,0.779-0.182,1.234-0.545c0.347-0.277,0.551-0.552,0.61-0.826
		C25.865,17.348,25.805,17.099,25.626,16.874z"/>
	<path fill="#6A6A6A" d="M41.838,8.896l0.037-0.01l-0.338-6.164l2.006-0.517l0.253,9.465l-1.952,0.504l-2.924-5.125l-0.038,0.01
		l-0.071,5.896l-1.951,0.503l-4.36-8.407l2.013-0.519l2.683,5.561l0.037-0.01l0.066-6.268l1.443-0.372L41.838,8.896z"/>
	<path fill="#6A6A6A" d="M53.785,7.535c0.006,1.137-0.352,2.075-1.067,2.816c-0.718,0.741-1.658,1.114-2.819,1.12
		c-1.171,0.006-2.123-0.36-2.853-1.094c-0.729-0.734-1.097-1.668-1.103-2.805L45.937,5.91c-0.005-1.133,0.353-2.071,1.075-2.813
		c0.721-0.743,1.666-1.117,2.832-1.123c1.157-0.005,2.102,0.36,2.832,1.098c0.73,0.735,1.099,1.669,1.104,2.802L53.785,7.535z
		 M51.642,5.871c-0.003-0.659-0.16-1.199-0.473-1.62c-0.313-0.422-0.754-0.631-1.32-0.628c-0.578,0.003-1.02,0.215-1.323,0.637
		c-0.305,0.422-0.456,0.964-0.454,1.628l0.009,1.674c0.003,0.667,0.161,1.212,0.474,1.633c0.313,0.421,0.758,0.63,1.336,0.628
		c0.562-0.003,0.996-0.216,1.304-0.639c0.306-0.425,0.457-0.97,0.454-1.639L51.642,5.871z"/>
	<path fill="#6A6A6A" d="M57.501,8.436l-0.741,3.458l-2.102-0.451l1.935-9.024l3.472,0.745c1.046,0.224,1.822,0.643,2.329,1.259
		c0.508,0.614,0.673,1.34,0.493,2.179c-0.102,0.467-0.311,0.841-0.627,1.124c-0.317,0.281-0.738,0.477-1.263,0.585
		c0.52,0.276,0.859,0.623,1.024,1.041c0.163,0.417,0.186,0.899,0.069,1.444l-0.122,0.57c-0.05,0.235-0.072,0.512-0.068,0.828
		c0.006,0.317,0.082,0.558,0.228,0.723l-0.024,0.125l-2.159-0.462c-0.136-0.163-0.195-0.414-0.179-0.751
		c0.02-0.338,0.059-0.645,0.117-0.922l0.116-0.545c0.093-0.429,0.048-0.782-0.13-1.059c-0.178-0.276-0.486-0.461-0.925-0.555
		L57.501,8.436z M57.847,6.824l1.382,0.297c0.421,0.09,0.765,0.063,1.027-0.081c0.267-0.145,0.436-0.396,0.513-0.756
		c0.081-0.368,0.03-0.688-0.153-0.962c-0.182-0.275-0.479-0.458-0.896-0.547L58.35,4.481L57.847,6.824z"/>
	<path fill="#6A6A6A" d="M67.043,11.199l-0.902-0.405l-1.519,3.376l-1.96-0.882l3.785-8.417l1.961,0.882l-1.485,3.294l0.666,0.3
		l3.333-2.463l2.428,1.092l-4.32,2.637l0.76,5.881l-2.38-1.071L67.043,11.199z"/>
	<path fill="#6A6A6A" d="M76.899,17.125l-3.01-2.146l-2.156,3.025l-1.749-1.248l5.357-7.515l5.284,3.768l-0.954,1.342l-3.537-2.521
		l-1.289,1.806l3.011,2.146L76.899,17.125z"/>
	<path fill="#6A6A6A" d="M83.747,23.945c-0.831,0.775-1.763,1.149-2.793,1.125c-1.03-0.024-1.941-0.461-2.735-1.312
		c-0.797-0.856-1.174-1.802-1.131-2.835c0.045-1.035,0.481-1.939,1.314-2.715l1.216-1.131c0.828-0.772,1.76-1.146,2.796-1.119
		c1.034,0.027,1.948,0.467,2.744,1.32c0.789,0.847,1.16,1.788,1.114,2.825c-0.044,1.036-0.482,1.94-1.311,2.711L83.747,23.945z
		 M83.517,21.241c0.481-0.449,0.772-0.932,0.869-1.447c0.097-0.515-0.047-0.979-0.434-1.395c-0.394-0.423-0.85-0.603-1.367-0.542
		c-0.517,0.063-1.018,0.32-1.502,0.772l-1.224,1.14c-0.488,0.456-0.782,0.942-0.88,1.456c-0.098,0.515,0.051,0.985,0.445,1.408
		c0.384,0.411,0.834,0.587,1.355,0.524c0.519-0.062,1.021-0.321,1.511-0.776L83.517,21.241z"/>
	<path fill="#6A6A6A" d="M85.609,27.291l-3.041,1.803l-1.098-1.848l7.943-4.704l1.807,3.054c0.545,0.919,0.764,1.774,0.658,2.565
		c-0.109,0.79-0.529,1.403-1.268,1.84c-0.411,0.244-0.826,0.343-1.248,0.302c-0.424-0.042-0.854-0.218-1.288-0.531
		c0.149,0.57,0.126,1.056-0.07,1.459c-0.195,0.403-0.532,0.748-1.013,1.031l-0.501,0.297c-0.208,0.123-0.425,0.294-0.654,0.513
		c-0.229,0.218-0.353,0.438-0.377,0.658l-0.108,0.064l-1.125-1.897c0.026-0.212,0.172-0.426,0.43-0.641
		c0.263-0.216,0.513-0.396,0.758-0.541l0.479-0.285c0.378-0.224,0.609-0.496,0.69-0.814c0.081-0.317,0.008-0.67-0.221-1.055
		L85.609,27.291z M87.027,26.451l0.721,1.216c0.219,0.37,0.472,0.604,0.758,0.7c0.286,0.097,0.586,0.051,0.904-0.136
		c0.322-0.192,0.523-0.447,0.604-0.766c0.078-0.319,0.008-0.662-0.21-1.03l-0.714-1.206L87.027,26.451z"/>
	<path fill="#6A6A6A" d="M90.908,40.16l-0.031,0.024c-1.041,0.304-1.925,0.263-2.656-0.122c-0.732-0.385-1.278-1.117-1.64-2.195
		c-0.362-1.081-0.325-2.072,0.112-2.973c0.438-0.9,1.188-1.529,2.247-1.885l1.828-0.613c1.058-0.355,2.028-0.319,2.914,0.107
		c0.885,0.428,1.504,1.162,1.853,2.203c0.373,1.106,0.376,2.044,0.016,2.816c-0.357,0.772-1.04,1.368-2.04,1.789h-0.04l-0.664-1.977
		c0.561-0.218,0.941-0.488,1.143-0.807c0.201-0.32,0.208-0.75,0.024-1.296c-0.153-0.461-0.461-0.762-0.921-0.901
		c-0.459-0.141-0.989-0.109-1.591,0.092l-1.838,0.617c-0.606,0.204-1.047,0.511-1.32,0.925c-0.278,0.414-0.329,0.873-0.16,1.377
		c0.165,0.489,0.411,0.792,0.739,0.909c0.329,0.117,0.783,0.093,1.36-0.07L90.908,40.16z"/>
	<path fill="#6A6A6A" d="M92.608,47.268l-0.461-3.59l-2.283,0.294l0.547,4.231l-1.637,0.21l-0.819-6.362l9.153-1.18l0.822,6.375
		l-1.636,0.21l-0.547-4.243l-1.969,0.253l0.463,3.589L92.608,47.268z"/>
</g>
<polygon fill-rule="evenodd" clip-rule="evenodd" fill="#8C8B8B" points="54.733,45.179 65.627,45.179 56.778,51.923 60.347,62.703 
	50.546,56.339 40.746,62.703 43.839,51.923 35.466,45.179 46.407,45.179 50.546,34.445 "/>
<polygon fill-rule="evenodd" clip-rule="evenodd" fill="#E19105" points="50.546,49.738 37.749,45.986 37.653,46.082 44.742,51.638 
	"/>
<polygon fill-rule="evenodd" clip-rule="evenodd" fill="#E19105" points="50.546,49.786 41.887,60.898 41.983,61.136 50.546,55.438 
	"/>
<polygon fill-rule="evenodd" clip-rule="evenodd" fill="#E19105" points="50.546,49.738 50.546,36.583 50.451,36.583 47.026,45.606 
	"/>
<polygon fill-rule="evenodd" clip-rule="evenodd" fill="#E19105" points="50.546,49.738 63.391,45.939 63.391,45.844 53.876,45.844 
	"/>
<polygon fill-rule="evenodd" clip-rule="evenodd" fill="#E19105" points="50.546,49.738 58.968,60.852 59.062,60.806 55.825,51.306 
	"/>
<path fill="#8C8B8B" d="M45.542,83.805c0,0,0.044-0.065,0.13-0.193c0.089-0.126,0.207-0.322,0.387-0.558
	c0.09-0.119,0.189-0.254,0.299-0.399c0.055-0.073,0.112-0.148,0.173-0.229c0.064-0.077,0.13-0.156,0.199-0.238
	c0.14-0.164,0.285-0.347,0.448-0.53c0.168-0.182,0.347-0.374,0.536-0.578c0.774-0.791,1.781-1.7,3.075-2.543
	c1.292-0.843,2.856-1.645,4.676-2.188c0.114-0.034,0.228-0.069,0.343-0.104c0.115-0.03,0.232-0.06,0.349-0.09
	c0.229-0.057,0.462-0.116,0.695-0.177c0.217-0.053,0.435-0.107,0.655-0.162c0.22-0.053,0.442-0.108,0.662-0.176
	c0.443-0.133,0.898-0.257,1.346-0.419c0.228-0.077,0.455-0.155,0.684-0.233c0.227-0.088,0.452-0.176,0.682-0.265
	c1.832-0.711,3.68-1.679,5.469-2.873c0.884-0.606,1.769-1.252,2.603-1.98c0.432-0.347,0.827-0.739,1.243-1.113
	c0.393-0.4,0.805-0.784,1.181-1.206c0.776-0.823,1.494-1.711,2.171-2.634c0.687-0.917,1.292-1.896,1.862-2.894l0.413-0.759
	c0.132-0.254,0.255-0.516,0.384-0.771l0.188-0.387l0.174-0.395c0.113-0.264,0.236-0.523,0.344-0.79
	c0.434-1.062,0.803-2.143,1.112-3.235c0.078-0.271,0.141-0.549,0.212-0.822c0.069-0.274,0.139-0.547,0.189-0.823
	c0.058-0.275,0.114-0.55,0.17-0.824c0.045-0.276,0.09-0.552,0.135-0.827l0.065-0.411l0.052-0.413c0.03-0.273,0.063-0.547,0.096-0.82
	c0.021-0.274,0.041-0.546,0.061-0.819c0.022-0.272,0.043-0.543,0.045-0.814c0.063-2.163-0.054-4.267-0.413-6.223
	c-0.354-1.957-0.887-3.767-1.496-5.395c-1.281-3.235-2.876-5.695-4.127-7.292c-0.077-0.101-0.146-0.203-0.223-0.296
	c-0.078-0.092-0.153-0.181-0.226-0.268c-0.146-0.172-0.284-0.335-0.41-0.486c-0.255-0.3-0.466-0.564-0.658-0.755
	c-0.376-0.396-0.575-0.606-0.575-0.606s0.207,0.21,0.593,0.605c0.201,0.191,0.414,0.457,0.681,0.757
	c0.132,0.151,0.273,0.313,0.424,0.486c0.075,0.088,0.152,0.176,0.233,0.269c0.075,0.097,0.152,0.196,0.229,0.298
	c1.291,1.606,2.959,4.083,4.293,7.376c0.652,1.65,1.198,3.501,1.573,5.502c0.043,0.251,0.086,0.503,0.129,0.758
	c0.021,0.128,0.042,0.255,0.063,0.383c0.023,0.128,0.043,0.256,0.053,0.387c0.055,0.52,0.108,1.046,0.164,1.578
	c0.033,0.534,0.043,1.075,0.069,1.621c0.004,0.136,0.015,0.273,0.015,0.41c-0.003,0.137-0.006,0.275-0.006,0.413
	c-0.006,0.276-0.009,0.553-0.013,0.831c-0.017,0.278-0.032,0.557-0.047,0.837l-0.026,0.42l-0.04,0.421
	c-0.029,0.281-0.058,0.563-0.086,0.847c-0.042,0.281-0.081,0.563-0.123,0.849l-0.061,0.425l-0.081,0.424
	c-0.056,0.283-0.105,0.568-0.164,0.852c-0.137,0.564-0.253,1.135-0.421,1.696c-0.305,1.13-0.697,2.244-1.146,3.341
	c-0.44,1.1-0.981,2.163-1.559,3.204l-0.446,0.774l-0.479,0.756c-0.155,0.255-0.328,0.496-0.496,0.741
	c-0.173,0.241-0.332,0.493-0.518,0.727c-0.7,0.96-1.47,1.859-2.268,2.725c-0.805,0.854-1.658,1.649-2.534,2.397
	c-0.225,0.182-0.449,0.362-0.672,0.541c-0.112,0.09-0.222,0.183-0.335,0.268l-0.346,0.253c-0.229,0.168-0.453,0.342-0.686,0.503
	c-0.233,0.158-0.467,0.314-0.699,0.473c-0.938,0.612-1.888,1.176-2.854,1.658c-0.959,0.499-1.935,0.909-2.891,1.287
	c-0.968,0.353-1.916,0.675-2.855,0.915c-0.472,0.126-0.934,0.25-1.389,0.371c-0.229,0.06-0.447,0.143-0.668,0.213
	c-0.11,0.035-0.221,0.071-0.328,0.108c-0.107,0.04-0.214,0.082-0.319,0.122c-1.703,0.64-3.136,1.517-4.308,2.402
	c-1.165,0.9-2.062,1.83-2.735,2.639c-0.163,0.209-0.328,0.396-0.465,0.587c-0.139,0.189-0.269,0.367-0.389,0.532
	c-0.233,0.337-0.417,0.631-0.571,0.869c-0.283,0.488-0.433,0.749-0.433,0.749s-0.124-0.381-0.236-0.778
	c-0.056-0.2-0.112-0.404-0.149-0.556C45.564,83.905,45.542,83.805,45.542,83.805z"/>
<path fill="#6A6A6A" d="M59.09,68.681c-0.35-0.114-0.682-0.099-0.948,0.21c-0.134,0.156-0.261,0.367-0.374,0.663
	c-0.114,0.295-0.212,0.68-0.306,1.156c-0.294,1.427-0.359,2.551-0.281,3.339c0.074,0.795,0.289,1.283,0.408,1.49
	c0,0,0.135-0.358,0.309-0.919c0.089-0.277,0.188-0.601,0.284-0.942c0.048-0.173,0.096-0.35,0.146-0.528
	c0.046-0.182,0.091-0.369,0.137-0.555c0.174-0.742,0.32-1.463,0.404-2.021C58.956,70.021,59,69.659,59,69.659
	s-0.032,0.366-0.104,0.925c-0.066,0.563-0.187,1.296-0.339,2.045c-0.146,0.754-0.336,1.488-0.491,2.052
	c-0.081,0.281-0.148,0.517-0.196,0.68c-0.05,0.163-0.078,0.257-0.078,0.257c0.212-0.087,0.679-0.329,1.173-0.92
	c0.242-0.305,0.489-0.688,0.706-1.181c0.209-0.506,0.389-1.109,0.493-1.838c0.131-0.987,0.024-1.667-0.188-2.14
	C59.763,69.067,59.443,68.803,59.09,68.681z"/>
<path fill="#8C8B8B" d="M65.85,81.66c-0.182,0.248-0.409,0.464-0.686,0.631c-0.14,0.082-0.288,0.152-0.451,0.207
	c-0.163,0.054-0.341,0.084-0.529,0.103c-0.377,0.033-0.802-0.001-1.272-0.13c-0.476-0.14-0.996-0.369-1.553-0.709
	c-0.846-0.522-1.469-1.073-1.933-1.579s-0.776-0.997-0.991-1.427c-0.425-0.86-0.474-1.496-0.476-1.78c0,0,0.366,0.305,0.94,0.725
	c0.287,0.212,0.629,0.457,1.005,0.716c0.375,0.259,0.778,0.515,1.197,0.775c0.835,0.527,1.701,0.991,2.378,1.338
	c0.336,0.177,0.62,0.313,0.82,0.406c0.2,0.094,0.315,0.146,0.315,0.146s-0.113-0.057-0.309-0.157
	c-0.193-0.099-0.471-0.244-0.798-0.431c-0.331-0.186-0.708-0.402-1.101-0.639c-0.2-0.121-0.4-0.242-0.604-0.373
	c-0.201-0.131-0.409-0.267-0.613-0.4c-0.407-0.273-0.803-0.548-1.166-0.81c-0.365-0.269-0.698-0.528-0.979-0.747
	c-0.279-0.222-0.508-0.408-0.666-0.539c-0.158-0.129-0.248-0.209-0.248-0.209c0.142-0.023,0.369-0.057,0.684-0.051
	c0.313,0.005,0.712,0.051,1.187,0.136c0.478,0.095,1.043,0.259,1.691,0.493c0.326,0.12,0.677,0.27,1.053,0.438
	c0.372,0.163,0.771,0.355,1.197,0.577c0.571,0.301,1.022,0.576,1.366,0.853c0.346,0.277,0.584,0.552,0.726,0.826
	C66.316,80.596,66.211,81.148,65.85,81.66z"/>
<path fill="#6A6A6A" d="M62.756,66.893c-0.365-0.06-0.664,0.047-0.88,0.374c-0.105,0.169-0.187,0.4-0.239,0.711
	c-0.06,0.304-0.091,0.68-0.097,1.155c-0.006,0.722,0.014,1.34,0.07,1.879s0.149,0.994,0.258,1.368
	c0.217,0.75,0.51,1.176,0.659,1.353c0,0,0.06-0.378,0.13-0.936c0.076-0.552,0.141-1.307,0.183-2.04
	c0.045-0.726,0.04-1.472,0.031-2.007c-0.006-0.538-0.031-0.9-0.031-0.9s0.037,0.364,0.063,0.904
	c0.013,0.271,0.026,0.589,0.033,0.936c0.009,0.348,0.011,0.718,0.002,1.084c-0.017,0.731-0.053,1.497-0.106,2.052
	c-0.051,0.561-0.097,0.939-0.097,0.939c0.188-0.123,0.598-0.423,0.957-1.09c0.09-0.165,0.178-0.349,0.26-0.556
	c0.078-0.209,0.147-0.446,0.205-0.702c0.058-0.258,0.104-0.537,0.134-0.842c0.027-0.308,0.032-0.646,0.018-1.006
	c-0.02-0.479-0.085-0.878-0.181-1.208c-0.095-0.33-0.223-0.596-0.366-0.803s-0.303-0.358-0.472-0.463
	C63.118,66.987,62.939,66.922,62.756,66.893z"/>
<path fill="#8C8B8B" d="M71.501,78.118c-0.063,0.138-0.138,0.27-0.225,0.392c-0.092,0.122-0.197,0.233-0.313,0.335
	c-0.236,0.203-0.526,0.363-0.877,0.467c-0.35,0.102-0.767,0.132-1.237,0.09c-0.237-0.021-0.486-0.061-0.753-0.126
	c-0.27-0.068-0.553-0.159-0.849-0.274c-0.452-0.175-0.848-0.363-1.197-0.557c-0.354-0.198-0.661-0.404-0.931-0.607
	c-0.536-0.408-0.919-0.813-1.2-1.185c-0.562-0.743-0.724-1.344-0.777-1.613c0,0,0.401,0.213,1.028,0.521
	c0.158,0.076,0.33,0.158,0.513,0.247c0.182,0.081,0.374,0.167,0.573,0.255c0.402,0.176,0.839,0.359,1.285,0.535
	c0.442,0.171,0.891,0.33,1.321,0.477c0.426,0.146,0.836,0.281,1.183,0.38c0.697,0.206,1.178,0.33,1.178,0.33s-0.472-0.14-1.157-0.37
	c-0.342-0.11-0.741-0.256-1.164-0.418c-0.421-0.162-0.862-0.339-1.295-0.521c-0.876-0.38-1.712-0.784-2.327-1.107
	c-0.617-0.328-1.01-0.556-1.01-0.556c0.129-0.05,0.346-0.115,0.647-0.163c0.3-0.052,0.68-0.098,1.156-0.086
	c0.12,0.003,0.244,0.009,0.375,0.018c0.129,0.006,0.266,0.015,0.404,0.025c0.283,0.026,0.591,0.068,0.925,0.131
	c0.338,0.063,0.691,0.128,1.079,0.225c0.387,0.095,0.805,0.214,1.248,0.352c1.185,0.354,1.927,0.764,2.291,1.242
	C71.762,77.031,71.753,77.567,71.501,78.118z"/>
<path fill="#6A6A6A" d="M66.077,64.449c-0.359,0.013-0.644,0.15-0.782,0.52c-0.071,0.184-0.115,0.412-0.115,0.718
	c-0.003,0.301,0.043,0.683,0.113,1.13c0.113,0.683,0.248,1.278,0.4,1.788c0.15,0.505,0.315,0.92,0.487,1.258
	c0.338,0.676,0.697,1.03,0.872,1.174c0,0-0.002-0.093-0.008-0.254c-0.005-0.159-0.013-0.387-0.031-0.662
	c-0.039-0.556-0.094-1.27-0.188-1.983c-0.097-0.721-0.21-1.409-0.318-1.93c-0.107-0.521-0.188-0.858-0.188-0.858
	s0.093,0.335,0.217,0.855c0.128,0.523,0.263,1.209,0.386,1.929c0.063,0.359,0.113,0.715,0.155,1.051
	c0.042,0.338,0.077,0.654,0.105,0.931c0.026,0.272,0.048,0.506,0.06,0.667s0.018,0.252,0.018,0.252
	c0.164-0.143,0.483-0.529,0.722-1.212c0.113-0.351,0.199-0.78,0.226-1.289c0.022-0.51-0.032-1.119-0.177-1.796
	c-0.208-0.913-0.535-1.489-0.878-1.835C66.807,64.555,66.433,64.434,66.077,64.449z"/>
<path fill="#8C8B8B" d="M76.394,73.653c-0.147,0.563-0.497,1.072-1.138,1.377c-0.626,0.319-1.549,0.424-2.755,0.202
	c-0.924-0.182-1.652-0.447-2.235-0.737c-0.58-0.29-1.027-0.617-1.361-0.92c-0.67-0.612-0.932-1.155-1.032-1.404
	c0,0,0.108,0.034,0.297,0.094c0.19,0.061,0.458,0.139,0.782,0.225c0.646,0.174,1.542,0.401,2.442,0.566
	c0.452,0.086,0.915,0.167,1.35,0.232c0.431,0.061,0.837,0.111,1.191,0.151c0.353,0.041,0.65,0.071,0.86,0.092
	c0.206,0.015,0.324,0.024,0.324,0.024s-0.117-0.013-0.321-0.036c-0.208-0.028-0.502-0.068-0.851-0.121
	c-0.35-0.053-0.754-0.118-1.181-0.194c-0.425-0.076-0.885-0.177-1.331-0.276c-0.452-0.104-0.889-0.205-1.302-0.32
	c-0.415-0.114-0.793-0.226-1.116-0.324c-0.32-0.099-0.586-0.183-0.769-0.245c-0.186-0.063-0.293-0.101-0.293-0.101
	c0.12-0.064,0.31-0.174,0.587-0.279c0.138-0.051,0.298-0.102,0.479-0.15c0.185-0.045,0.39-0.089,0.612-0.132
	c0.906-0.161,2.188-0.203,3.977,0.007c0.598,0.071,1.098,0.177,1.494,0.308c0.394,0.129,0.695,0.293,0.91,0.489
	C76.447,72.568,76.548,73.094,76.394,73.653z"/>
<path fill="#6A6A6A" d="M68.926,61.416c-0.172,0.037-0.317,0.105-0.427,0.211c-0.114,0.103-0.198,0.239-0.236,0.427
	c-0.038,0.186-0.029,0.424,0.021,0.715c0.046,0.288,0.146,0.637,0.3,1.058c0.237,0.643,0.461,1.181,0.694,1.638
	c0.233,0.456,0.468,0.826,0.691,1.119c0.446,0.587,0.851,0.86,1.041,0.965c0,0-0.075-0.354-0.201-0.871
	c-0.122-0.512-0.316-1.199-0.529-1.863c-0.206-0.657-0.451-1.313-0.641-1.79c-0.097-0.236-0.177-0.432-0.232-0.569
	c-0.058-0.137-0.091-0.215-0.091-0.215s0.036,0.076,0.099,0.213c0.061,0.137,0.147,0.332,0.252,0.565
	c0.203,0.472,0.477,1.123,0.706,1.776c0.23,0.653,0.458,1.343,0.599,1.85c0.145,0.512,0.233,0.861,0.233,0.861
	c0.122-0.174,0.383-0.577,0.475-1.289c0.049-0.353,0.065-0.769-0.012-1.269c-0.074-0.498-0.206-1.051-0.48-1.686
	c-0.359-0.841-0.76-1.327-1.149-1.6C69.646,61.393,69.266,61.339,68.926,61.416z"/>
<path fill="#8C8B8B" d="M80.388,68.415c-0.042,0.562-0.299,1.098-0.84,1.508c-0.56,0.396-1.39,0.68-2.596,0.664
	c-0.455-0.006-0.864-0.036-1.238-0.09c-0.378-0.058-0.717-0.135-1.022-0.222c-0.61-0.179-1.086-0.403-1.458-0.634
	c-0.748-0.464-1.096-0.937-1.235-1.155c0,0,0.425,0.052,1.083,0.11c0.165,0.013,0.344,0.026,0.533,0.042
	c0.188,0.01,0.388,0.021,0.592,0.033c0.413,0.017,0.858,0.03,1.309,0.036c0.896,0.009,1.798-0.03,2.492-0.072
	c0.681-0.05,1.145-0.101,1.145-0.101s-0.461,0.034-1.14,0.06c-0.688,0.019-1.595,0.021-2.48-0.015
	c-0.9-0.042-1.766-0.111-2.421-0.19c-0.654-0.079-1.077-0.146-1.077-0.146c0.097-0.087,0.264-0.222,0.515-0.364
	c0.25-0.145,0.563-0.317,0.988-0.468c0.844-0.309,2.046-0.583,3.802-0.685c1.165-0.07,1.945,0.042,2.43,0.345
	C80.249,67.371,80.423,67.847,80.388,68.415z"/>
<path fill="#6A6A6A" d="M71.199,57.896c-0.32,0.132-0.518,0.358-0.521,0.73c-0.006,0.185,0.036,0.408,0.138,0.678
	c0.1,0.271,0.264,0.591,0.476,0.963c0.329,0.565,0.649,1.047,0.956,1.442c0.304,0.395,0.588,0.702,0.853,0.941
	c0.529,0.478,0.964,0.668,1.166,0.733c0,0-0.033-0.079-0.093-0.219c-0.058-0.138-0.142-0.335-0.253-0.573
	c-0.219-0.474-0.514-1.089-0.832-1.683c-0.327-0.604-0.665-1.178-0.925-1.6c-0.271-0.426-0.455-0.698-0.455-0.698
	s0.196,0.27,0.481,0.687c0.275,0.416,0.634,0.982,0.981,1.574c0.347,0.589,0.658,1.189,0.896,1.657
	c0.116,0.232,0.214,0.431,0.279,0.567c0.063,0.137,0.1,0.215,0.1,0.215c0.097-0.181,0.245-0.63,0.227-1.313
	c-0.041-0.693-0.264-1.628-0.993-2.74c-0.476-0.732-0.963-1.138-1.379-1.327C71.876,57.741,71.517,57.765,71.199,57.896z"/>
<path fill="#8C8B8B" d="M83.355,62.563c0.032,0.271,0.018,0.55-0.071,0.814c-0.088,0.268-0.239,0.526-0.462,0.766
	c-0.112,0.122-0.242,0.238-0.392,0.347c-0.152,0.108-0.329,0.209-0.524,0.302c-0.391,0.186-0.863,0.339-1.433,0.44
	c-0.873,0.148-1.601,0.159-2.211,0.103c-0.608-0.06-1.109-0.196-1.506-0.349c-0.798-0.309-1.213-0.695-1.384-0.88
	c0,0,0.104-0.008,0.29-0.021c0.188-0.012,0.449-0.033,0.764-0.068c0.314-0.032,0.685-0.074,1.085-0.128
	c0.2-0.025,0.41-0.054,0.62-0.087c0.208-0.036,0.422-0.072,0.632-0.108c0.427-0.075,0.857-0.16,1.264-0.245
	c0.404-0.086,0.773-0.18,1.099-0.263c0.644-0.163,1.08-0.288,1.08-0.288s-0.438,0.109-1.083,0.249
	c-0.326,0.068-0.699,0.148-1.102,0.222c-0.406,0.07-0.838,0.14-1.266,0.199c-0.849,0.128-1.709,0.201-2.339,0.246
	c-0.316,0.023-0.578,0.036-0.76,0.047c-0.186,0.006-0.29,0.01-0.29,0.01c0.083-0.099,0.212-0.258,0.419-0.442
	c0.205-0.188,0.497-0.396,0.865-0.619c0.366-0.226,0.838-0.45,1.412-0.675c0.285-0.113,0.601-0.224,0.95-0.331
	c0.348-0.107,0.731-0.21,1.139-0.313c1.096-0.274,1.872-0.296,2.383-0.094C83.048,61.599,83.296,62.02,83.355,62.563z"/>
<path fill="#6A6A6A" d="M72.8,53.995c-0.132,0.094-0.239,0.203-0.309,0.332c-0.066,0.131-0.092,0.282-0.061,0.462
	c0.069,0.361,0.315,0.819,0.877,1.461c0.426,0.486,0.799,0.881,1.162,1.204c0.359,0.321,0.692,0.565,0.987,0.747
	c0.592,0.362,1.04,0.465,1.241,0.489c0,0-0.188-0.284-0.474-0.694c-0.144-0.205-0.312-0.441-0.495-0.689
	c-0.189-0.25-0.394-0.514-0.599-0.769c-0.207-0.257-0.413-0.509-0.608-0.738c-0.2-0.231-0.394-0.445-0.557-0.624
	c-0.329-0.358-0.551-0.586-0.551-0.586s0.23,0.222,0.572,0.571c0.171,0.175,0.369,0.382,0.58,0.608
	c0.204,0.225,0.422,0.469,0.638,0.718c0.429,0.501,0.854,1.025,1.149,1.424c0.302,0.399,0.499,0.677,0.499,0.677
	c0.025-0.097,0.058-0.257,0.066-0.475c0.006-0.108,0.005-0.23-0.007-0.366c-0.016-0.138-0.041-0.289-0.08-0.452
	c-0.081-0.328-0.204-0.7-0.435-1.113c-0.233-0.413-0.551-0.86-0.987-1.323c-0.602-0.622-1.119-0.918-1.553-1.026
	C73.424,53.726,73.074,53.81,72.8,53.995z"/>
<path fill="#8C8B8B" d="M85.214,56.303c0.074,0.253,0.102,0.516,0.071,0.784c-0.016,0.134-0.046,0.271-0.095,0.405
	c-0.051,0.134-0.118,0.27-0.207,0.402c-0.174,0.267-0.422,0.53-0.752,0.776c-0.338,0.244-0.771,0.471-1.294,0.669
	c-0.79,0.299-1.491,0.435-2.086,0.487c-0.594,0.052-1.086,0.016-1.493-0.06c-0.811-0.149-1.277-0.445-1.476-0.59
	c0,0,0.392-0.101,0.986-0.273c0.601-0.169,1.377-0.43,2.17-0.724c0.197-0.074,0.396-0.15,0.593-0.224
	c0.191-0.08,0.378-0.157,0.563-0.233c0.365-0.154,0.709-0.307,1.003-0.438c0.296-0.134,0.542-0.25,0.711-0.334
	c0.168-0.085,0.265-0.133,0.265-0.133s-0.097,0.045-0.268,0.121c-0.171,0.078-0.418,0.185-0.717,0.307
	c-0.3,0.123-0.646,0.261-1.016,0.401s-0.76,0.285-1.163,0.416c-0.398,0.133-0.796,0.257-1.167,0.368
	c-0.186,0.054-0.363,0.105-0.532,0.155c-0.173,0.044-0.336,0.088-0.485,0.127c-0.599,0.153-0.995,0.238-0.995,0.238
	c0.112-0.222,0.413-0.683,1.037-1.239c0.155-0.138,0.338-0.282,0.544-0.43c0.201-0.15,0.426-0.305,0.678-0.462
	c0.256-0.158,0.538-0.318,0.854-0.48c0.309-0.165,0.649-0.332,1.024-0.5c1.01-0.449,1.731-0.606,2.253-0.503
	C84.741,55.439,85.069,55.801,85.214,56.303z"/>
<path fill="#6A6A6A" d="M73.674,49.824c-0.114,0.114-0.195,0.238-0.23,0.377c-0.039,0.137-0.039,0.288,0.018,0.455
	c0.06,0.167,0.174,0.351,0.355,0.557c0.183,0.205,0.417,0.431,0.736,0.687c0.974,0.782,1.768,1.243,2.395,1.477
	c0.625,0.239,1.071,0.256,1.269,0.243c0,0-0.226-0.236-0.566-0.575c-0.353-0.34-0.829-0.781-1.307-1.195
	c-0.234-0.208-0.481-0.412-0.715-0.599c-0.232-0.187-0.449-0.355-0.637-0.498c-0.185-0.14-0.342-0.257-0.449-0.338
	c-0.109-0.08-0.172-0.126-0.172-0.126s0.257,0.172,0.641,0.446c0.379,0.273,0.902,0.653,1.396,1.053
	c0.491,0.399,0.982,0.824,1.348,1.152c0.186,0.165,0.326,0.302,0.431,0.4c0.104,0.099,0.163,0.154,0.163,0.154
	c0.005-0.098,0.017-0.254-0.019-0.463c-0.036-0.21-0.104-0.47-0.233-0.767c-0.063-0.148-0.142-0.306-0.243-0.47
	c-0.104-0.165-0.228-0.337-0.372-0.514c-0.293-0.354-0.658-0.722-1.173-1.092c-0.678-0.488-1.221-0.683-1.653-0.709
	C74.224,49.453,73.901,49.596,73.674,49.824z"/>
<path fill="#8C8B8B" d="M85.904,49.854c0.226,0.449,0.288,0.978,0.061,1.544c-0.12,0.281-0.313,0.573-0.587,0.863
	c-0.139,0.146-0.296,0.291-0.478,0.436c-0.185,0.145-0.396,0.286-0.629,0.425c-0.71,0.421-1.334,0.68-1.892,0.834
	c-0.56,0.154-1.038,0.207-1.439,0.209c-0.801,0.003-1.296-0.194-1.51-0.297c0,0,0.358-0.164,0.895-0.434
	c0.526-0.272,1.232-0.654,1.938-1.073c0.687-0.42,1.378-0.873,1.896-1.23c0.504-0.355,0.84-0.61,0.84-0.61s-0.344,0.24-0.856,0.577
	c-0.523,0.336-1.231,0.763-1.93,1.156c-0.709,0.395-1.434,0.751-1.966,1.006c-0.265,0.128-0.492,0.229-0.651,0.298
	c-0.159,0.068-0.251,0.109-0.251,0.109c0.079-0.23,0.254-0.729,0.766-1.364c0.496-0.643,1.31-1.426,2.621-2.325
	c0.443-0.3,0.825-0.519,1.163-0.661c0.339-0.142,0.635-0.207,0.89-0.204C85.3,49.12,85.669,49.405,85.904,49.854z"/>
<path fill="#6A6A6A" d="M73.782,45.512c-0.185,0.259-0.234,0.536-0.058,0.835c0.191,0.299,0.551,0.626,1.253,1.004
	c1.056,0.578,1.92,0.876,2.549,0.989c0.635,0.117,1.063,0.052,1.249,0.005c0,0-0.25-0.185-0.652-0.447
	c-0.396-0.263-0.925-0.599-1.453-0.913c-0.263-0.157-0.526-0.308-0.772-0.447c-0.252-0.138-0.497-0.262-0.7-0.365
	c-0.411-0.208-0.683-0.335-0.683-0.335s0.277,0.12,0.696,0.314c0.21,0.098,0.455,0.214,0.716,0.343
	c0.254,0.13,0.522,0.273,0.793,0.421c0.539,0.296,1.08,0.614,1.486,0.862c0.203,0.126,0.371,0.231,0.49,0.305
	c0.116,0.075,0.184,0.118,0.184,0.118c-0.021-0.187-0.119-0.604-0.469-1.126c-0.088-0.13-0.19-0.266-0.313-0.405
	c-0.123-0.141-0.257-0.284-0.435-0.426c-0.344-0.285-0.776-0.573-1.315-0.836c-0.721-0.352-1.267-0.444-1.683-0.395
	C74.25,45.062,73.967,45.254,73.782,45.512z"/>
<path fill="#8C8B8B" d="M85.427,43.433c0.161,0.192,0.261,0.412,0.317,0.655c0.056,0.243,0.059,0.509-0.001,0.797
	c-0.062,0.288-0.188,0.596-0.393,0.918c-0.212,0.323-0.522,0.661-0.916,1.006c-1.204,1.041-2.201,1.423-2.973,1.572
	c-0.764,0.145-1.267,0.045-1.488-0.014c0,0,0.079-0.056,0.216-0.154c0.136-0.099,0.321-0.241,0.549-0.417
	c0.451-0.351,1.053-0.838,1.653-1.357c0.149-0.132,0.299-0.263,0.446-0.392c0.14-0.132,0.275-0.263,0.41-0.389
	c0.267-0.255,0.515-0.499,0.728-0.712c0.424-0.426,0.703-0.724,0.703-0.724s-0.288,0.286-0.726,0.695
	c-0.219,0.205-0.475,0.438-0.748,0.683c-0.276,0.245-0.563,0.499-0.876,0.748c-0.616,0.497-1.235,0.963-1.699,1.297
	c-0.23,0.165-0.424,0.302-0.559,0.399c-0.136,0.093-0.214,0.147-0.214,0.147c0.019-0.233,0.099-0.738,0.474-1.432
	c0.095-0.174,0.205-0.36,0.339-0.558c0.122-0.199,0.266-0.408,0.434-0.629c0.337-0.443,0.771-0.934,1.33-1.475
	c0.721-0.72,1.304-1.093,1.799-1.173C84.725,42.84,85.118,43.048,85.427,43.433z"/>
<path fill="#6A6A6A" d="M73.11,41.234c-0.128,0.28-0.123,0.552,0.1,0.806c0.119,0.126,0.27,0.253,0.491,0.376
	c0.221,0.123,0.508,0.243,0.873,0.361c0.554,0.181,1.05,0.305,1.486,0.383c0.425,0.079,0.793,0.11,1.104,0.108
	c0.623-0.002,1.019-0.138,1.188-0.217c0,0-0.068-0.032-0.188-0.088c-0.121-0.055-0.285-0.135-0.503-0.224
	c-0.423-0.178-0.987-0.404-1.545-0.609c-0.562-0.205-1.104-0.394-1.538-0.516c-0.43-0.125-0.712-0.2-0.712-0.2
	s0.286,0.066,0.72,0.177c0.441,0.109,0.996,0.277,1.563,0.463c0.566,0.186,1.138,0.392,1.569,0.557
	c0.436,0.163,0.708,0.284,0.708,0.284c-0.012-0.044-0.029-0.101-0.055-0.168c-0.03-0.067-0.07-0.144-0.121-0.229
	c-0.103-0.171-0.25-0.375-0.464-0.591c-0.215-0.216-0.492-0.444-0.854-0.66c-0.379-0.211-0.843-0.407-1.403-0.564
	c-0.746-0.208-1.284-0.2-1.67-0.082C73.474,40.724,73.239,40.956,73.11,41.234z"/>
<path fill="#8C8B8B" d="M83.819,37.218c0.342,0.314,0.561,0.754,0.547,1.32c-0.009,0.283-0.067,0.596-0.212,0.938
	c-0.152,0.345-0.38,0.719-0.693,1.115c-0.477,0.6-0.938,1.033-1.362,1.353c-0.433,0.319-0.84,0.528-1.187,0.666
	c-0.7,0.271-1.198,0.268-1.417,0.25c0,0,0.065-0.067,0.178-0.185c0.115-0.118,0.274-0.288,0.455-0.494
	c0.366-0.412,0.85-0.981,1.324-1.579c0.487-0.599,0.919-1.216,1.246-1.695c0.328-0.478,0.541-0.81,0.541-0.81
	s-0.225,0.321-0.568,0.785c-0.345,0.466-0.788,1.062-1.296,1.644c-0.494,0.58-0.996,1.131-1.376,1.53
	c-0.191,0.2-0.346,0.363-0.461,0.477c-0.117,0.115-0.186,0.179-0.186,0.179c-0.001-0.113-0.012-0.293,0.009-0.535
	c0.023-0.241,0.077-0.545,0.191-0.908c0.249-0.733,0.651-1.674,1.529-2.896c0.296-0.409,0.544-0.721,0.796-0.958
	c0.249-0.235,0.486-0.388,0.712-0.47C83.043,36.782,83.455,36.908,83.819,37.218z"/>
<path fill="#6A6A6A" d="M71.662,37.117c-0.071,0.289-0.018,0.549,0.24,0.753c0.136,0.1,0.298,0.196,0.532,0.274
	c0.232,0.079,0.526,0.142,0.896,0.19c0.558,0.075,1.05,0.105,1.477,0.101c0.42-0.001,0.773-0.037,1.069-0.095
	c0.591-0.114,0.94-0.313,1.087-0.418c0,0-0.07-0.019-0.193-0.049c-0.124-0.031-0.296-0.077-0.518-0.123
	c-0.434-0.094-1.009-0.208-1.576-0.305c-0.569-0.095-1.116-0.18-1.551-0.221c-0.43-0.044-0.711-0.066-0.711-0.066
	s0.284,0.013,0.715,0.043c0.439,0.027,0.994,0.091,1.566,0.167c0.57,0.077,1.149,0.171,1.588,0.25
	c0.441,0.077,0.723,0.144,0.723,0.144c-0.021-0.039-0.045-0.091-0.083-0.149c-0.039-0.058-0.093-0.125-0.156-0.196
	c-0.128-0.144-0.305-0.311-0.545-0.479c-0.241-0.167-0.546-0.335-0.926-0.477c-0.396-0.133-0.872-0.24-1.434-0.291
	c-0.746-0.067-1.255,0.033-1.602,0.213C71.914,36.566,71.734,36.828,71.662,37.117z"/>
<path fill="#8C8B8B" d="M81.118,31.432c0.38,0.236,0.664,0.612,0.75,1.148c0.039,0.268,0.039,0.572-0.041,0.923
	c-0.083,0.354-0.231,0.745-0.46,1.176c-0.345,0.652-0.705,1.144-1.053,1.523c-0.352,0.38-0.699,0.65-1.004,0.841
	c-0.616,0.383-1.087,0.469-1.299,0.492c0,0,0.05-0.075,0.135-0.207c0.089-0.133,0.209-0.323,0.343-0.55
	c0.273-0.456,0.63-1.081,0.977-1.731c0.355-0.653,0.658-1.314,0.883-1.824c0.228-0.509,0.373-0.86,0.373-0.86
	s-0.157,0.343-0.401,0.842c-0.246,0.5-0.564,1.144-0.941,1.783c-0.367,0.637-0.745,1.248-1.033,1.695
	c-0.146,0.223-0.265,0.406-0.353,0.535c-0.092,0.129-0.143,0.203-0.143,0.203c-0.047-0.214-0.162-0.675-0.068-1.404
	c0.104-0.739,0.323-1.703,0.94-3.012c0.209-0.439,0.396-0.78,0.592-1.046c0.195-0.266,0.394-0.452,0.597-0.57
	C80.309,31.156,80.728,31.202,81.118,31.432z"/>
<path fill="#6A6A6A" d="M69.466,33.293c-0.014,0.289,0.082,0.528,0.365,0.679c0.07,0.038,0.154,0.069,0.245,0.098
	c0.091,0.029,0.195,0.053,0.312,0.07c0.233,0.035,0.524,0.045,0.883,0.028c1.086-0.052,1.886-0.233,2.418-0.445
	c0.538-0.212,0.834-0.465,0.954-0.59c0,0-0.275-0.024-0.706-0.034c-0.431-0.013-0.993-0.021-1.549-0.014
	c-0.555,0.007-1.093,0.025-1.513,0.061c-0.412,0.035-0.687,0.059-0.687,0.059s0.274-0.032,0.687-0.081
	c0.205-0.021,0.455-0.05,0.71-0.067c0.255-0.018,0.53-0.034,0.809-0.048c0.554-0.026,1.118-0.038,1.546-0.04
	c0.216,0,0.395,0,0.521,0c0.127,0,0.195,0.004,0.195,0.004c-0.103-0.134-0.378-0.406-0.893-0.642
	c-0.26-0.115-0.574-0.224-0.965-0.289c-0.398-0.058-0.868-0.077-1.408-0.03c-0.72,0.066-1.187,0.248-1.483,0.479
	C69.608,32.725,69.483,33.006,69.466,33.293z"/>
<path fill="#8C8B8B" d="M77.443,26.264c0.398,0.157,0.732,0.461,0.905,0.951c0.085,0.245,0.133,0.536,0.122,0.876
	c-0.02,0.348-0.091,0.744-0.233,1.192c-0.43,1.353-1.013,2.119-1.53,2.6c-0.515,0.472-0.945,0.638-1.141,0.697
	c0,0,0.141-0.32,0.314-0.799c0.178-0.48,0.408-1.136,0.621-1.812c0.226-0.682,0.391-1.355,0.521-1.878
	c0.125-0.521,0.203-0.877,0.203-0.877s-0.09,0.352-0.234,0.865c-0.071,0.257-0.159,0.555-0.256,0.868
	c-0.049,0.157-0.1,0.318-0.15,0.482c-0.058,0.166-0.116,0.333-0.174,0.5c-0.236,0.667-0.49,1.313-0.683,1.788
	c-0.101,0.235-0.183,0.432-0.239,0.569c-0.057,0.136-0.096,0.215-0.096,0.215c-0.092-0.188-0.274-0.61-0.314-1.316
	c-0.011-0.177-0.014-0.372-0.005-0.585c0.008-0.215,0.014-0.437,0.041-0.686c0.048-0.496,0.152-1.072,0.33-1.744
	c0.122-0.451,0.24-0.807,0.382-1.092c0.139-0.286,0.295-0.496,0.466-0.642C76.633,26.144,77.034,26.115,77.443,26.264z"/>
<path fill="#6A6A6A" d="M66.592,29.897c0.073,0.561,0.544,0.826,1.867,0.523c1.019-0.234,1.744-0.547,2.217-0.846
	c0.472-0.297,0.706-0.587,0.799-0.728c0,0-0.068,0.007-0.188,0.024c-0.119,0.018-0.29,0.043-0.494,0.073
	c-0.407,0.062-0.942,0.152-1.464,0.255c-0.262,0.05-0.52,0.104-0.762,0.156c-0.24,0.056-0.471,0.115-0.665,0.164
	c-0.385,0.103-0.64,0.172-0.64,0.172s0.254-0.077,0.637-0.193c0.194-0.056,0.422-0.12,0.662-0.188
	c0.241-0.062,0.499-0.124,0.757-0.184c1.039-0.244,2.138-0.428,2.138-0.428c-0.127-0.104-0.432-0.318-0.959-0.451
	c-0.268-0.064-0.578-0.118-0.966-0.105c-0.389,0.015-0.835,0.076-1.339,0.215c-0.672,0.184-1.083,0.436-1.325,0.705
	C66.627,29.332,66.556,29.621,66.592,29.897z"/>
<path fill="#8C8B8B" d="M72.932,21.865c0.4,0.078,0.769,0.308,1.013,0.74c0.122,0.217,0.217,0.483,0.265,0.806
	c0.048,0.325,0.042,0.717-0.015,1.164c-0.177,1.355-0.59,2.183-0.99,2.723c-0.402,0.538-0.779,0.771-0.955,0.861
	c0,0,0.02-0.082,0.045-0.222c0.026-0.141,0.063-0.343,0.107-0.584c0.085-0.487,0.188-1.148,0.273-1.825
	c0.021-0.17,0.042-0.34,0.062-0.507c0.016-0.166,0.03-0.329,0.043-0.485c0.026-0.316,0.047-0.614,0.063-0.871
	c0.032-0.515,0.044-0.865,0.044-0.865s-0.025,0.347-0.074,0.858c-0.024,0.255-0.057,0.551-0.093,0.865
	c-0.038,0.314-0.078,0.643-0.138,0.982c-0.213,1.348-0.514,2.612-0.514,2.612c-0.123-0.159-0.365-0.53-0.527-1.192
	c-0.039-0.165-0.077-0.349-0.104-0.554c-0.036-0.198-0.065-0.415-0.083-0.653c-0.04-0.477-0.04-1.041,0.014-1.708
	c0.04-0.448,0.089-0.801,0.174-1.097c0.083-0.293,0.197-0.52,0.333-0.687C72.145,21.895,72.516,21.8,72.932,21.865z"/>
<path fill="#6A6A6A" d="M66.43,24.036c-0.348,0.521-0.261,1.196,0.827,1.996c0.398,0.326,0.767,0.563,1.105,0.736
	c0.082,0.044,0.168,0.081,0.245,0.12c0.076,0.04,0.152,0.075,0.225,0.108c0.146,0.064,0.284,0.115,0.412,0.155
	c0.517,0.16,0.89,0.146,1.054,0.124c0,0-0.194-0.187-0.487-0.466c-0.148-0.14-0.319-0.304-0.502-0.479
	c-0.048-0.043-0.093-0.087-0.142-0.132c-0.048-0.042-0.099-0.085-0.15-0.128c-0.101-0.086-0.205-0.173-0.308-0.261
	c-0.208-0.175-0.413-0.349-0.607-0.513c-0.098-0.083-0.191-0.162-0.28-0.236c-0.094-0.069-0.182-0.135-0.261-0.195
	c-0.328-0.244-0.544-0.405-0.544-0.405s0.222,0.154,0.557,0.385c0.083,0.058,0.174,0.121,0.27,0.188
	c0.093,0.072,0.189,0.147,0.289,0.226c0.198,0.157,0.413,0.324,0.626,0.492c0.106,0.083,0.213,0.167,0.319,0.25
	c0.051,0.041,0.103,0.083,0.156,0.123c0.048,0.044,0.096,0.086,0.145,0.128c0.189,0.168,0.367,0.327,0.52,0.461
	c0.305,0.271,0.508,0.45,0.508,0.45c0.008-0.165-0.006-0.534-0.228-1.054c-0.057-0.13-0.125-0.27-0.211-0.417
	c-0.043-0.073-0.088-0.149-0.139-0.227c-0.055-0.075-0.114-0.15-0.177-0.228c-0.254-0.309-0.585-0.643-1.012-0.991
	c-0.586-0.441-1.064-0.616-1.421-0.625C66.857,23.61,66.604,23.777,66.43,24.036z"/>
<path fill="#8C8B8B" d="M55.552,83.805c0,0-0.045-0.065-0.13-0.193c-0.089-0.126-0.207-0.322-0.388-0.558
	c-0.089-0.119-0.189-0.254-0.298-0.399c-0.057-0.073-0.114-0.148-0.174-0.229c-0.063-0.077-0.13-0.156-0.199-0.238
	c-0.141-0.164-0.285-0.347-0.448-0.53c-0.169-0.182-0.347-0.374-0.535-0.578c-0.775-0.791-1.782-1.7-3.076-2.543
	c-1.292-0.843-2.857-1.645-4.676-2.188c-0.113-0.034-0.228-0.069-0.341-0.104c-0.116-0.03-0.233-0.06-0.35-0.09
	c-0.229-0.057-0.461-0.116-0.695-0.177c-0.216-0.053-0.434-0.107-0.655-0.162c-0.22-0.053-0.442-0.108-0.663-0.176
	c-0.443-0.133-0.896-0.257-1.346-0.419c-0.226-0.077-0.453-0.155-0.683-0.233c-0.225-0.088-0.453-0.176-0.681-0.265
	c-1.833-0.711-3.681-1.679-5.467-2.873c-0.886-0.606-1.77-1.252-2.605-1.98c-0.43-0.347-0.827-0.739-1.243-1.113
	c-0.393-0.4-0.805-0.784-1.18-1.206c-0.776-0.823-1.495-1.711-2.172-2.634c-0.685-0.917-1.29-1.896-1.861-2.894l-0.414-0.759
	c-0.133-0.254-0.254-0.516-0.383-0.771l-0.19-0.387l-0.174-0.395c-0.115-0.264-0.236-0.523-0.344-0.79
	c-0.432-1.062-0.803-2.143-1.111-3.235c-0.078-0.271-0.141-0.549-0.211-0.822c-0.07-0.274-0.139-0.547-0.191-0.823
	c-0.056-0.275-0.112-0.55-0.169-0.824c-0.045-0.276-0.09-0.552-0.135-0.827l-0.067-0.411l-0.049-0.413
	c-0.032-0.273-0.064-0.547-0.096-0.82c-0.021-0.274-0.041-0.546-0.062-0.819c-0.021-0.272-0.042-0.543-0.045-0.814
	c-0.063-2.163,0.054-4.267,0.414-6.223c0.354-1.957,0.886-3.767,1.496-5.395c1.281-3.235,2.876-5.695,4.127-7.292
	c0.076-0.101,0.147-0.203,0.223-0.296c0.078-0.092,0.153-0.181,0.227-0.268c0.146-0.172,0.282-0.335,0.409-0.486
	c0.256-0.3,0.464-0.564,0.659-0.755c0.375-0.396,0.575-0.606,0.575-0.606s-0.206,0.21-0.593,0.605
	c-0.201,0.191-0.415,0.457-0.68,0.757c-0.132,0.151-0.273,0.313-0.424,0.486c-0.076,0.088-0.154,0.176-0.234,0.269
	c-0.074,0.097-0.151,0.196-0.23,0.298c-1.29,1.606-2.957,4.083-4.291,7.376c-0.653,1.65-1.199,3.501-1.576,5.502
	c-0.042,0.251-0.084,0.503-0.126,0.758c-0.021,0.128-0.043,0.255-0.064,0.383c-0.023,0.128-0.043,0.256-0.054,0.387
	c-0.054,0.52-0.108,1.046-0.162,1.578c-0.033,0.534-0.046,1.075-0.07,1.621c-0.004,0.136-0.014,0.273-0.013,0.41
	c0.002,0.137,0.004,0.275,0.006,0.413c0.004,0.276,0.007,0.553,0.011,0.831c0.017,0.278,0.033,0.557,0.049,0.837l0.024,0.42
	l0.042,0.421c0.029,0.281,0.057,0.563,0.085,0.847c0.041,0.281,0.081,0.563,0.123,0.849l0.062,0.425l0.081,0.424
	c0.055,0.283,0.104,0.568,0.164,0.852c0.136,0.564,0.251,1.135,0.42,1.696c0.304,1.13,0.698,2.244,1.147,3.341
	c0.442,1.1,0.982,2.163,1.559,3.204l0.448,0.774l0.477,0.756c0.156,0.255,0.326,0.496,0.497,0.741
	c0.173,0.241,0.332,0.493,0.515,0.727c0.701,0.96,1.472,1.859,2.269,2.725c0.805,0.854,1.66,1.649,2.536,2.397
	c0.225,0.182,0.448,0.362,0.671,0.541c0.112,0.09,0.221,0.183,0.335,0.268l0.344,0.253c0.23,0.168,0.454,0.342,0.688,0.503
	c0.233,0.158,0.467,0.314,0.698,0.473c0.939,0.612,1.889,1.176,2.854,1.658c0.958,0.499,1.934,0.909,2.891,1.287
	c0.966,0.353,1.916,0.675,2.855,0.915c0.471,0.126,0.934,0.25,1.388,0.371c0.229,0.06,0.448,0.143,0.669,0.213
	c0.11,0.035,0.22,0.071,0.329,0.108c0.106,0.04,0.213,0.082,0.319,0.122c1.702,0.64,3.135,1.517,4.307,2.402
	c1.166,0.9,2.062,1.83,2.734,2.639c0.165,0.209,0.328,0.396,0.467,0.587c0.139,0.189,0.269,0.367,0.389,0.532
	c0.232,0.337,0.418,0.631,0.57,0.869c0.283,0.488,0.435,0.749,0.435,0.749s0.122-0.381,0.235-0.778
	c0.056-0.2,0.111-0.404,0.148-0.556C55.528,83.905,55.552,83.805,55.552,83.805z"/>
<path fill="#6A6A6A" d="M42.003,68.681c0.351-0.114,0.682-0.099,0.95,0.21c0.133,0.156,0.259,0.367,0.373,0.663
	c0.113,0.295,0.212,0.68,0.306,1.156c0.294,1.427,0.359,2.551,0.281,3.339c-0.074,0.795-0.289,1.283-0.407,1.49
	c0,0-0.136-0.358-0.311-0.919c-0.087-0.277-0.186-0.601-0.283-0.942c-0.047-0.173-0.096-0.35-0.146-0.528
	c-0.044-0.182-0.09-0.369-0.135-0.555c-0.176-0.742-0.321-1.463-0.406-2.021c-0.086-0.552-0.131-0.914-0.131-0.914
	s0.033,0.366,0.103,0.925c0.067,0.563,0.187,1.296,0.338,2.045c0.146,0.754,0.337,1.488,0.492,2.052
	c0.081,0.281,0.149,0.517,0.196,0.68c0.051,0.163,0.079,0.257,0.079,0.257c-0.212-0.087-0.68-0.329-1.172-0.92
	c-0.243-0.305-0.491-0.688-0.706-1.181c-0.209-0.506-0.391-1.109-0.494-1.838c-0.131-0.987-0.024-1.667,0.187-2.14
	C41.33,69.067,41.65,68.803,42.003,68.681z"/>
<path fill="#8C8B8B" d="M35.243,81.66c0.182,0.248,0.41,0.464,0.687,0.631c0.138,0.082,0.289,0.152,0.451,0.207
	c0.163,0.054,0.341,0.084,0.529,0.103c0.377,0.033,0.801-0.001,1.273-0.13c0.475-0.14,0.995-0.369,1.552-0.709
	c0.847-0.522,1.47-1.073,1.934-1.579c0.463-0.506,0.776-0.997,0.99-1.427c0.425-0.86,0.474-1.496,0.476-1.78
	c0,0-0.367,0.305-0.94,0.725c-0.288,0.212-0.629,0.457-1.004,0.716s-0.78,0.515-1.197,0.775c-0.836,0.527-1.703,0.991-2.378,1.338
	c-0.337,0.177-0.622,0.313-0.82,0.406c-0.201,0.094-0.315,0.146-0.315,0.146s0.112-0.057,0.308-0.157
	c0.194-0.099,0.47-0.244,0.799-0.431c0.329-0.186,0.706-0.402,1.101-0.639c0.197-0.121,0.398-0.242,0.603-0.373
	c0.202-0.131,0.408-0.267,0.613-0.4c0.407-0.273,0.803-0.548,1.166-0.81c0.366-0.269,0.698-0.528,0.979-0.747
	c0.28-0.222,0.508-0.408,0.666-0.539c0.157-0.129,0.247-0.209,0.247-0.209c-0.142-0.023-0.37-0.057-0.683-0.051
	c-0.313,0.005-0.712,0.051-1.188,0.136c-0.477,0.095-1.042,0.259-1.691,0.493c-0.326,0.12-0.677,0.27-1.052,0.438
	c-0.372,0.163-0.771,0.355-1.197,0.577c-0.571,0.301-1.023,0.576-1.367,0.853c-0.345,0.277-0.582,0.552-0.724,0.826
	C34.777,80.596,34.88,81.148,35.243,81.66z"/>
<path fill="#6A6A6A" d="M38.336,66.893c0.367-0.06,0.665,0.047,0.881,0.374c0.105,0.169,0.186,0.4,0.24,0.711
	c0.058,0.304,0.091,0.68,0.097,1.155c0.006,0.722-0.015,1.34-0.072,1.879s-0.148,0.994-0.257,1.368
	c-0.217,0.75-0.509,1.176-0.659,1.353c0,0-0.061-0.378-0.132-0.936c-0.075-0.552-0.14-1.307-0.18-2.04
	c-0.045-0.726-0.041-1.472-0.033-2.007c0.008-0.538,0.032-0.9,0.032-0.9s-0.036,0.364-0.061,0.904
	c-0.014,0.271-0.026,0.589-0.034,0.936c-0.008,0.348-0.011,0.718-0.001,1.084c0.016,0.731,0.052,1.497,0.106,2.052
	c0.051,0.561,0.097,0.939,0.097,0.939c-0.188-0.123-0.599-0.423-0.957-1.09c-0.09-0.165-0.179-0.349-0.26-0.556
	c-0.079-0.209-0.148-0.446-0.206-0.702c-0.058-0.258-0.104-0.537-0.133-0.842c-0.027-0.308-0.033-0.646-0.018-1.006
	c0.02-0.479,0.086-0.878,0.18-1.208c0.097-0.33,0.225-0.596,0.367-0.803c0.144-0.207,0.303-0.358,0.472-0.463
	C37.974,66.987,38.154,66.922,38.336,66.893z"/>
<path fill="#8C8B8B" d="M29.592,78.118c0.063,0.138,0.138,0.27,0.227,0.392c0.089,0.122,0.194,0.233,0.312,0.335
	c0.235,0.203,0.525,0.363,0.875,0.467c0.351,0.102,0.768,0.132,1.239,0.09c0.236-0.021,0.486-0.061,0.754-0.126
	c0.268-0.068,0.552-0.159,0.848-0.274c0.451-0.175,0.847-0.363,1.197-0.557c0.353-0.198,0.661-0.404,0.929-0.607
	c0.537-0.408,0.92-0.813,1.203-1.185c0.56-0.743,0.722-1.344,0.776-1.613c0,0-0.401,0.213-1.029,0.521
	c-0.159,0.076-0.33,0.158-0.511,0.247c-0.183,0.081-0.375,0.167-0.575,0.255c-0.402,0.176-0.839,0.359-1.285,0.535
	c-0.442,0.171-0.89,0.33-1.319,0.477c-0.427,0.146-0.838,0.281-1.184,0.38c-0.698,0.206-1.18,0.33-1.18,0.33s0.473-0.14,1.159-0.37
	c0.341-0.11,0.742-0.256,1.164-0.418c0.42-0.162,0.862-0.339,1.295-0.521c0.876-0.38,1.712-0.784,2.327-1.107
	c0.617-0.328,1.011-0.556,1.011-0.556c-0.131-0.05-0.346-0.115-0.647-0.163c-0.302-0.052-0.681-0.098-1.158-0.086
	c-0.119,0.003-0.245,0.009-0.375,0.018c-0.129,0.006-0.264,0.015-0.405,0.025c-0.283,0.026-0.591,0.068-0.926,0.131
	c-0.337,0.063-0.689,0.128-1.078,0.225c-0.385,0.095-0.803,0.214-1.249,0.352c-1.182,0.354-1.925,0.764-2.289,1.242
	C29.331,77.031,29.338,77.567,29.592,78.118z"/>
<path fill="#6A6A6A" d="M35.015,64.449c0.36,0.013,0.645,0.15,0.782,0.52c0.071,0.184,0.115,0.412,0.115,0.718
	c0.003,0.301-0.043,0.683-0.113,1.13c-0.111,0.683-0.248,1.278-0.401,1.788c-0.151,0.505-0.315,0.92-0.486,1.258
	c-0.338,0.676-0.696,1.03-0.872,1.174c0,0,0.002-0.093,0.007-0.254c0.005-0.159,0.014-0.387,0.033-0.662
	c0.037-0.556,0.092-1.27,0.187-1.983c0.099-0.721,0.21-1.409,0.318-1.93c0.108-0.521,0.189-0.858,0.189-0.858
	s-0.093,0.335-0.217,0.855c-0.127,0.523-0.263,1.209-0.385,1.929c-0.063,0.359-0.113,0.715-0.155,1.051
	c-0.043,0.338-0.078,0.654-0.105,0.931c-0.027,0.272-0.048,0.506-0.061,0.667c-0.011,0.161-0.016,0.252-0.016,0.252
	c-0.165-0.143-0.484-0.529-0.724-1.212c-0.111-0.351-0.197-0.78-0.223-1.289c-0.023-0.51,0.03-1.119,0.176-1.796
	c0.206-0.913,0.534-1.489,0.877-1.835C34.288,64.555,34.66,64.434,35.015,64.449z"/>
<path fill="#8C8B8B" d="M24.699,73.653c0.148,0.563,0.497,1.072,1.138,1.377c0.625,0.319,1.548,0.424,2.754,0.202
	c0.926-0.182,1.653-0.447,2.235-0.737s1.026-0.617,1.361-0.92c0.671-0.612,0.932-1.155,1.032-1.404c0,0-0.107,0.034-0.295,0.094
	c-0.189,0.061-0.458,0.139-0.782,0.225c-0.647,0.174-1.542,0.401-2.444,0.566c-0.452,0.086-0.915,0.167-1.349,0.232
	c-0.43,0.061-0.839,0.111-1.191,0.151c-0.353,0.041-0.651,0.071-0.86,0.092c-0.207,0.015-0.326,0.024-0.326,0.024
	s0.117-0.013,0.322-0.036c0.208-0.028,0.501-0.068,0.851-0.121c0.35-0.053,0.753-0.118,1.179-0.194
	c0.427-0.076,0.887-0.177,1.334-0.276c0.449-0.104,0.886-0.205,1.3-0.32c0.415-0.114,0.794-0.226,1.115-0.324
	c0.323-0.099,0.586-0.183,0.77-0.245c0.186-0.063,0.292-0.101,0.292-0.101c-0.12-0.064-0.31-0.174-0.586-0.279
	c-0.138-0.051-0.298-0.102-0.48-0.15c-0.184-0.045-0.388-0.089-0.612-0.132c-0.905-0.161-2.188-0.203-3.978,0.007
	c-0.597,0.071-1.096,0.177-1.492,0.308c-0.395,0.129-0.696,0.293-0.912,0.489C24.645,72.568,24.546,73.094,24.699,73.653z"/>
<path fill="#6A6A6A" d="M32.168,61.416c0.171,0.037,0.316,0.105,0.426,0.211c0.114,0.103,0.198,0.239,0.235,0.427
	c0.039,0.186,0.03,0.424-0.021,0.715c-0.048,0.288-0.146,0.637-0.299,1.058c-0.238,0.643-0.46,1.181-0.695,1.638
	c-0.232,0.456-0.468,0.826-0.691,1.119c-0.446,0.587-0.849,0.86-1.041,0.965c0,0,0.076-0.354,0.203-0.871
	c0.121-0.512,0.316-1.199,0.528-1.863c0.205-0.657,0.452-1.313,0.64-1.79c0.096-0.236,0.177-0.432,0.232-0.569
	c0.058-0.137,0.091-0.215,0.091-0.215s-0.036,0.076-0.098,0.213c-0.061,0.137-0.148,0.332-0.252,0.565
	c-0.203,0.472-0.477,1.123-0.706,1.776c-0.232,0.653-0.459,1.343-0.598,1.85c-0.146,0.512-0.234,0.861-0.234,0.861
	c-0.123-0.174-0.385-0.577-0.476-1.289c-0.047-0.353-0.064-0.769,0.012-1.269c0.074-0.498,0.207-1.051,0.48-1.686
	c0.358-0.841,0.76-1.327,1.15-1.6C31.446,61.393,31.827,61.339,32.168,61.416z"/>
<path fill="#8C8B8B" d="M20.705,68.415c0.042,0.562,0.297,1.098,0.84,1.508c0.558,0.396,1.39,0.68,2.597,0.664
	c0.454-0.006,0.863-0.036,1.238-0.09c0.377-0.058,0.717-0.135,1.022-0.222c0.61-0.179,1.085-0.403,1.459-0.634
	c0.746-0.464,1.094-0.937,1.234-1.155c0,0-0.426,0.052-1.083,0.11c-0.166,0.013-0.344,0.026-0.534,0.042
	c-0.188,0.01-0.387,0.021-0.592,0.033c-0.412,0.017-0.857,0.03-1.309,0.036c-0.894,0.009-1.798-0.03-2.492-0.072
	c-0.68-0.05-1.143-0.101-1.143-0.101s0.461,0.034,1.139,0.06c0.687,0.019,1.594,0.021,2.479-0.015
	c0.901-0.042,1.768-0.111,2.42-0.19c0.655-0.079,1.08-0.146,1.08-0.146c-0.099-0.087-0.266-0.222-0.515-0.364
	c-0.25-0.145-0.565-0.317-0.989-0.468c-0.845-0.309-2.046-0.583-3.801-0.685c-1.167-0.07-1.946,0.042-2.429,0.345
	C20.845,67.371,20.669,67.847,20.705,68.415z"/>
<path fill="#6A6A6A" d="M29.895,57.896c0.32,0.132,0.516,0.358,0.52,0.73c0.007,0.185-0.036,0.408-0.137,0.678
	c-0.1,0.271-0.263,0.591-0.476,0.963c-0.328,0.565-0.649,1.047-0.956,1.442c-0.303,0.395-0.588,0.702-0.853,0.941
	c-0.527,0.478-0.963,0.668-1.166,0.733c0,0,0.034-0.079,0.092-0.219c0.058-0.138,0.143-0.335,0.254-0.573
	c0.219-0.474,0.513-1.089,0.832-1.683c0.327-0.604,0.665-1.178,0.925-1.6c0.271-0.426,0.455-0.698,0.455-0.698
	s-0.195,0.27-0.48,0.687c-0.277,0.416-0.635,0.982-0.982,1.574c-0.347,0.589-0.658,1.189-0.895,1.657
	c-0.118,0.232-0.215,0.431-0.279,0.567c-0.064,0.137-0.1,0.215-0.1,0.215c-0.097-0.181-0.245-0.63-0.226-1.313
	c0.039-0.693,0.262-1.628,0.993-2.74c0.474-0.732,0.963-1.138,1.379-1.327C29.217,57.741,29.576,57.765,29.895,57.896z"/>
<path fill="#8C8B8B" d="M17.736,62.563c-0.03,0.271-0.015,0.55,0.07,0.814c0.089,0.268,0.24,0.526,0.464,0.766
	c0.112,0.122,0.242,0.238,0.392,0.347c0.153,0.108,0.329,0.209,0.524,0.302c0.391,0.186,0.862,0.339,1.432,0.44
	c0.874,0.148,1.601,0.159,2.21,0.103c0.609-0.06,1.111-0.196,1.508-0.349c0.797-0.309,1.212-0.695,1.384-0.88
	c0,0-0.106-0.008-0.291-0.021c-0.188-0.012-0.45-0.033-0.764-0.068c-0.314-0.032-0.685-0.074-1.086-0.128
	c-0.199-0.025-0.409-0.054-0.619-0.087c-0.209-0.036-0.421-0.072-0.633-0.108c-0.426-0.075-0.856-0.16-1.263-0.245
	c-0.405-0.086-0.774-0.18-1.098-0.263c-0.646-0.163-1.081-0.288-1.081-0.288s0.437,0.109,1.084,0.249
	c0.325,0.068,0.697,0.148,1.1,0.222c0.408,0.07,0.839,0.14,1.266,0.199c0.848,0.128,1.709,0.201,2.339,0.246
	c0.316,0.023,0.577,0.036,0.759,0.047c0.186,0.006,0.291,0.01,0.291,0.01c-0.082-0.099-0.212-0.258-0.42-0.442
	c-0.205-0.188-0.497-0.396-0.865-0.619c-0.366-0.226-0.837-0.45-1.412-0.675c-0.286-0.113-0.601-0.224-0.949-0.331
	c-0.35-0.107-0.733-0.21-1.14-0.313c-1.096-0.274-1.873-0.296-2.383-0.094C18.045,61.599,17.798,62.02,17.736,62.563z"/>
<path fill="#6A6A6A" d="M28.291,53.995c0.134,0.094,0.242,0.203,0.311,0.332c0.067,0.131,0.09,0.282,0.06,0.462
	c-0.07,0.361-0.316,0.819-0.877,1.461c-0.425,0.486-0.798,0.881-1.162,1.204c-0.359,0.321-0.691,0.565-0.987,0.747
	c-0.591,0.362-1.038,0.465-1.241,0.489c0,0,0.188-0.284,0.475-0.694c0.144-0.205,0.311-0.441,0.495-0.689
	c0.189-0.25,0.394-0.514,0.599-0.769c0.206-0.257,0.413-0.509,0.609-0.738c0.198-0.231,0.393-0.445,0.556-0.624
	c0.329-0.358,0.55-0.586,0.55-0.586s-0.23,0.222-0.572,0.571c-0.171,0.175-0.37,0.382-0.582,0.608
	c-0.204,0.225-0.42,0.469-0.635,0.718c-0.431,0.501-0.855,1.025-1.15,1.424c-0.303,0.399-0.5,0.677-0.5,0.677
	c-0.026-0.097-0.058-0.257-0.067-0.475c-0.004-0.108-0.003-0.23,0.007-0.366c0.016-0.138,0.041-0.289,0.081-0.452
	c0.081-0.328,0.205-0.7,0.436-1.113c0.233-0.413,0.55-0.86,0.986-1.323c0.601-0.622,1.12-0.918,1.554-1.026
	C27.669,53.726,28.02,53.81,28.291,53.995z"/>
<path fill="#8C8B8B" d="M15.879,56.303c-0.075,0.253-0.104,0.516-0.073,0.784c0.017,0.134,0.046,0.271,0.095,0.405
	c0.051,0.134,0.12,0.27,0.207,0.402c0.174,0.267,0.421,0.53,0.753,0.776c0.336,0.244,0.77,0.471,1.292,0.669
	c0.789,0.299,1.492,0.435,2.085,0.487c0.594,0.052,1.087,0.016,1.494-0.06c0.812-0.149,1.278-0.445,1.476-0.59
	c0,0-0.391-0.101-0.985-0.273c-0.602-0.169-1.378-0.43-2.171-0.724c-0.198-0.074-0.396-0.15-0.591-0.224
	c-0.192-0.08-0.381-0.157-0.563-0.233c-0.366-0.154-0.708-0.307-1.004-0.438c-0.296-0.134-0.543-0.25-0.709-0.334
	c-0.169-0.085-0.265-0.133-0.265-0.133s0.097,0.045,0.268,0.121c0.168,0.078,0.417,0.185,0.715,0.307
	c0.299,0.123,0.646,0.261,1.015,0.401s0.76,0.285,1.163,0.416c0.401,0.133,0.797,0.257,1.168,0.368
	c0.185,0.054,0.363,0.105,0.532,0.155c0.172,0.044,0.334,0.088,0.485,0.127c0.6,0.153,0.994,0.238,0.994,0.238
	c-0.109-0.222-0.412-0.683-1.034-1.239c-0.158-0.138-0.338-0.282-0.546-0.43c-0.2-0.15-0.424-0.305-0.679-0.462
	c-0.254-0.158-0.538-0.318-0.854-0.48c-0.307-0.165-0.647-0.332-1.023-0.5c-1.009-0.449-1.731-0.606-2.253-0.503
	C16.351,55.439,16.024,55.801,15.879,56.303z"/>
<path fill="#6A6A6A" d="M27.419,49.824c0.115,0.114,0.196,0.238,0.231,0.377c0.041,0.137,0.041,0.288-0.019,0.455
	c-0.058,0.167-0.172,0.351-0.355,0.557c-0.182,0.205-0.415,0.431-0.735,0.687c-0.973,0.782-1.767,1.243-2.395,1.477
	c-0.625,0.239-1.071,0.256-1.269,0.243c0,0,0.226-0.236,0.568-0.575c0.35-0.34,0.828-0.781,1.304-1.195
	c0.235-0.208,0.483-0.412,0.716-0.599s0.45-0.355,0.636-0.498c0.187-0.14,0.342-0.257,0.45-0.338c0.11-0.08,0.171-0.126,0.171-0.126
	s-0.257,0.172-0.64,0.446c-0.38,0.273-0.902,0.653-1.396,1.053c-0.493,0.399-0.983,0.824-1.349,1.152
	c-0.186,0.165-0.326,0.302-0.431,0.4c-0.103,0.099-0.162,0.154-0.162,0.154c-0.006-0.098-0.017-0.254,0.019-0.463
	c0.036-0.21,0.104-0.47,0.232-0.767c0.065-0.148,0.143-0.306,0.243-0.47c0.104-0.165,0.228-0.337,0.373-0.514
	c0.294-0.354,0.658-0.722,1.173-1.092c0.677-0.488,1.221-0.683,1.653-0.709C26.869,49.453,27.19,49.596,27.419,49.824z"/>
<path fill="#8C8B8B" d="M15.189,49.854c-0.227,0.449-0.29,0.978-0.062,1.544c0.121,0.281,0.313,0.573,0.588,0.863
	c0.138,0.146,0.296,0.291,0.477,0.436c0.184,0.145,0.396,0.286,0.628,0.425c0.712,0.421,1.334,0.68,1.893,0.834
	c0.56,0.154,1.038,0.207,1.438,0.209c0.801,0.003,1.297-0.194,1.51-0.297c0,0-0.359-0.164-0.896-0.434
	c-0.524-0.272-1.23-0.654-1.936-1.073c-0.687-0.42-1.378-0.873-1.896-1.23c-0.503-0.355-0.839-0.61-0.839-0.61
	s0.343,0.24,0.857,0.577c0.523,0.336,1.23,0.763,1.93,1.156c0.708,0.395,1.432,0.751,1.964,1.006
	c0.265,0.128,0.493,0.229,0.653,0.298c0.159,0.068,0.25,0.109,0.25,0.109c-0.079-0.23-0.254-0.729-0.765-1.364
	c-0.497-0.643-1.311-1.426-2.621-2.325c-0.445-0.3-0.826-0.519-1.163-0.661c-0.339-0.142-0.635-0.207-0.893-0.204
	C15.793,49.12,15.424,49.405,15.189,49.854z"/>
<path fill="#6A6A6A" d="M27.311,45.512c0.184,0.259,0.234,0.536,0.055,0.835c-0.19,0.299-0.549,0.626-1.25,1.004
	c-1.055,0.578-1.92,0.876-2.549,0.989c-0.635,0.117-1.063,0.052-1.25,0.005c0,0,0.25-0.185,0.652-0.447
	c0.397-0.263,0.926-0.599,1.453-0.913c0.263-0.157,0.526-0.308,0.773-0.447c0.253-0.138,0.496-0.262,0.7-0.365
	c0.41-0.208,0.682-0.335,0.682-0.335s-0.277,0.12-0.696,0.314c-0.209,0.098-0.454,0.214-0.716,0.343
	c-0.253,0.13-0.521,0.273-0.792,0.421c-0.54,0.296-1.08,0.614-1.486,0.862c-0.203,0.126-0.372,0.231-0.491,0.305
	c-0.117,0.075-0.184,0.118-0.184,0.118c0.022-0.187,0.121-0.604,0.469-1.126c0.087-0.13,0.19-0.266,0.313-0.405
	c0.123-0.141,0.257-0.284,0.434-0.426c0.345-0.285,0.777-0.573,1.316-0.836c0.719-0.352,1.267-0.444,1.683-0.395
	C26.843,45.062,27.127,45.254,27.311,45.512z"/>
<path fill="#8C8B8B" d="M15.665,43.433c-0.16,0.192-0.259,0.412-0.316,0.655c-0.055,0.243-0.059,0.509,0.001,0.797
	c0.062,0.288,0.188,0.596,0.394,0.918c0.211,0.323,0.521,0.661,0.915,1.006c1.204,1.041,2.201,1.423,2.972,1.572
	c0.763,0.145,1.269,0.045,1.489-0.014c0,0-0.078-0.056-0.215-0.154c-0.137-0.099-0.322-0.241-0.549-0.417
	c-0.452-0.351-1.053-0.838-1.653-1.357c-0.149-0.132-0.298-0.263-0.446-0.392c-0.14-0.132-0.278-0.263-0.412-0.389
	c-0.266-0.255-0.514-0.499-0.726-0.712c-0.424-0.426-0.705-0.724-0.705-0.724s0.289,0.286,0.726,0.695
	c0.218,0.205,0.474,0.438,0.748,0.683c0.275,0.245,0.563,0.499,0.877,0.748c0.615,0.497,1.233,0.963,1.696,1.297
	c0.232,0.165,0.424,0.302,0.561,0.399c0.136,0.093,0.213,0.147,0.213,0.147c-0.019-0.233-0.099-0.738-0.474-1.432
	c-0.093-0.174-0.206-0.36-0.339-0.558c-0.122-0.199-0.265-0.408-0.433-0.629c-0.336-0.443-0.771-0.934-1.332-1.475
	c-0.719-0.72-1.303-1.093-1.797-1.173C16.369,42.84,15.974,43.048,15.665,43.433z"/>
<path fill="#6A6A6A" d="M27.982,41.234c0.128,0.28,0.124,0.552-0.1,0.806c-0.118,0.126-0.268,0.253-0.49,0.376
	c-0.221,0.123-0.509,0.243-0.873,0.361c-0.555,0.181-1.05,0.305-1.485,0.383c-0.426,0.079-0.794,0.11-1.106,0.108
	c-0.624-0.002-1.018-0.138-1.188-0.217c0,0,0.068-0.032,0.188-0.088c0.121-0.055,0.286-0.135,0.502-0.224
	c0.425-0.178,0.988-0.404,1.546-0.609c0.561-0.205,1.102-0.394,1.54-0.516c0.427-0.125,0.71-0.2,0.71-0.2s-0.286,0.066-0.719,0.177
	c-0.441,0.109-0.996,0.277-1.563,0.463c-0.567,0.186-1.138,0.392-1.569,0.557c-0.436,0.163-0.708,0.284-0.708,0.284
	c0.012-0.044,0.03-0.101,0.056-0.168c0.03-0.067,0.07-0.144,0.121-0.229c0.103-0.171,0.251-0.375,0.464-0.591
	c0.214-0.216,0.491-0.444,0.853-0.66c0.379-0.211,0.841-0.407,1.402-0.564c0.748-0.208,1.285-0.2,1.672-0.082
	C27.619,40.724,27.854,40.956,27.982,41.234z"/>
<path fill="#8C8B8B" d="M17.274,37.218c-0.343,0.314-0.561,0.754-0.548,1.32c0.008,0.283,0.067,0.596,0.213,0.938
	c0.153,0.345,0.379,0.719,0.693,1.115c0.477,0.6,0.937,1.033,1.364,1.353c0.432,0.319,0.838,0.528,1.186,0.666
	c0.7,0.271,1.197,0.268,1.416,0.25c0,0-0.064-0.067-0.178-0.185s-0.275-0.288-0.455-0.494c-0.365-0.412-0.849-0.981-1.325-1.579
	c-0.486-0.599-0.917-1.216-1.245-1.695c-0.327-0.478-0.54-0.81-0.54-0.81s0.224,0.321,0.566,0.785
	c0.347,0.466,0.789,1.062,1.296,1.644c0.495,0.58,0.997,1.131,1.376,1.53c0.191,0.2,0.347,0.363,0.461,0.477
	c0.117,0.115,0.184,0.179,0.184,0.179c0.002-0.113,0.012-0.293-0.009-0.535c-0.022-0.241-0.076-0.545-0.191-0.908
	c-0.25-0.733-0.651-1.674-1.528-2.896c-0.297-0.409-0.544-0.721-0.797-0.958c-0.248-0.235-0.486-0.388-0.712-0.47
	C18.049,36.782,17.637,36.908,17.274,37.218z"/>
<path fill="#6A6A6A" d="M29.432,37.117c0.07,0.289,0.017,0.549-0.242,0.753c-0.134,0.1-0.298,0.196-0.532,0.274
	c-0.233,0.079-0.527,0.142-0.895,0.19c-0.559,0.075-1.051,0.105-1.478,0.101c-0.419-0.001-0.773-0.037-1.069-0.095
	c-0.591-0.114-0.94-0.313-1.087-0.418c0,0,0.07-0.019,0.193-0.049c0.124-0.031,0.297-0.077,0.517-0.123
	c0.435-0.094,1.01-0.208,1.576-0.305c0.57-0.095,1.116-0.18,1.553-0.221c0.429-0.044,0.71-0.066,0.71-0.066
	s-0.284,0.013-0.715,0.043c-0.439,0.027-0.994,0.091-1.566,0.167c-0.571,0.077-1.15,0.171-1.587,0.25
	c-0.443,0.077-0.724,0.144-0.724,0.144c0.019-0.039,0.045-0.091,0.083-0.149c0.04-0.058,0.091-0.125,0.155-0.196
	c0.127-0.144,0.305-0.311,0.545-0.479c0.242-0.167,0.547-0.335,0.926-0.477c0.397-0.133,0.872-0.24,1.432-0.291
	c0.747-0.067,1.257,0.033,1.604,0.213C29.179,36.566,29.36,36.828,29.432,37.117z"/>
<path fill="#8C8B8B" d="M19.974,31.432c-0.378,0.236-0.663,0.612-0.749,1.148c-0.041,0.268-0.04,0.572,0.039,0.923
	c0.085,0.354,0.233,0.745,0.461,1.176c0.346,0.652,0.705,1.144,1.053,1.523c0.352,0.38,0.7,0.65,1.004,0.841
	c0.616,0.383,1.087,0.469,1.298,0.492c0,0-0.049-0.075-0.135-0.207c-0.087-0.133-0.208-0.323-0.342-0.55
	c-0.273-0.456-0.631-1.081-0.977-1.731c-0.355-0.653-0.657-1.314-0.884-1.824c-0.226-0.509-0.371-0.86-0.371-0.86
	s0.157,0.343,0.399,0.842c0.247,0.5,0.565,1.144,0.942,1.783c0.367,0.637,0.746,1.248,1.034,1.695
	c0.145,0.223,0.264,0.406,0.353,0.535c0.09,0.129,0.141,0.203,0.141,0.203c0.048-0.214,0.163-0.675,0.068-1.404
	c-0.106-0.739-0.322-1.703-0.94-3.012c-0.208-0.439-0.396-0.78-0.591-1.046c-0.196-0.266-0.394-0.452-0.596-0.57
	C20.783,31.156,20.367,31.202,19.974,31.432z"/>
<path fill="#6A6A6A" d="M31.625,33.293c0.016,0.289-0.081,0.528-0.364,0.679c-0.069,0.038-0.154,0.069-0.246,0.098
	c-0.091,0.029-0.193,0.053-0.311,0.07c-0.235,0.035-0.525,0.045-0.883,0.028c-1.086-0.052-1.885-0.233-2.417-0.445
	c-0.539-0.212-0.834-0.465-0.955-0.59c0,0,0.275-0.024,0.708-0.034c0.428-0.013,0.993-0.021,1.546-0.014
	c0.554,0.007,1.093,0.025,1.513,0.061c0.412,0.035,0.686,0.059,0.686,0.059s-0.275-0.032-0.686-0.081
	c-0.207-0.021-0.456-0.05-0.709-0.067c-0.256-0.018-0.531-0.034-0.808-0.048c-0.554-0.026-1.12-0.038-1.548-0.04
	c-0.214,0-0.394,0-0.519,0c-0.127,0-0.196,0.004-0.196,0.004c0.103-0.134,0.379-0.406,0.894-0.642
	c0.258-0.115,0.573-0.224,0.963-0.289c0.399-0.058,0.869-0.077,1.409-0.03c0.721,0.066,1.188,0.248,1.484,0.479
	C31.484,32.725,31.609,33.006,31.625,33.293z"/>
<path fill="#8C8B8B" d="M23.648,26.264c-0.398,0.157-0.731,0.461-0.903,0.951c-0.086,0.245-0.133,0.536-0.124,0.876
	c0.019,0.348,0.092,0.744,0.234,1.192c0.431,1.353,1.012,2.119,1.53,2.6c0.514,0.472,0.945,0.638,1.141,0.697
	c0,0-0.14-0.32-0.313-0.799c-0.179-0.48-0.408-1.136-0.623-1.812c-0.224-0.682-0.39-1.355-0.519-1.878
	c-0.128-0.521-0.205-0.877-0.205-0.877s0.089,0.352,0.234,0.865c0.072,0.257,0.159,0.555,0.255,0.868
	c0.049,0.157,0.1,0.318,0.151,0.482c0.058,0.166,0.117,0.333,0.174,0.5c0.237,0.667,0.489,1.313,0.684,1.788
	c0.099,0.235,0.181,0.432,0.238,0.569c0.058,0.136,0.094,0.215,0.094,0.215c0.094-0.188,0.275-0.61,0.316-1.316
	c0.011-0.177,0.014-0.372,0.005-0.585c-0.01-0.215-0.015-0.437-0.042-0.686c-0.049-0.496-0.153-1.072-0.331-1.744
	c-0.123-0.451-0.241-0.807-0.38-1.092c-0.141-0.286-0.296-0.496-0.467-0.642C24.46,26.144,24.06,26.115,23.648,26.264z"/>
<path fill="#6A6A6A" d="M34.5,29.897c-0.072,0.561-0.543,0.826-1.868,0.523c-1.018-0.234-1.744-0.547-2.215-0.846
	c-0.472-0.297-0.708-0.587-0.798-0.728c0,0,0.067,0.007,0.187,0.024c0.12,0.018,0.29,0.043,0.495,0.073
	c0.406,0.062,0.941,0.152,1.463,0.255c0.262,0.05,0.521,0.104,0.76,0.156c0.244,0.056,0.474,0.115,0.667,0.164
	c0.383,0.103,0.64,0.172,0.64,0.172s-0.255-0.077-0.637-0.193c-0.194-0.056-0.421-0.12-0.665-0.188
	c-0.239-0.062-0.497-0.124-0.756-0.184c-1.038-0.244-2.136-0.428-2.136-0.428c0.125-0.104,0.43-0.318,0.958-0.451
	c0.266-0.064,0.578-0.118,0.965-0.105c0.388,0.015,0.835,0.076,1.339,0.215c0.672,0.184,1.083,0.436,1.325,0.705
	C34.466,29.332,34.536,29.621,34.5,29.897z"/>
<path fill="#8C8B8B" d="M28.162,21.865c-0.402,0.078-0.768,0.308-1.013,0.74c-0.123,0.217-0.215,0.483-0.266,0.806
	c-0.047,0.325-0.042,0.717,0.015,1.164c0.176,1.355,0.591,2.183,0.989,2.723c0.404,0.538,0.782,0.771,0.956,0.861
	c0,0-0.018-0.082-0.044-0.222c-0.025-0.141-0.063-0.343-0.106-0.584c-0.085-0.487-0.189-1.148-0.275-1.825
	c-0.021-0.17-0.041-0.34-0.062-0.507c-0.014-0.166-0.028-0.329-0.043-0.485c-0.025-0.316-0.046-0.614-0.063-0.871
	c-0.031-0.515-0.044-0.865-0.044-0.865s0.025,0.347,0.075,0.858c0.025,0.255,0.057,0.551,0.093,0.865
	c0.038,0.314,0.078,0.643,0.136,0.982c0.215,1.348,0.514,2.612,0.514,2.612c0.125-0.159,0.366-0.53,0.528-1.192
	c0.041-0.165,0.077-0.349,0.106-0.554c0.036-0.198,0.064-0.415,0.083-0.653c0.038-0.477,0.039-1.041-0.015-1.708
	c-0.039-0.448-0.088-0.801-0.173-1.097c-0.083-0.293-0.196-0.52-0.333-0.687C28.948,21.895,28.576,21.8,28.162,21.865z"/>
<path fill="#6A6A6A" d="M34.664,24.036c0.348,0.521,0.261,1.196-0.827,1.996c-0.398,0.326-0.768,0.563-1.105,0.736
	c-0.084,0.044-0.168,0.081-0.246,0.12c-0.076,0.04-0.152,0.075-0.224,0.108c-0.146,0.064-0.284,0.115-0.413,0.155
	c-0.516,0.16-0.889,0.146-1.054,0.124c0,0,0.196-0.187,0.49-0.466c0.146-0.14,0.318-0.304,0.501-0.479
	c0.045-0.043,0.092-0.087,0.14-0.132c0.05-0.042,0.1-0.085,0.151-0.128c0.102-0.086,0.205-0.173,0.308-0.261
	c0.207-0.175,0.414-0.349,0.607-0.513c0.097-0.083,0.191-0.162,0.28-0.236c0.093-0.069,0.182-0.135,0.263-0.195
	c0.326-0.244,0.542-0.405,0.542-0.405s-0.223,0.154-0.557,0.385c-0.084,0.058-0.174,0.121-0.27,0.188
	c-0.092,0.072-0.188,0.147-0.289,0.226c-0.2,0.157-0.413,0.324-0.626,0.492c-0.107,0.083-0.213,0.167-0.318,0.25
	c-0.053,0.041-0.105,0.083-0.156,0.123c-0.049,0.044-0.098,0.086-0.145,0.128c-0.191,0.168-0.368,0.327-0.521,0.461
	c-0.305,0.271-0.507,0.45-0.507,0.45c-0.01-0.165,0.004-0.534,0.228-1.054c0.055-0.13,0.125-0.27,0.21-0.417
	c0.042-0.073,0.089-0.149,0.139-0.227c0.053-0.075,0.112-0.15,0.177-0.228c0.253-0.309,0.584-0.643,1.011-0.991
	c0.586-0.441,1.063-0.616,1.422-0.625C34.237,23.61,34.489,23.777,34.664,24.036z"/>
<polygon fill-rule="evenodd" clip-rule="evenodd" fill="#8C8B8B" points="8.774,55.243 9.994,59 13.944,59 10.749,60.94 
	11.969,64.507 8.774,62.088 5.579,64.361 6.799,60.963 3.604,59 7.553,59 "/>
<polygon fill-rule="evenodd" clip-rule="evenodd" fill="#8C8B8B" points="92.171,55.243 93.392,59 97.343,59 94.146,60.94 
	95.366,64.507 92.171,62.088 88.975,64.361 90.195,60.963 87,59 90.951,59 "/>
</svg>
