<svg data-name="Layer 1" xmlns="http://www.w3.org/2000/svg" viewBox="0 0 103.99 105.25" fill="#717274"><title>weather_related_products-barometric_pressure_sensors</title><path d="M51.88 65.4a30.12 30.12 0 1 0-30.13-30.12A30.12 30.12 0 0 0 51.88 65.4" fill="#fff"/><path d="M66.79 48.24a19.46 19.46 0 1 0-29.82 0l.91 1.09L34 52.55l1.07 1.28 3.84-3.22-1.07-1.28-2.14 1.83-.91-1.09a22.32 22.32 0 0 1-5.09-11.95l-2.18.15-.12-1.67 2.18-.15v-.72a22.21 22.21 0 0 1 5.69-14.88l-1.58-1.52 1.16-1.2 1.58 1.52A22.23 22.23 0 0 1 51 13.44v-2.19h1.67v2.19a22.23 22.23 0 0 1 14.62 6.21l1.58-1.52 1.16 1.2-1.58 1.52a22.22 22.22 0 0 1 5.69 14.88v.72l2.18.15-.12 1.67-2.18-.15A22.32 22.32 0 0 1 69 50.07l-1 1.09 1.66 1.4-1.07 1.28-3.79-3.23 1.07-1.28z"/><path d="M45.41 39.61L47.72 42l2.9-3.2a3.34 3.34 0 0 0 4.2-4.64l8.86-9.79-10.14 8.48a3.34 3.34 0 0 0-5 3.11 3.37 3.37 0 0 0 .19.9z"/><path d="M51.88 8.16A27.57 27.57 0 1 1 24.3 35.73 27.58 27.58 0 0 1 51.88 8.16m0-5a32.58 32.58 0 1 0 32.57 32.57A32.58 32.58 0 0 0 51.88 3.15"/><path fill="none" d="M11 3.15h81.75V104.4H11z"/><g fill="#231f20"><path d="M47.3 60.45h-1.13v-7.57h1.13v.53a2.09 2.09 0 0 1 1.52-.67 2.12 2.12 0 0 1 1.67.75 2.69 2.69 0 0 1 .67 1.87 2.65 2.65 0 0 1-.66 1.84 2.15 2.15 0 0 1-3.19 0zm2.7-5.09a1.69 1.69 0 0 0-.38-1.15 1.24 1.24 0 0 0-1-.45 1.29 1.29 0 0 0-1 .43 1.64 1.64 0 0 0-.39 1.14 1.68 1.68 0 0 0 .39 1.14 1.27 1.27 0 0 0 1 .44 1.23 1.23 0 0 0 1-.44 1.61 1.61 0 0 0 .38-1.11zM55.2 53.71l-.94.5q-.22-.45-.55-.45a.38.38 0 0 0-.27.1.34.34 0 0 0-.11.26q0 .28.65.56a3.93 3.93 0 0 1 1.21.71 1.23 1.23 0 0 1 .31.88 1.55 1.55 0 0 1-.5 1.2 1.88 1.88 0 0 1-3-.75l1-.45a2.12 2.12 0 0 0 .31.45.7.7 0 0 0 .49.19c.38 0 .57-.17.57-.52s-.15-.39-.44-.56l-.34-.17-.35-.17a2.12 2.12 0 0 1-.7-.48 1.19 1.19 0 0 1-.26-.79 1.4 1.4 0 0 1 .44-1.06 1.54 1.54 0 0 1 1.09-.42 1.48 1.48 0 0 1 1.39.97zM56.37 50.84a.74.74 0 0 1 .73-.73.71.71 0 0 1 .52.22.7.7 0 0 1 .22.52.71.71 0 0 1-.22.52.69.69 0 0 1-.52.22.71.71 0 0 1-.52-.22.72.72 0 0 1-.21-.53zm1.3 2v4.9h-1.13v-4.9z"/></g><path fill="#fff" d="M39.68 90.05l-6.03-15.24-5.63 10.78-4.45-.47-10.79 17.59 25.56.61 1.34-13.27z"/><path d="M38.45 103.45h-.12l-25.78-.62L23.5 85h.08l4.37.46 5.71-11L39.81 90zM13 102.59l25.23.61 1.33-13.13-5.92-15-5.55 10.65-4.46-.47z" fill="#fff"/><path d="M23.94 86.78h4.36l5-9.45 1.64 10.17-3.5 6.27 1.56 8.16H15.26zm2.87-2.47h-4.3L11 104.4h56.91L46.59 81.64l-3.23 1.58-9.63-12z"/><path fill="#fff" d="M37.31 102.93l1.64-8.2 7.73-4.68 8.43-18.72 5.15 13.11-3.05 18.72-19.9-.23z"/><path d="M57.53 103.54l-20.68-.24 1.76-8.8 7.77-4.71 8.75-19.43 5.51 14zm-19.76-1l19.13.22 3-18.3-4.82-12.17L47 90.31l-.1.06L39.29 95z" fill="#fff"/><path d="M39.84 95.59l7.93-4.54L55 74.3c1.82 4.75 3.33 9.81 3 11.68a24.45 24.45 0 0 1-1.18 3.78c-1.2 3.29-2.79 7.68-2.17 12.17H38.47zm43.89.78l-15-9.46-3.41-10.16-9.55-6.67-1.14-.86-.7 1.38-8.1 18.72L37.67 94l-2.26 10.4h57.34z"/><path fill="none" d="M11 3.15h81.75V104.4H11z"/></svg>