<?xml version="1.0" encoding="UTF-8"?>
<!-- Generator: Adobe Illustrator 16.0.0, SVG Export Plug-In . SVG Version: 6.00 Build 0)  -->
<!DOCTYPE svg PUBLIC "-//W3C//DTD SVG 1.1//EN" "http://www.w3.org/Graphics/SVG/1.1/DTD/svg11.dtd">
<svg version="1.1" xmlns="http://www.w3.org/2000/svg" xmlns:xlink="http://www.w3.org/1999/xlink" x="0px" y="0px" width="500px" height="500px" viewBox="0 0 500 500" enable-background="new 0 0 500 500" xml:space="preserve">
<g id="Layer_1">
	<path fill="#D7D8D8" d="M243.183,398.646H115.869c-8.398,0-8.398,13.04,0,13.04h127.314   C251.587,411.687,251.587,398.646,243.183,398.646L243.183,398.646z M243.183,398.646"/>
	<path fill="#D7D8D8" d="M132.826,106.84h81.533c8.404,0,8.404-13.04,0-13.04h-81.533C124.417,93.801,124.417,106.84,132.826,106.84   L132.826,106.84z M132.826,106.84"/>
	<path fill="#D7D8D8" d="M243.183,351.943H115.869c-8.398,0-8.398,13.04,0,13.04h127.314   C251.587,364.983,251.587,351.943,243.183,351.943L243.183,351.943z M243.183,351.943"/>
	<path fill="#D7D8D8" d="M296.401,355.104h-9.575c-15.124,0-15.124,23.48,0,23.48h9.575   C311.571,378.584,311.571,355.104,296.401,355.104L296.401,355.104z M296.401,355.104"/>
	<path fill="#D7D8D8" d="M333.12,355.104h-9.575c-15.123,0-15.123,23.48,0,23.48h9.575   C348.291,378.584,348.291,355.104,333.12,355.104L333.12,355.104z M333.12,355.104"/>
	<path fill="#D7D8D8" d="M371.41,355.104h-9.623c-15.123,0-15.123,23.48,0,23.48h9.623   C386.543,378.584,386.543,355.104,371.41,355.104L371.41,355.104z M371.41,355.104"/>
	<path fill="#D7D8D8" d="M295.64,386.16h-9.575c-15.124,0-15.124,23.489,0,23.489h9.575   C310.811,409.649,310.811,386.16,295.64,386.16L295.64,386.16z M295.64,386.16"/>
	<path fill="#D7D8D8" d="M332.359,386.16h-9.576c-15.133,0-15.133,23.489,0,23.489h9.576   C347.53,409.649,347.53,386.16,332.359,386.16L332.359,386.16z M332.359,386.16"/>
	<path fill="#D7D8D8" d="M370.601,386.16h-9.574c-15.123,0-15.123,23.489,0,23.489h9.574   C385.772,409.649,385.772,386.16,370.601,386.16L370.601,386.16z M370.601,386.16"/>
	<path fill="#D7D8D8" d="M243.183,375.824H115.869c-8.398,0-8.398,13.039,0,13.039h127.314   C251.587,388.863,251.587,375.824,243.183,375.824L243.183,375.824z M243.183,375.824"/>
	<path fill="#D7D8D8" d="M295.792,106.84h81.528c8.404,0,8.404-13.04,0-13.04h-81.528C287.388,93.801,287.388,106.84,295.792,106.84   L295.792,106.84z M295.792,106.84"/>
	<path fill="#D7D8D8" d="M351.908,135.959c8.403,0,8.403-13.035,0-13.035h-52.861c-8.404,0-8.404,13.035,0,13.035H351.908z    M351.908,135.959"/>
	<path fill="#D7D8D8" d="M292.889,277.85c1.676,5.501,9.423,7.232,12.326,1.674c3.769-7.233,7.48-14.408,11.201-21.638   c2.494,6.867,4.987,13.748,7.481,20.63c1.075,2.95,3.265,5.139,6.473,5.139h32.026c8.709,0,8.709-14.01,0-14.01h-23.423   c-2.389,0-3.816,0.362-4.636,0.762c0.058-1.266-0.256-3.408-1.522-6.871c-2.903-8.096-5.862-16.252-8.766-24.347   c-1.932-5.292-9.365-7.429-12.373-1.628c-3.56,6.872-7.176,13.753-10.755,20.683c-5.901-18.998-11.802-37.996-17.712-56.988   c-2.142-6.929-10.642-6.367-12.983,0c-6.318,17.008-12.581,65.343-18.896,82.399c-6.468-30.556-12.934-92.439-19.402-123.04   c-1.427-6.829-11.354-6.519-12.987,0c-7.995,31.632-15.938,63.246-23.889,94.877c-4.469-9.522-8.957-19.055-13.439-28.572   c-2.807-6.006-10.393-3.412-12.325,1.632c-4.531,12.063-9.057,24.137-13.596,36.256c-0.871,2.343-1.523,3.827-2.032,4.836h-19.863   c-8.708,0-8.708,14.01,0,14.01h24.703c3.203,0,5.392-2.188,6.463-5.139c3.874-10.242,7.695-20.478,11.516-30.724   c4.888,10.451,9.827,20.882,14.714,31.275c2.594,5.559,10.936,3.921,12.321-1.628c7.133-28.314,14.262-56.63,21.338-84.95   c6.11,28.672,12.168,88.614,18.231,117.282c1.527,7.385,10.793,5.958,12.982,0c6.729-18.122,13.391-67.566,20.12-85.702   C281.734,241.996,287.282,259.917,292.889,277.85L292.889,277.85z M292.889,277.85"/>
	<path fill="#D7D8D8" d="M358.171,30.323V9.998H151v20.325H49.156v459.675h400.689V30.323H358.171z M438.015,478.234H60.924V42.092   H151v14.457h207.171V42.092h79.844V478.234z"/>
	<path fill="#D7D8D8" d="M418.521,458.741"/>
</g>
<g id="Layer_2" display="none">
	<g display="inline">
		<path fill="#56A1D3" d="M243.183,398.646H115.869c-8.398,0-8.398,13.04,0,13.04h127.314    C251.587,411.687,251.587,398.646,243.183,398.646L243.183,398.646z M243.183,398.646"/>
		<path fill="#5A5B5D" d="M132.826,106.84h81.533c8.404,0,8.404-13.04,0-13.04h-81.533    C124.417,93.801,124.417,106.84,132.826,106.84L132.826,106.84z M132.826,106.84"/>
		<path fill="#56A1D3" d="M243.183,351.943H115.869c-8.398,0-8.398,13.04,0,13.04h127.314    C251.587,364.983,251.587,351.943,243.183,351.943L243.183,351.943z M243.183,351.943"/>
		<path fill="#56A1D3" d="M296.401,355.104h-9.575c-15.124,0-15.124,23.48,0,23.48h9.575    C311.571,378.584,311.571,355.104,296.401,355.104L296.401,355.104z M296.401,355.104"/>
		<path fill="#56A1D3" d="M333.12,355.104h-9.575c-15.123,0-15.123,23.48,0,23.48h9.575    C348.291,378.584,348.291,355.104,333.12,355.104L333.12,355.104z M333.12,355.104"/>
		<path fill="#56A1D3" d="M371.41,355.104h-9.623c-15.123,0-15.123,23.48,0,23.48h9.623    C386.543,378.584,386.543,355.104,371.41,355.104L371.41,355.104z M371.41,355.104"/>
		<path fill="#56A1D3" d="M295.64,386.16h-9.575c-15.124,0-15.124,23.489,0,23.489h9.575    C310.811,409.649,310.811,386.16,295.64,386.16L295.64,386.16z M295.64,386.16"/>
		<path fill="#56A1D3" d="M332.359,386.16h-9.576c-15.133,0-15.133,23.489,0,23.489h9.576    C347.53,409.649,347.53,386.16,332.359,386.16L332.359,386.16z M332.359,386.16"/>
		<path fill="#56A1D3" d="M370.601,386.16h-9.574c-15.123,0-15.123,23.489,0,23.489h9.574    C385.772,409.649,385.772,386.16,370.601,386.16L370.601,386.16z M370.601,386.16"/>
		<path fill="#56A1D3" d="M243.183,375.824H115.869c-8.398,0-8.398,13.039,0,13.039h127.314    C251.587,388.863,251.587,375.824,243.183,375.824L243.183,375.824z M243.183,375.824"/>
		<path fill="#5A5B5D" d="M295.792,106.84h81.528c8.404,0,8.404-13.04,0-13.04h-81.528    C287.388,93.801,287.388,106.84,295.792,106.84L295.792,106.84z M295.792,106.84"/>
		<path fill="#5A5B5D" d="M351.908,135.959c8.403,0,8.403-13.035,0-13.035h-52.861c-8.404,0-8.404,13.035,0,13.035H351.908z     M351.908,135.959"/>
		<path fill="#A4C63A" d="M292.889,277.85c1.676,5.501,9.423,7.232,12.326,1.674c3.769-7.233,7.48-14.408,11.201-21.638    c2.494,6.867,4.987,13.748,7.481,20.63c1.075,2.95,3.265,5.139,6.473,5.139h32.026c8.709,0,8.709-14.01,0-14.01h-23.423    c-2.389,0-3.816,0.362-4.636,0.762c0.058-1.266-0.256-3.408-1.522-6.871c-2.903-8.096-5.862-16.252-8.766-24.347    c-1.932-5.292-9.365-7.429-12.373-1.628c-3.56,6.872-7.176,13.753-10.755,20.683c-5.901-18.998-11.802-37.996-17.712-56.988    c-2.142-6.929-10.642-6.367-12.983,0c-6.318,17.008-12.581,65.343-18.896,82.399c-6.468-30.556-12.934-92.439-19.402-123.04    c-1.427-6.829-11.354-6.519-12.987,0c-7.995,31.632-15.938,63.246-23.889,94.877c-4.469-9.522-8.957-19.055-13.439-28.572    c-2.807-6.006-10.393-3.412-12.325,1.632c-4.531,12.063-9.057,24.137-13.596,36.256c-0.871,2.343-1.523,3.827-2.032,4.836h-19.863    c-8.708,0-8.708,14.01,0,14.01h24.703c3.203,0,5.392-2.188,6.463-5.139c3.874-10.242,7.695-20.478,11.516-30.724    c4.888,10.451,9.827,20.882,14.714,31.275c2.594,5.559,10.936,3.921,12.321-1.628c7.133-28.314,14.262-56.63,21.338-84.95    c6.11,28.672,12.168,88.614,18.231,117.282c1.527,7.385,10.793,5.958,12.982,0c6.729-18.122,13.391-67.566,20.12-85.702    C281.734,241.996,287.282,259.917,292.889,277.85L292.889,277.85z M292.889,277.85"/>
		<path fill="#D7D8D8" d="M358.171,30.323V9.998H151v20.325H49.156v459.675h400.689V30.323H358.171z M438.015,478.234H60.924V42.092    H151v14.457h207.171V42.092h79.844V478.234z"/>
	</g>
</g>
</svg>