<?xml version="1.0" encoding="UTF-8"?>
<!-- Generator: Adobe Illustrator 16.0.0, SVG Export Plug-In . SVG Version: 6.00 Build 0)  -->
<!DOCTYPE svg PUBLIC "-//W3C//DTD SVG 1.1//EN" "http://www.w3.org/Graphics/SVG/1.1/DTD/svg11.dtd">
<svg version="1.1" xmlns="http://www.w3.org/2000/svg" xmlns:xlink="http://www.w3.org/1999/xlink" x="0px" y="0px" width="500px" height="500px" viewBox="0 0 500 500" enable-background="new 0 0 500 500" xml:space="preserve">
<g id="Layer_1">
	<path fill="#D7D8D8" d="M418.521,458.741"/>
	<g>
		<g>
			<path fill="#D9D9D9" d="M274.606,184.836l60.938,55.524v200.028c0,14.156-11.517,25.674-25.674,25.674H144.316     c-14.157,0-25.674-11.518-25.674-25.674V210.511c0-14.157,11.518-25.675,25.674-25.675H274.606 M278.119,175.765H144.316     c-19.109,0-34.746,15.637-34.746,34.747v229.877c0,19.118,15.637,34.746,34.746,34.746h165.555     c19.109,0,34.746-15.628,34.746-34.746V236.354L278.119,175.765L278.119,175.765z"/>
		</g>
		<g>
			<path fill="#CCCCCC" d="M379.319,137.271c-26.933-27.827-63.097-43.518-101.829-44.102c-8.833-0.142-17.684,0.505-26.295,1.931     c-34.596,5.768-64.629,23.504-86.113,48.603c-0.292,0.328-0.531,0.62-0.779,0.939l14.893,3.969     c0.266-0.257,0.514-0.567,0.788-0.851c19.048-20.093,44.492-34.197,73.479-39.025c7.806-1.293,15.814-1.896,23.788-1.772     c35.056,0.558,67.782,14.742,92.181,39.912c24.354,25.169,37.493,58.33,36.935,93.377c-0.479,32.075-12.536,61.612-32.381,84.328     c-0.398,0.407-0.762,0.832-1.151,1.24l-4.802,23.813c1.373-1.151,2.755-2.321,4.066-3.526     c29.165-26.224,47.406-64,48.079-105.616C420.789,201.731,406.287,165.081,379.319,137.271z"/>
			<g>
				<path fill="#CCCCCC" d="M286.367,31.332L286.367,31.332L286.367,31.332c0.062-4.333-3.402-7.912-7.77-7.974      c-4.351-0.08-7.93,3.402-7.991,7.743l0,0h-0.018l-0.55,33.754l0.026,0.009c0,4.296,3.438,7.813,7.761,7.885      c4.288,0.07,7.841-3.349,7.974-7.61h0.018L286.367,31.332z"/>
				<path fill="#CCCCCC" d="M448.625,233.049v0.009l0,0c-4.385-0.063-7.929,3.393-8.009,7.751c-0.044,4.333,3.429,7.929,7.77,7.982      l0,0v0.027l33.719,0.531l0.018-0.018c4.297,0.009,7.832-3.429,7.876-7.717c0.089-4.323-3.322-7.876-7.628-8.009v-0.018      L448.625,233.049z"/>
				<path fill="#CCCCCC" d="M394.193,111.907l0.009,0.009l0,0c-3.118,3.012-3.198,8.009-0.177,11.118      c3.039,3.109,8.009,3.207,11.118,0.204l0,0h0.018l24.23-23.486v-0.018c3.065-3.048,3.119-7.974,0.133-11.074      c-2.994-3.092-7.938-3.189-11.038-0.222c0,0-0.018-0.026-0.045-0.026L394.193,111.907z"/>
				<g>
					<path fill="#CCCCCC" d="M136.795,83.982L136.795,83.982h-0.009c-3.003-3.127-7.991-3.207-11.11-0.159       c-3.109,3.021-3.189,7.991-0.159,11.118c-0.009,0.026-0.009,0.026-0.009,0.026h-0.009l23.486,24.222c0,0,0.009,0,0.026-0.009       c3.021,3.056,7.92,3.109,11.03,0.124c3.119-3.021,3.189-7.903,0.257-11.048l0.018-0.009L136.795,83.982z"/>
					<path fill="#CCCCCC" d="M401.423,357.199h-0.009l0,0c-3.012-3.118-7.965-3.207-11.101-0.194       c-3.128,3.029-3.233,8.026-0.204,11.163l0,0h-0.009l23.478,24.238c0,0,0,0,0.035,0c3.03,3.048,7.938,3.119,11.048,0.106       c3.101-3.012,3.198-7.92,0.239-11.057l0.009-0.018L401.423,357.199z"/>
				</g>
			</g>
		</g>
		<path fill="#D9D9D9" d="M272.909,175.765h10.232l61.476,61.449v8.212h-14.344H293.41c-11.287,0-20.501-9.231-20.501-20.509    v-34.808V175.765z"/>
		<g>
			<path fill="#CCCCCC" d="M214.996,331.897c0,9.979-8.165,18.144-18.144,18.144H28.144c-9.979,0-18.144-8.165-18.144-18.144V241.28     c0-9.979,8.165-18.144,18.144-18.144h168.708c9.979,0,18.144,8.165,18.144,18.144V331.897z"/>
		</g>
		<text transform="matrix(1 0 0 1 27.0859 315.875)" fill="#FFFFFF" font-family="'OpenSans-Bold'" font-size="78.4614">XML</text>
	</g>
</g>
<g id="Layer_2" display="none">
	<g display="inline">
		<g>
			<path fill="#D9D9D9" d="M274.606,185.041l60.938,55.524v200.037c0,14.157-11.517,25.674-25.674,25.674H144.316     c-14.157,0-25.674-11.517-25.674-25.674V210.715c0-14.157,11.518-25.674,25.674-25.674H274.606 M278.119,175.969H144.316     c-19.109,0-34.746,15.637-34.746,34.746v229.887c0,19.101,15.637,34.746,34.746,34.746h165.555     c19.109,0,34.746-15.646,34.746-34.746V236.558L278.119,175.969L278.119,175.969z"/>
		</g>
		<g>
			<g>
				<path fill="#F8ED34" d="M379.319,137.475c-26.933-27.827-63.097-43.517-101.829-44.102c-8.833-0.142-17.684,0.505-26.295,1.932      c-34.596,5.768-64.629,23.504-86.113,48.602c-0.292,0.328-0.531,0.621-0.779,0.939l14.893,3.969      c0.266-0.257,0.514-0.567,0.788-0.851c19.048-20.093,44.492-34.197,73.479-39.025c7.806-1.293,15.814-1.896,23.788-1.772      c35.056,0.559,67.782,14.742,92.181,39.911c24.354,25.17,37.493,58.33,36.935,93.378c-0.479,32.084-12.536,61.621-32.381,84.318      c-0.398,0.425-0.762,0.851-1.151,1.24l-4.802,23.831c1.373-1.169,2.755-2.338,4.066-3.525      c29.165-26.241,47.406-64.018,48.079-105.625C420.789,201.936,406.287,165.284,379.319,137.475z"/>
				<g>
					<path fill="#F8ED34" d="M286.367,31.535L286.367,31.535L286.367,31.535c0.062-4.332-3.402-7.911-7.77-7.974       c-4.351-0.08-7.93,3.402-7.991,7.743l0,0h-0.018l-0.55,33.754l0.026,0.009c0,4.297,3.438,7.814,7.761,7.885       c4.288,0.071,7.841-3.349,7.974-7.61h0.018L286.367,31.535z"/>
					<path fill="#F8ED34" d="M448.625,233.253v0.009l0,0c-4.385-0.062-7.929,3.394-8.009,7.752c-0.044,4.333,3.429,7.93,7.77,7.982       l0,0v0.026l33.719,0.532l0.018-0.018c4.297,0.009,7.832-3.429,7.876-7.716c0.089-4.323-3.322-7.876-7.628-8.009v-0.018       L448.625,233.253z"/>
					<path fill="#F8ED34" d="M394.193,112.11l0.009,0.009l0,0c-3.118,3.012-3.198,8.009-0.177,11.119       c3.039,3.109,8.009,3.207,11.118,0.204l0,0h0.018l24.23-23.486v-0.018c3.065-3.047,3.119-7.973,0.133-11.074       c-2.994-3.092-7.938-3.189-11.038-0.221c0,0-0.018-0.027-0.045-0.027L394.193,112.11z"/>
					<g>
						<path fill="#F8ED34" d="M136.795,84.186L136.795,84.186h-0.009c-3.003-3.127-7.991-3.207-11.11-0.16        c-3.109,3.021-3.189,7.991-0.159,11.119c-0.009,0.027-0.009,0.027-0.009,0.027h-0.009l23.486,24.221c0,0,0.009,0,0.026-0.009        c3.021,3.056,7.92,3.11,11.03,0.124c3.119-3.021,3.189-7.903,0.257-11.047l0.018-0.009L136.795,84.186z"/>
						<path fill="#F8ED34" d="M401.423,357.395h-0.009l0,0c-3.012-3.101-7.965-3.207-11.101-0.195        c-3.128,3.03-3.233,8.027-0.204,11.181l0,0h-0.009l23.478,24.239c0,0,0-0.018,0.035-0.018        c3.03,3.047,7.938,3.136,11.048,0.124c3.101-3.013,3.198-7.921,0.239-11.057l0.009-0.018L401.423,357.395z"/>
					</g>
				</g>
			</g>
		</g>
		<path fill="#D9D9D9" d="M272.909,175.969h10.232l61.476,61.448v8.213h-14.344H293.41c-11.287,0-20.501-9.231-20.501-20.51v-34.808    V175.969z"/>
		<g>
			<path fill="#F9A971" d="M214.996,332.093c0,9.979-8.165,18.144-18.144,18.144H28.144c-9.979,0-18.144-8.165-18.144-18.144     v-90.609c0-9.979,8.165-18.144,18.144-18.144h168.708c9.979,0,18.144,8.165,18.144,18.144V332.093z"/>
		</g>
		<text transform="matrix(1 0 0 1 27.0859 316.0703)" fill="#FFFFFF" font-family="'OpenSans-Bold'" font-size="78.4614">XML</text>
	</g>
	<path display="inline" fill="#D7D8D8" d="M310.109,89.482"/>
	<path display="inline" fill="#D7D8D8" d="M310.109,89.482"/>
</g>
</svg>