<svg xmlns="http://www.w3.org/2000/svg" viewBox="0 0 55.08 59.8"><defs><style>.bfba0157-1cfd-46c4-b58c-6e0c98800357{fill:#7f3f97;}</style></defs><title>vizonto</title><g id="89550134-671f-4501-874e-c67000639e5f" data-name="Réteg 2"><g id="894e3807-679b-47cd-8cb7-17d41fd14366" data-name="Réteg 1"><ellipse class="bfba0157-1cfd-46c4-b58c-6e0c98800357" cx="37.23" cy="20.84" rx="3.47" ry="14.5"/><path class="bfba0157-1cfd-46c4-b58c-6e0c98800357" d="M27.9,33.15c1.18-2.56,2.37-.7,2.37-.7a4.77,4.77,0,0,0,4.92,2.89C31.85,33.82,31.73,23.15,31.72,21s.2-13.15,3.54-14.67a5.33,5.33,0,0,0-5,3.19s-1.19,1.86-2.37-.7-4.73-12-15.14-7.68C2.54,5.34.46,9.47,0,20.69H0c0,.09,0,.18,0,.26s0,.17,0,.26H0c.43,11.23,2.5,15.36,12.74,19.6C23.16,45.12,26.72,35.71,27.9,33.15Z"/><path class="bfba0157-1cfd-46c4-b58c-6e0c98800357" d="M40.84,14.51s6.25-7.89,9.76,6-6,22.44,4.48,31c0,0-10.12,2.47-6-20.53,2.57-14.17-7.7-12-8.29-10.87Z"/><path class="bfba0157-1cfd-46c4-b58c-6e0c98800357" d="M40.44,23.1s7.55-2.59,8,3.72S39,55.8,53.63,59.75c0,0-9.24,1.24-9.36-8.34s3.06-20.88,2-23.9c-1.35-3.95-3.72-2-5-.79S40,24.19,40.44,23.1Z"/></g></g></svg>