<svg xmlns="http://www.w3.org/2000/svg" viewBox="0 0 500 500">
	<defs>
		<style>
			svg, symbol {
				--wh: #dff0fe;
				--bl: #000;
				--rd: #ff0000;
				--lB: #98ccfd;
				--dB: #4788c7;
				--dG: #808083;
				--lY: #fce6b1;
				--dY: #ffc843;
				--bY: #3f3a02;
				--s1: #fff76b;
				--s2: #fff845;
				--s3: #ffda4e;
				--s4: #fb8933;
				--s5: #fdc830;
				--s6: #f37335;
			}
		</style>
		<linearGradient id="moonDark" gradientUnits="userSpaceOnUse" x1="0%" y1="0%" x2="0%" y2="100%">
			<stop stop-color="#FFC843" offset="0"/>
			<stop stop-color="#3f3a02" offset="80%"/>
		</linearGradient>
		<linearGradient id="moon" gradientUnits="userSpaceOnUse" x1="0%" y1="0%" x2="0%" y2="100%">
			<stop stop-color="#FCE6B1" offset="0"/>
			<stop stop-color="#FFC843" offset="50%"/>
			<stop stop-color="#3f3a02" offset="80%"/>
		</linearGradient>
		<linearGradient id="lightCloud" gradientUnits="userSpaceOnUse" x1="0%" y1="0%" x2="0%" y2="100%" spreadMethod="pad">
			<stop class="s5" stop-color="#fff" offset="63%"/>
			<stop class="s7" stop-color="#808083" offset="83%"/>
			<stop class="s8" stop-color="#000" offset="100%"/>
		</linearGradient>
		<linearGradient id="darkCloud" gradientUnits="userSpaceOnUse" x1="0%" y1="0%" x2="0%" y2="100%" spreadMethod="pad">
			<stop class="s7" stop-color="#808083" offset="63%"/>
			<stop class="s8" stop-color="#000" offset="100%"/>
		</linearGradient>
	</defs>
	<path fill="url(#moon)" stroke="url(#moon)" d="M245.42 129.27c0-8.07.62-16.1 1.86-24.03-48.02 21.08-80.22 69.21-80.22 122.75 0 73.88 60.1 133.98 133.98 133.98 52.98 0 100.9-31.75 122.25-79.1a156.27 156.27 0 0 1-22.63 1.64c-85.6 0-155.24-69.64-155.24-155.24z"/>
	<path fill="url(#moonDark)" stroke="url(#moonDark)" d="M437.02 258.26c-11.78 3.31-24.01 5-36.35 5-73.88 0-133.98-60.11-133.98-134 0-12.74 1.79-25.37 5.33-37.52l5.35-18.39-18.44 5.19a156.3 156.3 0 0 0-81.03 54.92c-21 27.32-32.1 60-32.1 94.53 0 85.6 69.65 155.24 155.25 155.24 34.28 0 66.77-10.95 93.98-31.67a156.4 156.4 0 0 0 55.08-80.1l5.35-18.4-18.44 5.2zM301.04 361.97c-73.87 0-133.98-60.1-133.98-133.98 0-53.54 32.2-101.67 80.22-122.75a156.08 156.08 0 0 0-1.86 24.03c0 85.6 69.64 155.25 155.24 155.25 7.6 0 15.16-.56 22.63-1.65-21.35 47.36-69.27 79.1-122.25 79.1z"/>
	<path fill="url(#lightCloud)" stroke="url(#lightCloud)" d="M250.16 347.1a10.63 10.63 0 0 1-8.69-12.26 24.94 24.94 0 0 0-24.5-29.28c-2.85 0-5.73.53-8.55 1.55a10.63 10.63 0 0 1-12.57-4.23 54.14 54.14 0 0 0-45.68-24.98 54.42 54.42 0 0 0-54.36 54.36c0 1.3.1 2.71.21 4.21.38 5.15-3 9.85-8 11.1a29.3 29.3 0 0 0-22.22 28.44 29.4 29.4 0 0 0 29.36 29.38h150a29.42 29.42 0 0 0 29.38-29.38 29.26 29.26 0 0 0-24.38-28.9z"/>
	<path fill="url(#lightCloud)" stroke="url(#lightCloud)" d="M263.1 328.69a46.23 46.23 0 0 0-46.14-44.38c-2.62 0-5.23.23-7.82.68a75.23 75.23 0 0 0-58.97-28.35c-40.88 0-74.28 32.6-75.58 73.15a50.52 50.52 0 0 0-30.05 46.22 50.7 50.7 0 0 0 50.62 50.64h150a50.7 50.7 0 0 0 50.64-50.64 50.45 50.45 0 0 0-32.7-47.32zm-17.94 76.7h-150a29.4 29.4 0 0 1-29.36-29.38 29.3 29.3 0 0 1 22.21-28.44c5-1.25 8.38-5.98 8-11.13-.1-1.49-.2-2.9-.2-4.18a54.42 54.42 0 0 1 54.36-54.36c18.53 0 35.6 9.34 45.67 24.98a10.63 10.63 0 0 0 12.57 4.23 24.97 24.97 0 0 1 8.55-1.55 24.94 24.94 0 0 1 24.92 24.92c0 1.31-.14 2.74-.41 4.36a10.63 10.63 0 0 0 8.68 12.27 29.26 29.26 0 0 1 24.4 28.9 29.42 29.42 0 0 1-29.4 29.38z"/>
</svg>
