<svg id="04n" xmlns="http://www.w3.org/2000/svg" viewBox="0 0 500 500">
	<defs>
		<style>
			svg, symbol {
				--wh: #dff0fe;
			 	--bl: #000;
			 	--rd: #ff0000;
			 	--lB: #98ccfd;
			 	--dB: #4788c7;
			 	--dG: #808083;
			 	--lY: #fce6b1;
			 	--dY: #ffc843;
			 	--bY: #3f3a02;
			 	--s1: #fff76b;
			 	--s2: #fff845;
			 	--s3: #ffda4e;
			 	--s4: #fb8933;
			 	--s5: #fdc830;
			 	--s6: #f37335;
			}
		</style>
		<radialGradient id="sunCore" gradientUnits="userSpaceOnUse" r="95" spreadMethod="pad">
			<stop stop-color="var(--s1)" offset="0"/>
			<stop stop-color="var(--s2)" offset="10%"/>
			<stop stop-color="var(--s3)" offset="30%"/>
			<stop stop-color="var(--s4)" offset="100%"/>
		</radialGradient>
		<radialGradient id="sunRays" gradientUnits="userSpaceOnUse" r="100%" spreadMethod="pad">
			<stop stop-color="var(--s4)" offset="5%"/>
			<stop stop-color="var(--s3)" offset="72%"/>
			<stop stop-color="var(--s2)" offset="94%"/>
			<stop stop-color="var(--s1)" offset="100%"/>
		</radialGradient>
		<linearGradient id="lightCloud" gradientUnits="userSpaceOnUse" x1="0%" y1="0%" x2="0%" y2="100%" spreadMethod="pad">
			<stop class="s5" stop-color="var(--wh)" offset="63%"/>
			<stop class="s7" stop-color="var(--dG)" offset="83%"/>
			<stop class="s8" stop-color="var(--bl)" offset="100%"/>
		</linearGradient>
	</defs>
	<path fill="--wh" d="M374.23 252.75a10.63 10.63 0 0 1-8.69-12.26c.48-2.82.71-5.34.71-7.7a44.2 44.2 0 0 0-44.15-44.14c-5.06 0-10.14.92-15.13 2.73a10.62 10.62 0 0 1-12.57-4.23 89.16 89.16 0 0 0-75.23-41.13c-49.36 0-89.52 40.15-89.52 89.51 0 2.2.16 4.48.34 6.9.38 5.15-3 9.87-8 11.13a50.9 50.9 0 0 0-38.58 49.4 51.07 51.07 0 0 0 51 51.03h231.15a51.09 51.09 0 0 0 51.03-51.03c0-24.9-17.81-46.01-42.36-50.2z"/>
	<g fill="url(#lightCloud)" stroke="url(#lightCloud)">
		<path d="M387.5 234.14l.02-1.35a65.48 65.48 0 0 0-65.42-65.4c-4.82 0-9.65.55-14.42 1.65a110.24 110.24 0 0 0-88.51-44.28c-61.09 0-110.78 49.69-110.78 110.77v.08a72.1 72.1 0 0 0-46.24 67.34c0 39.87 32.41 72.3 72.25 72.3h231.16c39.86 0 72.3-32.43 72.3-72.3a72 72 0 0 0-50.36-68.81zm-21.94 119.84H134.4c-28.12 0-51-22.89-51-51.03a50.9 50.9 0 0 1 38.58-49.39c5.01-1.26 8.39-5.99 8.01-11.14-.18-2.41-.34-4.7-.34-6.9 0-49.35 40.16-89.5 89.52-89.5a89.16 89.16 0 0 1 75.23 41.12 10.63 10.63 0 0 0 12.57 4.23 44.17 44.17 0 0 1 15.13-2.73 44.2 44.2 0 0 1 44.15 44.15c0 2.35-.23 4.87-.71 7.7a10.63 10.63 0 0 0 8.69 12.26 50.82 50.82 0 0 1 42.36 50.2 51.09 51.09 0 0 1-51.03 51.03z"/>
		<path fill="url(#lightCloud)" d="M365.56 353.98H134.4c-28.12 0-51-22.9-51-51.03a50.9 50.9 0 0 1 38.58-49.39c5.01-1.26 8.39-5.99 8.01-11.14-.18-2.41-.34-4.7-.34-6.9 0-49.35 40.16-89.5 89.52-89.5a89.16 89.16 0 0 1 75.23 41.12 10.63 10.63 0 0 0 12.57 4.23 44.17 44.17 0 0 1 15.13-2.73 44.2 44.2 0 0 1 44.15 44.15c0 2.35-.23 4.87-.71 7.7a10.63 10.63 0 0 0 8.69 12.25 50.82 50.82 0 0 1 42.36 50.2 51.09 51.09 0 0 1-51.03 51.04z"/>
	</g>
</svg>
