<svg id="10d" xmlns="http://www.w3.org/2000/svg" viewBox="0 0 500 500">
	<defs>
		<style>
			svg, symbol {
				--wh: #dff0fe;
			 	--bl: #000;
			 	--rd: #ff0000;
			 	--lB: #98ccfd;
			 	--dB: #4788c7;
				--lG: #a5a5a5;
			 	--dG: #808083;
			 	--lY: #fce6b1;
			 	--dY: #ffc843;
			 	--bY: #3f3a02;
			 	--s1: #fff76b;
			 	--s2: #fff845;
			 	--s3: #ffda4e;
			 	--s4: #fb8933;
			 	--s5: #fdc830;
			 	--s6: #f37335;
			}
		</style>
		<radialGradient id="sunCore" gradientUnits="userSpaceOnUse" r="95" spreadMethod="pad">
			<stop stop-color="var(--s1)" offset="0"/>
			<stop stop-color="var(--s2)" offset="10%"/>
			<stop stop-color="var(--s3)" offset="30%"/>
			<stop stop-color="var(--s4)" offset="100%"/>
		</radialGradient>
		<radialGradient id="sunRays" gradientUnits="userSpaceOnUse" r="100%" spreadMethod="pad">
			<stop stop-color="var(--s4)" offset="5%"/>
			<stop stop-color="var(--s3)" offset="72%"/>
			<stop stop-color="var(--s2)" offset="94%"/>
			<stop stop-color="var(--s1)" offset="100%"/>
		</radialGradient>
		<linearGradient id="lightCloud" gradientUnits="userSpaceOnUse" x1="0%" y1="0%" x2="0%" y2="100%" spreadMethod="pad">
			<stop stop-color="var(--wh)" offset="63%"/>
			<stop stop-color="var(--dG)" offset="83%"/>
			<stop stop-color="var(--bl)" offset="100%"/>
		</linearGradient>
		<linearGradient id="darkCloud" gradientUnits="userSpaceOnUse" x1="0%" y1="0%" x2="0%" y2="100%" spreadMethod="pad">
			<stop stop-color="var(--lG)" offset="33%"/>
			<stop stop-color="var(--dG)" offset="56%"/>
			<stop stop-color="var(--bl)" offset="100%"/>
		</linearGradient>
	</defs>
	<path fill="var(--dB)" d="M66.86 484.44a13 13 0 0 1-10.02-21.3l37.12-44.87a13 13 0 1 1 20.05 16.58L76.9 479.73a12.99 12.99 0 0 1-10.03 4.71zm104.04 0a13 13 0 0 1-10.02-21.3L198 418.27a13 13 0 1 1 20.04 16.58l-37.12 44.88a12.98 12.98 0 0 1-10.03 4.71zm102.8 0a13 13 0 0 1-10.01-21.3l37.13-44.87a13 13 0 0 1 20.04 16.58l-37.13 44.88a12.98 12.98 0 0 1-10.03 4.71z"/>
	<path fill="#FFF" d="M299 145.28c-46.08 0-83.57 37.5-83.57 83.57 0 46.08 37.5 83.57 83.58 83.57 46.07 0 83.56-37.49 83.56-83.57 0-46.08-37.49-83.57-83.56-83.57z"/>
	<path fill="url(#sunCore)" d="M299.4 312.85c-46.32 0-84-37.68-84-84s37.68-84 84-84c46.3 0 84 37.68 84 84s-37.69 84-84 84z"/>
	<path fill="url(#sunRays)" d="M299 124.17c-57.72 0-104.68 46.96-104.68 104.68 0 57.72 46.96 104.69 104.69 104.69 57.72 0 104.68-46.97 104.68-104.69s-46.96-104.68-104.68-104.68zm0 188.25c-46.08 0-83.57-37.49-83.57-83.57 0-46.08 37.5-83.57 83.58-83.57 46.07 0 83.56 37.5 83.56 83.57 0 46.08-37.49 83.57-83.56 83.57zm189.84-73.02h-56.75a10.56 10.56 0 0 1 0-21.1h56.75a10.56 10.56 0 0 1 0 21.1zm-322.14 0h-56.75a10.56 10.56 0 0 1 0-21.1h56.75a10.56 10.56 0 0 1 0 21.1zm132.7-132.69a10.56 10.56 0 0 1-10.57-10.56V39.41a10.56 10.56 0 0 1 21.12 0v56.74c0 5.83-4.72 10.56-10.55 10.56zm93.7 38.59a10.56 10.56 0 0 1-7.46-18.02l30.99-31a10.57 10.57 0 0 1 14.94 14.92l-31 31a10.52 10.52 0 0 1-7.46 3.1zm31.41 219.63c-2.7 0-5.4-1.03-7.46-3.1l-31.8-31.8a10.56 10.56 0 0 1 14.92-14.94l31.8 31.81a10.56 10.56 0 0 1-7.46 18.03zM204.88 145.3c-2.7 0-5.4-1.04-7.46-3.1l-31.34-31.34A10.56 10.56 0 1 1 181 95.93l31.34 31.34a10.56 10.56 0 0 1-7.47 18.02zm-31.34 219.62a10.57 10.57 0 0 1-7.47-18.03l31.81-31.8a10.56 10.56 0 0 1 14.93 14.93l-31.8 31.8a10.53 10.53 0 0 1-7.47 3.1z"/>
	<g fill="url(#darkCloud)" stroke="url(#darkCloud)">
		<path d="M304.02 373.12H72.86c-28.12 0-51-22.9-51-51.03a50.9 50.9 0 0 1 38.58-49.4c5-1.26 8.38-5.98 8-11.13a95.6 95.6 0 0 1-.34-6.9c0-49.36 40.16-89.51 89.53-89.51a89.16 89.16 0 0 1 75.22 41.13 10.63 10.63 0 0 0 12.58 4.23 44.17 44.17 0 0 1 15.13-2.73 44.2 44.2 0 0 1 44.15 44.14c0 2.36-.23 4.87-.71 7.7a10.63 10.63 0 0 0 8.68 12.26 50.82 50.82 0 0 1 42.37 50.2 51.09 51.09 0 0 1-51.03 51.04z"/>
		<path d="M325.79 253.27a65.49 65.49 0 0 0-65.4-66.76c-4.82 0-9.65.56-14.41 1.66a110.24 110.24 0 0 0-88.52-44.28c-61.08 0-110.78 49.69-110.78 110.77v.07A72.12 72.12 0 0 0 .44 322.08c0 39.87 32.41 72.3 72.26 72.3h231.15c39.86 0 72.3-32.43 72.3-72.3a72.02 72.02 0 0 0-50.36-68.8zm-21.94 119.85H72.69c-28.12 0-51-22.9-51-51.03a50.9 50.9 0 0 1 38.58-49.4 10.65 10.65 0 0 0 8-11.13c-.17-2.42-.34-4.7-.34-6.9 0-49.35 40.16-89.51 89.53-89.51a89.16 89.16 0 0 1 75.22 41.13 10.63 10.63 0 0 0 12.58 4.23 44.17 44.17 0 0 1 15.13-2.73 44.2 44.2 0 0 1 44.15 44.15c0 2.35-.23 4.87-.71 7.69a10.63 10.63 0 0 0 8.69 12.26 50.82 50.82 0 0 1 42.36 50.2 51.09 51.09 0 0 1-51.03 51.04z"/>
	</g>
</svg>
