<svg xmlns="http://www.w3.org/2000/svg" viewBox="0 0 100 100">
	<defs>
		<style>
			.cls-1{fill:none;}
			.cls-2,.cls-3{fill:#999;stroke-miterlimit:10;}
			.cls-2{stroke:#666;}
			.cls-3{stroke:gray;stroke-width:0.5px;}
			.cls-4{fill:#666;}
		</style>
	</defs>
	<title>anemo</title>
	<rect fill="none" width="100" height="100"/>
	<g fill="#999" stroke-miterlimit="10">
		<path stroke="#666" d="M50,49.3a9.8,9.8,0,0,1-5.6-1.9L40.6,91.6H59.4L55.6,47.4A9.8,9.8,0,0,1,50,49.3"/>
		<g fill="#666">
			<path d="M53.5,46H46.5V14.8s3.5-7.3,7.1,0Z"/>
			<path d="M48.2,49.1l3.5-6.1,27,15.6s4.6,6.7-3.5,6.1Z"/>
			<path d="M48.4,43l3.5,6.1-27,15.6s-8.1.6-3.5-6.1Z"/>
			<animateTransform attributeName="transform" type="rotate" from="0 50 46.2" to="360 50 46.2" begin="1s" dur="60s" repeatCount="indefinite"/>
		</g>
		<path stroke="gray" stroke-width="0.5" d="M79.8,92.8H20.2a1.2,1.2,0,0,1,0-2.4H79.8a1.2,1.2,0,0,1,0,2.4Z"/>
		<circle stroke="#666" cx="50" cy="46" r="6"/>
	</g>
</svg>
