<svg id="Layer_1" data-name="Layer 1" xmlns="http://www.w3.org/2000/svg" xmlns:xlink="http://www.w3.org/1999/xlink" viewBox="0 0 82.91 82.93">
  <defs>
    <style>
      .cls-1 {
        fill: #fff;
      }

      .cls-2 {
        mask: url(#mask);
      }

      .cls-3 {
        mask: url(#mask-2-2);
      }
    </style>
    <mask id="mask" x="13.13" y="23.93" width="69.78" height="56.98" maskUnits="userSpaceOnUse">
      <g transform="translate(-0.04 -0.04)">
        <g id="mask-2">
          <polygon id="path-1" class="cls-1" points="82.96 23.97 82.96 80.95 13.18 80.95 13.18 23.97 82.96 23.97"/>
        </g>
      </g>
    </mask>
    <mask id="mask-2-2" x="0" y="0" width="70.97" height="60.85" maskUnits="userSpaceOnUse">
      <g transform="translate(-0.04 -0.04)">
        <g id="mask-4">
          <polygon id="path-3" class="cls-1" points="0.04 60.89 0.04 0.04 71.02 0.04 71.02 60.89 0.04 60.89"/>
        </g>
      </g>
    </mask>
  </defs>
  <title>black</title>
  <g id="Page-1">
    <g>
      <g id="Group-3">
        <path id="Fill-1" d="M46.47,80.76c-.24,0-.48,0-.72,0a3.62,3.62,0,0,0-1,.06s-.11,0-.11,0a1.6,1.6,0,0,1-.41,0,.82.82,0,0,0-.35,0c-.15,0-.25-.07-.39-.07h-.61a2.28,2.28,0,0,1-.63-.06,2.06,2.06,0,0,0-.61,0,1.61,1.61,0,0,1-.54,0c-.17-.08-.35,0-.5-.12a.48.48,0,0,0-.31-.07c-.42,0-.82-.08-1.24-.08a.33.33,0,0,1-.25,0,.2.2,0,0,0-.27,0,.61.61,0,0,0-.51,0c-.06,0-.13,0-.18,0a5.44,5.44,0,0,0-1.12-.18c-.29-.06-.57,0-.87-.07a2.23,2.23,0,0,0-.86-.08.09.09,0,0,1-.09,0,3.09,3.09,0,0,0-.78-.2c-.07,0-.14-.06-.21-.06a2.73,2.73,0,0,1-.75-.17,1.92,1.92,0,0,0-.82-.18,2.17,2.17,0,0,1-.41-.09A4.05,4.05,0,0,0,30.76,79c-.15-.13-.35-.1-.51-.17a1.26,1.26,0,0,0-.57-.11s0,0-.06,0a7.16,7.16,0,0,1-1-.44L28,78l-.57-.21a3,3,0,0,1-.52-.24c-.16-.1-.37-.14-.55-.24l-1.13-.56c-.1-.06-.23-.07-.32-.13a6.56,6.56,0,0,0-.9-.49,3.42,3.42,0,0,1-.62-.35,3.5,3.5,0,0,0-.58-.36c-.3-.14-.57-.32-.86-.47-.07,0-.13-.11-.19-.11s-.16-.13-.18-.16a2,2,0,0,0-.4-.26,1.84,1.84,0,0,1-.71-.36c-.21-.16-.51-.21-.65-.48a.12.12,0,0,0-.08-.06c-.11,0-.15-.07-.23-.11-.23-.14-.44-.3-.67-.43s-.5-.35-.75-.52c-.08-.06-.2-.1-.23-.18-.09-.24-.32-.34-.49-.47a6.85,6.85,0,0,1-.9-.71c-.06-.06-.15-.1-.21-.15a3.15,3.15,0,0,1-.29-.22c-.11-.1-.2-.25-.32-.3a1.7,1.7,0,0,1-.5-.38,5,5,0,0,0-.71-.66,2.23,2.23,0,0,1-.27-.26,1.38,1.38,0,0,0-.26-.22c-.11-.06-.15-.2-.23-.25a1.61,1.61,0,0,1-.28-.24c-.23-.24-.44-.5-.68-.74s-.45-.36-.65-.58c-.36-.42-.75-.81-1.13-1.22a.46.46,0,0,1-.07-.07c-.26-.44-.64-.78-.92-1.2a2.21,2.21,0,0,0-.37-.43c-.13-.12-.17-.3-.31-.43a8.48,8.48,0,0,1-.62-.8c-.1-.12-.23-.24-.22-.4a3.59,3.59,0,0,1-.82-1.23l-.34-.44a2.07,2.07,0,0,0-.17-.24,6.8,6.8,0,0,1-.63-1c-.05-.07,0-.17-.08-.24l-.53-.78c0-.07-.13-.14-.13-.22,0-.26-.31-.39-.33-.66a1.16,1.16,0,0,1-.31-.69.59.59,0,0,0-.12-.22c-.2-.22-.17-.54-.36-.75a1.18,1.18,0,0,0-.24-.66L4,54.82A4.22,4.22,0,0,0,3.69,54s0-.09,0-.13a.84.84,0,0,1,.57-.09c.28.17.61.22.87.41.3,0,.51.24.8.3a4.26,4.26,0,0,1,.73.32c.25.11.46.3.71.42s.42.25.64.2l.18-.15a9.62,9.62,0,0,0,0-1.62,1.64,1.64,0,0,0-.07-.73A9.71,9.71,0,0,0,8,51.72c0-.3,0-.6-.07-.9,0,0,0,0,0,0a2.32,2.32,0,0,1,0-1.11.82.82,0,0,0,0-.27,1,1,0,0,1,0-.64A1,1,0,0,0,8,48.41c0-.47.07-.94.07-1.41a.65.65,0,0,1,0-.21c-.12-.28.06-.61-.11-.87a.51.51,0,0,0,.07-.15,1.49,1.49,0,0,1,.06-.63.18.18,0,0,0,0-.16.39.39,0,0,1,0-.43.54.54,0,0,0,0-.51.16.16,0,0,1,0-.15c.09-.08,0-.17.06-.26,0-.39,0-.78.07-1.17,0,0,0-.06,0-.07s0-.27.1-.41a1,1,0,0,0,0-.46A1.48,1.48,0,0,1,8.54,41c0-.08,0-.14-.06-.2a1,1,0,0,1,0-.25,1.09,1.09,0,0,0,.07-.24c0-.3.13-.58.14-.87.11-.08.05-.19.06-.29a5.06,5.06,0,0,1,.06-.66,3.5,3.5,0,0,0,.08-1.07,1.07,1.07,0,0,1,0-.44A3.45,3.45,0,0,0,9,36.53a1.54,1.54,0,0,0,0-.48.53.53,0,0,0,.14-.43.34.34,0,0,1,0-.2,7.73,7.73,0,0,0,.26-1.27,4.83,4.83,0,0,1,.14-.66,1.7,1.7,0,0,1,.28-.77l-.07-.12c.08-.39.14-.75.21-1.12l.12-.11V31c.28-.57.44-1.16.77-1.73V29l.1,0a3.28,3.28,0,0,1,.22-.67c.11-.16.26-.31.22-.53a3.46,3.46,0,0,0,.34-.82,1,1,0,0,0,.07-.18,1,1,0,0,1,.22-.6c.25-.32.35-.73.59-1.06,0,0,0-.08,0-.1l.26-.26v-.12l.41-.5v-.21a3.73,3.73,0,0,0,.67-1c.05-.08,0-.21.09-.27a6.37,6.37,0,0,0,.56-.8,5.28,5.28,0,0,0,.44-.68h.05c.25-.35.49-.72.77-1.05,0-.14.21-.19.16-.35l0,0c.2,0,.23-.19.32-.33s.1-.23.24-.31a2.41,2.41,0,0,0,.44-.46c.08-.08.13-.21.22-.25s.15-.18.21-.29.07,0,.09,0l.32-.31.33-.31a3.35,3.35,0,0,1,.49-.43,1.53,1.53,0,0,0,.53-.51c.14-.22.34-.27.52-.38a1.21,1.21,0,0,1,.34-.37,1.81,1.81,0,0,0,.49-.37,1.29,1.29,0,0,1,.2-.09c.09-.06.21-.14.32-.23l.43-.36a2,2,0,0,1,.55-.21.89.89,0,0,1,.09.26,1.35,1.35,0,0,1-.08.69.31.31,0,0,0,0,.12,1.76,1.76,0,0,1-.13.74c0,.1-.06.22-.11.33l0,0,.07.1c-.15.13-.12.33-.2.49s-.14.66-.36.92c0,0,0,.05,0,.07a1.83,1.83,0,0,0-.07.32c0,.12,0,.25,0,.37a3.46,3.46,0,0,0-.28.82,1.57,1.57,0,0,1-.1.44,3.86,3.86,0,0,0-.17.55,1.71,1.71,0,0,0-.14.56,1.44,1.44,0,0,1-.13.32.65.65,0,0,0-.07.21c0,.16-.07.28-.09.42a3.45,3.45,0,0,0-.12.46v.45c0,.13-.16.25,0,.39-.14.22,0,.44,0,.62l.29.29a3.25,3.25,0,0,0,.71-.54c.09-.1.24-.12.32-.21a1.34,1.34,0,0,1,.27-.26,3.51,3.51,0,0,0,.79-.65.64.64,0,0,1,.19-.13,6.38,6.38,0,0,0,.6-.46c.08-.07.16-.21.25-.21s.16-.13.26-.18.38-.25.58-.35a3.51,3.51,0,0,0,.4-.27,2,2,0,0,1,.41-.18c.09-.09.13-.19.18-.19a1.5,1.5,0,0,0,.46-.22c.16-.09.35-.14.46-.31.13,0,.18-.17.34-.18a1,1,0,0,0,.33-.17,3.23,3.23,0,0,0,.43-.34,2.18,2.18,0,0,0,.85-.47c.29-.26.7-.27,1-.52,0,0,0,0,0,0,.19,0,.32-.16.47-.18a1.51,1.51,0,0,0,.53-.25h.27l.1-.12A.63.63,0,0,0,31,18c.17-.09.38-.13.56-.21a1.4,1.4,0,0,1,.53-.23c.16,0,.3-.14.47-.18a1.5,1.5,0,0,0,.51-.15c.16-.1.35,0,.5-.12A1,1,0,0,1,33.9,17a1.64,1.64,0,0,0,.44-.09,5.12,5.12,0,0,1,.85-.24,2.6,2.6,0,0,0,.44-.1.94.94,0,0,1,.54-.11c.07,0,.15,0,.2,0,.2-.15.49-.07.68-.26.15,0,.28-.11.45-.08a.47.47,0,0,0,.33,0c.21-.12.43,0,.64-.11a1.93,1.93,0,0,1,.68,0h.61l.27-.14.13.07c.15.05.28-.08.42-.06a1.68,1.68,0,0,0,.45.06l.09,0a.85.85,0,0,1,.59,0l.81-.12c.09.12.21.07.32.07h.55a.49.49,0,0,1,.17.05,4.83,4.83,0,0,1,1.86.1c.07.08.2.13.15.29a8.51,8.51,0,0,0-1.2,1.27h-.14a2.65,2.65,0,0,1-.33.34,3.61,3.61,0,0,0-.62.49,1.53,1.53,0,0,1-.21.14,2.6,2.6,0,0,0-.31.25,4.7,4.7,0,0,1-.58.51q-.47.3-.9.63a.5.5,0,0,0-.22.42,1.41,1.41,0,0,0,.73.46,1.36,1.36,0,0,0,.35.07,3,3,0,0,1,.69.23.73.73,0,0,0,.33.12.57.57,0,0,1,.36.11c.14.12.33.1.45.23a3,3,0,0,1,.93.32,7.38,7.38,0,0,0,1.17.48c.17,0,.27.16.44.19a1.32,1.32,0,0,1,.43.21,1.08,1.08,0,0,0,.36.11c.12,0,.21.17.33.19a1.34,1.34,0,0,1,.4.19,2.16,2.16,0,0,0,.76.41,2.85,2.85,0,0,1,.41.18,3,3,0,0,1,.69.31.82.82,0,0,0,.34.16.38.38,0,0,1,.17.08l.86.58a1.36,1.36,0,0,1,.38.24,1.78,1.78,0,0,0,.52.39,2.37,2.37,0,0,1,.46.32c.15.14.32.25.48.39s.43.35.64.54c0,0,.07.13.12.18a.64.64,0,0,0,.19.13,1,1,0,0,1,.33.27c.09.09.21.16.24.31.26.1.39.34.58.51a2.36,2.36,0,0,1,.51.58.4.4,0,0,0,.15.14,1.3,1.3,0,0,1,.45.39,4.25,4.25,0,0,1,.47.48,4.53,4.53,0,0,0,.54.61l.58.65a2.1,2.1,0,0,1,.15.3l-.12.14h-.12c-.29.05-.57.13-.86.17a3.74,3.74,0,0,1-.67.1H56c-.15.08-.26.17-.42.14a2.53,2.53,0,0,0-.72.08c-.19,0-.29.18-.44.31,0,.2.07.4.1.6a1.06,1.06,0,0,1,.12.2,1.46,1.46,0,0,0,.27.58c.05.05.05.16.08.24s.09.42.23.54c.22.71.5,1.35.71,2a.7.7,0,0,0,.15.49.58.58,0,0,1,.07.21l.27.84a3.49,3.49,0,0,1,.2.88c0,.29.16.54.17.83s.14.33.11.5.07.37.07.56a3.92,3.92,0,0,0,.06,1.08.29.29,0,0,1,0,.22.28.28,0,0,0,0,.28.28.28,0,0,1,0,.13c0,.2,0,.41,0,.62a2.69,2.69,0,0,1,0,.56,4.16,4.16,0,0,0,0,.61.14.14,0,0,1,0,.06A.94.94,0,0,0,57,45l-.11.11c0,.09,0,.21,0,.26-.17.22-.14.49-.26.73a1.06,1.06,0,0,1-.18.35h-.21a7.51,7.51,0,0,1-.66-.72c-.1-.15-.18-.34-.39-.38v-.25c-.42-.32-.56-.84-.87-1.27l-.39-.08a2.79,2.79,0,0,0-.37.42,4.11,4.11,0,0,0-.42,1c-.05.2-.12.39-.18.58s-.22.35-.23.56c-.22.18-.19.5-.4.7a1,1,0,0,0-.21.42,1.76,1.76,0,0,1-.32.66.43.43,0,0,0,0,.17,2.2,2.2,0,0,0-.53.8,1.14,1.14,0,0,1-.16.31,1.53,1.53,0,0,0-.19.3,10.22,10.22,0,0,1-1,1.46,2.26,2.26,0,0,0-.27.51s0,.06,0,.08a3.56,3.56,0,0,1-.45.42c-.2.13-.32.37-.56.46a.18.18,0,0,0-.07.08c0,.15-.18.2-.29.29a4.84,4.84,0,0,1-1.3.76l-.11-.11c0-.1-.06-.23.06-.33.08-.4.28-.76.39-1.15,0-.15.09-.3.14-.46h0v-1l-.24-.25h-.52a3.87,3.87,0,0,1-1.15.34c-.07,0-.15,0-.2,0s-.16,0-.22,0-.14,0-.22,0a.36.36,0,0,0-.23,0,.86.86,0,0,1-.67,0l-.06,0c-.36-.12-.73,0-1.07-.08s-.74.08-1.08-.1c-.36,0-.68-.2-1-.14l-.1-.11-.29-.08a7.4,7.4,0,0,1-.89-.34,2.65,2.65,0,0,1-.79-.39l-.05,0c-.26,0-.39-.17-.57-.3a2.06,2.06,0,0,0-.68-.41.28.28,0,0,0-.17-.24,1.19,1.19,0,0,1-.42-.38c-.09-.1-.15-.19-.3-.19s-.08,0-.11-.05l-.31.15v.18l.24.34a1.09,1.09,0,0,0,.27.33,5.27,5.27,0,0,1,.68.57c.26.23.55.4.81.61a3.54,3.54,0,0,0,.51.35c.18.11.38.2.55.31a4.2,4.2,0,0,0,1.16.53,2.18,2.18,0,0,1,.23.09c.23.09.46.17.68.27a4.79,4.79,0,0,0,.75.17.89.89,0,0,0,.28.07,1.94,1.94,0,0,1,.72.07h1.37s0,0,.07,0c.31-.21.72-.11,1-.34h.1a2,2,0,0,1,.76-.07l.05,0,.07.15a.58.58,0,0,0-.05.14,2.72,2.72,0,0,1-.22.7c-.09.2-.19.38-.27.58a1.53,1.53,0,0,1-.17.27l-.12.19-.39.7a7.87,7.87,0,0,1-.39.7.38.38,0,0,0-.08.3l.3.39a2.84,2.84,0,0,0,.78-.24c.07,0,.15-.11.22-.11.26,0,.42-.22.66-.23.3-.27.75-.31,1-.66.47-.17.73-.64,1.2-.81.09,0,.15-.14.22-.21s.18-.24.3-.28a1.63,1.63,0,0,0,.59-.48,5,5,0,0,0,.46-.46,2.86,2.86,0,0,1,.46-.46,1.22,1.22,0,0,0,.24-.34c.11-.19.16-.42.4-.52.09,0,.14-.17.21-.25.23-.27.32-.63.62-.83,0,0,0-.1,0-.12a4.88,4.88,0,0,0,.34-.58c.13-.25.27-.48.41-.73s.25-.86.55-1.21c.07-.43.33-.79.41-1.21a.69.69,0,0,1,.1-.19l.27-.08a2,2,0,0,1,.22.31s0,.13,0,.19a.47.47,0,0,0,.06.15c.19.26.2.61.41.86,0,.23.23.37.21.6.16.13.11.34.2.5a4,4,0,0,1,.22.57c0,.16.06.37.24.48s.27-.13.39-.21a3.65,3.65,0,0,0,1-1.48c.05-.11.08-.23.14-.35s.14-.38.21-.56a2.17,2.17,0,0,1,.17-.42c.08-.14,0-.3.1-.44s0-.26.08-.34,0-.24,0-.36a0,0,0,0,1,0,0c.09-.22,0-.48.14-.69a1.26,1.26,0,0,0,.06-.42c0-.1,0-.21,0-.28a1,1,0,0,0,.06-.49c0-.18.1-.33.07-.52s0-.55-.07-.83a.14.14,0,0,0,0-.06.61.61,0,0,1,0-.51.28.28,0,0,0,0-.2c-.11-.18,0-.39-.07-.55a1.81,1.81,0,0,1-.06-.56,1,1,0,0,0,0-.24,4.05,4.05,0,0,1-.16-.83c0-.1-.09-.2-.11-.3a2.41,2.41,0,0,1,0-.38.59.59,0,0,1-.13-.32,2.47,2.47,0,0,0-.11-.47c0-.22-.24-.4-.17-.64a1.8,1.8,0,0,1-.2-.31,6.25,6.25,0,0,1-.21-.74,2.52,2.52,0,0,0-.41-.84c0-.09,0-.2,0-.31a6.85,6.85,0,0,0-.37-.71,4,4,0,0,1-.47-1c.06-.09.12-.16.14-.2.82-.08,1.6-.06,2.37-.18,0,0,0,0,0,0l.19,0h.17a1.34,1.34,0,0,1,.18-.07h.37c.06,0,.12,0,.19-.07.17.22.33-.06.51,0v-.33L59.34,31l-.49-.64c-.16-.23-.3-.48-.47-.7s-.53-.58-.8-.88c-.08-.09-.16-.2-.24-.31s0-.1-.07-.14c-.29-.28-.55-.59-.82-.89a3.86,3.86,0,0,0-.54-.53c-.21-.15-.33-.38-.52-.54s-.13-.08-.18-.13a2.87,2.87,0,0,1-.58-.51,3.74,3.74,0,0,0-.72-.66,4.07,4.07,0,0,0-.48-.33,2.7,2.7,0,0,0-.5-.37c-.17-.07-.27-.29-.49-.28,0,0,0-.05-.07-.07s-.3-.23-.45-.33a2.21,2.21,0,0,1-.62-.47c-.32,0-.5-.34-.84-.36a.94.94,0,0,0-.49-.33,2.5,2.5,0,0,0-.53-.23A2.43,2.43,0,0,1,48.9,22c-.1-.06-.21-.1-.31-.15s-.46-.12-.63-.3a.67.67,0,0,0-.23-.1l-.24-.14a1,1,0,0,1-.63-.17,1.09,1.09,0,0,0-.34-.17c-.24-.05-.44-.19-.68-.26a9.67,9.67,0,0,0-1.18-.29c-.12,0-.26,0-.34-.08s-.25,0-.33-.11l-.05-.05V20l.15-.26c0-.07.07-.17.12-.19.21-.05.33-.24.52-.32A1.48,1.48,0,0,0,45,19c.06-.05.1-.13.17-.17.42-.22.71-.61,1.11-.86s.59-.48.92-.67c.17-.1.37-.2.44-.38.29-.18.62-.24.81-.5.28,0,.42-.26.65-.3,0-.16.25-.24.1-.48a.82.82,0,0,0-.43-.29,2.48,2.48,0,0,1-.55-.24h0a.53.53,0,0,1-.36-.15,1.14,1.14,0,0,0-.78-.27.45.45,0,0,1-.22,0,1.08,1.08,0,0,0-.44-.09,1.65,1.65,0,0,1-.5-.11c-.17,0-.36-.06-.53-.12a2.13,2.13,0,0,0-.5-.11c-.07,0-.14,0-.19.05a1.08,1.08,0,0,0-.79,0,.46.46,0,0,0-.07-.07L43,14.12a.64.64,0,0,1-.2,0c-.09-.05-.14,0-.24,0a.72.72,0,0,1-.4.08,1.4,1.4,0,0,0-.28-.06,1.21,1.21,0,0,1-.2-.07s-.06.07-.09.07a2.14,2.14,0,0,0-.35-.06c-.12,0-.28.09-.37,0a2,2,0,0,0-.6-.06l-.06,0-.12.12c-.12,0-.24,0-.35-.06a.24.24,0,0,0-.23,0c-.17.1-.35,0-.53.06a.54.54,0,0,0-.22,0c-.12.09-.2,0-.24,0a1.67,1.67,0,0,1-.24.07,3.53,3.53,0,0,0-.58.08,3.71,3.71,0,0,1-.8.13.54.54,0,0,0-.22,0,2.24,2.24,0,0,1-.45.09,2.78,2.78,0,0,1-.5.11c-.29,0-.54.23-.76.18a2.63,2.63,0,0,1-.73.19c-.1,0-.25,0-.3,0s-.25,0-.37.12-.27,0-.4.09a4.1,4.1,0,0,1-.7.23,2.23,2.23,0,0,0-.58.24,1.94,1.94,0,0,1-.74.21,4.15,4.15,0,0,1-.7.29,7.09,7.09,0,0,0-.69.32,2.22,2.22,0,0,0-.64.35c-.28-.05-.43.21-.67.29a7.44,7.44,0,0,0-.67.37,2,2,0,0,1-.7.34l-.13.18h-.22l-.24.26a.4.4,0,0,0-.18,0,7.13,7.13,0,0,1-1.14.73c-.08,0-.14.18-.22.2-.29.06-.46.3-.72.42s-.28.31-.51.35-.34.2-.47.35-.32.21-.48.33-.13.1-.31-.05c.06-.14,0-.29.05-.45a1.71,1.71,0,0,0,0-.51l.1,0a2.25,2.25,0,0,0,.09-.35,1.11,1.11,0,0,1,.13-.36,1.72,1.72,0,0,0,.22-.84,1.64,1.64,0,0,1,.12-.4,1.35,1.35,0,0,1,.16-.61c.12-.23.07-.5.25-.69a1.35,1.35,0,0,1,.05-.5c.06-.15.06-.3.11-.43a4.3,4.3,0,0,0,.08-.45c.06-.24.29-.41.25-.69a1.15,1.15,0,0,0,.14-.6.53.53,0,0,1,0-.12,7.51,7.51,0,0,1,.44-1.2s0-.09,0-.13.09-.35.15-.52.22-.51,0-.75c-.4-.21-.79,0-1.18,0l-.64.37a5.38,5.38,0,0,0-.66.38c-.27,0-.42.26-.69.29a1.08,1.08,0,0,1-.74.41c-.08,0-.16.1-.24.16a1.06,1.06,0,0,1-.26.2,1,1,0,0,0-.26.19c-.17.14-.33.3-.51.43a1.28,1.28,0,0,1-.29.13,1.45,1.45,0,0,0-.32.29,1,1,0,0,1-.34.27c0,.19-.21.17-.29.28a.66.66,0,0,1-.24.23c-.12,0-.12.17-.21.24s-.2,0-.24.2-.16.13-.23.2-.12.19-.2.26a9.93,9.93,0,0,1-.72.73.8.8,0,0,0-.13.19c-.16.19-.31.38-.48.56s-.12.08-.17.16a2.79,2.79,0,0,1-.31.39,3.49,3.49,0,0,0-.47.56,6.86,6.86,0,0,1-.48.59c-.26.38-.59.72-.87,1.06a1.14,1.14,0,0,1-.09.19c-.06.08-.18.14-.21.23-.08.28-.31.44-.47.66a8.56,8.56,0,0,0-.63.94,2.05,2.05,0,0,0-.31.56c-.25.22-.32.58-.58.79a4,4,0,0,1-.6,1s0,0,0,.06a3.05,3.05,0,0,1-.38.74.42.42,0,0,0-.1.36,2,2,0,0,0-.43.72,1.51,1.51,0,0,1-.1.17l-.09.17a6.4,6.4,0,0,1-.43.92,2.14,2.14,0,0,0-.26.55,6.55,6.55,0,0,1-.27.74,5.42,5.42,0,0,1-.29.74.48.48,0,0,0,0,.26.28.28,0,0,1,0,.09l-.13.13a.33.33,0,0,1-.13.35c0,.19-.13.31-.15.49a.76.76,0,0,1-.2.51c0,.12,0,.2-.11.29s0,.24-.09.34a1.13,1.13,0,0,0-.13.5,1.63,1.63,0,0,1-.14.49,2.77,2.77,0,0,0-.28,1.23.54.54,0,0,0-.14.42,1,1,0,0,1,0,.29A4.74,4.74,0,0,0,6.69,36a5,5,0,0,1-.14.94.79.79,0,0,0,0,.22c0,.27,0,.55-.07.83a.14.14,0,0,1,0,.06,1.41,1.41,0,0,0-.12.5c0,.19-.11.36-.07.56a.34.34,0,0,1,0,.2c-.1.15,0,.31-.07.46s-.05.32-.06.49S6,40.73,6,41a.41.41,0,0,1,0,.09.81.81,0,0,0-.08.57.49.49,0,0,1,0,.13c0,.28-.12.55-.14.83a6.44,6.44,0,0,0-.09,1.07c0,.32,0,.64,0,1a.83.83,0,0,1-.06.21.34.34,0,0,1,0,.37.71.71,0,0,0,0,.4c0,.18.07.36.07.55,0,.89,0,1.77.07,2.66a.66.66,0,0,0,.06.22.36.36,0,0,0-.06.37,2.4,2.4,0,0,1,.06.7s0,.11,0,.13,0,.2.06.29.06.21.07.32a4.16,4.16,0,0,0,.06.93.83.83,0,0,1-.09.55.59.59,0,0,1-.46-.1.75.75,0,0,0-.2-.1,6.3,6.3,0,0,1-1.49-.69c-.07,0-.13-.13-.19-.13-.23,0-.4-.15-.59-.22a2.31,2.31,0,0,1-.53-.4c-.15,0-.25-.13-.38-.22s-.26-.25-.41-.33a8.3,8.3,0,0,1-1.26-.9c-.24.05-.28.12-.27.52a.76.76,0,0,1,.14.36,3,3,0,0,1,.06.66.18.18,0,0,0,0,.1c.18.25.08.59.25.85a7.06,7.06,0,0,0,.24,1,3.46,3.46,0,0,0,.23.66c.12.37.23.75.35,1.12a7.73,7.73,0,0,0,.47,1.17,1.48,1.48,0,0,0,.29.82c.06.09.08.2.13.29s0,.25.1.34a8.82,8.82,0,0,1,.51,1c.1.17.13.39.24.55s.26.44.38.67a3,3,0,0,0,.27.54,3.4,3.4,0,0,1,.29.57s0,0,.07.08a6.07,6.07,0,0,1,.45.74,1.37,1.37,0,0,0,.29.42c0,.2.14.31.23.42A7.84,7.84,0,0,1,6,63.34a1.22,1.22,0,0,0,.24.34,7,7,0,0,1,.69.86,8.23,8.23,0,0,0,.59.71.81.81,0,0,1,.18.2,2.16,2.16,0,0,0,.47.6c.13.13.27.25.39.39a4.08,4.08,0,0,0,.36.36.66.66,0,0,1,.14.15,7.22,7.22,0,0,0,.85,1c.17.19.36.36.53.54s.13.23.23.28a2.67,2.67,0,0,1,.47.42,6.48,6.48,0,0,0,.77.71,1.1,1.1,0,0,1,.26.3,1.91,1.91,0,0,0,.41.39l.4.41c.08.09.14.22.24.27a.8.8,0,0,1,.21.15c.35.32.67.67,1,1s1,.85,1.5,1.28a12.92,12.92,0,0,0,1.24,1,9,9,0,0,0,1,.64c.12.06.3.11.35.22s.2.16.31.23a5.85,5.85,0,0,1,.48.34,2.19,2.19,0,0,0,.39.29,3.81,3.81,0,0,1,.55.33,6.42,6.42,0,0,0,1.15.7.52.52,0,0,1,.22.12,1.06,1.06,0,0,0,.39.24l.16.1a7.81,7.81,0,0,0,1.22.77c.19.11.36.25.58.21a.94.94,0,0,0,.63.35.17.17,0,0,1,.11.06c.09,0,.17.1.25.14.29.14.58.27.86.42s.47.24.71.34a13.17,13.17,0,0,0,1.46.6l.88.28a6.52,6.52,0,0,1,.88.36.91.91,0,0,1,.53.13.67.67,0,0,0,.24.07c.33.06.64.18,1,.21.1.12.26.06.39.13a1.75,1.75,0,0,0,.41.08,2.83,2.83,0,0,1,.42.07,1.81,1.81,0,0,0,.83.13c.09.13.21.06.32.07a1.25,1.25,0,0,1,.19,0,5.43,5.43,0,0,0,1.06.24s.12,0,.17-.06l.45.13,0,0,.39,0a1.75,1.75,0,0,1,.72.07,2.11,2.11,0,0,0,.83.06s.06,0,.09-.08.09.08.13.08c.31,0,.61.1.93.08s.86,0,1.3,0a.93.93,0,0,1,.23,0,2.63,2.63,0,0,0,1.08,0c.09,0,.2,0,.26,0a.72.72,0,0,1,.19,0h1.24c.07,0,.18,0,.23,0s.29,0,.42-.06a1,1,0,0,1,.42-.06h.41a3.23,3.23,0,0,1,.44,0c.14,0,.26-.09.38-.07s.28-.06.42-.07l.41-.09a2.18,2.18,0,0,0,.48-.84,3.37,3.37,0,0,1,.32-.73s0,0,0,0L47,80.67a4.54,4.54,0,0,1-.51.09" transform="translate(-0.04 -0.04)"/>
      </g>
      <g id="Group-6">
        <g class="cls-2">
          <path id="Fill-4" d="M82.88,40.1a1.94,1.94,0,0,1,0-.54.61.61,0,0,0,0-.44.33.33,0,0,0,.06-.38,3.07,3.07,0,0,1-.07-.65c0-.36-.45-.33-.57-.6h-.06l-1.62-1-.26.08a.39.39,0,0,0,0,.47.52.52,0,0,1,.07.21,2.62,2.62,0,0,1,0,.28c0,1.13.07,2.27-.07,3.4a1.48,1.48,0,0,1,0,.46c-.05.1,0,.25,0,.4s0,0,0,.06a4.77,4.77,0,0,1-.07.76c0,.33-.05.65-.08,1a.32.32,0,0,1,0,.09,4.27,4.27,0,0,0-.17,1,6.25,6.25,0,0,0-.07.87v0a1.1,1.1,0,0,0-.14.73.25.25,0,0,1,0,.13c-.11.12,0,.2,0,.29a1.34,1.34,0,0,0-.14.47,2.33,2.33,0,0,1-.07.53,2.58,2.58,0,0,0-.14.67c0,.23,0,.46-.06.7a2.61,2.61,0,0,1-.09.69c0,.12,0,.27-.06.35s0,.24-.06.33a2.24,2.24,0,0,0-.27.88c0,.08,0,.16,0,.23a.52.52,0,0,0-.09.41c-.06.1-.14.18-.13.25a1.72,1.72,0,0,1-.15.64c-.08.25-.19.5-.27.75S78,53.9,78,54l-.1.1v.23c-.06.12-.11.19-.14.27a3.93,3.93,0,0,1-.19.58c-.27.56-.47,1.14-.78,1.69a.59.59,0,0,0-.06.14,3.7,3.7,0,0,1-.28.72,1.61,1.61,0,0,0-.2.33.84.84,0,0,1-.23.35,2.89,2.89,0,0,1-.59,1.16.69.69,0,0,1-.05.17,3.57,3.57,0,0,1-.33.56,3,3,0,0,0-.33.58,2,2,0,0,1-.29.5c-.13.16-.15.38-.33.5,0,0,0,0,0,0-.2.3-.43.6-.61.92s-.34.36-.44.62a2.19,2.19,0,0,1-.4.62,8.64,8.64,0,0,1-.77.93,3.07,3.07,0,0,0-.4.53c-.06.09-.1.21-.17.3-.26.32-.54.63-.8,1-.12.16-.3.26-.41.42a4.69,4.69,0,0,1-.47.53c-.1.12-.21.22-.3.35a3.18,3.18,0,0,1-.66.66,2.58,2.58,0,0,0-.5.49,1.94,1.94,0,0,1-.34.36,2,2,0,0,0-.38.33c-.11.14-.26.21-.37.35a1.58,1.58,0,0,1-.28.3,6.39,6.39,0,0,0-.89.76c-.25.23-.49.49-.73.73a1.15,1.15,0,0,1-.48.36s-.07.1-.12.14a.86.86,0,0,1-.14.13c-.08.07-.19.13-.24.23s-.11.11-.18.16a1.66,1.66,0,0,1-.21.16,3.76,3.76,0,0,0-.6.45.83.83,0,0,1-.21.17,4.07,4.07,0,0,0-.65.43,5.85,5.85,0,0,0-1.11.75h0c-.34.17-.62.42-1,.56l0,0a3.17,3.17,0,0,1-.85.53l-.62.34a7.15,7.15,0,0,1-.84.4,1.38,1.38,0,0,1-.32.07,1.09,1.09,0,0,1,0-.36.43.43,0,0,0,.06-.22,2.34,2.34,0,0,1,.14-.87.71.71,0,0,0,.06-.25c0-.26,0-.52.08-.77A1.65,1.65,0,0,0,58,74.2a.72.72,0,0,1,.06-.35c0-.09,0-.23,0-.34a2,2,0,0,0,.2-.61c.05-.35.06-.7.09-1l.07-.18-.17-.27c-.35-.06-.63.15-.95.17a1,1,0,0,0-.37.11c-.12,0-.27,0-.35.13s-.28,0-.36.14-.41.13-.63.15a1.46,1.46,0,0,0-.55.16,1.92,1.92,0,0,1-.73.16,3,3,0,0,1-.9.08.31.31,0,0,0-.12,0c-.25.07-.48.26-.77.23a1.66,1.66,0,0,1-.7.15c-.16,0-.32,0-.49.06l-.09,0a3.93,3.93,0,0,1-1.17.24,4.66,4.66,0,0,0-.91.14,2,2,0,0,1-.56.08,2,2,0,0,1-.59.07h-.1c-.1.09-.21.06-.32.07l-.35.07c-.1,0-.2,0-.3,0s-.21,0-.24.06-.16,0-.26,0a1.24,1.24,0,0,1-.4.1l-1,.16h-.1a2.22,2.22,0,0,0-.68,0,4.44,4.44,0,0,1-1.09.12H41.9a.92.92,0,0,0-.49,0c-.07,0-.19,0-.28,0v0h0c-.22.18-.52,0-.74.14a.18.18,0,0,1-.1,0s0,0,0,0a1.24,1.24,0,0,0-.16,0c-.78,0-1.54-.12-2.32-.07a1,1,0,0,1-.17,0,.76.76,0,0,1-.42-.06.88.88,0,0,0-.42-.08,1.89,1.89,0,0,1-.63-.09,10.51,10.51,0,0,0-1.4-.28,1,1,0,0,0-.55-.17,2.19,2.19,0,0,1-.62-.17,1.21,1.21,0,0,0-.37-.11.57.57,0,0,1-.37-.14.57.57,0,0,1-.4-.08.8.8,0,0,0-.39-.14,2.24,2.24,0,0,1-.46-.19L31,72.57a2.89,2.89,0,0,0-.7-.32.86.86,0,0,1-.47-.24,4.44,4.44,0,0,1-.59-.2c-.1,0-.16-.14-.29-.14s-.19-.08-.29-.13a7.43,7.43,0,0,1-.81-.37,6.17,6.17,0,0,0-.87-.4,2.77,2.77,0,0,1-.83-.4,5.25,5.25,0,0,0-.51-.28c-.06,0-.17,0-.2,0a4.13,4.13,0,0,0-.7-.41,4.5,4.5,0,0,0-.65-.42,2.18,2.18,0,0,1-.42-.24l-1-.76a3.57,3.57,0,0,1-.38-.25,3.73,3.73,0,0,1-.3-.26c-.1-.1-.24-.16-.35-.25a1.92,1.92,0,0,1-.29-.28c-.13-.13-.33-.19-.45-.33s-.35-.16-.39-.38a3.23,3.23,0,0,1-.75-.68l-.05,0a2.58,2.58,0,0,1-.55-.49l-.4-.35a2.3,2.3,0,0,1-.57-.55c-.09-.16-.1-.21,0-.38h.58c.14,0,.31,0,.41,0s.3,0,.4.13c.26,0,.51.1.77.13a1.52,1.52,0,0,0,.83-.09c.15-.15.38-.27.49-.52v-.44a.82.82,0,0,0-.1-.19,1.69,1.69,0,0,1-.37-.58.61.61,0,0,0-.07-.14,2,2,0,0,1-.49-.87.11.11,0,0,0,0-.06,5.14,5.14,0,0,1-.61-1.1,1.85,1.85,0,0,1-.19-.37,11.07,11.07,0,0,0-.63-1.29,9.2,9.2,0,0,1-.54-1.09c-.09-.2-.15-.41-.25-.59s-.09-.24-.18-.31,0-.23-.1-.34c-.12-.27-.24-.55-.35-.82a.92.92,0,0,1-.09-.28A.34.34,0,0,0,17.6,55a.39.39,0,0,1-.06-.15l-.17-.48c0-.08-.11-.16-.1-.23a2.22,2.22,0,0,0-.3-.92,1.66,1.66,0,0,1-.13-.43c-.06-.16-.1-.26-.13-.36a2,2,0,0,0-.19-.72.36.36,0,0,1,0-.1c.07-.31-.17-.57-.14-.87a9,9,0,0,1-.27-1.14c-.05-.18-.1-.38-.16-.55a1.63,1.63,0,0,1-.19-.72c0-.26,0-.51-.07-.77v0c-.14-.19-.09-.43-.15-.63a3.07,3.07,0,0,1,0-.67,1.46,1.46,0,0,0,0-.3,2,2,0,0,1-.12-.68,1.75,1.75,0,0,0-.06-.6,1.59,1.59,0,0,1,0-.52,1.72,1.72,0,0,1,0-.18,3.35,3.35,0,0,1,0-.55c0-.09-.13-.12,0-.2a6.57,6.57,0,0,0,0-1,.86.86,0,0,1,0-.57.27.27,0,0,0,0-.2c-.09-.09-.05-.19-.06-.29v-.73a1.68,1.68,0,0,1,.07-.7,1.8,1.8,0,0,0,.06-.36l-.07-.08s.08-.11.07-.16.08-.35.08-.53a2.67,2.67,0,0,1,.06-.56c0-.22,0-.46.06-.7a7.85,7.85,0,0,1,.16-1,1.54,1.54,0,0,1,.25-.6l.5.58a.37.37,0,0,1,.07.12,1.27,1.27,0,0,0,.34.62,2.24,2.24,0,0,1,.36.64,2.76,2.76,0,0,0,.25.52l.09.17c.14.33.28.65.44,1a1.88,1.88,0,0,0,.57.8s0,0,0,.06a2.63,2.63,0,0,0,.61.77.21.21,0,0,0,.21-.1,1,1,0,0,0,.16-.32c0-.11.15-.19.19-.3s.19-.31.14-.5c.15-.12.1-.32.2-.47s.21-.44.32-.66a21.46,21.46,0,0,1,1.07-2c.17-.28.35-.55.54-.84A1.42,1.42,0,0,1,22.5,35a.5.5,0,0,1,.08-.3A2.15,2.15,0,0,0,23,34s.08-.08.11-.13a2.54,2.54,0,0,0,.16-.28s0-.09,0-.12a13.66,13.66,0,0,1,.89-1.12,1,1,0,0,0,.33-.59c.09-.1.22-.18.28-.3a3.21,3.21,0,0,1,.42-.48c.15-.17.29-.35.44-.51s.26-.38.48-.49c0,0,.06-.06.09-.1a1.69,1.69,0,0,0,.3-.36c.07-.15.28-.16.3-.35s.22-.18.33-.27a2.81,2.81,0,0,0,.34-.35c.09-.1.23-.14.3-.28a.54.54,0,0,1,.28-.23,1.34,1.34,0,0,0,.37-.25,3.11,3.11,0,0,1,.32-.31,7.15,7.15,0,0,0,.76-.6,1.2,1.2,0,0,1,.45-.32,1.86,1.86,0,0,0,.45-.27l.3-.16.21.12-.09,1.17s0,.06,0,.09a2.53,2.53,0,0,1-.18.55c-.07.18-.11.37-.19.55a1.64,1.64,0,0,0-.16.8c0,.18-.08.37-.07.56s-.06.11-.06.18,0,.15-.05.23.05.11.05.16,0,.22-.05.34.08.19.13.31a3.8,3.8,0,0,0,.58-.06c.3-.1.57-.28.86-.4a1.22,1.22,0,0,1,.24-.1,3.74,3.74,0,0,0,.8-.33,1.22,1.22,0,0,0,.23-.1c.15-.09.33-.09.48-.18a1.35,1.35,0,0,1,.49-.16s.1-.09.13-.12a2.22,2.22,0,0,0,.38,0,2,2,0,0,1,.76-.18s.05,0,.08,0a5.66,5.66,0,0,1,.82-.28,5.32,5.32,0,0,0,.69-.16,4.44,4.44,0,0,0,.63-.15,1.41,1.41,0,0,1,.64-.13.13.13,0,0,0,.09,0c.14-.1.32-.06.47-.11s.35,0,.52-.07a3.85,3.85,0,0,1,.59,0c.23,0,.46-.1.69-.08,0,0,.07,0,.06,0l.3.05.25.07a.28.28,0,0,1,.34-.06.38.38,0,0,0,.41,0s0,0,.07,0h.27c.09,0,.17.06.25.07s.44,0,.65,0l.61.08.2.16v.21a1.33,1.33,0,0,1-.73.38,1.08,1.08,0,0,0-.3.11,2.5,2.5,0,0,0-.39.23,1.65,1.65,0,0,1-.54.29,1.9,1.9,0,0,0-.72.57V31a1.34,1.34,0,0,0,.61.38,6.67,6.67,0,0,1,1.34.53s.08,0,.19,0l.14.17c.06.06.15,0,.24.09a2,2,0,0,0,.73.39,2.45,2.45,0,0,1,.52.24,1.79,1.79,0,0,0,.22.13,6.4,6.4,0,0,1,1.28.77,3.24,3.24,0,0,1,.31.24,1.51,1.51,0,0,1,.28.22,1.68,1.68,0,0,0,.34.2,6,6,0,0,1,1.18.9s.06.08.1.09a2.19,2.19,0,0,1,.65.52,2.42,2.42,0,0,0,.32.32,2.69,2.69,0,0,1,.63.63,1.25,1.25,0,0,0,.31.23l.46-.25v-.27c-.17-.21-.34-.4-.48-.6a7.36,7.36,0,0,0-.62-.74,5.72,5.72,0,0,0-1.1-.92,8,8,0,0,1-.9-.75,2.67,2.67,0,0,0-.32-.24,4.55,4.55,0,0,1-.64-.44,4.47,4.47,0,0,0-.72-.51,1.66,1.66,0,0,1-.43-.3c-.11-.11-.22-.22-.37-.21a3.6,3.6,0,0,0-.62-.4c-.3-.11-.57-.28-.91-.43a.6.6,0,0,1-.45-.13c-.14-.09-.34-.08-.44-.27a1.46,1.46,0,0,1,.32-.21,5.87,5.87,0,0,0,.63-.24c.24-.08.47-.21.71-.28a5.59,5.59,0,0,0,.57-.22,1.1,1.1,0,0,1,.41-.16,1,1,0,0,0,.46-.15.55.55,0,0,1,.28-.07.48.48,0,0,0,.34-.16v-.25l-.16-.07a1.51,1.51,0,0,1-.28-.15,1.81,1.81,0,0,0-.33-.2l-.62-.34a1.19,1.19,0,0,1-.66-.21,1.25,1.25,0,0,1-.53-.07,4.11,4.11,0,0,0-1.09-.2c-.21,0-.41-.08-.61-.12a.74.74,0,0,0-.39,0,.67.67,0,0,1-.46,0,.55.55,0,0,0-.45,0c-.06,0-.07,0-.1,0a1.77,1.77,0,0,0-.73.05.91.91,0,0,0-.21-.05h-1s-.11,0-.13,0-.26,0-.38.09-.28,0-.43,0-.12,0-.17,0a2.24,2.24,0,0,1-1,.2l-.13,0c-.35.12-.7.26-1.06.36s-.46.22-.68.18a3.33,3.33,0,0,1-1.23.42l-.35.27a.46.46,0,0,0-.26.06,2.1,2.1,0,0,1-.54.27,1.06,1.06,0,0,0-.42.29.51.51,0,0,0-.41.13.62.62,0,0,1-.19.12c-.13.06-.2,0-.33-.11,0-.05.07-.1.07-.14a2.41,2.41,0,0,1,.18-.76,4.31,4.31,0,0,1,.27-.76,3.5,3.5,0,0,0,.23-.9,1.89,1.89,0,0,1,.2-.65,5,5,0,0,0,.21-.62l.09-.08a.83.83,0,0,1,.2-.64,1,1,0,0,1,0-.38.85.85,0,0,0-.17-.9,2.52,2.52,0,0,0-.56.09c-.33.15-.67.27-1,.43s-.81.48-1.24.67a.41.41,0,0,0-.11.07c-.26.24-.58.4-.85.63,0,0,0,.05,0,.05a3.07,3.07,0,0,0-.79.44.83.83,0,0,0-.33.28,1,1,0,0,1-.49.39,1.44,1.44,0,0,0-.4.28l-.18.21c-.24,0-.31.15-.41.26s-.06.13-.11.15c-.22.1-.32.34-.51.45a2,2,0,0,0-.5.45,1.71,1.71,0,0,1-.54.53.28.28,0,0,0-.12.12c0,.16-.18.23-.27.34S24,29.94,24,30a3.39,3.39,0,0,1-.5.62c-.29.34-.54.71-.83,1-.09.1-.05.23-.16.33a1.88,1.88,0,0,0-.32.41c-.22.35-.46.68-.67,1a9.43,9.43,0,0,1-.55,1,2.69,2.69,0,0,1-.3.67,4.05,4.05,0,0,1-.32.7,3.11,3.11,0,0,0-.34.65,1.26,1.26,0,0,1-.29.48,3.5,3.5,0,0,1-.52,1.29h-.24a4.43,4.43,0,0,1-.29-.42,3.5,3.5,0,0,1-.2-.54c-.05-.19-.17-.35-.23-.53a6.14,6.14,0,0,1-.25-.59,2.92,2.92,0,0,0-.4-.9L17.39,35,17,34.21c-.13-.25-.24-.5-.39-.74s-.44-.74-.66-1.1H15.7a.93.93,0,0,0-.37.58c-.19.13-.15.4-.34.55a.78.78,0,0,0-.14.32c-.07.17-.13.34-.2.5s-.15.31-.22.47a1.34,1.34,0,0,1-.16.45c-.12.15-.1.33-.17.48a2,2,0,0,0-.14.64.62.62,0,0,1-.14.39,1,1,0,0,1,0,.3,1.19,1.19,0,0,0-.12.61,1.8,1.8,0,0,0-.13.36c0,.32-.08.63-.14.94a1.11,1.11,0,0,0-.07.22,5.39,5.39,0,0,1-.06.8A9.41,9.41,0,0,1,13.2,41a1.39,1.39,0,0,0,0,.41c0,.75,0,1.5.07,2.25,0,.11.06.22.06.32s-.07.18-.05.25a1.27,1.27,0,0,1,.06.28c0,.09.06.17.07.25a2.45,2.45,0,0,0,.06.6c0,.18,0,.39.07.59s0,.37.06.56a2.9,2.9,0,0,1,.07.6,5.37,5.37,0,0,0,.15.8,2.44,2.44,0,0,1,.07.46,3.81,3.81,0,0,0,.16.83c0,.07,0,.13.05.19s0,.21,0,.31a1.83,1.83,0,0,0,.07.32.83.83,0,0,1,.06.21,7.6,7.6,0,0,0,.24,1.05c0,.13.09.26.12.4a2.31,2.31,0,0,1,.06.35c.06.16.14.26.13.36a.87.87,0,0,0,.15.5c.1.16.05.36.13.53a2.35,2.35,0,0,1,.09.36c.14.4.27.75.4,1.1a4.42,4.42,0,0,0,.17.55c.14.29.24.59.37.88a3.2,3.2,0,0,1,.18.52,4.45,4.45,0,0,0,.26.48.43.43,0,0,1,.05.12,2,2,0,0,0,.26.55c.11.15.29.32.22.55l.22.22v.29a2.46,2.46,0,0,1,.23.42c.22.47.47.92.73,1.36a.64.64,0,0,0,.13.19.93.93,0,0,1,.27.44c0,.13.12.25.15.39l-.1.17c-.32.07-.65-.06-.91.07a2,2,0,0,0-.29,0,1.45,1.45,0,0,1-.87-.14.4.4,0,0,0-.11,0h-.65a2.49,2.49,0,0,1-.6-.06,2.81,2.81,0,0,0-.65,0l-.69-.09c0,.12-.08.21-.11.29.27.39.54.74.83,1.09a3.06,3.06,0,0,1,.53.71,1.81,1.81,0,0,0,.51.66,1.22,1.22,0,0,1,.12.19,1,1,0,0,0,.1.17c.33.36.66.72,1,1.07.09.09.21.15.31.25s.15.22.25.31c.26.26.54.51.82.76,0,0,.1,0,.14.07.35.29.71.56,1.06.86a3.14,3.14,0,0,0,.5.38,4.57,4.57,0,0,1,.65.43,2.82,2.82,0,0,0,.74.54c.13.18.35.23.51.36s.21.26.38.33a1.24,1.24,0,0,1,.36.29c.12.13.28.16.42.26s.22.2.35.28a2.66,2.66,0,0,1,.63.42,1.25,1.25,0,0,0,.42.3,4.44,4.44,0,0,1,.49.24c.51.31,1.08.5,1.6.81.09,0,.2.06.3.11s.17.14.27.18a.79.79,0,0,0,.31.08c.11,0,.14.2.28.14l1.21.5a1.46,1.46,0,0,0,.33.12,1.07,1.07,0,0,1,.58.29h.33l.09.09a8.41,8.41,0,0,1,.88.26l.47.2.4.11a5.1,5.1,0,0,0,1.15.29,2.46,2.46,0,0,0,.46.08c.1.16.31,0,.42.14a5.59,5.59,0,0,0,.92.21c.14.12.34,0,.49.13a.71.71,0,0,0,.35.07,2,2,0,0,1,.62,0,1.53,1.53,0,0,0,.76.16.58.58,0,0,1,.23,0,2.82,2.82,0,0,0,.64.14,3.68,3.68,0,0,0,.66.06,1,1,0,0,1,.46.06c.09,0,.24,0,.33,0s.24,0,.36,0,.23,0,.35,0a.78.78,0,0,1,.39.06c.09,0,.24,0,.36,0s.22-.07.29,0a.92.92,0,0,0,.46.06c.46,0,.92,0,1.38,0l1.35-.07,1.31-.07a.26.26,0,0,0,.12,0,.43.43,0,0,1,.39,0l.24-.06a4.94,4.94,0,0,0,1-.06c.22,0,.46,0,.69-.07s.43,0,.62-.09.27,0,.39-.07a1.87,1.87,0,0,1,.77-.13.09.09,0,0,0,.07,0,3.76,3.76,0,0,1,.87-.14.28.28,0,0,0,.12,0,2.3,2.3,0,0,1,.49-.15c.19,0,.37-.06.56-.07a6.54,6.54,0,0,1,.86-.17l0,0a3.58,3.58,0,0,1,.7-.23,1.4,1.4,0,0,0,.66-.22,3.44,3.44,0,0,1,1.42-.34l.24.24a1.44,1.44,0,0,1,0,.55c-.1.18,0,.39-.13.54s0,.56-.07.83c0,0,0,.1,0,.14A7,7,0,0,0,55.49,78c-.09.35-.18.69-.29,1-.14.08,0,.27-.13.36s0,.09,0,.14a2.52,2.52,0,0,1-.08.55,1.07,1.07,0,0,0,0,.77l.19.08c.2,0,.37-.14.55-.2s.51-.22.77-.32a5.52,5.52,0,0,1,.69-.34,2.92,2.92,0,0,0,1-.49.1.1,0,0,1,.09,0,.33.33,0,0,0,.24-.1,1.44,1.44,0,0,1,.66-.32c.25-.16.45-.3.65-.41s.4-.17.57-.29.39-.2.56-.32.54-.32.81-.47a2.94,2.94,0,0,0,.6-.39,2.13,2.13,0,0,1,.5-.28,3.58,3.58,0,0,1,.31-.33h.11l.46-.37c.11-.09.18-.24.34-.27s.19-.2.3-.26c.35-.19.56-.54.9-.74s.33-.32.51-.43a3.38,3.38,0,0,0,.63-.5,6.64,6.64,0,0,0,.62-.57,5.14,5.14,0,0,1,.41-.4c.11-.11.21-.22.32-.31a7.52,7.52,0,0,0,1-.92,1,1,0,0,1,.47-.36.14.14,0,0,0,.09-.05,9,9,0,0,0,.8-.72,4.06,4.06,0,0,1,.64-.6,6.2,6.2,0,0,0,1-1.12c.13-.17.24-.35.37-.55,0,0,0,0,0,0l.81-.85s0,0,0-.06a4.28,4.28,0,0,0,.44-.61.16.16,0,0,1,.07-.07,1.22,1.22,0,0,0,.47-.46c.09-.12.13-.29.24-.38.34-.27.45-.72.81-1a1.9,1.9,0,0,0,.4-.52c.13-.19.21-.41.44-.51l0,0a4,4,0,0,1,.56-1,4.44,4.44,0,0,0,.24-.49,7,7,0,0,0,.44-.75c.14-.26.3-.52.46-.78a1.29,1.29,0,0,0,.31-.56s.09,0,.13-.08,0-.21.1-.31a.68.68,0,0,0,.11-.26,3,3,0,0,1,.41-.86,1,1,0,0,0,.2-.37,5.67,5.67,0,0,1,.33-.74c0-.13,0-.24.07-.34.14-.37.32-.72.47-1.09s.36-.91.52-1.37c0-.09.08-.18.14-.29A5.76,5.76,0,0,1,81,53.17l-.07-.08s.1-.07.12-.12a4.61,4.61,0,0,1,.15-.53,2.24,2.24,0,0,0,.13-.57,3.9,3.9,0,0,1,.28-.81v-.59l.1-.11a3.79,3.79,0,0,1,.19-.64,5.69,5.69,0,0,0,.25-.83,2.55,2.55,0,0,0,.08-.83.77.77,0,0,1,.14-.45,1.85,1.85,0,0,1,.14-1c0-.09-.11-.16,0-.28a.51.51,0,0,0,0-.22,1.17,1.17,0,0,1,.11-.61.32.32,0,0,0,0-.09c0-.14,0-.28,0-.42s.06-.28.06-.42a4.07,4.07,0,0,1,0-.86c.09-.27,0-.56.13-.81-.06-.44.08-.86.06-1.29,0-.11,0-.22,0-.33s0-.18,0-.27a2,2,0,0,0,0-.35c0-.13,0-.25-.05-.4l.07-.09-.07-.08" transform="translate(-0.04 -0.04)"/>
        </g>
      </g>
      <path id="Fill-7" d="M50.06,2.68l.69.33s0,0,.07,0a1.83,1.83,0,0,1,.68.27,2.37,2.37,0,0,0,.32.15.61.61,0,0,1,.39.21s.07,0,.11,0a2.8,2.8,0,0,1,.57.22,7.56,7.56,0,0,0,.91.43l.47.2a2.52,2.52,0,0,1,.42.24,3.74,3.74,0,0,0,.45.22.73.73,0,0,1,.37.19.61.61,0,0,1,.51.26l.19,0a8.46,8.46,0,0,1,.85.43,2.09,2.09,0,0,1,.37.17,5,5,0,0,0,1,.58,7.13,7.13,0,0,0,1.15.63l0,0a3.68,3.68,0,0,0,.87.53,3.13,3.13,0,0,1,.3.2H61a4.49,4.49,0,0,0,.65.5L62.3,9c.22.15.44.31.67.45s.48.28.71.44a6,6,0,0,0,.67.45c.24.12.4.37.73.46a1,1,0,0,0,.15.15c.32.23.65.43,1,.68s.87.63,1.28,1c.15,0,.08.15.18.2a2,2,0,0,1,.58.43,3.41,3.41,0,0,0,.6.46c.15.09.23.27.4.35s.21.27.37.34a1.8,1.8,0,0,0,.46.53c.16.16.25.38.48.48,0,0,.07.1.11.15s.06.1.11.12c.33.17.47.51.72.76L72,17c.15,0,.17.12.22.21a1.58,1.58,0,0,0,.24.39,5,5,0,0,1,.4.51l.65.79c.11.15.25.28.36.43a2.17,2.17,0,0,0,.19.33,3,3,0,0,1,.31.42l.74,1.09a2.61,2.61,0,0,0,.36.57c0,.23.16.35.29.5a.54.54,0,0,1,.1.16,1.22,1.22,0,0,0,.12.19,3.5,3.5,0,0,1,.37.49c.14.16.14.39.29.53a8.59,8.59,0,0,0,.49,1.07c0,.06.11.11.13.18a1.06,1.06,0,0,0,.35.57v.28l.22.13,0,0,.16.42-.09.24-.22.07a3,3,0,0,0-.32-.1.37.37,0,0,1-.29-.16h-.38a1.62,1.62,0,0,0-.82-.27l-1.18-.54a.57.57,0,0,1-.25,0,4.23,4.23,0,0,0-1-.25l-.32-.07-.33-.06,0,0a3.77,3.77,0,0,0-1.25-.11c-.16.34-.14.36,0,.76.06.13.05.3.19.4s.09.28.14.42c.11.35.22.71.31,1.07a2.61,2.61,0,0,0,.16.61,14.46,14.46,0,0,1,.44,1.46s0,0,0,0a5.59,5.59,0,0,0,.13,1,1.09,1.09,0,0,1,.07.24,1.58,1.58,0,0,0,.1.48c0,.05,0,.1,0,.15a1.76,1.76,0,0,0,.07.41c.07.15.07.31.13.46s0,.36.09.51a9.81,9.81,0,0,1,.33,1.4,3,3,0,0,0,.21.76,1.85,1.85,0,0,1,.2,1,2.81,2.81,0,0,0,.07.65c0,.06.08.15.06.18-.14.19,0,.37,0,.56s.07.19.06.31a.39.39,0,0,0,0,.29c0,.06,0,.2,0,.34a.62.62,0,0,1,0,.14c0,.33,0,.66.06,1,.07.68,0,1.37.07,2.06a4.55,4.55,0,0,1,0,1.47,2.91,2.91,0,0,0,0,.78c0,.44-.09.87-.08,1.3a.08.08,0,0,1,0,.07c-.14.1,0,.26-.09.37s0,.26,0,.39a4.86,4.86,0,0,1-.1.55c0,.12,0,.25-.06.34s0,.24-.06.32,0,.23-.06.35a1.29,1.29,0,0,1,0,.19,1.55,1.55,0,0,0-.16.82.5.5,0,0,1-.12.33,3.11,3.11,0,0,0-.23.69c-.09.36-.18.72-.3,1.07a3,3,0,0,0-.25,1s0,.08,0,.11-.14.24-.17.38a1.76,1.76,0,0,1-.17.37,2.31,2.31,0,0,0-.16.41,4.22,4.22,0,0,1-.41,1.07,2.67,2.67,0,0,0-.28.56,7.47,7.47,0,0,1-.74,1.5c-.24.44-.55.84-.8,1.28a3.17,3.17,0,0,1-.28.36c-.06.07-.11.16-.17.23a1.51,1.51,0,0,0-.21.23,7.59,7.59,0,0,1-1.3,1.48l-.35-.25a.45.45,0,0,0,0-.12,1.14,1.14,0,0,1-.14-.7.43.43,0,0,0,0-.16,2.34,2.34,0,0,1-.12-.64.83.83,0,0,0-.14-.38l.09-.13-.17-.1c.07-.36-.27-.6-.2-.92L67,56.27c0-.2-.08-.39-.12-.61l-.35-.23a2.75,2.75,0,0,0-.52.34c-.12.11-.21.27-.35.33s-.21.24-.32.34l-.76.75-.16.11-.8.64s0,.08,0,.1a2.48,2.48,0,0,0-.8.53l-.34.32a4.17,4.17,0,0,1-.37.36.54.54,0,0,1-.16.1,1.89,1.89,0,0,0-.31.25,2.32,2.32,0,0,1-.5.37,2.7,2.7,0,0,0-.34.25c-.21.16-.41.33-.62.48a2.38,2.38,0,0,1-.31.17,2.06,2.06,0,0,0-.46.31,1.17,1.17,0,0,1-.3.11,1.62,1.62,0,0,1-.57.43,2.65,2.65,0,0,1-.69.5,2.55,2.55,0,0,0-.4.27c-.13.12-.31.13-.44.26a2.8,2.8,0,0,1-.4.27l-.54.35a3.42,3.42,0,0,1-1.09.52.67.67,0,0,0-.45.24c-.25,0-.43.19-.65.27s-.44.2-.67.29-.42.23-.65.32a5.71,5.71,0,0,0-.67.3.37.37,0,0,1-.15,0,1.34,1.34,0,0,0-.59.2A3.33,3.33,0,0,0,49.8,66a1.76,1.76,0,0,0-.91.21.94.94,0,0,1-.15.06,1.06,1.06,0,0,0-.39.06,1.51,1.51,0,0,1-.38.08,3.84,3.84,0,0,1-.82.16.19.19,0,0,0-.09,0l-.13-.08-.26.15c-.13,0-.28-.05-.37,0s-.31,0-.42.07-.31,0-.46,0a1,1,0,0,1-.24,0,.44.44,0,0,1-.47.08c-.07,0-.16,0-.2,0s-.28,0-.42.06a2.77,2.77,0,0,0-.41,0,1.34,1.34,0,0,1-.77,0,.18.18,0,0,0-.13,0c-.1.1-.22,0-.32.06a8.62,8.62,0,0,1-1.14-.06c-.4,0-.81,0-1.21,0a1.88,1.88,0,0,1-.75-.16.65.65,0,0,1,0-.18,5.43,5.43,0,0,1,.32-.51c.08-.13.2-.25.29-.37s.17-.25.25-.38V64.9a.78.78,0,0,0-.24-.09,5.37,5.37,0,0,0-.9-.07s-.11,0-.13,0-.29,0-.42-.07a1,1,0,0,0-.41-.07.69.69,0,0,0-.55-.13l-.14-.15a1,1,0,0,1-.55-.07,1.89,1.89,0,0,0-.18-.06,5.5,5.5,0,0,0-1-.2,3.12,3.12,0,0,0-.73-.3c-.4-.18-.75-.44-1.15-.62s-.55-.15-.74-.38a1.15,1.15,0,0,1-.61-.26,7.26,7.26,0,0,0-.67-.38,4.31,4.31,0,0,1-.56-.39,7.59,7.59,0,0,1-1.06-.83,2.18,2.18,0,0,0-.22-.21l-.55-.41c-.06-.26-.34-.3-.49-.48s-.54-.55-.82-.82a.69.69,0,0,0-.17-.17,1.21,1.21,0,0,1-.48-.47,2.53,2.53,0,0,0-.5-.59,2.94,2.94,0,0,1-.7-.86,1.81,1.81,0,0,0-.18-.27c-.34-.29-.48-.74-.82-1,0,0,0-.06,0-.08-.2-.29-.4-.57-.57-.79a2.8,2.8,0,0,0-.26-.57,3.61,3.61,0,0,1-.27-.56l.13-.11a1.31,1.31,0,0,1,.33.09,1.09,1.09,0,0,1,.42.29,1.11,1.11,0,0,0,.5.37c.05,0,.13,0,.18.08s.18.1.27.16a.55.55,0,0,0,.3.11c.07,0,.13.06.2.09l.29.12a2.53,2.53,0,0,0,.36.07c.11,0,.2.1.32.13a4.48,4.48,0,0,1,.58.24l.26-.37c-.07-.16-.14-.29-.19-.43a2.29,2.29,0,0,1-.09-.44A3.12,3.12,0,0,0,28,53.4a1.38,1.38,0,0,0-.19-.56,2.07,2.07,0,0,0,0-.5,8,8,0,0,1-.39-1.61s-.05-.07-.07-.09a.66.66,0,0,0,0-.56c0-.12-.08-.24-.1-.37s0-.53-.07-.79a.58.58,0,0,1,0-.45.17.17,0,0,0,0-.1c-.12-.17-.05-.35-.07-.52s.07-.58-.06-.86a.2.2,0,0,1,0-.17.61.61,0,0,0,0-.56.13.13,0,0,1,0-.12c.08-.07,0-.15.05-.23s0-.37.06-.55a.24.24,0,0,0,0-.23c-.09-.1-.06-.21-.05-.32a5.7,5.7,0,0,1,.06-.58.89.89,0,0,1,.06-.39.74.74,0,0,0,.08-.44,1.16,1.16,0,0,1,.09-.55s0-.05,0-.08a1.61,1.61,0,0,1,.15-.62,3,3,0,0,1,.22-.59,1.8,1.8,0,0,0,.08-.21H28a1.55,1.55,0,0,1,.45.72,1.7,1.7,0,0,0,.18.44c.16.2.2.48.43.64s.34.54.48.83c.06.13.18.19.24.29h.29l.64-.82s0-.05,0-.07c.2-.31.4-.61.61-.91a3.46,3.46,0,0,0,.34-.44,1.93,1.93,0,0,1,.48-.64.63.63,0,0,1,.17-.39.83.83,0,0,0,.26-.44.52.52,0,0,1,.19-.26,4.1,4.1,0,0,0,.35-.47,5.91,5.91,0,0,1,.78-1,1.51,1.51,0,0,0,.18-.26c.11-.15.17-.33.35-.43a1.63,1.63,0,0,0,.68-.64l.1-.1.33-.22.26.08v.55a1.58,1.58,0,0,1-.06.48,1.68,1.68,0,0,0,0,.5.28.28,0,0,1,.07.09c.08.27.31.42.5.61a.54.54,0,0,0,.27.09,1.14,1.14,0,0,0,.54-.11,8.52,8.52,0,0,1,1.31-.29A1.85,1.85,0,0,0,39,39c.65-.13,1.3-.11,1.91-.28l.19,0a3.54,3.54,0,0,1,.73.06,2.52,2.52,0,0,0,.55,0l.5.07a1.05,1.05,0,0,0,.34.13,2.14,2.14,0,0,1,.86.25,2.06,2.06,0,0,0,.72.25.74.74,0,0,0,.48.26.77.77,0,0,1,.28.15,1.18,1.18,0,0,1,.18.13,6,6,0,0,1,.9.66.27.27,0,0,0,.1.08c.37.14.54.52.88.69.08.22.3.33.44.51l.19.24c.27.1.3.09.56-.12v-.26c-.23-.21-.32-.51-.55-.71s-.23-.33-.39-.41-.36-.43-.64-.52c0-.19-.2-.18-.29-.28a1.45,1.45,0,0,0-.38-.24c-.29-.15-.54-.38-.84-.52a1.69,1.69,0,0,1-.27-.11,2.06,2.06,0,0,0-.73-.39c-.11,0-.19-.17-.3-.2a5.74,5.74,0,0,1-1-.35c-.18-.09-.37,0-.55-.11a.92.92,0,0,0-.47-.08,4.17,4.17,0,0,0-.49-.08c-.4,0-.8,0-1.2,0a5.8,5.8,0,0,0-1.18.05,2.18,2.18,0,0,1-.57,0,.56.56,0,0,1-.44.14,5.17,5.17,0,0,0-.55.07,2.4,2.4,0,0,0-.23.11.72.72,0,0,1-.75,0,13.15,13.15,0,0,0,.22-1.36,2.76,2.76,0,0,0,.26-.58,9.52,9.52,0,0,0,.08-1l-.11-.22-.09-.13a.89.89,0,0,0-.76.23,1.1,1.1,0,0,1-.26.18,2.49,2.49,0,0,0-1.14.74,2.38,2.38,0,0,1-.38.32,1.3,1.3,0,0,0-.28.29,1.16,1.16,0,0,0-.27.18c-.2.22-.51.33-.63.62,0,0-.06.09-.1.09s-.23.17-.28.3a1,1,0,0,1-.23.28,2.52,2.52,0,0,0-.52.64,2.57,2.57,0,0,1-.4.55c-.18.23-.37.46-.53.7s-.27.46-.39.69-.19.41-.3.59-.19.43-.31.63a.66.66,0,0,0,0,.15l-.37.46H30c-.13-.16-.21-.37-.36-.53s-.11-.24-.21-.32c0-.27-.21-.49-.14-.73a5.87,5.87,0,0,1-.35-.78,3.83,3.83,0,0,0-.4-1s0,0,0-.06-.13-.25-.19-.37a.44.44,0,0,0-.35-.21c-.29.15-.35.17-.4.36a1.44,1.44,0,0,1-.24.48c-.21.36-.44.71-.68,1.08v.24c-.29.34-.24.81-.48,1.17a11.86,11.86,0,0,1-.27,1.18c-.06.23-.1.46-.15.69,0,.08-.05.14-.06.22a2.66,2.66,0,0,1-.06.62,1.83,1.83,0,0,0,0,.47c0,.15-.06.3-.07.45,0,.44,0,.89,0,1.33a10,10,0,0,0,.05,1.34c.06.34.06.69.15,1,0,.11,0,.21.07.32a.94.94,0,0,1,.07.31,1.57,1.57,0,0,0,.08.31.75.75,0,0,1,.06.32l.16.06-.08.13.06.3a2.3,2.3,0,0,1,.06.28c0,.26.13.51.19.77s.22.45.14.72h-.34c-.29-.14-.56-.25-.82-.4s-.43-.11-.61-.27A2.66,2.66,0,0,0,24,51.7a5.51,5.51,0,0,1-.88-.52c-.3-.19-.59-.4-.89-.6a.25.25,0,0,0-.09,0l-.11.12a.48.48,0,0,1,0,.12c0,.23.08.43.08.65s.08.15.11.23a.59.59,0,0,1,0,.13c0,.22.09.44.16.65a1.09,1.09,0,0,1,.12.36,1.32,1.32,0,0,0,.15.35c.06.15.1.32.16.47s0,.24.1.34a1,1,0,0,1,.2.46.36.36,0,0,0,0,.09,3.33,3.33,0,0,1,.38.66c0,.1.11.18.15.28.13.27.34.49.47.76s.32.48.44.74a1.31,1.31,0,0,0,.21.36c.31.34.48.79.85,1v.15c.31.33.61.63.89,1a3.94,3.94,0,0,1,.38.45c.21.36.59.53.81.86.25.07.34.32.57.44a3.41,3.41,0,0,1,.58.5c.13.1.25.21.39.3a7.77,7.77,0,0,1,.74.54,2,2,0,0,0,.76.49.51.51,0,0,1,.16.09c.23.16.46.33.7.48l.71.44a5.77,5.77,0,0,1,.72.41,1.35,1.35,0,0,0,.5.27c.21.06.37.19.55.25s.46.16.69.24a2.54,2.54,0,0,1,.34.13,3.34,3.34,0,0,1,1,.3l1,.2h0l.44.14v.31a2.45,2.45,0,0,0-.46.38c-.12.18-.36.23-.43.43s-.33.22-.41.44l0,.19a3.62,3.62,0,0,1,.83.3,2.54,2.54,0,0,0,.74.23c.13,0,.27,0,.41.06a1.34,1.34,0,0,1,.4.13.15.15,0,0,0,.09,0l.8.07s.08,0,.1,0,.19,0,.28.06.21.05.32.06.46,0,.7.06a5.76,5.76,0,0,0,1.1.08c.38,0,.75.11,1.14.07,0,0,.09,0,.12.06l.2-.06a4,4,0,0,0,1.14-.07.1.1,0,0,1,.09,0,.4.4,0,0,0,.39,0,.53.53,0,0,1,.32,0,8.42,8.42,0,0,1,1-.08h.07c.25-.11.53-.1.78-.2s.45,0,.66-.13a2.19,2.19,0,0,1,.56-.14c.19,0,.36-.09.53-.12a3.78,3.78,0,0,1,.6-.17,3.54,3.54,0,0,0,.81-.26,1.57,1.57,0,0,0,.62-.16,2.48,2.48,0,0,1,.62-.24,1.28,1.28,0,0,0,.61-.29,1,1,0,0,0,.59-.13,5.5,5.5,0,0,1,1.06-.44.59.59,0,0,0,.32-.15c.08-.09.24-.11.37-.16a1.63,1.63,0,0,0,.52-.22c.33-.26.76-.31,1.07-.57a3.36,3.36,0,0,0,.7-.3,1.23,1.23,0,0,0,.49-.32.42.42,0,0,1,.37-.16l.17-.2h.13c.27-.28.68-.37.91-.68.37,0,.51-.41.87-.43a1.55,1.55,0,0,1,.59-.46l.14-.08.72-.57.43-.31A6.5,6.5,0,0,0,62.92,61a8,8,0,0,0,.88-.86s.05-.07.07-.07.17-.11.24-.18.44-.35.56-.62a3.26,3.26,0,0,0,.65-.58l.07-.06h.18l.2.17c0,.31.11.6.06.9a1.14,1.14,0,0,0,.15.65s-.08.08-.07.12a.56.56,0,0,0,.06.21c0,.08-.06.12,0,.22a1.76,1.76,0,0,1,.1.68,2.79,2.79,0,0,0,.16.86s0,.08,0,.11a2.11,2.11,0,0,0,.08.62,2.59,2.59,0,0,0,.16.52l.47.07L67.8,63a6,6,0,0,0,.75-.67,2.88,2.88,0,0,1,.27-.34c.4-.42.82-.83,1.22-1.26s.56-.79.88-1.15c.14-.15.21-.35.35-.5a3.88,3.88,0,0,0,.57-.82,3.39,3.39,0,0,1,.7-.94c.14-.21.19-.45.33-.65s.21-.46.38-.67.26-.41.4-.63a1.56,1.56,0,0,1,.2-.41c.21-.24.23-.57.43-.82s.1-.36.21-.52a3.44,3.44,0,0,0,.25-.51,1,1,0,0,0,.09-.21,3.61,3.61,0,0,1,.28-.8c0-.07,0-.15.07-.21a8.94,8.94,0,0,1,.27-.88c0-.17.14-.28.13-.42s.09-.52.09-.74A5.17,5.17,0,0,0,76,48.25a.48.48,0,0,0,.12-.41c0-.1,0-.22,0-.3s0-.33.07-.49a1.81,1.81,0,0,0,.06-.52v-.17l.11-.12c0-.17-.07-.3,0-.4a3,3,0,0,0,.12-.56c0-.2,0-.39.06-.59s0-.52.07-.79a5,5,0,0,0,0-.95,4.44,4.44,0,0,0,.07-1,9.29,9.29,0,0,1-.07-1.58,1,1,0,0,0,0-.17.73.73,0,0,0-.05-.09l.13-.25s-.07-.06-.07-.09c0-.29,0-.57-.08-.86a3.08,3.08,0,0,0-.08-.75c0-.16,0-.33-.07-.45s0-.26,0-.39c-.14-.12,0-.28-.07-.38s-.22-.31-.09-.51a.27.27,0,0,0,0-.26.71.71,0,0,1-.06-.25,2.17,2.17,0,0,0-.07-.24,2.5,2.5,0,0,1-.06-.38,4.22,4.22,0,0,0-.14-.79l.07-.08a1.34,1.34,0,0,1-.07-.18,3.43,3.43,0,0,1-.2-.94,5.71,5.71,0,0,1-.15-1.1.34.34,0,0,0,0-.1,1.51,1.51,0,0,1-.13-.72l-.31-.92,0-.06-.26-.76,0-.05a2,2,0,0,1-.22-.93,1.65,1.65,0,0,0-.13-.37c0-.07,0-.21.07-.37.26,0,.51-.06.72.14a.81.81,0,0,1,.27,0c.14.05.28.15.43.2a3.29,3.29,0,0,1,.42.21,2.54,2.54,0,0,1,.67.31.81.81,0,0,0,.45.15.65.65,0,0,1,.33.11,6.49,6.49,0,0,0,1,.43,1.92,1.92,0,0,1,.68.28s.13,0,.21,0c.1.2.35.2.5.34.26,0,.43.18.73.27a.49.49,0,0,1,.4.12H82c-.07-.33-.15-.65-.24-1-.12-.14-.13-.41-.3-.6a.81.81,0,0,0-.15-.51c-.11-.16-.09-.35-.19-.51s-.1-.29-.18-.43a.76.76,0,0,1-.17-.48s-.06-.07-.08-.1-.12-.14-.11-.19c0-.21-.14-.31-.2-.48s0-.2-.06-.31a4.27,4.27,0,0,0-.35-.67.82.82,0,0,1-.15-.53,2.48,2.48,0,0,1-.25-.3c-.07-.12-.07-.26-.17-.37s0-.07,0-.09a4.76,4.76,0,0,1-.75-1.36.47.47,0,0,0-.12-.19,2.26,2.26,0,0,1-.34-.58s0-.1,0-.12a8.62,8.62,0,0,1-.54-.8l-.35-.58c-.14-.21-.32-.4-.45-.63s-.07-.33-.28-.36a3.85,3.85,0,0,0-.73-.93l0,0a.68.68,0,0,0-.17-.31.92.92,0,0,1-.14-.28c0-.11-.16-.14-.2-.25a.83.83,0,0,0-.19-.26c-.24-.22-.35-.54-.6-.75-.06-.05-.07-.15-.09-.22a.55.55,0,0,1-.33-.28c-.2-.28-.4-.57-.61-.84a2.35,2.35,0,0,0-.28-.25c0-.08,0-.16-.13-.21a.56.56,0,0,1-.31-.33.39.39,0,0,0-.1-.16c-.32-.27-.5-.68-.89-.89a1.24,1.24,0,0,1-.22-.18,2.52,2.52,0,0,1-.21-.25l-.22-.22-.22-.21c-.06-.07-.11-.18-.18-.21s-.12-.15-.18-.22a1.06,1.06,0,0,0-.27-.25,1,1,0,0,1-.42-.38.77.77,0,0,0-.25-.23s-.08,0-.11-.05a3.65,3.65,0,0,1-.36-.31,3.73,3.73,0,0,0-.3-.26c-.11-.11-.24-.19-.35-.3a.78.78,0,0,1-.14-.2H68.2a2.38,2.38,0,0,0-.52-.44A1.93,1.93,0,0,1,66.84,9a.32.32,0,0,0-.1-.1l-1-.7-.56-.41c-.08-.06-.17-.09-.22-.21s-.21-.1-.29-.18-.47-.2-.64-.36-.43-.27-.61-.44a1.3,1.3,0,0,0-.23-.18c-.08,0-.23,0-.24-.17-.19,0-.29-.21-.49-.22a.36.36,0,0,1-.21-.14A1,1,0,0,0,62,5.74a2.5,2.5,0,0,1-.7-.46.84.84,0,0,0-.39-.22.89.89,0,0,1-.37-.2.85.85,0,0,0-.19-.1,1.11,1.11,0,0,0-.45-.26c-.16,0-.26-.22-.44-.2l-.28-.2-.33-.2h-.17l-.26-.27c-.28-.1-.53-.23-.79-.35A2.06,2.06,0,0,0,56.79,3a.74.74,0,0,0-.51-.27.74.74,0,0,1-.42-.19c-.21-.22-.52-.22-.73-.42-.2,0-.34-.13-.51-.17a2.92,2.92,0,0,0-.76-.24.68.68,0,0,1-.33-.11.88.88,0,0,0-.59-.16,1.15,1.15,0,0,0-.29-.2,2.07,2.07,0,0,0-.49-.07.68.68,0,0,1-.28-.07A1.39,1.39,0,0,0,51.21,1c-.31.21-.63.4-.94.62a1.07,1.07,0,0,1-.36.21,1.73,1.73,0,0,0-.38.24s-.09,0-.13,0-.19.15-.17.35a2.14,2.14,0,0,0,.83.27" transform="translate(-0.04 -0.04)"/>
      <g id="Group-11">
        <g class="cls-3">
          <path id="Fill-9" d="M1.31,38.4a3.53,3.53,0,0,0,.33.35l.19-.08A1.28,1.28,0,0,1,2,38.28C2,38.2,2,38.1,2,38.06s0-.32,0-.45a1.23,1.23,0,0,0,0-.25V37c0-.09.05-.14.08-.19a.58.58,0,0,0,.13-.57s0-.05,0-.07c.13-.18,0-.39.07-.59l.12-.12a1.64,1.64,0,0,1,.22-.7v-.13a1.21,1.21,0,0,1,.2-.74s0-.07,0-.1L3,33.4a1.08,1.08,0,0,0,.13-.58l.1-.1c.06-.18.11-.32.15-.46a1.56,1.56,0,0,1,.17-.62,1.8,1.8,0,0,0,.1-.4c.06-.15.09-.31.16-.45s.09-.49.3-.66c0-.2.17-.34.19-.5s.14-.31.16-.49.16-.29.24-.44a6.45,6.45,0,0,0,.32-.83,1.05,1.05,0,0,1,.24-.59.9.9,0,0,0,.28-.52c0-.24.24-.37.25-.59a.72.72,0,0,1,.07-.25,3.07,3.07,0,0,0,.38-.56,3.44,3.44,0,0,0,.21-.49c0-.21.06-.39.3-.47v-.22L7,24.06a.44.44,0,0,1,.27-.47,2.4,2.4,0,0,1,.21-.46l.22-.32a5.74,5.74,0,0,1,.48-.73c.21-.23.34-.53.55-.77.06-.06.06-.17.1-.27a3.43,3.43,0,0,0,.63-.83c.13-.07.12-.07.17-.16s.08-.18.14-.21.24-.29.35-.44a6,6,0,0,1,.45-.71,2.93,2.93,0,0,0,.48-.62,1.12,1.12,0,0,1,.38-.37v-.13A1.88,1.88,0,0,0,11.9,17c0-.05.1-.14.14-.14s.11-.16.23-.18.14-.16.2-.25l.19,0a.6.6,0,0,1,.15-.36,2.09,2.09,0,0,0,.47-.56c.11-.22.36-.33.46-.56s.19-.17.31-.28.11-.29.31-.35.12-.1.17-.16l.15-.21c.18-.23.49-.34.59-.65,0,0,.06-.07.09-.09.22-.15.33-.41.58-.51a.29.29,0,0,0,.14-.15,1,1,0,0,1,.33-.37,4.1,4.1,0,0,0,.51-.51c.09-.13.26-.15.38-.24l.66-.58h.15a2.28,2.28,0,0,1,.29-.34,2.42,2.42,0,0,1,.39-.21s.09-.07.09-.1.17-.15.25-.24a2.61,2.61,0,0,1,.3-.27c.38-.27.81-.46,1.18-.75a8.51,8.51,0,0,1,.89-.5.66.66,0,0,0,.22-.15,3.08,3.08,0,0,1,.86-.5,1.78,1.78,0,0,0,.57-.36h.21l.26-.26.17,0,.29-.14.31-.17c.09,0,.25-.08.27-.15s.19-.11.28-.18a.88.88,0,0,1,.39-.21c.15,0,.24-.22.43-.15,0,0,.06-.07.1-.07s.19-.2.33-.2a.29.29,0,0,0,.24-.09.61.61,0,0,1,.23-.11l.81-.31a.83.83,0,0,0,.3-.18c.1-.12.25,0,.34-.11.45-.1.84-.36,1.29-.46A5.08,5.08,0,0,0,30,4.31a.65.65,0,0,1,.64-.24l.58-.33.09.08a1.14,1.14,0,0,1,.6-.21c.34-.09.66-.3.95-.24a8.6,8.6,0,0,1,1.76-.54l.12-.12h.42a2,2,0,0,1,.11.21c-.09.18-.2.36-.28.56s-.12.41-.33.49a.84.84,0,0,1-.08.19,3.06,3.06,0,0,0-.21.29A1.87,1.87,0,0,1,34,5a2.14,2.14,0,0,0-.2.32,4.6,4.6,0,0,1-.47.66c-.27.28-.43.63-.67.93s-.48.75-.7,1.1c0,.32,0,.32.08.44l.67.09c.16,0,.34,0,.47,0a.61.61,0,0,0,.48,0h.06c.1.14.26,0,.38.09s.29,0,.43,0h.73a2,2,0,0,1,.73.06.39.39,0,0,0,.3,0c.23-.11.45,0,.68,0,.05,0,.15.07.17.05s.26,0,.4,0,.51,0,.77.07c.44.06.9.05,1.35.08a2.73,2.73,0,0,1,.7.07,2.06,2.06,0,0,0,.74.13s.1,0,.15,0h.39c.08,0,.18-.06.23,0s.33,0,.49.06a1.61,1.61,0,0,0,.49.07.92.92,0,0,1,.46.06c.07,0,.19,0,.31,0l.11.06c.17.08.34.22.54.07,0,0,.09,0,.1,0s.26.05.39.06a.53.53,0,0,1,.28.07.43.43,0,0,0,.29.07h.33a1.17,1.17,0,0,0,.3.13,1.15,1.15,0,0,1,.49.07c.33,0,.61.22.95.14a7.33,7.33,0,0,0,1.11.31c.22,0,.41.14.62.18s.51.11.75.19l.35.11a.5.5,0,0,0,.33.17.75.75,0,0,1,.34.09c.13.1.29.08.43.14s.31,0,.46,0a1.66,1.66,0,0,0,1,.34,1.05,1.05,0,0,1,.21.12c.06,0,.11.11.16.15.24,0,.4.19.62.14a.39.39,0,0,0,.32.14,1.48,1.48,0,0,1,.36.14,3.06,3.06,0,0,1,.64.35,1.26,1.26,0,0,0,.26.13,2.81,2.81,0,0,1,.6.3l.36.22c.12.07.24.2.36.2s.23.2.39.15c.15.16.41.14.48.29a3.91,3.91,0,0,1,1.07.59.58.58,0,0,1,.17,0c.11.07.21.17.32.23l1.41.76a7.64,7.64,0,0,1,1,.54,1.4,1.4,0,0,0,.51.27.33.33,0,0,1,.24.2.58.58,0,0,1,.17.05L63,17l.39.31.38.32a2.32,2.32,0,0,1,.37.39,1.39,1.39,0,0,1-.37.23,3,3,0,0,1-1.2.22h-.23a.53.53,0,0,1-.43.14c-.09,0-.19,0-.26.05s-.39.15-.59.14a1.12,1.12,0,0,0-.42.09,1,1,0,0,1-.29,0A.81.81,0,0,0,60,19a.93.93,0,0,0-.35.23c-.07.08-.07.22-.11.34a.94.94,0,0,1,.14.12c.06.09.1.19.16.28s.18.14.2.22.18.11.23.21.15.14.19.23a1.64,1.64,0,0,0,.29.4,3.34,3.34,0,0,1,.35.4,1.59,1.59,0,0,0,.15.21l.73.8.08.1c.17.2.27.46.5.61,0,0,.05.12.08.21a3.55,3.55,0,0,1,.66.89l.24.34a7.81,7.81,0,0,1,.53.75,3.73,3.73,0,0,0,.41.65,7.28,7.28,0,0,0,.62.84c.28.51.56,1,.83,1.54.13.24.21.51.36.74a2,2,0,0,1,.25.51,1.54,1.54,0,0,0,.15.35.94.94,0,0,1,.2.43c0,.36.31.64.3,1a3.86,3.86,0,0,1,.32.72.93.93,0,0,1,.08.41,1.73,1.73,0,0,1,.29.91c.07.22.14.38.19.54a4.85,4.85,0,0,1,.2.9,2.17,2.17,0,0,0,.31.87c-.09.29.06.59,0,.9.14.1.07.26.12.4a1.5,1.5,0,0,1,.08.44,2.16,2.16,0,0,1,0,.44c0,.19.11.36.07.56.12.13,0,.31.08.44a1.2,1.2,0,0,1,.06.49,6.27,6.27,0,0,1-.07,1.37c.06.3-.12.6,0,.91a.3.3,0,0,1,0,.26c-.11.15,0,.32-.08.45a.76.76,0,0,0,0,.49.67.67,0,0,1-.25.55c-.12-.07-.28-.11-.35-.22A.92.92,0,0,0,68,43a2.09,2.09,0,0,1-.2-.22l-.54-.55a3.51,3.51,0,0,1-.4-.36,6.25,6.25,0,0,0-.94-1c-.14-.12-.28-.29-.5-.23a.65.65,0,0,0-.25.52c0,.11,0,.23,0,.31s0,.28-.06.42a3.47,3.47,0,0,0-.06.45,1.41,1.41,0,0,1-.08.31s-.06.1-.06.14a3.15,3.15,0,0,1-.16.69c0,.17-.11.32-.19.56a1.52,1.52,0,0,1-.21.75.49.49,0,0,1-.13.45,3.15,3.15,0,0,1,0,.44,3,3,0,0,0-.12.43,1.37,1.37,0,0,1-.17.37c-.07.11,0,.22-.09.35s-.18.58-.28.87A11.66,11.66,0,0,0,63,48.87a6.86,6.86,0,0,0-.45,1c-.19.35-.28.75-.5,1.09A.14.14,0,0,0,62,51a2,2,0,0,1-.4.69,2.65,2.65,0,0,0-.32.45,1.64,1.64,0,0,1-.14.22,4.36,4.36,0,0,0-.58.72c-.28.53-.73.92-1,1.41a5.14,5.14,0,0,1-.7.78,2.16,2.16,0,0,1-.33.27c-.12.08-.18.22-.28.33a.36.36,0,0,1-.16.11,2.92,2.92,0,0,0-.63.48,5.81,5.81,0,0,0-.9.74l-.06,0c-.2.14-.42.28-.61.44a5.92,5.92,0,0,1-.81.61,6.42,6.42,0,0,1-.68.37,3.79,3.79,0,0,1-.76.15l-.11-.21.08-.13-.09-.16.15-.15a2.75,2.75,0,0,1-.06-.47.43.43,0,0,1,0-.29c0-.06,0-.2-.06-.31v0c.07-.21.13-.42.2-.64l-.3-.15c-.18.08-.34.14-.49.22s-.3.22-.46.31A4.12,4.12,0,0,1,52,57a2,2,0,0,1-.54.19c-.2,0-.35.17-.56.16s-.2.13-.29.21-.26,0-.33.12c-.25.06-.47.21-.71.29a1.74,1.74,0,0,0-.6.25c-.19,0-.34.09-.52.13-.38.08-.73.24-1.11.32-.12,0-.28,0-.36,0s-.27,0-.38.08-.29,0-.39.06-.27,0-.4.06h-.1A2.56,2.56,0,0,1,45,59l-.77.07a.18.18,0,0,0-.08.06c-.11,0-.23-.08-.27,0s-.19,0-.29.06a1.91,1.91,0,0,0-.67.06c-.06,0-.17,0-.25,0a.85.85,0,0,0-.57,0c-.06,0-.11-.06-.16-.06-.36,0-.72,0-1.07,0s-.72-.09-1.08-.07a1.25,1.25,0,0,1-.74-.12.12.12,0,0,0-.1,0,.7.7,0,0,1-.41-.1c-.14-.08-.31,0-.41-.11a4.27,4.27,0,0,1-.54-.18,1.54,1.54,0,0,1-.42-.17.18.18,0,0,1-.09-.26l.35-.2a8.52,8.52,0,0,0,.74-.57,9.65,9.65,0,0,1,.84-.72c.1-.06.16-.2.25-.29s.2-.17.31-.26l.26-.19c.1-.07.2-.13.27-.19a.51.51,0,0,0-.27-.58,2.14,2.14,0,0,1-.44-.2,2.78,2.78,0,0,0-.42-.22,11.15,11.15,0,0,1-1.39-1c-.23-.19-.47-.36-.71-.53s-.38-.21-.48-.42a.62.62,0,0,0-.24-.24.66.66,0,0,1-.22-.22,6.09,6.09,0,0,0-.54-.6c-.06-.07-.19-.1-.23-.17s-.23-.24-.31-.39a1.93,1.93,0,0,0-.28-.36c-.18-.23-.35-.47-.54-.7s-.27-.3-.41-.45h-.22a1.24,1.24,0,0,0,.14.76,3.79,3.79,0,0,0,.42.65,5.28,5.28,0,0,1,.53.8c.11.21.34.32.43.55a1.09,1.09,0,0,0,.34.4c.21.2.42.4.65.59a11.62,11.62,0,0,0,1.16.94,7.32,7.32,0,0,0,1.13.7.45.45,0,0,1,.31.51,2.73,2.73,0,0,1-.77.63c-.37.4-.84.68-1.22,1.06,0,0-.07.1-.12.12s-.23.22-.36.29a1.51,1.51,0,0,0-.36.3l-.14.16-.34.3c0,.08,0,.13,0,.15a2.3,2.3,0,0,0,.53.45l.61.28s.08,0,.12,0a4.92,4.92,0,0,1,1.35.55.64.64,0,0,1,.37.07,1.15,1.15,0,0,0,.28.07,4.13,4.13,0,0,1,.7.14,6.82,6.82,0,0,0,.78.19,5.29,5.29,0,0,0,.8.08.31.31,0,0,1,.13,0,.54.54,0,0,0,.48,0c.29.16.61,0,.85.14l.11-.08a.68.68,0,0,0,.6,0c.15,0,.27.08.33,0s.26-.05.39-.06.29,0,.43,0,.3.07.45,0,.11,0,.13,0,.22-.06.32-.06a1.88,1.88,0,0,0,.62-.11,5.22,5.22,0,0,1,1-.17c.11,0,.21,0,.31,0a.69.69,0,0,1,.5-.15,6.39,6.39,0,0,1,1.32-.34.21.21,0,0,1,.07-.05,4.76,4.76,0,0,1,.6-.21c.3-.14.59-.3.88-.45a9.3,9.3,0,0,1,.84-.41,2.8,2.8,0,0,0,.61-.28.9.9,0,0,1,.62-.15,5.42,5.42,0,0,0,0,.57,1.07,1.07,0,0,1-.1.5,1.08,1.08,0,0,0-.11.5,1.87,1.87,0,0,0-.21.92l.23.22c.4.11.75-.14,1.1-.12.08-.06.15-.13.21-.13a.66.66,0,0,0,.34-.12c.55-.24,1.06-.55,1.59-.82a1.15,1.15,0,0,0,.55-.33s.07,0,.09,0c.17-.13.42-.15.56-.33s.4-.21.57-.36.21-.16.31-.24.22-.23.35-.26.17-.19.3-.26a1.81,1.81,0,0,0,.41-.32c.15-.12.24-.31.44-.37.15-.35.55-.47.73-.78,0,0,.07-.05.11-.08a2.54,2.54,0,0,0,.41-.39.91.91,0,0,1,.24-.27,1,1,0,0,0,.14-.15c.32-.4.68-.76,1-1.17.18-.25.36-.5.55-.74a3.85,3.85,0,0,1,.53-.74.34.34,0,0,0,.13-.21c0-.23.24-.34.24-.56a8,8,0,0,0,.53-.84c.15-.2.21-.44.35-.65,0,0,0-.09.07-.14a3.91,3.91,0,0,1,.27-.67,2,2,0,0,0,.28-.61l.07-.08a.93.93,0,0,1,.22-.69c.08-.1,0-.26.19-.33s0-.11,0-.13,0-.32.12-.47a1,1,0,0,0,.15-.38c0-.17.08-.35.14-.52a.85.85,0,0,0,.07-.41c.14-.13.09-.32.15-.46s.09-.57.2-.84,0-.33.07-.48a2.06,2.06,0,0,0,.13-.74.47.47,0,0,1,.19-.4,1,1,0,0,1,.49.24l1.42,1.47,0,.05a2.42,2.42,0,0,0,.44.57,1.28,1.28,0,0,1,.2.26,1.88,1.88,0,0,0,.71.69h.37v-.16a1.51,1.51,0,0,0,.46-.74c0-.15,0-.31.15-.41,0-.28.06-.56.1-.88l.12-.08c0-.17,0-.32,0-.47a1.85,1.85,0,0,0,.07-.41.72.72,0,0,1,0-.43c.08-.11,0-.29.08-.41l-.05-.06a2.23,2.23,0,0,0,.05-.36c0-.38,0-.77,0-1.16a2.54,2.54,0,0,1,0-.34l-.06-.08a.67.67,0,0,0,0-.63.74.74,0,0,0,0-.65c0-.13.08-.26,0-.32s0-.28-.06-.42c0-.42.09-.87-.14-1.27,0-.29-.06-.58-.07-.86a1,1,0,0,0-.08-.49c-.05-.1,0-.21,0-.27s0-.25-.06-.32,0-.27-.07-.35,0-.24-.08-.35a.76.76,0,0,1-.11-.32,2.16,2.16,0,0,0-.1-.44c0-.06,0-.11,0-.15a.79.79,0,0,0-.1-.34c0-.09-.08-.17-.11-.26a1.59,1.59,0,0,1-.13-.46c0-.18-.13-.29-.16-.45s-.16-.38-.13-.53-.21-.33-.2-.5-.2-.25-.21-.42v0c0-.15-.09-.3-.15-.45s-.12-.17-.12-.25a.74.74,0,0,0-.16-.42,4.68,4.68,0,0,1-.4-.73c-.06-.12-.19-.22-.15-.38s0-.05-.06-.08-.09-.19-.14-.28a3.62,3.62,0,0,0-.39-.76c-.16-.19-.16-.46-.37-.61,0-.17-.17-.28-.14-.47l-.23-.19a2,2,0,0,0-.26-.62c-.12-.19-.3-.35-.4-.55s-.33-.34-.5-.58c0,0,0-.14-.08-.18a3.23,3.23,0,0,1-.56-.77l-.17-.24-1-1.08s0,0,0-.05a2.09,2.09,0,0,0-.41-.48c-.15-.16-.29-.34-.45-.5a1.33,1.33,0,0,1-.49-.86l.14-.08a1.47,1.47,0,0,1,.59-.07,1.53,1.53,0,0,0,.7-.21h.36a.39.39,0,0,0,.28-.06.35.35,0,0,1,.28-.07,4.91,4.91,0,0,0,1.15-.07,1.43,1.43,0,0,1,.28-.07l.88-.05a2.54,2.54,0,0,0,1-.25c0-.07.07-.14.09-.18a5.42,5.42,0,0,1-.46-.56,1,1,0,0,0-.31-.35c-.29-.19-.5-.47-.79-.66s-.24-.39-.51-.44c0,0,0-.06-.08-.09a.48.48,0,0,0-.09-.14,1,1,0,0,1-.46-.38c0-.06-.18-.07-.25-.13s-.1-.17-.18-.23l-.68-.44a2.31,2.31,0,0,1-.3-.28l-.46-.26-.19-.21a4,4,0,0,1-.52-.32c-.18,0-.16-.21-.31-.25a1.23,1.23,0,0,1-.4-.19c-.13-.08-.25-.19-.37-.28a1.1,1.1,0,0,0-.34-.25c-.2,0-.32-.18-.49-.25a2.32,2.32,0,0,1-.46-.35l-.19-.07c-.25-.14-.44-.34-.66-.49l-.18-.07-.43-.22a4.52,4.52,0,0,1-.66-.33c-.21-.14-.46-.23-.67-.37s-.49-.2-.71-.38a1.07,1.07,0,0,0-.32-.2,7.41,7.41,0,0,1-.93-.35h0c-.16-.09-.35-.1-.51-.19a2.49,2.49,0,0,0-.77-.24l-.08-.13h-.23a1,1,0,0,0-.45-.28,1.56,1.56,0,0,1-.47-.17.72.72,0,0,0-.52-.15l-.13-.13a1.25,1.25,0,0,1-.77-.28,1.64,1.64,0,0,1-.73-.18c-.24-.13-.51-.16-.75-.29s-.27,0-.38-.14h0l-.06.06a2.4,2.4,0,0,0-.46-.21A2.23,2.23,0,0,0,48.87,8,3,3,0,0,1,48.35,8a2.53,2.53,0,0,0-.23-.12.83.83,0,0,0-.32-.07,1.16,1.16,0,0,1-.31-.07,4.51,4.51,0,0,1-.55-.09,8.1,8.1,0,0,0-.79-.18,1.32,1.32,0,0,0-.39-.06.54.54,0,0,1-.39-.14,3.19,3.19,0,0,1-.53-.06L44.34,7a1.39,1.39,0,0,0-.73,0l-.13-.13L43,7a2.31,2.31,0,0,0-.16-.19c-.25,0-.49.05-.69-.14a3.93,3.93,0,0,1-.59-.06,7.93,7.93,0,0,0-1-.08c-.13,0-.26,0-.39-.06a.19.19,0,0,0-.19,0c-.09.09-.2,0-.29,0a3.55,3.55,0,0,1-.8-.06,2.54,2.54,0,0,0-.39,0H37a1.19,1.19,0,0,0-.38,0c-.13.06-.22,0-.33,0s-.07,0-.1,0c-.27.16-.45,0-.62-.17,0,0,.06-.06.07-.09A5,5,0,0,1,36.34,5c.17-.25.41-.46.56-.73a2,2,0,0,1,.46-.6,4.81,4.81,0,0,1,.52-.78,7.08,7.08,0,0,1,.51-.71,3.74,3.74,0,0,1,.75-.89.29.29,0,0,0,.15-.14c.08-.27.31-.42.49-.62V.2A.76.76,0,0,0,39.6.11a1,1,0,0,0-.24,0c-.12,0-.27,0-.37,0s-.45,0-.67,0c-.14.12-.31,0-.46.07a1.35,1.35,0,0,1-.49.06A.68.68,0,0,0,37,.3l0,0a1.48,1.48,0,0,0-.49,0,3.16,3.16,0,0,1-.73.15A3.17,3.17,0,0,1,35,.59s-.07,0-.11.05a7.51,7.51,0,0,1-.78.21c-.18,0-.36.08-.54.12a2.21,2.21,0,0,0-.56.15.83.83,0,0,1-.38.07c-.15,0-.28.09-.42.08a.71.71,0,0,0-.4.13,1.15,1.15,0,0,1-.28.07,5.69,5.69,0,0,0-1.12.38,1.42,1.42,0,0,1-.33.11c-.14,0-.32,0-.4.2a.65.65,0,0,0-.28,0,8.55,8.55,0,0,0-.95.38.5.5,0,0,1-.2.08,1.15,1.15,0,0,0-.53.23,1.65,1.65,0,0,1-.69.26.65.65,0,0,0-.27.08,1.24,1.24,0,0,1-.82.26c-.05,0-.08.12-.13.12-.3,0-.5.3-.79.35-.11,0-.14.19-.29.14-.15.12-.37.11-.53.21a3.83,3.83,0,0,1-.58.27,6.4,6.4,0,0,0-.83.41c-.33.22-.71.35-1.05.55l-.31.12s-.12.13-.21.21c-.33,0-.47.43-.84.43a3.19,3.19,0,0,1-.26.26,2,2,0,0,1-.25.13,2.61,2.61,0,0,0-.27.19c-.08.05-.16.14-.24.15s-.14.16-.22.22-.3.22-.45.32a2.08,2.08,0,0,1-.47.28A.35.35,0,0,0,18,8a1.32,1.32,0,0,1-.51.43,2,2,0,0,1-.19.12c-.07,0,0,.17-.15.15s-.07.12-.12.18a.27.27,0,0,1-.1.08,9,9,0,0,0-1.15.88,1.74,1.74,0,0,1-.2.13v.22l-.27.08a5.72,5.72,0,0,1-.74.68,8.73,8.73,0,0,0-.68.68,4.71,4.71,0,0,0-.66.68c-.2.25-.53.37-.64.69h-.14a8,8,0,0,1-1.29,1.33c.06.1,0,.17-.1.24a6.46,6.46,0,0,0-.67.71,3.44,3.44,0,0,1-.56.66c-.1.1-.19.23-.3.35s-.21.25-.32.38L9,16.92a5,5,0,0,0-.43.5,4.07,4.07,0,0,0-.31.49,3,3,0,0,1-.41.62c-.13.17-.27.32-.41.48s-.25.34-.36.54a8.18,8.18,0,0,1-.66.92c-.19.26-.36.55-.57.8a1.48,1.48,0,0,0-.08.13,1.89,1.89,0,0,0-.19.3,1.39,1.39,0,0,0-.16.35.57.57,0,0,1-.2.29,1,1,0,0,0-.2.43,1.17,1.17,0,0,1-.05.11A8.1,8.1,0,0,0,4.22,24c-.16.27-.25.58-.41.86a4.37,4.37,0,0,1-.35.68c0,.32-.29.5-.32.79A.71.71,0,0,0,3,26.8a.6.6,0,0,1-.11.3c-.09.08-.08.2-.13.29a3,3,0,0,0-.18.3.84.84,0,0,0-.06.14,3.19,3.19,0,0,1-.27.69,1.39,1.39,0,0,1,0,.35,4.4,4.4,0,0,0-.18.51,2.56,2.56,0,0,0-.19.5c0,.15-.12.25-.15.38a7.7,7.7,0,0,1-.37,1.15,3.38,3.38,0,0,0-.25.82c0,.26-.13.5-.19.75a2.52,2.52,0,0,1-.22.69.54.54,0,0,0-.09.38c0,.06,0,.13,0,.18a1.65,1.65,0,0,0-.1.58,1.12,1.12,0,0,1-.21.69c0,.12,0,.29,0,.38s0,.27-.11.4,0,.29,0,.43.26.37.4.53a10.79,10.79,0,0,1,.85,1.16" transform="translate(-0.04 -0.04)"/>
        </g>
      </g>
    </g>
  </g>
</svg>