<svg xmlns="http://www.w3.org/2000/svg" xmlns:xlink="http://www.w3.org/1999/xlink" viewBox="0 0 60.176 60.176">
	<defs>
		<style>
			:root {
				--wh:#dff0fe;
				--pw:#fff;
				--bl:#000;
				--rd:#ff0000;
				--lB:#98ccfd;
				--dB:#4788c7;
				--lG:#a5a5a5;
				--dG:#808083;
				--lY:#fce6b1;
				--dY:#ffc843;
				--bY:#3f3a02;
				--s1:#fff76b;
				--s2:#fff845;
				--s3:#ffda4e;
				--s4:#fb8933;
				--s5:#fdc830;
				--s6:#f37335;
				--bf0:#99ffcc;/*BF2*/
				--bf1:#99ff66;/*BF3*/
				--bf2:#ccff00;/*BF6*/
				--bf3:#ffcc00;/*BF8*/
				--bf4:#ff6600;/*BF10*/
				--bf5:var(--rd);/*BF12*/
				--bfs:var(--lB);
				--rays: #f0c419;
				--core:#ede21b;
				--clouds:#d0e8f9;
				--outline:#abcadd;
			}
		</style>
		<linearGradient id="moonDark" gradientUnits="userSpaceOnUse" x1="0%" y1="0%" x2="0%" y2="100%"><stop stop-color="var(--dY)" offset="0"/><stop stop-color="var(--bY)" offset="80%"/></linearGradient>
		<linearGradient id="moon" gradientUnits="userSpaceOnUse" x1="0%" y1="0%" x2="0%" y2="100%"><stop stop-color="var(--lY)" offset="0"/><stop stop-color="var(--dY)" offset="50%"/><stop stop-color="var(--bY)" offset="80%"/></linearGradient>
		<linearGradient id="bkgrd" gradientUnits="userSpaceOnUse" x1="0%" y1="0%" x2="0%" y2="100%"><stop stop-color="#f8b62d" offset="35%"/><stop stop-color="#808083" offset="75%"/></linearGradient>
		<radialGradient id="sunCore" gradientUnits="userSpaceOnUse" r="95" spreadMethod="pad"><stop stop-color="var(--s1)" offset="0"/><stop stop-color="var(--s2)" offset="10%"/><stop stop-color="var(--s3)" offset="30%"/><stop stop-color="var(--s4)" offset="100%"/></radialGradient>
		<radialGradient id="sunRays" gradientUnits="userSpaceOnUse" r="100%" spreadMethod="pad"><stop stop-color="var(--s4)" offset="5%"/><stop stop-color="var(--s3)" offset="72%"/><stop stop-color="var(--s2)" offset="94%"/><stop stop-color="var(--s1)" offset="100%"/></radialGradient>
		<linearGradient id="lightCloud" gradientUnits="userSpaceOnUse" x1="0%" y1="0%" x2="0%" y2="100%" spreadMethod="pad"><stop class="s5" stop-color="var(--wh)" offset="63%"/><stop class="s7" stop-color="var(--dG)" offset="83%"/><stop class="s8" stop-color="var(--bl)" offset="100%"/></linearGradient>
		<path id="overcastRays" d="M6.139 23.807c0-.552-.447-1-1-1H1c-.553 0-1 .448-1 1s.447 1 1 1h4.139C5.691 24.807 6.139 24.359 6.139 23.807zM21 2.807c-.553 0-1 .448-1 1v4.138c0 .552.447 1 1 1s1-.448 1-1V3.807C22 3.255 21.553 2.807 21 2.807zM6.535 7.927c-.391-.391-1.023-.391-1.414 0s-.391 1.023 0 1.414l3.956 3.956c.195.195.451.293.707.293s.512-.098.707-.293c.391-.391.391-1.023 0-1.414L6.535 7.927zM36.88 7.927c-.391-.391-1.023-.391-1.414 0l-3.956 3.956c-.391.391-.391 1.023 0 1.414.195.195.451.293.707.293s.512-.098.707-.293l3.956-3.956C37.271 8.951 37.271 8.318 36.88 7.927zM14.915 6.91c-.217-.509-.808-.745-1.312-.53-.509.216-.746.803-.53 1.311l.809 1.905c.162.381.532.61.921.61.131 0 .264-.026.391-.08.509-.216.746-.803.53-1.311L14.915 6.91zM28.093 6.254c-.513-.205-1.095.041-1.302.553l-.775 1.918c-.207.512.04 1.095.552 1.302.123.049.25.073.375.073.396 0 .77-.236.927-.626l.775-1.918C28.852 7.044 28.604 6.461 28.093 6.254zM6.009 29.084l-1.904.809c-.509.216-.746.803-.53 1.311.162.381.532.61.921.61.131 0 .264-.026.391-.08l1.904-.809c.509-.216.746-.803.53-1.311C7.104 29.105 6.512 28.869 6.009 29.084zM4 18.017l1.918.775c.123.049.25.073.375.073.396 0 .77-.236.927-.625.207-.512-.04-1.095-.552-1.302L4.75 16.162c-.512-.205-1.095.041-1.302.552C3.241 17.227 3.488 17.81 4 18.017z"/>
		<path id="overcastSun" d="M12.806,34.876c0.719,0.079,1.418,0.223,2.087,0.439c-0.446-2.027,0.004-4.231,1.426-5.958 c1.872-2.273,4.878-3.063,7.523-2.224l0.012,0.004c0.816-2.055,2.586-3.693,4.902-4.238c0.824-0.194,1.646-0.225,2.441-0.129 c-0.007-0.155-0.023-0.307-0.023-0.464c0-2.063,0.604-3.982,1.632-5.605C30.39,12.7,26.015,10.014,21,10.014 c-7.618,0-13.793,6.175-13.793,13.793C7.207,28.351,9.414,32.366,12.806,34.876z"/>
		<g id="overcastClouds" fill="var(--wh)">
			<path d="M60.152,29.369h-0.081c0.035,0.304,0.059,0.611,0.059,0.925c0,0.553-0.447,1-1,1s-1-0.447-1-1 c0-3.309-2.691-6-6-6s-6,2.691-6,6c0,0.553-0.447,1-1,1s-1-0.447-1-1c0-4.064,3.049-7.423,6.978-7.927 c-0.226-5.039-4.384-9.073-9.478-9.073c-5.111,0-9.281,4.06-9.481,9.123c0.829,0.196,1.632,0.52,2.378,0.981 c1.816,1.125,3.086,2.89,3.576,4.97c0.126,0.538-0.207,1.076-0.744,1.203c-0.538,0.121-1.076-0.207-1.203-0.744 c-0.758-3.222-3.999-5.226-7.214-4.467c-3.221,0.758-5.225,3.994-4.467,7.215c0.126,0.537-0.207,1.075-0.745,1.202 c-0.076,0.018-0.153,0.026-0.229,0.026c-0.453,0-0.864-0.311-0.973-0.771c-0.294-1.251-0.268-2.502,0.012-3.674 c-2.058-0.301-4.137,0.476-5.493,2.122c-1.258,1.529-1.625,3.498-1.175,5.285c0.001,0.012,0.007,0.022,0.008,0.034 c0.306,1.186,0.97,2.29,1.985,3.127c0.426,0.352,0.487,0.981,0.137,1.408c-0.198,0.24-0.484,0.364-0.773,0.364 c-0.224,0-0.448-0.074-0.635-0.228c-1.217-1.002-2.088-2.311-2.546-3.781c-4.043-1.054-8.294,0.647-10.49,4.262 c-1.317,2.168-1.712,4.72-1.11,7.185c0.602,2.466,2.127,4.549,4.296,5.867c0.472,0.287,0.622,0.901,0.335,1.374 c-0.188,0.31-0.518,0.48-0.855,0.48c-0.133,0-0.265-0.036-0.392-0.091c1.58,0.936,3.399,1.509,5.344,1.593l8.209,0.003 c5.307-0.085,9.853-3.36,11.791-7.992c1.963,4.693,6.603,8,12,8c9.374,0,17-7.626,17-17v-10L60.152,29.369z"/>
			<g fill="var(--lB)">
				<path d="M53.108,22.435c-0.231-6.139-5.284-11.066-11.478-11.066c-6.142,0-11.16,4.844-11.47,10.91 c-0.558,0.012-1.119,0.078-1.676,0.209c-2.336,0.55-4.185,2.082-5.229,4.052c-2.882-0.585-5.848,0.433-7.75,2.742 c-1.251,1.52-1.879,3.408-1.81,5.359c-4.63-0.834-9.34,1.224-11.844,5.344c-1.596,2.625-2.073,5.714-1.345,8.698 s2.575,5.506,5.2,7.102c0.162,0.099,0.342,0.146,0.519,0.146c0.338,0,0.667-0.171,0.855-0.48c0.287-0.473,0.137-1.087-0.335-1.374 c-2.169-1.318-3.694-3.401-4.296-5.867c-0.602-2.465-0.207-5.017,1.11-7.185c2.196-3.614,6.447-5.315,10.49-4.262 c0.458,1.471,1.33,2.779,2.546,3.781c0.187,0.153,0.411,0.228,0.635,0.228c0.289,0,0.575-0.124,0.773-0.364 c0.351-0.427,0.289-1.057-0.137-1.408c-1.016-0.836-1.679-1.941-1.985-3.127c-0.001-0.012-0.007-0.022-0.008-0.034 c-0.45-1.787-0.083-3.756,1.175-5.285c1.356-1.646,3.435-2.423,5.493-2.122c-0.28,1.173-0.307,2.423-0.012,3.674 c0.108,0.461,0.52,0.771,0.973,0.771c0.076,0,0.153-0.009,0.229-0.026c0.538-0.127,0.871-0.665,0.745-1.202 c-0.758-3.221,1.246-6.457,4.467-7.215c3.215-0.759,6.456,1.245,7.214,4.467c0.127,0.537,0.665,0.865,1.203,0.744 c0.537-0.127,0.87-0.665,0.744-1.203c-0.49-2.08-1.76-3.845-3.576-4.97c-0.746-0.462-1.549-0.785-2.378-0.981 c0.2-5.063,4.37-9.123,9.481-9.123c5.094,0,9.253,4.033,9.478,9.073c-3.929,0.504-6.978,3.863-6.978,7.927c0,0.553,0.447,1,1,1 s1-0.447,1-1c0-3.309,2.691-6,6-6s6.046,2.691,6.046,6c0,0.028,0,1.327,0,3c0,0.552,0.448,1,1,1s1-0.448,1-1v-3 C60.176,26.29,57.059,22.92,53.108,22.435z"/>
				<path d="M43.176 57.369c-4.973 0-9.491-2.608-12-6.789-2.509 4.181-7.027 6.789-12 6.789-.552 0-1-.447-1-1s.448-1 1-1c4.853 0 9.201-2.899 11.078-7.386l.922-2.206.922 2.206c1.876 4.486 6.225 7.386 11.078 7.386.552 0 1 .447 1 1S43.729 57.369 43.176 57.369zM55.073 43.244c-.458-3.979-3.843-7.082-7.943-7.082-4.411 0-8 3.589-8 8 0 .552.448 1 1 1s1-.448 1-1c0-3.309 2.691-6 6-6 3.003 0 5.49 2.219 5.925 5.102-2.797.509-4.925 2.957-4.925 5.898 0 .552.448 1 1 1s1-.448 1-1c0-2.206 1.794-4 4-4s4 1.794 4 4c0 .552.448 1 1 1s1-.448 1-1C60.13 46.175 57.934 43.699 55.073 43.244z"/>
			</g>
		</g>
	</defs>
	<g id="sun" fill="url(#moonDark)">
		<use xlink:href="#overcastSun"/>
		<g id="sunsRays" fill="url(#sunRays)">
			<use xlink:href="#overcastRays"/>
		</g>
	</g>
	<use xlink:href="#overcastClouds"/>
</svg>
