<svg id="Layer_1" data-name="Layer 1" xmlns="http://www.w3.org/2000/svg" viewBox="0 0 20 20"><defs><style>.cls-1{fill:#ccc;}.cls-2{fill:#fff;}</style></defs><title>Artboard 1</title><circle class="cls-1" cx="10" cy="10" r="10"/><path class="cls-2" d="M12.64,14l-.17.7-1.23.46a3.27,3.27,0,0,1-1.07.16,2.13,2.13,0,0,1-1.46-.46,1.48,1.48,0,0,1-.52-1.16,4.07,4.07,0,0,1,0-.56q0-.28.13-.64L9,10.21q.09-.33.15-.62A2.75,2.75,0,0,0,9.2,9,.83.83,0,0,0,9,8.44a1,1,0,0,0-.69-.17,1.81,1.81,0,0,0-.51.08l-.45.15.17-.7q.63-.26,1.21-.44a3.64,3.64,0,0,1,1.1-.18,2.09,2.09,0,0,1,1.44.45,1.49,1.49,0,0,1,.5,1.17q0,.15,0,.52a3.54,3.54,0,0,1-.13.69L11,12.27a6.39,6.39,0,0,0-.14.63,3.3,3.3,0,0,0-.06.53A.76.76,0,0,0,11,14a1.14,1.14,0,0,0,.7.16,2,2,0,0,0,.53-.08A2.9,2.9,0,0,0,12.64,14Zm.16-9.54a1.33,1.33,0,0,1-.45,1,1.61,1.61,0,0,1-2.17,0,1.36,1.36,0,0,1,0-2,1.6,1.6,0,0,1,2.17,0A1.34,1.34,0,0,1,12.81,4.44Z"/></svg>