<?xml version="1.0" encoding="iso-8859-1"?>
<!-- Generator: Adobe Illustrator 19.2.0, SVG Export Plug-In . SVG Version: 6.00 Build 0)  -->
<svg xmlns="http://www.w3.org/2000/svg" xmlns:xlink="http://www.w3.org/1999/xlink" version="1.1" id="Layer_1" x="0px" y="0px" viewBox="0 0 40 40" style="enable-background:new 0 0 40 40;" xml:space="preserve">
<g>
	<polygon style="fill:#98CCFD;" points="16.5,35.75 16.5,32.5 23.5,32.5 23.5,35.75 20,38.375  "/>
	<path style="fill:#4788C7;" d="M23,33v2.5l-3,2.25l-3-2.25V33H23 M24,32h-8v4l4,3l4-3V32L24,32z"/>
</g>
<g>
	<path style="fill:#DFF0FE;" d="M13.5,19.5v-16h-1c-0.552,0-1-0.448-1-1s0.448-1,1-1h15c0.552,0,1,0.448,1,1s-0.448,1-1,1h-1v16   H13.5z"/>
	<path style="fill:#4788C7;" d="M27.5,2C27.771,2,28,2.229,28,2.5S27.771,3,27.5,3H27h-1v1v15H14V4V3h-1h-0.5   C12.229,3,12,2.771,12,2.5S12.229,2,12.5,2H27.5 M27.5,1h-15C11.675,1,11,1.675,11,2.5S11.675,4,12.5,4H13v16h14V4h0.5   C28.325,4,29,3.325,29,2.5S28.325,1,27.5,1L27.5,1z"/>
</g>
<g>
	<path style="fill:#B6DCFE;" d="M15,32.5c-0.827,0-1.5-0.673-1.5-1.5V16.5h13V31c0,0.827-0.673,1.5-1.5,1.5H15z"/>
	<path style="fill:#4788C7;" d="M26,17v14c0,0.551-0.449,1-1,1H15c-0.551,0-1-0.449-1-1V17H26 M27,16H13v15c0,1.1,0.9,2,2,2h10   c1.1,0,2-0.9,2-2V16L27,16z"/>
</g>
<rect x="18" y="4" style="fill:#4788C7;" width="1" height="12"/>
<path style="fill:#4788C7;" d="M18.5,4h4C22.776,4,23,4.224,23,4.5v0C23,4.776,22.776,5,22.5,5h-4C18.224,5,18,4.776,18,4.5v0  C18,4.224,18.224,4,18.5,4z"/>
<path style="fill:#4788C7;" d="M18.5,8h2C20.776,8,21,8.224,21,8.5v0C21,8.776,20.776,9,20.5,9h-2C18.224,9,18,8.776,18,8.5v0  C18,8.224,18.224,8,18.5,8z"/>
<path style="fill:#4788C7;" d="M18.5,12h2c0.276,0,0.5,0.224,0.5,0.5v0c0,0.276-0.224,0.5-0.5,0.5h-2c-0.276,0-0.5-0.224-0.5-0.5v0  C18,12.224,18.224,12,18.5,12z"/>
<path style="fill:#4788C7;" d="M18.5,20h4c0.276,0,0.5,0.224,0.5,0.5v0c0,0.276-0.224,0.5-0.5,0.5h-4c-0.276,0-0.5-0.224-0.5-0.5v0  C18,20.224,18.224,20,18.5,20z"/>
<path style="fill:#4788C7;" d="M18.5,24h2c0.276,0,0.5,0.224,0.5,0.5v0c0,0.276-0.224,0.5-0.5,0.5h-2c-0.276,0-0.5-0.224-0.5-0.5v0  C18,24.224,18.224,24,18.5,24z"/>
<path style="fill:#4788C7;" d="M18.5,28h2c0.276,0,0.5,0.224,0.5,0.5v0c0,0.276-0.224,0.5-0.5,0.5h-2c-0.276,0-0.5-0.224-0.5-0.5v0  C18,28.224,18.224,28,18.5,28z"/>
<rect x="18" y="16" style="fill:#4788C7;" width="1" height="17"/>
</svg>
