<svg xmlns="http://www.w3.org/2000/svg" xmlns:xlink="http://www.w3.org/1999/xlink" viewBox="0 0 512 512" xml:space="preserve">
	<title>catalog icons</title>
	<defs>
		<style>:root {
			--wh:#dff0fe;
			--pw:#fff;
			--bl:#000;
			--rd:#ff0000;
			--lB:#98ccfd;
			--dB:#4788c7;
			--lG:#a5a5a5;
			--dG:#808083;
			--lY:#fce6b1;
			--dY:#ffc843;
			--bY:#3f3a02;
			--s1:#fff76b;
			--s2:#fff845;
			--s3:#ffda4e;
			--s4:#fb8933;
			--s5:#fdc830;
			--s6:#f37335;
			--bf0:#99ffcc;/*BF2*/
			--bf1:#99ff66;/*BF3*/
			--bf2:#ccff00;/*BF6*/
			--bf3:#ffcc00;/*BF8*/
			--bf4:#ff6600;/*BF10*/
			--bf5:var(--rd);/*BF12*/
			--bfs:var(--lB)
		}</style>
	</defs>
	<path fill="#edebea" d="M256,484.24a66,66,0,0,1-33-8.84L82.49,394.28a66.19,66.19,0,0,1-33-57.16V174.88a66.2,66.2,0,0,1,33-57.16L223,36.6a66,66,0,0,1,66,0l140.51,81.12a66.2,66.2,0,0,1,33,57.16V337.12a66.19,66.19,0,0,1-33,57.16L289,475.4A66,66,0,0,1,256,484.24Z"/>
	<path fill="#234b7d" d="M256,37.76a56,56,0,0,1,28,7.5l140.51,81.12a56.16,56.16,0,0,1,28,48.5V337.12a56.16,56.16,0,0,1-28,48.5L284,466.74a56,56,0,0,1-56,0L87.49,385.62a56.16,56.16,0,0,1-28-48.5V174.88a56.16,56.16,0,0,1,28-48.5L228,45.26a56,56,0,0,1,28-7.5m0-20a75.94,75.94,0,0,0-38,10.18L77.49,109.06a76,76,0,0,0-38,65.82V337.12a76,76,0,0,0,38,65.82L218,484.06a76,76,0,0,0,76,0l140.51-81.12a76,76,0,0,0,38-65.82V174.88a76,76,0,0,0-38-65.82L294,27.94a75.94,75.94,0,0,0-38-10.18Z"/>
	<g>
		<g id="arrows" fill="#f06723">
			<g>
				<path d="M143.68,215.43a6,6,0,0,1-5.59-8.08,126,126,0,0,1,183.58-63.08,6,6,0,1,1-6.24,10.19,114.06,114.06,0,0,0-166.16,57.1A6,6,0,0,1,143.68,215.43Z"/>
				<path d="M296,168.21l-3.3-11.49,25.8-7.41-3.88-25.86,11.81-1.77,4.66,31a6,6,0,0,1-4.26,6.63Z"/>
			</g>
			<g>
				<path d="M256,377.67a124.74,124.74,0,0,1-55.72-13A6,6,0,0,1,205.55,354,112.8,112.8,0,0,0,256,365.72c53.92,0,100.88-38.27,111.67-91a6,6,0,0,1,11.71,2.4C367.44,335.38,315.55,377.67,256,377.67Z"/>
				<path d="M204.51,390.32,195,360.4a6,6,0,0,1,3.17-7.22l29.05-13.59,5.07,10.82L208,361.79l7.89,24.92Z"/>
			</g>
		</g>
		<g id="bluedots" fill="#408ae7">
			<path d="M344.4,176.64a6,6,0,0,1-4.39-1.93l-.94-1a6,6,0,0,1,8.75-8.14l1,1.05a6,6,0,0,1-4.4,10Z"/>
			<path d="M369.77,219.64a6,6,0,0,1-5.67-4.1c-.27-.84-.57-1.67-.86-2.49A6,6,0,1,1,374.48,209c.33.93.66,1.86,1,2.79a6,6,0,0,1-3.81,7.55A6.09,6.09,0,0,1,369.77,219.64ZM359.36,196.8a6,6,0,0,1-5.15-2.93c-.45-.76-.92-1.52-1.38-2.28a6,6,0,1,1,10.15-6.3c.51.82,1,1.66,1.51,2.5a6,6,0,0,1-5.13,9Z"/>
			<path d="M375,242.8a6,6,0,0,1-5.92-5.24l-.17-1.29a6,6,0,1,1,11.83-1.69l.19,1.5a6,6,0,0,1-5.18,6.67A6.3,6.3,0,0,1,375,242.8Z"/>
			<path d="M171.15,342.54a6,6,0,0,1-4.22-1.75c-.7-.7-1.39-1.4-2.07-2.11a6,6,0,0,1,8.64-8.27c.62.65,1.24,1.29,1.88,1.93a6,6,0,0,1-4.23,10.2Zm-15.93-19.7a6,6,0,0,1-5-2.73c-.53-.83-1.06-1.66-1.57-2.5a6,6,0,1,1,10.17-6.26c.47.76.95,1.52,1.44,2.27a6,6,0,0,1-5,9.22Zm-11.45-22.6a6,6,0,0,1-5.59-3.86c-.34-.92-.68-1.85-1-2.78a6,6,0,1,1,11.28-4c.29.85.6,1.68.91,2.52a6,6,0,0,1-5.59,8.08Zm-6.41-24.5a6,6,0,0,1-5.91-5.08c-.14-1-.28-1.94-.4-2.91a6,6,0,1,1,11.85-1.53c.12.88.24,1.77.37,2.66a6,6,0,0,1-5,6.8A6.92,6.92,0,0,1,137.36,275.74Z"/>
		</g>
	</g>
	<g>
		<path fill="#404b58" d="M316.91,227.73H194.14a4.1,4.1,0,0,1,0-8.19H316.91a4.1,4.1,0,0,1,0,8.19Z"/>
		<g>
			<circle fill="#f06723" cx="211.3" cy="209.09" r="4.52"/>
			<circle fill="#d3dd2d" cx="228.07" cy="209.09" r="4.52"/>
			<circle fill="#408ae7" cx="244.74" cy="209.09" r="4.52"/>
		</g>
		<path fill="#404b58" d="M316.91,321.13H194.14a4.1,4.1,0,0,1-4.09-4.1V194.26a4.09,4.09,0,0,1,4.09-4.09H316.91a4.09,4.09,0,0,1,4.09,4.09V317A4.1,4.1,0,0,1,316.91,321.13Zm-118.68-8.19H312.81V198.35H198.23Z"/>
		<svg id="logosmall" viewBox="0 0 1000 1000" width="70" height="80" style="transform:translate(43%,45%);" xml:space="preserve">
			<defs>
				<linearGradient id="a" x2="56%" y2="51%" gradientUnits="userSpaceOnUse">
					<stop offset="0" stop-color="#ffd121"/>
					<stop offset="50%" stop-color="#ffb505"/>
					<stop offset="100%" stop-color="#fa9618"/>
				</linearGradient>
				<linearGradient id="b" x2="0" y2="100%" gradientUnits="userSpaceOnUse">
					<stop offset="0" stop-color="#3fb1ca"/>
					<stop offset="50%" stop-color="#0099b9"/>
					<stop offset="100%" stop-color="#007c84"/>
				</linearGradient>
			</defs>
			<path fill="url(#a)" d="M485 165c41-11 83-16 112-18C545 68 512 18 496 0c0 0-3 61-125 210 22-12 67-33 114-45zM643 216c-12-18-23-35-33-50-20 21-49 56-73 93-35 53-55 111-55 111l78-24s-41 71-61 145c-19 64-17 133-17 133l54-25s-24 89-26 193c-2 91 16 173 25 206 179-18 318-169 320-354 1-160-116-285-212-428z"/>
			<path fill="url(#b)" d="M 460 868 C 434 800 427 722 427 722 L 387 745 C 387 745 368 680 361 614 354 550 361 486 361 486 L 308 507 C 308 507 304 430 317 356 325 307 340 261 349 236 348 238 346 240 344 242 236 367 144 491 144 644 144 841 303 1000 499 1000 509 1000 519 1000 529 999 513 974 481 923 460 868 Z"></path>
		</svg>
	</g>
</svg>
