<?xml version="1.0" encoding="UTF-8" standalone="no"?>
<!-- Generator: Adobe Illustrator 17.1.0, SVG Export Plug-In . SVG Version: 6.00 Build 0)  -->
<svg xmlns:dc="http://purl.org/dc/elements/1.1/" xmlns:cc="http://creativecommons.org/ns#" xmlns:rdf="http://www.w3.org/1999/02/22-rdf-syntax-ns#" xmlns:svg="http://www.w3.org/2000/svg" xmlns="http://www.w3.org/2000/svg" xmlns:sodipodi="http://sodipodi.sourceforge.net/DTD/sodipodi-0.dtd" xmlns:inkscape="http://www.inkscape.org/namespaces/inkscape" version="1.1" id="Layer_1" x="0px" y="0px" viewBox="0 0 56 56" enable-background="new 0 0 612 792" xml:space="preserve" inkscape:version="0.48.2 r9819" width="100%" height="100%" sodipodi:docname="weather-day-snow.svg"><metadata id="metadata13"><rdf:RDF><cc:Work rdf:about=""><dc:format>image/svg+xml</dc:format><dc:type rdf:resource="http://purl.org/dc/dcmitype/StillImage"/></cc:Work></rdf:RDF></metadata><defs id="defs11"/><sodipodi:namedview pagecolor="#ffffff" bordercolor="#666666" borderopacity="1" objecttolerance="10" gridtolerance="10" guidetolerance="10" inkscape:pageopacity="0" inkscape:pageshadow="2" inkscape:window-width="909" inkscape:window-height="719" id="namedview9" showgrid="false" inkscape:zoom="4.7676768" inkscape:cx="30.767107" inkscape:cy="26.847458" inkscape:window-x="818" inkscape:window-y="25" inkscape:window-maximized="0" inkscape:current-layer="Layer_1"/>


<g id="g2990" transform="matrix(0.08857246,0,0,0.08893023,0.04652239,57.540719)"><path style="fill:#2594e3" inkscape:connector-curvature="0" id="path3" d="m 275.4,-190.3 -27.3,-10.9 21.9,-19.7 c 2.2,-2.2 2.2,-4.4 0,-6.6 l -8.7,-8.7 c -2.2,-2.2 -4.4,-2.2 -6.6,0 l -19.7,17.5 -5.5,-25.1 c 0,-2.2 -3.3,-4.4 -5.5,-3.3 l -12,2.2 c -2.2,0 -4.4,3.3 -3.3,5.5 l 5.5,26.2 -25.1,-9.8 c -2.2,-1.1 -5.5,0 -6.6,2.2 l -4.4,10.9 c -1.1,2.2 0,5.5 2.2,5.5 l 27.3,10.9 -21.9,19.7 c -2.2,2.2 -2.2,4.4 0,6.6 l 8.7,8.7 c 2.2,2.2 4.4,2.2 6.6,0 l 19.7,-18.6 5.5,26.2 c 0,2.2 3.3,4.4 5.5,3.3 l 12,-2.2 c 2.2,0 4.4,-3.3 3.3,-5.5 l -5.5,-26.2 25.1,9.8 c 2.2,1.1 5.5,0 6.6,-2.2 l 4.4,-10.9 c 1.1,-2.2 0,-4.4 -2.2,-5.5 z"/><path style="fill:#2594e3" inkscape:connector-curvature="0" id="path5" d="m 480.9,-203.4 -43.7,-17.5 33.9,-31.7 c 3.3,-3.3 3.3,-7.7 0,-10.9 l -14.2,-14.2 c -3.3,-3.3 -7.7,-3.3 -10.9,0 l -31.7,29.5 -8.7,-41.5 c -1.1,-4.4 -4.4,-6.6 -8.7,-5.5 l -19.7,4.4 c -4.4,1.1 -6.6,4.4 -5.5,8.7 l 8.7,41.5 -40.4,-15.3 c -4.4,-1.1 -8.7,0 -9.8,4.4 l -7.6,18.6 c -1.1,3.3 0,7.7 4.4,9.8 l 43.7,17.5 -32.8,29.5 c -3.3,3.3 -3.3,7.7 0,10.9 l 14.2,14.2 c 3.3,3.3 7.6,3.3 10.9,0 l 31.7,-29.5 8.7,41.5 c 1.1,4.4 4.4,6.6 8.7,5.5 l 19.7,-3.3 c 4.4,-1.1 6.6,-4.4 5.5,-8.7 l -8.7,-41.5 40.4,15.3 c 4.4,1.1 8.7,0 9.8,-4.4 l 7.6,-18.6 c -0.1,-3.2 -1.2,-7.6 -5.5,-8.7 z"/><path style="fill:#d8d9d9" inkscape:connector-curvature="0" id="path7" d="m 444.8,-567.3 c -9.8,0 -18.6,1.1 -27.3,3.3 -16.4,-48.1 -60.1,-82 -111.5,-82 -63.4,0 -114.8,51.4 -118,115.8 -4.4,0 -7.7,-1.1 -12,-1.1 -49.2,0 -88.5,41.5 -88.5,92.9 0,51.4 39.3,92.9 88.5,92.9 h 268.8 c 59,0 107.1,-49.2 107.1,-110.4 0,-62.2 -48.1,-111.4 -107.1,-111.4 z"/></g>
</svg>