<svg id="Layer_1" data-name="Layer 1" xmlns="http://www.w3.org/2000/svg" xmlns:xlink="http://www.w3.org/1999/xlink" viewBox="0 0 40 40">
	<defs>
		<clipPath id="clip-path">
			<circle fill="none" cx="19.78" cy="20" r="16.66" transform="translate(-8.35 19.84) rotate(-45)"/>
		</clipPath>
	</defs>
	<title>weather-icons-40x40-Artboard 15</title>
	<path fill="#aaa" d="M22,4.69V0H18V4.63A15.38,15.38,0,0,1,22,4.69Z"/>
	<path fill="#aaa" d="M22,35.3a15.36,15.36,0,0,1-4,.06V40h4Z"/>
	<path fill="#aaa" d="M4.45,18H0v4H4.45A15.36,15.36,0,0,1,4.45,18Z"/>
	<path fill="#aaa" d="M35.11,22H40V18H35.12A15.36,15.36,0,0,1,35.11,22Z"/>
	<path fill="#aaa" d="M31.51,9.91l3.34-3.34L33.44,5.15,30.11,8.48A15.37,15.37,0,0,1,31.51,9.91Z"/>
	<path fill="#aaa" d="M8.27,30.32,5.15,33.44l1.41,1.41,3.13-3.13A15.33,15.33,0,0,1,8.27,30.32Z"/>
	<path fill="#aaa" d="M9.69,8.28,6.57,5.15,5.15,6.56,8.27,9.68A15.38,15.38,0,0,1,9.69,8.28Z"/>
	<path fill="#aaa" d="M30.1,31.51l3.34,3.34,1.41-1.41L31.5,30.09A15.37,15.37,0,0,1,30.1,31.51Z"/>
	<g clip-path="url(#clip-path)">
		<polygon fill="#555" points="19.77 19.99 4.07 12.14 11.93 4.29 19.77 19.99"/>
	</g>
	<path fill="#aaa" d="M34.44,20h0a14.66,14.66,0,0,1-25,10.37A14.66,14.66,0,1,1,30.15,9.63,14.56,14.56,0,0,1,34.44,20m2,0a16.66,16.66,0,1,0-4.88,11.78A16.6,16.6,0,0,0,36.44,20Z"/>
</svg>
