<svg id="Layer_1" data-name="Layer 1" xmlns="http://www.w3.org/2000/svg" viewBox="0 0 40 40"><defs><style>.cls-1{fill:none;}.cls-2{fill:#aaa;}</style></defs><title>weather-icons-40x40-Artboard 3</title><rect class="cls-1" width="40" height="40"/><path class="cls-2" d="M18.39,23.61H0V26H18.39a3.2,3.2,0,1,1-2.76,4.8H13a5.6,5.6,0,1,0,5.36-7.2Z"/><path class="cls-2" d="M26.4,5.2A5.6,5.6,0,0,0,21,9.2h2.61A3.19,3.19,0,1,1,26.4,14H0v2.4H26.4a5.6,5.6,0,0,0,0-11.2Z"/><path class="cls-2" d="M33.6,18.81H0v2.4H33.62A4,4,0,1,1,29.68,26H27.26a6.4,6.4,0,1,0,6.34-7.2Z"/></svg>