<svg id="Layer_1" data-name="Layer 1" xmlns="http://www.w3.org/2000/svg" viewBox="0 0 40 40"><defs><style>.cls-1{fill:none;}.cls-2{fill:#aaa;}</style></defs><title>weather-icons-40x40-Artboard 5</title><rect class="cls-1" width="40" height="40"/><path class="cls-2" d="M29.35,19.71h0L20,3,10.65,19.71h0a11.52,11.52,0,0,0-1.65,6A11.17,11.17,0,0,0,20,37,11.17,11.17,0,0,0,31,25.67,11.52,11.52,0,0,0,29.35,19.71ZM13.78,32.08A9.27,9.27,0,0,1,12,21.87a13.76,13.76,0,0,0,4.09,7.81c2.44,2.51,5.27,4,7.58,4.22A8.6,8.6,0,0,1,13.78,32.08Z"/></svg>