<?xml version="1.0" encoding="UTF-8"?>
<!-- Generator: Adobe Illustrator 21.1.0, SVG Export Plug-In . SVG Version: 6.00 Build 0)  -->
<svg version="1.1" id="Layer_1" xmlns="http://www.w3.org/2000/svg" xmlns:xlink="http://www.w3.org/1999/xlink" x="0px" y="0px" viewBox="0 0 512.8 512.2" style="enable-background:new 0 0 512.8 512.2;" xml:space="preserve">
<style type="text/css">
	.st0{fill:url(#SVGID_1_);}
	.st1{fill:url(#SVGID_2_);}
	.st2{fill:url(#SVGID_3_);}
	.st3{fill:url(#SVGID_4_);}
	.st4{fill:url(#SVGID_5_);}
	.st5{fill:#EDEDED;}
	.st6{fill:url(#SVGID_6_);}
	.st7{fill:url(#SVGID_7_);}
	.st8{fill:url(#SVGID_8_);}
	.st9{fill:url(#SVGID_9_);}
	.st10{fill:url(#SVGID_10_);}
</style>
<g id="rain_night_-_medium">
	<path d="M206.8,413.4c-3,8.4-12.3,12.8-20.7,9.7c-8.4-3-12.8-12.3-9.7-20.7c3-8.4,27.4-28.4,27.4-28.4S209.8,404.9,206.8,413.4z"/>
	<path d="M333.7,413.4c-3,8.4-12.3,12.8-20.7,9.7c-8.4-3-12.8-12.3-9.7-20.7c3-8.4,27.4-28.4,27.4-28.4S336.7,404.9,333.7,413.4z"/>
	<path d="M172.4,343c-5.8,15.5-23,23.5-38.5,17.9c-15.4-5.3-23.6-22.1-18.3-37.6c0-0.1,0.1-0.3,0.2-0.4c5.6-15.4,51-52,51-52   S178,327.6,172.4,343z"/>
	<path d="M290.5,343c-5.8,15.5-22.9,23.4-38.5,17.9c-15.4-5.3-23.6-22.1-18.3-37.6c0-0.1,0.1-0.3,0.2-0.4c5.6-15.4,51-52,51-52   S296.1,327.6,290.5,343z"/>
	<path d="M408.6,343c-5.8,15.5-23,23.5-38.6,17.9c-15.4-5.3-23.6-22.1-18.3-37.6c0-0.1,0.1-0.3,0.2-0.4c5.6-15.4,51-52,51-52   S414.2,327.6,408.6,343z"/>
	<path d="M288.4,45.8c68.4,0,123.8,46.6,123.8,104s-55.4,104-123.8,104s-123.8-46.6-123.8-104S220.1,45.8,288.4,45.8z"/>
	<path d="M104,155.3c27.3,0,49.4,22.1,49.4,49.4S131.3,254,104,254s-49.4-22.1-49.4-49.4l0,0C54.6,177.4,76.7,155.3,104,155.3z"/>
	<path d="M116.3,194.7h272c21.6,0,39.1,13.3,39.1,29.6S409.9,254,388.3,254h-272c-21.6,0-39.1-13.3-39.1-29.6   S94.7,194.7,116.3,194.7z"/>
	<path d="M184.8,91.9c40.7,0,73.6,33,73.6,73.6s-33,73.6-73.6,73.6s-73.6-33-73.6-73.6l0,0C111.2,124.8,144.2,91.9,184.8,91.9z"/>
	<path d="M393.6,106.6c40.7,0,73.6,32.9,73.6,73.6s-32.9,73.6-73.6,73.6c-40.7,0-73.6-32.9-73.6-73.6c0,0,0,0,0,0   C320,139.6,352.9,106.6,393.6,106.6z"/>
	<path d="M294,53.7c68.4,0,123.8,46.6,123.8,104s-55.4,104-123.8,104s-123.8-46.6-123.8-104S225.6,53.7,294,53.7z"/>
	<path d="M109.6,163.3c27.3,0,49.4,22.1,49.4,49.4S136.8,262,109.6,262s-49.4-22.1-49.4-49.4l0,0C60.2,185.4,82.3,163.3,109.6,163.3   z"/>
	<path d="M121.9,202.7h272c21.6,0,39.1,13.3,39.1,29.6s-17.5,29.6-39.1,29.6h-272c-21.6,0-39.1-13.3-39.1-29.6   S100.3,202.7,121.9,202.7z"/>
	<path d="M190.4,99.8c40.7,0,73.6,33,73.6,73.6s-33,73.6-73.6,73.6s-73.6-33-73.6-73.6S149.8,99.8,190.4,99.8L190.4,99.8z"/>
	<path d="M399.2,114.6c40.7,0,73.6,33,73.6,73.6s-33,73.6-73.6,73.6s-73.6-33-73.6-73.6l0,0C325.6,147.5,358.5,114.6,399.2,114.6z"/>
	
		<linearGradient id="SVGID_1_" gradientUnits="userSpaceOnUse" x1="176.6243" y1="138.38" x2="176.6243" y2="88.2982" gradientTransform="matrix(1 0 0 -1 0 512)">
		<stop offset="0" style="stop-color:#DCF2FD"/>
		<stop offset="0.99" style="stop-color:#4F80C1"/>
	</linearGradient>
	<path class="st0" d="M191.9,413c-3,8.4-12.3,12.8-20.7,9.7c-8.4-3-12.8-12.3-9.7-20.7c3-8.4,27.4-28.4,27.4-28.4   S194.9,404.6,191.9,413z"/>
	
		<linearGradient id="SVGID_2_" gradientUnits="userSpaceOnUse" x1="303.5723" y1="138.38" x2="303.5723" y2="88.2982" gradientTransform="matrix(1 0 0 -1 0 512)">
		<stop offset="0" style="stop-color:#DCF2FD"/>
		<stop offset="0.99" style="stop-color:#4F80C1"/>
	</linearGradient>
	<path class="st1" d="M318.9,413c-3,8.4-12.3,12.8-20.7,9.7c-8.4-3-12.8-12.3-9.7-20.7c3-8.4,27.4-28.4,27.4-28.4   S321.9,404.6,318.9,413z"/>
	
		<linearGradient id="SVGID_3_" gradientUnits="userSpaceOnUse" x1="129.1043" y1="241.47" x2="129.1043" y2="149.676" gradientTransform="matrix(1 0 0 -1 0 512)">
		<stop offset="0" style="stop-color:#DCF2FD"/>
		<stop offset="0.99" style="stop-color:#4F80C1"/>
	</linearGradient>
	<path class="st2" d="M157.6,342.6c-5.8,15.5-23,23.5-38.6,17.9c-15.4-5.3-23.6-22.1-18.3-37.6c0-0.1,0.1-0.3,0.2-0.4   c5.6-15.4,51-52,51-52S163.2,327.2,157.6,342.6z"/>
	
		<linearGradient id="SVGID_4_" gradientUnits="userSpaceOnUse" x1="247.1963" y1="241.47" x2="247.1963" y2="149.6887" gradientTransform="matrix(1 0 0 -1 0 512)">
		<stop offset="0" style="stop-color:#DCF2FD"/>
		<stop offset="0.99" style="stop-color:#4F80C1"/>
	</linearGradient>
	<path class="st3" d="M275.6,342.6c-5.8,15.5-23,23.5-38.5,17.9c-15.4-5.3-23.6-22.1-18.3-37.6c0-0.1,0.1-0.3,0.2-0.4   c5.6-15.4,51-52,51-52S281.3,327.2,275.6,342.6z"/>
	
		<linearGradient id="SVGID_5_" gradientUnits="userSpaceOnUse" x1="365.2682" y1="241.47" x2="365.2682" y2="149.6887" gradientTransform="matrix(1 0 0 -1 0 512)">
		<stop offset="0" style="stop-color:#DCF2FD"/>
		<stop offset="0.99" style="stop-color:#4F80C1"/>
	</linearGradient>
	<path class="st4" d="M393.7,342.6c-5.8,15.5-23,23.5-38.5,17.9c-15.4-5.3-23.6-22.1-18.3-37.6c0-0.1,0.1-0.3,0.2-0.4   c5.6-15.4,51-52,51-52S399.3,327.2,393.7,342.6z"/>
	<path class="st5" d="M273.6,45.4c68.4,0,123.8,46.6,123.8,104s-55.4,104-123.8,104s-123.8-46.6-123.8-104S205.2,45.4,273.6,45.4z"/>
	<path class="st5" d="M89.1,155c27.3,0,49.4,22.1,49.4,49.4s-22.1,49.4-49.4,49.4s-49.4-22.1-49.4-49.4l0,0   C39.8,177.1,61.9,155,89.1,155z"/>
	<path class="st5" d="M101.5,194.4h272c21.6,0,39.1,13.3,39.1,29.6s-17.6,29.6-39.2,29.6h-272c-21.6,0-39.1-13.3-39.1-29.6   S79.9,194.4,101.5,194.4z"/>
	<path class="st5" d="M170,91.5c40.7,0,73.6,33,73.6,73.6s-33,73.6-73.6,73.6s-73.6-33-73.6-73.6l0,0   C96.4,124.5,129.3,91.5,170,91.5z"/>
	<path class="st5" d="M378.7,106.3c40.7,0,73.6,33,73.6,73.6s-33,73.6-73.6,73.6s-73.6-33-73.6-73.6S338.1,106.3,378.7,106.3   C378.7,106.3,378.7,106.3,378.7,106.3z"/>
	
		<linearGradient id="SVGID_6_" gradientUnits="userSpaceOnUse" x1="279.16" y1="457.25" x2="279.16" y2="250.37" gradientTransform="matrix(1 0 0 -1 0 512)">
		<stop offset="0" style="stop-color:#A5A5A5"/>
		<stop offset="1" style="stop-color:#4F4F50"/>
	</linearGradient>
	<path class="st6" d="M279.2,53.4c68.4,0,123.8,46.6,123.8,104s-55.4,104-123.8,104s-123.8-46.6-123.8-104S210.8,53.4,279.2,53.4z"/>
	
		<linearGradient id="SVGID_7_" gradientUnits="userSpaceOnUse" x1="94.74" y1="457.25" x2="94.74" y2="250.37" gradientTransform="matrix(1 0 0 -1 0 512)">
		<stop offset="0" style="stop-color:#A5A5A5"/>
		<stop offset="1" style="stop-color:#4F4F50"/>
	</linearGradient>
	<path class="st7" d="M94.7,162.9c27.3,0,49.4,22.1,49.4,49.4s-22.1,49.4-49.4,49.4s-49.4-22.1-49.4-49.4l0,0   C45.4,185,67.5,162.9,94.7,162.9z"/>
	
		<linearGradient id="SVGID_8_" gradientUnits="userSpaceOnUse" x1="243" y1="457.25" x2="243" y2="250.37" gradientTransform="matrix(1 0 0 -1 0 512)">
		<stop offset="0" style="stop-color:#A5A5A5"/>
		<stop offset="1" style="stop-color:#4F4F50"/>
	</linearGradient>
	<path class="st8" d="M107.1,202.3H379c21.6,0,39.1,13.3,39.1,29.6s-17.5,29.6-39.1,29.6H107c-21.6,0-39.1-13.3-39.1-29.6   S85.5,202.3,107.1,202.3z"/>
	
		<linearGradient id="SVGID_9_" gradientUnits="userSpaceOnUse" x1="175.61" y1="457.25" x2="175.61" y2="250.37" gradientTransform="matrix(1 0 0 -1 0 512)">
		<stop offset="0" style="stop-color:#A5A5A5"/>
		<stop offset="1" style="stop-color:#4F4F50"/>
	</linearGradient>
	<path class="st9" d="M175.6,99.5c40.7,0,73.6,32.9,73.6,73.6c0,40.7-32.9,73.6-73.6,73.6c-40.7,0-73.6-32.9-73.6-73.6c0,0,0,0,0,0   C102,132.5,134.9,99.5,175.6,99.5z"/>
	
		<linearGradient id="SVGID_10_" gradientUnits="userSpaceOnUse" x1="384.33" y1="457.25" x2="384.33" y2="250.37" gradientTransform="matrix(1 0 0 -1 0 512)">
		<stop offset="0" style="stop-color:#A5A5A5"/>
		<stop offset="1" style="stop-color:#4F4F50"/>
	</linearGradient>
	<path class="st10" d="M384.3,114.2c40.7,0,73.6,33,73.6,73.6s-33,73.6-73.6,73.6s-73.6-33-73.6-73.6S343.7,114.2,384.3,114.2   C384.3,114.2,384.3,114.2,384.3,114.2z"/>
</g>
</svg>