<?xml version="1.0" encoding="UTF-8"?>
<!-- Generator: Adobe Illustrator 21.1.0, SVG Export Plug-In . SVG Version: 6.00 Build 0)  -->
<svg version="1.1" id="Layer_1" xmlns="http://www.w3.org/2000/svg" xmlns:xlink="http://www.w3.org/1999/xlink" x="0px" y="0px" viewBox="0 0 512.8 512.2" style="enable-background:new 0 0 512.8 512.2;" xml:space="preserve">
<style type="text/css">
	.st0{fill:#EDEDED;}
	.st1{fill:url(#SVGID_1_);}
	.st2{fill:url(#SVGID_2_);}
	.st3{fill:url(#SVGID_3_);}
	.st4{fill:url(#SVGID_4_);}
	.st5{fill:url(#SVGID_5_);}
	.st6{fill:url(#SVGID_6_);}
	.st7{fill:url(#SVGID_7_);}
	.st8{fill:url(#SVGID_8_);}
	.st9{fill:url(#SVGID_9_);}
	.st10{fill:url(#SVGID_10_);}
	.st11{fill:url(#SVGID_11_);}
	.st12{fill:url(#SVGID_12_);}
	.st13{fill:url(#SVGID_13_);}
	.st14{fill:url(#SVGID_14_);}
	.st15{fill:url(#SVGID_15_);}
</style>
<g id="foggy_night">
	<path d="M287.6,48.5c68,0,123.1,46.3,123.1,103.5s-55.1,103.5-123.1,103.5S164.5,209.1,164.5,152S219.6,48.5,287.6,48.5z"/>
	<path d="M104.1,157.4c27.1,0,49.1,22,49.1,49.1s-22,49.1-49.1,49.1c-27.1,0-49.1-22-49.1-49.1C55,179.4,77,157.4,104.1,157.4   C104.1,157.4,104.1,157.4,104.1,157.4z"/>
	<path d="M116.4,196.6h270.5c21.5,0,38.9,13.2,38.9,29.5s-17.4,29.5-38.9,29.5H116.4c-21.5,0-38.9-13.2-38.9-29.5   S94.9,196.6,116.4,196.6z"/>
	<path d="M184.5,94.3c40.4,0,73.2,32.8,73.2,73.2s-32.8,73.2-73.2,73.2s-73.2-32.8-73.2-73.2l0,0C111.3,127.1,144.1,94.3,184.5,94.3   z"/>
	<path d="M392.2,109c40.4,0,73.2,32.8,73.2,73.2s-32.8,73.2-73.2,73.3c-40.4,0-73.2-32.8-73.2-73.2c0,0,0,0,0,0   C319,141.8,351.8,109,392.2,109z"/>
	<path d="M293.2,56.4c68,0,123.1,46.3,123.1,103.5s-55.1,103.5-123.1,103.5S170,217,170,159.9S225.2,56.4,293.2,56.4z"/>
	<path d="M109.7,165.4c27.1,0,49.1,22,49.1,49.1s-22,49.1-49.1,49.1s-49.1-22-49.1-49.1l0,0C60.6,187.3,82.6,165.4,109.7,165.4z"/>
	<path d="M122,204.6h270.5c21.5,0,38.9,13.2,38.9,29.5s-17.4,29.5-38.9,29.5H122c-21.5,0-38.9-13.2-38.9-29.5S100.5,204.6,122,204.6   z"/>
	<path d="M190.1,102.2c40.4,0,73.2,32.8,73.2,73.2s-32.8,73.2-73.2,73.2s-73.2-32.8-73.2-73.2C116.9,135,149.7,102.2,190.1,102.2   L190.1,102.2z"/>
	<path d="M397.8,116.9c40.4,0,73.2,32.8,73.2,73.2s-32.8,73.2-73.2,73.2s-73.2-32.8-73.2-73.2S357.3,116.9,397.8,116.9L397.8,116.9z   "/>
	<path d="M187.3,342.6h230.3c4.5,0,8.2,3.7,8.2,8.2s-3.7,8.2-8.2,8.2H187.3c-4.5,0-8.2-3.7-8.2-8.2S182.8,342.6,187.3,342.6z"/>
	<path d="M104.2,375.5h176.6c4.1,0,7.4,3.7,7.4,8.2s-3.3,8.2-7.4,8.2H104.2c-4.1,0-7.4-3.7-7.4-8.2S100.1,375.5,104.2,375.5z"/>
	<path d="M329.4,375.5h54.4c5,0,9.1,3.7,9.1,8.2s-4.1,8.2-9.1,8.2h-54.4c-5,0-9.1-3.7-9.1-8.2S324.4,375.5,329.4,375.5z"/>
	<path d="M110.6,342.6H138c4.5-0.3,8.5,3.1,8.8,7.6c0.3,4.5-3.1,8.5-7.6,8.8c-0.4,0-0.8,0-1.1,0h-27.4c-4.5,0-8.2-3.7-8.2-8.2   S106,342.5,110.6,342.6L110.6,342.6z"/>
	<path d="M291.5,309.7h82.2c4.5,0,8.2,3.7,8.2,8.2s-3.7,8.2-8.2,8.2h-82.2c-4.5,0-8.2-3.7-8.2-8.2S287,309.7,291.5,309.7z"/>
	<path d="M132.5,309.7h109.7c4.5,0,8.2,3.7,8.2,8.2s-3.7,8.2-8.2,8.2H132.5c-4.5,0-8.2-3.7-8.2-8.2S127.9,309.7,132.5,309.7z"/>
	<path d="M243.2,276.8h173.3c5.1,0,9.3,3.7,9.3,8.2s-4.2,8.2-9.3,8.2H243.2c-5.1,0-9.3-3.7-9.3-8.2S238.1,276.8,243.2,276.8z"/>
	<path d="M110.6,276.8h82.2c4.5,0,8.2,3.7,8.2,8.2s-3.7,8.2-8.2,8.2h-82.2c-4.5,0-8.2-3.7-8.2-8.2S106,276.8,110.6,276.8z"/>
	<path d="M154.4,408.4h137.1c4.5,0,8.2,3.7,8.2,8.2s-3.7,8.2-8.2,8.2H154.4c-4.5,0-8.2-3.7-8.2-8.2S149.9,408.4,154.4,408.4   L154.4,408.4z"/>
	<path d="M258.6,408.4h104.2c4.5,0,8.2,3.7,8.2,8.2s-3.7,8.2-8.2,8.2H258.6c-4.5,0-8.2-3.7-8.2-8.2S254.1,408.4,258.6,408.4z"/>
	<path class="st0" d="M273.1,46.5c68,0,123.1,46.3,123.1,103.5s-55.1,103.5-123.1,103.5S150,207.2,150,150S205.1,46.5,273.1,46.5z"/>
	<path class="st0" d="M89.7,155.5c27.1,0,49.1,22,49.1,49.1s-22,49.1-49.1,49.1s-49.1-22-49.1-49.1l0,0   C40.6,177.5,62.6,155.5,89.7,155.5z"/>
	<path class="st0" d="M102,194.7h270.5c21.5,0,38.9,13.2,38.9,29.5s-17.4,29.5-38.9,29.5H102c-21.5,0-39-13.2-39-29.5   S80.5,194.7,102,194.7z"/>
	<path class="st0" d="M170.1,92.4c40.4,0,73.2,32.8,73.2,73.2s-32.8,73.2-73.2,73.2s-73.2-32.8-73.2-73.2   C96.9,125.2,129.7,92.4,170.1,92.4L170.1,92.4z"/>
	<path class="st0" d="M377.8,107.1c40.4,0,73.2,32.8,73.2,73.2s-32.8,73.2-73.2,73.2s-73.2-32.8-73.2-73.2S337.3,107.1,377.8,107.1   L377.8,107.1z"/>
	
		<linearGradient id="SVGID_1_" gradientUnits="userSpaceOnUse" x1="278.715" y1="456.19" x2="278.715" y2="250.39" gradientTransform="matrix(1 0 0 -1 0 512)">
		<stop offset="0" style="stop-color:#A5A5A5"/>
		<stop offset="1" style="stop-color:#4F4F50"/>
	</linearGradient>
	<path class="st1" d="M278.7,54.5c68,0,123.1,46.3,123.1,103.5s-55.1,103.5-123.1,103.5s-123.1-46.3-123.1-103.5   S210.7,54.5,278.7,54.5z"/>
	
		<linearGradient id="SVGID_2_" gradientUnits="userSpaceOnUse" x1="95.25" y1="456.19" x2="95.25" y2="250.39" gradientTransform="matrix(1 0 0 -1 0 512)">
		<stop offset="0" style="stop-color:#A5A5A5"/>
		<stop offset="1" style="stop-color:#4F4F50"/>
	</linearGradient>
	<path class="st2" d="M95.2,163.4c27.1,0,49.1,22,49.1,49.1s-22,49.1-49.1,49.1s-49.1-22-49.1-49.1l0,0   C46.1,185.4,68.1,163.4,95.2,163.4z"/>
	
		<linearGradient id="SVGID_3_" gradientUnits="userSpaceOnUse" x1="242.8" y1="456.19" x2="242.8" y2="250.39" gradientTransform="matrix(1 0 0 -1 0 512)">
		<stop offset="0" style="stop-color:#A5A5A5"/>
		<stop offset="1" style="stop-color:#4F4F50"/>
	</linearGradient>
	<path class="st3" d="M107.5,202.6h270.5c21.5,0,38.9,13.2,38.9,29.5s-17.4,29.5-38.9,29.5H107.5c-21.5,0-38.9-13.2-38.9-29.5   S86,202.6,107.5,202.6z"/>
	
		<linearGradient id="SVGID_4_" gradientUnits="userSpaceOnUse" x1="175.67" y1="456.19" x2="175.67" y2="250.39" gradientTransform="matrix(1 0 0 -1 0 512)">
		<stop offset="0" style="stop-color:#A5A5A5"/>
		<stop offset="1" style="stop-color:#4F4F50"/>
	</linearGradient>
	<path class="st4" d="M175.7,100.3c40.4,0,73.2,32.8,73.2,73.2s-32.8,73.2-73.2,73.2s-73.2-32.8-73.2-73.2S135.2,100.3,175.7,100.3   L175.7,100.3z"/>
	
		<linearGradient id="SVGID_5_" gradientUnits="userSpaceOnUse" x1="383.34" y1="456.19" x2="383.34" y2="250.39" gradientTransform="matrix(1 0 0 -1 0 512)">
		<stop offset="0" style="stop-color:#A5A5A5"/>
		<stop offset="1" style="stop-color:#4F4F50"/>
	</linearGradient>
	<path class="st5" d="M383.3,115c40.4,0,73.2,32.8,73.2,73.2s-32.8,73.2-73.2,73.2s-73.2-32.8-73.2-73.2S342.9,115,383.3,115   L383.3,115z"/>
	
		<linearGradient id="SVGID_6_" gradientUnits="userSpaceOnUse" x1="64.62" y1="163.105" x2="434.09" y2="163.105" gradientTransform="matrix(1 0 0 -1 0 512)">
		<stop offset="0" style="stop-color:#717172"/>
		<stop offset="0.45" style="stop-color:#DAD9D9"/>
		<stop offset="1" style="stop-color:#777777"/>
	</linearGradient>
	<path class="st6" d="M172.9,340.7h230.3c4.5,0,8.2,3.7,8.2,8.2s-3.7,8.2-8.2,8.2H172.9c-4.5,0-8.2-3.7-8.2-8.2   S168.3,340.7,172.9,340.7z"/>
	
		<linearGradient id="SVGID_7_" gradientUnits="userSpaceOnUse" x1="66.49" y1="130.21" x2="397.11" y2="130.21" gradientTransform="matrix(1 0 0 -1 0 512)">
		<stop offset="0" style="stop-color:#717172"/>
		<stop offset="0.45" style="stop-color:#DAD9D9"/>
		<stop offset="1" style="stop-color:#777777"/>
	</linearGradient>
	<path class="st7" d="M89.8,373.6h176.6c4.1,0,7.4,3.7,7.4,8.2s-3.3,8.2-7.4,8.2H89.8c-4.1,0-7.4-3.7-7.4-8.2S85.7,373.6,89.8,373.6   z"/>
	
		<linearGradient id="SVGID_8_" gradientUnits="userSpaceOnUse" x1="32.33" y1="130.21" x2="439.81" y2="130.21" gradientTransform="matrix(1 0 0 -1 0 512)">
		<stop offset="0" style="stop-color:#717172"/>
		<stop offset="0.45" style="stop-color:#DAD9D9"/>
		<stop offset="1" style="stop-color:#777777"/>
	</linearGradient>
	<path class="st8" d="M315,373.6h54.4c5,0,9.1,3.7,9.1,8.2s-4.1,8.2-9.1,8.2H315c-5,0-9.1-3.7-9.1-8.2S310,373.6,315,373.6z"/>
	
		<linearGradient id="SVGID_9_" gradientUnits="userSpaceOnUse" x1="64.62" y1="163.105" x2="434.09" y2="163.105" gradientTransform="matrix(1 0 0 -1 0 512)">
		<stop offset="0" style="stop-color:#717172"/>
		<stop offset="0.45" style="stop-color:#DAD9D9"/>
		<stop offset="1" style="stop-color:#777777"/>
	</linearGradient>
	<path class="st9" d="M96.1,340.7h27.4c4.5,0,8.2,3.7,8.2,8.2s-3.7,8.2-8.2,8.2H96.1c-4.5,0-8.2-3.7-8.2-8.2S91.6,340.7,96.1,340.7   L96.1,340.7z"/>
	
		<linearGradient id="SVGID_10_" gradientUnits="userSpaceOnUse" x1="64.62" y1="196.005" x2="434.09" y2="196.005" gradientTransform="matrix(1 0 0 -1 0 512)">
		<stop offset="0" style="stop-color:#717172"/>
		<stop offset="0.45" style="stop-color:#DAD9D9"/>
		<stop offset="1" style="stop-color:#777777"/>
	</linearGradient>
	<path class="st10" d="M277,307.8h82.2c4.5,0,8.2,3.7,8.2,8.2s-3.7,8.2-8.2,8.2H277c-4.5,0-8.2-3.7-8.2-8.2S272.5,307.8,277,307.8   L277,307.8z"/>
	
		<linearGradient id="SVGID_11_" gradientUnits="userSpaceOnUse" x1="64.62" y1="196.005" x2="434.09" y2="196.005" gradientTransform="matrix(1 0 0 -1 0 512)">
		<stop offset="0" style="stop-color:#717172"/>
		<stop offset="0.45" style="stop-color:#DAD9D9"/>
		<stop offset="1" style="stop-color:#777777"/>
	</linearGradient>
	<path class="st11" d="M118,307.8h109.7c4.5,0,8.2,3.7,8.2,8.2s-3.7,8.2-8.2,8.2H118c-4.5,0-8.2-3.7-8.2-8.2S113.5,307.8,118,307.8   L118,307.8z"/>
	
		<linearGradient id="SVGID_12_" gradientUnits="userSpaceOnUse" x1="19.88" y1="228.9" x2="437.02" y2="228.9" gradientTransform="matrix(1 0 0 -1 0 512)">
		<stop offset="0" style="stop-color:#717172"/>
		<stop offset="0.45" style="stop-color:#DAD9D9"/>
		<stop offset="1" style="stop-color:#777777"/>
	</linearGradient>
	<path class="st12" d="M228.8,274.9h173.3c5.1,0,9.3,3.7,9.3,8.2s-4.2,8.2-9.3,8.2H228.8c-5.1,0-9.3-3.7-9.3-8.2   S223.6,274.9,228.8,274.9z"/>
	
		<linearGradient id="SVGID_13_" gradientUnits="userSpaceOnUse" x1="64.62" y1="228.895" x2="434.09" y2="228.895" gradientTransform="matrix(1 0 0 -1 0 512)">
		<stop offset="0" style="stop-color:#717172"/>
		<stop offset="0.45" style="stop-color:#DAD9D9"/>
		<stop offset="1" style="stop-color:#777777"/>
	</linearGradient>
	<path class="st13" d="M96.1,274.9h82.2c4.5,0,8.2,3.7,8.2,8.2s-3.7,8.2-8.2,8.2H96.1c-4.5,0-8.2-3.7-8.2-8.2S91.6,274.9,96.1,274.9   L96.1,274.9z"/>
	
		<linearGradient id="SVGID_14_" gradientUnits="userSpaceOnUse" x1="64.62" y1="97.305" x2="434.09" y2="97.305" gradientTransform="matrix(1 0 0 -1 0 512)">
		<stop offset="0" style="stop-color:#717172"/>
		<stop offset="0.45" style="stop-color:#DAD9D9"/>
		<stop offset="1" style="stop-color:#777777"/>
	</linearGradient>
	<path class="st14" d="M140,406.5h137c4.5,0,8.2,3.7,8.2,8.2s-3.7,8.2-8.2,8.2H140c-4.5,0-8.2-3.7-8.2-8.2S135.5,406.5,140,406.5z"/>
	
		<linearGradient id="SVGID_15_" gradientUnits="userSpaceOnUse" x1="64.62" y1="97.305" x2="434.09" y2="97.305" gradientTransform="matrix(1 0 0 -1 0 512)">
		<stop offset="0" style="stop-color:#717172"/>
		<stop offset="0.45" style="stop-color:#DAD9D9"/>
		<stop offset="1" style="stop-color:#777777"/>
	</linearGradient>
	<path class="st15" d="M244.2,406.5h104.2c4.5,0,8.2,3.7,8.2,8.2s-3.7,8.2-8.2,8.2H244.2c-4.5,0-8.2-3.7-8.2-8.2   S239.6,406.5,244.2,406.5L244.2,406.5z"/>
</g>
</svg>