<?xml version="1.0" encoding="UTF-8"?>
<!-- Generator: Adobe Illustrator 21.1.0, SVG Export Plug-In . SVG Version: 6.00 Build 0)  -->
<svg version="1.1" id="Layer_1" xmlns="http://www.w3.org/2000/svg" xmlns:xlink="http://www.w3.org/1999/xlink" x="0px" y="0px" viewBox="0 0 512.8 512.2" style="enable-background:new 0 0 512.8 512.2;" xml:space="preserve">
<style type="text/css">
	.st0{fill:#FFFFFF;}
	.st1{fill:none;stroke:#848484;stroke-miterlimit:10;}
	.st2{fill:url(#SVGID_1_);}
	.st3{fill:url(#SVGID_2_);}
	.st4{fill:url(#SVGID_3_);}
	.st5{fill:url(#SVGID_4_);}
	.st6{fill:url(#SVGID_5_);}
	.st7{fill:url(#SVGID_6_);}
	.st8{fill:url(#SVGID_7_);}
	.st9{fill:#EDEDED;}
	.st10{fill:url(#SVGID_8_);}
	.st11{fill:url(#SVGID_9_);}
	.st12{fill:url(#SVGID_10_);}
	.st13{fill:url(#SVGID_11_);}
	.st14{fill:url(#SVGID_12_);}
</style>
<g id="storm">
	<path d="M219.1,245.8l-27.9,83.6H247l-27.9,125.4l111.5-146.3h-48.8l34.9-62.7"/>
	<path d="M294,56.2c67.6,0,122.3,46,122.3,102.8S361.5,261.8,294,261.8s-122.4-46-122.4-102.8S226.4,56.2,294,56.2z"/>
	<path d="M111.7,164.4c26.9,0,48.8,21.9,48.8,48.8c0,26.9-21.9,48.8-48.8,48.8c-26.9,0-48.8-21.8-48.8-48.8   C62.9,186.3,84.7,164.4,111.7,164.4z"/>
	<path d="M123.9,203.4h268.8c21.4,0,38.7,13.1,38.7,29.3s-17.3,29.3-38.7,29.3H123.9c-21.3,0-38.7-13.1-38.7-29.3   S102.5,203.4,123.9,203.4z"/>
	<path d="M191.6,101.8c40.2,0,72.7,32.6,72.7,72.8c0,40.2-32.6,72.7-72.8,72.7c-40.2,0-72.7-32.6-72.7-72.7   C118.8,134.3,151.4,101.8,191.6,101.8L191.6,101.8z"/>
	<path d="M397.9,116.3c40.2,0,72.7,32.6,72.7,72.8s-32.6,72.7-72.8,72.7c-40.2,0-72.7-32.6-72.7-72.7   C325.2,148.9,357.7,116.3,397.9,116.3z"/>
	<path d="M226,240.2l-27.9,83.6h55.8L226,449.2l111.5-146.3h-48.8l34.9-62.7"/>
	<path d="M114.4,435.3c-35.6-6,15.9-76.7,15.9-76.7C131.1,361.5,135.6,438.9,114.4,435.3z"/>
	<path d="M365.4,435.3c-35.5-6,15.9-76.7,15.9-76.7C382.1,361.5,386.6,438.9,365.4,435.3z"/>
	<path d="M107.5,351.7c-35.6-6.1,15.9-76.7,15.9-76.7C124.1,277.9,128.6,355.3,107.5,351.7z"/>
	<path d="M156.3,351.7c-35.6-6.1,15.9-76.7,15.9-76.7C172.9,277.9,177.4,355.3,156.3,351.7z"/>
	<path d="M358.4,351.7c-35.5-6.1,15.9-76.7,15.9-76.7C375.1,277.9,379.6,355.3,358.4,351.7z"/>
	<path d="M407.2,351.7c-35.6-6.1,15.9-76.7,15.9-76.7C423.9,277.9,428.4,355.3,407.2,351.7z"/>
	<path d="M291.4,50.2c68,0,123.2,46.3,123.2,103.5s-55.2,103.5-123.2,103.5s-123.2-46.4-123.2-103.5S223.3,50.2,291.4,50.2z"/>
	<path d="M107.8,159.2c27.1,0,49.1,22,49.1,49.1s-22,49.1-49.1,49.1s-49.1-22-49.1-49.1C58.7,181.2,80.7,159.2,107.8,159.2   L107.8,159.2z"/>
	<path d="M120.1,198.4h270.6c21.5,0,38.9,13.2,38.9,29.5s-17.4,29.5-38.9,29.5H120.1c-21.5,0-38.9-13.2-38.9-29.5   S98.6,198.4,120.1,198.4z"/>
	<path d="M188.3,96.1c40.5,0,73.2,32.8,73.2,73.3s-32.8,73.2-73.3,73.2c-40.4,0-73.2-32.8-73.2-73.2   C115,128.9,147.8,96.1,188.3,96.1C188.2,96.1,188.3,96.1,188.3,96.1z"/>
	<path d="M396,110.7c40.5,0,73.2,32.8,73.2,73.2s-32.8,73.2-73.2,73.2c-40.4,0-73.2-32.8-73.2-73.2   C322.7,143.5,355.5,110.7,396,110.7C396,110.7,396,110.7,396,110.7z"/>
	<path d="M296.9,58.1c68,0,123.2,46.3,123.2,103.5s-55.2,103.5-123.2,103.5s-123.2-46.4-123.2-103.5S228.9,58.1,296.9,58.1z"/>
	<path d="M113.4,167.1c27.1,0,49.1,22,49.1,49.1s-22,49.1-49.1,49.1s-49.1-22-49.1-49.1S86.3,167.1,113.4,167.1L113.4,167.1z"/>
	<path d="M125.7,206.3h270.6c21.5,0,38.9,13.2,38.9,29.5s-17.4,29.5-38.9,29.5H125.7c-21.5,0-38.9-13.2-38.9-29.5   S104.2,206.3,125.7,206.3z"/>
	<path d="M193.8,104c40.5,0,73.2,32.8,73.2,73.2s-32.8,73.2-73.2,73.2s-73.2-32.8-73.2-73.2S153.4,104,193.8,104z"/>
	<path d="M401.6,118.6c40.5,0,73.2,32.8,73.2,73.2s-32.8,73.3-73.2,73.3s-73.2-32.8-73.2-73.2S361.1,118.6,401.6,118.6L401.6,118.6z   "/>
	<path class="st0" d="M204.8,245.8l-27.9,83.6h55.8l-27.9,125.4l111.5-146.3h-48.8l34.9-62.7"/>
	<path class="st1" d="M279.6,56.2c67.6,0,122.4,46,122.4,102.8s-54.8,102.8-122.4,102.8s-122.3-46-122.3-102.8   S212.1,56.2,279.6,56.2z"/>
	<path class="st1" d="M97.3,164.4c26.9,0,48.8,21.9,48.8,48.8S124.2,262,97.3,262c-26.9,0-48.8-21.8-48.8-48.8   C48.5,186.3,70.4,164.4,97.3,164.4z"/>
	<path class="st1" d="M109.5,203.4h268.8c21.4,0,38.7,13.1,38.7,29.3s-17.3,29.3-38.7,29.3H109.5c-21.3,0-38.7-13.1-38.7-29.3   S88.2,203.4,109.5,203.4z"/>
	<path class="st1" d="M177.2,101.8c40.2,0,72.7,32.6,72.7,72.8s-32.6,72.7-72.8,72.7c-40.2,0-72.7-32.6-72.7-72.7   C104.5,134.3,137.1,101.8,177.2,101.8L177.2,101.8z"/>
	<path class="st1" d="M383.6,116.3c40.2,0,72.7,32.6,72.7,72.8s-32.6,72.7-72.8,72.7c-40.2,0-72.7-32.6-72.7-72.7   C310.8,148.9,343.4,116.3,383.6,116.3z"/>
	
		<radialGradient id="SVGID_1_" cx="254.28" cy="188.47" r="111.06" gradientTransform="matrix(1 0 0 -1 0 512)" gradientUnits="userSpaceOnUse">
		<stop offset="0" style="stop-color:#FFA800"/>
		<stop offset="1" style="stop-color:#FFE109"/>
	</radialGradient>
	<path class="st2" d="M211.7,240.2l-27.9,83.6h55.8l-27.9,125.4l111.5-146.3h-48.8l34.9-62.7"/>
	
		<linearGradient id="SVGID_2_" gradientUnits="userSpaceOnUse" x1="78.3673" y1="131.4954" x2="124.2473" y2="105.0054" gradientTransform="matrix(1 0 0 -1 0 512)">
		<stop offset="0" style="stop-color:#DCF2FD"/>
		<stop offset="0.47" style="stop-color:#D6EEFD"/>
		<stop offset="0.99" style="stop-color:#2180ED"/>
	</linearGradient>
	<path class="st3" d="M100.1,435.3c-35.5-6.1,15.9-76.7,15.9-76.7C116.8,361.5,121.3,438.9,100.1,435.3z"/>
	
		<linearGradient id="SVGID_3_" gradientUnits="userSpaceOnUse" x1="329.3322" y1="131.5038" x2="375.2122" y2="105.0138" gradientTransform="matrix(1 0 0 -1 0 512)">
		<stop offset="0" style="stop-color:#DCF2FD"/>
		<stop offset="0.47" style="stop-color:#D6EEFD"/>
		<stop offset="0.99" style="stop-color:#2180ED"/>
	</linearGradient>
	<path class="st4" d="M351.1,435.3c-35.5-6.1,15.9-76.7,15.9-76.7C367.7,361.5,372.2,438.9,351.1,435.3z"/>
	
		<linearGradient id="SVGID_4_" gradientUnits="userSpaceOnUse" x1="71.3824" y1="215.0895" x2="117.2624" y2="188.6095" gradientTransform="matrix(1 0 0 -1 0 512)">
		<stop offset="0" style="stop-color:#DCF2FD"/>
		<stop offset="0.47" style="stop-color:#D6EEFD"/>
		<stop offset="0.99" style="stop-color:#2180ED"/>
	</linearGradient>
	<path class="st5" d="M93.2,351.7C57.6,345.6,109,275,109,275C109.8,277.9,114.3,355.3,93.2,351.7z"/>
	
		<linearGradient id="SVGID_5_" gradientUnits="userSpaceOnUse" x1="120.18" y1="215.1026" x2="166.06" y2="188.6226" gradientTransform="matrix(1 0 0 -1 0 512)">
		<stop offset="0" style="stop-color:#DCF2FD"/>
		<stop offset="0.47" style="stop-color:#D6EEFD"/>
		<stop offset="0.99" style="stop-color:#2180ED"/>
	</linearGradient>
	<path class="st6" d="M141.9,351.7c-35.5-6.1,15.9-76.7,15.9-76.7C158.6,277.9,163.1,355.3,141.9,351.7z"/>
	
		<linearGradient id="SVGID_6_" gradientUnits="userSpaceOnUse" x1="322.3489" y1="215.1008" x2="368.2189" y2="188.6208" gradientTransform="matrix(1 0 0 -1 0 512)">
		<stop offset="0" style="stop-color:#DCF2FD"/>
		<stop offset="0.47" style="stop-color:#D6EEFD"/>
		<stop offset="0.99" style="stop-color:#2180ED"/>
	</linearGradient>
	<path class="st7" d="M344.1,351.7C308.6,345.6,360,275,360,275C360.8,277.9,365.3,355.3,344.1,351.7z"/>
	
		<linearGradient id="SVGID_7_" gradientUnits="userSpaceOnUse" x1="371.14" y1="215.1026" x2="417.02" y2="188.6226" gradientTransform="matrix(1 0 0 -1 0 512)">
		<stop offset="0" style="stop-color:#DCF2FD"/>
		<stop offset="0.47" style="stop-color:#D6EEFD"/>
		<stop offset="0.99" style="stop-color:#2180ED"/>
	</linearGradient>
	<path class="st8" d="M392.9,351.7c-35.6-6.1,15.9-76.7,15.9-76.7C409.6,277.9,414.1,355.3,392.9,351.7z"/>
	<path class="st9" d="M277,50.2c68,0,123.2,46.3,123.2,103.5S345,257.2,277,257.2s-123.1-46.4-123.1-103.5S209,50.2,277,50.2z"/>
	<path class="st9" d="M93.5,159.2c27.1,0,49.1,22,49.1,49.1s-22,49.1-49.1,49.1s-49.1-22-49.1-49.1   C44.4,181.2,66.4,159.2,93.5,159.2L93.5,159.2z"/>
	<path class="st9" d="M105.8,198.4h270.6c21.5,0,38.9,13.2,38.9,29.5s-17.4,29.5-38.9,29.5H105.8c-21.5,0-38.9-13.2-38.9-29.5   S84.3,198.4,105.8,198.4z"/>
	<path class="st9" d="M173.9,96.1c40.5,0,73.2,32.8,73.2,73.2s-32.8,73.2-73.2,73.2s-73.2-32.8-73.2-73.2l0,0   C100.7,128.9,133.5,96.1,173.9,96.1z"/>
	<path class="st9" d="M381.7,110.7c40.5,0,73.2,32.8,73.2,73.3c0,40.5-32.8,73.2-73.3,73.2c-40.4,0-73.2-32.8-73.2-73.2   C308.4,143.5,341.2,110.7,381.7,110.7C381.7,110.7,381.7,110.7,381.7,110.7z"/>
	
		<linearGradient id="SVGID_8_" gradientUnits="userSpaceOnUse" x1="282.6" y1="452.55" x2="282.6" y2="246.67" gradientTransform="matrix(1 0 0 -1 0 512)">
		<stop offset="0" style="stop-color:#A5A5A5"/>
		<stop offset="0.99" style="stop-color:#4F4F50"/>
	</linearGradient>
	<path class="st10" d="M282.6,58.1c68,0,123.2,46.3,123.2,103.5s-55.2,103.5-123.2,103.5s-123.2-46.4-123.2-103.5   S214.6,58.1,282.6,58.1z"/>
	
		<linearGradient id="SVGID_9_" gradientUnits="userSpaceOnUse" x1="99.07" y1="452.55" x2="99.07" y2="246.67" gradientTransform="matrix(1 0 0 -1 0 512)">
		<stop offset="0" style="stop-color:#A5A5A5"/>
		<stop offset="0.99" style="stop-color:#4F4F50"/>
	</linearGradient>
	<path class="st11" d="M99.1,167.1c27.1,0,49.1,22,49.1,49.1s-22,49.1-49.1,49.1s-49.1-22-49.1-49.1   C49.9,189.1,71.9,167.1,99.1,167.1L99.1,167.1z"/>
	
		<linearGradient id="SVGID_10_" gradientUnits="userSpaceOnUse" x1="246.68" y1="452.55" x2="246.68" y2="246.67" gradientTransform="matrix(1 0 0 -1 0 512)">
		<stop offset="0" style="stop-color:#A5A5A5"/>
		<stop offset="0.99" style="stop-color:#4F4F50"/>
	</linearGradient>
	<path class="st12" d="M111.4,206.3H382c21.5,0,38.9,13.2,38.9,29.5s-17.4,29.5-38.9,29.5H111.4c-21.5,0-38.9-13.2-38.9-29.5   S89.9,206.3,111.4,206.3z"/>
	
		<linearGradient id="SVGID_11_" gradientUnits="userSpaceOnUse" x1="179.52" y1="452.55" x2="179.52" y2="246.67" gradientTransform="matrix(1 0 0 -1 0 512)">
		<stop offset="0" style="stop-color:#A5A5A5"/>
		<stop offset="0.99" style="stop-color:#4F4F50"/>
	</linearGradient>
	<path class="st13" d="M179.5,104c40.5,0,73.2,32.8,73.2,73.2s-32.8,73.2-73.2,73.2s-73.2-32.8-73.2-73.2S139.1,104,179.5,104z"/>
	
		<linearGradient id="SVGID_12_" gradientUnits="userSpaceOnUse" x1="387.25" y1="452.55" x2="387.25" y2="246.67" gradientTransform="matrix(1 0 0 -1 0 512)">
		<stop offset="0" style="stop-color:#A5A5A5"/>
		<stop offset="0.99" style="stop-color:#4F4F50"/>
	</linearGradient>
	<path class="st14" d="M387.3,118.6c40.5,0,73.2,32.8,73.2,73.3s-32.8,73.2-73.3,73.2c-40.5,0-73.2-32.8-73.2-73.2   C314,151.4,346.8,118.6,387.3,118.6C387.3,118.6,387.3,118.6,387.3,118.6z"/>
</g>
</svg>