<svg xmlns="http://www.w3.org/2000/svg" viewBox="0 0 100 100"><defs><style>.cls-1{fill:none;}.cls-2{fill:#ed1c24;}</style></defs><title>aithalomixli-symbol</title><g id="Layer_2" data-name="Layer 2"><g id="around"><rect class="cls-1" width="100" height="100"/></g><g id="Layer_3" data-name="Layer 3"><path class="cls-2" d="M76,35.6H21.2A12.7,12.7,0,0,0,20,38.4H78a10,10,0,0,0-2-2.9Zm0,0"/><path class="cls-2" d="M63.9,29.8a16.6,16.6,0,0,0-8.4,2.3,16.6,16.6,0,0,0-2-2.3H25.2a11.3,11.3,0,0,0-2.3,2.9H73.1a16.8,16.8,0,0,0-9.2-2.9Zm0,0"/><path class="cls-2" d="M79.2,41.3H19.4a9.8,9.8,0,0,0-.3,2.9H79.8c-.3-.9-.3-2-.6-2.9Zm0,0"/><path class="cls-2" d="M39.4,24A21,21,0,0,0,29,26.9H49.7A20.6,20.6,0,0,0,39.4,24Zm0,0"/><path class="cls-2" d="M10.5,58.6a9.8,9.8,0,0,0,.3,2.9H88.1a9.8,9.8,0,0,0,.3-2.9Zm0,0"/><path class="cls-2" d="M13.4,67.2H85.5a27.8,27.8,0,0,0,1.7-2.9H11.6a26.7,26.7,0,0,0,1.7,2.9Zm0,0"/><path class="cls-2" d="M82.6,47.1H16.3a13.4,13.4,0,0,0-2.9,2.9H85.5a13.7,13.7,0,0,0-2.9-2.9Zm0,0"/><path class="cls-2" d="M24.9,73H74a14.9,14.9,0,0,0,8.7-2.9H16.3A14.9,14.9,0,0,0,24.9,73Zm0,0"/><path class="cls-2" d="M87.3,52.8H11.6c-.3.9-.6,2-.9,2.9H88.1c-.3-.9-.6-2-.9-2.9Zm0,0"/></g></g></svg>