<svg xmlns="http://www.w3.org/2000/svg" viewBox="0 0 45.7 45.7"><defs><style>.cls-1{fill:#662d91;}.cls-2{fill:#b3b3b3;}.cls-3{fill:#fff;stroke:#fff;stroke-miterlimit:10;}</style></defs><title>00UTC_w</title><g id="Layer_2" data-name="Layer 2"><g id="Layer_1-2" data-name="Layer 1"><circle class="cls-1" cx="23.2" cy="23.2" r="20.5"/><path class="cls-2" d="M22.9,0A22.9,22.9,0,1,0,45.7,22.9,22.9,22.9,0,0,0,22.9,0Zm0,42.1A19.3,19.3,0,1,1,42.1,22.8,19.3,19.3,0,0,1,22.9,42.1Z"/><path class="cls-2" d="M22.9,7.2a.4.4,0,0,0,.4-.4V5.2a.4.4,0,1,0-.7,0V6.9A.4.4,0,0,0,22.9,7.2Z"/><path class="cls-2" d="M30.7,9.3h.2l.3-.2L32,7.8a.4.4,0,0,0-.6-.4l-.8,1.4A.4.4,0,0,0,30.7,9.3Z"/><path class="cls-2" d="M36.7,15.2h.2l1.4-.8a.4.4,0,0,0-.4-.6l-1.4.8a.4.4,0,0,0-.1.5Z"/><path class="cls-2" d="M40.5,22.5H38.8a.4.4,0,1,0,0,.7h1.7a.4.4,0,1,0,0-.7Z"/><path class="cls-2" d="M38.3,31.4l-1.4-.8a.4.4,0,0,0-.4.6l1.4.8h.2l.3-.2A.4.4,0,0,0,38.3,31.4Z"/><path class="cls-2" d="M31.2,36.5a.4.4,0,0,0-.6.4l.8,1.4.3.2h.2a.4.4,0,0,0,.1-.5Z"/><path class="cls-2" d="M22.9,38.5a.4.4,0,0,0-.4.4v1.7a.4.4,0,1,0,.7,0V38.8A.4.4,0,0,0,22.9,38.5Z"/><path class="cls-2" d="M15,36.4a.4.4,0,0,0-.5.1l-.8,1.4a.4.4,0,0,0,.1.5H14l.3-.2.8-1.4A.4.4,0,0,0,15,36.4Z"/><path class="cls-2" d="M8.8,30.5l-1.4.8a.4.4,0,0,0-.1.5l.3.2h.2l1.4-.8a.4.4,0,1,0-.4-.6Z"/><path class="cls-2" d="M6.9,22.5H5.2a.4.4,0,1,0,0,.7H6.9a.4.4,0,1,0,0-.7Z"/><path class="cls-2" d="M9.2,14.5l-1.4-.8a.4.4,0,1,0-.4.6l1.4.8H9l.3-.2A.4.4,0,0,0,9.2,14.5Z"/><path class="cls-2" d="M14.5,9.2l.3.2H15a.4.4,0,0,0,.1-.5l-.8-1.4a.4.4,0,1,0-.6.4Z"/><rect class="cls-3" x="22.4" y="8.7" width="1" height="14.04" rx="0.4" ry="0.4"/><rect class="cls-3" x="26.3" y="15.4" width="1" height="10" rx="0.3" ry="0.3" transform="translate(32.9 -12.7) rotate(63.3)"/></g></g></svg>