<svg xmlns="http://www.w3.org/2000/svg" viewBox="0 0 47.7 47.7"><defs><style>.cls-1{fill:#fbb03b;}.cls-2{fill:#b3b3b3;}.cls-3{fill:#fff;stroke:#fff;stroke-miterlimit:10;}</style></defs><title>12UTC_w</title><g id="Layer_2" data-name="Layer 2"><g id="Layer_1-2" data-name="Layer 1"><circle class="cls-1" cx="23.5" cy="24.2" r="22.5"/><path class="cls-2" d="M23.9,0A23.9,23.9,0,1,0,47.7,23.9,23.9,23.9,0,0,0,23.9,0Zm0,44A20.1,20.1,0,1,1,44,23.8,20.1,20.1,0,0,1,23.9,44Z"/><path class="cls-2" d="M23.9,7.5a.4.4,0,0,0,.4-.4V5.4a.4.4,0,1,0-.8,0V7.2A.4.4,0,0,0,23.9,7.5Z"/><path class="cls-2" d="M32,9.7h.2l.3-.2.9-1.5a.4.4,0,0,0-.7-.4l-.9,1.5A.4.4,0,0,0,32,9.7Z"/><path class="cls-2" d="M38.3,15.9h.2L40,15a.4.4,0,0,0-.4-.7l-1.5.9a.4.4,0,0,0-.1.5Z"/><path class="cls-2" d="M42.3,23.5H40.5a.4.4,0,1,0,0,.8h1.7a.4.4,0,1,0,0-.8Z"/><path class="cls-2" d="M40,32.7l-1.5-.9a.4.4,0,1,0-.4.7l1.5.9h.2l.3-.2A.4.4,0,0,0,40,32.7Z"/><path class="cls-2" d="M32.5,38.1a.4.4,0,1,0-.7.4l.9,1.5.3.2h.2a.4.4,0,0,0,.1-.5Z"/><path class="cls-2" d="M23.9,40.2a.4.4,0,0,0-.4.4v1.7a.4.4,0,1,0,.8,0V40.5A.4.4,0,0,0,23.9,40.2Z"/><path class="cls-2" d="M15.7,38a.4.4,0,0,0-.5.1l-.9,1.5a.4.4,0,0,0,.1.5h.2L15,40l.9-1.5A.4.4,0,0,0,15.7,38Z"/><path class="cls-2" d="M9.2,31.9l-1.5.9a.4.4,0,0,0-.1.5l.3.2h.2l1.5-.9a.4.4,0,1,0-.4-.7Z"/><path class="cls-2" d="M7.2,23.5H5.4a.4.4,0,1,0,0,.8H7.2a.4.4,0,1,0,0-.8Z"/><path class="cls-2" d="M9.6,15.2l-1.5-.9a.4.4,0,1,0-.4.7l1.5.9h.2l.3-.2A.4.4,0,0,0,9.6,15.2Z"/><path class="cls-2" d="M15.2,9.6l.3.2h.2a.4.4,0,0,0,.1-.5L15,7.7a.4.4,0,1,0-.7.4Z"/><rect class="cls-3" x="23.4" y="9.1" width="1" height="14.66" rx="0.4" ry="0.4"/><rect class="cls-3" x="27.7" y="16" width="1" height="10.43" rx="0.3" ry="0.3" transform="translate(31.6 -13.9) rotate(58.6)"/></g></g></svg>