<svg xmlns="http://www.w3.org/2000/svg" viewBox="0 0 48 48"><defs><style>.cls-1{fill:#3fa9f5;}.cls-2{fill:#b3b3b3;}.cls-3{fill:gray;stroke:#fff;stroke-miterlimit:10;}</style></defs><title>6UTC_w</title><g id="Layer_2" data-name="Layer 2"><g id="Layer_1-2" data-name="Layer 1"><circle class="cls-1" cx="24.5" cy="24.2" r="22.5"/><path class="cls-2" d="M24,0A24,24,0,1,0,48,24,24,24,0,0,0,24,0Zm0,44.2A20.2,20.2,0,1,1,44.2,24,20.3,20.3,0,0,1,24,44.2Z"/><path class="cls-2" d="M24,7.6a.4.4,0,0,0,.4-.4V5.5a.4.4,0,1,0-.8,0V7.2A.4.4,0,0,0,24,7.6Z"/><path class="cls-2" d="M32.2,9.8h.2l.3-.2.9-1.5a.4.4,0,0,0-.7-.4l-.9,1.5A.4.4,0,0,0,32.2,9.8Z"/><path class="cls-2" d="M38.5,16h.2l1.5-.9a.4.4,0,0,0-.4-.7l-1.5.9a.4.4,0,0,0-.1.5Z"/><path class="cls-2" d="M42.5,23.6H40.8a.4.4,0,1,0,0,.8h1.7a.4.4,0,1,0,0-.8Z"/><path class="cls-2" d="M40.2,32.9l-1.5-.9a.4.4,0,0,0-.4.7l1.5.9H40l.3-.2A.4.4,0,0,0,40.2,32.9Z"/><path class="cls-2" d="M32.7,38.3a.4.4,0,1,0-.7.4l.9,1.5.3.2h.2a.4.4,0,0,0,.1-.5Z"/><path class="cls-2" d="M24,40.4a.4.4,0,0,0-.4.4v1.7a.4.4,0,1,0,.8,0V40.8A.4.4,0,0,0,24,40.4Z"/><path class="cls-2" d="M15.8,38.2a.4.4,0,0,0-.5.1l-.9,1.5a.4.4,0,0,0,.1.5h.2l.3-.2.9-1.5A.4.4,0,0,0,15.8,38.2Z"/><path class="cls-2" d="M9.3,32.1l-1.5.9a.4.4,0,0,0-.1.5l.3.2h.2l1.5-.9a.4.4,0,1,0-.4-.7Z"/><path class="cls-2" d="M7.2,23.6H5.5a.4.4,0,1,0,0,.8H7.2a.4.4,0,1,0,0-.8Z"/><path class="cls-2" d="M9.7,15.3l-1.5-.9a.4.4,0,1,0-.4.7l1.5.9h.2l.3-.2A.4.4,0,0,0,9.7,15.3Z"/><path class="cls-2" d="M15.3,9.7l.3.2h.2a.4.4,0,0,0,.1-.5l-.9-1.5a.4.4,0,1,0-.7.4Z"/><rect class="cls-3" x="23.5" y="9.2" width="1" height="14.75" rx="0.4" ry="0.4"/><rect class="cls-3" x="18.9" y="21.2" width="1" height="10.5" rx="0.3" ry="0.3" transform="translate(7 56.8) rotate(-121.5)"/></g></g></svg>