<svg xmlns="http://www.w3.org/2000/svg" viewBox="0 0 67.91 55.11"><defs><style>.\32 bdb9614-f561-4026-9b32-e30cb66d116b{fill:#7f3f97;}</style></defs><title>bak</title><g id="aaef14ce-359e-49e7-970d-31ed1b5cee9b" data-name="Réteg 2"><g id="a320005d-4a20-451a-8a1f-f7dba1aec581" data-name="Réteg 1"><path class="2bdb9614-f561-4026-9b32-e30cb66d116b" d="M66,22.72C51,22.41,51.82,11.36,51.82,11.36c1.71-.93,2.49-5.45,2.49-5.45C41.86,11.36,42.64,0,42.64,0c-3.27,2.33-3,10.58-3,10.58H38.12V4.2C24.9,3.42,17.43,8.87,13.54,24.12S0,43.42,0,43.42c10.43-3,11.2-6.69,18.36-20.39S33.3,14.78,33.3,14.78c-5.13,5.14-12.14,18.83-4.51,31.59s27.08,7.78,27.08,7.78c-7.78-1.71-9.34-19.3-9.34-19.3-14.47,5-13.69-9.8-13.69-9.8,3.42,6.54,7.31,8.25,12.45,7.62s9.49-.16,12.6,2.18-2.18,5-2.18,5l5-1.87-.93,4.67c10.43-4.2,2.18-10.58,2.18-10.58C72.36,27.85,66,22.72,66,22.72ZM44.62,18.51a6.7,6.7,0,0,1,8.33,2.84S46.65,23.18,44.62,18.51Z"/></g></g></svg>