<svg xmlns="http://www.w3.org/2000/svg" viewBox="0 0 67.57 59.67"><defs><style>.dbc71553-9bcb-428d-ac97-96e54aa162ed{fill:#7f3f97;}</style></defs><title>merleg</title><g id="f4677c3e-e65b-4d0b-96a9-cadcbe9f5953" data-name="Réteg 2"><g id="9d62c467-443c-48c2-9f8d-cb278646a2ba" data-name="Réteg 1"><path class="dbc71553-9bcb-428d-ac97-96e54aa162ed" d="M0,42.52H25.2s-1.51,7-13,7.13C1.4,49.78,0,42.52,0,42.52Z"/><polygon class="dbc71553-9bcb-428d-ac97-96e54aa162ed" points="0.51 42.65 12.6 15.16 24.69 42.52 23.92 42.52 12.57 16.59 1.4 42.65 0.51 42.65"/><rect class="dbc71553-9bcb-428d-ac97-96e54aa162ed" x="12.31" y="15.98" width="0.67" height="26.48"/><path class="dbc71553-9bcb-428d-ac97-96e54aa162ed" d="M42.38,42.52h25.2s-1.51,7-13,7.13C43.78,49.78,42.38,42.52,42.38,42.52Z"/><polygon class="dbc71553-9bcb-428d-ac97-96e54aa162ed" points="42.89 42.65 54.98 15.16 67.06 42.52 66.3 42.52 54.94 16.59 43.78 42.65 42.89 42.65"/><rect class="dbc71553-9bcb-428d-ac97-96e54aa162ed" x="54.69" y="15.98" width="0.67" height="26.48"/><path class="dbc71553-9bcb-428d-ac97-96e54aa162ed" d="M57,11.65c-.41,1.45-.55,3-2.21,3s-4.41-3.58-6.06-5S44.5,6.13,41.88,6.13s-4.07.28-6,1.72a2,2,0,0,0-1.24-1.79V3.58l1.79-.07L33.69,0h0l-2.74,3.5,1.79.07V6.06a2,2,0,0,0-1.24,1.79c-1.93-1.45-3.38-1.72-6-1.72S20.26,8.27,18.6,9.65s-4.41,4.89-6.06,5-1.79-1.52-2.21-3-1.17-.14-1.17-.14C9,15.3,11.92,17.09,14.4,15.85s6.06-5.72,10.75-5.72,6.68,5.1,6.68,5.1h0V46s-3.46,1-2.28,4.26a2.76,2.76,0,0,0-2.14,4,3.94,3.94,0,0,0-3.16,3.32s2.72,2.23,9.51,2,9.62-1.95,9.62-1.95a4.31,4.31,0,0,0-3.28-3.41s1.25-2.61-1.92-4.11c0,0,1.12-2.84-2.61-4.2V15.15c.27-.64,2.31-5,6.65-5,4.69,0,8.27,4.48,10.75,5.72s5.38-.55,5.24-4.34C58.22,11.51,57.46,10.2,57,11.65Z"/></g></g></svg>