<svg xmlns="http://www.w3.org/2000/svg" viewBox="0 0 550 550" font-family="Arial Unicode MS" font-weight="400">
	<g stroke="#37abc8" fill="none">
		<path d="M133.7 170.4l306.4 177M465.2 257.8a177.8 177.2 0 0 1-355.6 0 177.8 177.2 0 1 1 355.6 0zM110.5 258.3H466M285.2 80.5v354.6M196.3 105.8l177 306.5M374.8 103.6L198.2 410.4M439.8 167.4L134.3 347"/>
		<path fill="#fff" d="M427.5 257.8a139.4 139.4 0 1 1-278.8 0 139.4 139.4 0 1 1 278.8 0z"/>
	</g>
	<g id="signs" font-size="32px">
		<text style="" x="426.35791" y="230.07735">
			<tspan x="426.35791" y="230.07735">♈</tspan>
		</text>
		<text x="385.77048" y="154.31906">
			<tspan x="385.77048" y="154.31906">♉</tspan>
		</text>
		<text x="312.30356" y="116.04253">
			<tspan x="312.30356" y="116.04253">♊</tspan>
		</text>
		<text x="225.63435" y="117.39041">
			<tspan x="225.63435" y="117.39041">♋</tspan>
		</text>
		<text x="155.98654" y="155.28899">
			<tspan x="155.98654" y="155.28899">♌</tspan>
		</text>
		<text x="119.45521" y="223.03755">
			<tspan x="119.45521" y="223.03755">♍</tspan>
		</text>
		<text x="122.20603" y="307.1131">
			<tspan x="122.20603" y="307.1131">♎</tspan>
		</text>
		<text x="160.50481" y="377.75403">
			<tspan x="160.50481" y="377.75403">♏</tspan>
		</text>
		<text x="232.26021" y="420.89413">
			<tspan x="232.26021" y="420.89413">♐</tspan>
		</text>
		<text x="312.74771" y="421.10803">
			<tspan x="312.74771" y="421.10803">♑</tspan>
		</text>
		<text x="371.83258" y="394.66818" font-size="30.99824142px" transform="scale(1.0323166,0.96869506)">
			<tspan x="371.83258" y="394.66818">♒</tspan>
		</text>
		<text x="428.08514" y="313.25937">
			<tspan x="428.08514" y="313.25937">♓</tspan>
		</text>
	</g>
	<g id="grades" fill="#89a02c" font-size="14px">
		<text x="408.14777" y="263.35648">
			<tspan x="408.14777" y="263.35648">0°</tspan>
		</text>
		<text x="381.5618" y="199.25267">
			<tspan x="381.5618" y="199.25267">30°</tspan>
		</text>
		<text x="336.57346" y="153.9556">
			<tspan x="336.57346" y="153.9556">60°</tspan>
		</text>
		<text x="275.56796" y="134.86746">
			<tspan x="275.56796" y="134.86746">90°</tspan>
		</text>
		<text x="208.47758" y="153.78613">
			<tspan x="208.47758" y="153.78613">120°</tspan>
		</text>
		<text x="165.74118" y="199.66077">
			<tspan x="165.74118" y="199.66077">150°</tspan>
		</text>
		<text x="148.86324" y="264.48373">
			<tspan x="148.86324" y="264.48373">180°</tspan>
		</text>
		<text x="167.97475" y="326.10919">
			<tspan x="167.97475" y="326.10919">210°</tspan>
		</text>
		<text x="210.85101" y="371.35028">
			<tspan x="210.85101" y="371.35028">240°</tspan>
		</text>
		<text x="270.29587" y="389.32596">
			<tspan x="270.29587" y="389.32596">270°</tspan>
		</text>
		<text x="330.97809" y="371.61853">
			<tspan x="330.97809" y="371.61853">300°</tspan>
		</text>
		<text x="378.31744" y="325.27805">
			<tspan x="378.31744" y="325.27805">330°</tspan>
		</text>
	</g>
	<g id="names" font-size="16px">
		<text x="67.462166" y="314.8559">
			<tspan x="67.462166" y="314.8559">Libra</tspan>
		</text>
		<text x="467.15091" y="315.90945">
			<tspan x="467.15091" y="315.90945">Pisces</tspan>
		</text>
		<text x="103.14323" y="406.75531">
			<tspan x="103.14323" y="406.75531">Scorpio</tspan>
		</text>
		<text x="407.32083" y="410.87964">
			<tspan x="407.32083" y="410.87964">Aquarius</tspan>
		</text>
		<text x="195.20831" y="458.13913">
			<tspan x="195.20831" y="458.13913">Sagittarius</tspan>
		</text>
		<text x="306.07031" y="458.43066">
			<tspan x="306.07031" y="458.43066">Capricorn</tspan>
		</text>
		<text x="469.2009" y="212.68024">
			<tspan x="469.2009" y="212.68024">Aries</tspan>
		</text>
		<text x="412.5163" y="124.33395">
			<tspan x="412.5163" y="124.33395">Taurus</tspan>
		</text>
		<text x="314.98294" y="71.17849">
			<tspan x="314.98294" y="71.17849">Gemini</tspan>
		</text>
		<text x="204.37549" y="68.575615">
			<tspan x="204.37549" y="68.575615">Cancer</tspan>
		</text>
		<text x="120.29062" y="124.20487">
			<tspan x="120.29062" y="124.20487">Leo</tspan>
		</text>
		<text x="61.673298" y="209.06212">
			<tspan x="61.673298" y="209.06212">Virgo</tspan>
		</text>
	</g>
</svg>
