<svg xmlns="http://www.w3.org/2000/svg" font-family="Arial Unicode MS" font-weight="400" viewBox="0 0 550 550"><g fill="none" stroke="#37abc8"><path d="M133.7 170.4l306.4 177M465.2 257.8a177.8 177.2 0 0 1-355.6 0 177.8 177.2 0 1 1 355.6 0zM110.5 258.3H466M285.2 80.5v354.6M196.3 105.8l177 306.5M374.8 103.6L198.2 410.4M439.8 167.4L134.3 347"/><path fill="#fff" d="M427.5 257.8a139.4 139.4 0 1 1-278.8 0 139.4 139.4 0 1 1 278.8 0z"/></g><g font-size="32"><text x="426.4" y="230.1"><tspan x="426.4" y="230.1">♈</tspan></text><text x="385.8" y="154.3"><tspan x="385.8" y="154.3">♉</tspan></text><text x="312.3" y="116"><tspan x="312.3" y="116">♊</tspan></text><text x="225.6" y="117.4"><tspan x="225.6" y="117.4">♋</tspan></text><text x="156" y="155.3"><tspan x="156" y="155.3">♌</tspan></text><text x="119.5" y="223"><tspan x="119.5" y="223">♍</tspan></text><text x="122.2" y="307.1"><tspan x="122.2" y="307.1">♎</tspan></text><text x="160.5" y="377.8"><tspan x="160.5" y="377.8">♏</tspan></text><text x="232.3" y="420.9"><tspan x="232.3" y="420.9">♐</tspan></text><text x="312.7" y="421.1"><tspan x="312.7" y="421.1">♑</tspan></text><text x="371.8" y="394.7" font-size="31" transform="scale(1.03232 .9687)"><tspan x="371.8" y="394.7">♒</tspan></text><text x="428.1" y="313.3"><tspan x="428.1" y="313.3">♓</tspan></text></g><g fill="#89a02c" font-size="14"><text x="408.1" y="263.4"><tspan x="408.1" y="263.4">0°</tspan></text><text x="381.6" y="199.3"><tspan x="381.6" y="199.3">30°</tspan></text><text x="336.6" y="154"><tspan x="336.6" y="154">60°</tspan></text><text x="275.6" y="134.9"><tspan x="275.6" y="134.9">90°</tspan></text><text x="208.5" y="153.8"><tspan x="208.5" y="153.8">120°</tspan></text><text x="165.7" y="199.7"><tspan x="165.7" y="199.7">150°</tspan></text><text x="148.9" y="264.5"><tspan x="148.9" y="264.5">180°</tspan></text><text x="168" y="326.1"><tspan x="168" y="326.1">210°</tspan></text><text x="210.9" y="371.4"><tspan x="210.9" y="371.4">240°</tspan></text><text x="270.3" y="389.3"><tspan x="270.3" y="389.3">270°</tspan></text><text x="331" y="371.6"><tspan x="331" y="371.6">300°</tspan></text><text x="378.3" y="325.3"><tspan x="378.3" y="325.3">330°</tspan></text></g><g font-size="16"><text x="67.5" y="314.9"><tspan x="67.5" y="314.9">Libra</tspan></text><text x="467.2" y="315.9"><tspan x="467.2" y="315.9">Pisces</tspan></text><text x="103.1" y="406.8"><tspan x="103.1" y="406.8">Scorpio</tspan></text><text x="407.3" y="410.9"><tspan x="407.3" y="410.9">Aquarius</tspan></text><text x="195.2" y="458.1"><tspan x="195.2" y="458.1">Sagittarius</tspan></text><text x="306.1" y="458.4"><tspan x="306.1" y="458.4">Capricorn</tspan></text><text x="469.2" y="212.7"><tspan x="469.2" y="212.7">Aries</tspan></text><text x="412.5" y="124.3"><tspan x="412.5" y="124.3">Taurus</tspan></text><text x="315" y="71.2"><tspan x="315" y="71.2">Gemini</tspan></text><text x="204.4" y="68.6"><tspan x="204.4" y="68.6">Cancer</tspan></text><text x="120.3" y="124.2"><tspan x="120.3" y="124.2">Leo</tspan></text><text x="61.7" y="209.1"><tspan x="61.7" y="209.1">Virgo</tspan></text></g></svg>
