<svg xmlns="http://www.w3.org/2000/svg" xmlns:xlink="http://www.w3.org/1999/xlink" viewBox="0 0 512.83 512.21"><defs><style>.cls-1,.cls-10,.cls-11,.cls-12,.cls-13,.cls-14,.cls-2,.cls-3,.cls-4,.cls-5,.cls-6,.cls-7,.cls-9{fill-rule:evenodd;}.cls-2{fill:url(#linear-gradient);}.cls-3{fill:url(#linear-gradient-2);}.cls-4{fill:url(#linear-gradient-3);}.cls-5{fill:url(#linear-gradient-4);}.cls-6{fill:url(#linear-gradient-5);}.cls-7,.cls-8{fill:#fff;}.cls-9{fill:#ededed;}.cls-10{fill:url(#New_Gradient_Swatch_3);}.cls-11{fill:url(#New_Gradient_Swatch_3-2);}.cls-12{fill:url(#New_Gradient_Swatch_3-3);}.cls-13{fill:url(#New_Gradient_Swatch_3-4);}.cls-14{fill:url(#New_Gradient_Swatch_3-5);}</style><linearGradient id="linear-gradient" x1="121.48" y1="383.01" x2="154.72" y2="416.24" gradientUnits="userSpaceOnUse"><stop offset="0.14" stop-color="#dde4fe"/><stop offset="1" stop-color="#2384ee"/></linearGradient><linearGradient id="linear-gradient-2" x1="304.99" y1="383.01" x2="338.23" y2="416.24" xlink:href="#linear-gradient"/><linearGradient id="linear-gradient-3" x1="71.66" y1="290.99" x2="104.9" y2="324.23" xlink:href="#linear-gradient"/><linearGradient id="linear-gradient-4" x1="226.67" y1="290.99" x2="259.91" y2="324.23" xlink:href="#linear-gradient"/><linearGradient id="linear-gradient-5" x1="375.95" y1="290.99" x2="409.19" y2="324.23" xlink:href="#linear-gradient"/><linearGradient id="New_Gradient_Swatch_3" x1="280.19" y1="53" x2="280.19" y2="260.29" gradientUnits="userSpaceOnUse"><stop offset="0" stop-color="#e3e3e3"/><stop offset="0.99" stop-color="#808081"/></linearGradient><linearGradient id="New_Gradient_Swatch_3-2" x1="95.39" y1="53" x2="95.39" y2="260.29" xlink:href="#New_Gradient_Swatch_3"/><linearGradient id="New_Gradient_Swatch_3-3" x1="244.01" y1="53" x2="244.01" y2="260.29" xlink:href="#New_Gradient_Swatch_3"/><linearGradient id="New_Gradient_Swatch_3-4" x1="176.39" y1="53" x2="176.39" y2="260.29" xlink:href="#New_Gradient_Swatch_3"/><linearGradient id="New_Gradient_Swatch_3-5" x1="385.57" y1="53" x2="385.57" y2="260.29" xlink:href="#New_Gradient_Swatch_3"/></defs><title>Artboard 66</title><g id="wintermix_day" data-name="wintermix day"><path class="cls-1" d="M145,436.21c-36.08-6.14,16.13-77.87,16.13-77.87C161.89,361.31,166.47,439.87,145,436.21Z"/><path class="cls-1" d="M328.48,436.21c-36.08-6.14,16.13-77.87,16.13-77.87C345.4,361.31,350,439.87,328.48,436.21Z"/><path class="cls-1" d="M95.15,344.2c-36.08-6.14,16.13-77.87,16.13-77.87C112.07,269.3,116.64,347.86,95.15,344.2Z"/><path class="cls-1" d="M250.16,344.2c-36.08-6.14,16.13-77.87,16.13-77.87C267.08,269.3,271.65,347.86,250.16,344.2Z"/><path class="cls-1" d="M399.44,344.2c-36.08-6.14,16.13-77.87,16.13-77.87C416.35,269.3,420.93,347.86,399.44,344.2Z"/><path class="cls-1" d="M262.07,420.33H250.42l-8.24,8.24-8.24-8.24H222.29V408.68L214,400.44l8.24-8.24V380.55h11.65l8.24-8.24,8.24,8.24h11.65V392.2l8.24,8.24-8.24,8.24ZM237.89,384.5l-1.63,1.64h-8.38v8.38l-5.93,5.93,5.93,5.93v8.38h8.38l5.93,5.93,5.93-5.93h8.38v-8.38l5.93-5.93-5.93-5.93v-8.38H248.1l-5.93-5.93Z"/><path class="cls-1" d="M250.13,403.73l3.3-3.3-3.3-3.3v-4.66h-4.66l-3.3-3.3-3.3,3.3h-4.66v4.66l-3.3,3.3,3.3,3.3v4.66h4.66l3.3,3.3,3.3-3.3h4.66Z"/><path d="M227.18,436.06l9.37-35.62H247.8Z"/><path d="M257.18,436.06l-9.37-35.62H236.55Z"/><path d="M227.18,364.82l9.37,35.62H247.8Z"/><path d="M257.18,364.82l-9.37,35.62H236.55Z"/><path d="M206.56,385.44l35.62,9.37v11.25Z"/><path d="M206.56,415.44l35.62-9.37V394.81Z"/><path d="M277.8,385.44l-35.62,9.37v11.25Z"/><path d="M277.8,415.44l-35.62-9.37V394.81Z"/><path class="cls-1" d="M190.82,320.59H179.17l-8.24,8.24-8.24-8.24H151V308.94l-8.24-8.24,8.24-8.24V280.81h11.65l8.24-8.24,8.24,8.24h11.65v11.65l8.24,8.24-8.24,8.24Zm-24.18-35.83L165,286.39h-8.38v8.38l-5.93,5.93,5.93,5.93V315H165l5.93,5.93,5.93-5.93h8.38v-8.38l5.93-5.93-5.93-5.93v-8.38h-8.38l-5.93-5.93Z"/><path class="cls-1" d="M178.89,304l3.3-3.3-3.3-3.3v-4.66h-4.66l-3.3-3.3-3.3,3.3H163v4.66l-3.3,3.3L163,304v4.66h4.66l3.3,3.3,3.3-3.3h4.66Z"/><path d="M155.93,336.32l9.37-35.62h11.25Z"/><path d="M185.93,336.32l-9.37-35.62H165.31Z"/><path d="M155.93,265.08l9.37,35.62h11.25Z"/><path d="M185.93,265.08l-9.37,35.62H165.31Z"/><path d="M135.31,285.7l35.62,9.37v11.25Z"/><path d="M135.31,315.7l35.62-9.37V295.07Z"/><path d="M206.56,285.7l-35.62,9.37v11.25Z"/><path d="M206.56,315.7l-35.62-9.37V295.07Z"/><path class="cls-1" d="M354.68,320.59H343l-8.24,8.24-8.24-8.24H314.9V308.94l-8.24-8.24,8.24-8.24V280.81h11.65l8.24-8.24,8.24,8.24h11.65v11.65l8.24,8.24-8.24,8.24ZM330.5,284.75l-1.63,1.64h-8.38v8.38l-5.93,5.93,5.93,5.93V315h8.38l5.93,5.93,5.93-5.93h8.38v-8.38L355,300.7l-5.93-5.93v-8.38h-8.38l-5.93-5.93Z"/><path class="cls-1" d="M342.75,304l3.3-3.3-3.3-3.3v-4.66h-4.66l-3.3-3.3-3.3,3.3h-4.66v4.66l-3.3,3.3,3.3,3.3v4.66h4.66l3.3,3.3,3.3-3.3h4.66Z"/><path d="M319.8,336.32l9.37-35.62h11.25Z"/><path d="M349.79,336.32l-9.37-35.62H329.17Z"/><path d="M319.8,265.08l9.37,35.62h11.25Z"/><path d="M349.79,265.08l-9.37,35.62H329.17Z"/><path d="M299.17,285.7l35.62,9.37v11.25Z"/><path d="M299.17,315.7l35.62-9.37V295.07Z"/><path d="M370.42,285.7l-35.62,9.37v11.25Z"/><path d="M370.42,315.7l-35.62-9.37V295.07Z"/><path class="cls-1" d="M289.53,43.66c68.49,0,124,46.67,124,104.23S358,252.13,289.53,252.13s-124-46.67-124-104.23S221,43.66,289.53,43.66Z"/><path class="cls-1" d="M104.74,153.42a49.47,49.47,0,1,1-49.47,49.47A49.47,49.47,0,0,1,104.74,153.42Z"/><path class="cls-1" d="M117.11,192.9h272.5c21.65,0,39.2,13.29,39.2,29.68s-17.55,29.68-39.2,29.68H117.11c-21.65,0-39.2-13.29-39.2-29.68S95.46,192.9,117.11,192.9Z"/><path class="cls-1" d="M185.74,89.86A73.76,73.76,0,1,1,112,163.62,73.76,73.76,0,0,1,185.74,89.86Z"/><path class="cls-1" d="M394.91,104.61a73.76,73.76,0,1,1-73.76,73.76A73.76,73.76,0,0,1,394.91,104.61Z"/><path class="cls-1" d="M295.14,51.64c68.49,0,124,46.67,124,104.23s-55.53,104.23-124,104.23-124-46.67-124-104.23S226.65,51.64,295.14,51.64Z"/><path class="cls-1" d="M110.35,161.39a49.47,49.47,0,1,1-49.47,49.47A49.47,49.47,0,0,1,110.35,161.39Z"/><path class="cls-1" d="M122.72,200.88h272.5c21.65,0,39.2,13.29,39.2,29.68s-17.55,29.68-39.2,29.68H122.72c-21.65,0-39.2-13.29-39.2-29.68S101.07,200.88,122.72,200.88Z"/><path class="cls-1" d="M191.35,97.83a73.76,73.76,0,1,1-73.76,73.76A73.76,73.76,0,0,1,191.35,97.83Z"/><path class="cls-1" d="M400.52,112.59a73.76,73.76,0,1,1-73.76,73.76A73.76,73.76,0,0,1,400.52,112.59Z"/><path class="cls-2" d="M130,436.21c-36.08-6.14,16.13-77.87,16.13-77.87C146.93,361.31,151.51,439.87,130,436.21Z"/><path class="cls-3" d="M313.53,436.21c-36.08-6.14,16.13-77.87,16.13-77.87C330.44,361.31,335,439.87,313.53,436.21Z"/><path class="cls-4" d="M80.2,344.2c-36.08-6.14,16.13-77.87,16.13-77.87C97.11,269.3,101.69,347.86,80.2,344.2Z"/><path class="cls-5" d="M235.21,344.2c-36.08-6.14,16.13-77.87,16.13-77.87C252.12,269.3,256.7,347.86,235.21,344.2Z"/><path class="cls-6" d="M384.49,344.2c-36.08-6.14,16.13-77.87,16.13-77.87C401.4,269.3,406,347.86,384.49,344.2Z"/><path class="cls-7" d="M247.11,420.33H235.46l-8.24,8.24L219,420.33H207.33V408.68l-8.24-8.24,8.24-8.24V380.55H219l8.24-8.24,8.24,8.24h11.65V392.2l8.24,8.24-8.24,8.24ZM222.93,384.5l-1.63,1.64h-8.38v8.38L207,400.44l5.93,5.93v8.38h8.38l5.93,5.93,5.93-5.93h8.38v-8.38l5.93-5.93-5.93-5.93v-8.38h-8.38l-5.93-5.93Z"/><path class="cls-7" d="M235.18,403.73l3.3-3.3-3.3-3.3v-4.66h-4.66l-3.3-3.3-3.3,3.3h-4.66v4.66l-3.3,3.3,3.3,3.3v4.66h4.66l3.3,3.3,3.3-3.3h4.66Z"/><path class="cls-8" d="M212.22,436.06l9.37-35.62h11.25Z"/><path class="cls-8" d="M242.22,436.06l-9.37-35.62H221.6Z"/><path class="cls-8" d="M212.22,364.82l9.37,35.62h11.25Z"/><path class="cls-8" d="M242.22,364.82l-9.37,35.62H221.6Z"/><path class="cls-8" d="M191.6,385.44l35.62,9.37v11.25Z"/><path class="cls-8" d="M191.6,415.44l35.62-9.37V394.81Z"/><path class="cls-8" d="M262.84,385.44l-35.62,9.37v11.25Z"/><path class="cls-8" d="M262.84,415.44l-35.62-9.37V394.81Z"/><path class="cls-7" d="M175.87,320.59H164.22L156,328.83l-8.24-8.24H136.09V308.94l-8.24-8.24,8.24-8.24V280.81h11.65l8.24-8.24,8.24,8.24h11.65v11.65l8.24,8.24-8.24,8.24Zm-24.18-35.83-1.63,1.64h-8.38v8.38l-5.93,5.93,5.93,5.93V315h8.38l5.93,5.93L161.9,315h8.38v-8.38l5.93-5.93-5.93-5.93v-8.38H161.9L156,280.46Z"/><path class="cls-7" d="M163.93,304l3.3-3.3-3.3-3.3v-4.66h-4.66l-3.3-3.3-3.3,3.3H148v4.66l-3.3,3.3L148,304v4.66h4.66l3.3,3.3,3.3-3.3h4.66Z"/><path class="cls-8" d="M141,336.32l9.37-35.62H161.6Z"/><path class="cls-8" d="M171,336.32,161.6,300.7H150.35Z"/><path class="cls-8" d="M141,265.08l9.37,35.62H161.6Z"/><path class="cls-8" d="M171,265.08,161.6,300.7H150.35Z"/><path class="cls-8" d="M120.36,285.7,156,295.07v11.25Z"/><path class="cls-8" d="M120.36,315.7,156,306.32V295.07Z"/><path class="cls-8" d="M191.6,285.7,156,295.07v11.25Z"/><path class="cls-8" d="M191.6,315.7,156,306.32V295.07Z"/><path class="cls-7" d="M339.73,320.59H328.08l-8.24,8.24-8.24-8.24H299.95V308.94l-8.24-8.24,8.24-8.24V280.81H311.6l8.24-8.24,8.24,8.24h11.65v11.65L348,300.7l-8.24,8.24Zm-24.18-35.83-1.63,1.64h-8.38v8.38l-5.93,5.93,5.93,5.93V315h8.38l5.93,5.93,5.93-5.93h8.38v-8.38l5.93-5.93-5.93-5.93v-8.38h-8.38l-5.93-5.93Z"/><path class="cls-7" d="M327.8,304l3.3-3.3-3.3-3.3v-4.66h-4.66l-3.3-3.3-3.3,3.3h-4.66v4.66l-3.3,3.3,3.3,3.3v4.66h4.66l3.3,3.3,3.3-3.3h4.66Z"/><path class="cls-8" d="M304.84,336.32l9.37-35.62h11.25Z"/><path class="cls-8" d="M334.84,336.32l-9.37-35.62H314.21Z"/><path class="cls-8" d="M304.84,265.08l9.37,35.62h11.25Z"/><path class="cls-8" d="M334.84,265.08l-9.37,35.62H314.21Z"/><path class="cls-8" d="M284.22,285.7l35.62,9.37v11.25Z"/><path class="cls-8" d="M284.22,315.7l35.62-9.37V295.07Z"/><path class="cls-8" d="M355.46,285.7l-35.62,9.37v11.25Z"/><path class="cls-8" d="M355.46,315.7l-35.62-9.37V295.07Z"/><path class="cls-9" d="M274.58,43.66c68.49,0,124,46.67,124,104.23s-55.53,104.23-124,104.23-124-46.67-124-104.23S206.08,43.66,274.58,43.66Z"/><path class="cls-9" d="M89.78,153.42a49.47,49.47,0,1,1-49.47,49.47A49.47,49.47,0,0,1,89.78,153.42Z"/><path class="cls-9" d="M102.15,192.9h272.5c21.65,0,39.2,13.29,39.2,29.68s-17.55,29.68-39.2,29.68H102.15C80.5,252.26,63,239,63,222.58S80.5,192.9,102.15,192.9Z"/><path class="cls-9" d="M170.78,89.86A73.76,73.76,0,1,1,97,163.62,73.76,73.76,0,0,1,170.78,89.86Z"/><path class="cls-9" d="M380,104.61a73.76,73.76,0,1,1-73.76,73.76A73.76,73.76,0,0,1,380,104.61Z"/><path class="cls-10" d="M280.19,51.64c68.49,0,124,46.67,124,104.23s-55.53,104.23-124,104.23-124-46.67-124-104.23S211.69,51.64,280.19,51.64Z"/><path class="cls-11" d="M95.39,161.39a49.47,49.47,0,1,1-49.47,49.47A49.47,49.47,0,0,1,95.39,161.39Z"/><path class="cls-12" d="M107.76,200.88h272.5c21.65,0,39.2,13.29,39.2,29.68s-17.55,29.68-39.2,29.68H107.76c-21.65,0-39.2-13.29-39.2-29.68S86.11,200.88,107.76,200.88Z"/><path class="cls-13" d="M176.39,97.83a73.76,73.76,0,1,1-73.76,73.76A73.76,73.76,0,0,1,176.39,97.83Z"/><path class="cls-14" d="M385.57,112.59a73.76,73.76,0,1,1-73.76,73.76A73.76,73.76,0,0,1,385.57,112.59Z"/></g></svg>