<svg xmlns="http://www.w3.org/2000/svg" xmlns:xlink="http://www.w3.org/1999/xlink" viewBox="0 0 512.83 512.21"><defs><style>.cls-1,.cls-2,.cls-4,.cls-5,.cls-6,.cls-7,.cls-8,.cls-9{fill-rule:evenodd;}.cls-2,.cls-3{fill:#fff;}.cls-4{fill:#ededed;}.cls-5{fill:url(#New_Gradient_Swatch_1);}.cls-6{fill:url(#New_Gradient_Swatch_1-2);}.cls-7{fill:url(#New_Gradient_Swatch_1-3);}.cls-8{fill:url(#New_Gradient_Swatch_1-4);}.cls-9{fill:url(#New_Gradient_Swatch_1-5);}</style><linearGradient id="New_Gradient_Swatch_1" x1="280.86" y1="57.57" x2="280.86" y2="265.62" gradientUnits="userSpaceOnUse"><stop offset="0" stop-color="#a5a5a5"/><stop offset="1" stop-color="#4f4f50"/></linearGradient><linearGradient id="New_Gradient_Swatch_1-2" x1="95.39" y1="57.57" x2="95.39" y2="265.62" xlink:href="#New_Gradient_Swatch_1"/><linearGradient id="New_Gradient_Swatch_1-3" x1="244.55" y1="57.57" x2="244.55" y2="265.62" xlink:href="#New_Gradient_Swatch_1"/><linearGradient id="New_Gradient_Swatch_1-4" x1="176.69" y1="57.57" x2="176.69" y2="265.62" xlink:href="#New_Gradient_Swatch_1"/><linearGradient id="New_Gradient_Swatch_1-5" x1="386.62" y1="57.57" x2="386.62" y2="265.62" xlink:href="#New_Gradient_Swatch_1"/></defs><title>Artboard 72</title><g id="snow_night_-_light" data-name="snow night - light"><path class="cls-1" d="M262.67,426.24H251l-8.27,8.27-8.27-8.27H222.74V414.54l-8.27-8.27,8.27-8.27V386.31h11.69L242.7,378l8.27,8.27h11.69V398l8.27,8.27-8.27,8.27Zm-24.27-36-1.64,1.64h-8.41v8.41l-5.95,5.95,5.95,5.95v8.41h8.41l5.95,5.95,5.95-5.95h8.41v-8.41l5.95-5.95-5.95-5.95v-8.41h-8.41L242.7,386Z"/><path class="cls-1" d="M250.69,409.58l3.31-3.31L250.69,403v-4.68H246L242.7,395l-3.31,3.31h-4.68V403l-3.31,3.31,3.31,3.31v4.68h4.68l3.31,3.31,3.31-3.31h4.68Z"/><path d="M227.65,442l9.41-35.75h11.29Z"/><path d="M257.76,442l-9.41-35.75H237.06Z"/><path d="M227.65,370.52l9.41,35.75h11.29Z"/><path d="M257.76,370.52l-9.41,35.75H237.06Z"/><path d="M207,391.22l35.75,9.41v11.29Z"/><path d="M207,421.33l35.75-9.41V400.63Z"/><path d="M278.46,391.22l-35.75,9.41v11.29Z"/><path d="M278.46,421.33l-35.75-9.41V400.63Z"/><path class="cls-1" d="M191.16,326.13H179.47l-8.27,8.27-8.27-8.27H151.24V314.44L143,306.17l8.27-8.27V286.21h11.69l8.27-8.27,8.27,8.27h11.69V297.9l8.27,8.27-8.27,8.27Zm-24.27-36-1.64,1.64h-8.41v8.41l-5.95,5.95,5.95,5.95v8.41h8.41l5.95,5.95,5.95-5.95h8.41v-8.41l5.95-5.95-5.95-5.95v-8.41h-8.41l-5.95-5.95Z"/><path class="cls-1" d="M179.19,309.48l3.31-3.31-3.31-3.31v-4.68h-4.68l-3.31-3.31-3.31,3.31h-4.68v4.68l-3.31,3.31,3.31,3.31v4.68h4.68l3.31,3.31,3.31-3.31h4.68Z"/><path d="M156.15,341.92l9.41-35.75h11.29Z"/><path d="M186.25,341.92l-9.41-35.75H165.56Z"/><path d="M156.15,270.42l9.41,35.75h11.29Z"/><path d="M186.25,270.42l-9.41,35.75H165.56Z"/><path d="M135.45,291.12l35.75,9.41v11.29Z"/><path d="M135.45,321.22l35.75-9.41V300.52Z"/><path d="M207,291.12l-35.75,9.41v11.29Z"/><path d="M207,321.22l-35.75-9.41V300.52Z"/><path class="cls-1" d="M355.62,326.13H343.93l-8.27,8.27-8.27-8.27H315.7V314.44l-8.27-8.27,8.27-8.27V286.21h11.69l8.27-8.27,8.27,8.27h11.69V297.9l8.27,8.27-8.27,8.27Zm-24.27-36-1.64,1.64H321.3v8.41l-5.95,5.95,5.95,5.95v8.41h8.41l5.95,5.95,5.95-5.95H350v-8.41l5.95-5.95L350,300.22v-8.41H341.6l-5.95-5.95Z"/><path class="cls-1" d="M343.64,309.48l3.31-3.31-3.31-3.31v-4.68H339l-3.31-3.31-3.31,3.31h-4.68v4.68l-3.31,3.31,3.31,3.31v4.68h4.68l3.31,3.31,3.31-3.31h4.68Z"/><path d="M320.6,341.92,330,306.17H341.3Z"/><path d="M350.71,341.92l-9.41-35.75H330Z"/><path d="M320.6,270.42,330,306.17H341.3Z"/><path d="M350.71,270.42l-9.41,35.75H330Z"/><path d="M299.91,291.12l35.75,9.41v11.29Z"/><path d="M299.91,321.22l35.75-9.41V300.52Z"/><path d="M371.41,291.12l-35.75,9.41v11.29Z"/><path d="M371.41,321.22l-35.75-9.41V300.52Z"/><path class="cls-1" d="M290.23,48.2C359,48.2,414.7,95,414.7,152.82S359,257.43,290.23,257.43,165.76,210.59,165.76,152.82,221.49,48.2,290.23,48.2Z"/><path class="cls-1" d="M104.76,158.36A49.65,49.65,0,1,1,55.12,208,49.65,49.65,0,0,1,104.76,158.36Z"/><path class="cls-1" d="M117.18,198H390.67C412.4,198,430,211.32,430,227.77s-17.61,29.79-39.34,29.79H117.18c-21.73,0-39.34-13.34-39.34-29.79S95.45,198,117.18,198Z"/><path class="cls-1" d="M186.06,94.57a74,74,0,1,1-74,74A74,74,0,0,1,186.06,94.57Z"/><path class="cls-1" d="M396,109.38a74,74,0,1,1-74,74A74,74,0,0,1,396,109.38Z"/><path class="cls-1" d="M295.86,56.21c68.74,0,124.47,46.84,124.47,104.61S364.6,265.43,295.86,265.43,171.39,218.59,171.39,160.82,227.12,56.21,295.86,56.21Z"/><path class="cls-1" d="M110.39,166.36A49.65,49.65,0,1,1,60.75,216,49.65,49.65,0,0,1,110.39,166.36Z"/><path class="cls-1" d="M122.81,206H396.3c21.73,0,39.34,13.34,39.34,29.79S418,265.56,396.3,265.56H122.81c-21.73,0-39.34-13.34-39.34-29.79S101.08,206,122.81,206Z"/><path class="cls-1" d="M191.69,102.57a74,74,0,1,1-74,74A74,74,0,0,1,191.69,102.57Z"/><path class="cls-1" d="M401.62,117.38a74,74,0,1,1-74,74A74,74,0,0,1,401.62,117.38Z"/><path class="cls-2" d="M247.66,426.24H236l-8.27,8.27-8.27-8.27H207.74V414.54l-8.27-8.27,8.27-8.27V386.31h11.69L227.7,378l8.27,8.27h11.69V398l8.27,8.27-8.27,8.27Zm-24.27-36-1.64,1.64h-8.41v8.41l-5.95,5.95,5.95,5.95v8.41h8.41l5.95,5.95,5.95-5.95h8.41v-8.41l5.95-5.95-5.95-5.95v-8.41h-8.41L227.7,386Z"/><path class="cls-2" d="M235.69,409.58l3.31-3.31L235.69,403v-4.68H231L227.7,395l-3.31,3.31h-4.68V403l-3.31,3.31,3.31,3.31v4.68h4.68l3.31,3.31,3.31-3.31h4.68Z"/><path class="cls-3" d="M212.65,442l9.41-35.75h11.29Z"/><path class="cls-3" d="M242.75,442l-9.41-35.75H222.06Z"/><path class="cls-3" d="M212.65,370.52l9.41,35.75h11.29Z"/><path class="cls-3" d="M242.75,370.52l-9.41,35.75H222.06Z"/><path class="cls-3" d="M192,391.22l35.75,9.41v11.29Z"/><path class="cls-3" d="M192,421.33l35.75-9.41V400.63Z"/><path class="cls-3" d="M263.45,391.22l-35.75,9.41v11.29Z"/><path class="cls-3" d="M263.45,421.33l-35.75-9.41V400.63Z"/><path class="cls-2" d="M176.16,326.13H164.47l-8.27,8.27-8.27-8.27H136.24V314.44L128,306.17l8.27-8.27V286.21h11.69l8.27-8.27,8.27,8.27h11.69V297.9l8.27,8.27-8.27,8.27Zm-24.27-36-1.64,1.64h-8.41v8.41l-5.95,5.95,5.95,5.95v8.41h8.41l5.95,5.95,5.95-5.95h8.41v-8.41l5.95-5.95-5.95-5.95v-8.41h-8.41l-5.95-5.95Z"/><path class="cls-2" d="M164.18,309.48l3.31-3.31-3.31-3.31v-4.68h-4.68l-3.31-3.31-3.31,3.31h-4.68v4.68l-3.31,3.31,3.31,3.31v4.68h4.68l3.31,3.31,3.31-3.31h4.68Z"/><path class="cls-3" d="M141.15,341.92l9.41-35.75h11.29Z"/><path class="cls-3" d="M171.25,341.92l-9.41-35.75H150.55Z"/><path class="cls-3" d="M141.15,270.42l9.41,35.75h11.29Z"/><path class="cls-3" d="M171.25,270.42l-9.41,35.75H150.55Z"/><path class="cls-3" d="M120.45,291.12l35.75,9.41v11.29Z"/><path class="cls-3" d="M120.45,321.22l35.75-9.41V300.52Z"/><path class="cls-3" d="M192,291.12l-35.75,9.41v11.29Z"/><path class="cls-3" d="M192,321.22l-35.75-9.41V300.52Z"/><path class="cls-2" d="M340.62,326.13H328.92l-8.27,8.27-8.27-8.27H300.69V314.44l-8.27-8.27,8.27-8.27V286.21h11.69l8.27-8.27,8.27,8.27h11.69V297.9l8.27,8.27-8.27,8.27Zm-24.27-36-1.64,1.64H306.3v8.41l-5.95,5.95,5.95,5.95v8.41h8.41l5.95,5.95,5.95-5.95H335v-8.41l5.95-5.95L335,300.22v-8.41H326.6l-5.95-5.95Z"/><path class="cls-2" d="M328.64,309.48l3.31-3.31-3.31-3.31v-4.68H324l-3.31-3.31-3.31,3.31h-4.68v4.68l-3.31,3.31,3.31,3.31v4.68h4.68l3.31,3.31,3.31-3.31h4.68Z"/><path class="cls-3" d="M305.6,341.92,315,306.17H326.3Z"/><path class="cls-3" d="M335.71,341.92l-9.41-35.75H315Z"/><path class="cls-3" d="M305.6,270.42,315,306.17H326.3Z"/><path class="cls-3" d="M335.71,270.42l-9.41,35.75H315Z"/><path class="cls-3" d="M284.9,291.12l35.75,9.41v11.29Z"/><path class="cls-3" d="M284.9,321.22l35.75-9.41V300.52Z"/><path class="cls-3" d="M356.41,291.12l-35.75,9.41v11.29Z"/><path class="cls-3" d="M356.41,321.22l-35.75-9.41V300.52Z"/><path class="cls-4" d="M275.23,48.2C344,48.2,399.7,95,399.7,152.82S344,257.43,275.23,257.43,150.76,210.59,150.76,152.82,206.48,48.2,275.23,48.2Z"/><path class="cls-4" d="M89.76,158.36A49.65,49.65,0,1,1,40.12,208,49.65,49.65,0,0,1,89.76,158.36Z"/><path class="cls-4" d="M102.18,198H375.67c21.73,0,39.34,13.34,39.34,29.79s-17.61,29.79-39.34,29.79H102.18c-21.73,0-39.34-13.34-39.34-29.79S80.45,198,102.18,198Z"/><path class="cls-4" d="M171.06,94.57a74,74,0,1,1-74,74A74,74,0,0,1,171.06,94.57Z"/><path class="cls-4" d="M381,109.38a74,74,0,1,1-74,74A74,74,0,0,1,381,109.38Z"/><path class="cls-5" d="M280.86,56.21c68.74,0,124.47,46.84,124.47,104.61S349.6,265.43,280.86,265.43,156.39,218.59,156.39,160.82,212.11,56.21,280.86,56.21Z"/><path class="cls-6" d="M95.39,166.36A49.65,49.65,0,1,1,45.75,216,49.65,49.65,0,0,1,95.39,166.36Z"/><path class="cls-7" d="M107.81,206H381.3c21.73,0,39.34,13.34,39.34,29.79S403,265.56,381.3,265.56H107.81c-21.73,0-39.34-13.34-39.34-29.79S86.08,206,107.81,206Z"/><path class="cls-8" d="M176.69,102.57a74,74,0,1,1-74,74A74,74,0,0,1,176.69,102.57Z"/><path class="cls-9" d="M386.62,117.38a74,74,0,1,1-74,74A74,74,0,0,1,386.62,117.38Z"/></g></svg>