<svg id="gusts" xmlns="http://www.w3.org/2000/svg" viewBox="0 0 595 842"><path d="M343.4 615.6l-177.3.8-4.5-.2-8.3-.8A137.2 137.2 0 0 1 22.9 478.2c0-75.7 61.6-137.4 137.4-137.4h297.6a91.7 91.7 0 0 0 91.6-91.6v-17c0-38.1-27.3-70-63.4-74.1a74.5 74.5 0 0 0-79.8 95 11.5 11.5 0 0 0 22-6.4 51.6 51.6 0 0 1 55.3-65.8c24.2 2.8 43.1 25.3 43.1 51.4v17A68.8 68.8 0 0 1 458 318H160.3a160.3 160.3 0 0 0-8.7 320.2l7.7.8c2.2.2 4.5.3 6.8.3l177.3-.8c6.3 0 11.4-5.2 11.4-11.5s-5.1-11.4-11.4-11.4z"/><path d="M493.4 502.2l-320.5.1-12.6-1.2c-12.6 0-22.9-10.3-22.9-22.9s10.3-22.9 22.9-22.9h297.6a11.4 11.4 0 1 0 0-22.8H160.3a45.8 45.8 0 0 0-1.2 91.5h.1l12.6 1.2h321.6c43.6 0 79 35.5 79 79 0 1 .3 1.9.6 2.9-.2.9-.6 1.9-.6 2.9a51.6 51.6 0 0 1-103 0 11.4 11.4 0 1 0-22.8 0 74.5 74.5 0 0 0 148.8 0c0-1-.3-1.9-.6-2.9.2-.9.6-1.8.6-2.9-.1-56.3-45.8-102-102-102z"/><path d="M457.9 375.2H160.3a103.1 103.1 0 0 0-4.5 205.9l10.4 1 327.2.3c6.3 0 11.4-5.1 11.4-11.4 0-6.3-5.1-11.5-11.4-11.5l-326.1-.2-10-1a80.2 80.2 0 0 1 3-160.2h297.6c75.7 0 137.4-61.6 137.4-137.4a11.4 11.4 0 1 0-22.8 0 114.8 114.8 0 0 1-114.6 114.5z"/></svg>
