<?xml version="1.0" encoding="UTF-8"?>
<!-- Generator: Adobe Illustrator 21.1.0, SVG Export Plug-In . SVG Version: 6.00 Build 0)  -->
<svg version="1.1" id="Layer_1" xmlns="http://www.w3.org/2000/svg" xmlns:xlink="http://www.w3.org/1999/xlink" x="0px" y="0px" viewBox="0 0 512.8 512.2" style="enable-background:new 0 0 512.8 512.2;" xml:space="preserve">
<style type="text/css">
	.st0{fill:#FFFFFF;}
	.st1{fill:#EDEDED;}
	.st2{fill:url(#SVGID_1_);}
	.st3{fill:url(#SVGID_2_);}
	.st4{fill:url(#SVGID_3_);}
	.st5{fill:url(#SVGID_4_);}
	.st6{fill:url(#SVGID_5_);}
	.st7{fill:url(#SVGID_6_);}
	.st8{fill:url(#SVGID_7_);}
	.st9{fill:url(#SVGID_8_);}
	.st10{fill:url(#SVGID_9_);}
	.st11{fill:url(#SVGID_10_);}
	.st12{fill:url(#SVGID_11_);}
	.st13{fill:url(#SVGID_12_);}
	.st14{fill:url(#SVGID_13_);}
	.st15{fill:url(#SVGID_14_);}
	.st16{fill:url(#SVGID_15_);}
	.st17{fill:url(#SVGID_16_);}
	.st18{fill:url(#SVGID_17_);}
	.st19{fill:url(#SVGID_18_);}
	.st20{fill:url(#SVGID_19_);}
	.st21{fill:url(#SVGID_20_);}
	.st22{fill:url(#SVGID_21_);}
	.st23{fill:url(#SVGID_22_);}
	.st24{fill:url(#SVGID_23_);}
	.st25{fill:url(#SVGID_24_);}
	.st26{fill:url(#SVGID_25_);}
</style>
<g id="snow_night_-_heavy">
	<path d="M177.9,338.9h-14.7l-10.4,10.4l-10.4-10.4h-14.7v-14.7l-10.4-10.4l10.4-10.4v-14.7h14.7l10.4-10.4l10.4,10.4h14.7v14.7   l10.4,10.4l-10.4,10.4V338.9z M147.4,293.7l-2.1,2.1h-10.6v10.6l-7.5,7.5l7.5,7.5v10.6h10.6l7.5,7.5l7.5-7.5h10.6v-10.6l7.5-7.5   l-7.5-7.5v-10.6h-10.6l-7.5-7.5L147.4,293.7z"/>
	<path d="M162.9,318l4.2-4.2l-4.2-4.2v-5.9H157l-4.2-4.2l-4.2,4.2h-5.9v5.9l-4.2,4.2l4.2,4.2v5.9h5.9l4.2,4.2l4.2-4.2h5.9L162.9,318   z"/>
	<path d="M133.9,358.8l11.8-44.9h14.2L133.9,358.8z"/>
	<path d="M171.7,358.8l-11.8-44.9h-14.2L171.7,358.8z"/>
	<path d="M133.9,268.9l11.8,44.9h14.2L133.9,268.9z"/>
	<path d="M171.7,268.9l-11.8,44.9h-14.2L171.7,268.9z"/>
	<path d="M107.9,294.9l44.9,11.8v14.2L107.9,294.9z"/>
	<path d="M107.9,332.8l44.9-11.8v-14.2L107.9,332.8z"/>
	<path d="M197.7,294.9l-44.9,11.8v14.2L197.7,294.9z"/>
	<path d="M197.7,332.8l-44.9-11.8v-14.2L197.7,332.8z"/>
	<path d="M378.3,328.9h-15.4L352,339.8l-10.9-10.9h-15.4v-15.4l-10.9-10.9l10.9-10.9v-15.4h15.4l10.9-10.9l10.9,10.9h15.4v15.4   l10.9,10.9l-10.9,10.9V328.9z M346.3,281.5l-2.2,2.2h-11v11.1l-7.8,7.8l7.8,7.8v11.1h11.1l7.8,7.8l7.8-7.8H371v-11.1l7.8-7.8   l-7.8-7.8v-11.1h-11.1l-7.8-7.8L346.3,281.5z"/>
	<path d="M362.6,306.9l4.4-4.4l-4.4-4.4v-6.2h-6.2l-4.4-4.4l-4.4,4.4h-6.2v6.2l-4.4,4.4l4.4,4.4v6.2h6.2l4.4,4.4l4.4-4.4h6.2V306.9z   "/>
	<path d="M332.2,349.6l12.4-47.1h14.9L332.2,349.6z"/>
	<path d="M371.9,349.6l-12.4-47.1h-14.9L371.9,349.6z"/>
	<path d="M332.2,255.5l12.4,47.1h14.9L332.2,255.5z"/>
	<path d="M371.9,255.5l-12.4,47.1h-14.9L371.9,255.5z"/>
	<path d="M305,282.8l47.1,12.4V310L305,282.8z"/>
	<path d="M305,322.4l47-12.4v-14.9L305,322.4z"/>
	<path d="M399.1,282.8L352,295.1V310L399.1,282.8z"/>
	<path d="M399.1,322.4L352,310v-14.9L399.1,322.4z"/>
	<path d="M266.7,304h-13.5l-9.5,9.5l-9.5-9.5h-13.5v-13.4l-9.5-9.6l9.5-9.5V258h13.5l9.5-9.5l9.5,9.5h13.5v13.5l9.5,9.5l-9.5,9.5   V304z M238.7,262.5l-1.9,1.9h-9.7v9.7l-6.8,6.9l6.9,6.9v9.7h9.7l6.9,6.9l6.9-6.9h9.7v-9.6l6.9-6.9l-6.9-6.9v-9.7h-9.7l-6.9-6.9   L238.7,262.5z"/>
	<path d="M252.9,284.9l3.8-3.8l-3.8-3.8v-5.4h-5.4l-3.8-3.8l-3.8,3.8h-5.4v5.4l-3.8,3.8l3.8,3.8v5.4h5.4l3.8,3.8l3.8-3.8h5.4   L252.9,284.9z"/>
	<path d="M226.3,322.2l10.8-41.2h13L226.3,322.2z"/>
	<path d="M261,322.2L250.2,281h-13L261,322.2z"/>
	<path d="M226.3,239.8l10.8,41.2h13L226.3,239.8z"/>
	<path d="M261,239.8L250.2,281h-13L261,239.8z"/>
	<path d="M202.5,263.7l41.2,10.8v13L202.5,263.7z"/>
	<path d="M202.5,298.4l41.2-10.8v-13L202.5,298.4z"/>
	<path d="M284.9,263.7l-41.2,10.8v13L284.9,263.7z"/>
	<path d="M284.9,298.4l-41.2-10.8v-13L284.9,298.4z"/>
	<path d="M299.5,367.3h-11.6l-8.2,8.2l-8.2-8.2h-11.6v-11.6l-8.2-8.2l8.2-8.2v-11.6h11.6l8.2-8.2l8.2,8.2h11.6v11.6l8.2,8.2   l-8.2,8.2L299.5,367.3z M275.4,331.6l-1.6,1.6h-8.4v8.4l-5.9,5.9l5.9,5.9v8.4h8.4l5.9,5.9l5.9-5.9h8.4v-8.4l5.9-5.9l-5.9-5.9v-8.4   h-8.4l-5.9-5.9L275.4,331.6z"/>
	<path d="M287.6,350.8l3.3-3.3l-3.3-3.3v-4.6H283l-3.3-3.3l-3.3,3.3h-4.6v4.6l-3.3,3.3l3.3,3.3v4.6h4.6l3.3,3.3l3.3-3.3h4.6   L287.6,350.8z"/>
	<path d="M264.8,383l9.3-35.5h11.2L264.8,383z"/>
	<path d="M294.6,383l-9.3-35.5h-11.2L294.6,383z"/>
	<path d="M264.8,312l9.3,35.5h11.2L264.8,312z"/>
	<path d="M294.6,312l-9.3,35.5h-11.2L294.6,312z"/>
	<path d="M244.2,332.5l35.5,9.3v11.2L244.2,332.5z"/>
	<path d="M244.2,362.4l35.5-9.3v-11.2L244.2,362.4z"/>
	<path d="M315.2,332.5l-35.5,9.3v11.2L315.2,332.5z"/>
	<path d="M315.2,362.4l-35.5-9.3v-11.2L315.2,362.4z"/>
	<path d="M228,386.1h-11.2l-7.9,7.9l-7.9-7.9h-11.1v-11.1L182,367l7.9-7.9V348H201l7.9-7.9l7.9,7.9H228v11.1l7.9,7.9l-7.9,7.9V386.1   z M204.9,351.8l-1.6,1.6h-8v8l-5.7,5.6l5.7,5.7v8h8l5.7,5.7l5.7-5.7h8v-8l5.7-5.7l-5.7-5.7v-8h-8l-5.7-5.7L204.9,351.8z"/>
	<path d="M216.5,370.2l3.2-3.2l-3.1-3.1v-4.5h-4.5l-3.1-3.1l-3.1,3.1h-4.5v4.5l-3.2,3.1l3.1,3.1v4.5h4.5l3.1,3.1l3.1-3.1h4.5   L216.5,370.2z"/>
	<path d="M194.6,401.1l9-34.1h10.8L194.6,401.1z"/>
	<path d="M223.3,401.1l-9-34.1h-10.8L223.3,401.1z"/>
	<path d="M194.6,332.9l9,34.1h10.8L194.6,332.9z"/>
	<path d="M223.3,332.9l-9,34.1h-10.8L223.3,332.9z"/>
	<path d="M174.8,352.7l34.1,9v10.8L174.8,352.7z"/>
	<path d="M174.8,381.4l34.1-9v-10.7L174.8,381.4z"/>
	<path d="M243,352.7l-34.1,9v10.8L243,352.7z"/>
	<path d="M243,381.4l-34.1-9v-10.7L243,381.4z"/>
	<path d="M352.6,388.5h-8.2l-5.8,5.8l-5.8-5.8h-8.2v-8.2l-5.8-5.8l5.8-5.8v-8.2h8.2l5.8-5.8l5.8,5.8h8.2v8.2l5.8,5.8l-5.8,5.8V388.5   z M335.5,363.2l-1.1,1.1h-5.9v5.9l-4.2,4.2l4.2,4.2v5.9h5.9l4.2,4.2l4.2-4.2h5.9v-5.9l4.2-4.2l-4.2-4.2v-5.9h-5.9l-4.2-4.2   L335.5,363.2z"/>
	<path d="M344.2,376.8l2.3-2.3l-2.3-2.3v-3.3h-3.3l-2.3-2.3l-2.3,2.3H333v3.3l-2.3,2.3l2.3,2.3v3.3h3.3l2.3,2.3l2.3-2.3h3.3   L344.2,376.8z"/>
	<path d="M328,399.6l6.6-25.1h7.9L328,399.6z"/>
	<path d="M349.2,399.6l-6.6-25.1h-7.9L349.2,399.6z"/>
	<path d="M328,349.3l6.6,25.1h7.9L328,349.3z"/>
	<path d="M349.2,349.3l-6.6,25.1h-7.9L349.2,349.3z"/>
	<path d="M313.4,363.9l25.1,6.6v7.9L313.4,363.9z"/>
	<path d="M313.4,385l25.1-6.6v-7.9L313.4,385z"/>
	<path d="M363.7,363.9l-25.1,6.6v7.9L363.7,363.9z"/>
	<path d="M363.7,385l-25.1-6.6v-7.9L363.7,385z"/>
	<path d="M278.3,52.3C341.6,52.3,393,95,393,147.8s-51.3,95.6-114.7,95.6s-114.7-42.8-114.7-95.6S215,52.3,278.3,52.3z"/>
	<path d="M107.5,152.9c25.1,0.2,45.2,20.7,45,45.7s-20.7,45.2-45.7,45c-24.9-0.2-45-20.5-45-45.4C61.8,173.1,82.3,152.8,107.5,152.9   z"/>
	<path d="M118.9,189.1h251.9c20,0,36.2,12.2,36.2,27.2s-16.2,27.2-36.2,27.2H118.9c-20,0-36.2-12.2-36.2-27.2   S98.9,189.1,118.9,189.1z"/>
	<path d="M182.4,94.6c37.7,0,68.2,30.3,68.2,67.6s-30.6,67.6-68.2,67.6s-68.2-30.3-68.2-67.6S144.7,94.6,182.4,94.6z"/>
	<path d="M375.7,108.1c37.7,0,68.2,30.3,68.2,67.6s-30.5,67.6-68.2,67.6s-68.2-30.3-68.2-67.6S338.1,108.1,375.7,108.1z"/>
	<path d="M283.5,59.6c63.3,0,114.7,42.8,114.7,95.6s-51.3,95.6-114.7,95.6s-114.7-42.8-114.7-95.6S220.2,59.6,283.5,59.6z"/>
	<path d="M112.7,160.2c25.1,0.2,45.2,20.7,45,45.7s-20.7,45.2-45.7,45c-24.9-0.2-45-20.5-45-45.4C67,180.4,87.5,160.1,112.7,160.2z"/>
	<path d="M124.1,196.4H376c20,0,36.2,12.2,36.2,27.2S396,250.8,376,250.8H124.1c-20,0-36.2-12.2-36.2-27.2S104.1,196.4,124.1,196.4z   "/>
	<path d="M187.6,101.9c37.7,0,68.2,30.3,68.2,67.6s-30.5,67.6-68.2,67.6s-68.2-30.3-68.2-67.6S149.9,101.9,187.6,101.9z"/>
	<path d="M380.9,115.5c37.7,0,68.2,30.3,68.2,67.6s-30.5,67.6-68.2,67.6s-68.2-30.3-68.2-67.6S343.3,115.5,380.9,115.5z"/>
	<path d="M339.1,112.8c53.1,0,96.2,35.2,96.2,78.6S392.2,270,339.1,270s-96.2-35.2-96.2-78.6S285.9,112.8,339.1,112.8z"/>
	<path d="M195.7,195.6c21.2,0,38.4,16.7,38.4,37.3s-17.2,37.3-38.4,37.3s-38.4-16.7-38.4-37.3S174.5,195.6,195.7,195.6z"/>
	<path d="M205.3,225.3h211.4c16.8,0,30.4,10,30.4,22.4c0,12.4-13.6,22.4-30.4,22.4H205.3c-16.8,0-30.4-10-30.4-22.4   S188.5,225.3,205.3,225.3z"/>
	<path d="M258.5,147.7c31.6,0,57.2,24.9,57.2,55.6s-25.6,55.6-57.2,55.6s-57.2-24.9-57.2-55.6S226.9,147.7,258.5,147.7z"/>
	<path d="M422.8,164.6c30,0,54.3,23.6,54.3,52.8s-24.3,52.8-54.3,52.8s-54.3-23.6-54.3-52.8S392.9,164.6,422.8,164.6z"/>
	<path d="M343.8,119.7c48.7,0,88.1,32.9,88.1,73.4s-39.4,73.4-88.1,73.4s-88.1-32.9-88.1-73.4S295.1,119.7,343.8,119.7z"/>
	<path d="M212.5,197.1c19.2,0.2,34.7,15.9,34.6,35.1c-0.2,19.2-15.9,34.7-35.1,34.6c-19.1-0.2-34.6-15.7-34.6-34.8   C177.4,212.6,193.1,197,212.5,197.1z"/>
	<path d="M221.3,224.9h193.6c15.4,0,27.8,9.4,27.8,20.9s-12.5,20.9-27.8,20.9H221.3c-15.4,0-27.8-9.4-27.8-20.9   S205.9,224.9,221.3,224.9z"/>
	<path d="M270,152.3c28.9,0,52.4,23.3,52.4,52s-23.5,52-52.4,52s-52.4-23.3-52.4-52S241.1,152.3,270,152.3z"/>
	<path d="M418.6,162.7c28.9,0,52.4,23.3,52.4,52s-23.5,52-52.4,52s-52.4-23.3-52.4-52S389.7,162.7,418.6,162.7z"/>
	<path d="M347.7,125.4c48.7,0,88.1,32.9,88.1,73.4s-39.4,73.4-88.1,73.4s-88.1-32.9-88.1-73.4S299.1,125.4,347.7,125.4z"/>
	<path d="M216.5,202.7c19.2,0.2,34.7,15.9,34.6,35.1c-0.2,19.2-15.9,34.7-35.1,34.6c-19.1-0.2-34.6-15.7-34.6-34.8   C181.4,218.2,197.1,202.6,216.5,202.7z"/>
	<path d="M225.2,230.5h193.6c15.4,0,27.8,9.4,27.8,20.9c0,11.6-12.5,20.9-27.8,20.9H225.2c-15.4,0-27.8-9.4-27.8-20.9   S209.9,230.5,225.2,230.5z"/>
	<path d="M274,157.9c28.9,0,52.4,23.3,52.4,52s-23.5,52-52.4,52s-52.4-23.3-52.4-52S245.1,157.9,274,157.9z"/>
	<path d="M422.6,168.3c28.9,0,52.4,23.3,52.4,52s-23.5,52-52.4,52s-52.4-23.3-52.4-52S393.7,168.3,422.6,168.3z"/>
	<path d="M186.3,155.5c38.7,0,70.1,25.6,70.1,57.3S225,270,186.3,270s-70.1-25.6-70.1-57.3S147.5,155.5,186.3,155.5z"/>
	<path d="M81.8,215.8c15.4,0,28,12.2,28,27.2c0,15-12.5,27.2-28,27.2s-28-12.2-28-27.2S66.3,215.8,81.8,215.8z"/>
	<path d="M88.7,237.5h154.1c12.2,0,22.2,7.3,22.2,16.3s-9.9,16.3-22.2,16.3H88.7c-12.2,0-22.2-7.3-22.2-16.3S76.5,237.5,88.7,237.5z   "/>
	<path d="M127.6,180.9c23,0,41.7,18.1,41.7,40.5s-18.7,40.5-41.7,40.5s-41.7-18.1-41.7-40.5S104.5,180.9,127.6,180.9z"/>
	<path d="M247.3,193.2c21.9,0,39.6,17.2,39.6,38.4s-17.7,38.5-39.6,38.5s-39.6-17.2-39.6-38.4S225.5,193.2,247.3,193.2z"/>
	<path d="M177,160c35.9,0,64.9,24.2,64.9,54.1s-29.1,54.1-64.9,54.1s-65-24.2-65-54.1S141.1,160,177,160z"/>
	<path d="M80.2,217c14.2,0.1,25.6,11.7,25.5,25.9c-0.1,14.2-11.7,25.6-25.9,25.5c-14.1-0.1-25.5-11.6-25.5-25.7   C54.4,228.4,66,216.9,80.2,217z"/>
	<path d="M86.7,237.5h142.6c11.3,0,20.5,6.9,20.5,15.4c0,8.5-9.2,15.4-20.5,15.4H86.7c-11.3,0-20.5-6.9-20.5-15.4   S75.4,237.5,86.7,237.5z"/>
	<path d="M122.6,184c21.1,0.2,38.1,17.5,37.9,38.6s-17.5,38.1-38.6,37.9c-21-0.2-37.9-17.3-37.9-38.3   C84.1,201.1,101.4,183.9,122.6,184C122.6,184,122.6,184,122.6,184z"/>
	<path d="M232.1,191.7c21.1,0.2,38.1,17.5,38,38.6s-17.5,38.1-38.6,38c-21-0.2-38-17.2-38-38.2C193.6,208.8,210.8,191.6,232.1,191.7   C232.1,191.7,232.1,191.7,232.1,191.7z"/>
	<path d="M179.9,164.2c35.8,0,64.9,24.2,64.9,54.1s-29.1,54.1-64.9,54.1S115,248.2,115,218.3S144,164.2,179.9,164.2z"/>
	<path d="M83.2,221.1c14.2,0.1,25.6,11.7,25.5,25.9c-0.1,14.2-11.7,25.6-25.9,25.5c-14.1-0.1-25.5-11.6-25.5-25.7   C57.3,232.6,68.9,221.1,83.2,221.1z"/>
	<path d="M89.6,241.6h142.6c11.3,0,20.5,6.9,20.5,15.4c0,8.5-9.2,15.4-20.5,15.4H89.6c-11.3,0-20.5-6.9-20.5-15.4   S78.3,241.6,89.6,241.6z"/>
	<path d="M125.6,188.1c21.1,0.2,38.2,17.4,38,38.6c-0.2,21.1-17.4,38.2-38.6,38c-21-0.2-38-17.3-38-38.3   C87.1,205.2,104.4,188.1,125.6,188.1z"/>
	<path d="M235,195.8c21.1,0.2,38.1,17.5,38,38.6s-17.5,38.1-38.6,38c-21-0.2-38-17.3-38-38.3C196.5,212.9,213.8,195.7,235,195.8   C235,195.8,235,195.8,235,195.8z"/>
	<path d="M324.8,112.8c53.2,0,96.2,35.2,96.2,78.6S378,270,324.8,270s-96.2-35.2-96.2-78.6S271.7,112.8,324.8,112.8z"/>
	<path d="M181.4,195.6c21.2,0,38.4,16.7,38.4,37.3s-17.2,37.3-38.4,37.3S143,253.4,143,232.9S160.2,195.6,181.4,195.6z"/>
	<path d="M191,225.3h211.5c16.8,0,30.4,10,30.4,22.4c0,12.4-13.6,22.4-30.4,22.4H191c-16.8,0-30.4-10-30.4-22.4   S174.2,225.3,191,225.3z"/>
	<path d="M244.3,147.7c31.6,0,57.2,24.9,57.2,55.6s-25.6,55.6-57.2,55.6S187,234,187,203.3S212.7,147.7,244.3,147.7z"/>
	<path d="M408.6,164.6c30,0,54.3,23.6,54.3,52.8s-24.3,52.8-54.3,52.8s-54.3-23.6-54.3-52.8S378.6,164.6,408.6,164.6z"/>
	<path d="M172,155.5c38.7,0,70.1,25.6,70.1,57.3S210.8,270,172,270s-70.1-25.6-70.1-57.3S133.3,155.5,172,155.5z"/>
	<path d="M67.5,215.8c15.4,0,28,12.2,28,27.2c0,15-12.5,27.2-28,27.2s-28-12.2-28-27.2S52,215.8,67.5,215.8z"/>
	<path d="M74.5,237.5h154.1c12.2,0,22.2,7.3,22.2,16.3s-9.9,16.3-22.2,16.3H74.5c-12.2,0-22.2-7.3-22.2-16.3S62.2,237.5,74.5,237.5z   "/>
	<path d="M113.3,180.9c23,0,41.7,18.1,41.7,40.5s-18.7,40.5-41.7,40.5s-41.7-18.1-41.7-40.5S90.3,180.9,113.3,180.9z"/>
	<path d="M233.1,193.2c21.9,0,39.6,17.2,39.6,38.4s-17.7,38.5-39.6,38.5s-39.6-17.2-39.6-38.4S211.2,193.2,233.1,193.2z"/>
	<path class="st0" d="M163.6,338.9H149l-10.4,10.4l-10.4-10.4h-14.7v-14.7l-10.4-10.4l10.4-10.4v-14.7h14.7l10.4-10.4l10.4,10.4   h14.7v14.7l10.3,10.4l-10.4,10.4L163.6,338.9z M133.1,293.7l-2.1,2.1h-10.6v10.6l-7.5,7.5l7.5,7.5v10.6H131l7.5,7.5l7.5-7.5h10.6   v-10.6l7.5-7.5l-7.5-7.5v-10.6H146l-7.5-7.5L133.1,293.7z"/>
	<path class="st0" d="M148.6,318l4.2-4.2l-4.2-4.2v-5.9h-5.9l-4.2-4.2l-4.2,4.2h-5.9v5.9l-4.2,4.2l4.2,4.2v5.9h5.9l4.2,4.2l4.2-4.2   h5.9V318z"/>
	<path class="st0" d="M119.7,358.8l11.8-44.9h14.2L119.7,358.8z"/>
	<path class="st0" d="M157.5,358.8l-11.8-44.9h-14.2L157.5,358.8z"/>
	<path class="st0" d="M119.7,268.9l11.8,44.9h14.2L119.7,268.9z"/>
	<path class="st0" d="M157.5,268.9l-11.8,44.9h-14.2L157.5,268.9z"/>
	<path class="st0" d="M93.6,294.9l44.9,11.8v14.2L93.6,294.9z"/>
	<path class="st0" d="M93.6,332.8l44.9-11.8v-14.2L93.6,332.8z"/>
	<path class="st0" d="M183.5,294.9l-44.9,11.8v14.2L183.5,294.9z"/>
	<path class="st0" d="M183.5,332.8l-44.9-11.8v-14.2L183.5,332.8z"/>
	<path class="st0" d="M364.1,328.9h-15.4l-10.9,10.9l-10.9-10.9h-15.4v-15.4l-10.9-10.9l10.9-10.9v-15.4h15.4l10.9-10.9l10.9,10.9   h15.4v15.4l10.9,10.9l-10.9,10.9L364.1,328.9z M332.1,281.5l-2.1,2.2h-11.1v11.1l-7.8,7.8l7.8,7.8v11.1H330l7.8,7.8l7.8-7.8h11.1   v-11.1l7.8-7.8l-7.8-7.8v-11.1h-11.1l-7.8-7.8L332.1,281.5z"/>
	<path class="st0" d="M348.3,306.9l4.4-4.4l-4.4-4.4v-6.2h-6.2l-4.4-4.4l-4.4,4.4h-6.2v6.2l-4.4,4.4l4.4,4.4v6.2h6.2l4.4,4.4   l4.4-4.4h6.2V306.9z"/>
	<path class="st0" d="M318,349.6l12.4-47.1h14.9L318,349.6z"/>
	<path class="st0" d="M357.6,349.6l-12.4-47.1h-14.9L357.6,349.6z"/>
	<path class="st0" d="M318,255.5l12.4,47.1h14.9L318,255.5z"/>
	<path class="st0" d="M357.6,255.5l-12.4,47.1h-14.9L357.6,255.5z"/>
	<path class="st0" d="M290.7,282.8l47.1,12.4V310L290.7,282.8z"/>
	<path class="st0" d="M290.7,322.4l47.1-12.4v-14.9L290.7,322.4z"/>
	<path class="st0" d="M384.9,282.8l-47.1,12.4V310L384.9,282.8z"/>
	<path class="st0" d="M384.9,322.4L337.8,310v-14.9L384.9,322.4z"/>
	<path class="st0" d="M252.4,304H239l-9.5,9.5l-9.6-9.5h-13.5v-13.4l-9.5-9.6l9.5-9.5V258h13.5l9.5-9.5l9.6,9.5h13.5v13.5l9.5,9.5   l-9.5,9.5L252.4,304z M224.4,262.5l-1.9,1.9h-9.7v9.7L206,281l6.9,6.9v9.7h9.7l6.9,6.9l6.9-6.9h9.7v-9.6l6.9-6.9l-6.9-6.9v-9.7   h-9.7l-6.9-6.9L224.4,262.5z"/>
	<path class="st0" d="M238.6,284.9l3.8-3.8l-3.8-3.8v-5.4h-5.4l-3.8-3.8l-3.8,3.8h-5.4v5.4l-3.8,3.8l3.8,3.8v5.4h5.4l3.8,3.8   l3.8-3.8h5.4L238.6,284.9z"/>
	<path class="st0" d="M212.1,322.2l10.8-41.2h13L212.1,322.2z"/>
	<path class="st0" d="M246.8,322.2L235.9,281h-13L246.8,322.2z"/>
	<path class="st0" d="M212.1,239.8l10.8,41.2h13L212.1,239.8z"/>
	<path class="st0" d="M246.8,239.8L235.9,281h-13L246.8,239.8z"/>
	<path class="st0" d="M188.2,263.7l41.2,10.8v13L188.2,263.7z"/>
	<path class="st0" d="M188.2,298.4l41.2-10.8v-13L188.2,298.4z"/>
	<path class="st0" d="M270.6,263.7l-41.2,10.8v13L270.6,263.7z"/>
	<path class="st0" d="M270.6,298.4l-41.2-10.8v-13L270.6,298.4z"/>
	<path class="st0" d="M285.3,367.3h-11.6l-8.2,8.2l-8.2-8.2h-11.6v-11.6l-8.2-8.2l8.2-8.2v-11.6h11.6l8.2-8.2l8.2,8.2h11.6v11.6   l8.2,8.2l-8.2,8.2L285.3,367.3z M261.2,331.6l-1.6,1.6h-8.4v8.4l-5.9,5.9l5.9,5.9v8.4h8.4l5.9,5.9l5.9-5.9h8.4v-8.4l5.9-5.9   l-5.9-5.9v-8.4h-8.4l-5.9-5.9L261.2,331.6z"/>
	<path class="st0" d="M273.4,350.8l3.3-3.3l-3.3-3.3v-4.6h-4.6l-3.3-3.3l-3.3,3.3h-4.6v4.6l-3.3,3.3l3.3,3.3v4.6h4.6l3.3,3.3   l3.3-3.3h4.6V350.8z"/>
	<path class="st0" d="M250.5,383l9.3-35.5h11.2L250.5,383z"/>
	<path class="st0" d="M280.4,383l-9.3-35.5h-11.2L280.4,383z"/>
	<path class="st0" d="M250.5,312l9.3,35.5h11.2L250.5,312z"/>
	<path class="st0" d="M280.4,312l-9.3,35.5h-11.2L280.4,312z"/>
	<path class="st0" d="M230,332.5l35.5,9.3v11.2L230,332.5z"/>
	<path class="st0" d="M230,362.4l35.5-9.3v-11.2L230,362.4z"/>
	<path class="st0" d="M301,332.5l-35.5,9.3v11.2L301,332.5z"/>
	<path class="st0" d="M301,362.4l-35.5-9.3v-11.2L301,362.4z"/>
	<path class="st0" d="M213.7,386.1h-11.2l-7.9,7.9l-7.9-7.9h-11.1v-11.2l-7.9-7.9l7.9-7.9V348h11.1l7.9-7.9l7.9,7.9h11.1v11.1   l7.9,7.9l-7.9,7.9L213.7,386.1z M190.6,351.8l-1.6,1.6h-8v8l-5.7,5.6l5.7,5.7v8h8l5.7,5.7l5.7-5.7h8v-8l5.7-5.7l-5.7-5.7v-8h-8   l-5.7-5.7L190.6,351.8z"/>
	<path class="st0" d="M202.3,370.2l3.1-3.1l-3.1-3.1v-4.5h-4.5l-3.1-3.1l-3.1,3.1h-4.5v4.5l-3.2,3.1l3.1,3.1v4.5h4.5l3.1,3.1   l3.1-3.1h4.5L202.3,370.2z"/>
	<path class="st0" d="M180.3,401.1l9-34.1h10.8L180.3,401.1z"/>
	<path class="st0" d="M209,401.1l-9-34.1h-10.7L209,401.1z"/>
	<path class="st0" d="M180.3,332.9l9,34.1h10.8L180.3,332.9z"/>
	<path class="st0" d="M209,332.9l-9,34.1h-10.7L209,332.9z"/>
	<path class="st0" d="M160.6,352.7l34.1,9v10.8L160.6,352.7z"/>
	<path class="st0" d="M160.6,381.4l34.1-9v-10.7L160.6,381.4z"/>
	<path class="st0" d="M228.8,352.7l-34.1,9v10.8L228.8,352.7z"/>
	<path class="st0" d="M228.8,381.4l-34.1-9v-10.7L228.8,381.4z"/>
	<path class="st0" d="M338.4,388.5h-8.2l-5.8,5.8l-5.8-5.8h-8.2v-8.2l-5.8-5.8l5.8-5.8v-8.2h8.2l5.8-5.8l5.8,5.8h8.2v8.2l5.8,5.8   l-5.8,5.8V388.5z M321.3,363.2l-1.1,1.1h-5.9v5.9l-4.2,4.2l4.2,4.2v5.9h5.9l4.2,4.2l4.2-4.2h5.9v-5.9l4.2-4.2l-4.2-4.2v-5.9h-5.9   l-4.2-4.2L321.3,363.2z"/>
	<path class="st0" d="M329.9,376.8l2.3-2.3l-2.3-2.3v-3.3h-3.3l-2.3-2.3l-2.3,2.3h-3.3v3.3l-2.3,2.3l2.3,2.3v3.3h3.3l2.3,2.3   l2.3-2.3h3.3L329.9,376.8z"/>
	<path class="st0" d="M313.7,399.6l6.6-25.1h7.9L313.7,399.6z"/>
	<path class="st0" d="M334.9,399.6l-6.6-25.1h-7.9L334.9,399.6z"/>
	<path class="st0" d="M313.7,349.3l6.6,25.1h7.9L313.7,349.3z"/>
	<path class="st0" d="M334.9,349.3l-6.6,25.1h-7.9L334.9,349.3z"/>
	<path class="st0" d="M299.2,363.9l25.1,6.6v7.9L299.2,363.9z"/>
	<path class="st0" d="M299.2,385l25.1-6.6v-7.9L299.2,385z"/>
	<path class="st0" d="M349.5,363.9l-25.1,6.6v7.9L349.5,363.9z"/>
	<path class="st0" d="M349.5,385l-25.1-6.6v-7.9L349.5,385z"/>
	<path class="st1" d="M264.1,52.3c63.3,0,114.7,42.8,114.7,95.6s-51.3,95.6-114.7,95.6s-114.7-42.8-114.7-95.6   S200.7,52.3,264.1,52.3z"/>
	<path class="st1" d="M93.2,152.9c25.1,0.2,45.2,20.7,45,45.7s-20.7,45.2-45.7,45c-24.9-0.2-45-20.5-45-45.4   C47.6,173.1,68.1,152.8,93.2,152.9z"/>
	<path class="st1" d="M104.7,189.1h251.9c20,0,36.2,12.2,36.2,27.2s-16.2,27.2-36.2,27.2H104.7c-20,0-36.2-12.2-36.2-27.2   S84.6,189.1,104.7,189.1z"/>
	<path class="st1" d="M168.1,94.6c37.7,0,68.2,30.3,68.2,67.6s-30.5,67.6-68.2,67.6s-68.2-30.3-68.2-67.6S130.4,94.6,168.1,94.6z"/>
	<path class="st1" d="M361.5,108.1c37.7,0,68.2,30.3,68.2,67.6s-30.5,67.6-68.2,67.6s-68.2-30.3-68.2-67.6S323.8,108.1,361.5,108.1z   "/>
	
		<linearGradient id="SVGID_1_" gradientUnits="userSpaceOnUse" x1="269.25" y1="451.18" x2="269.25" y2="261.11" gradientTransform="matrix(1 0 0 -1 0 512)">
		<stop offset="0" style="stop-color:#A5A5A5"/>
		<stop offset="1" style="stop-color:#4F4F50"/>
	</linearGradient>
	<path class="st2" d="M269.2,59.6c63.3,0,114.7,42.8,114.7,95.6s-51.3,95.6-114.7,95.6s-114.7-42.8-114.7-95.6   S205.9,59.6,269.2,59.6z"/>
	
		<linearGradient id="SVGID_2_" gradientUnits="userSpaceOnUse" x1="98.04" y1="451.18" x2="98.04" y2="261.11" gradientTransform="matrix(1 0 0 -1 0 512)">
		<stop offset="0" style="stop-color:#A5A5A5"/>
		<stop offset="1" style="stop-color:#4F4F50"/>
	</linearGradient>
	<path class="st3" d="M98.4,160.2c25.1,0.2,45.2,20.7,45,45.7s-20.7,45.2-45.7,45c-24.9-0.2-45-20.5-45-45.4   C52.8,180.4,73.3,160.1,98.4,160.2z"/>
	
		<linearGradient id="SVGID_3_" gradientUnits="userSpaceOnUse" x1="235.81" y1="451.18" x2="235.81" y2="261.11" gradientTransform="matrix(1 0 0 -1 0 512)">
		<stop offset="0" style="stop-color:#A5A5A5"/>
		<stop offset="1" style="stop-color:#4F4F50"/>
	</linearGradient>
	<path class="st4" d="M109.8,196.4h251.9c20,0,36.2,12.2,36.2,27.2s-16.2,27.2-36.2,27.2H109.8c-20,0-36.2-12.2-36.2-27.2   S89.8,196.4,109.8,196.4z"/>
	
		<linearGradient id="SVGID_4_" gradientUnits="userSpaceOnUse" x1="173.3" y1="451.18" x2="173.3" y2="261.11" gradientTransform="matrix(1 0 0 -1 0 512)">
		<stop offset="0" style="stop-color:#A5A5A5"/>
		<stop offset="1" style="stop-color:#4F4F50"/>
	</linearGradient>
	<path class="st5" d="M173.3,101.9c37.7,0,68.2,30.3,68.2,67.6s-30.5,67.6-68.2,67.6s-68.2-30.3-68.2-67.6S135.6,101.9,173.3,101.9z   "/>
	
		<linearGradient id="SVGID_5_" gradientUnits="userSpaceOnUse" x1="366.68" y1="451.18" x2="366.68" y2="261.11" gradientTransform="matrix(1 0 0 -1 0 512)">
		<stop offset="0" style="stop-color:#A5A5A5"/>
		<stop offset="1" style="stop-color:#4F4F50"/>
	</linearGradient>
	<path class="st6" d="M366.7,115.5c37.7,0,68.2,30.3,68.2,67.6s-30.5,67.6-68.2,67.6s-68.2-30.3-68.2-67.6S329,115.5,366.7,115.5z"/>
	
		<radialGradient id="SVGID_6_" cx="322.66" cy="136.2132" r="165.23" gradientTransform="matrix(1 0 0 -0.94 0 371.2)" gradientUnits="userSpaceOnUse">
		<stop offset="0.37" style="stop-color:#292929"/>
		<stop offset="0.64" style="stop-color:#343434;stop-opacity:0.94"/>
		<stop offset="0.79" style="stop-color:#585858;stop-opacity:0.75"/>
		<stop offset="0.91" style="stop-color:#959595;stop-opacity:0.42"/>
		<stop offset="1" style="stop-color:#E3E3E3;stop-opacity:0"/>
	</radialGradient>
	<path class="st7" d="M320,112.3c53.4,0,96.7,35.4,96.7,79s-43.3,79-96.7,79s-96.7-35.4-96.7-79S266.5,112.3,320,112.3z"/>
	
		<radialGradient id="SVGID_7_" cx="322.66" cy="136.2132" r="165.23" gradientTransform="matrix(1 0 0 -0.94 0 371.2)" gradientUnits="userSpaceOnUse">
		<stop offset="0.37" style="stop-color:#292929"/>
		<stop offset="0.64" style="stop-color:#343434;stop-opacity:0.94"/>
		<stop offset="0.79" style="stop-color:#585858;stop-opacity:0.75"/>
		<stop offset="0.91" style="stop-color:#959595;stop-opacity:0.42"/>
		<stop offset="1" style="stop-color:#E3E3E3;stop-opacity:0"/>
	</radialGradient>
	<path class="st8" d="M175.8,195.5c21.3,0,38.6,16.8,38.6,37.5s-17.3,37.5-38.6,37.5s-38.6-16.8-38.6-37.5S154.5,195.5,175.8,195.5z   "/>
	
		<radialGradient id="SVGID_8_" cx="322.66" cy="136.2132" r="165.23" gradientTransform="matrix(1 0 0 -0.94 0 371.2)" gradientUnits="userSpaceOnUse">
		<stop offset="0.37" style="stop-color:#292929"/>
		<stop offset="0.64" style="stop-color:#343434;stop-opacity:0.94"/>
		<stop offset="0.79" style="stop-color:#585858;stop-opacity:0.75"/>
		<stop offset="0.91" style="stop-color:#959595;stop-opacity:0.42"/>
		<stop offset="1" style="stop-color:#E3E3E3;stop-opacity:0"/>
	</radialGradient>
	<path class="st9" d="M185.5,225.4H398c16.9,0,30.6,10.1,30.6,22.5s-13.7,22.5-30.6,22.5H185.5c-16.9,0-30.6-10.1-30.6-22.5   S168.6,225.4,185.5,225.4z"/>
	
		<radialGradient id="SVGID_9_" cx="322.66" cy="136.2132" r="165.23" gradientTransform="matrix(1 0 0 -0.94 0 371.2)" gradientUnits="userSpaceOnUse">
		<stop offset="0.37" style="stop-color:#292929"/>
		<stop offset="0.64" style="stop-color:#343434;stop-opacity:0.94"/>
		<stop offset="0.79" style="stop-color:#585858;stop-opacity:0.75"/>
		<stop offset="0.91" style="stop-color:#959595;stop-opacity:0.42"/>
		<stop offset="1" style="stop-color:#E3E3E3;stop-opacity:0"/>
	</radialGradient>
	<path class="st10" d="M239,147.3c31.8,0,57.5,25,57.5,55.9s-25.8,55.9-57.5,55.9s-57.5-25-57.5-55.9S207.2,147.3,239,147.3z"/>
	
		<radialGradient id="SVGID_10_" cx="319.13" cy="128.48" r="186.93" gradientTransform="matrix(1 0 0 -1 0 512)" gradientUnits="userSpaceOnUse">
		<stop offset="0.37" style="stop-color:#292929"/>
		<stop offset="0.64" style="stop-color:#343434;stop-opacity:0.94"/>
		<stop offset="0.79" style="stop-color:#585858;stop-opacity:0.75"/>
		<stop offset="0.91" style="stop-color:#959595;stop-opacity:0.42"/>
		<stop offset="1" style="stop-color:#E3E3E3;stop-opacity:0"/>
	</radialGradient>
	<path class="st11" d="M404.2,164.4c30.1,0,54.6,23.7,54.6,53s-24.4,53-54.6,53s-54.6-23.7-54.6-53S374,164.4,404.2,164.4z"/>
	<path class="st1" d="M329.5,119.7c48.7,0,88.1,32.9,88.1,73.4s-39.4,73.4-88.1,73.4s-88.1-32.9-88.1-73.4S280.8,119.7,329.5,119.7z   "/>
	<path class="st1" d="M198.2,197.1c19.2,0.2,34.7,15.9,34.6,35.1c-0.2,19.2-15.9,34.7-35.1,34.6c-19.1-0.2-34.6-15.7-34.6-34.8   C163.2,212.6,178.9,197,198.2,197.1z"/>
	<path class="st1" d="M207,224.9h193.6c15.4,0,27.8,9.4,27.8,20.9s-12.4,20.9-27.8,20.9H207c-15.4,0-27.8-9.4-27.8-20.9   S191.6,224.9,207,224.9z"/>
	<path class="st1" d="M255.8,152.3c28.9,0,52.4,23.3,52.4,52s-23.5,52-52.4,52s-52.4-23.3-52.4-52S226.8,152.3,255.8,152.3z"/>
	<path class="st1" d="M404.4,162.7c28.9,0,52.4,23.3,52.4,52s-23.5,52-52.4,52s-52.4-23.3-52.4-52S375.4,162.7,404.4,162.7z"/>
	
		<linearGradient id="SVGID_11_" gradientUnits="userSpaceOnUse" x1="333.48" y1="385.68" x2="333.48" y2="239.63" gradientTransform="matrix(1 0 0 -1 0 512)">
		<stop offset="0" style="stop-color:#A5A5A5"/>
		<stop offset="1" style="stop-color:#4F4F50"/>
	</linearGradient>
	<path class="st12" d="M333.5,125.4c48.7,0,88.1,32.9,88.1,73.4s-39.4,73.4-88.1,73.4s-88.1-32.9-88.1-73.4S284.8,125.4,333.5,125.4   z"/>
	
		<linearGradient id="SVGID_12_" gradientUnits="userSpaceOnUse" x1="201.92" y1="385.68" x2="201.92" y2="239.63" gradientTransform="matrix(1 0 0 -1 0 512)">
		<stop offset="0" style="stop-color:#A5A5A5"/>
		<stop offset="1" style="stop-color:#4F4F50"/>
	</linearGradient>
	<path class="st13" d="M202.2,202.7c19.2,0.2,34.7,15.9,34.6,35.1c-0.2,19.2-15.9,34.7-35.1,34.6c-19.1-0.2-34.6-15.7-34.6-34.8   C167.2,218.2,182.9,202.6,202.2,202.7z"/>
	
		<linearGradient id="SVGID_13_" gradientUnits="userSpaceOnUse" x1="307.785" y1="385.68" x2="307.785" y2="239.63" gradientTransform="matrix(1 0 0 -1 0 512)">
		<stop offset="0" style="stop-color:#A5A5A5"/>
		<stop offset="1" style="stop-color:#4F4F50"/>
	</linearGradient>
	<path class="st14" d="M211,230.5h193.6c15.4,0,27.8,9.4,27.8,20.9c0,11.6-12.4,20.9-27.8,20.9H211c-15.4,0-27.8-9.4-27.8-20.9   S195.6,230.5,211,230.5z"/>
	
		<linearGradient id="SVGID_14_" gradientUnits="userSpaceOnUse" x1="259.75" y1="385.68" x2="259.75" y2="239.63" gradientTransform="matrix(1 0 0 -1 0 512)">
		<stop offset="0" style="stop-color:#A5A5A5"/>
		<stop offset="1" style="stop-color:#4F4F50"/>
	</linearGradient>
	<path class="st15" d="M259.8,157.9c28.9,0,52.4,23.3,52.4,52s-23.5,52-52.4,52s-52.4-23.3-52.4-52S230.8,157.9,259.8,157.9z"/>
	
		<linearGradient id="SVGID_15_" gradientUnits="userSpaceOnUse" x1="408.34" y1="385.68" x2="408.34" y2="239.63" gradientTransform="matrix(1 0 0 -1 0 512)">
		<stop offset="0" style="stop-color:#A5A5A5"/>
		<stop offset="1" style="stop-color:#4F4F50"/>
	</linearGradient>
	<path class="st16" d="M408.3,168.3c28.9,0,52.4,23.3,52.4,52s-23.5,52-52.4,52s-52.4-23.3-52.4-52S379.4,168.3,408.3,168.3z"/>
	
		<radialGradient id="SVGID_16_" cx="176.73" cy="116.78" r="120.44" gradientTransform="matrix(1 0 0 -1 0 512)" gradientUnits="userSpaceOnUse">
		<stop offset="0.37" style="stop-color:#292929"/>
		<stop offset="0.64" style="stop-color:#343434;stop-opacity:0.94"/>
		<stop offset="0.79" style="stop-color:#585858;stop-opacity:0.75"/>
		<stop offset="0.91" style="stop-color:#959595;stop-opacity:0.42"/>
		<stop offset="1" style="stop-color:#E3E3E3;stop-opacity:0"/>
	</radialGradient>
	<path class="st17" d="M174.8,155.2c38.9,0,70.5,25.8,70.5,57.6s-31.6,57.6-70.5,57.6s-70.5-25.8-70.5-57.6S135.8,155.2,174.8,155.2   z"/>
	
		<radialGradient id="SVGID_17_" cx="176.73" cy="116.78" r="120.44" gradientTransform="matrix(1 0 0 -1 0 512)" gradientUnits="userSpaceOnUse">
		<stop offset="0.37" style="stop-color:#292929"/>
		<stop offset="0.64" style="stop-color:#343434;stop-opacity:0.94"/>
		<stop offset="0.79" style="stop-color:#585858;stop-opacity:0.75"/>
		<stop offset="0.91" style="stop-color:#959595;stop-opacity:0.42"/>
		<stop offset="1" style="stop-color:#E3E3E3;stop-opacity:0"/>
	</radialGradient>
	<path class="st18" d="M69.7,215.8c15.5,0,28.1,12.2,28.1,27.3c0,15.1-12.6,27.3-28.1,27.3s-28.1-12.2-28.1-27.3   S54.2,215.8,69.7,215.8z"/>
	
		<radialGradient id="SVGID_18_" cx="176.73" cy="116.78" r="120.44" gradientTransform="matrix(1 0 0 -1 0 512)" gradientUnits="userSpaceOnUse">
		<stop offset="0.37" style="stop-color:#292929"/>
		<stop offset="0.64" style="stop-color:#343434;stop-opacity:0.94"/>
		<stop offset="0.79" style="stop-color:#585858;stop-opacity:0.75"/>
		<stop offset="0.91" style="stop-color:#959595;stop-opacity:0.42"/>
		<stop offset="1" style="stop-color:#E3E3E3;stop-opacity:0"/>
	</radialGradient>
	<path class="st19" d="M76.7,237.6h154.9c12.3,0,22.3,7.3,22.3,16.4s-10,16.4-22.3,16.4H76.7c-12.3,0-22.3-7.3-22.3-16.4   S64.4,237.6,76.7,237.6z"/>
	
		<radialGradient id="SVGID_19_" cx="176.73" cy="116.78" r="120.44" gradientTransform="matrix(1 0 0 -1 0 512)" gradientUnits="userSpaceOnUse">
		<stop offset="0.37" style="stop-color:#292929"/>
		<stop offset="0.64" style="stop-color:#343434;stop-opacity:0.94"/>
		<stop offset="0.79" style="stop-color:#585858;stop-opacity:0.75"/>
		<stop offset="0.91" style="stop-color:#959595;stop-opacity:0.42"/>
		<stop offset="1" style="stop-color:#E3E3E3;stop-opacity:0"/>
	</radialGradient>
	<path class="st20" d="M115.7,180.7c23.2,0,41.9,18.2,41.9,40.7s-18.8,40.7-41.9,40.7S73.8,244,73.8,221.5S92.6,180.7,115.7,180.7z"/>
	
		<radialGradient id="SVGID_20_" cx="174.15" cy="119.56" r="136.26" gradientTransform="matrix(1 0 0 -1 0 512)" gradientUnits="userSpaceOnUse">
		<stop offset="0.37" style="stop-color:#292929"/>
		<stop offset="0.64" style="stop-color:#343434;stop-opacity:0.94"/>
		<stop offset="0.79" style="stop-color:#585858;stop-opacity:0.75"/>
		<stop offset="0.91" style="stop-color:#959595;stop-opacity:0.42"/>
		<stop offset="1" style="stop-color:#E3E3E3;stop-opacity:0"/>
	</radialGradient>
	<path class="st21" d="M236.1,193.2c22,0,39.8,17.3,39.8,38.7s-17.8,38.6-39.8,38.6s-39.8-17.3-39.8-38.6S214.2,193.2,236.1,193.2z"/>
	<path class="st1" d="M162.7,160c35.8,0,64.9,24.2,64.9,54.1s-29.1,54.1-64.9,54.1S97.8,244,97.8,214.1S126.8,160,162.7,160z"/>
	<path class="st1" d="M66,217c14.2,0.1,25.6,11.7,25.5,25.9c-0.1,14.2-11.7,25.6-25.9,25.5c-14.1-0.1-25.5-11.6-25.5-25.7   C40.2,228.4,51.8,216.9,66,217z"/>
	<path class="st1" d="M72.5,237.5h142.6c11.3,0,20.5,6.9,20.5,15.4c0,8.5-9.2,15.4-20.5,15.4H72.5c-11.3,0-20.5-6.9-20.5-15.4   S61.1,237.5,72.5,237.5z"/>
	<path class="st1" d="M108.4,184c21.1,0.2,38.1,17.5,38,38.6c-0.2,21.1-17.5,38.1-38.6,38c-21-0.2-38-17.3-38-38.3   C69.9,201.1,87.1,183.9,108.4,184C108.4,184,108.4,184,108.4,184z"/>
	<path class="st1" d="M217.9,191.7c21.1,0.2,38.1,17.5,38,38.6c-0.2,21.1-17.5,38.1-38.6,38c-21-0.2-38-17.2-38-38.2   C179.3,208.8,196.6,191.6,217.9,191.7C217.8,191.7,217.8,191.7,217.9,191.7z"/>
	
		<linearGradient id="SVGID_21_" gradientUnits="userSpaceOnUse" x1="165.64" y1="347.12" x2="165.64" y2="239.51" gradientTransform="matrix(1 0 0 -1 0 512)">
		<stop offset="0" style="stop-color:#A5A5A5"/>
		<stop offset="1" style="stop-color:#4F4F50"/>
	</linearGradient>
	<path class="st22" d="M165.6,164.2c35.8,0,64.9,24.2,64.9,54.1s-29.1,54.1-64.9,54.1s-64.9-24.2-64.9-54.1S129.8,164.2,165.6,164.2   z"/>
	
		<linearGradient id="SVGID_22_" gradientUnits="userSpaceOnUse" x1="68.68" y1="347.12" x2="68.68" y2="239.51" gradientTransform="matrix(1 0 0 -1 0 512)">
		<stop offset="0" style="stop-color:#A5A5A5"/>
		<stop offset="1" style="stop-color:#4F4F50"/>
	</linearGradient>
	<path class="st23" d="M68.9,221.1c14.2,0.1,25.6,11.7,25.4,25.9c-0.1,14.2-11.7,25.6-25.9,25.4C54.4,272.4,43,260.9,43,246.8   C43.1,232.6,54.7,221.1,68.9,221.1C68.9,221.1,68.9,221.1,68.9,221.1z"/>
	
		<linearGradient id="SVGID_23_" gradientUnits="userSpaceOnUse" x1="146.695" y1="347.12" x2="146.695" y2="239.51" gradientTransform="matrix(1 0 0 -1 0 512)">
		<stop offset="0" style="stop-color:#A5A5A5"/>
		<stop offset="1" style="stop-color:#4F4F50"/>
	</linearGradient>
	<path class="st24" d="M75.4,241.6H218c11.3,0,20.5,6.9,20.5,15.4c0,8.5-9.2,15.4-20.5,15.4H75.4c-11.3,0-20.5-6.9-20.5-15.4   S64.1,241.6,75.4,241.6z"/>
	
		<linearGradient id="SVGID_24_" gradientUnits="userSpaceOnUse" x1="110.99" y1="347.12" x2="110.99" y2="239.51" gradientTransform="matrix(1 0 0 -1 0 512)">
		<stop offset="0" style="stop-color:#A5A5A5"/>
		<stop offset="1" style="stop-color:#4F4F50"/>
	</linearGradient>
	<path class="st25" d="M111.3,188.1c21.1,0.2,38.1,17.5,38,38.6c-0.2,21.1-17.5,38.1-38.6,38c-21-0.2-38-17.3-38-38.3   C72.8,205.2,90.1,188.1,111.3,188.1C111.3,188.1,111.3,188.1,111.3,188.1z"/>
	
		<linearGradient id="SVGID_25_" gradientUnits="userSpaceOnUse" x1="220.48" y1="347.12" x2="220.48" y2="239.51" gradientTransform="matrix(1 0 0 -1 0 512)">
		<stop offset="0" style="stop-color:#A5A5A5"/>
		<stop offset="1" style="stop-color:#4F4F50"/>
	</linearGradient>
	<path class="st26" d="M220.8,195.8c21.1,0.2,38.1,17.5,38,38.6s-17.5,38.1-38.6,38c-21-0.2-38-17.3-38-38.3   C182.3,212.9,199.6,195.7,220.8,195.8C220.8,195.8,220.8,195.8,220.8,195.8z"/>
</g>
</svg>