<?xml version="1.0" encoding="UTF-8"?>
<!-- Generator: Adobe Illustrator 21.1.0, SVG Export Plug-In . SVG Version: 6.00 Build 0)  -->
<svg version="1.1" id="Layer_1" xmlns="http://www.w3.org/2000/svg" xmlns:xlink="http://www.w3.org/1999/xlink" x="0px" y="0px" viewBox="0 0 512.8 512.2" style="enable-background:new 0 0 512.8 512.2;" xml:space="preserve">
<style type="text/css">
	.st0{fill:#EDEDED;}
	.st1{fill:url(#SVGID_1_);}
	.st2{fill:url(#SVGID_2_);}
	.st3{fill:url(#SVGID_3_);}
	.st4{fill:url(#SVGID_4_);}
	.st5{fill:url(#SVGID_5_);}
	.st6{fill:url(#SVGID_6_);}
	.st7{fill:url(#SVGID_7_);}
	.st8{fill:url(#SVGID_8_);}
	.st9{fill:url(#SVGID_9_);}
	.st10{fill:url(#SVGID_10_);}
	.st11{fill:#FFFFFF;}
	.st12{fill:url(#SVGID_11_);}
	.st13{fill:url(#SVGID_12_);}
	.st14{fill:url(#SVGID_13_);}
	.st15{fill:url(#SVGID_14_);}
	.st16{fill:url(#SVGID_15_);}
	.st17{fill:url(#SVGID_16_);}
	.st18{fill:url(#SVGID_17_);}
	.st19{fill:url(#SVGID_18_);}
	.st20{fill:url(#SVGID_19_);}
	.st21{fill:url(#SVGID_20_);}
	.st22{fill:url(#SVGID_21_);}
	.st23{fill:url(#SVGID_22_);}
	.st24{fill:url(#SVGID_23_);}
	.st25{fill:url(#SVGID_24_);}
	.st26{fill:url(#SVGID_25_);}
	.st27{fill:url(#SVGID_26_);}
</style>
<g id="storm_strong">
	<path d="M334.2,153.6c0,55.8-47.4,101-105.8,101s-105.8-45.2-105.8-101s47.4-101,105.8-101S334.2,97.8,334.2,153.6z"/>
	<path d="M428.2,206.9c0,26.5-18.9,47.9-42.2,47.9s-42.2-21.5-42.2-47.9s18.9-47.9,42.2-47.9S428.2,180.4,428.2,206.9z"/>
	<path d="M408.9,225.9c0,15.9-15,28.8-33.4,28.8H143c-18.5,0-33.4-12.9-33.4-28.8s15-28.8,33.4-28.8h232.5   C393.9,197.2,408.9,210.1,408.9,225.9z"/>
	<path d="M379.8,168.8c0,39.5-28.2,71.5-62.9,71.5s-62.9-32-62.9-71.5s28.2-71.5,62.9-71.5S379.8,129.4,379.8,168.8z"/>
	<path d="M201.4,183.1c0,39.5-28.2,71.5-62.9,71.5s-62.9-32-62.9-71.5s28.2-71.5,62.9-71.5S201.4,143.6,201.4,183.1z"/>
	<path d="M340.7,161.3c0,55.8-47.4,101-105.8,101s-105.8-45.2-105.8-101s47.4-101,105.8-101S340.7,105.5,340.7,161.3z"/>
	<path d="M434.8,214.6c0,26.5-18.9,47.9-42.2,47.9s-42.2-21.5-42.2-47.9s18.9-47.9,42.2-47.9S434.8,188.1,434.8,214.6z"/>
	<path d="M415.5,233.7c0,15.9-15,28.8-33.4,28.8H149.5c-18.5,0-33.4-12.9-33.4-28.8s15-28.8,33.4-28.8H382   C400.5,204.9,415.5,217.8,415.5,233.7z"/>
	<path d="M386.4,176.5c0,39.5-28.2,71.5-62.9,71.5s-62.9-32-62.9-71.5s28.2-71.5,62.9-71.5S386.4,137.1,386.4,176.5z"/>
	<path d="M207.9,190.8c0,39.5-28.2,71.5-62.9,71.5s-62.9-32-62.9-71.5s28.2-71.5,62.9-71.5S207.9,151.4,207.9,190.8z"/>
	<path d="M174.6,154.3c34.5,0,62.4,23.5,62.4,52.5s-27.9,52.5-62.4,52.5s-62.4-23.5-62.4-52.5S140.1,154.3,174.6,154.3z"/>
	<path d="M81.6,209.5c13.8,0,24.9,11.1,24.9,24.9c0,13.8-11.1,24.9-24.9,24.9s-24.9-11.1-24.9-24.9l0,0   C56.7,220.7,67.8,209.5,81.6,209.5z"/>
	<path d="M87.8,229.4H225c10.9,0,19.7,6.7,19.7,14.9s-8.8,14.9-19.7,14.9H87.8c-10.9,0-19.7-6.7-19.7-14.9S76.9,229.4,87.8,229.4z"/>
	<path d="M122.3,177.5c20.5,0,37.1,16.6,37.1,37.1s-16.6,37.1-37.1,37.1s-37.1-16.6-37.1-37.1l0,0   C85.2,194.1,101.8,177.5,122.3,177.5z"/>
	<path d="M227.6,185c20.5,0,37.1,16.6,37.1,37.1s-16.6,37.1-37.1,37.1s-37.1-16.6-37.1-37.1l0,0C190.5,201.6,207.1,185,227.6,185z"/>
	<path d="M177.4,158.3c34.5,0,62.4,23.5,62.4,52.5s-27.9,52.5-62.4,52.5S115,239.7,115,210.8S142.9,158.3,177.4,158.3z"/>
	<path d="M84.4,213.5c13.8,0,24.9,11.1,24.9,24.9c0,13.8-11.1,24.9-24.9,24.9s-24.9-11.1-24.9-24.9l0,0   C59.5,224.7,70.6,213.5,84.4,213.5z"/>
	<path d="M90.6,233.4h137.1c10.9,0,19.7,6.7,19.7,14.9s-8.8,14.9-19.7,14.9H90.6c-10.9,0-19.7-6.7-19.7-14.9S79.7,233.4,90.6,233.4z   "/>
	<path d="M125.2,181.5c20.5,0,37.1,16.7,37.1,37.2c0,20.5-16.7,37.1-37.2,37.1c-20.5,0-37.1-16.6-37.1-37.1   C88,198.2,104.6,181.5,125.2,181.5C125.1,181.5,125.2,181.5,125.2,181.5z"/>
	<path d="M230.4,189c20.5,0,37.1,16.6,37.1,37.1s-16.6,37.1-37.1,37.1s-37.1-16.6-37.1-37.1l0,0C193.3,205.6,209.9,189,230.4,189z"/>
	<path d="M235.6,248.8l-20,59.9h40l-20,89.9l79.9-104.8h-35l25-44.9"/>
	<path d="M240.5,244.8l-20,59.9h40l-20,89.9l79.9-104.8h-35l25-44.9"/>
	<path d="M347.5,108.7c48.9,0,88.6,33.3,88.6,74.5s-39.7,74.5-88.6,74.5s-88.6-33.3-88.6-74.5S298.6,108.7,347.5,108.7z"/>
	<path d="M215.5,187.1c19.5,0,35.3,15.8,35.3,35.3s-15.8,35.3-35.3,35.3s-35.3-15.8-35.3-35.3l0,0   C180.1,202.9,196,187.1,215.5,187.1z"/>
	<path d="M224.3,215.3H419c15.5,0,28,9.5,28,21.2s-12.5,21.2-28,21.2H224.3c-15.5,0-28-9.5-28-21.2S208.9,215.3,224.3,215.3z"/>
	<path d="M273.3,141.6c29.1,0,52.7,23.6,52.7,52.7S302.4,247,273.3,247s-52.7-23.6-52.7-52.7S244.2,141.6,273.3,141.6L273.3,141.6z"/>
	<path d="M422.8,152.2c29.1,0,52.7,23.6,52.7,52.7s-23.6,52.7-52.7,52.7s-52.7-23.6-52.7-52.7S393.7,152.2,422.8,152.2L422.8,152.2z   "/>
	<path d="M351.5,114.3c48.9,0,88.6,33.3,88.6,74.5s-39.7,74.5-88.6,74.5s-88.6-33.3-88.6-74.5S302.6,114.3,351.5,114.3z"/>
	<path d="M219.5,192.8c19.5,0,35.3,15.8,35.3,35.3s-15.8,35.3-35.3,35.3s-35.3-15.8-35.3-35.3l0,0   C184.1,208.6,200,192.8,219.5,192.8z"/>
	<path d="M228.3,221H423c15.5,0,28,9.5,28,21.2s-12.5,21.2-28,21.2H228.3c-15.5,0-28-9.5-28-21.2S212.9,221,228.3,221z"/>
	<path d="M277.4,147.4c29.1,0,52.7,23.6,52.7,52.7c0,29.1-23.6,52.7-52.7,52.7c-29.1,0-52.7-23.6-52.7-52.7c0,0,0,0,0,0   C224.7,170.9,248.3,147.3,277.4,147.4z"/>
	<path d="M426.8,157.9c29.1,0,52.7,23.6,52.7,52.7s-23.6,52.7-52.7,52.7s-52.7-23.6-52.7-52.7S397.7,157.9,426.8,157.9L426.8,157.9z   "/>
	<path d="M116.3,329c-26.7-4.5,11.9-57.6,11.9-57.6C128.8,273.6,132.2,331.7,116.3,329z"/>
	<path d="M153,329c-26.7-4.5,12-57.6,12-57.6C165.6,273.6,168.9,331.7,153,329z"/>
	<path d="M188,329c-26.7-4.5,11.9-57.6,11.9-57.6C200.5,273.6,203.9,331.7,188,329z"/>
	<path d="M331.7,329c-26.7-4.5,11.9-57.6,11.9-57.6C344.2,273.6,347.6,331.7,331.7,329z"/>
	<path d="M368.4,329c-26.7-4.5,11.9-57.6,11.9-57.6C381,273.6,384.3,331.7,368.4,329z"/>
	<path d="M403.4,329c-26.7-4.5,11.9-57.6,11.9-57.6C415.9,273.6,419.3,331.7,403.4,329z"/>
	<path d="M158,387.2c-26.7-4.5,12-57.7,12-57.7C170.6,331.8,173.9,389.9,158,387.2z"/>
	<path d="M88.1,387.2c-26.7-4.5,11.9-57.6,11.9-57.6C100.7,331.8,104,389.9,88.1,387.2z"/>
	<path d="M371.2,387.2c-26.7-4.5,11.9-57.6,11.9-57.6C383.7,331.8,387.1,389.9,371.2,387.2z"/>
	<path d="M301.3,387.2c-26.7-4.5,11.9-57.6,11.9-57.6C313.8,331.8,317.2,389.9,301.3,387.2z"/>
	<path class="st0" d="M320.9,154.6c0,55.8-47.4,101-105.8,101s-105.8-45.2-105.8-101s47.4-101,105.8-101S320.9,98.8,320.9,154.6z"/>
	<path class="st0" d="M415,207.8c0,26.5-18.9,47.9-42.2,47.9s-42.2-21.5-42.2-47.9s18.9-47.9,42.2-47.9S415,181.4,415,207.8z"/>
	<path class="st0" d="M395.7,226.9c0,15.9-15,28.8-33.4,28.8H129.7c-18.5,0-33.4-12.9-33.4-28.8s15-28.8,33.4-28.8h232.5   C380.7,198.1,395.7,211,395.7,226.9z"/>
	<path class="st0" d="M366.6,169.8c0,39.5-28.2,71.5-62.9,71.5s-62.9-32-62.9-71.5s28.2-71.5,62.9-71.5S366.6,130.3,366.6,169.8z"/>
	<path class="st0" d="M188.1,184.1c0,39.5-28.2,71.5-62.9,71.5s-62.9-32-62.9-71.5s28.2-71.5,62.9-71.5S188.1,144.6,188.1,184.1z"/>
	
		<linearGradient id="SVGID_1_" gradientUnits="userSpaceOnUse" x1="-862.72" y1="449.39" x2="-862.72" y2="248.55" gradientTransform="matrix(-1 0 0 -1 -641.05 512)">
		<stop offset="0" style="stop-color:#A5A5A5"/>
		<stop offset="0.99" style="stop-color:#4F4F50"/>
	</linearGradient>
	<path class="st1" d="M327.5,162.3c0,55.8-47.4,101-105.8,101s-105.8-45.3-105.8-101s47.4-101,105.8-101S327.5,106.5,327.5,162.3z"/>
	
		<linearGradient id="SVGID_2_" gradientUnits="userSpaceOnUse" x1="-1020.3799" y1="449.39" x2="-1020.3799" y2="248.55" gradientTransform="matrix(-1 0 0 -1 -641.05 512)">
		<stop offset="0" style="stop-color:#A5A5A5"/>
		<stop offset="0.99" style="stop-color:#4F4F50"/>
	</linearGradient>
	<path class="st2" d="M421.5,215.6c0,26.5-18.9,47.9-42.2,47.9s-42.2-21.5-42.2-47.9s18.9-47.9,42.2-47.9S421.5,189.1,421.5,215.6z"/>
	
		<linearGradient id="SVGID_3_" gradientUnits="userSpaceOnUse" x1="-893.58" y1="449.39" x2="-893.58" y2="248.55" gradientTransform="matrix(-1 0 0 -1 -641.05 512)">
		<stop offset="0" style="stop-color:#A5A5A5"/>
		<stop offset="0.99" style="stop-color:#4F4F50"/>
	</linearGradient>
	<path class="st3" d="M402.2,234.6c0,15.9-15,28.8-33.4,28.8H136.3c-18.5,0-33.4-12.9-33.4-28.8s15-28.8,33.4-28.8h232.5   C387.2,205.9,402.2,218.8,402.2,234.6z"/>
	
		<linearGradient id="SVGID_4_" gradientUnits="userSpaceOnUse" x1="-951.27" y1="449.39" x2="-951.27" y2="248.55" gradientTransform="matrix(-1 0 0 -1 -641.05 512)">
		<stop offset="0" style="stop-color:#A5A5A5"/>
		<stop offset="0.99" style="stop-color:#4F4F50"/>
	</linearGradient>
	<path class="st4" d="M373.1,177.5c0,39.5-28.1,71.5-62.9,71.5s-62.9-32-62.9-71.5s28.2-71.5,62.9-71.5S373.1,138,373.1,177.5z"/>
	
		<linearGradient id="SVGID_5_" gradientUnits="userSpaceOnUse" x1="-772.81" y1="449.39" x2="-772.81" y2="248.55" gradientTransform="matrix(-1 0 0 -1 -641.05 512)">
		<stop offset="0" style="stop-color:#A5A5A5"/>
		<stop offset="0.99" style="stop-color:#4F4F50"/>
	</linearGradient>
	<path class="st5" d="M194.7,191.8c0,39.5-28.2,71.5-62.9,71.5s-62.9-32-62.9-71.5s28.2-71.5,62.9-71.5S194.7,152.3,194.7,191.8z"/>
	<path class="st0" d="M161.3,155.2c34.5,0,62.4,23.5,62.4,52.5s-27.9,52.5-62.4,52.5s-62.4-23.5-62.4-52.5S126.9,155.2,161.3,155.2z   "/>
	<path class="st0" d="M68.3,210.5c13.8,0,24.9,11.1,24.9,24.9c0,13.8-11.1,24.9-24.9,24.9s-24.9-11.1-24.9-24.9l0,0   C43.4,221.6,54.6,210.5,68.3,210.5z"/>
	<path class="st0" d="M74.6,230.4h137.1c10.9,0,19.7,6.7,19.7,14.9s-8.8,14.9-19.7,14.9H74.6c-10.9,0-19.7-6.7-19.7-14.9   S63.7,230.4,74.6,230.4z"/>
	<path class="st0" d="M109.1,178.5c20.5,0,37.1,16.6,37.1,37.1s-16.6,37.1-37.1,37.1S72,236.2,72,215.6c0,0,0,0,0,0   C72,195.1,88.6,178.5,109.1,178.5z"/>
	<path class="st0" d="M214.4,185.9c20.5,0,37.1,16.6,37.1,37.1s-16.6,37.1-37.1,37.1c-20.5,0-37.1-16.6-37.1-37.1c0,0,0,0,0,0   C177.3,202.5,193.9,185.9,214.4,185.9z"/>
	
		<linearGradient id="SVGID_6_" gradientUnits="userSpaceOnUse" x1="164.16" y1="352.06" x2="164.16" y2="247.72" gradientTransform="matrix(1 0 0 -1 0 512)">
		<stop offset="0" style="stop-color:#A5A5A5"/>
		<stop offset="0.99" style="stop-color:#4F4F50"/>
	</linearGradient>
	<path class="st6" d="M164.2,159.3c34.5,0,62.4,23.5,62.4,52.5s-27.9,52.5-62.4,52.5s-62.4-23.5-62.4-52.5S129.7,159.3,164.2,159.3z   "/>
	
		<linearGradient id="SVGID_7_" gradientUnits="userSpaceOnUse" x1="71.15" y1="352.06" x2="71.15" y2="247.72" gradientTransform="matrix(1 0 0 -1 0 512)">
		<stop offset="0" style="stop-color:#A5A5A5"/>
		<stop offset="0.99" style="stop-color:#4F4F50"/>
	</linearGradient>
	<path class="st7" d="M71.2,214.5c13.8,0,24.9,11.1,24.9,24.9c0,13.8-11.1,24.9-24.9,24.9s-24.9-11.1-24.9-24.9l0,0   C46.3,225.6,57.4,214.5,71.2,214.5z"/>
	
		<linearGradient id="SVGID_8_" gradientUnits="userSpaceOnUse" x1="145.955" y1="352.06" x2="145.955" y2="247.72" gradientTransform="matrix(1 0 0 -1 0 512)">
		<stop offset="0" style="stop-color:#A5A5A5"/>
		<stop offset="0.99" style="stop-color:#4F4F50"/>
	</linearGradient>
	<path class="st8" d="M77.4,234.4h137.1c10.9,0,19.7,6.7,19.7,14.9s-8.8,14.9-19.7,14.9H77.4c-10.9,0-19.7-6.7-19.7-14.9   S66.5,234.4,77.4,234.4z"/>
	
		<linearGradient id="SVGID_9_" gradientUnits="userSpaceOnUse" x1="111.92" y1="352.06" x2="111.92" y2="247.72" gradientTransform="matrix(1 0 0 -1 0 512)">
		<stop offset="0" style="stop-color:#A5A5A5"/>
		<stop offset="0.99" style="stop-color:#4F4F50"/>
	</linearGradient>
	<path class="st9" d="M111.9,182.5c20.5,0,37.1,16.6,37.1,37.1s-16.6,37.1-37.1,37.1s-37.1-16.6-37.1-37.1S91.4,182.5,111.9,182.5   L111.9,182.5z"/>
	
		<linearGradient id="SVGID_10_" gradientUnits="userSpaceOnUse" x1="217.2" y1="352.06" x2="217.2" y2="247.72" gradientTransform="matrix(1 0 0 -1 0 512)">
		<stop offset="0" style="stop-color:#A5A5A5"/>
		<stop offset="0.99" style="stop-color:#4F4F50"/>
	</linearGradient>
	<path class="st10" d="M217.2,189.9c20.5,0,37.1,16.6,37.1,37.1s-16.6,37.1-37.1,37.1s-37.1-16.6-37.1-37.1l0,0   C180.1,206.5,196.7,189.9,217.2,189.9z"/>
	<path class="st11" d="M222.3,249.8l-20,59.9h40l-20,89.9l79.9-104.8h-35l25-44.9"/>
	
		<radialGradient id="SVGID_11_" cx="257.77" cy="206.52" r="79.56" gradientTransform="matrix(1 0 0 -1 0 512)" gradientUnits="userSpaceOnUse">
		<stop offset="0" style="stop-color:#FFA800"/>
		<stop offset="1" style="stop-color:#FFE109"/>
	</radialGradient>
	<path class="st12" d="M227.2,245.8l-20,59.9h40l-20,89.9l79.9-104.8h-35l25-44.9"/>
	<path class="st0" d="M334.2,109.6c48.9,0,88.6,33.3,88.6,74.5s-39.7,74.5-88.6,74.5s-88.6-33.3-88.6-74.5S285.3,109.6,334.2,109.6z   "/>
	<path class="st0" d="M202.2,188c19.5,0,35.3,15.8,35.3,35.3s-15.8,35.3-35.3,35.3s-35.3-15.8-35.3-35.3l0,0   C166.9,203.8,182.7,188,202.2,188z"/>
	<path class="st0" d="M211.1,216.2h194.7c15.5,0,28,9.5,28,21.2s-12.5,21.2-28,21.2H211.1c-15.5,0-28-9.5-28-21.2   S195.6,216.2,211.1,216.2z"/>
	<path class="st0" d="M260.1,142.6c29.1,0,52.7,23.6,52.7,52.7S289.2,248,260.1,248s-52.7-23.6-52.7-52.7S231,142.6,260.1,142.6   L260.1,142.6z"/>
	<path class="st0" d="M409.5,153.2c29.1,0,52.7,23.6,52.7,52.7s-23.6,52.7-52.7,52.7s-52.7-23.6-52.7-52.7S380.4,153.2,409.5,153.2   L409.5,153.2z"/>
	
		<linearGradient id="SVGID_12_" gradientUnits="userSpaceOnUse" x1="338.24" y1="395.71" x2="338.24" y2="247.63" gradientTransform="matrix(1 0 0 -1 0 512)">
		<stop offset="0" style="stop-color:#A5A5A5"/>
		<stop offset="0.99" style="stop-color:#4F4F50"/>
	</linearGradient>
	<path class="st13" d="M338.2,115.3c48.9,0,88.6,33.3,88.6,74.5s-39.7,74.5-88.6,74.5s-88.6-33.3-88.6-74.5S289.3,115.3,338.2,115.3   z"/>
	
		<linearGradient id="SVGID_13_" gradientUnits="userSpaceOnUse" x1="206.24" y1="395.71" x2="206.24" y2="247.63" gradientTransform="matrix(1 0 0 -1 0 512)">
		<stop offset="0" style="stop-color:#A5A5A5"/>
		<stop offset="0.99" style="stop-color:#4F4F50"/>
	</linearGradient>
	<path class="st14" d="M206.2,193.7c19.5,0,35.3,15.8,35.3,35.3s-15.8,35.3-35.3,35.3s-35.3-15.8-35.3-35.3l0,0   C170.9,209.5,186.7,193.7,206.2,193.7z"/>
	
		<linearGradient id="SVGID_14_" gradientUnits="userSpaceOnUse" x1="312.4" y1="395.71" x2="312.4" y2="247.63" gradientTransform="matrix(1 0 0 -1 0 512)">
		<stop offset="0" style="stop-color:#A5A5A5"/>
		<stop offset="0.99" style="stop-color:#4F4F50"/>
	</linearGradient>
	<path class="st15" d="M215.1,221.9h194.7c15.5,0,28,9.5,28,21.2s-12.5,21.2-28,21.2H215.1c-15.5,0-28-9.5-28-21.2   S199.6,221.9,215.1,221.9z"/>
	
		<linearGradient id="SVGID_15_" gradientUnits="userSpaceOnUse" x1="264.1" y1="395.71" x2="264.1" y2="247.63" gradientTransform="matrix(1 0 0 -1 0 512)">
		<stop offset="0" style="stop-color:#A5A5A5"/>
		<stop offset="0.99" style="stop-color:#4F4F50"/>
	</linearGradient>
	<path class="st16" d="M264.1,148.3c29.1,0,52.7,23.6,52.7,52.7s-23.6,52.7-52.7,52.7s-52.7-23.6-52.7-52.7c0,0,0,0,0,0   C211.4,171.9,235,148.3,264.1,148.3z"/>
	
		<linearGradient id="SVGID_16_" gradientUnits="userSpaceOnUse" x1="413.52" y1="395.71" x2="413.52" y2="247.63" gradientTransform="matrix(1 0 0 -1 0 512)">
		<stop offset="0" style="stop-color:#A5A5A5"/>
		<stop offset="0.99" style="stop-color:#4F4F50"/>
	</linearGradient>
	<path class="st17" d="M413.5,158.9c29.1,0,52.7,23.6,52.7,52.7s-23.6,52.7-52.7,52.7s-52.7-23.6-52.7-52.7S384.4,158.9,413.5,158.9   L413.5,158.9z"/>
	
		<linearGradient id="SVGID_17_" gradientUnits="userSpaceOnUse" x1="86.6681" y1="223.1968" x2="121.1481" y2="203.2868" gradientTransform="matrix(1 0 0 -1 0 512)">
		<stop offset="0" style="stop-color:#DCF2FD"/>
		<stop offset="0.47" style="stop-color:#D6EEFD"/>
		<stop offset="0.99" style="stop-color:#2180ED"/>
	</linearGradient>
	<path class="st18" d="M103,330c-26.7-4.6,12-57.7,12-57.7C115.5,274.5,118.9,332.7,103,330z"/>
	
		<linearGradient id="SVGID_18_" gradientUnits="userSpaceOnUse" x1="123.42" y1="223.1826" x2="157.9" y2="203.2726" gradientTransform="matrix(1 0 0 -1 0 512)">
		<stop offset="0" style="stop-color:#DCF2FD"/>
		<stop offset="0.47" style="stop-color:#D6EEFD"/>
		<stop offset="0.99" style="stop-color:#2180ED"/>
	</linearGradient>
	<path class="st19" d="M139.8,330c-26.7-4.5,11.9-57.6,11.9-57.6C152.3,274.5,155.7,332.7,139.8,330z"/>
	
		<linearGradient id="SVGID_19_" gradientUnits="userSpaceOnUse" x1="158.39" y1="223.1826" x2="192.87" y2="203.2726" gradientTransform="matrix(1 0 0 -1 0 512)">
		<stop offset="0" style="stop-color:#DCF2FD"/>
		<stop offset="0.47" style="stop-color:#D6EEFD"/>
		<stop offset="0.99" style="stop-color:#2180ED"/>
	</linearGradient>
	<path class="st20" d="M174.8,330c-26.7-4.5,11.9-57.6,11.9-57.6C187.3,274.5,190.7,332.7,174.8,330z"/>
	
		<linearGradient id="SVGID_20_" gradientUnits="userSpaceOnUse" x1="302.06" y1="223.1826" x2="336.5399" y2="203.2726" gradientTransform="matrix(1 0 0 -1 0 512)">
		<stop offset="0" style="stop-color:#DCF2FD"/>
		<stop offset="0.47" style="stop-color:#D6EEFD"/>
		<stop offset="0.99" style="stop-color:#2180ED"/>
	</linearGradient>
	<path class="st21" d="M318.4,330c-26.7-4.5,11.9-57.6,11.9-57.6C330.9,274.5,334.3,332.7,318.4,330z"/>
	
		<linearGradient id="SVGID_21_" gradientUnits="userSpaceOnUse" x1="338.8199" y1="223.1826" x2="373.3" y2="203.2726" gradientTransform="matrix(1 0 0 -1 0 512)">
		<stop offset="0" style="stop-color:#DCF2FD"/>
		<stop offset="0.47" style="stop-color:#D6EEFD"/>
		<stop offset="0.99" style="stop-color:#2180ED"/>
	</linearGradient>
	<path class="st22" d="M355.2,330c-26.7-4.5,11.9-57.6,11.9-57.6C367.7,274.5,371.1,332.7,355.2,330z"/>
	
		<linearGradient id="SVGID_22_" gradientUnits="userSpaceOnUse" x1="373.7899" y1="223.1826" x2="408.27" y2="203.2726" gradientTransform="matrix(1 0 0 -1 0 512)">
		<stop offset="0" style="stop-color:#DCF2FD"/>
		<stop offset="0.47" style="stop-color:#D6EEFD"/>
		<stop offset="0.99" style="stop-color:#2180ED"/>
	</linearGradient>
	<path class="st23" d="M390.1,330c-26.7-4.5,11.9-57.6,11.9-57.6C402.7,274.5,406.1,332.7,390.1,330z"/>
	
		<linearGradient id="SVGID_23_" gradientUnits="userSpaceOnUse" x1="128.4286" y1="164.9876" x2="162.9086" y2="145.0776" gradientTransform="matrix(1 0 0 -1 0 512)">
		<stop offset="0" style="stop-color:#DCF2FD"/>
		<stop offset="0.47" style="stop-color:#D6EEFD"/>
		<stop offset="0.99" style="stop-color:#2180ED"/>
	</linearGradient>
	<path class="st24" d="M144.8,388.2c-26.7-4.5,11.9-57.6,11.9-57.6C157.3,332.7,160.7,390.9,144.8,388.2z"/>
	
		<linearGradient id="SVGID_24_" gradientUnits="userSpaceOnUse" x1="58.5286" y1="164.9876" x2="93.0086" y2="145.0776" gradientTransform="matrix(1 0 0 -1 0 512)">
		<stop offset="0" style="stop-color:#DCF2FD"/>
		<stop offset="0.47" style="stop-color:#D6EEFD"/>
		<stop offset="0.99" style="stop-color:#2180ED"/>
	</linearGradient>
	<path class="st25" d="M74.9,388.2c-26.7-4.5,11.9-57.6,11.9-57.6C87.4,332.7,90.8,390.9,74.9,388.2z"/>
	
		<linearGradient id="SVGID_25_" gradientUnits="userSpaceOnUse" x1="341.5586" y1="164.9876" x2="376.0386" y2="145.0776" gradientTransform="matrix(1 0 0 -1 0 512)">
		<stop offset="0" style="stop-color:#DCF2FD"/>
		<stop offset="0.47" style="stop-color:#D6EEFD"/>
		<stop offset="0.99" style="stop-color:#2180ED"/>
	</linearGradient>
	<path class="st26" d="M357.9,388.2c-26.7-4.5,11.9-57.6,11.9-57.6C370.4,332.7,373.8,390.9,357.9,388.2z"/>
	
		<linearGradient id="SVGID_26_" gradientUnits="userSpaceOnUse" x1="271.6661" y1="165.0006" x2="306.1461" y2="145.0906" gradientTransform="matrix(1 0 0 -1 0 512)">
		<stop offset="0" style="stop-color:#DCF2FD"/>
		<stop offset="0.47" style="stop-color:#D6EEFD"/>
		<stop offset="0.99" style="stop-color:#2180ED"/>
	</linearGradient>
	<path class="st27" d="M288,388.2c-26.7-4.5,12-57.7,12-57.7C300.5,332.7,303.9,390.9,288,388.2z"/>
</g>
</svg>