<?xml version="1.0" encoding="UTF-8"?>
<!-- Generator: Adobe Illustrator 21.1.0, SVG Export Plug-In . SVG Version: 6.00 Build 0)  -->
<svg version="1.1" id="Layer_1" xmlns="http://www.w3.org/2000/svg" xmlns:xlink="http://www.w3.org/1999/xlink" x="0px" y="0px" viewBox="0 0 512.8 512.2" style="enable-background:new 0 0 512.8 512.2;" xml:space="preserve">
<style type="text/css">
	.st0{fill:#FFFFFF;}
	.st1{fill:url(#SVGID_1_);}
	.st2{fill:url(#SVGID_2_);}
	.st3{fill:url(#SVGID_3_);}
	.st4{fill:url(#SVGID_4_);}
	.st5{fill:url(#SVGID_5_);}
	.st6{fill:url(#SVGID_6_);}
	.st7{fill:url(#SVGID_7_);}
	.st8{fill:url(#SVGID_8_);}
	.st9{fill:url(#SVGID_9_);}
	.st10{fill:url(#SVGID_10_);}
	.st11{fill:url(#SVGID_11_);}
	.st12{fill:url(#SVGID_12_);}
	.st13{fill:url(#SVGID_13_);}
	.st14{fill:url(#SVGID_14_);}
	.st15{fill:url(#SVGID_15_);}
	.st16{fill:url(#SVGID_16_);}
	.st17{fill:url(#SVGID_17_);}
	.st18{fill:url(#SVGID_18_);}
	.st19{fill:url(#SVGID_19_);}
	.st20{fill:url(#SVGID_20_);}
	.st21{fill:url(#SVGID_21_);}
	.st22{fill:url(#SVGID_22_);}
	.st23{fill:url(#SVGID_23_);}
	.st24{fill:url(#SVGID_24_);}
	.st25{fill:url(#SVGID_25_);}
</style>
<g id="cloudy">
	<path d="M246.4,51.9c54,0,97.8,36.8,97.8,82.2s-43.8,82.2-97.8,82.2s-97.8-36.8-97.8-82.2S192.4,51.9,246.4,51.9z"/>
	<path d="M100.6,138.5c21.5,0,39,17.5,39,39s-17.5,39-39,39s-39-17.5-39-39S79.1,138.5,100.6,138.5L100.6,138.5z"/>
	<path d="M110.4,169.6h214.9c17.1,0,30.9,10.5,30.9,23.4s-13.8,23.4-30.9,23.4H110.4c-17.1,0-30.9-10.5-30.9-23.5   S93.3,169.6,110.4,169.6z"/>
	<path d="M164.5,88.4c32.1,0,58.2,26,58.2,58.2s-26,58.2-58.2,58.2s-58.2-26-58.2-58.2S132.4,88.4,164.5,88.4L164.5,88.4z"/>
	<path d="M329.5,100c32.1,0,58.2,26,58.2,58.2s-26,58.2-58.2,58.2s-58.2-26-58.2-58.2l0,0C271.3,126,297.4,100,329.5,100z"/>
	<path d="M251.5,60.7c54,0,97.8,36.8,97.8,82.2s-43.8,82.2-97.8,82.2s-97.8-36.8-97.8-82.2S197.5,60.7,251.5,60.7z"/>
	<path d="M105.8,147.2c21.5,0,39,17.5,39,39s-17.5,39-39,39s-39-17.5-39-39S84.2,147.2,105.8,147.2L105.8,147.2z"/>
	<path d="M115.5,178.4h214.9c17.1,0,30.9,10.5,30.9,23.4s-13.8,23.4-30.9,23.4H115.5c-17.1,0-30.9-10.5-30.9-23.4   S98.4,178.4,115.5,178.4z"/>
	<path d="M169.6,97.1c32.1,0,58.2,26,58.2,58.2s-26,58.2-58.2,58.2s-58.2-26-58.2-58.2S137.5,97.1,169.6,97.1L169.6,97.1z"/>
	<path d="M334.6,108.7c32.1,0,58.2,26,58.2,58.2s-26,58.2-58.2,58.2s-58.2-26-58.2-58.2l0,0C276.4,134.8,302.5,108.7,334.6,108.7z"/>
	<path d="M200.7,212.2c22.7,0,41.1,18.4,41.1,41.1s-18.4,41.1-41.1,41.1s-41.1-18.4-41.1-41.1l0,0   C159.6,230.6,178,212.2,200.7,212.2z"/>
	<path d="M326.4,149.1c47.7,0,86.4,32.5,86.4,72.6s-38.7,72.6-86.4,72.6S240,261.8,240,221.7S278.6,149.1,326.4,149.1z"/>
	<path d="M206.3,253.1h189.8c15.1,0,27.3,9.3,27.3,20.7s-12.2,20.7-27.3,20.7H206.3c-15.1,0-27.3-9.3-27.3-20.7   S191.2,253.1,206.3,253.1z"/>
	<path d="M254.1,181.3c28.4,0,51.4,23,51.4,51.4s-23,51.4-51.4,51.4s-51.4-23-51.4-51.4l0,0C202.7,204.3,225.7,181.3,254.1,181.3z"/>
	<path d="M399.8,191.6c28.4,0,51.4,23,51.4,51.4c0,28.4-23,51.4-51.4,51.4c-28.4,0-51.3-23-51.4-51.3   C348.4,214.6,371.3,191.6,399.8,191.6C399.7,191.6,399.7,191.6,399.8,191.6z"/>
	<path d="M210.2,222.6c24,0,43.4,19.4,43.4,43.4c0,24-19.4,43.4-43.4,43.4S166.7,290,166.7,266S186.2,222.6,210.2,222.6L210.2,222.6   z"/>
	<path d="M342.9,155.9c50.4,0,91.3,34.4,91.3,76.7s-40.9,76.7-91.3,76.7s-91.3-34.4-91.3-76.7S292.5,155.9,342.9,155.9z"/>
	<path d="M216,265.8h200.6c15.9,0,28.9,9.8,28.9,21.9s-12.9,21.9-28.9,21.9H216c-15.9,0-28.9-9.8-28.9-21.9S200.1,265.8,216,265.8z"/>
	<path d="M266.5,190c30,0,54.3,24.3,54.3,54.3s-24.3,54.3-54.3,54.3s-54.3-24.3-54.3-54.3S236.5,190,266.5,190L266.5,190z"/>
	<path d="M420.5,200.8c30,0,54.3,24.3,54.3,54.3s-24.3,54.3-54.3,54.3c-30,0-54.3-24.3-54.3-54.3l0,0   C366.2,225.1,390.5,200.8,420.5,200.8z"/>
	<path d="M222.9,229.2c22.8,0,41.3,18.5,41.3,41.3s-18.5,41.3-41.3,41.3s-41.3-18.5-41.3-41.3S200.1,229.2,222.9,229.2L222.9,229.2z   "/>
	<path d="M349.3,165.8c48,0,86.9,32.7,86.9,73s-38.9,73-86.9,73s-86.9-32.7-86.9-73S301.3,165.8,349.3,165.8z"/>
	<path d="M228.5,270.3h190.9c15.2,0,27.5,9.3,27.5,20.8s-12.3,20.8-27.5,20.8H228.5c-15.2,0-27.4-9.3-27.4-20.8   S213.3,270.3,228.5,270.3z"/>
	<path d="M276.6,198.2c28.5,0,51.7,23.1,51.7,51.7s-23.1,51.7-51.7,51.7s-51.7-23.1-51.7-51.7S248,198.2,276.6,198.2L276.6,198.2z"/>
	<path d="M423.1,208.5c28.5,0,51.7,23.1,51.7,51.7s-23.1,51.7-51.7,51.7s-51.7-23.1-51.7-51.7S394.5,208.5,423.1,208.5L423.1,208.5z   "/>
	<path d="M181.4,193.9c37.2,0,67.4,26.2,67.4,58.6S218.6,311,181.4,311S114,284.8,114,252.4S144.2,193.9,181.4,193.9z"/>
	<path d="M81,255.5c14.8,0,26.9,12.4,26.9,27.8S95.8,311.1,81,311.1s-26.9-12.4-26.9-27.8S66.1,255.5,81,255.5z"/>
	<path d="M87.7,277.7h148.1c11.8,0,21.3,7.5,21.3,16.7s-9.5,16.6-21.3,16.6H87.7c-11.8,0-21.3-7.5-21.3-16.7S75.9,277.7,87.7,277.7z   "/>
	<path d="M125,219.8c22.1,0,40.1,18.6,40.1,41.4s-18,41.4-40.1,41.4s-40.1-18.5-40.1-41.4S102.8,219.8,125,219.8z"/>
	<path d="M235.7,241.6c18.6,0,33.6,15.6,33.6,34.7s-15.1,34.7-33.6,34.7s-33.6-15.6-33.6-34.7S217.1,241.6,235.7,241.6z"/>
	<path d="M171.8,193.9c37.2,0,67.4,26.2,67.4,58.6S209,311,171.8,311s-67.4-26.2-67.4-58.6S134.6,193.9,171.8,193.9z"/>
	<path d="M71.4,255.5c14.8,0,26.9,12.4,26.9,27.8s-12,27.8-26.9,27.8s-26.9-12.4-26.9-27.8S56.5,255.5,71.4,255.5z"/>
	<path d="M78.1,277.7h148.1c11.8,0,21.3,7.5,21.3,16.7S238,311,226.2,311H78.1c-11.8,0-21.3-7.5-21.3-16.7S66.3,277.7,78.1,277.7z"/>
	<path d="M115.4,219.8c22.1,0,40.1,18.6,40.1,41.4s-17.9,41.4-40.1,41.4s-40.1-18.5-40.1-41.4S93.3,219.8,115.4,219.8z"/>
	<path d="M226.1,241.6c18.6,0,33.6,15.6,33.6,34.7s-15.1,34.7-33.6,34.7s-33.6-15.6-33.6-34.7S207.5,241.6,226.1,241.6z"/>
	<path d="M175.8,202.4c36.3,0,65.7,24.7,65.7,55.2s-29.4,55.2-65.7,55.2S110,288.1,110,257.6S139.5,202.4,175.8,202.4z"/>
	<path d="M77.8,260.5c14.5,0,26.2,11.7,26.2,26.2S92.3,313,77.8,313s-26.2-11.7-26.2-26.2S63.3,260.5,77.8,260.5L77.8,260.5z"/>
	<path d="M84.4,281.5h144.4c11.5,0,20.8,7,20.8,15.7s-9.3,15.7-20.8,15.7H84.4c-11.5,0-20.8-7-20.8-15.7S72.9,281.5,84.4,281.5z"/>
	<path d="M120.8,226.9c21.6,0,39.1,17.5,39.1,39.1c0,21.6-17.5,39.1-39.1,39.1c-21.6,0-39.1-17.5-39.1-39.1   C81.6,244.4,99.1,226.9,120.8,226.9C120.7,226.9,120.7,226.9,120.8,226.9z"/>
	<path d="M228.7,247.4c18.1,0,32.8,14.7,32.8,32.8S246.8,313,228.7,313s-32.8-14.7-32.8-32.8l0,0   C195.9,262.1,210.6,247.4,228.7,247.4z"/>
	<path class="st0" d="M236.7,50.9c54,0,97.8,36.8,97.8,82.2s-43.8,82.2-97.8,82.2s-97.8-36.8-97.8-82.2S182.7,50.9,236.7,50.9z"/>
	<path class="st0" d="M91,137.4c21.5,0,39,17.5,39,39s-17.5,39-39,39s-39-17.5-39-39S69.5,137.4,91,137.4L91,137.4z"/>
	<path class="st0" d="M100.7,168.6h214.9c17.1,0,30.9,10.5,30.9,23.4s-13.8,23.4-30.9,23.4H100.7c-17.1,0-30.9-10.5-30.9-23.4   S83.7,168.6,100.7,168.6z"/>
	<path class="st0" d="M154.9,87.3c32.1,0,58.2,26,58.2,58.2s-26,58.2-58.2,58.2s-58.2-26-58.2-58.2l0,0   C96.7,113.4,122.7,87.3,154.9,87.3z"/>
	<path class="st0" d="M319.9,99c32.1,0,58.2,26,58.2,58.2s-26,58.2-58.2,58.2s-58.2-26-58.2-58.2l0,0C261.7,125,287.7,99,319.9,99z"/>
	
		<linearGradient id="SVGID_1_" gradientUnits="userSpaceOnUse" x1="241.84" y1="452.38" x2="241.84" y2="287.18" gradientTransform="matrix(1 0 0 -1 0 512)">
		<stop offset="0" style="stop-color:#A5A5A5"/>
		<stop offset="1" style="stop-color:#4F4F50"/>
	</linearGradient>
	<path class="st1" d="M241.9,59.6c54,0,97.8,36.8,97.8,82.2S295.9,224,241.9,224S144,187.2,144,141.8S187.8,59.6,241.9,59.6z"/>
	
		<linearGradient id="SVGID_2_" gradientUnits="userSpaceOnUse" x1="96.1" y1="452.34" x2="96.1" y2="287.14" gradientTransform="matrix(1 0 0 -1 0 512)">
		<stop offset="0" style="stop-color:#A5A5A5"/>
		<stop offset="1" style="stop-color:#4F4F50"/>
	</linearGradient>
	<path class="st2" d="M96.1,146.2c21.5,0,39,17.5,39,39s-17.5,39-39,39s-39-17.5-39-39l0,0C57.1,163.7,74.6,146.2,96.1,146.2z"/>
	
		<linearGradient id="SVGID_3_" gradientUnits="userSpaceOnUse" x1="213.325" y1="452.34" x2="213.325" y2="287.14" gradientTransform="matrix(1 0 0 -1 0 512)">
		<stop offset="0" style="stop-color:#A5A5A5"/>
		<stop offset="1" style="stop-color:#4F4F50"/>
	</linearGradient>
	<path class="st3" d="M105.9,177.3h214.9c17.1,0,30.9,10.5,30.9,23.4s-13.8,23.4-30.9,23.4H105.9c-17.1,0-30.9-10.5-30.9-23.4   S88.8,177.3,105.9,177.3z"/>
	
		<linearGradient id="SVGID_4_" gradientUnits="userSpaceOnUse" x1="160" y1="452.34" x2="160" y2="287.14" gradientTransform="matrix(1 0 0 -1 0 512)">
		<stop offset="0" style="stop-color:#A5A5A5"/>
		<stop offset="1" style="stop-color:#4F4F50"/>
	</linearGradient>
	<path class="st4" d="M160,96.1c32.1,0,58.2,26,58.2,58.2s-26,58.2-58.2,58.2s-58.2-26-58.2-58.2l0,0   C101.8,122.1,127.9,96.1,160,96.1z"/>
	
		<linearGradient id="SVGID_5_" gradientUnits="userSpaceOnUse" x1="325" y1="452.34" x2="325" y2="287.14" gradientTransform="matrix(1 0 0 -1 0 512)">
		<stop offset="0" style="stop-color:#A5A5A5"/>
		<stop offset="1" style="stop-color:#4F4F50"/>
	</linearGradient>
	<path class="st5" d="M325,107.7c32.1,0,58.2,26,58.2,58.2s-26,58.2-58.2,58.2s-58.2-26-58.2-58.2l0,0   C266.8,133.7,292.9,107.7,325,107.7z"/>
	
		<radialGradient id="SVGID_6_" cx="304" cy="255.47" r="128.75" gradientTransform="matrix(1 0 0 -1 0 512)" gradientUnits="userSpaceOnUse">
		<stop offset="0.37" style="stop-color:#292929"/>
		<stop offset="0.64" style="stop-color:#343434;stop-opacity:0.94"/>
		<stop offset="0.79" style="stop-color:#585858;stop-opacity:0.75"/>
		<stop offset="0.91" style="stop-color:#959595;stop-opacity:0.42"/>
		<stop offset="1" style="stop-color:#E3E3E3;stop-opacity:0"/>
	</radialGradient>
	<path class="st6" d="M191.1,211.1c22.7,0,41.1,18.4,41.1,41.1c0,22.7-18.4,41.1-41.1,41.1S150,274.9,150,252.2c0,0,0,0,0,0   C150,229.6,168.4,211.2,191.1,211.1z"/>
	
		<radialGradient id="SVGID_7_" cx="304" cy="255.47" r="128.75" gradientTransform="matrix(1 0 0 -1 0 512)" gradientUnits="userSpaceOnUse">
		<stop offset="0.37" style="stop-color:#292929"/>
		<stop offset="0.64" style="stop-color:#343434;stop-opacity:0.94"/>
		<stop offset="0.79" style="stop-color:#585858;stop-opacity:0.75"/>
		<stop offset="0.91" style="stop-color:#959595;stop-opacity:0.42"/>
		<stop offset="1" style="stop-color:#E3E3E3;stop-opacity:0"/>
	</radialGradient>
	<path class="st7" d="M316.7,148.1c47.7,0,86.4,32.5,86.4,72.6s-38.7,72.6-86.4,72.6s-86.4-32.5-86.4-72.6S269,148.1,316.7,148.1z"/>
	
		<radialGradient id="SVGID_8_" cx="304" cy="255.47" r="128.75" gradientTransform="matrix(1 0 0 -1 0 512)" gradientUnits="userSpaceOnUse">
		<stop offset="0.37" style="stop-color:#292929"/>
		<stop offset="0.64" style="stop-color:#343434;stop-opacity:0.94"/>
		<stop offset="0.79" style="stop-color:#585858;stop-opacity:0.75"/>
		<stop offset="0.91" style="stop-color:#959595;stop-opacity:0.42"/>
		<stop offset="1" style="stop-color:#E3E3E3;stop-opacity:0"/>
	</radialGradient>
	<path class="st8" d="M196.6,252h189.8c15.1,0,27.3,9.3,27.3,20.7s-12.2,20.7-27.3,20.7H196.6c-15.1,0-27.3-9.3-27.3-20.7   S181.5,252,196.6,252z"/>
	
		<radialGradient id="SVGID_9_" cx="304" cy="255.47" r="128.75" gradientTransform="matrix(1 0 0 -1 0 512)" gradientUnits="userSpaceOnUse">
		<stop offset="0.37" style="stop-color:#292929"/>
		<stop offset="0.64" style="stop-color:#343434;stop-opacity:0.94"/>
		<stop offset="0.79" style="stop-color:#585858;stop-opacity:0.75"/>
		<stop offset="0.91" style="stop-color:#959595;stop-opacity:0.42"/>
		<stop offset="1" style="stop-color:#E3E3E3;stop-opacity:0"/>
	</radialGradient>
	<path class="st9" d="M244.4,180.3c28.4,0,51.3,23,51.3,51.4c0,28.4-23,51.3-51.4,51.3c-28.4,0-51.3-23-51.3-51.4   C193,203.3,216,180.3,244.4,180.3C244.4,180.3,244.4,180.3,244.4,180.3z"/>
	
		<radialGradient id="SVGID_10_" cx="304" cy="255.47" r="128.75" gradientTransform="matrix(1 0 0 -1 0 512)" gradientUnits="userSpaceOnUse">
		<stop offset="0.37" style="stop-color:#292929"/>
		<stop offset="0.64" style="stop-color:#343434;stop-opacity:0.94"/>
		<stop offset="0.79" style="stop-color:#585858;stop-opacity:0.75"/>
		<stop offset="0.91" style="stop-color:#959595;stop-opacity:0.42"/>
		<stop offset="1" style="stop-color:#E3E3E3;stop-opacity:0"/>
	</radialGradient>
	<path class="st10" d="M390.1,190.5c28.4,0,51.4,23,51.4,51.4s-23,51.4-51.4,51.4c-28.4,0-51.4-23-51.4-51.4l0,0   C338.7,213.5,361.7,190.5,390.1,190.5z"/>
	<path class="st0" d="M200.5,221.6c24,0,43.4,19.4,43.4,43.4s-19.4,43.4-43.4,43.4c-24,0-43.4-19.4-43.4-43.4   C157.1,241,176.5,221.6,200.5,221.6C200.5,221.6,200.5,221.6,200.5,221.6z"/>
	<path class="st0" d="M333.3,154.9c50.4,0,91.3,34.4,91.3,76.7s-40.9,76.7-91.3,76.7S242,274,242,231.6S282.9,154.9,333.3,154.9z"/>
	<path class="st0" d="M206.4,264.8H407c15.9,0,28.9,9.8,28.9,21.9s-13,21.8-28.9,21.8H206.4c-15.9,0-28.9-9.8-28.9-21.9   S190.4,264.8,206.4,264.8z"/>
	<path class="st0" d="M256.9,188.9c30,0,54.3,24.3,54.3,54.3s-24.3,54.3-54.3,54.3s-54.3-24.3-54.3-54.3S226.9,188.9,256.9,188.9   L256.9,188.9z"/>
	<path class="st0" d="M410.9,199.8c30,0,54.3,24.3,54.3,54.3s-24.3,54.3-54.3,54.3c-30,0-54.3-24.3-54.3-54.3l0,0   C356.6,224.1,380.9,199.8,410.9,199.8z"/>
	
		<linearGradient id="SVGID_11_" gradientUnits="userSpaceOnUse" x1="213.32" y1="346.96" x2="213.32" y2="202.37" gradientTransform="matrix(1 0 0 -1 0 512)">
		<stop offset="0" style="stop-color:#A5A5A5"/>
		<stop offset="1" style="stop-color:#4F4F50"/>
	</linearGradient>
	<path class="st11" d="M213.3,228.2c22.8,0,41.3,18.5,41.3,41.3s-18.5,41.3-41.3,41.4S172,292.4,172,269.5c0,0,0,0,0,0   C172,246.7,190.5,228.2,213.3,228.2z"/>
	
		<linearGradient id="SVGID_12_" gradientUnits="userSpaceOnUse" x1="339.62" y1="346.96" x2="339.62" y2="202.37" gradientTransform="matrix(1 0 0 -1 0 512)">
		<stop offset="0" style="stop-color:#A5A5A5"/>
		<stop offset="1" style="stop-color:#4F4F50"/>
	</linearGradient>
	<path class="st12" d="M339.6,164.8c48,0,86.9,32.7,86.9,73s-38.9,73-86.9,73s-86.9-32.7-86.9-73S291.6,164.8,339.6,164.8z"/>
	
		<linearGradient id="SVGID_13_" gradientUnits="userSpaceOnUse" x1="314.285" y1="346.96" x2="314.285" y2="202.37" gradientTransform="matrix(1 0 0 -1 0 512)">
		<stop offset="0" style="stop-color:#A5A5A5"/>
		<stop offset="1" style="stop-color:#4F4F50"/>
	</linearGradient>
	<path class="st13" d="M218.9,269.3h190.9c15.2,0,27.5,9.3,27.5,20.8s-12.3,20.8-27.5,20.8H218.9c-15.2,0-27.4-9.3-27.4-20.8   S203.7,269.3,218.9,269.3z"/>
	
		<linearGradient id="SVGID_14_" gradientUnits="userSpaceOnUse" x1="266.92" y1="346.96" x2="266.92" y2="202.37" gradientTransform="matrix(1 0 0 -1 0 512)">
		<stop offset="0" style="stop-color:#A5A5A5"/>
		<stop offset="1" style="stop-color:#4F4F50"/>
	</linearGradient>
	<path class="st14" d="M266.9,197.1c28.5,0,51.7,23.1,51.7,51.7s-23.1,51.7-51.7,51.7s-51.7-23.1-51.7-51.7S238.4,197.1,266.9,197.1   L266.9,197.1z"/>
	
		<linearGradient id="SVGID_15_" gradientUnits="userSpaceOnUse" x1="413.44" y1="346.96" x2="413.44" y2="202.37" gradientTransform="matrix(1 0 0 -1 0 512)">
		<stop offset="0" style="stop-color:#A5A5A5"/>
		<stop offset="1" style="stop-color:#4F4F50"/>
	</linearGradient>
	<path class="st15" d="M413.4,207.4c28.5,0,51.7,23.1,51.7,51.7s-23.1,51.7-51.7,51.7s-51.7-23.1-51.7-51.7l0,0   C361.8,230.6,384.9,207.4,413.4,207.4z"/>
	
		<radialGradient id="SVGID_16_" cx="173.65" cy="222.2" r="115.13" gradientTransform="matrix(1 0 0 -1 0 512)" gradientUnits="userSpaceOnUse">
		<stop offset="0.37" style="stop-color:#292929"/>
		<stop offset="0.64" style="stop-color:#343434;stop-opacity:0.94"/>
		<stop offset="0.79" style="stop-color:#585858;stop-opacity:0.75"/>
		<stop offset="0.91" style="stop-color:#959595;stop-opacity:0.42"/>
		<stop offset="1" style="stop-color:#E3E3E3;stop-opacity:0"/>
	</radialGradient>
	<path class="st16" d="M171.8,192.8c37.2,0,67.4,26.2,67.4,58.6s-30.2,58.5-67.4,58.5s-67.4-26.2-67.4-58.6S134.5,192.8,171.8,192.8   z"/>
	
		<radialGradient id="SVGID_17_" cx="173.65" cy="222.2" r="115.13" gradientTransform="matrix(1 0 0 -1 0 512)" gradientUnits="userSpaceOnUse">
		<stop offset="0.37" style="stop-color:#292929"/>
		<stop offset="0.64" style="stop-color:#343434;stop-opacity:0.94"/>
		<stop offset="0.79" style="stop-color:#585858;stop-opacity:0.75"/>
		<stop offset="0.91" style="stop-color:#959595;stop-opacity:0.42"/>
		<stop offset="1" style="stop-color:#E3E3E3;stop-opacity:0"/>
	</radialGradient>
	<path class="st17" d="M71.3,254.5c14.8,0,26.9,12.4,26.9,27.8s-12,27.8-26.9,27.8s-26.9-12.4-26.9-27.8S56.5,254.5,71.3,254.5z"/>
	
		<radialGradient id="SVGID_18_" cx="173.65" cy="222.2" r="115.13" gradientTransform="matrix(1 0 0 -1 0 512)" gradientUnits="userSpaceOnUse">
		<stop offset="0.37" style="stop-color:#292929"/>
		<stop offset="0.64" style="stop-color:#343434;stop-opacity:0.94"/>
		<stop offset="0.79" style="stop-color:#585858;stop-opacity:0.75"/>
		<stop offset="0.91" style="stop-color:#959595;stop-opacity:0.42"/>
		<stop offset="1" style="stop-color:#E3E3E3;stop-opacity:0"/>
	</radialGradient>
	<path class="st18" d="M78,276.7h148.1c11.8,0,21.3,7.5,21.3,16.7s-9.5,16.7-21.3,16.7H78c-11.8,0-21.3-7.5-21.3-16.7   S66.3,276.7,78,276.7z"/>
	
		<radialGradient id="SVGID_19_" cx="173.65" cy="222.2" r="115.13" gradientTransform="matrix(1 0 0 -1 0 512)" gradientUnits="userSpaceOnUse">
		<stop offset="0.37" style="stop-color:#292929"/>
		<stop offset="0.64" style="stop-color:#343434;stop-opacity:0.94"/>
		<stop offset="0.79" style="stop-color:#585858;stop-opacity:0.75"/>
		<stop offset="0.91" style="stop-color:#959595;stop-opacity:0.42"/>
		<stop offset="1" style="stop-color:#E3E3E3;stop-opacity:0"/>
	</radialGradient>
	<path class="st19" d="M115.3,218.8c22.1,0,40.1,18.6,40.1,41.4s-17.9,41.4-40.1,41.4s-40.1-18.5-40.1-41.4S93.2,218.8,115.3,218.8z   "/>
	
		<radialGradient id="SVGID_20_" cx="173.65" cy="222.2" r="115.13" gradientTransform="matrix(1 0 0 -1 0 512)" gradientUnits="userSpaceOnUse">
		<stop offset="0.37" style="stop-color:#292929"/>
		<stop offset="0.64" style="stop-color:#343434;stop-opacity:0.94"/>
		<stop offset="0.79" style="stop-color:#585858;stop-opacity:0.75"/>
		<stop offset="0.91" style="stop-color:#959595;stop-opacity:0.42"/>
		<stop offset="1" style="stop-color:#E3E3E3;stop-opacity:0"/>
	</radialGradient>
	<path class="st20" d="M226,240.6c18.6,0,33.6,15.5,33.6,34.7S244.6,310,226,310s-33.6-15.6-33.6-34.7S207.5,240.6,226,240.6z"/>
	<path class="st0" d="M162.2,192.8c37.2,0,67.4,26.2,67.4,58.6s-30.2,58.5-67.4,58.5s-67.4-26.2-67.4-58.6S125,192.8,162.2,192.8z"/>
	<path class="st0" d="M61.8,254.5c14.8,0,26.9,12.4,26.9,27.8s-12,27.8-26.9,27.8s-26.9-12.4-26.9-27.8S46.9,254.5,61.8,254.5z"/>
	<path class="st0" d="M68.5,276.7h148.1c11.8,0,21.3,7.5,21.3,16.7s-9.5,16.7-21.3,16.7H68.5c-11.8,0-21.3-7.5-21.3-16.7   S56.7,276.7,68.5,276.7z"/>
	<path class="st0" d="M105.8,218.8c22.1,0,40.1,18.6,40.1,41.4s-17.9,41.4-40.1,41.4s-40.1-18.5-40.1-41.4S83.6,218.8,105.8,218.8z"/>
	<path class="st0" d="M216.4,240.6c18.6,0,33.6,15.5,33.6,34.7S235,310,216.4,310s-33.6-15.6-33.6-34.7S197.9,240.6,216.4,240.6z"/>
	
		<linearGradient id="SVGID_21_" gradientUnits="userSpaceOnUse" x1="166.13" y1="308.79" x2="166.13" y2="197.22" gradientTransform="matrix(1 0 0 -1 0 512)">
		<stop offset="0" style="stop-color:#A5A5A5"/>
		<stop offset="1" style="stop-color:#4F4F50"/>
	</linearGradient>
	<path class="st21" d="M166.1,201.3c36.3,0,65.7,24.7,65.7,55.3s-29.4,55.2-65.7,55.2s-65.7-24.7-65.7-55.2S129.8,201.3,166.1,201.3   z"/>
	
		<linearGradient id="SVGID_22_" gradientUnits="userSpaceOnUse" x1="68.22" y1="308.79" x2="68.22" y2="197.22" gradientTransform="matrix(1 0 0 -1 0 512)">
		<stop offset="0" style="stop-color:#A5A5A5"/>
		<stop offset="1" style="stop-color:#4F4F50"/>
	</linearGradient>
	<path class="st22" d="M68.2,259.5c14.5,0,26.2,11.7,26.3,26.2c0,14.5-11.7,26.2-26.2,26.3S42,300.2,42,285.8c0,0,0,0,0,0   C42,271.3,53.7,259.5,68.2,259.5z"/>
	
		<linearGradient id="SVGID_23_" gradientUnits="userSpaceOnUse" x1="146.95" y1="308.79" x2="146.95" y2="197.22" gradientTransform="matrix(1 0 0 -1 0 512)">
		<stop offset="0" style="stop-color:#A5A5A5"/>
		<stop offset="1" style="stop-color:#4F4F50"/>
	</linearGradient>
	<path class="st23" d="M74.7,280.4h144.4c11.5,0,20.8,7,20.8,15.7s-9.3,15.7-20.8,15.7H74.7c-11.5,0-20.8-7-20.8-15.7   S63.3,280.4,74.7,280.4z"/>
	
		<linearGradient id="SVGID_24_" gradientUnits="userSpaceOnUse" x1="111.1" y1="308.79" x2="111.1" y2="197.22" gradientTransform="matrix(1 0 0 -1 0 512)">
		<stop offset="0" style="stop-color:#A5A5A5"/>
		<stop offset="1" style="stop-color:#4F4F50"/>
	</linearGradient>
	<path class="st24" d="M111.1,225.8c21.6,0,39.1,17.5,39.1,39.1c0,21.6-17.5,39.1-39.1,39.1C89.5,304,72,286.5,72,264.9   C72,243.3,89.5,225.8,111.1,225.8C111.1,225.8,111.1,225.8,111.1,225.8z"/>
	
		<linearGradient id="SVGID_25_" gradientUnits="userSpaceOnUse" x1="219.05" y1="308.79" x2="219.05" y2="197.22" gradientTransform="matrix(1 0 0 -1 0 512)">
		<stop offset="0" style="stop-color:#A5A5A5"/>
		<stop offset="1" style="stop-color:#4F4F50"/>
	</linearGradient>
	<path class="st25" d="M219.1,246.4c18.1,0,32.8,14.7,32.8,32.8s-14.7,32.8-32.8,32.8s-32.8-14.7-32.8-32.8l0,0   C186.3,261,200.9,246.4,219.1,246.4z"/>
</g>
</svg>