<?xml version="1.0" encoding="UTF-8"?>
<!-- Generator: Adobe Illustrator 21.1.0, SVG Export Plug-In . SVG Version: 6.00 Build 0)  -->
<svg version="1.1" id="Layer_1" xmlns="http://www.w3.org/2000/svg" xmlns:xlink="http://www.w3.org/1999/xlink" x="0px" y="0px" viewBox="0 0 512.8 512.2" style="enable-background:new 0 0 512.8 512.2;" xml:space="preserve">
<style type="text/css">
	.st0{fill:#EDEDED;}
	.st1{fill:url(#SVGID_1_);}
	.st2{fill:url(#SVGID_2_);}
	.st3{fill:url(#SVGID_3_);}
	.st4{fill:url(#SVGID_4_);}
	.st5{fill:url(#SVGID_5_);}
	.st6{fill:url(#SVGID_6_);}
	.st7{fill:url(#SVGID_7_);}
	.st8{fill:url(#SVGID_8_);}
	.st9{fill:url(#SVGID_9_);}
	.st10{fill:url(#SVGID_10_);}
	.st11{fill:url(#SVGID_11_);}
	.st12{fill:url(#SVGID_12_);}
	.st13{fill:url(#SVGID_13_);}
	.st14{fill:url(#SVGID_14_);}
	.st15{fill:url(#SVGID_15_);}
	.st16{fill:url(#SVGID_16_);}
	.st17{fill:url(#SVGID_17_);}
	.st18{fill:url(#SVGID_18_);}
	.st19{fill:url(#SVGID_19_);}
	.st20{fill:url(#SVGID_20_);}
	.st21{fill:url(#SVGID_21_);}
	.st22{fill:url(#SVGID_22_);}
	.st23{fill:url(#SVGID_23_);}
	.st24{fill:url(#SVGID_24_);}
	.st25{fill:url(#SVGID_25_);}
	.st26{fill:url(#SVGID_26_);}
	.st27{fill:url(#SVGID_27_);}
	.st28{fill:url(#SVGID_28_);}
	.st29{fill:url(#SVGID_29_);}
	.st30{fill:url(#SVGID_30_);}
	.st31{fill:url(#SVGID_31_);}
	.st32{fill:url(#SVGID_32_);}
	.st33{fill:url(#SVGID_33_);}
	.st34{fill:url(#SVGID_34_);}
	.st35{fill:url(#SVGID_35_);}
	.st36{fill:url(#SVGID_36_);}
	.st37{fill:url(#SVGID_37_);}
	.st38{fill:url(#SVGID_38_);}
	.st39{fill:url(#SVGID_39_);}
</style>
<g id="rain_night_-_heavy">
	<path d="M279.6,52.7c63.7,0,115.3,43,115.3,96.1s-51.6,96.1-115.3,96.1s-115.3-43-115.3-96.1S215.9,52.7,279.6,52.7z"/>
	<path d="M107.9,153.9c25.2,0.2,45.4,20.8,45.2,46s-20.8,45.4-46,45.2c-25-0.2-45.2-20.6-45.2-45.6C62,174.2,82.6,153.8,107.9,153.9   C107.8,153.9,107.9,153.9,107.9,153.9z"/>
	<path d="M119.4,190.3h253.2c20.1,0,36.4,12.2,36.4,27.4S392.7,245,372.6,245H119.4c-20.1,0-36.4-12.2-36.4-27.4   S99.2,190.3,119.4,190.3z"/>
	<path d="M183.1,95.3c37.9,0,68.6,30.4,68.6,68s-30.7,68-68.6,68s-68.6-30.4-68.6-68S145.3,95.3,183.1,95.3z"/>
	<path d="M377.5,108.9c37.9,0,68.6,30.4,68.6,68s-30.7,68-68.5,68s-68.5-30.5-68.5-68S339.7,108.9,377.5,108.9z"/>
	<path d="M284.8,60c63.7,0,115.3,43,115.3,96.1s-51.6,96.1-115.3,96.1s-115.3-43-115.3-96.1S221.2,60,284.8,60z"/>
	<path d="M113.1,161.2c25.2,0.2,45.4,20.8,45.2,46c-0.2,25.2-20.8,45.4-46,45.2c-25-0.2-45.2-20.6-45.2-45.6   C67.2,181.5,87.8,161.1,113.1,161.2C113.1,161.2,113.1,161.2,113.1,161.2z"/>
	<path d="M124.6,197.6h253.3c20.1,0,36.4,12.2,36.4,27.4s-16.3,27.4-36.4,27.4H124.6c-20.1,0-36.4-12.2-36.4-27.4   S104.4,197.6,124.6,197.6z"/>
	<path d="M188.4,102.6c37.9,0,68.6,30.4,68.6,68s-30.7,68-68.6,68s-68.6-30.4-68.6-68S150.5,102.6,188.4,102.6z"/>
	<path d="M382.8,116.2c37.9,0,68.5,30.4,68.5,68s-30.7,68-68.5,68s-68.5-30.4-68.5-68S344.9,116.2,382.8,116.2z"/>
	<path d="M340.5,113.6c53.4,0,96.7,35.4,96.7,79s-43.3,79-96.7,79s-96.7-35.4-96.7-79S287,113.6,340.5,113.6z"/>
	<path d="M196.3,196.8c21.3,0,38.6,16.8,38.6,37.5s-17.3,37.5-38.6,37.5s-38.6-16.8-38.6-37.5S175,196.8,196.3,196.8z"/>
	<path d="M206,226.7h212.5c16.9,0,30.6,10.1,30.6,22.5s-13.7,22.5-30.6,22.5H206c-16.9,0-30.6-10.1-30.6-22.5S189.1,226.7,206,226.7   z"/>
	<path d="M259.5,148.6c31.8,0,57.5,25,57.5,55.9s-25.8,55.9-57.5,55.9s-57.5-25-57.5-55.9S227.7,148.6,259.5,148.6z"/>
	<path d="M424.7,165.7c30.1,0,54.6,23.7,54.6,53s-24.4,53-54.6,53s-54.6-23.7-54.6-53S394.5,165.7,424.7,165.7z"/>
	<path d="M345.4,120.5c48.9,0,88.6,33.1,88.6,73.8s-39.6,73.8-88.6,73.8s-88.6-33.1-88.6-73.8S296.5,120.5,345.4,120.5z"/>
	<path d="M213.4,198.3c19.3,0.2,34.9,16,34.7,35.3c-0.2,19.3-16,34.9-35.3,34.7c-19.2-0.2-34.7-15.8-34.7-35   C178.2,213.9,194,198.2,213.4,198.3z"/>
	<path d="M222.2,226.2h194.6c15.5,0,28,9.4,28,21c0,11.6-12.5,21-28,21H222.2c-15.5,0-28-9.4-28-21S206.8,226.2,222.2,226.2z"/>
	<path d="M271.3,153.2c29.1,0,52.7,23.4,52.7,52.2s-23.6,52.2-52.7,52.2s-52.7-23.4-52.7-52.2S242.2,153.2,271.3,153.2z"/>
	<path d="M420.6,163.7c29.1,0,52.7,23.4,52.7,52.2s-23.6,52.2-52.7,52.2S368,244.8,368,215.9S391.5,163.7,420.6,163.7z"/>
	<path d="M349.4,126.2c48.9,0,88.6,33,88.6,73.8s-39.6,73.8-88.6,73.8s-88.6-33.1-88.6-73.8S300.5,126.2,349.4,126.2z"/>
	<path d="M217.4,203.9c19.3,0.2,34.9,16,34.7,35.3s-16,34.9-35.3,34.7c-19.2-0.2-34.7-15.8-34.7-35   C182.2,219.5,198,203.8,217.4,203.9z"/>
	<path d="M226.2,231.9h194.6c15.5,0,28,9.4,28,21s-12.5,21-28,21H226.2c-15.5,0-28-9.4-28-21S210.8,231.9,226.2,231.9z"/>
	<path d="M275.3,158.9c29.1,0,52.7,23.4,52.7,52.2s-23.6,52.2-52.7,52.2s-52.7-23.4-52.7-52.2S246.2,158.9,275.3,158.9z"/>
	<path d="M424.6,169.4c29.1,0,52.7,23.4,52.7,52.2s-23.6,52.2-52.7,52.2S372,250.4,372,221.6S395.5,169.4,424.6,169.4z"/>
	<path d="M187.8,398.6c-26.2-4.4,11.7-56.1,11.7-56.1C200.1,344.7,203.4,401.3,187.8,398.6z"/>
	<path d="M218.7,337.5c-26.2-4.4,11.7-56.1,11.7-56.1C231,283.5,234.3,340.1,218.7,337.5z"/>
	<path d="M87.2,398.6c-26.2-4.4,11.7-56.1,11.7-56.1C99.5,344.7,102.8,401.3,87.2,398.6z"/>
	<path d="M118.1,337.5c-26.2-4.4,11.7-56.1,11.7-56.1C130.4,283.5,133.7,340.1,118.1,337.5z"/>
	<path d="M287.3,398.6c-26.2-4.4,11.7-56.1,11.7-56.1C299.6,344.7,302.9,401.3,287.3,398.6z"/>
	<path d="M318.2,337.5c-26.2-4.4,11.7-56.1,11.7-56.1C330.5,283.5,333.8,340.1,318.2,337.5z"/>
	<path d="M391,404.3c-26.2-4.4,11.7-56.1,11.7-56.1C403.4,350.4,406.7,407,391,404.3z"/>
	<path d="M421.9,337.5c-26.2-4.4,11.7-56.1,11.7-56.1C434.2,283.5,437.6,340.1,421.9,337.5z"/>
	<path d="M184.1,328.6c-1.5,8.9-10,14.9-19,13.4s-14.9-10-13.4-19c1.5-8.9,22.4-33.1,22.4-33.1S185.6,319.7,184.1,328.6z"/>
	<path d="M155.5,400.1c-1.7,8.9-10.3,14.8-19.2,13.1c-8.7-1.6-14.6-9.9-13.2-18.7c1.5-8.9,22.4-33.1,22.4-33.1   S157,391.1,155.5,400.1z"/>
	<path d="M284.1,328.6c-1.5,8.9-10,14.9-19,13.4s-14.9-10-13.4-19c1.5-8.9,22.4-33.1,22.4-33.1S285.7,319.7,284.1,328.6z"/>
	<path d="M255.5,400.1c-1.7,8.9-10.3,14.8-19.2,13.1c-8.7-1.6-14.6-9.9-13.2-18.7c1.5-8.9,22.4-33.1,22.4-33.1   S257.1,391.1,255.5,400.1z"/>
	<path d="M384.2,328.6c-1.5,8.9-10,14.9-19,13.4s-14.9-10-13.4-19c1.5-8.9,22.4-33.1,22.4-33.1S385.7,319.7,384.2,328.6z"/>
	<path d="M355.6,400.1c-1.7,8.9-10.3,14.8-19.2,13.1c-8.7-1.6-14.6-9.9-13.2-18.7c1.5-8.9,22.4-33.1,22.4-33.1   S357.1,391.1,355.6,400.1z"/>
	<path d="M187.1,156.4c38.9,0,70.5,25.8,70.5,57.6s-31.6,57.6-70.5,57.6s-70.5-25.8-70.5-57.6S148.1,156.4,187.1,156.4z"/>
	<path d="M82,217.1c15.5,0,28.1,12.2,28.1,27.3S97.5,271.7,82,271.7s-28.1-12.2-28.1-27.3S66.5,217.1,82,217.1z"/>
	<path d="M89,238.9h155c12.3,0,22.3,7.3,22.3,16.4c0,9.1-10,16.4-22.3,16.4H89c-12.3,0-22.3-7.3-22.3-16.4S76.7,238.9,89,238.9z"/>
	<path d="M128.1,182c23.2,0,41.9,18.2,41.9,40.7s-18.8,40.7-41.9,40.7s-41.9-18.2-41.9-40.7S104.9,182,128.1,182z"/>
	<path d="M248.5,194.4c22,0,39.8,17.3,39.8,38.7s-17.8,38.6-39.8,38.6s-39.8-17.3-39.8-38.6S226.5,194.4,248.5,194.4z"/>
	<path d="M177.7,161c36,0,65.2,24.4,65.2,54.4s-29.2,54.4-65.2,54.4s-65.2-24.4-65.2-54.4S141.7,161,177.7,161z"/>
	<path d="M80.5,218.3c14.3,0.1,25.7,11.7,25.6,26c-0.1,14.3-11.7,25.7-26,25.6c-14.2-0.1-25.6-11.6-25.6-25.8   C54.5,229.8,66.2,218.3,80.5,218.3z"/>
	<path d="M87,238.9h143.4c11.4,0,20.6,6.9,20.6,15.5c0,8.6-9.2,15.5-20.6,15.5H87c-11.4,0-20.6-6.9-20.6-15.5S75.6,238.9,87,238.9z"/>
	<path d="M123.1,185.1c21.3,0.2,38.3,17.6,38.2,38.8c-0.2,21.3-17.6,38.3-38.8,38.2c-21.1-0.2-38.2-17.4-38.2-38.5   C84.4,202.3,101.8,185.1,123.1,185.1C123.1,185.1,123.1,185.1,123.1,185.1z"/>
	<path d="M233.1,192.8c21.3,0.2,38.3,17.6,38.2,38.8s-17.6,38.3-38.8,38.2c-21.1-0.2-38.2-17.4-38.2-38.5   C194.4,210,211.8,192.8,233.1,192.8C233.1,192.8,233.1,192.8,233.1,192.8z"/>
	<path d="M180.7,165.2c36,0,65.2,24.4,65.2,54.4S216.7,274,180.7,274s-65.2-24.4-65.2-54.4S144.6,165.2,180.7,165.2z"/>
	<path d="M83.4,222.5c14.3,0.1,25.7,11.7,25.6,26c-0.1,14.3-11.7,25.7-26,25.6c-14.2-0.1-25.6-11.6-25.6-25.8   C57.5,234,69.1,222.4,83.4,222.5z"/>
	<path d="M89.9,243.1h143.4c11.4,0,20.6,6.9,20.6,15.5c0,8.6-9.2,15.5-20.6,15.5H89.9c-11.4,0-20.6-6.9-20.6-15.5   S78.6,243.1,89.9,243.1z"/>
	<path d="M126,189.3c21.3,0.1,38.4,17.5,38.2,38.8c-0.1,21.3-17.5,38.4-38.8,38.2c-21.2-0.1-38.2-17.3-38.2-38.5   C87.3,206.5,104.7,189.2,126,189.3z"/>
	<path d="M236.1,197c21.3,0.2,38.3,17.6,38.2,38.8s-17.6,38.3-38.8,38.2c-21.1-0.2-38.2-17.4-38.2-38.5   C197.4,214.1,214.8,196.9,236.1,197C236.1,197,236.1,197,236.1,197z"/>
	<path class="st0" d="M264.7,52.7c63.7,0,115.3,43,115.3,96.1s-51.6,96.1-115.3,96.1s-115.3-43-115.3-96.1S201,52.7,264.7,52.7z"/>
	<path class="st0" d="M92.9,153.9c25.2,0.2,45.4,20.8,45.2,46s-20.8,45.4-46,45.2c-25-0.2-45.2-20.6-45.2-45.6   C47,174.2,67.6,153.8,92.9,153.9C92.9,153.9,92.9,153.9,92.9,153.9z"/>
	<path class="st0" d="M104.4,190.3h253.3c20.1,0,36.4,12.2,36.4,27.4S377.8,245,357.7,245H104.4C84.3,245,68,232.7,68,217.6   S84.3,190.3,104.4,190.3z"/>
	<path class="st0" d="M168.2,95.3c37.9,0,68.6,30.4,68.6,68s-30.7,68-68.6,68s-68.6-30.4-68.6-68S130.3,95.3,168.2,95.3z"/>
	<path class="st0" d="M362.6,108.9c37.9,0,68.6,30.4,68.6,68s-30.7,68-68.5,68s-68.5-30.4-68.5-68S324.7,108.9,362.6,108.9z"/>
	
		<linearGradient id="SVGID_1_" gradientUnits="userSpaceOnUse" x1="269.88" y1="450.7" x2="269.88" y2="259.62" gradientTransform="matrix(1 0 0 -1 0 512)">
		<stop offset="0" style="stop-color:#A5A5A5"/>
		<stop offset="1" style="stop-color:#4F4F50"/>
	</linearGradient>
	<path class="st1" d="M269.9,60c63.7,0,115.3,43,115.3,96.1s-51.6,96.1-115.3,96.1s-115.3-43-115.3-96.1S206.2,60,269.9,60z"/>
	
		<linearGradient id="SVGID_2_" gradientUnits="userSpaceOnUse" x1="97.73" y1="450.7" x2="97.73" y2="259.62" gradientTransform="matrix(1 0 0 -1 0 512)">
		<stop offset="0" style="stop-color:#A5A5A5"/>
		<stop offset="1" style="stop-color:#4F4F50"/>
	</linearGradient>
	<path class="st2" d="M98.1,161.2c25.2,0.2,45.4,20.8,45.2,46c-0.2,25.2-20.8,45.4-46,45.2c-25-0.2-45.2-20.6-45.2-45.6   C52.2,181.5,72.8,161.1,98.1,161.2C98.1,161.2,98.1,161.2,98.1,161.2z"/>
	
		<linearGradient id="SVGID_3_" gradientUnits="userSpaceOnUse" x1="236.26" y1="450.7" x2="236.26" y2="259.62" gradientTransform="matrix(1 0 0 -1 0 512)">
		<stop offset="0" style="stop-color:#A5A5A5"/>
		<stop offset="1" style="stop-color:#4F4F50"/>
	</linearGradient>
	<path class="st3" d="M109.6,197.6h253.3c20.1,0,36.4,12.2,36.4,27.4s-16.3,27.4-36.4,27.4H109.6c-20.1,0-36.4-12.2-36.4-27.4   S89.5,197.6,109.6,197.6z"/>
	
		<linearGradient id="SVGID_4_" gradientUnits="userSpaceOnUse" x1="173.41" y1="450.7" x2="173.41" y2="259.62" gradientTransform="matrix(1 0 0 -1 0 512)">
		<stop offset="0" style="stop-color:#A5A5A5"/>
		<stop offset="1" style="stop-color:#4F4F50"/>
	</linearGradient>
	<path class="st4" d="M173.4,102.6c37.9,0,68.6,30.4,68.6,68s-30.7,68-68.6,68s-68.6-30.4-68.6-68S135.6,102.6,173.4,102.6z"/>
	
		<linearGradient id="SVGID_5_" gradientUnits="userSpaceOnUse" x1="367.82" y1="450.7" x2="367.82" y2="259.62" gradientTransform="matrix(1 0 0 -1 0 512)">
		<stop offset="0" style="stop-color:#A5A5A5"/>
		<stop offset="1" style="stop-color:#4F4F50"/>
	</linearGradient>
	<path class="st5" d="M367.8,116.2c37.9,0,68.5,30.4,68.5,68s-30.7,68-68.5,68s-68.5-30.4-68.5-68S330,116.2,367.8,116.2z"/>
	
		<radialGradient id="SVGID_6_" cx="328.22" cy="168.9732" r="165.23" gradientTransform="matrix(1 0 0 -0.94 0 403.25)" gradientUnits="userSpaceOnUse">
		<stop offset="0.37" style="stop-color:#292929"/>
		<stop offset="0.64" style="stop-color:#343434;stop-opacity:0.94"/>
		<stop offset="0.79" style="stop-color:#585858;stop-opacity:0.75"/>
		<stop offset="0.91" style="stop-color:#959595;stop-opacity:0.42"/>
		<stop offset="1" style="stop-color:#E3E3E3;stop-opacity:0"/>
	</radialGradient>
	<path class="st6" d="M325.5,113.6c53.4,0,96.7,35.4,96.7,79s-43.3,79-96.7,79s-96.7-35.4-96.7-79S272.1,113.6,325.5,113.6z"/>
	
		<radialGradient id="SVGID_7_" cx="328.22" cy="168.9732" r="165.23" gradientTransform="matrix(1 0 0 -0.94 0 403.25)" gradientUnits="userSpaceOnUse">
		<stop offset="0.37" style="stop-color:#292929"/>
		<stop offset="0.64" style="stop-color:#343434;stop-opacity:0.94"/>
		<stop offset="0.79" style="stop-color:#585858;stop-opacity:0.75"/>
		<stop offset="0.91" style="stop-color:#959595;stop-opacity:0.42"/>
		<stop offset="1" style="stop-color:#E3E3E3;stop-opacity:0"/>
	</radialGradient>
	<path class="st7" d="M181.4,196.8c21.3,0,38.6,16.8,38.6,37.5s-17.3,37.5-38.6,37.5s-38.6-16.8-38.6-37.5S160.1,196.8,181.4,196.8z   "/>
	
		<radialGradient id="SVGID_8_" cx="328.22" cy="168.9732" r="165.23" gradientTransform="matrix(1 0 0 -0.94 0 403.25)" gradientUnits="userSpaceOnUse">
		<stop offset="0.37" style="stop-color:#292929"/>
		<stop offset="0.64" style="stop-color:#343434;stop-opacity:0.94"/>
		<stop offset="0.79" style="stop-color:#585858;stop-opacity:0.75"/>
		<stop offset="0.91" style="stop-color:#959595;stop-opacity:0.42"/>
		<stop offset="1" style="stop-color:#E3E3E3;stop-opacity:0"/>
	</radialGradient>
	<path class="st8" d="M191,226.7h212.6c16.9,0,30.6,10.1,30.6,22.5s-13.7,22.5-30.6,22.5H191c-16.9,0-30.6-10.1-30.6-22.5   S174.1,226.7,191,226.7z"/>
	
		<radialGradient id="SVGID_9_" cx="328.22" cy="168.9732" r="165.23" gradientTransform="matrix(1 0 0 -0.94 0 403.25)" gradientUnits="userSpaceOnUse">
		<stop offset="0.37" style="stop-color:#292929"/>
		<stop offset="0.64" style="stop-color:#343434;stop-opacity:0.94"/>
		<stop offset="0.79" style="stop-color:#585858;stop-opacity:0.75"/>
		<stop offset="0.91" style="stop-color:#959595;stop-opacity:0.42"/>
		<stop offset="1" style="stop-color:#E3E3E3;stop-opacity:0"/>
	</radialGradient>
	<path class="st9" d="M244.6,148.6c31.8,0,57.5,25,57.5,55.9s-25.8,55.9-57.5,55.9s-57.6-25-57.6-55.9S212.8,148.6,244.6,148.6z"/>
	
		<radialGradient id="SVGID_10_" cx="324.69" cy="161.24" r="186.93" gradientTransform="matrix(1 0 0 -1 0 512)" gradientUnits="userSpaceOnUse">
		<stop offset="0.37" style="stop-color:#292929"/>
		<stop offset="0.64" style="stop-color:#343434;stop-opacity:0.94"/>
		<stop offset="0.79" style="stop-color:#585858;stop-opacity:0.75"/>
		<stop offset="0.91" style="stop-color:#959595;stop-opacity:0.42"/>
		<stop offset="1" style="stop-color:#E3E3E3;stop-opacity:0"/>
	</radialGradient>
	<path class="st10" d="M409.7,165.7c30.1,0,54.6,23.7,54.6,53s-24.4,53-54.6,53s-54.6-23.7-54.6-53S379.6,165.7,409.7,165.7z"/>
	<path class="st0" d="M330.4,120.5c48.9,0,88.6,33.1,88.6,73.8s-39.6,73.8-88.6,73.8s-88.6-33.1-88.6-73.8S281.5,120.5,330.4,120.5z   "/>
	<path class="st0" d="M198.5,198.3c19.3,0.2,34.9,16,34.7,35.3c-0.2,19.3-16,34.9-35.3,34.7c-19.2-0.2-34.7-15.8-34.7-35   C163.2,213.9,179.1,198.2,198.5,198.3z"/>
	<path class="st0" d="M207.3,226.2h194.6c15.5,0,28,9.4,28,21c0,11.6-12.5,21-28,21H207.3c-15.5,0-28-9.4-28-21   S191.9,226.2,207.3,226.2z"/>
	<path class="st0" d="M256.3,153.2c29.1,0,52.7,23.4,52.7,52.2s-23.6,52.2-52.7,52.2s-52.7-23.4-52.7-52.2S227.2,153.2,256.3,153.2z   "/>
	<path class="st0" d="M405.7,163.7c29.1,0,52.7,23.4,52.7,52.2s-23.6,52.2-52.7,52.2S353,244.8,353,215.9S376.6,163.7,405.7,163.7z"/>
	
		<linearGradient id="SVGID_11_" gradientUnits="userSpaceOnUse" x1="334.44" y1="384.86" x2="334.44" y2="238.04" gradientTransform="matrix(1 0 0 -1 0 512)">
		<stop offset="0" style="stop-color:#A5A5A5"/>
		<stop offset="1" style="stop-color:#4F4F50"/>
	</linearGradient>
	<path class="st11" d="M334.4,126.2c48.9,0,88.6,33,88.6,73.8s-39.6,73.8-88.6,73.8s-88.6-33.1-88.6-73.8S285.5,126.2,334.4,126.2z"/>
	
		<linearGradient id="SVGID_12_" gradientUnits="userSpaceOnUse" x1="202.16" y1="384.86" x2="202.16" y2="238.04" gradientTransform="matrix(1 0 0 -1 0 512)">
		<stop offset="0" style="stop-color:#A5A5A5"/>
		<stop offset="1" style="stop-color:#4F4F50"/>
	</linearGradient>
	<path class="st12" d="M202.5,203.9c19.3,0.2,34.9,16,34.7,35.3s-16,34.9-35.3,34.7c-19.2-0.2-34.7-15.8-34.7-35   C167.3,219.5,183.1,203.8,202.5,203.9z"/>
	
		<linearGradient id="SVGID_13_" gradientUnits="userSpaceOnUse" x1="308.61" y1="384.86" x2="308.61" y2="238.04" gradientTransform="matrix(1 0 0 -1 0 512)">
		<stop offset="0" style="stop-color:#A5A5A5"/>
		<stop offset="1" style="stop-color:#4F4F50"/>
	</linearGradient>
	<path class="st13" d="M211.3,231.9h194.6c15.5,0,28,9.4,28,21s-12.5,21-28,21H211.3c-15.5,0-28-9.4-28-21S195.9,231.9,211.3,231.9z   "/>
	
		<linearGradient id="SVGID_14_" gradientUnits="userSpaceOnUse" x1="260.32" y1="384.86" x2="260.32" y2="238.04" gradientTransform="matrix(1 0 0 -1 0 512)">
		<stop offset="0" style="stop-color:#A5A5A5"/>
		<stop offset="1" style="stop-color:#4F4F50"/>
	</linearGradient>
	<path class="st14" d="M260.3,158.9c29.1,0,52.7,23.4,52.7,52.2s-23.6,52.2-52.7,52.2s-52.7-23.4-52.7-52.2S231.2,158.9,260.3,158.9   z"/>
	
		<linearGradient id="SVGID_15_" gradientUnits="userSpaceOnUse" x1="409.685" y1="384.86" x2="409.685" y2="238.04" gradientTransform="matrix(1 0 0 -1 0 512)">
		<stop offset="0" style="stop-color:#A5A5A5"/>
		<stop offset="1" style="stop-color:#4F4F50"/>
	</linearGradient>
	<path class="st15" d="M409.7,169.4c29.1,0,52.7,23.4,52.7,52.2s-23.6,52.2-52.7,52.2S357,250.4,357,221.6S380.6,169.4,409.7,169.4z   "/>
	
		<linearGradient id="SVGID_16_" gradientUnits="userSpaceOnUse" x1="166.7756" y1="151.6631" x2="190.6913" y2="127.7373" gradientTransform="matrix(1 0 0 -1 0 512)">
		<stop offset="0.21" style="stop-color:#C4EAFD"/>
		<stop offset="0.99" style="stop-color:#2180ED"/>
	</linearGradient>
	<path class="st16" d="M172.9,398.6c-26.2-4.4,11.7-56.1,11.7-56.1C185.2,344.7,188.5,401.3,172.9,398.6z"/>
	
		<linearGradient id="SVGID_17_" gradientUnits="userSpaceOnUse" x1="197.6575" y1="212.8075" x2="221.5695" y2="188.8955" gradientTransform="matrix(1 0 0 -1 0 512)">
		<stop offset="0.21" style="stop-color:#C4EAFD"/>
		<stop offset="0.99" style="stop-color:#2180ED"/>
	</linearGradient>
	<path class="st17" d="M203.7,337.5c-26.2-4.4,11.7-56.1,11.7-56.1C216,283.5,219.4,340.1,203.7,337.5z"/>
	
		<linearGradient id="SVGID_18_" gradientUnits="userSpaceOnUse" x1="66.1795" y1="151.6569" x2="90.0852" y2="127.7412" gradientTransform="matrix(1 0 0 -1 0 512)">
		<stop offset="0.21" style="stop-color:#C4EAFD"/>
		<stop offset="0.99" style="stop-color:#2180ED"/>
	</linearGradient>
	<path class="st18" d="M72.2,398.6C46,394.2,84,342.5,84,342.5C84.6,344.7,87.9,401.3,72.2,398.6z"/>
	
		<linearGradient id="SVGID_19_" gradientUnits="userSpaceOnUse" x1="97.0475" y1="212.8075" x2="120.9604" y2="188.8946" gradientTransform="matrix(1 0 0 -1 0 512)">
		<stop offset="0.21" style="stop-color:#C4EAFD"/>
		<stop offset="0.99" style="stop-color:#2180ED"/>
	</linearGradient>
	<path class="st19" d="M103.1,337.5c-26.2-4.4,11.7-56.1,11.7-56.1C115.4,283.5,118.8,340.1,103.1,337.5z"/>
	
		<linearGradient id="SVGID_20_" gradientUnits="userSpaceOnUse" x1="266.2875" y1="151.6575" x2="290.2019" y2="127.7432" gradientTransform="matrix(1 0 0 -1 0 512)">
		<stop offset="0.21" style="stop-color:#C4EAFD"/>
		<stop offset="0.99" style="stop-color:#2180ED"/>
	</linearGradient>
	<path class="st20" d="M272.4,398.6c-26.2-4.4,11.7-56.1,11.7-56.1C284.7,344.7,288,401.3,272.4,398.6z"/>
	
		<linearGradient id="SVGID_21_" gradientUnits="userSpaceOnUse" x1="297.1815" y1="212.8041" x2="321.0865" y2="188.909" gradientTransform="matrix(1 0 0 -1 0 512)">
		<stop offset="0.21" style="stop-color:#C4EAFD"/>
		<stop offset="0.99" style="stop-color:#2180ED"/>
	</linearGradient>
	<path class="st21" d="M303.2,337.5C277,333,315,281.4,315,281.4C315.5,283.5,318.9,340.1,303.2,337.5z"/>
	
		<linearGradient id="SVGID_22_" gradientUnits="userSpaceOnUse" x1="370.0275" y1="145.9575" x2="393.9464" y2="122.0387" gradientTransform="matrix(1 0 0 -1 0 512)">
		<stop offset="0.21" style="stop-color:#C4EAFD"/>
		<stop offset="0.99" style="stop-color:#2180ED"/>
	</linearGradient>
	<path class="st22" d="M376.1,404.3c-26.2-4.4,11.7-56.1,11.7-56.1C388.4,350.4,391.7,407,376.1,404.3z"/>
	
		<linearGradient id="SVGID_23_" gradientUnits="userSpaceOnUse" x1="400.9194" y1="212.8019" x2="424.8292" y2="188.9022" gradientTransform="matrix(1 0 0 -1 0 512)">
		<stop offset="0.21" style="stop-color:#C4EAFD"/>
		<stop offset="0.99" style="stop-color:#2180ED"/>
	</linearGradient>
	<path class="st23" d="M407,337.5c-26.2-4.4,11.7-56.1,11.7-56.1C419.3,283.5,422.6,340.1,407,337.5z"/>
	
		<linearGradient id="SVGID_24_" gradientUnits="userSpaceOnUse" x1="142.8025" y1="205.8125" x2="169.2875" y2="179.3274" gradientTransform="matrix(1 0 0 -1 0 512)">
		<stop offset="0.21" style="stop-color:#C4EAFD"/>
		<stop offset="0.99" style="stop-color:#2180ED"/>
	</linearGradient>
	<path class="st24" d="M169.1,328.6c-1.5,8.9-10,14.9-19,13.4s-14.9-10-13.4-19c1.5-8.9,22.4-33.1,22.4-33.1   S170.7,319.7,169.1,328.6z"/>
	
		<linearGradient id="SVGID_25_" gradientUnits="userSpaceOnUse" x1="114.289" y1="134.389" x2="140.759" y2="107.919" gradientTransform="matrix(1 0 0 -1 0 512)">
		<stop offset="0.21" style="stop-color:#C4EAFD"/>
		<stop offset="0.99" style="stop-color:#2180ED"/>
	</linearGradient>
	<path class="st25" d="M140.5,400.1c-1.7,8.9-10.3,14.8-19.2,13.1c-8.7-1.6-14.6-9.9-13.2-18.7c1.5-8.9,22.4-33.1,22.4-33.1   S142.1,391.1,140.5,400.1z"/>
	
		<linearGradient id="SVGID_26_" gradientUnits="userSpaceOnUse" x1="242.8625" y1="205.8125" x2="269.3475" y2="179.3274" gradientTransform="matrix(1 0 0 -1 0 512)">
		<stop offset="0.21" style="stop-color:#C4EAFD"/>
		<stop offset="0.99" style="stop-color:#2180ED"/>
	</linearGradient>
	<path class="st26" d="M269.2,328.6c-1.5,8.9-10,14.9-19,13.4s-14.9-10-13.4-19c1.5-8.9,22.4-33.1,22.4-33.1   S270.7,319.7,269.2,328.6z"/>
	
		<linearGradient id="SVGID_27_" gradientUnits="userSpaceOnUse" x1="214.349" y1="134.389" x2="240.819" y2="107.919" gradientTransform="matrix(1 0 0 -1 0 512)">
		<stop offset="0.21" style="stop-color:#C4EAFD"/>
		<stop offset="0.99" style="stop-color:#2180ED"/>
	</linearGradient>
	<path class="st27" d="M240.6,400.1c-1.7,8.9-10.3,14.8-19.2,13.1c-8.7-1.6-14.6-9.9-13.2-18.7c1.5-8.9,22.4-33.1,22.4-33.1   S242.1,391.1,240.6,400.1z"/>
	
		<linearGradient id="SVGID_28_" gradientUnits="userSpaceOnUse" x1="342.9242" y1="205.808" x2="369.4102" y2="179.3319" gradientTransform="matrix(1 0 0 -1 0 512)">
		<stop offset="0.21" style="stop-color:#C4EAFD"/>
		<stop offset="0.99" style="stop-color:#2180ED"/>
	</linearGradient>
	<path class="st28" d="M369.2,328.6c-1.5,8.9-10,14.9-19,13.4s-14.9-10-13.4-19c1.5-8.9,22.4-33.1,22.4-33.1   S370.8,319.7,369.2,328.6z"/>
	
		<linearGradient id="SVGID_29_" gradientUnits="userSpaceOnUse" x1="314.409" y1="134.389" x2="340.879" y2="107.919" gradientTransform="matrix(1 0 0 -1 0 512)">
		<stop offset="0.21" style="stop-color:#C4EAFD"/>
		<stop offset="0.99" style="stop-color:#2180ED"/>
	</linearGradient>
	<path class="st29" d="M340.6,400.1c-1.7,8.9-10.3,14.8-19.2,13.1c-8.7-1.6-14.6-9.9-13.2-18.7c1.5-8.9,22.4-33.1,22.4-33.1   S342.2,391.1,340.6,400.1z"/>
	
		<radialGradient id="SVGID_30_" cx="174.11" cy="149.54" r="120.44" gradientTransform="matrix(1 0 0 -1 0 512)" gradientUnits="userSpaceOnUse">
		<stop offset="0.37" style="stop-color:#292929"/>
		<stop offset="0.64" style="stop-color:#343434;stop-opacity:0.94"/>
		<stop offset="0.79" style="stop-color:#585858;stop-opacity:0.75"/>
		<stop offset="0.91" style="stop-color:#959595;stop-opacity:0.42"/>
		<stop offset="1" style="stop-color:#E3E3E3;stop-opacity:0"/>
	</radialGradient>
	<path class="st30" d="M172.1,156.4c38.9,0,70.5,25.8,70.5,57.6s-31.6,57.6-70.5,57.6s-70.5-25.8-70.5-57.6S133.2,156.4,172.1,156.4   z"/>
	
		<radialGradient id="SVGID_31_" cx="174.11" cy="149.54" r="120.44" gradientTransform="matrix(1 0 0 -1 0 512)" gradientUnits="userSpaceOnUse">
		<stop offset="0.37" style="stop-color:#292929"/>
		<stop offset="0.64" style="stop-color:#343434;stop-opacity:0.94"/>
		<stop offset="0.79" style="stop-color:#585858;stop-opacity:0.75"/>
		<stop offset="0.91" style="stop-color:#959595;stop-opacity:0.42"/>
		<stop offset="1" style="stop-color:#E3E3E3;stop-opacity:0"/>
	</radialGradient>
	<path class="st31" d="M67.1,217.1c15.5,0,28.1,12.2,28.1,27.3s-12.6,27.3-28.1,27.3s-28.1-12.2-28.1-27.3S51.5,217.1,67.1,217.1z"/>
	
		<radialGradient id="SVGID_32_" cx="174.11" cy="149.54" r="120.44" gradientTransform="matrix(1 0 0 -1 0 512)" gradientUnits="userSpaceOnUse">
		<stop offset="0.37" style="stop-color:#292929"/>
		<stop offset="0.64" style="stop-color:#343434;stop-opacity:0.94"/>
		<stop offset="0.79" style="stop-color:#585858;stop-opacity:0.75"/>
		<stop offset="0.91" style="stop-color:#959595;stop-opacity:0.42"/>
		<stop offset="1" style="stop-color:#E3E3E3;stop-opacity:0"/>
	</radialGradient>
	<path class="st32" d="M74.1,238.9H229c12.3,0,22.3,7.3,22.3,16.4c0,9.1-10,16.4-22.3,16.4H74.1c-12.3,0-22.3-7.3-22.3-16.4   S61.8,238.9,74.1,238.9z"/>
	
		<radialGradient id="SVGID_33_" cx="174.11" cy="149.54" r="120.44" gradientTransform="matrix(1 0 0 -1 0 512)" gradientUnits="userSpaceOnUse">
		<stop offset="0.37" style="stop-color:#292929"/>
		<stop offset="0.64" style="stop-color:#343434;stop-opacity:0.94"/>
		<stop offset="0.79" style="stop-color:#585858;stop-opacity:0.75"/>
		<stop offset="0.91" style="stop-color:#959595;stop-opacity:0.42"/>
		<stop offset="1" style="stop-color:#E3E3E3;stop-opacity:0"/>
	</radialGradient>
	<path class="st33" d="M113.1,182c23.2,0,41.9,18.2,41.9,40.7s-18.8,40.7-41.9,40.7s-41.9-18.2-41.9-40.7S90,182,113.1,182z"/>
	
		<radialGradient id="SVGID_34_" cx="171.53" cy="152.33" r="136.26" gradientTransform="matrix(1 0 0 -1 0 512)" gradientUnits="userSpaceOnUse">
		<stop offset="0.37" style="stop-color:#292929"/>
		<stop offset="0.64" style="stop-color:#343434;stop-opacity:0.94"/>
		<stop offset="0.79" style="stop-color:#585858;stop-opacity:0.75"/>
		<stop offset="0.91" style="stop-color:#959595;stop-opacity:0.42"/>
		<stop offset="1" style="stop-color:#E3E3E3;stop-opacity:0"/>
	</radialGradient>
	<path class="st34" d="M233.5,194.4c22,0,39.8,17.3,39.8,38.7s-17.8,38.6-39.8,38.6s-39.8-17.3-39.8-38.6S211.5,194.4,233.5,194.4z"/>
	<path class="st0" d="M162.8,161c36,0,65.2,24.4,65.2,54.4s-29.2,54.4-65.2,54.4s-65.2-24.4-65.2-54.4S126.7,161,162.8,161z"/>
	<path class="st0" d="M65.5,218.3c14.3,0.1,25.7,11.7,25.6,26c-0.1,14.3-11.7,25.7-26,25.6c-14.2-0.1-25.6-11.6-25.6-25.8   C39.6,229.8,51.2,218.3,65.5,218.3z"/>
	<path class="st0" d="M72,238.9h143.4c11.4,0,20.6,6.9,20.6,15.5c0,8.6-9.2,15.5-20.6,15.5H72c-11.4,0-20.6-6.9-20.6-15.5   S60.7,238.9,72,238.9z"/>
	<path class="st0" d="M108.2,185.1c21.3,0.2,38.3,17.6,38.2,38.8c-0.2,21.3-17.6,38.3-38.8,38.2c-21.1-0.2-38.2-17.4-38.2-38.5   C69.4,202.3,86.8,185.1,108.2,185.1C108.1,185.1,108.1,185.1,108.2,185.1z"/>
	<path class="st0" d="M218.2,192.8c21.3,0.2,38.3,17.6,38.2,38.8s-17.6,38.3-38.8,38.2c-21.1-0.2-38.2-17.4-38.2-38.5   C179.5,210,196.9,192.8,218.2,192.8C218.2,192.8,218.2,192.8,218.2,192.8z"/>
	
		<linearGradient id="SVGID_35_" gradientUnits="userSpaceOnUse" x1="165.72" y1="346.09" x2="165.72" y2="237.91" gradientTransform="matrix(1 0 0 -1 0 512)">
		<stop offset="0" style="stop-color:#A5A5A5"/>
		<stop offset="1" style="stop-color:#4F4F50"/>
	</linearGradient>
	<path class="st35" d="M165.7,165.2c36,0,65.2,24.4,65.2,54.4S201.8,274,165.7,274s-65.2-24.4-65.2-54.4S129.7,165.2,165.7,165.2z"/>
	
		<linearGradient id="SVGID_36_" gradientUnits="userSpaceOnUse" x1="68.31" y1="346.09" x2="68.31" y2="237.91" gradientTransform="matrix(1 0 0 -1 0 512)">
		<stop offset="0" style="stop-color:#A5A5A5"/>
		<stop offset="1" style="stop-color:#4F4F50"/>
	</linearGradient>
	<path class="st36" d="M68.5,222.5c14.3,0.1,25.7,11.7,25.6,26c-0.1,14.3-11.7,25.7-26,25.6c-14.2-0.1-25.6-11.6-25.6-25.8   C42.6,234,54.2,222.4,68.5,222.5z"/>
	
		<linearGradient id="SVGID_37_" gradientUnits="userSpaceOnUse" x1="146.685" y1="346.09" x2="146.685" y2="237.91" gradientTransform="matrix(1 0 0 -1 0 512)">
		<stop offset="0" style="stop-color:#A5A5A5"/>
		<stop offset="1" style="stop-color:#4F4F50"/>
	</linearGradient>
	<path class="st37" d="M75,243.1h143.4c11.4,0,20.6,6.9,20.6,15.5c0,8.6-9.2,15.5-20.6,15.5H75c-11.4,0-20.6-6.9-20.6-15.5   S63.6,243.1,75,243.1z"/>
	
		<linearGradient id="SVGID_38_" gradientUnits="userSpaceOnUse" x1="110.79" y1="346.09" x2="110.79" y2="237.91" gradientTransform="matrix(1 0 0 -1 0 512)">
		<stop offset="0" style="stop-color:#A5A5A5"/>
		<stop offset="1" style="stop-color:#4F4F50"/>
	</linearGradient>
	<path class="st38" d="M111.1,189.3c21.3,0.2,38.3,17.6,38.2,38.8s-17.6,38.3-38.8,38.2c-21.1-0.2-38.2-17.4-38.2-38.5   C72.4,206.5,89.8,189.2,111.1,189.3C111.1,189.3,111.1,189.3,111.1,189.3z"/>
	
		<linearGradient id="SVGID_39_" gradientUnits="userSpaceOnUse" x1="220.85" y1="346.09" x2="220.85" y2="237.91" gradientTransform="matrix(1 0 0 -1 0 512)">
		<stop offset="0" style="stop-color:#A5A5A5"/>
		<stop offset="1" style="stop-color:#4F4F50"/>
	</linearGradient>
	<path class="st39" d="M221.2,197c21.3,0.2,38.3,17.6,38.2,38.8s-17.6,38.3-38.8,38.2c-21.1-0.2-38.2-17.4-38.2-38.5   C182.4,214.1,199.8,196.9,221.2,197C221.2,197,221.2,197,221.2,197z"/>
</g>
</svg>