<?xml version="1.0" encoding="UTF-8"?>
<!-- Generator: Adobe Illustrator 21.1.0, SVG Export Plug-In . SVG Version: 6.00 Build 0)  -->
<svg version="1.1" id="Layer_1" xmlns="http://www.w3.org/2000/svg" xmlns:xlink="http://www.w3.org/1999/xlink" x="0px" y="0px" viewBox="0 0 512.8 512.2" style="enable-background:new 0 0 512.8 512.2;" xml:space="preserve">
<style type="text/css">
	.st0{fill:#FFFFFF;}
	.st1{fill:#EFEFEF;}
	.st2{fill:url(#SVGID_1_);}
	.st3{fill:url(#SVGID_2_);}
	.st4{fill:url(#SVGID_3_);}
	.st5{fill:url(#SVGID_4_);}
	.st6{fill:url(#SVGID_5_);}
</style>
<g id="sleet_night">
	<path d="M122.7,447.6c-16.5-9.8,20.8-91.5,20.8-91.5C143.4,359.7,132.6,453.5,122.7,447.6z"/>
	<path d="M169.4,447.6c-16.5-9.8,20.8-91.5,20.8-91.5C190.1,359.7,179.2,453.5,169.4,447.6z"/>
	<path d="M223.2,447.6c-16.5-9.8,20.8-91.5,20.8-91.5C243.8,359.7,233,453.5,223.2,447.6z"/>
	<path d="M269.8,447.6c-16.5-9.8,20.8-91.5,20.8-91.5C290.5,359.7,279.7,453.5,269.8,447.6z"/>
	<path d="M316.5,447.6c-16.5-9.8,20.8-91.5,20.8-91.5C337.2,359.7,326.4,453.5,316.5,447.6z"/>
	<path d="M356.2,381.9c-20.6-12.2,25.9-114.2,25.9-114.2C381.9,272.2,368.4,389.1,356.2,381.9z"/>
	<path d="M306.8,381.9c-20.6-12.2,25.9-114.2,25.9-114.2C332.5,272.2,319,389.1,306.8,381.9z"/>
	<path d="M257.4,381.9c-20.6-12.2,25.9-114.2,25.9-114.2C283.1,272.2,269.6,389.1,257.4,381.9z"/>
	<path d="M208,381.9c-20.6-12.2,25.9-114.2,25.9-114.2C233.7,272.2,220.2,389.1,208,381.9z"/>
	<path d="M158.6,381.9c-20.6-12.2,25.9-114.2,25.9-114.2C184.3,272.2,170.9,389.1,158.6,381.9z"/>
	<path d="M109.2,381.9c-20.6-12.2,25.9-114.2,25.9-114.2C134.9,272.2,121.4,389.1,109.2,381.9z"/>
	<path d="M290.5,50.5c68.4,0,123.8,46.6,123.8,104.1s-55.4,104.1-123.8,104.1S166.6,212,166.6,154.5S222.1,50.5,290.5,50.5z"/>
	<path d="M106,160.1c27.3,0,49.4,22.1,49.4,49.4s-22.1,49.4-49.4,49.4s-49.4-22.1-49.4-49.4l0,0C56.6,182.2,78.7,160.1,106,160.1z"/>
	<path d="M118.3,199.5h272.1c21.6,0,39.1,13.3,39.1,29.6s-17.6,29.6-39.1,29.6H118.3c-21.6,0-39.1-13.3-39.1-29.6   S96.7,199.5,118.3,199.5z"/>
	<path d="M186.9,96.6c40.7,0,73.6,33,73.6,73.7s-33,73.6-73.6,73.6s-73.7-33-73.7-73.6c0,0,0,0,0,0   C113.2,129.6,146.2,96.6,186.9,96.6z"/>
	<path d="M395.7,111.3c40.7,0,73.6,33,73.6,73.7s-33,73.6-73.6,73.6c-40.7,0-73.6-33-73.6-73.6C322.1,144.3,355,111.3,395.7,111.3   C395.7,111.3,395.7,111.3,395.7,111.3z"/>
	<path d="M296.1,58.4c68.4,0,123.8,46.6,123.8,104.1s-55.4,104.1-123.8,104.1S172.2,220,172.2,162.5S227.7,58.4,296.1,58.4z"/>
	<path d="M111.6,168c27.3,0,49.4,22.1,49.4,49.4s-22.1,49.4-49.4,49.4s-49.4-22.1-49.4-49.4l0,0C62.2,190.1,84.3,168,111.6,168z"/>
	<path d="M123.9,207.4H396c21.6,0,39.1,13.3,39.1,29.6s-17.5,29.6-39.1,29.6H123.9c-21.6,0-39.1-13.3-39.1-29.6   S102.3,207.4,123.9,207.4z"/>
	<path d="M192.4,104.6c40.7,0,73.7,33,73.7,73.7s-33,73.6-73.7,73.6s-73.6-33-73.7-73.6C118.8,137.5,151.8,104.6,192.4,104.6   L192.4,104.6z"/>
	<path d="M401.3,119.3c40.7,0,73.7,33,73.7,73.7s-33,73.7-73.7,73.7s-73.6-33-73.6-73.7c0,0,0,0,0,0   C327.7,152.3,360.6,119.3,401.3,119.3z"/>
	<path class="st0" d="M112.8,445.7c-16.5-9.8,20.8-91.5,20.8-91.5C133.4,357.8,122.6,451.5,112.8,445.7z"/>
	<path class="st0" d="M159.5,445.7c-16.5-9.8,20.8-91.5,20.8-91.5C180.1,357.8,169.3,451.5,159.5,445.7z"/>
	<path class="st0" d="M213.2,445.7c-16.5-9.7,20.8-91.5,20.8-91.5C233.9,357.8,223,451.5,213.2,445.7z"/>
	<path class="st0" d="M259.9,445.7c-16.5-9.8,20.8-91.5,20.8-91.5C280.5,357.8,269.7,451.5,259.9,445.7z"/>
	<path class="st0" d="M306.6,445.7c-16.5-9.8,20.8-91.5,20.8-91.5C327.2,357.8,316.4,451.5,306.6,445.7z"/>
	<path class="st0" d="M346.2,380c-20.6-12.2,25.9-114.2,25.9-114.2C372,270.2,358.5,387.2,346.2,380z"/>
	<path class="st0" d="M296.8,380c-20.6-12.2,25.9-114.2,25.9-114.2C322.6,270.2,309.1,387.2,296.8,380z"/>
	<path class="st0" d="M247.4,380c-20.6-12.2,25.9-114.2,25.9-114.2C273.2,270.2,259.7,387.2,247.4,380z"/>
	<path class="st0" d="M198,380c-20.6-12.2,25.9-114.2,25.9-114.2C223.8,270.2,210.3,387.2,198,380z"/>
	<path class="st0" d="M148.6,380c-20.6-12.2,25.9-114.2,25.9-114.2C174.4,270.2,160.9,387.2,148.6,380z"/>
	<path class="st0" d="M99.2,380c-20.6-12.2,25.9-114.2,25.9-114.2C125,270.2,111.5,387.2,99.2,380z"/>
	<path class="st1" d="M270.9,48.5c68.4,0,123.8,46.6,123.8,104.1s-55.4,104.1-123.8,104.1s-123.8-46.6-123.8-104.1   S202.5,48.5,270.9,48.5z"/>
	<path class="st1" d="M86.4,158.1c27.3,0,49.4,22.1,49.4,49.4s-22.1,49.4-49.4,49.4S37,234.8,37,207.6c0,0,0,0,0,0   C37,180.3,59.1,158.1,86.4,158.1z"/>
	<path class="st1" d="M98.7,197.6h272.1c21.6,0,39.1,13.3,39.1,29.6s-17.5,29.6-39.1,29.6H98.7c-21.6,0-39.1-13.3-39.1-29.6   S77.1,197.6,98.7,197.6z"/>
	<path class="st1" d="M167.3,94.7c40.7,0,73.7,33,73.7,73.7s-33,73.6-73.7,73.6s-73.6-33-73.7-73.6   C93.6,127.6,126.6,94.7,167.3,94.7L167.3,94.7z"/>
	<path class="st1" d="M376.1,109.4c40.7,0,73.7,33,73.7,73.7s-33,73.7-73.7,73.7s-73.6-33-73.6-73.7l0,0   C302.5,142.4,335.5,109.4,376.1,109.4z"/>
	
		<linearGradient id="SVGID_1_" gradientUnits="userSpaceOnUse" x1="276.52" y1="454.14" x2="276.52" y2="247.14" gradientTransform="matrix(1 0 0 -1 0 512)">
		<stop offset="0" style="stop-color:#A5A5A5"/>
		<stop offset="1" style="stop-color:#4F4F50"/>
	</linearGradient>
	<path class="st2" d="M276.5,56.5c68.4,0,123.8,46.6,123.8,104.1s-55.4,104.1-123.8,104.1s-123.8-46.6-123.8-104.1   S208.1,56.5,276.5,56.5z"/>
	
		<linearGradient id="SVGID_2_" gradientUnits="userSpaceOnUse" x1="92" y1="454.14" x2="92" y2="247.14" gradientTransform="matrix(1 0 0 -1 0 512)">
		<stop offset="0" style="stop-color:#A5A5A5"/>
		<stop offset="1" style="stop-color:#4F4F50"/>
	</linearGradient>
	<path class="st3" d="M92,166.1c27.3,0,49.4,22.1,49.4,49.4s-22.1,49.4-49.4,49.4s-49.4-22.1-49.4-49.4l0,0   C42.6,188.2,64.7,166.1,92,166.1z"/>
	
		<linearGradient id="SVGID_3_" gradientUnits="userSpaceOnUse" x1="240.395" y1="454.14" x2="240.395" y2="247.14" gradientTransform="matrix(1 0 0 -1 0 512)">
		<stop offset="0" style="stop-color:#A5A5A5"/>
		<stop offset="1" style="stop-color:#4F4F50"/>
	</linearGradient>
	<path class="st4" d="M104.3,205.5h272.1c21.6,0,39.1,13.3,39.1,29.6s-17.5,29.6-39.1,29.6H104.3c-21.6,0-39.1-13.3-39.1-29.6   S82.7,205.5,104.3,205.5z"/>
	
		<linearGradient id="SVGID_4_" gradientUnits="userSpaceOnUse" x1="172.87" y1="454.14" x2="172.87" y2="247.14" gradientTransform="matrix(1 0 0 -1 0 512)">
		<stop offset="0" style="stop-color:#A5A5A5"/>
		<stop offset="1" style="stop-color:#4F4F50"/>
	</linearGradient>
	<path class="st5" d="M172.9,102.6c40.7,0,73.7,33,73.7,73.7s-33,73.7-73.7,73.7s-73.7-33-73.7-73.7l0,0   C99.2,135.6,132.2,102.6,172.9,102.6z"/>
	
		<linearGradient id="SVGID_5_" gradientUnits="userSpaceOnUse" x1="381.74" y1="454.14" x2="381.74" y2="247.14" gradientTransform="matrix(1 0 0 -1 0 512)">
		<stop offset="0" style="stop-color:#A5A5A5"/>
		<stop offset="1" style="stop-color:#4F4F50"/>
	</linearGradient>
	<path class="st6" d="M381.8,117.4c40.7,0,73.6,33,73.6,73.7s-33,73.6-73.7,73.6s-73.6-33-73.6-73.7S341.1,117.4,381.8,117.4   L381.8,117.4z"/>
</g>
</svg>