<?xml version="1.0" encoding="UTF-8"?>
<!-- Generator: Adobe Illustrator 21.1.0, SVG Export Plug-In . SVG Version: 6.00 Build 0)  -->
<svg version="1.1" id="Layer_1" xmlns="http://www.w3.org/2000/svg" xmlns:xlink="http://www.w3.org/1999/xlink" x="0px" y="0px" viewBox="0 0 512.8 512.2" style="enable-background:new 0 0 512.8 512.2;" xml:space="preserve">
<style type="text/css">
	.st0{fill:#FFFFFF;}
	.st1{fill:url(#SVGID_1_);}
	.st2{fill:none;stroke:#848484;stroke-miterlimit:10;}
	.st3{fill:url(#SVGID_2_);}
	.st4{fill:url(#SVGID_3_);}
	.st5{fill:url(#SVGID_4_);}
	.st6{fill:url(#SVGID_5_);}
	.st7{fill:url(#SVGID_6_);}
	.st8{fill:url(#SVGID_7_);}
	.st9{fill:url(#SVGID_8_);}
	.st10{fill:#EDEDED;}
	.st11{fill:url(#SVGID_9_);}
	.st12{fill:url(#SVGID_10_);}
	.st13{fill:url(#SVGID_11_);}
	.st14{fill:url(#SVGID_12_);}
	.st15{fill:url(#SVGID_13_);}
</style>
<g id="isolated_storm_night">
	<path d="M152.4,226.8c-46.7-46.3-48.3-121.8-6.4-176.3C80.9,80.8,52.7,158.2,83,223.3s107.7,93.3,172.9,63   c19.2-8.9,35.9-22.4,48.7-39.3C253.8,272.8,192.5,266.5,152.4,226.8z"/>
	<path d="M202.7,57.7l12.9,22.4l26.3,4.9l-18.3,18.7l3.3,25.4l-24.3-10.9l-24.3,10.9l3.3-25.4L163.4,85l26.3-4.8L202.7,57.7"/>
	<path d="M244.7,159.2l9,15l18.2,3.2l-12.7,12.5l2.3,16.9l-16.8-7.2l-16.8,7.2l2.3-16.9l-12.7-12.5l18.2-3.2L244.7,159.2"/>
	<path class="st0" d="M187.7,57.7l12.9,22.4l26.3,4.9l-18.3,18.7l3.3,25.4l-24.3-10.9l-24.3,10.9l3.3-25.4L148.4,85l26.3-4.8   L187.7,57.7"/>
	<path class="st0" d="M229.7,159.2l9,15l18.2,3.2l-12.7,12.5l2.3,16.9l-16.8-7.2l-16.8,7.2l2.3-16.9l-12.7-12.5l18.2-3.2   L229.7,159.2"/>
	<path d="M265.5,284.9l-21.9,65.8h43.9l-21.9,98.7l87.8-115.2h-38.4l27.4-49.4"/>
	<path d="M324.4,135.7c53.2,0,96.3,36.2,96.3,80.9s-43.1,80.9-96.3,80.9s-96.3-36.2-96.3-80.9S271.2,135.7,324.4,135.7z"/>
	<path d="M180.9,220.9c21.2,0,38.4,17.2,38.4,38.4s-17.2,38.4-38.4,38.4c-21.2,0-38.4-17.2-38.4-38.4   C142.5,238.1,159.7,220.9,180.9,220.9z"/>
	<path d="M190.5,251.5h211.6c16.8,0,30.4,10.3,30.4,23s-13.6,23-30.4,23H190.5c-16.8,0-30.4-10.3-30.4-23S173.7,251.5,190.5,251.5z"/>
	<path d="M243.8,171.6c31.6,0,57.2,25.6,57.2,57.3S275.4,286,243.8,286c-31.6,0-57.2-25.6-57.2-57.2   C186.6,197.2,212.2,171.5,243.8,171.6L243.8,171.6z"/>
	<path d="M406.2,183c31.6,0,57.3,25.6,57.3,57.2c0,31.6-25.6,57.3-57.2,57.3S349,271.9,349,240.3c0,0,0,0,0,0   C349,208.6,374.6,183,406.2,183z"/>
	<path d="M270.9,280.5L249,346.3h43.9l-22,98.7l87.8-115.2h-38.4l27.4-49.4"/>
	<path d="M183.1,434c-28-4.8,12.5-60.4,12.5-60.4C196.2,376,199.8,436.9,183.1,434z"/>
	<path d="M380.6,434c-28-4.8,12.5-60.4,12.5-60.4C393.8,376,397.3,436.9,380.6,434z"/>
	<path d="M177.6,368.2c-28-4.8,12.5-60.4,12.5-60.4C190.8,310.1,194.3,371.1,177.6,368.2z"/>
	<path d="M216,368.2c-28-4.8,12.5-60.4,12.5-60.4C229.2,310.1,232.7,371.1,216,368.2z"/>
	<path d="M375.1,368.2c-28-4.8,12.5-60.4,12.5-60.4C388.3,310.1,391.8,371.1,375.1,368.2z"/>
	<path d="M413.5,368.2c-28-4.8,12.5-60.4,12.5-60.4C426.7,310.1,430.2,371.1,413.5,368.2z"/>
	<path d="M322.4,131c53.5,0,96.9,36.5,96.9,81.5s-43.4,81.5-96.9,81.5s-96.9-36.5-96.9-81.5S268.8,131,322.4,131z"/>
	<path d="M177.9,216.7c21.4,0,38.7,17.3,38.7,38.7s-17.3,38.7-38.7,38.7s-38.7-17.3-38.7-38.7S156.6,216.7,177.9,216.7L177.9,216.7z   "/>
	<path d="M187.6,247.6h213c16.9,0,30.6,10.4,30.6,23.2S417.5,294,400.6,294h-213c-16.9,0-30.6-10.4-30.6-23.2   S170.7,247.6,187.6,247.6z"/>
	<path d="M241.2,167.1c31.8,0,57.7,25.8,57.7,57.7s-25.8,57.7-57.7,57.7s-57.7-25.8-57.7-57.7v0   C183.6,192.9,209.4,167.1,241.2,167.1z"/>
	<path d="M404.7,178.6c31.8,0,57.7,25.8,57.7,57.7s-25.8,57.7-57.7,57.7s-57.6-25.8-57.6-57.7c0,0,0,0,0,0   C347.1,204.4,372.9,178.6,404.7,178.6z"/>
	<path d="M326.7,137.2c53.5,0,96.9,36.5,96.9,81.5s-43.4,81.5-96.9,81.5s-96.9-36.5-96.9-81.5S273.2,137.2,326.7,137.2z"/>
	<path d="M182.3,223c21.4,0,38.7,17.3,38.7,38.7s-17.3,38.7-38.7,38.7s-38.7-17.3-38.7-38.7S160.9,223,182.3,223L182.3,223z"/>
	<path d="M192,253.8h213c16.9,0,30.6,10.4,30.6,23.2s-13.7,23.2-30.6,23.2H192c-16.9,0-30.6-10.4-30.6-23.2S175.1,253.8,192,253.8z"/>
	<path d="M245.6,173.3c31.8,0,57.7,25.8,57.7,57.6s-25.8,57.7-57.6,57.7c-31.8,0-57.7-25.8-57.7-57.6c0,0,0,0,0,0   C188,199.1,213.8,173.3,245.6,173.3z"/>
	<path d="M409.1,184.8c31.8,0,57.7,25.8,57.7,57.7s-25.8,57.7-57.7,57.7s-57.6-25.8-57.6-57.7c0,0,0,0,0,0   C351.5,210.6,377.3,184.8,409.1,184.8z"/>
	
		<linearGradient id="SVGID_1_" gradientUnits="userSpaceOnUse" x1="172.1688" y1="459.31" x2="172.1688" y2="213.48" gradientTransform="matrix(1 0 0 -1 0 512)">
		<stop offset="0" style="stop-color:#FBF49E"/>
		<stop offset="0.99" style="stop-color:#FAA61A"/>
	</linearGradient>
	<path class="st1" d="M136.9,228.6c-46.7-46.3-48.3-121.8-6.4-176.3C65.3,82.8,37.2,160.2,67.6,225.3s107.8,93.2,172.9,62.8   c19.1-8.9,35.7-22.3,48.5-39.1C238.2,274.7,176.9,268.4,136.9,228.6z"/>
	<path class="st0" d="M254.2,284.9l-21.9,65.8h43.9l-21.9,98.7L342,334.2h-38.4l27.4-49.4"/>
	<path class="st2" d="M313.1,135.7c53.2,0,96.3,36.2,96.3,80.9s-43.1,80.9-96.3,80.9s-96.3-36.2-96.3-80.9S260,135.7,313.1,135.7z"/>
	<path class="st2" d="M169.7,220.9c21.2,0,38.4,17.2,38.4,38.4s-17.2,38.4-38.4,38.4c-21.2,0-38.4-17.2-38.4-38.4   C131.3,238.1,148.5,220.9,169.7,220.9z"/>
	<path class="st2" d="M179.3,251.5h211.6c16.8,0,30.4,10.3,30.4,23s-13.6,23-30.4,23H179.3c-16.8,0-30.4-10.3-30.4-23   S162.5,251.5,179.3,251.5z"/>
	<path class="st2" d="M232.6,171.6c31.6,0,57.2,25.6,57.2,57.3c0,31.6-25.6,57.2-57.3,57.2c-31.6,0-57.2-25.6-57.2-57.2   C175.3,197.2,200.9,171.5,232.6,171.6L232.6,171.6z"/>
	<path class="st2" d="M395,183c31.6,0,57.2,25.6,57.2,57.3s-25.6,57.2-57.3,57.2c-31.6,0-57.2-25.6-57.2-57.2   C337.7,208.6,363.3,183,395,183C395,183,395,183,395,183z"/>
	
		<radialGradient id="SVGID_2_" cx="293.19" cy="165.92" r="87.4" gradientTransform="matrix(1 0 0 -1 0 512)" gradientUnits="userSpaceOnUse">
		<stop offset="0" style="stop-color:#FFA800"/>
		<stop offset="1" style="stop-color:#FFE109"/>
	</radialGradient>
	<path class="st3" d="M259.6,280.5l-21.9,65.8h43.9L259.6,445l87.8-115.2H309l27.4-49.4"/>
	
		<linearGradient id="SVGID_3_" gradientUnits="userSpaceOnUse" x1="154.7524" y1="121.1115" x2="190.8624" y2="100.2615" gradientTransform="matrix(1 0 0 -1 0 512)">
		<stop offset="0" style="stop-color:#DCF2FD"/>
		<stop offset="0.47" style="stop-color:#D6EEFD"/>
		<stop offset="0.99" style="stop-color:#2180ED"/>
	</linearGradient>
	<path class="st4" d="M171.9,434c-28-4.8,12.5-60.4,12.5-60.4C185,376,188.5,436.9,171.9,434z"/>
	
		<linearGradient id="SVGID_4_" gradientUnits="userSpaceOnUse" x1="352.2549" y1="121.1158" x2="388.3649" y2="100.2658" gradientTransform="matrix(1 0 0 -1 0 512)">
		<stop offset="0" style="stop-color:#DCF2FD"/>
		<stop offset="0.47" style="stop-color:#D6EEFD"/>
		<stop offset="0.99" style="stop-color:#2180ED"/>
	</linearGradient>
	<path class="st5" d="M369.4,434c-28-4.8,12.5-60.4,12.5-60.4C382.5,376,386,436.9,369.4,434z"/>
	
		<linearGradient id="SVGID_5_" gradientUnits="userSpaceOnUse" x1="149.2608" y1="186.9015" x2="185.3609" y2="166.0515" gradientTransform="matrix(1 0 0 -1 0 512)">
		<stop offset="0" style="stop-color:#DCF2FD"/>
		<stop offset="0.47" style="stop-color:#D6EEFD"/>
		<stop offset="0.99" style="stop-color:#2180ED"/>
	</linearGradient>
	<path class="st6" d="M166.4,368.2c-28-4.8,12.5-60.4,12.5-60.4C179.5,310.1,183,371.1,166.4,368.2z"/>
	
		<linearGradient id="SVGID_6_" gradientUnits="userSpaceOnUse" x1="187.6594" y1="186.899" x2="223.7694" y2="166.049" gradientTransform="matrix(1 0 0 -1 0 512)">
		<stop offset="0" style="stop-color:#DCF2FD"/>
		<stop offset="0.47" style="stop-color:#D6EEFD"/>
		<stop offset="0.99" style="stop-color:#2180ED"/>
	</linearGradient>
	<path class="st7" d="M204.8,368.2c-28-4.8,12.5-60.4,12.5-60.4C217.9,310.1,221.4,371.1,204.8,368.2z"/>
	
		<linearGradient id="SVGID_7_" gradientUnits="userSpaceOnUse" x1="346.7594" y1="186.899" x2="382.8694" y2="166.049" gradientTransform="matrix(1 0 0 -1 0 512)">
		<stop offset="0" style="stop-color:#DCF2FD"/>
		<stop offset="0.47" style="stop-color:#D6EEFD"/>
		<stop offset="0.99" style="stop-color:#2180ED"/>
	</linearGradient>
	<path class="st8" d="M363.9,368.2c-28-4.8,12.5-60.4,12.5-60.4C377,310.1,380.5,371.1,363.9,368.2z"/>
	
		<linearGradient id="SVGID_8_" gradientUnits="userSpaceOnUse" x1="385.1594" y1="186.899" x2="421.2694" y2="166.049" gradientTransform="matrix(1 0 0 -1 0 512)">
		<stop offset="0" style="stop-color:#DCF2FD"/>
		<stop offset="0.47" style="stop-color:#D6EEFD"/>
		<stop offset="0.99" style="stop-color:#2180ED"/>
	</linearGradient>
	<path class="st9" d="M402.3,368.2c-28-4.8,12.5-60.4,12.5-60.4C415.4,310.1,418.9,371.1,402.3,368.2z"/>
	<path class="st10" d="M311.1,131c53.5,0,96.9,36.5,96.9,81.5s-43.4,81.5-96.9,81.5s-96.9-36.5-96.9-81.5S257.5,131,311.1,131z"/>
	<path class="st10" d="M166.6,216.7c21.4,0,38.7,17.3,38.7,38.6c0,21.4-17.3,38.7-38.6,38.7S128,276.8,128,255.4c0,0,0,0,0,0   C128,234.1,145.3,216.7,166.6,216.7z"/>
	<path class="st10" d="M176.3,247.6h213c16.9,0,30.6,10.4,30.6,23.2S406.2,294,389.3,294h-213c-16.9,0-30.6-10.4-30.6-23.2   S159.4,247.6,176.3,247.6z"/>
	<path class="st10" d="M230,167.1c31.8,0,57.7,25.8,57.7,57.7s-25.8,57.7-57.7,57.7s-57.7-25.8-57.7-57.7c0,0,0,0,0,0   C172.4,192.9,198.2,167.1,230,167.1z"/>
	<path class="st10" d="M393.5,178.6c31.8,0,57.7,25.8,57.7,57.7s-25.8,57.7-57.7,57.7s-57.6-25.8-57.6-57.7c0,0,0,0,0,0   C335.8,204.4,361.6,178.6,393.5,178.6z"/>
	
		<linearGradient id="SVGID_9_" gradientUnits="userSpaceOnUse" x1="315.47" y1="373.75" x2="315.47" y2="211.73" gradientTransform="matrix(1 0 0 -1 0 512)">
		<stop offset="0" style="stop-color:#A5A5A5"/>
		<stop offset="0.99" style="stop-color:#4F4F50"/>
	</linearGradient>
	<path class="st11" d="M315.5,137.2c53.5,0,96.9,36.5,96.9,81.5s-43.4,81.5-96.9,81.5s-96.9-36.5-96.9-81.5S261.9,137.2,315.5,137.2   z"/>
	
		<linearGradient id="SVGID_10_" gradientUnits="userSpaceOnUse" x1="171" y1="373.75" x2="171" y2="211.73" gradientTransform="matrix(1 0 0 -1 0 512)">
		<stop offset="0" style="stop-color:#A5A5A5"/>
		<stop offset="0.99" style="stop-color:#4F4F50"/>
	</linearGradient>
	<path class="st12" d="M171,223c21.4,0,38.7,17.3,38.7,38.7s-17.3,38.7-38.7,38.7s-38.7-17.3-38.7-38.7S149.6,223,171,223L171,223z"/>
	
		<linearGradient id="SVGID_11_" gradientUnits="userSpaceOnUse" x1="287.2" y1="373.75" x2="287.2" y2="211.73" gradientTransform="matrix(1 0 0 -1 0 512)">
		<stop offset="0" style="stop-color:#A5A5A5"/>
		<stop offset="0.99" style="stop-color:#4F4F50"/>
	</linearGradient>
	<path class="st13" d="M180.7,253.8h213c16.9,0,30.6,10.4,30.6,23.2s-13.7,23.2-30.6,23.2h-213c-16.9,0-30.6-10.4-30.6-23.2   S163.8,253.8,180.7,253.8z"/>
	
		<linearGradient id="SVGID_12_" gradientUnits="userSpaceOnUse" x1="234.35" y1="373.75" x2="234.35" y2="211.73" gradientTransform="matrix(1 0 0 -1 0 512)">
		<stop offset="0" style="stop-color:#A5A5A5"/>
		<stop offset="0.99" style="stop-color:#4F4F50"/>
	</linearGradient>
	<path class="st14" d="M234.4,173.3c31.8,0,57.7,25.8,57.7,57.7s-25.8,57.6-57.7,57.6s-57.7-25.8-57.7-57.6l0,0   C176.7,199.1,202.5,173.3,234.4,173.3z"/>
	
		<linearGradient id="SVGID_13_" gradientUnits="userSpaceOnUse" x1="397.84" y1="373.75" x2="397.84" y2="211.73" gradientTransform="matrix(1 0 0 -1 0 512)">
		<stop offset="0" style="stop-color:#A5A5A5"/>
		<stop offset="0.99" style="stop-color:#4F4F50"/>
	</linearGradient>
	<path class="st15" d="M397.8,184.8c31.8,0,57.7,25.8,57.7,57.7s-25.8,57.7-57.7,57.7s-57.6-25.8-57.6-57.7c0,0,0,0,0,0   C340.2,210.6,366,184.8,397.8,184.8z"/>
</g>
</svg>