<?xml version="1.0" encoding="UTF-8"?>
<!-- Generator: Adobe Illustrator 21.1.0, SVG Export Plug-In . SVG Version: 6.00 Build 0)  -->
<svg version="1.1" id="Layer_1" xmlns="http://www.w3.org/2000/svg" xmlns:xlink="http://www.w3.org/1999/xlink" x="0px" y="0px" viewBox="0 0 512.8 512.2" style="enable-background:new 0 0 512.8 512.2;" xml:space="preserve">
<style type="text/css">
	.st0{fill:url(#SVGID_1_);}
	.st1{fill:#FFFFFF;}
	.st2{fill:#EFEFEF;}
	.st3{fill:url(#SVGID_2_);}
	.st4{fill:url(#SVGID_3_);}
	.st5{fill:url(#SVGID_4_);}
	.st6{fill:url(#SVGID_5_);}
	.st7{fill:url(#SVGID_6_);}
</style>
<g id="mostly_night">
	<path d="M219.9,299.8c-64.8-64.2-67-169-8.9-244.5c-90.3,42.1-129.4,149.5-87.3,239.8s149.5,129.4,239.8,87.3   c26.5-12.4,49.7-31,67.4-54.3C360.5,363.6,275.5,354.8,219.9,299.8z"/>
	<path d="M309.4,48.8l17.9,31l36.4,6.7l-25.3,25.8l4.6,35.1l-33.5-15l-33.5,15l4.6-35.1l-25.3-25.8l36.4-6.7L309.4,48.8"/>
	<path d="M367.8,188.6l12.4,20.7l25.2,4.4l-17.5,17.2l3.2,23.4l-23.2-10l-23.2,10l3.2-23.4l-17.5-17.2l25.2-4.4L367.8,188.6"/>
	<path d="M209.8,250c18.9,0,34.2,16,34.2,35.7s-15.3,35.7-34.2,35.7s-34.2-16-34.2-35.7S190.9,250,209.8,250z"/>
	<path d="M314.5,195.3c39.8,0,72,28.2,72,63s-32.2,63-72,63s-72-28.2-72-63S274.8,195.3,314.5,195.3z"/>
	<path d="M214.4,285.5h158.2c12.6,0,22.8,8,22.8,17.9s-10.2,17.9-22.8,17.9H214.4c-12.6,0-22.8-8-22.8-17.9S201.8,285.5,214.4,285.5   z"/>
	<path d="M254.2,223.2c23.6,0,42.8,20,42.8,44.6s-19.2,44.6-42.8,44.6s-42.8-20-42.8-44.6S230.6,223.2,254.2,223.2z"/>
	<path d="M375.7,232.1c23.6,0,42.8,20,42.8,44.6s-19.2,44.6-42.8,44.6s-42.8-20-42.8-44.6S352,232.1,375.7,232.1z"/>
	<path d="M214.5,256c19.2,0,34.7,15.5,34.7,34.7s-15.5,34.7-34.7,34.7s-34.7-15.5-34.7-34.7S195.4,256,214.5,256L214.5,256z"/>
	<path d="M320.6,202.7c40.3,0,72.9,27.4,72.9,61.3s-32.6,61.3-72.9,61.3s-72.9-27.4-72.9-61.3S280.3,202.7,320.6,202.7z"/>
	<path d="M219.2,290.5h160.2c12.7,0,23,7.8,23,17.5s-10.3,17.5-23,17.5H219.2c-12.7,0-23-7.8-23-17.5S206.5,290.5,219.2,290.5z"/>
	<path d="M259.5,229.9c24,0,43.4,19.4,43.4,43.4s-19.4,43.4-43.4,43.4s-43.4-19.4-43.4-43.4l0,0   C216.2,249.3,235.6,229.9,259.5,229.9z"/>
	<path d="M382.5,238.6c24,0,43.4,19.4,43.4,43.4c0,24-19.4,43.4-43.4,43.4c-24,0-43.4-19.4-43.4-43.4l0,0   C339.2,258,358.6,238.6,382.5,238.6z"/>
	
		<linearGradient id="SVGID_1_" gradientUnits="userSpaceOnUse" x1="258.25" y1="456.3" x2="258.25" y2="115.31" gradientTransform="matrix(1 0 0 -1 0 512)">
		<stop offset="0" style="stop-color:#FBF49E"/>
		<stop offset="0.99" style="stop-color:#FAA61A"/>
	</linearGradient>
	<path class="st0" d="M209.4,299.8c-64.8-64.2-67-169-8.9-244.5C110.1,97.4,71,204.7,113.1,295s149.5,129.4,239.8,87.3   c26.6-12.4,49.7-31,67.4-54.4C349.9,363.6,264.9,354.8,209.4,299.8z"/>
	<path class="st1" d="M296.6,48.8l17.9,31l36.4,6.7l-25.3,25.8l4.6,35.1l-33.5-15l-33.5,15l4.6-35.1l-25.3-25.8l36.4-6.7L296.6,48.8   "/>
	<path class="st1" d="M355,188.6l12.4,20.7l25.2,4.4L375,230.9l3.2,23.4l-23.2-10l-23.2,10l3.2-23.4l-17.5-17.2l25.2-4.4L355,188.6"/>
	<path class="st2" d="M207,254c18.5,0,33.5,15.6,33.5,34.9s-15,34.9-33.5,34.9s-33.5-15.6-33.5-34.9S188.5,254,207,254z"/>
	<path class="st2" d="M309.5,200.4c38.9,0,70.5,27.6,70.5,61.7s-31.6,61.7-70.5,61.7s-70.5-27.6-70.5-61.7S270.6,200.4,309.5,200.4z   "/>
	<path class="st2" d="M211.6,288.7h154.9c12.3,0,22.3,7.9,22.3,17.6s-10,17.6-22.3,17.6H211.6c-12.3,0-22.3-7.9-22.3-17.6   S199.3,288.7,211.6,288.7z"/>
	<path class="st2" d="M250.6,227.8c23.1,0,41.9,19.5,41.9,43.7s-18.8,43.6-41.9,43.6s-41.9-19.5-41.9-43.6S227.4,227.8,250.6,227.8z   "/>
	<path class="st2" d="M369.4,236.5c23.1,0,41.9,19.5,41.9,43.7s-18.8,43.6-41.9,43.6s-41.9-19.5-41.9-43.6S346.3,236.5,369.4,236.5z   "/>
	
		<linearGradient id="SVGID_2_" gradientUnits="userSpaceOnUse" x1="211.12" y1="304.06" x2="211.12" y2="187.14" gradientTransform="matrix(1 0 0 -1 0 512)">
		<stop offset="0" style="stop-color:#A5A5A5"/>
		<stop offset="1" style="stop-color:#4F4F50"/>
	</linearGradient>
	<path class="st3" d="M211.1,259c18.5,0,33.4,15,33.4,33.4s-15,33.4-33.4,33.4s-33.4-15-33.4-33.4S192.7,259,211.1,259L211.1,259z"/>
	
		<linearGradient id="SVGID_3_" gradientUnits="userSpaceOnUse" x1="313.26" y1="304.06" x2="313.26" y2="187.14" gradientTransform="matrix(1 0 0 -1 0 512)">
		<stop offset="0" style="stop-color:#A5A5A5"/>
		<stop offset="1" style="stop-color:#4F4F50"/>
	</linearGradient>
	<path class="st4" d="M313.3,207.7c38.8,0,70.2,26.4,70.2,59s-31.5,59-70.2,59s-70.3-26.4-70.3-59S274.5,207.7,313.3,207.7z"/>
	
		<linearGradient id="SVGID_4_" gradientUnits="userSpaceOnUse" x1="292.81" y1="304.06" x2="292.81" y2="187.14" gradientTransform="matrix(1 0 0 -1 0 512)">
		<stop offset="0" style="stop-color:#A5A5A5"/>
		<stop offset="1" style="stop-color:#4F4F50"/>
	</linearGradient>
	<path class="st5" d="M215.6,292.2H370c12.3,0,22.2,7.5,22.2,16.8s-9.9,16.8-22.2,16.8H215.6c-12.3,0-22.2-7.5-22.2-16.8   S203.4,292.2,215.6,292.2z"/>
	
		<linearGradient id="SVGID_5_" gradientUnits="userSpaceOnUse" x1="254.49" y1="304.06" x2="254.49" y2="187.14" gradientTransform="matrix(1 0 0 -1 0 512)">
		<stop offset="0" style="stop-color:#A5A5A5"/>
		<stop offset="1" style="stop-color:#4F4F50"/>
	</linearGradient>
	<path class="st6" d="M254.5,233.9c23.1,0,41.8,18.7,41.8,41.8s-18.7,41.8-41.8,41.8s-41.8-18.7-41.8-41.8l0,0   C212.7,252.6,231.4,233.9,254.5,233.9z"/>
	
		<linearGradient id="SVGID_6_" gradientUnits="userSpaceOnUse" x1="372.96" y1="304.06" x2="372.96" y2="187.14" gradientTransform="matrix(1 0 0 -1 0 512)">
		<stop offset="0" style="stop-color:#A5A5A5"/>
		<stop offset="1" style="stop-color:#4F4F50"/>
	</linearGradient>
	<path class="st7" d="M373,242.2c23.1,0,41.8,18.7,41.7,41.8c0,23.1-18.7,41.8-41.8,41.7c-23.1,0-41.7-18.7-41.7-41.8   C331.2,260.9,349.9,242.2,373,242.2C373,242.2,373,242.2,373,242.2z"/>
</g>
</svg>