<?xml version="1.0" encoding="UTF-8"?>
<!-- Generator: Adobe Illustrator 21.1.0, SVG Export Plug-In . SVG Version: 6.00 Build 0)  -->
<svg version="1.1" id="Layer_1" xmlns="http://www.w3.org/2000/svg" xmlns:xlink="http://www.w3.org/1999/xlink" x="0px" y="0px" viewBox="0 0 512.8 512.2" style="enable-background:new 0 0 512.8 512.2;" xml:space="preserve">
<style type="text/css">
	.st0{fill:#EDEDED;}
	.st1{fill:url(#SVGID_1_);}
	.st2{fill:url(#SVGID_2_);}
	.st3{fill:url(#SVGID_3_);}
	.st4{fill:url(#SVGID_4_);}
	.st5{fill:url(#SVGID_5_);}
	.st6{fill:#FFFFFF;}
</style>
<g id="snow_night_-_medium">
	<path d="M286.5,422.9h-14.6l-10.3,10.3l-10.4-10.3h-14.6v-14.6l-10.3-10.3l10.3-10.3V373h14.6l10.3-10.3l10.4,10.3h14.6v14.6   l10.3,10.3l-10.3,10.3V422.9z M256.1,377.9L254,380h-10.5v10.5l-7.4,7.4l7.4,7.4v10.5H254l7.4,7.4l7.4-7.4h10.5v-10.6l7.4-7.4   l-7.4-7.4V380h-10.5l-7.4-7.4L256.1,377.9z"/>
	<path d="M271.5,402.1l4.1-4.1l-4.1-4.1v-5.9h-5.9l-4.1-4.1l-4.1,4.1h-5.9v5.9l-4.1,4.1l4.1,4.1v5.9h5.9l4.1,4.1l4.1-4.1h5.9V402.1z   "/>
	<path d="M242.6,442.6l11.8-44.7h14.1L242.6,442.6z"/>
	<path d="M280.3,442.6l-11.8-44.7h-14.1L280.3,442.6z"/>
	<path d="M242.6,353.2l11.8,44.7h14.1L242.6,353.2z"/>
	<path d="M280.3,353.2l-11.8,44.7h-14.1L280.3,353.2z"/>
	<path d="M216.8,379.1l44.7,11.8V405L216.8,379.1z"/>
	<path d="M216.8,416.8l44.7-11.8v-14.1L216.8,416.8z"/>
	<path d="M306.2,379.1l-44.7,11.8V405L306.2,379.1z"/>
	<path d="M306.2,416.8L261.5,405v-14.1L306.2,416.8z"/>
	<path d="M215.1,351.5h-16.9l-11.9,11.9l-11.9-11.9h-16.9v-16.9l-11.9-11.9l11.9-11.9v-16.9h16.9l11.9-11.9l11.9,11.9h16.9v16.9   l11.9,11.9l-11.9,11.9L215.1,351.5z M180.1,299.6l-2.4,2.4h-12.2v12.1l-8.6,8.6l8.6,8.6v12.1h12.1l8.6,8.6l8.6-8.6H207v-12.1   l8.6-8.6l-8.6-8.6v-12.1h-12.2l-8.6-8.6L180.1,299.6z"/>
	<path d="M197.8,327.4l4.8-4.8l-4.8-4.8v-6.8H191l-4.8-4.8l-4.8,4.8h-6.8v6.8l-4.8,4.8l4.8,4.8v6.8h6.8l4.8,4.8l4.8-4.8h6.8   L197.8,327.4z"/>
	<path d="M164.5,374.3l13.6-51.6h16.3L164.5,374.3z"/>
	<path d="M208,374.3l-13.6-51.6h-16.3L208,374.3z"/>
	<path d="M164.5,271l13.6,51.6h16.3L164.5,271z"/>
	<path d="M208,271l-13.6,51.6h-16.3L208,271z"/>
	<path d="M134.6,300.9l51.6,13.6v16.3L134.6,300.9z"/>
	<path d="M134.6,344.4l51.6-13.6v-16.3L134.6,344.4z"/>
	<path d="M237.9,300.9l-51.6,13.6v16.3L237.9,300.9z"/>
	<path d="M237.9,344.4l-51.6-13.6v-16.3L237.9,344.4z"/>
	<path d="M356.7,326.8H345l-8.2,8.2l-8.3-8.3h-11.7v-11.7l-8.3-8.3l8.3-8.3v-11.7h11.7l8.3-8.3l8.3,8.3h11.7v11.7l8.3,8.3l-8.3,8.3   L356.7,326.8z M332.5,290.8l-1.6,1.6h-8.4v8.4l-6,6l6,6v8.4h8.4l6,6l6-6h8.4v-8.4l6-6l-6-6v-8.4h-8.4l-6-6L332.5,290.8z"/>
	<path d="M344.8,310.1l3.3-3.3l-3.3-3.3v-4.7h-4.7l-3.3-3.3l-3.3,3.3h-4.7v4.7l-3.3,3.3l3.3,3.3v4.7h4.7l3.3,3.3l3.3-3.3h4.7V310.1z   "/>
	<path d="M321.7,342.5l9.4-35.8h11.3L321.7,342.5z"/>
	<path d="M351.8,342.5l-9.4-35.8h-11.3L351.8,342.5z"/>
	<path d="M321.7,271l9.4,35.8h11.3L321.7,271z"/>
	<path d="M351.8,271l-9.4,35.8h-11.3L351.8,271z"/>
	<path d="M301,291.7l35.8,9.4v11.3L301,291.7z"/>
	<path d="M301,321.9l35.8-9.4v-11.3L301,321.9z"/>
	<path d="M372.5,291.7l-35.8,9.4v11.3L372.5,291.7z"/>
	<path d="M372.5,321.9l-35.8-9.4v-11.3L372.5,321.9z"/>
	<path d="M290.5,48.2C359.2,48.2,415,95,415,152.8s-55.8,104.6-124.5,104.6S166,210.6,166,152.8S221.8,48.2,290.5,48.2z"/>
	<path d="M105,158.4c27.4,0,49.7,22.2,49.7,49.6s-22.2,49.7-49.6,49.7S55.4,235.5,55.4,208c0,0,0,0,0,0   C55.4,180.6,77.6,158.4,105,158.4z"/>
	<path d="M117.4,198h273.5c21.7,0,39.3,13.3,39.3,29.8s-17.6,29.8-39.3,29.8H117.4c-21.7,0-39.3-13.3-39.3-29.8S95.7,198,117.4,198z   "/>
	<path d="M186.3,94.6c40.9,0,74,33.1,74,74s-33.1,74-74,74s-74-33.1-74-74C112.3,127.7,145.5,94.6,186.3,94.6L186.3,94.6z"/>
	<path d="M396.3,109.4c40.9,0,74,33.1,74,74s-33.1,74-74,74s-74-33.1-74-74S355.4,109.4,396.3,109.4L396.3,109.4z"/>
	<path d="M296.1,56.2c68.7,0,124.5,46.8,124.5,104.6s-55.7,104.6-124.5,104.6s-124.5-46.8-124.5-104.6S227.4,56.2,296.1,56.2z"/>
	<path d="M110.7,166.4c27.4,0,49.6,22.2,49.6,49.7s-22.2,49.6-49.7,49.6S61,243.4,61,216S83.2,166.4,110.7,166.4   C110.7,166.4,110.7,166.4,110.7,166.4z"/>
	<path d="M123.1,206h273.5c21.7,0,39.3,13.3,39.3,29.8s-17.6,29.8-39.3,29.8H123.1c-21.7,0-39.3-13.3-39.3-29.8S101.3,206,123.1,206   z"/>
	<path d="M192,102.6c40.9,0,74,33.1,74,74s-33.1,74-74,74s-74-33.1-74-74C118,135.7,151.1,102.6,192,102.6L192,102.6z"/>
	<path d="M401.9,117.4c40.9,0,74,33.1,74,74s-33.1,74-74,74s-74-33.1-74-74S361,117.4,401.9,117.4L401.9,117.4z"/>
	<path class="st0" d="M275.5,48.2C344.2,48.2,400,95,400,152.8s-55.8,104.6-124.5,104.6S151,210.6,151,152.8S206.8,48.2,275.5,48.2z   "/>
	<path class="st0" d="M90,158.4c27.4,0,49.7,22.2,49.7,49.6s-22.2,49.7-49.6,49.7S40.4,235.5,40.4,208c0,0,0,0,0,0   C40.4,180.6,62.6,158.4,90,158.4z"/>
	<path class="st0" d="M102.4,198h273.5c21.7,0,39.3,13.3,39.3,29.8s-17.6,29.8-39.3,29.8H102.4c-21.7,0-39.3-13.3-39.3-29.8   S80.7,198,102.4,198z"/>
	<path class="st0" d="M171.3,94.6c40.9,0,74,33.1,74,74s-33.1,74-74,74s-74-33.1-74-74C97.3,127.7,130.5,94.6,171.3,94.6L171.3,94.6   z"/>
	<path class="st0" d="M381.3,109.4c40.9,0,74,33.1,74,74s-33.1,74-74,74s-74-33.1-74-74S340.4,109.4,381.3,109.4L381.3,109.4z"/>
	
		<linearGradient id="SVGID_1_" gradientUnits="userSpaceOnUse" x1="281.12" y1="454.43" x2="281.12" y2="246.38" gradientTransform="matrix(1 0 0 -1 0 512)">
		<stop offset="0" style="stop-color:#A5A5A5"/>
		<stop offset="1" style="stop-color:#4F4F50"/>
	</linearGradient>
	<path class="st1" d="M281.1,56.2c68.7,0,124.5,46.8,124.5,104.6s-55.7,104.6-124.5,104.6s-124.5-46.8-124.5-104.6   S212.4,56.2,281.1,56.2z"/>
	
		<linearGradient id="SVGID_2_" gradientUnits="userSpaceOnUse" x1="95.65" y1="454.43" x2="95.65" y2="246.38" gradientTransform="matrix(1 0 0 -1 0 512)">
		<stop offset="0" style="stop-color:#A5A5A5"/>
		<stop offset="1" style="stop-color:#4F4F50"/>
	</linearGradient>
	<path class="st2" d="M95.7,166.4c27.4,0,49.6,22.2,49.6,49.7s-22.2,49.6-49.7,49.6S46,243.4,46,216S68.2,166.4,95.7,166.4   C95.7,166.4,95.7,166.4,95.7,166.4z"/>
	
		<linearGradient id="SVGID_3_" gradientUnits="userSpaceOnUse" x1="244.82" y1="454.43" x2="244.82" y2="246.38" gradientTransform="matrix(1 0 0 -1 0 512)">
		<stop offset="0" style="stop-color:#A5A5A5"/>
		<stop offset="1" style="stop-color:#4F4F50"/>
	</linearGradient>
	<path class="st3" d="M108.1,206h273.5c21.7,0,39.3,13.3,39.3,29.8s-17.6,29.8-39.3,29.8H108.1c-21.7,0-39.3-13.3-39.3-29.8   S86.3,206,108.1,206z"/>
	
		<linearGradient id="SVGID_4_" gradientUnits="userSpaceOnUse" x1="177" y1="454.43" x2="177" y2="246.38" gradientTransform="matrix(1 0 0 -1 0 512)">
		<stop offset="0" style="stop-color:#A5A5A5"/>
		<stop offset="1" style="stop-color:#4F4F50"/>
	</linearGradient>
	<path class="st4" d="M177,102.6c40.9,0,74,33.1,74,74s-33.1,74-74,74s-74-33.1-74-74C103,135.7,136.1,102.6,177,102.6L177,102.6z"/>
	
		<linearGradient id="SVGID_5_" gradientUnits="userSpaceOnUse" x1="386.89" y1="454.43" x2="386.89" y2="246.38" gradientTransform="matrix(1 0 0 -1 0 512)">
		<stop offset="0" style="stop-color:#A5A5A5"/>
		<stop offset="1" style="stop-color:#4F4F50"/>
	</linearGradient>
	<path class="st5" d="M386.9,117.4c40.9,0,74,33.1,74,74s-33.1,74-74,74s-74-33.1-74-74S346,117.4,386.9,117.4L386.9,117.4z"/>
	<path class="st6" d="M273.6,423.8h-13.9l-9.9,9.9l-9.9-9.9H226v-13.9l-9.9-9.9l9.9-9.9v-13.9h13.9l9.9-9.9l9.9,9.9h13.9v13.9   l9.9,9.9l-9.9,9.9L273.6,423.8z M244.7,381l-2,2h-10v10l-7.1,7.1l7.1,7.1v10h10l7.1,7.1l7.1-7.1h10v-10l7.1-7.1l-7-7.1v-10h-10   l-7.1-7.1L244.7,381z"/>
	<path class="st6" d="M259.3,404l3.9-3.9l-3.9-3.9v-5.6h-5.6l-3.9-3.9l-3.9,3.9h-5.6v5.6l-3.9,3.9l3.9,3.9v5.6h5.6l3.9,3.9l3.9-3.9   h5.6V404z"/>
	<path class="st6" d="M231.9,442.6l11.2-42.6h13.4L231.9,442.6z"/>
	<path class="st6" d="M267.7,442.6l-11.2-42.6h-13.5L267.7,442.6z"/>
	<path class="st6" d="M231.9,357.5l11.2,42.6h13.4L231.9,357.5z"/>
	<path class="st6" d="M267.7,357.5l-11.2,42.6h-13.5L267.7,357.5z"/>
	<path class="st6" d="M207.2,382.1l42.6,11.2v13.5L207.2,382.1z"/>
	<path class="st6" d="M207.2,418l42.6-11.2v-13.5L207.2,418z"/>
	<path class="st6" d="M292.4,382.1l-42.6,11.2v13.5L292.4,382.1z"/>
	<path class="st6" d="M292.4,418l-42.6-11.2v-13.5L292.4,418z"/>
	<path class="st6" d="M199.2,349h-16.4l-11.6,11.6L159.7,349h-16.4v-16.3l-11.6-11.6l11.6-11.6v-16.4h16.4l11.6-11.6l11.6,11.6h16.4   v16.4l11.6,11.6l-11.6,11.6L199.2,349z M165.2,298.6l-2.3,2.3h-11.8v11.8l-8.3,8.3l8.3,8.3v11.8h11.8l8.3,8.3l8.3-8.3h11.8v-11.8   l8.3-8.3l-8.3-8.3V301h-11.8l-8.3-8.3L165.2,298.6z"/>
	<path class="st6" d="M182.4,325.7l4.6-4.6l-4.6-4.6v-6.5h-6.6l-4.6-4.6l-4.6,4.6h-6.6v6.5l-4.6,4.6l4.6,4.6v6.5h6.6l4.6,4.6   l4.6-4.6h6.6V325.7z"/>
	<path class="st6" d="M150.2,371.1l13.2-50h15.8L150.2,371.1z"/>
	<path class="st6" d="M192.3,371.1l-13.2-50h-15.8L192.3,371.1z"/>
	<path class="st6" d="M150.2,271l13.2,50h15.8L150.2,271z"/>
	<path class="st6" d="M192.3,271l-13.2,50.1h-15.8L192.3,271z"/>
	<path class="st6" d="M121.2,300l50,13.2V329L121.2,300z"/>
	<path class="st6" d="M121.2,342.2l50-13.2v-15.8L121.2,342.2z"/>
	<path class="st6" d="M221.3,300l-50.1,13.2V329L221.3,300z"/>
	<path class="st6" d="M221.3,342.2L171.3,329v-15.8L221.3,342.2z"/>
	<path class="st6" d="M341.4,326.8h-11.7l-8.3,8.2l-8.3-8.3h-11.7v-11.7l-8.3-8.3l8.3-8.3v-11.7h11.7l8.3-8.3l8.3,8.3h11.7v11.7   l8.3,8.3l-8.3,8.3L341.4,326.8z M317.1,290.8l-1.6,1.6h-8.4v8.4l-6,6l6,6v8.4h8.4l6,6l6-6h8.4v-8.4l6-6l-6-6v-8.4h-8.4l-6-6   L317.1,290.8z"/>
	<path class="st6" d="M329.4,310.1l3.3-3.3l-3.3-3.3v-4.7h-4.7l-3.3-3.3l-3.3,3.3h-4.7v4.7l-3.3,3.3l3.3,3.3v4.7h4.7l3.3,3.3   l3.3-3.3h4.7V310.1z"/>
	<path class="st6" d="M306.4,342.5l9.4-35.8h11.3L306.4,342.5z"/>
	<path class="st6" d="M336.5,342.5l-9.4-35.8h-11.3L336.5,342.5z"/>
	<path class="st6" d="M306.4,271l9.4,35.8h11.3L306.4,271z"/>
	<path class="st6" d="M336.5,271l-9.4,35.8h-11.3L336.5,271z"/>
	<path class="st6" d="M285.7,291.7l35.8,9.4v11.3L285.7,291.7z"/>
	<path class="st6" d="M285.7,321.9l35.8-9.4v-11.3L285.7,321.9z"/>
	<path class="st6" d="M357.2,291.7l-35.8,9.4v11.3L357.2,291.7z"/>
	<path class="st6" d="M357.2,321.9l-35.8-9.4v-11.3L357.2,321.9z"/>
</g>
</svg>