<?xml version="1.0" encoding="UTF-8"?>
<!-- Generator: Adobe Illustrator 21.1.0, SVG Export Plug-In . SVG Version: 6.00 Build 0)  -->
<svg version="1.1" id="Layer_1" xmlns="http://www.w3.org/2000/svg" xmlns:xlink="http://www.w3.org/1999/xlink" x="0px" y="0px" viewBox="0 0 512.8 512.2" style="enable-background:new 0 0 512.8 512.2;" xml:space="preserve">
<style type="text/css">
	.st0{fill:#292929;}
	.st1{fill:url(#SVGID_1_);}
	.st2{fill:url(#SVGID_2_);}
	.st3{fill:url(#SVGID_3_);}
	.st4{fill:url(#SVGID_4_);}
	.st5{fill:url(#SVGID_5_);}
	.st6{fill:url(#SVGID_6_);}
	.st7{fill:url(#SVGID_7_);}
	.st8{fill:url(#SVGID_8_);}
	.st9{fill:url(#SVGID_9_);}
	.st10{fill:#FFFFFF;}
	.st11{fill:url(#SVGID_10_);}
	.st12{fill:url(#SVGID_11_);}
	.st13{fill:url(#SVGID_12_);}
	.st14{fill:url(#SVGID_13_);}
	.st15{fill:url(#SVGID_14_);}
	.st16{fill:url(#SVGID_15_);}
	.st17{fill:url(#SVGID_16_);}
	.st18{fill:url(#SVGID_17_);}
	.st19{fill:url(#SVGID_18_);}
	.st20{fill:url(#SVGID_19_);}
	.st21{fill:url(#SVGID_20_);}
	.st22{fill:url(#SVGID_21_);}
	.st23{fill:url(#SVGID_22_);}
	.st24{fill:url(#SVGID_23_);}
	.st25{fill:url(#SVGID_24_);}
	.st26{fill:url(#SVGID_25_);}
	.st27{fill:url(#SVGID_26_);}
	.st28{fill:url(#SVGID_27_);}
	.st29{fill:url(#SVGID_28_);}
	.st30{fill:url(#SVGID_29_);}
	.st31{fill:url(#SVGID_30_);}
	.st32{fill:url(#SVGID_31_);}
	.st33{fill:url(#SVGID_32_);}
	.st34{fill:url(#SVGID_33_);}
	.st35{fill:url(#SVGID_34_);}
</style>
<g id="cloudy_day">
	<path class="st0" d="M261.9,144.2c51.5,0,93.3,35.1,93.3,78.4s-41.8,78.4-93.3,78.4s-93.3-35.1-93.3-78.4S210.3,144.2,261.9,144.2z   "/>
	<path class="st0" d="M122.8,226.9c20.6,0,37.2,16.7,37.2,37.2s-16.7,37.2-37.2,37.2s-37.2-16.7-37.2-37.2S102.2,226.9,122.8,226.9   L122.8,226.9z"/>
	<path class="st0" d="M132.1,256.6h205.1c16.3,0,29.5,10,29.5,22.3s-13.2,22.3-29.5,22.3H132.1c-16.3,0-29.5-10-29.5-22.3   S115.8,256.6,132.1,256.6z"/>
	<path class="st0" d="M183.8,179c30.7,0,55.5,24.9,55.5,55.5S214.4,290,183.8,290s-55.5-24.9-55.5-55.5l0,0   C128.2,203.9,153.1,179,183.8,179z"/>
	<path class="st0" d="M341.2,190.1c30.7,0,55.5,24.9,55.5,55.5s-24.9,55.5-55.5,55.5s-55.5-24.9-55.5-55.5S310.5,190.1,341.2,190.1   L341.2,190.1z"/>
	<path class="st0" d="M266.8,152.6c51.5,0,93.3,35.1,93.3,78.4s-41.8,78.4-93.3,78.4s-93.3-35.1-93.3-78.5S215.2,152.6,266.8,152.6z   "/>
	<path class="st0" d="M127.7,235.2c20.6,0,37.2,16.7,37.2,37.2s-16.7,37.2-37.2,37.2S90.5,293,90.4,272.4S107.1,235.2,127.7,235.2   C127.7,235.2,127.7,235.2,127.7,235.2z"/>
	<path class="st0" d="M137,264.9h205.1c16.3,0,29.5,10,29.5,22.3s-13.2,22.3-29.5,22.3H137c-16.3,0-29.5-10-29.5-22.3   S120.7,264.9,137,264.9z"/>
	<path class="st0" d="M188.6,187.4c30.7,0,55.5,24.9,55.5,55.5s-24.9,55.5-55.5,55.5s-55.5-24.9-55.5-55.5l0,0   C133.1,212.2,158,187.4,188.6,187.4z"/>
	<path class="st0" d="M346.1,198.5c30.7,0,55.5,24.9,55.5,55.5s-24.9,55.5-55.5,55.5c-30.6,0-55.5-24.8-55.5-55.5   C290.5,223.3,315.4,198.5,346.1,198.5C346,198.5,346.1,198.5,346.1,198.5z"/>
	<path class="st0" d="M218.3,297.2c21.6,0,39.2,17.6,39.2,39.2c0,21.6-17.6,39.2-39.2,39.2s-39.2-17.6-39.2-39.2   S196.7,297.2,218.3,297.2C218.3,297.2,218.3,297.2,218.3,297.2z"/>
	<path class="st0" d="M338.2,237c45.5,0,82.4,31,82.4,69.3s-36.9,69.3-82.4,69.3s-82.4-31-82.4-69.3S292.7,237,338.2,237z"/>
	<path class="st0" d="M223.6,336.2h181.1c14.4,0,26,8.8,26,19.7s-11.7,19.7-26,19.7H223.6c-14.4,0-26-8.8-26-19.7   S209.2,336.2,223.6,336.2z"/>
	<path class="st0" d="M269.2,267.7c27.1,0,49,21.9,49,49s-21.9,49-49,49s-49-21.9-49-49S242.1,267.7,269.2,267.7L269.2,267.7z"/>
	<path class="st0" d="M408.2,277.5c27.1,0,49,21.9,49,49s-21.9,49-49,49s-49-21.9-49-49S381.2,277.5,408.2,277.5L408.2,277.5z"/>
	<path class="st0" d="M227.3,307.1c22.9,0,41.4,18.5,41.4,41.4S250.2,390,227.3,390s-41.4-18.5-41.4-41.4l0,0   C185.9,325.6,204.4,307.1,227.3,307.1z"/>
	<path class="st0" d="M354,243.5c48.1,0,87.1,32.8,87.1,73.2s-39,73.2-87.1,73.2s-87.1-32.8-87.1-73.2S305.9,243.5,354,243.5z"/>
	<path class="st0" d="M232.9,348.3h191.4c15.2,0,27.5,9.3,27.5,20.9S439.5,390,424.3,390H232.9c-15.2,0-27.5-9.3-27.5-20.9   S217.7,348.3,232.9,348.3z"/>
	<path class="st0" d="M281.1,276c28.6,0,51.8,23.2,51.8,51.8s-23.2,51.8-51.8,51.8s-51.8-23.2-51.8-51.8l0,0   C229.3,299.2,252.5,276,281.1,276z"/>
	<path class="st0" d="M428,286.3c28.6,0,51.8,23.2,51.8,51.8s-23.2,51.8-51.8,51.8s-51.8-23.2-51.8-51.8l0,0   C376.2,309.5,399.4,286.3,428,286.3z"/>
	<path class="st0" d="M239.5,313.4c21.8,0,39.4,17.6,39.4,39.4c0,21.8-17.6,39.4-39.4,39.4s-39.4-17.6-39.4-39.4   S217.7,313.4,239.5,313.4L239.5,313.4z"/>
	<path class="st0" d="M360,252.9c45.8,0,82.9,31.2,82.9,69.7s-37.1,69.7-82.9,69.7s-82.8-31.2-82.8-69.7S314.3,252.9,360,252.9z"/>
	<path class="st0" d="M244.8,352.6h182.1c14.5,0,26.2,8.9,26.2,19.8s-11.7,19.8-26.2,19.8H244.8c-14.5,0-26.2-8.9-26.2-19.8   S230.3,352.6,244.8,352.6z"/>
	<path class="st0" d="M290.7,283.8c27.2,0,49.3,22.1,49.3,49.3c0,27.2-22.1,49.3-49.3,49.3s-49.3-22.1-49.3-49.3l0,0   C241.4,305.9,263.5,283.8,290.7,283.8z"/>
	<path class="st0" d="M430.5,293.6c27.2,0,49.3,22.1,49.3,49.3c0,27.2-22.1,49.3-49.3,49.3c-27.2,0-49.3-22.1-49.3-49.3l0,0   C381.2,315.7,403.3,293.6,430.5,293.6z"/>
	<path class="st0" d="M199.9,279.7c35.5,0,64.3,25,64.3,55.9s-28.8,55.9-64.3,55.9s-64.3-25-64.3-55.9S164.4,279.7,199.9,279.7z"/>
	<path class="st0" d="M104,338.5c14.2,0,25.6,11.9,25.6,26.5s-11.4,26.5-25.6,26.5S78.4,379.7,78.4,365S89.9,338.5,104,338.5z"/>
	<path class="st0" d="M110.5,359.7h141.3c11.2,0,20.3,7.1,20.3,15.9s-9.1,15.9-20.3,15.9H110.5c-11.2,0-20.3-7.1-20.3-15.9   S99.2,359.7,110.5,359.7z"/>
	<path class="st0" d="M146,304.5c21.1,0,38.2,17.7,38.2,39.5s-17.1,39.5-38.2,39.5s-38.2-17.7-38.2-39.5S124.9,304.5,146,304.5z"/>
	<path class="st0" d="M251.6,325.2c17.7,0,32.1,14.8,32.1,33.1s-14.4,33.1-32.1,33.1s-32.1-14.8-32.1-33.1S233.9,325.2,251.6,325.2z   "/>
	<path class="st0" d="M190.7,279.7c35.5,0,64.3,25,64.3,55.9s-28.8,55.9-64.3,55.9s-64.3-25-64.3-55.9S155.2,279.7,190.7,279.7z"/>
	<path class="st0" d="M94.9,338.5c14.2,0,25.7,11.9,25.7,26.5s-11.5,26.5-25.7,26.5S69.2,379.7,69.2,365S80.7,338.5,94.9,338.5z"/>
	<path class="st0" d="M101.3,359.7h141.3c11.2,0,20.3,7.1,20.3,15.9s-9.1,15.9-20.3,15.9H101.3c-11.2,0-20.3-7.1-20.3-15.9   S90.1,359.7,101.3,359.7z"/>
	<path class="st0" d="M136.9,304.5c21.1,0,38.2,17.7,38.2,39.5s-17.2,39.5-38.2,39.5S98.7,365.8,98.7,344S115.8,304.5,136.9,304.5z"/>
	<path class="st0" d="M242.5,325.2c17.7,0,32.1,14.8,32.1,33.1s-14.4,33.1-32.1,33.1s-32.1-14.8-32.1-33.1S224.8,325.2,242.5,325.2z   "/>
	<path class="st0" d="M194.5,287.8c34.6,0,62.7,23.6,62.7,52.7s-28.1,52.7-62.7,52.7s-62.7-23.6-62.7-52.7S159.9,287.8,194.5,287.8z   "/>
	<path class="st0" d="M101,343.3c13.8,0,25,11.2,25,25s-11.2,25-25,25s-25-11.2-25-25l0,0C76,354.5,87.2,343.3,101,343.3z"/>
	<path class="st0" d="M107.3,363.3h137.8c11,0,19.8,6.7,19.8,15s-8.9,15-19.8,15H107.3c-10.9,0-19.8-6.7-19.8-15   S96.3,363.3,107.3,363.3z"/>
	<path class="st0" d="M142,311.2c20.6,0,37.3,16.7,37.3,37.3s-16.7,37.3-37.3,37.3s-37.3-16.7-37.3-37.3l0,0   C104.7,327.9,121.4,311.2,142,311.2z"/>
	<path class="st0" d="M245,330.8c17.3,0,31.3,14,31.3,31.3c0,17.3-14,31.3-31.3,31.3s-31.3-14-31.3-31.3l0,0   C213.7,344.8,227.7,330.8,245,330.8z"/>
	<path class="st0" d="M205.8,88.9c56.1,0,101.6,45.5,101.6,101.6S262,292.1,205.8,292.1s-101.6-45.5-101.6-101.6c0,0,0,0,0,0   C104.2,134.4,149.7,88.9,205.8,88.9z"/>
	<path class="st0" d="M205.8,339.7l-19.1-33.1H225L205.8,339.7z"/>
	<path class="st0" d="M205.8,41.5l-19.1,33.1H225L205.8,41.5z"/>
	<path class="st0" d="M56.5,190.7l33.1-19.1v38.3L56.5,190.7z"/>
	<path class="st0" d="M355,190.7l-33.1-19.1v38.3L355,190.7z"/>
	<path class="st0" d="M313.3,293l-9.9-37l-27,27L313.3,293z"/>
	<path class="st0" d="M317.1,92.5l-37,9.9l27,27.1L317.1,92.5z"/>
	<path class="st0" d="M97.9,293l9.9-37l27,27L97.9,293z"/>
	<path class="st0" d="M94,92.5l37,9.9l-27.1,27.1L94,92.5z"/>
	
		<radialGradient id="SVGID_1_" cx="188.95" cy="320.85" r="147.27" gradientTransform="matrix(1 0 0 -1 0 512)" gradientUnits="userSpaceOnUse">
		<stop offset="0" style="stop-color:#FBF49E"/>
		<stop offset="0.99" style="stop-color:#FAA61A"/>
	</radialGradient>
	<path class="st1" d="M188.7,88.9c56.1,0,101.6,45.5,101.6,101.6s-45.5,101.6-101.6,101.6S87.1,246.6,87.1,190.5c0,0,0,0,0,0   C87.1,134.4,132.6,88.9,188.7,88.9z"/>
	
		<radialGradient id="SVGID_2_" cx="188.95" cy="320.85" r="147.27" gradientTransform="matrix(1 0 0 -1 0 512)" gradientUnits="userSpaceOnUse">
		<stop offset="0" style="stop-color:#FBF49E"/>
		<stop offset="0.99" style="stop-color:#FAA61A"/>
	</radialGradient>
	<path class="st2" d="M188.7,339.7l-19.1-33.1h38.3L188.7,339.7z"/>
	
		<radialGradient id="SVGID_3_" cx="188.95" cy="320.85" r="147.27" gradientTransform="matrix(1 0 0 -1 0 512)" gradientUnits="userSpaceOnUse">
		<stop offset="0" style="stop-color:#FBF49E"/>
		<stop offset="0.99" style="stop-color:#FAA61A"/>
	</radialGradient>
	<path class="st3" d="M188.7,41.5l-19.1,33.1h38.3L188.7,41.5z"/>
	
		<radialGradient id="SVGID_4_" cx="188.95" cy="320.85" r="147.27" gradientTransform="matrix(1 0 0 -1 0 512)" gradientUnits="userSpaceOnUse">
		<stop offset="0" style="stop-color:#FBF49E"/>
		<stop offset="0.99" style="stop-color:#FAA61A"/>
	</radialGradient>
	<path class="st4" d="M39.3,190.7l33.1-19.1v38.3L39.3,190.7z"/>
	
		<radialGradient id="SVGID_5_" cx="188.95" cy="320.85" r="147.27" gradientTransform="matrix(1 0 0 -1 0 512)" gradientUnits="userSpaceOnUse">
		<stop offset="0" style="stop-color:#FBF49E"/>
		<stop offset="0.99" style="stop-color:#FAA61A"/>
	</radialGradient>
	<path class="st5" d="M337.9,190.7l-33.1-19.1v38.3L337.9,190.7z"/>
	
		<radialGradient id="SVGID_6_" cx="188.95" cy="320.85" r="147.27" gradientTransform="matrix(1 0 0 -1 0 512)" gradientUnits="userSpaceOnUse">
		<stop offset="0" style="stop-color:#FBF49E"/>
		<stop offset="0.99" style="stop-color:#FAA61A"/>
	</radialGradient>
	<path class="st6" d="M296.1,293l-9.9-37l-27,27L296.1,293z"/>
	
		<radialGradient id="SVGID_7_" cx="188.95" cy="320.85" r="147.27" gradientTransform="matrix(1 0 0 -1 0 512)" gradientUnits="userSpaceOnUse">
		<stop offset="0" style="stop-color:#FBF49E"/>
		<stop offset="0.99" style="stop-color:#FAA61A"/>
	</radialGradient>
	<path class="st7" d="M300,92.5l-37,9.9l27,27.1L300,92.5z"/>
	
		<radialGradient id="SVGID_8_" cx="188.95" cy="320.85" r="147.27" gradientTransform="matrix(1 0 0 -1 0 512)" gradientUnits="userSpaceOnUse">
		<stop offset="0" style="stop-color:#FBF49E"/>
		<stop offset="0.99" style="stop-color:#FAA61A"/>
	</radialGradient>
	<path class="st8" d="M80.7,293l9.9-37l27,27L80.7,293z"/>
	
		<radialGradient id="SVGID_9_" cx="188.95" cy="320.85" r="147.27" gradientTransform="matrix(1 0 0 -1 0 512)" gradientUnits="userSpaceOnUse">
		<stop offset="0" style="stop-color:#FBF49E"/>
		<stop offset="0.99" style="stop-color:#FAA61A"/>
	</radialGradient>
	<path class="st9" d="M76.8,92.5l37,9.9l-27.1,27.1L76.8,92.5z"/>
	<path class="st10" d="M253,144.2c51.5,0,93.3,35.1,93.3,78.4s-41.8,78.4-93.3,78.4s-93.3-35.1-93.3-78.4S201.5,144.2,253,144.2z"/>
	<path class="st10" d="M114,226.9c20.6,0,37.2,16.7,37.2,37.2s-16.7,37.2-37.2,37.2s-37.2-16.7-37.2-37.2S93.4,226.9,114,226.9   L114,226.9z"/>
	<path class="st10" d="M123.3,256.6h205.1c16.3,0,29.5,10,29.5,22.3s-13.2,22.3-29.5,22.3H123.3c-16.3,0-29.5-10-29.5-22.3   S107,256.6,123.3,256.6z"/>
	<path class="st10" d="M174.9,179c30.7,0,55.5,24.9,55.5,55.5S205.6,290,174.9,290s-55.5-24.9-55.5-55.5l0,0   C119.4,203.9,144.3,179,174.9,179z"/>
	<path class="st10" d="M332.3,190.1c30.7,0,55.5,24.9,55.5,55.5s-24.9,55.5-55.5,55.5s-55.5-24.9-55.5-55.5S301.7,190.1,332.3,190.1   L332.3,190.1z"/>
	
		<linearGradient id="SVGID_10_" gradientUnits="userSpaceOnUse" x1="257.91" y1="359.41" x2="257.91" y2="201.78" gradientTransform="matrix(1 0 0 -1 0 512)">
		<stop offset="0" style="stop-color:#E3E3E3"/>
		<stop offset="0.99" style="stop-color:#808081"/>
	</linearGradient>
	<path class="st11" d="M257.9,152.6c51.5,0,93.3,35.1,93.3,78.4s-41.8,78.4-93.3,78.4s-93.3-35.1-93.3-78.5S206.4,152.6,257.9,152.6   z"/>
	
		<linearGradient id="SVGID_11_" gradientUnits="userSpaceOnUse" x1="118.84" y1="359.37" x2="118.84" y2="201.74" gradientTransform="matrix(1 0 0 -1 0 512)">
		<stop offset="0" style="stop-color:#E3E3E3"/>
		<stop offset="0.99" style="stop-color:#808081"/>
	</linearGradient>
	<path class="st12" d="M118.8,235.2c20.6,0,37.2,16.7,37.2,37.2s-16.7,37.2-37.2,37.2S81.6,293,81.6,272.4S98.3,235.2,118.8,235.2   L118.8,235.2z"/>
	
		<linearGradient id="SVGID_12_" gradientUnits="userSpaceOnUse" x1="230.69" y1="359.37" x2="230.69" y2="201.74" gradientTransform="matrix(1 0 0 -1 0 512)">
		<stop offset="0" style="stop-color:#E3E3E3"/>
		<stop offset="0.99" style="stop-color:#808081"/>
	</linearGradient>
	<path class="st13" d="M128.1,264.9h205.1c16.3,0,29.5,10,29.5,22.3s-13.2,22.3-29.5,22.3H128.1c-16.3,0-29.5-10-29.5-22.3   S111.9,264.9,128.1,264.9z"/>
	
		<linearGradient id="SVGID_13_" gradientUnits="userSpaceOnUse" x1="179.8" y1="359.37" x2="179.8" y2="201.74" gradientTransform="matrix(1 0 0 -1 0 512)">
		<stop offset="0" style="stop-color:#E3E3E3"/>
		<stop offset="0.99" style="stop-color:#808081"/>
	</linearGradient>
	<path class="st14" d="M179.8,187.4c30.7,0,55.5,24.9,55.5,55.5s-24.9,55.5-55.5,55.5s-55.5-24.9-55.5-55.5l0,0   C124.3,212.2,149.1,187.4,179.8,187.4z"/>
	
		<linearGradient id="SVGID_14_" gradientUnits="userSpaceOnUse" x1="337.22" y1="359.37" x2="337.22" y2="201.74" gradientTransform="matrix(1 0 0 -1 0 512)">
		<stop offset="0" style="stop-color:#E3E3E3"/>
		<stop offset="0.99" style="stop-color:#808081"/>
	</linearGradient>
	<path class="st15" d="M337.2,198.5c30.7,0,55.5,24.9,55.5,55.5s-24.9,55.5-55.5,55.5c-30.6,0-55.5-24.8-55.5-55.5   C281.7,223.3,306.5,198.5,337.2,198.5C337.2,198.5,337.2,198.5,337.2,198.5z"/>
	
		<radialGradient id="SVGID_15_" cx="317.21" cy="171.52" r="122.85" gradientTransform="matrix(1 0 0 -1 0 512)" gradientUnits="userSpaceOnUse">
		<stop offset="0.37" style="stop-color:#292929;stop-opacity:0.6"/>
		<stop offset="0.69" style="stop-color:#3B3B3B;stop-opacity:0.54"/>
		<stop offset="0.86" style="stop-color:#777777;stop-opacity:0.35"/>
		<stop offset="0.99" style="stop-color:#DEDEDE;stop-opacity:2.000000e-02"/>
		<stop offset="1" style="stop-color:#E3E3E3;stop-opacity:0"/>
	</radialGradient>
	<path class="st16" d="M209.5,297.2c21.6,0,39.2,17.6,39.2,39.2c0,21.6-17.6,39.2-39.2,39.2s-39.2-17.6-39.2-39.2   S187.8,297.2,209.5,297.2C209.5,297.2,209.5,297.2,209.5,297.2z"/>
	
		<radialGradient id="SVGID_16_" cx="317.21" cy="171.52" r="122.85" gradientTransform="matrix(1 0 0 -1 0 512)" gradientUnits="userSpaceOnUse">
		<stop offset="0.37" style="stop-color:#292929;stop-opacity:0.6"/>
		<stop offset="0.69" style="stop-color:#3B3B3B;stop-opacity:0.54"/>
		<stop offset="0.86" style="stop-color:#777777;stop-opacity:0.35"/>
		<stop offset="0.99" style="stop-color:#DEDEDE;stop-opacity:2.000000e-02"/>
		<stop offset="1" style="stop-color:#E3E3E3;stop-opacity:0"/>
	</radialGradient>
	<path class="st17" d="M329.3,237c45.5,0,82.4,31,82.4,69.3s-36.9,69.3-82.4,69.3s-82.4-31-82.4-69.3S283.8,237,329.3,237z"/>
	
		<radialGradient id="SVGID_17_" cx="317.21" cy="171.52" r="122.85" gradientTransform="matrix(1 0 0 -1 0 512)" gradientUnits="userSpaceOnUse">
		<stop offset="0.37" style="stop-color:#292929;stop-opacity:0.6"/>
		<stop offset="0.69" style="stop-color:#3B3B3B;stop-opacity:0.54"/>
		<stop offset="0.86" style="stop-color:#777777;stop-opacity:0.35"/>
		<stop offset="0.99" style="stop-color:#DEDEDE;stop-opacity:2.000000e-02"/>
		<stop offset="1" style="stop-color:#E3E3E3;stop-opacity:0"/>
	</radialGradient>
	<path class="st18" d="M214.7,336.2h181.1c14.4,0,26,8.8,26,19.7s-11.7,19.7-26,19.7H214.7c-14.4,0-26-8.8-26-19.7   S200.4,336.2,214.7,336.2z"/>
	
		<radialGradient id="SVGID_18_" cx="317.21" cy="171.52" r="122.85" gradientTransform="matrix(1 0 0 -1 0 512)" gradientUnits="userSpaceOnUse">
		<stop offset="0.37" style="stop-color:#292929;stop-opacity:0.6"/>
		<stop offset="0.69" style="stop-color:#3B3B3B;stop-opacity:0.54"/>
		<stop offset="0.86" style="stop-color:#777777;stop-opacity:0.35"/>
		<stop offset="0.99" style="stop-color:#DEDEDE;stop-opacity:2.000000e-02"/>
		<stop offset="1" style="stop-color:#E3E3E3;stop-opacity:0"/>
	</radialGradient>
	<path class="st19" d="M260.4,267.7c27.1,0,49,21.9,49,49s-21.9,49-49,49s-49-21.9-49-49S233.3,267.7,260.4,267.7L260.4,267.7z"/>
	
		<radialGradient id="SVGID_19_" cx="317.21" cy="171.52" r="122.85" gradientTransform="matrix(1 0 0 -1 0 512)" gradientUnits="userSpaceOnUse">
		<stop offset="0.37" style="stop-color:#292929;stop-opacity:0.6"/>
		<stop offset="0.69" style="stop-color:#3B3B3B;stop-opacity:0.54"/>
		<stop offset="0.86" style="stop-color:#777777;stop-opacity:0.35"/>
		<stop offset="0.99" style="stop-color:#DEDEDE;stop-opacity:2.000000e-02"/>
		<stop offset="1" style="stop-color:#E3E3E3;stop-opacity:0"/>
	</radialGradient>
	<path class="st20" d="M399.4,277.5c27.1,0,49,21.9,49,49s-21.9,49-49,49s-49-21.9-49-49S372.3,277.5,399.4,277.5L399.4,277.5z"/>
	<path class="st10" d="M218.5,307.1c22.9,0,41.4,18.6,41.4,41.5c0,22.9-18.6,41.4-41.5,41.4c-22.9,0-41.4-18.6-41.4-41.4   C177,325.6,195.5,307.1,218.5,307.1C218.4,307.1,218.4,307.1,218.5,307.1z"/>
	<path class="st10" d="M345.1,243.5c48.1,0,87.1,32.8,87.1,73.2s-39,73.2-87.1,73.2S258,357.1,258,316.7S297,243.5,345.1,243.5z"/>
	<path class="st10" d="M224,348.3h191.4c15.2,0,27.5,9.3,27.5,20.9S430.6,390,415.4,390H224c-15.2,0-27.5-9.3-27.5-20.9   S208.8,348.3,224,348.3z"/>
	<path class="st10" d="M272.2,276c28.6,0,51.8,23.2,51.8,51.8s-23.2,51.8-51.8,51.8s-51.8-23.2-51.8-51.8l0,0   C220.4,299.2,243.6,276,272.2,276z"/>
	<path class="st10" d="M419.2,286.3c28.6,0,51.8,23.2,51.8,51.8s-23.2,51.8-51.8,51.8s-51.8-23.2-51.8-51.8l0,0   C367.4,309.5,390.6,286.3,419.2,286.3z"/>
	
		<linearGradient id="SVGID_20_" gradientUnits="userSpaceOnUse" x1="230.65" y1="258.82" x2="230.65" y2="120.86" gradientTransform="matrix(1 0 0 -1 0 512)">
		<stop offset="0" style="stop-color:#E3E3E3"/>
		<stop offset="0.99" style="stop-color:#808081"/>
	</linearGradient>
	<path class="st21" d="M230.6,313.4c21.8,0,39.4,17.6,39.4,39.4c0,21.8-17.6,39.4-39.4,39.4s-39.4-17.6-39.4-39.4   S208.9,313.4,230.6,313.4L230.6,313.4z"/>
	
		<linearGradient id="SVGID_21_" gradientUnits="userSpaceOnUse" x1="351.2" y1="258.82" x2="351.2" y2="120.86" gradientTransform="matrix(1 0 0 -1 0 512)">
		<stop offset="0" style="stop-color:#E3E3E3"/>
		<stop offset="0.99" style="stop-color:#808081"/>
	</linearGradient>
	<path class="st22" d="M351.2,252.9c45.8,0,82.9,31.2,82.9,69.7s-37.1,69.7-82.9,69.7s-82.9-31.2-82.9-69.7S305.4,252.9,351.2,252.9   z"/>
	
		<linearGradient id="SVGID_22_" gradientUnits="userSpaceOnUse" x1="327.045" y1="258.82" x2="327.045" y2="120.86" gradientTransform="matrix(1 0 0 -1 0 512)">
		<stop offset="0" style="stop-color:#E3E3E3"/>
		<stop offset="0.99" style="stop-color:#808081"/>
	</linearGradient>
	<path class="st23" d="M236,352.6h182.1c14.5,0,26.2,8.9,26.2,19.8s-11.7,19.8-26.2,19.8H236c-14.5,0-26.2-8.9-26.2-19.8   S221.5,352.6,236,352.6z"/>
	
		<linearGradient id="SVGID_23_" gradientUnits="userSpaceOnUse" x1="281.83" y1="258.82" x2="281.83" y2="120.86" gradientTransform="matrix(1 0 0 -1 0 512)">
		<stop offset="0" style="stop-color:#E3E3E3"/>
		<stop offset="0.99" style="stop-color:#808081"/>
	</linearGradient>
	<path class="st24" d="M281.8,283.8c27.2,0,49.3,22.1,49.3,49.3c0,27.2-22.1,49.3-49.3,49.3s-49.3-22.1-49.3-49.3l0,0   C232.5,305.9,254.6,283.8,281.8,283.8z"/>
	
		<linearGradient id="SVGID_24_" gradientUnits="userSpaceOnUse" x1="421.63" y1="258.82" x2="421.63" y2="120.86" gradientTransform="matrix(1 0 0 -1 0 512)">
		<stop offset="0" style="stop-color:#E3E3E3"/>
		<stop offset="0.99" style="stop-color:#808081"/>
	</linearGradient>
	<path class="st25" d="M421.6,293.6c27.2,0,49.3,22.1,49.3,49.3c0,27.2-22.1,49.3-49.3,49.3c-27.2,0-49.3-22.1-49.3-49.3l0,0   C372.3,315.7,394.4,293.6,421.6,293.6z"/>
	
		<radialGradient id="SVGID_25_" cx="192.83" cy="139.78" r="109.85" gradientTransform="matrix(1 0 0 -1 0 512)" gradientUnits="userSpaceOnUse">
		<stop offset="0.37" style="stop-color:#292929;stop-opacity:0.6"/>
		<stop offset="0.69" style="stop-color:#3B3B3B;stop-opacity:0.54"/>
		<stop offset="0.86" style="stop-color:#777777;stop-opacity:0.35"/>
		<stop offset="0.99" style="stop-color:#DEDEDE;stop-opacity:2.000000e-02"/>
		<stop offset="1" style="stop-color:#E3E3E3;stop-opacity:0"/>
	</radialGradient>
	<path class="st26" d="M191,279.7c35.5,0,64.3,25,64.3,55.9s-28.8,55.9-64.3,55.9s-64.3-25-64.3-55.9S155.5,279.7,191,279.7z"/>
	
		<radialGradient id="SVGID_26_" cx="192.83" cy="139.78" r="109.85" gradientTransform="matrix(1 0 0 -1 0 512)" gradientUnits="userSpaceOnUse">
		<stop offset="0.37" style="stop-color:#292929;stop-opacity:0.6"/>
		<stop offset="0.69" style="stop-color:#3B3B3B;stop-opacity:0.54"/>
		<stop offset="0.86" style="stop-color:#777777;stop-opacity:0.35"/>
		<stop offset="0.99" style="stop-color:#DEDEDE;stop-opacity:2.000000e-02"/>
		<stop offset="1" style="stop-color:#E3E3E3;stop-opacity:0"/>
	</radialGradient>
	<path class="st27" d="M95.2,338.5c14.2,0,25.7,11.9,25.7,26.5s-11.5,26.5-25.7,26.5S69.5,379.7,69.5,365S81,338.5,95.2,338.5z"/>
	
		<radialGradient id="SVGID_27_" cx="192.83" cy="139.78" r="109.85" gradientTransform="matrix(1 0 0 -1 0 512)" gradientUnits="userSpaceOnUse">
		<stop offset="0.37" style="stop-color:#292929;stop-opacity:0.6"/>
		<stop offset="0.69" style="stop-color:#3B3B3B;stop-opacity:0.54"/>
		<stop offset="0.86" style="stop-color:#777777;stop-opacity:0.35"/>
		<stop offset="0.99" style="stop-color:#DEDEDE;stop-opacity:2.000000e-02"/>
		<stop offset="1" style="stop-color:#E3E3E3;stop-opacity:0"/>
	</radialGradient>
	<path class="st28" d="M101.6,359.7h141.3c11.2,0,20.3,7.1,20.3,15.9s-9.1,15.9-20.3,15.9H101.6c-11.2,0-20.3-7.1-20.3-15.9   S90.4,359.7,101.6,359.7z"/>
	
		<radialGradient id="SVGID_28_" cx="192.83" cy="139.78" r="109.85" gradientTransform="matrix(1 0 0 -1 0 512)" gradientUnits="userSpaceOnUse">
		<stop offset="0.37" style="stop-color:#292929;stop-opacity:0.6"/>
		<stop offset="0.69" style="stop-color:#3B3B3B;stop-opacity:0.54"/>
		<stop offset="0.86" style="stop-color:#777777;stop-opacity:0.35"/>
		<stop offset="0.99" style="stop-color:#DEDEDE;stop-opacity:2.000000e-02"/>
		<stop offset="1" style="stop-color:#E3E3E3;stop-opacity:0"/>
	</radialGradient>
	<path class="st29" d="M137.2,304.5c21.1,0,38.2,17.7,38.2,39.5s-17.1,39.5-38.2,39.5S99,365.8,99,344S116.1,304.5,137.2,304.5z"/>
	
		<radialGradient id="SVGID_29_" cx="192.83" cy="139.78" r="109.85" gradientTransform="matrix(1 0 0 -1 0 512)" gradientUnits="userSpaceOnUse">
		<stop offset="0.37" style="stop-color:#292929;stop-opacity:0.6"/>
		<stop offset="0.69" style="stop-color:#3B3B3B;stop-opacity:0.54"/>
		<stop offset="0.86" style="stop-color:#777777;stop-opacity:0.35"/>
		<stop offset="0.99" style="stop-color:#DEDEDE;stop-opacity:2.000000e-02"/>
		<stop offset="1" style="stop-color:#E3E3E3;stop-opacity:0"/>
	</radialGradient>
	<path class="st30" d="M242.8,325.2c17.7,0,32.1,14.8,32.1,33.1s-14.4,33.1-32.1,33.1s-32.1-14.8-32.1-33.1S225.1,325.2,242.8,325.2   z"/>
	<path class="st10" d="M181.9,279.7c35.5,0,64.3,25,64.3,55.9s-28.8,55.9-64.3,55.9s-64.3-25-64.3-55.9S146.4,279.7,181.9,279.7z"/>
	<path class="st10" d="M86.1,338.5c14.2,0,25.7,11.9,25.7,26.5s-11.5,26.5-25.7,26.5S60.4,379.7,60.4,365S71.9,338.5,86.1,338.5z"/>
	<path class="st10" d="M92.5,359.7h141.3c11.2,0,20.3,7.1,20.3,15.9s-9.1,15.9-20.3,15.9H92.5c-11.2,0-20.3-7.1-20.3-15.9   S81.2,359.7,92.5,359.7z"/>
	<path class="st10" d="M128.1,304.5c21.1,0,38.2,17.7,38.2,39.5s-17.1,39.5-38.2,39.5S89.8,365.8,89.8,344S106.9,304.5,128.1,304.5z   "/>
	<path class="st10" d="M233.7,325.2c17.7,0,32.1,14.8,32.1,33.1s-14.4,33.1-32.1,33.1s-32.1-14.8-32.1-33.1S215.9,325.2,233.7,325.2   z"/>
	
		<linearGradient id="SVGID_30_" gradientUnits="userSpaceOnUse" x1="185.65" y1="222.4" x2="185.65" y2="115.94" gradientTransform="matrix(1 0 0 -1 0 512)">
		<stop offset="0" style="stop-color:#E3E3E3"/>
		<stop offset="0.99" style="stop-color:#808081"/>
	</linearGradient>
	<path class="st31" d="M185.6,287.8c34.6,0,62.7,23.6,62.7,52.7s-28.1,52.7-62.7,52.7s-62.7-23.6-62.7-52.7S151,287.8,185.6,287.8z"/>
	
		<linearGradient id="SVGID_31_" gradientUnits="userSpaceOnUse" x1="92.19" y1="222.4" x2="92.19" y2="115.94" gradientTransform="matrix(1 0 0 -1 0 512)">
		<stop offset="0" style="stop-color:#E3E3E3"/>
		<stop offset="0.99" style="stop-color:#808081"/>
	</linearGradient>
	<path class="st32" d="M92.2,343.3c13.8,0,25,11.2,25,25s-11.2,25-25,25s-25-11.2-25-25l0,0C67.2,354.5,78.4,343.3,92.2,343.3z"/>
	
		<linearGradient id="SVGID_32_" gradientUnits="userSpaceOnUse" x1="167.36" y1="222.4" x2="167.36" y2="115.94" gradientTransform="matrix(1 0 0 -1 0 512)">
		<stop offset="0" style="stop-color:#E3E3E3"/>
		<stop offset="0.99" style="stop-color:#808081"/>
	</linearGradient>
	<path class="st33" d="M98.4,363.3h137.8c10.9,0,19.8,6.7,19.8,15s-8.9,15-19.8,15H98.4c-10.9,0-19.8-6.7-19.8-15   S87.5,363.3,98.4,363.3z"/>
	
		<linearGradient id="SVGID_33_" gradientUnits="userSpaceOnUse" x1="133.16" y1="222.4" x2="133.16" y2="115.94" gradientTransform="matrix(1 0 0 -1 0 512)">
		<stop offset="0" style="stop-color:#E3E3E3"/>
		<stop offset="0.99" style="stop-color:#808081"/>
	</linearGradient>
	<path class="st34" d="M133.2,311.2c20.6,0,37.3,16.7,37.3,37.3s-16.7,37.3-37.3,37.3s-37.3-16.7-37.3-37.3l0,0   C95.9,327.9,112.6,311.2,133.2,311.2z"/>
	
		<linearGradient id="SVGID_34_" gradientUnits="userSpaceOnUse" x1="236.15" y1="222.4" x2="236.15" y2="115.94" gradientTransform="matrix(1 0 0 -1 0 512)">
		<stop offset="0" style="stop-color:#E3E3E3"/>
		<stop offset="0.99" style="stop-color:#808081"/>
	</linearGradient>
	<path class="st35" d="M236.1,330.8c17.3,0,31.3,14,31.3,31.3c0,17.3-14,31.3-31.3,31.3s-31.3-14-31.3-31.3l0,0   C204.9,344.8,218.9,330.8,236.1,330.8z"/>
</g>
</svg>