<?xml version="1.0" encoding="UTF-8"?>
<!-- Generator: Adobe Illustrator 21.1.0, SVG Export Plug-In . SVG Version: 6.00 Build 0)  -->
<svg version="1.1" id="Layer_1" xmlns="http://www.w3.org/2000/svg" xmlns:xlink="http://www.w3.org/1999/xlink" x="0px" y="0px" viewBox="0 0 512.8 512.2" style="enable-background:new 0 0 512.8 512.2;" xml:space="preserve">
<style type="text/css">
	.st0{fill:url(#SVGID_1_);}
	.st1{fill:url(#SVGID_2_);}
	.st2{fill:url(#SVGID_3_);}
	.st3{fill:url(#SVGID_4_);}
	.st4{fill:url(#SVGID_5_);}
	.st5{fill:url(#SVGID_6_);}
	.st6{fill:url(#SVGID_7_);}
	.st7{fill:url(#SVGID_8_);}
	.st8{fill:url(#SVGID_9_);}
	.st9{fill:#EFEFEF;}
	.st10{fill:url(#SVGID_10_);}
	.st11{fill:url(#SVGID_11_);}
	.st12{fill:url(#SVGID_12_);}
	.st13{fill:url(#SVGID_13_);}
	.st14{fill:url(#SVGID_14_);}
</style>
<g id="mostly_sun">
	<path d="M258.9,101.5c72.8,0,131.8,59,131.8,131.8S331.7,365,258.9,365s-131.8-59-131.8-131.8S186.1,101.5,258.9,101.5L258.9,101.5   z"/>
	<path d="M258.9,426.8l-24.8-43h49.6L258.9,426.8z"/>
	<path d="M258.9,40l-24.8,43h49.6L258.9,40z"/>
	<path d="M65.2,233.5l43-24.8v49.6L65.2,233.5z"/>
	<path d="M452.3,233.5l-43-24.8v49.6L452.3,233.5z"/>
	<path d="M398.2,366.2l-12.8-47.9l-35.1,35.1L398.2,366.2z"/>
	<path d="M403.2,106.2L355.3,119l35.1,35.1L403.2,106.2z"/>
	<path d="M118.8,366.2l12.8-47.9l35.1,35.1L118.8,366.2z"/>
	<path d="M113.8,106.2l47.9,12.8l-35.1,35.1L113.8,106.2z"/>
	<path d="M280,261.5c16,0,28.9,13.8,28.9,30.7S296,323,280,323s-28.9-13.8-28.9-30.7S264,261.5,280,261.5z"/>
	<path d="M368.3,214.3c33.5,0,60.7,24.3,60.7,54.3S401.9,323,368.3,323s-60.7-24.3-60.7-54.3S334.8,214.3,368.3,214.3z"/>
	<path d="M283.9,292.1h133.4c10.6,0,19.2,6.9,19.2,15.5s-8.6,15.4-19.2,15.4H283.9c-10.6,0-19.2-6.9-19.2-15.5   S273.3,292.1,283.9,292.1z"/>
	<path d="M317.5,238.4c20,0,36.1,17.2,36.1,38.4s-16.2,38.4-36.1,38.4s-36.1-17.2-36.1-38.4S297.5,238.4,317.5,238.4z"/>
	<path d="M419.9,246.1c20,0,36.1,17.2,36.1,38.4S439.9,323,419.9,323s-36.1-17.2-36.1-38.4S400,246.1,419.9,246.1z"/>
	<path d="M285,267.8c15.7,0,28.4,12.7,28.4,28.4c0,15.7-12.7,28.4-28.4,28.4c-15.7,0-28.4-12.7-28.4-28.4l0,0   C256.6,280.6,269.3,267.8,285,267.8z"/>
	<path d="M372,224.2c33,0,59.8,22.5,59.8,50.2S405,324.7,372,324.7s-59.8-22.5-59.8-50.2S339,224.2,372,224.2z"/>
	<path d="M288.9,296.1h131.3c10.4,0,18.9,6.4,18.9,14.3s-8.5,14.3-18.9,14.3H288.9c-10.4,0-18.9-6.4-18.9-14.3   S278.4,296.1,288.9,296.1z"/>
	<path d="M321.9,246.5c19.6,0,35.6,15.9,35.6,35.6c0,19.6-15.9,35.5-35.5,35.5s-35.6-15.9-35.6-35.5c0,0,0,0,0,0   C286.4,262.4,302.3,246.5,321.9,246.5z"/>
	<path d="M422.8,253.6c19.6,0,35.6,15.9,35.6,35.5s-15.9,35.6-35.5,35.6s-35.6-15.9-35.6-35.5v0   C387.2,269.5,403.1,253.6,422.8,253.6z"/>
	
		<radialGradient id="SVGID_1_" cx="245.55" cy="278.01" r="190.99" gradientTransform="matrix(1 0 0 -1 0 512)" gradientUnits="userSpaceOnUse">
		<stop offset="0" style="stop-color:#FBF49E"/>
		<stop offset="0.99" style="stop-color:#FAA61A"/>
	</radialGradient>
	<path class="st0" d="M245.2,101.4c72.8,0,131.8,59,131.8,131.8s-59,131.8-131.8,131.8c-72.8,0-131.8-59-131.8-131.8   C113.4,160.4,172.4,101.4,245.2,101.4C245.2,101.4,245.2,101.4,245.2,101.4z"/>
	
		<radialGradient id="SVGID_2_" cx="245.55" cy="278.01" r="190.99" gradientTransform="matrix(1 0 0 -1 0 512)" gradientUnits="userSpaceOnUse">
		<stop offset="0" style="stop-color:#FBF49E"/>
		<stop offset="0.99" style="stop-color:#FAA61A"/>
	</radialGradient>
	<path class="st1" d="M245.2,426.7l-24.8-43H270L245.2,426.7z"/>
	
		<radialGradient id="SVGID_3_" cx="245.55" cy="278.01" r="190.99" gradientTransform="matrix(1 0 0 -1 0 512)" gradientUnits="userSpaceOnUse">
		<stop offset="0" style="stop-color:#FBF49E"/>
		<stop offset="0.99" style="stop-color:#FAA61A"/>
	</radialGradient>
	<path class="st2" d="M245.2,39.9l-24.8,43H270L245.2,39.9z"/>
	
		<radialGradient id="SVGID_4_" cx="245.55" cy="278.01" r="190.99" gradientTransform="matrix(1 0 0 -1 0 512)" gradientUnits="userSpaceOnUse">
		<stop offset="0" style="stop-color:#FBF49E"/>
		<stop offset="0.99" style="stop-color:#FAA61A"/>
	</radialGradient>
	<path class="st3" d="M51.5,233.4l43-24.8v49.6L51.5,233.4z"/>
	
		<radialGradient id="SVGID_5_" cx="245.55" cy="278.01" r="190.99" gradientTransform="matrix(1 0 0 -1 0 512)" gradientUnits="userSpaceOnUse">
		<stop offset="0" style="stop-color:#FBF49E"/>
		<stop offset="0.99" style="stop-color:#FAA61A"/>
	</radialGradient>
	<path class="st4" d="M438.7,233.4l-43-24.8v49.6L438.7,233.4z"/>
	
		<radialGradient id="SVGID_6_" cx="245.55" cy="278.01" r="190.99" gradientTransform="matrix(1 0 0 -1 0 512)" gradientUnits="userSpaceOnUse">
		<stop offset="0" style="stop-color:#FBF49E"/>
		<stop offset="0.99" style="stop-color:#FAA61A"/>
	</radialGradient>
	<path class="st5" d="M384.5,366.1l-12.8-47.9l-35.1,35.1L384.5,366.1z"/>
	
		<radialGradient id="SVGID_7_" cx="245.55" cy="278.01" r="190.99" gradientTransform="matrix(1 0 0 -1 0 512)" gradientUnits="userSpaceOnUse">
		<stop offset="0" style="stop-color:#FBF49E"/>
		<stop offset="0.99" style="stop-color:#FAA61A"/>
	</radialGradient>
	<path class="st6" d="M389.6,106.1l-47.9,12.8l35.1,35.1L389.6,106.1z"/>
	
		<radialGradient id="SVGID_8_" cx="245.55" cy="278.01" r="190.99" gradientTransform="matrix(1 0 0 -1 0 512)" gradientUnits="userSpaceOnUse">
		<stop offset="0" style="stop-color:#FBF49E"/>
		<stop offset="0.99" style="stop-color:#FAA61A"/>
	</radialGradient>
	<path class="st7" d="M105.2,366.1l12.8-47.9l35.1,35.1L105.2,366.1z"/>
	
		<radialGradient id="SVGID_9_" cx="245.55" cy="278.01" r="190.99" gradientTransform="matrix(1 0 0 -1 0 512)" gradientUnits="userSpaceOnUse">
		<stop offset="0" style="stop-color:#FBF49E"/>
		<stop offset="0.99" style="stop-color:#FAA61A"/>
	</radialGradient>
	<path class="st8" d="M100.1,106.1l47.9,12.8L113,154L100.1,106.1z"/>
	<path class="st9" d="M266.3,261.4c16,0,28.9,13.8,28.9,30.7s-12.9,30.7-28.9,30.7s-28.9-13.8-28.9-30.7S250.4,261.4,266.3,261.4z"/>
	<path class="st9" d="M354.6,214.2c33.5,0,60.7,24.3,60.7,54.3s-27.2,54.3-60.7,54.3s-60.7-24.3-60.7-54.3S321.1,214.2,354.6,214.2z   "/>
	<path class="st9" d="M270.2,292h133.5c10.6,0,19.2,6.9,19.2,15.5s-8.6,15.5-19.2,15.5H270.2c-10.6,0-19.2-6.9-19.2-15.5   S259.6,292,270.2,292z"/>
	<path class="st9" d="M303.8,238.3c20,0,36.1,17.2,36.1,38.4s-16.2,38.4-36.1,38.4s-36.1-17.2-36.1-38.4S283.9,238.3,303.8,238.3z"/>
	<path class="st9" d="M406.3,246c20,0,36.1,17.2,36.1,38.4s-16.2,38.4-36.1,38.4s-36.1-17.2-36.1-38.4S386.3,246,406.3,246z"/>
	
		<linearGradient id="SVGID_10_" gradientUnits="userSpaceOnUse" x1="271.36" y1="287.72" x2="271.36" y2="188.23" gradientTransform="matrix(1 0 0 -1 0 512)">
		<stop offset="0" style="stop-color:#FFFFFF"/>
		<stop offset="0.99" style="stop-color:#B1B0B1"/>
	</linearGradient>
	<path class="st10" d="M271.4,267.7c15.7,0,28.4,12.7,28.4,28.4c0,15.7-12.7,28.4-28.4,28.4c-15.7,0-28.4-12.7-28.4-28.4l0,0   C242.9,280.4,255.7,267.7,271.4,267.7z"/>
	
		<linearGradient id="SVGID_11_" gradientUnits="userSpaceOnUse" x1="358.29" y1="287.72" x2="358.29" y2="188.23" gradientTransform="matrix(1 0 0 -1 0 512)">
		<stop offset="0" style="stop-color:#FFFFFF"/>
		<stop offset="0.99" style="stop-color:#B1B0B1"/>
	</linearGradient>
	<path class="st11" d="M358.3,224.1c33,0,59.8,22.5,59.8,50.2s-26.8,50.2-59.8,50.2s-59.8-22.5-59.8-50.2S325.3,224.1,358.3,224.1z"/>
	
		<linearGradient id="SVGID_12_" gradientUnits="userSpaceOnUse" x1="340.855" y1="287.72" x2="340.855" y2="188.23" gradientTransform="matrix(1 0 0 -1 0 512)">
		<stop offset="0" style="stop-color:#FFFFFF"/>
		<stop offset="0.99" style="stop-color:#B1B0B1"/>
	</linearGradient>
	<path class="st12" d="M275.2,296h131.3c10.4,0,18.9,6.4,18.9,14.3s-8.5,14.3-18.9,14.3H275.2c-10.4,0-18.9-6.4-18.9-14.3   S264.8,296,275.2,296z"/>
	
		<linearGradient id="SVGID_13_" gradientUnits="userSpaceOnUse" x1="308.27" y1="287.72" x2="308.27" y2="188.23" gradientTransform="matrix(1 0 0 -1 0 512)">
		<stop offset="0" style="stop-color:#FFFFFF"/>
		<stop offset="0.99" style="stop-color:#B1B0B1"/>
	</linearGradient>
	<path class="st13" d="M308.3,246.4c19.6,0,35.6,15.9,35.6,35.5s-15.9,35.6-35.5,35.6s-35.6-15.9-35.6-35.5v0   C272.7,262.3,288.6,246.4,308.3,246.4z"/>
	
		<linearGradient id="SVGID_14_" gradientUnits="userSpaceOnUse" x1="409.08" y1="287.72" x2="409.08" y2="188.23" gradientTransform="matrix(1 0 0 -1 0 512)">
		<stop offset="0" style="stop-color:#FFFFFF"/>
		<stop offset="0.99" style="stop-color:#B1B0B1"/>
	</linearGradient>
	<path class="st14" d="M409.1,253.5c19.6,0,35.6,15.9,35.6,35.6c0,19.6-15.9,35.5-35.5,35.5s-35.6-15.9-35.6-35.5c0,0,0,0,0,0   C373.5,269.4,389.5,253.5,409.1,253.5z"/>
</g>
</svg>