<?xml version="1.0" encoding="UTF-8"?>
<!-- Generator: Adobe Illustrator 21.1.0, SVG Export Plug-In . SVG Version: 6.00 Build 0)  -->
<svg version="1.1" id="Layer_1" xmlns="http://www.w3.org/2000/svg" xmlns:xlink="http://www.w3.org/1999/xlink" x="0px" y="0px" viewBox="0 0 512.8 512.2" style="enable-background:new 0 0 512.8 512.2;" xml:space="preserve">
<style type="text/css">
	.st0{fill:#FFFFFF;}
	.st1{fill:#EDEDED;}
	.st2{fill:url(#SVGID_1_);}
	.st3{fill:url(#SVGID_2_);}
	.st4{fill:url(#SVGID_3_);}
	.st5{fill:url(#SVGID_4_);}
	.st6{fill:url(#SVGID_5_);}
</style>
<g id="snow_day_-_medium">
	<path d="M287.2,422.3h-14.6l-10.3,10.3l-10.4-10.3h-14.6v-14.6l-10.3-10.3l10.3-10.3v-14.7h14.6l10.4-10.3l10.3,10.3h14.6V387   l10.3,10.3l-10.3,10.3V422.3z M256.9,377.3l-2.1,2h-10.5v10.5l-7.4,7.4l7.4,7.4v10.5h10.5l7.4,7.4l7.4-7.4h10.5v-10.5l7.4-7.4   l-7.4-7.4v-10.5h-10.5l-7.4-7.4L256.9,377.3z"/>
	<path d="M272.2,401.4l4.1-4.1l-4.1-4.1v-5.9h-5.9l-4.1-4.1l-4.1,4.1h-5.9v5.9l-4.1,4.1l4.1,4.1v5.9h5.9l4.1,4.1l4.1-4.1h5.9V401.4z   "/>
	<path d="M243.4,442l11.8-44.7h14.1L243.4,442z"/>
	<path d="M281.1,442l-11.8-44.7h-14.1L281.1,442z"/>
	<path d="M243.4,352.6l11.8,44.7h14.1L243.4,352.6z"/>
	<path d="M281.1,352.6l-11.8,44.7h-14.1L281.1,352.6z"/>
	<path d="M217.5,378.5l44.7,11.8v14.1L217.5,378.5z"/>
	<path d="M217.5,416.1l44.7-11.8v-14.1L217.5,416.1z"/>
	<path d="M307,378.5l-44.7,11.8v14.1L307,378.5z"/>
	<path d="M307,416.1l-44.7-11.8v-14.1L307,416.1z"/>
	<path d="M215.9,350.9H199l-12,11.9l-11.9-11.9h-16.9V334l-11.9-12l11.9-11.9v-16.9h16.9l11.9-11.9l12,11.9h16.9v16.9l11.9,11.9   l-11.9,12V350.9z M180.9,298.9l-2.4,2.4h-12.2v12.1l-8.6,8.5l8.6,8.6v12.1h12.1l8.6,8.6l8.6-8.6h12.1v-12.1l8.6-8.6l-8.6-8.6v-12.1   h-12.2l-8.6-8.6L180.9,298.9z"/>
	<path d="M198.6,326.8l4.8-4.8l-4.8-4.8v-6.8h-6.8l-4.8-4.8l-4.8,4.8h-6.8v6.8l-4.8,4.7l4.8,4.8v6.8h6.8l4.8,4.8l4.8-4.8h6.8   L198.6,326.8z"/>
	<path d="M165.3,373.7l13.6-51.7h16.3L165.3,373.7z"/>
	<path d="M208.8,373.7L195.2,322h-16.3L208.8,373.7z"/>
	<path d="M165.3,270.4l13.6,51.6h16.3L165.3,270.4z"/>
	<path d="M208.8,270.4L195.2,322h-16.3L208.8,270.4z"/>
	<path d="M135.4,300.3l51.6,13.6v16.3L135.4,300.3z"/>
	<path d="M135.4,343.8l51.6-13.6v-16.3L135.4,343.8z"/>
	<path d="M238.6,300.3L187,313.9v16.3L238.6,300.3z"/>
	<path d="M238.6,343.8L187,330.2v-16.3L238.6,343.8z"/>
	<path d="M357.5,326.1h-11.7l-8.3,8.3l-8.3-8.3h-11.7v-11.7l-8.3-8.3l8.3-8.3v-11.7h11.7l8.3-8.3l8.3,8.3h11.7v11.7l8.3,8.3   l-8.3,8.3V326.1z M333.2,290.1l-1.6,1.6h-8.4v8.4l-6,6l6,6v8.4h8.4l6,6l6-6h8.4v-8.4l6-6l-6-6v-8.4h-8.4l-6-6L333.2,290.1z"/>
	<path d="M345.5,309.5l3.3-3.3l-3.3-3.3v-4.7h-4.7l-3.3-3.3l-3.3,3.3h-4.7v4.7l-3.3,3.3l3.3,3.3v4.7h4.7l3.3,3.3l3.3-3.3h4.7V309.5z   "/>
	<path d="M322.5,341.9l9.4-35.8h11.3L322.5,341.9z"/>
	<path d="M352.6,341.9l-9.4-35.8h-11.3L352.6,341.9z"/>
	<path d="M322.5,270.4l9.4,35.8h11.3L322.5,270.4z"/>
	<path d="M352.6,270.4l-9.4,35.8h-11.3L352.6,270.4z"/>
	<path d="M301.8,291.1l35.8,9.4v11.3L301.8,291.1z"/>
	<path d="M301.8,321.2l35.8-9.4v-11.3L301.8,321.2z"/>
	<path d="M373.3,291.1l-35.8,9.4v11.3L373.3,291.1z"/>
	<path d="M373.3,321.2l-35.8-9.4v-11.3L373.3,321.2z"/>
	<path d="M292.1,48.2c68.7,0,124.5,46.8,124.5,104.6s-55.7,104.6-124.5,104.6s-124.5-46.8-124.5-104.6S223.4,48.2,292.1,48.2z"/>
	<path d="M106.6,158.4c27.4,0,49.7,22.2,49.7,49.6s-22.2,49.7-49.6,49.7S57,235.4,57,208c0,0,0,0,0,0   C57,180.6,79.2,158.4,106.6,158.4z"/>
	<path d="M119.1,198h273.5c21.7,0,39.3,13.3,39.3,29.8s-17.6,29.8-39.3,29.8H119.1c-21.7,0-39.3-13.3-39.3-29.8S97.3,198,119.1,198z   "/>
	<path d="M187.9,94.6c40.9,0,74,33.1,74,74s-33.1,74-74,74s-74-33.1-74-74C113.9,127.7,147.1,94.6,187.9,94.6L187.9,94.6z"/>
	<path d="M397.9,109.4c40.9,0,74,33.1,74,74s-33.1,74-74,74s-74-33.1-74-74S357,109.4,397.9,109.4L397.9,109.4z"/>
	<path d="M297.7,56.2c68.7,0,124.5,46.8,124.5,104.6s-55.7,104.6-124.5,104.6s-124.5-46.8-124.5-104.6S229,56.2,297.7,56.2z"/>
	<path d="M112.3,166.4c27.4,0,49.7,22.2,49.7,49.6c0,27.4-22.2,49.7-49.6,49.7S62.6,243.4,62.6,216c0,0,0,0,0,0   C62.6,188.6,84.9,166.4,112.3,166.4z"/>
	<path d="M124.7,206h273.5c21.7,0,39.3,13.3,39.3,29.8s-17.6,29.8-39.3,29.8H124.7c-21.7,0-39.3-13.3-39.3-29.8S103,206,124.7,206z"/>
	<path d="M193.6,102.6c40.9,0,74,33.1,74,74s-33.1,74-74,74s-74-33.1-74-74C119.6,135.7,152.7,102.6,193.6,102.6L193.6,102.6z"/>
	<path d="M403.5,117.4c40.9,0,74,33.1,74,74s-33.1,74-74,74s-74-33.1-74-74S362.6,117.4,403.5,117.4L403.5,117.4z"/>
	<path class="st0" d="M274.7,423.2h-13.9l-9.9,9.9l-9.9-9.9h-13.9v-13.9l-9.9-9.9l9.9-9.9v-13.9H241l9.9-9.9l9.9,9.9h13.9v13.9   l9.9,9.9l-9.9,9.9V423.2z M245.8,380.4l-2,2h-10v10l-7.1,7.1l7.1,7.1v10h10l7.1,7.1l7.1-7.1h10v-10l7.1-7.1l-7-7.1v-10h-10   l-7.1-7.1L245.8,380.4z"/>
	<path class="st0" d="M260.4,403.4l3.9-3.9l-3.9-3.9v-5.6h-5.6l-3.9-3.9l-3.9,3.9h-5.6v5.6l-3.9,3.9l3.9,3.9v5.6h5.6l3.9,3.9   l3.9-3.9h5.6L260.4,403.4z"/>
	<path class="st0" d="M233,442l11.2-42.6h13.4L233,442z"/>
	<path class="st0" d="M268.8,442l-11.2-42.6h-13.4L268.8,442z"/>
	<path class="st0" d="M233,356.9l11.2,42.6h13.4L233,356.9z"/>
	<path class="st0" d="M268.8,356.9l-11.2,42.6h-13.4L268.8,356.9z"/>
	<path class="st0" d="M208.3,381.5l42.6,11.2v13.5L208.3,381.5z"/>
	<path class="st0" d="M208.3,417.4l42.6-11.2v-13.5L208.3,417.4z"/>
	<path class="st0" d="M293.5,381.5l-42.6,11.2v13.5L293.5,381.5z"/>
	<path class="st0" d="M293.5,417.4l-42.6-11.2v-13.5L293.5,417.4z"/>
	<path class="st0" d="M200.3,348.4H184L172.4,360l-11.6-11.6h-16.4V332l-11.6-11.6l11.6-11.6v-16.3h16.4l11.6-11.6l11.6,11.6h16.4   v16.4l11.6,11.6L200.3,332V348.4z M166.3,298.1l-2.3,2.3h-11.7v11.8l-8.3,8.3l8.3,8.3v11.8h11.8l8.3,8.3l8.3-8.3h11.8v-11.8   l8.3-8.3l-8.3-8.3v-11.8h-11.8l-8.3-8.4L166.3,298.1z"/>
	<path class="st0" d="M183.6,325.1l4.6-4.6l-4.6-4.6v-6.5H177l-4.6-4.6l-4.6,4.6h-6.5v6.5l-4.6,4.6l4.6,4.6v6.5h6.6l4.6,4.6l4.6-4.6   h6.6L183.6,325.1z"/>
	<path class="st0" d="M151.3,370.5l13.2-50h15.8L151.3,370.5z"/>
	<path class="st0" d="M193.4,370.5l-13.2-50h-15.8L193.4,370.5z"/>
	<path class="st0" d="M151.3,270.4l13.2,50h15.8L151.3,270.4z"/>
	<path class="st0" d="M193.4,270.4l-13.2,50h-15.8L193.4,270.4z"/>
	<path class="st0" d="M122.3,299.4l50.1,13.2v15.8L122.3,299.4z"/>
	<path class="st0" d="M122.3,341.5l50.1-13.2v-15.8L122.3,341.5z"/>
	<path class="st0" d="M222.4,299.4l-50.1,13.2v15.8L222.4,299.4z"/>
	<path class="st0" d="M222.4,341.5l-50.1-13.2v-15.8L222.4,341.5z"/>
	<path class="st0" d="M342.5,326.1h-11.7l-8.3,8.3l-8.3-8.3h-11.7v-11.7l-8.3-8.3l8.3-8.3v-11.7h11.7l8.3-8.3l8.3,8.3h11.7v11.7   l8.3,8.3l-8.3,8.3V326.1z M318.2,290.1l-1.6,1.6h-8.4v8.4l-6,6l6,6v8.4h8.4l6,6l6-6h8.4v-8.4l6-6l-6-6v-8.4h-8.4l-6-6L318.2,290.1z   "/>
	<path class="st0" d="M330.5,309.5l3.3-3.3l-3.3-3.3v-4.7h-4.7l-3.3-3.3l-3.3,3.3h-4.7v4.7l-3.3,3.3l3.3,3.3v4.7h4.7l3.3,3.3   l3.3-3.3h4.7V309.5z"/>
	<path class="st0" d="M307.5,341.9l9.4-35.8h11.3L307.5,341.9z"/>
	<path class="st0" d="M337.6,341.9l-9.4-35.8h-11.3L337.6,341.9z"/>
	<path class="st0" d="M307.5,270.4l9.4,35.8h11.3L307.5,270.4z"/>
	<path class="st0" d="M337.6,270.4l-9.4,35.8h-11.3L337.6,270.4z"/>
	<path class="st0" d="M286.8,291.1l35.8,9.4v11.3L286.8,291.1z"/>
	<path class="st0" d="M286.8,321.2l35.8-9.4v-11.3L286.8,321.2z"/>
	<path class="st0" d="M358.3,291.1l-35.8,9.4v11.3L358.3,291.1z"/>
	<path class="st0" d="M358.3,321.2l-35.8-9.4v-11.3L358.3,321.2z"/>
	<path class="st1" d="M277.1,48.2c68.7,0,124.5,46.8,124.5,104.6s-55.7,104.6-124.5,104.6s-124.5-46.8-124.5-104.6   S208.4,48.2,277.1,48.2z"/>
	<path class="st1" d="M91.6,158.4c27.4,0,49.7,22.2,49.7,49.6s-22.2,49.7-49.6,49.7S42,235.4,42,208c0,0,0,0,0,0   C42,180.6,64.2,158.4,91.6,158.4z"/>
	<path class="st1" d="M104.1,198h273.5c21.7,0,39.3,13.3,39.3,29.8s-17.6,29.8-39.3,29.8H104.1c-21.7,0-39.3-13.3-39.3-29.8   S82.3,198,104.1,198z"/>
	<path class="st1" d="M172.9,94.6c40.9,0,74,33.1,74,74s-33.1,74-74,74s-74-33.1-74-74C98.9,127.7,132.1,94.6,172.9,94.6L172.9,94.6   z"/>
	<path class="st1" d="M382.9,109.4c40.9,0,74,33.1,74,74s-33.1,74-74,74s-74-33.1-74-74S342,109.4,382.9,109.4L382.9,109.4z"/>
	
		<linearGradient id="SVGID_1_" gradientUnits="userSpaceOnUse" x1="282.73" y1="454.43" x2="282.73" y2="246.38" gradientTransform="matrix(1 0 0 -1 0 512)">
		<stop offset="0" style="stop-color:#E3E3E3"/>
		<stop offset="0.99" style="stop-color:#808081"/>
	</linearGradient>
	<path class="st2" d="M282.7,56.2c68.7,0,124.5,46.8,124.5,104.6s-55.7,104.6-124.5,104.6s-124.5-46.8-124.5-104.6   S214,56.2,282.7,56.2z"/>
	
		<linearGradient id="SVGID_2_" gradientUnits="userSpaceOnUse" x1="97.27" y1="454.43" x2="97.27" y2="246.38" gradientTransform="matrix(1 0 0 -1 0 512)">
		<stop offset="0" style="stop-color:#E3E3E3"/>
		<stop offset="0.99" style="stop-color:#808081"/>
	</linearGradient>
	<path class="st3" d="M97.3,166.4c27.4,0,49.7,22.2,49.7,49.6s-22.2,49.7-49.7,49.7S47.6,243.4,47.6,216c0,0,0,0,0,0   C47.6,188.6,69.9,166.4,97.3,166.4z"/>
	
		<linearGradient id="SVGID_3_" gradientUnits="userSpaceOnUse" x1="246.435" y1="454.43" x2="246.435" y2="246.38" gradientTransform="matrix(1 0 0 -1 0 512)">
		<stop offset="0" style="stop-color:#E3E3E3"/>
		<stop offset="0.99" style="stop-color:#808081"/>
	</linearGradient>
	<path class="st4" d="M109.7,206h273.5c21.7,0,39.3,13.3,39.3,29.8s-17.6,29.8-39.3,29.8H109.7c-21.7,0-39.3-13.3-39.3-29.8   S88,206,109.7,206z"/>
	
		<linearGradient id="SVGID_4_" gradientUnits="userSpaceOnUse" x1="178.57" y1="454.43" x2="178.57" y2="246.38" gradientTransform="matrix(1 0 0 -1 0 512)">
		<stop offset="0" style="stop-color:#E3E3E3"/>
		<stop offset="0.99" style="stop-color:#808081"/>
	</linearGradient>
	<path class="st5" d="M178.6,102.6c40.9,0,74,33.1,74,74s-33.1,74-74,74s-74-33.1-74-74C104.6,135.7,137.7,102.6,178.6,102.6   L178.6,102.6z"/>
	
		<linearGradient id="SVGID_5_" gradientUnits="userSpaceOnUse" x1="388.5" y1="454.43" x2="388.5" y2="246.38" gradientTransform="matrix(1 0 0 -1 0 512)">
		<stop offset="0" style="stop-color:#E3E3E3"/>
		<stop offset="0.99" style="stop-color:#808081"/>
	</linearGradient>
	<path class="st6" d="M388.5,117.4c40.9,0,74,33.1,74,74s-33.1,74-74,74s-74-33.1-74-74S347.6,117.4,388.5,117.4L388.5,117.4z"/>
</g>
</svg>