<?xml version="1.0" encoding="UTF-8"?>
<!-- Generator: Adobe Illustrator 21.1.0, SVG Export Plug-In . SVG Version: 6.00 Build 0)  -->
<svg version="1.1" id="Layer_1" xmlns="http://www.w3.org/2000/svg" xmlns:xlink="http://www.w3.org/1999/xlink" x="0px" y="0px" viewBox="0 0 512.8 512.2" style="enable-background:new 0 0 512.8 512.2;" xml:space="preserve">
<style type="text/css">
	.st0{fill:#FFFFFF;}
	.st1{fill:#EDEDED;}
	.st2{fill:url(#SVGID_1_);}
	.st3{fill:url(#SVGID_2_);}
	.st4{fill:url(#SVGID_3_);}
	.st5{fill:url(#SVGID_4_);}
	.st6{fill:url(#SVGID_5_);}
</style>
<g id="snow_day_-_light">
	<path d="M264.1,426.2h-11.7l-8.3,8.3l-8.3-8.3h-11.7v-11.7l-8.3-8.3l8.3-8.3v-11.7h11.7l8.3-8.3l8.3,8.3h11.7V398l8.3,8.3l-8.3,8.3   V426.2z M239.8,390.2l-1.6,1.6h-8.4v8.4l-5.9,6l5.9,6v8.4h8.4l5.9,6l5.9-6h8.4v-8.4l6-6l-6-6v-8.4h-8.4l-5.9-5.9L239.8,390.2z"/>
	<path d="M252.1,409.6l3.3-3.3l-3.3-3.3v-4.7h-4.7l-3.3-3.3l-3.3,3.3h-4.7v4.7l-3.3,3.3l3.3,3.3v4.7h4.7l3.3,3.3l3.3-3.3h4.7   L252.1,409.6z"/>
	<path d="M229.1,442l9.4-35.8h11.3L229.1,442z"/>
	<path d="M259.2,442l-9.4-35.8h-11.3L259.2,442z"/>
	<path d="M229.1,370.5l9.4,35.8h11.3L229.1,370.5z"/>
	<path d="M259.2,370.5l-9.4,35.8h-11.3L259.2,370.5z"/>
	<path d="M208.4,391.2l35.8,9.4v11.3L208.4,391.2z"/>
	<path d="M208.4,421.3l35.8-9.4v-11.3L208.4,421.3z"/>
	<path d="M279.9,391.2l-35.8,9.4v11.3L279.9,391.2z"/>
	<path d="M279.9,421.3l-35.8-9.4v-11.3L279.9,421.3z"/>
	<path d="M192.6,326.1h-11.7l-8.3,8.3l-8.3-8.3h-11.7v-11.7l-8.3-8.3l8.3-8.3v-11.7h11.7l8.3-8.3l8.3,8.3h11.7v11.7l8.3,8.3   l-8.3,8.3L192.6,326.1z M168.3,290.1l-1.6,1.6h-8.4v8.4l-5.9,6l5.9,6v8.4h8.4l5.9,6l5.9-6h8.4v-8.4l5.9-6l-5.9-5.9v-8.4h-8.4   l-5.9-6L168.3,290.1z"/>
	<path d="M180.6,309.5l3.3-3.3l-3.3-3.3v-4.7h-4.7l-3.3-3.3l-3.3,3.3h-4.7v4.7l-3.3,3.3l3.3,3.3v4.7h4.7l3.3,3.3l3.3-3.3h4.7V309.5z   "/>
	<path d="M157.6,341.9l9.4-35.8h11.3L157.6,341.9z"/>
	<path d="M187.7,341.9l-9.4-35.8H167L187.7,341.9z"/>
	<path d="M157.6,270.4l9.4,35.8h11.3L157.6,270.4z"/>
	<path d="M187.7,270.4l-9.4,35.8H167L187.7,270.4z"/>
	<path d="M136.9,291.1l35.8,9.4v11.3L136.9,291.1z"/>
	<path d="M136.9,321.2l35.8-9.4v-11.3L136.9,321.2z"/>
	<path d="M208.4,291.1l-35.8,9.4v11.3L208.4,291.1z"/>
	<path d="M208.4,321.2l-35.8-9.4v-11.3L208.4,321.2z"/>
	<path d="M357,326.1h-11.7l-8.3,8.3l-8.3-8.3h-11.7v-11.7l-8.3-8.3l8.3-8.3v-11.7h11.7l8.3-8.3l8.3,8.3H357v11.7l8.3,8.3l-8.3,8.3   V326.1z M332.8,290.1l-1.6,1.6h-8.4v8.4l-6,6l6,6v8.4h8.4l6,6l6-6h8.4v-8.4l6-6l-6-6v-8.4H343l-6-6L332.8,290.1z"/>
	<path d="M345.1,309.5l3.3-3.3l-3.3-3.3v-4.7h-4.7l-3.3-3.3l-3.3,3.3h-4.7v4.7l-3.3,3.3l3.3,3.3v4.7h4.7l3.3,3.3l3.3-3.3h4.7   L345.1,309.5z"/>
	<path d="M322,341.9l9.4-35.8h11.3L322,341.9z"/>
	<path d="M352.1,341.9l-9.4-35.8h-11.3L352.1,341.9z"/>
	<path d="M322,270.4l9.4,35.8h11.3L322,270.4z"/>
	<path d="M352.1,270.4l-9.4,35.8h-11.3L352.1,270.4z"/>
	<path d="M301.3,291.1l35.8,9.4v11.3L301.3,291.1z"/>
	<path d="M301.3,321.2l35.8-9.4v-11.3L301.3,321.2z"/>
	<path d="M372.8,291.1l-35.8,9.4v11.3L372.8,291.1z"/>
	<path d="M372.8,321.2l-35.8-9.4v-11.3L372.8,321.2z"/>
	<path d="M291.7,48.2c68.7,0,124.5,46.8,124.5,104.6s-55.7,104.6-124.5,104.6s-124.5-46.8-124.5-104.6S222.9,48.2,291.7,48.2z"/>
	<path d="M106.2,158.4c27.4,0,49.7,22.2,49.7,49.6s-22.2,49.7-49.7,49.7S56.5,235.4,56.5,208c0,0,0,0,0,0   C56.6,180.6,78.8,158.4,106.2,158.4z"/>
	<path d="M118.6,198h273.5c21.7,0,39.3,13.3,39.3,29.8s-17.6,29.8-39.3,29.8H118.6c-21.7,0-39.3-13.3-39.3-29.8S96.9,198,118.6,198z   "/>
	<path d="M187.5,94.6c40.9,0,74,33.1,74,74s-33.1,74-74,74s-74-33.1-74-74C113.5,127.7,146.6,94.6,187.5,94.6L187.5,94.6z"/>
	<path d="M397.4,109.4c40.9,0,74,33.1,74,74s-33.1,74-74,74s-74-33.1-74-74S356.6,109.4,397.4,109.4L397.4,109.4z"/>
	<path d="M297.3,56.2c68.7,0,124.5,46.8,124.5,104.6S366,265.4,297.3,265.4s-124.5-46.8-124.5-104.6S228.6,56.2,297.3,56.2z"/>
	<path d="M111.8,166.4c27.4,0,49.6,22.2,49.6,49.6s-22.2,49.7-49.6,49.7S62.2,243.4,62.2,216c0,0,0,0,0,0   C62.2,188.6,84.4,166.4,111.8,166.4z"/>
	<path d="M124.2,206h273.5c21.7,0,39.3,13.3,39.3,29.8s-17.6,29.8-39.3,29.8H124.2c-21.7,0-39.3-13.3-39.3-29.8S102.5,206,124.2,206   z"/>
	<path d="M193.1,102.6c40.9,0,74,33.1,74,74s-33.1,74-74,74s-74-33.1-74-74C119.1,135.7,152.3,102.6,193.1,102.6L193.1,102.6z"/>
	<path d="M403,117.4c40.9,0,74,33.1,74,74s-33.1,74-74,74s-74-33.1-74-74S362.2,117.4,403,117.4L403,117.4z"/>
	<path class="st0" d="M249.1,426.2h-11.7l-8.3,8.3l-8.3-8.3h-11.7v-11.7l-8.3-8.3l8.3-8.3v-11.7h11.7l8.3-8.3l8.3,8.3h11.7V398   l8.3,8.3l-8.3,8.3L249.1,426.2z M224.8,390.2l-1.6,1.6h-8.4v8.4l-5.9,6l5.9,6v8.4h8.4l5.9,6l5.9-6h8.4v-8.4l5.9-6l-5.9-6v-8.4h-8.4   l-5.9-5.9L224.8,390.2z"/>
	<path class="st0" d="M237.1,409.6l3.3-3.3l-3.3-3.3v-4.7h-4.7l-3.3-3.3l-3.3,3.3h-4.7v4.7l-3.3,3.3l3.3,3.3v4.7h4.7l3.3,3.3   l3.3-3.3h4.7V409.6z"/>
	<path class="st0" d="M214.1,442l9.4-35.8h11.3L214.1,442z"/>
	<path class="st0" d="M244.2,442l-9.4-35.8h-11.3L244.2,442z"/>
	<path class="st0" d="M214.1,370.5l9.4,35.8h11.3L214.1,370.5z"/>
	<path class="st0" d="M244.2,370.5l-9.4,35.8h-11.3L244.2,370.5z"/>
	<path class="st0" d="M193.4,391.2l35.8,9.4v11.3L193.4,391.2z"/>
	<path class="st0" d="M193.4,421.3l35.8-9.4v-11.3L193.4,421.3z"/>
	<path class="st0" d="M264.9,391.2l-35.8,9.4v11.3L264.9,391.2z"/>
	<path class="st0" d="M264.9,421.3l-35.8-9.4v-11.3L264.9,421.3z"/>
	<path class="st0" d="M177.6,326.1h-11.7l-8.3,8.3l-8.3-8.3h-11.7v-11.7l-8.3-8.3l8.3-8.3v-11.7h11.7l8.3-8.3l8.3,8.3h11.7v11.7   l8.3,8.3l-8.3,8.3L177.6,326.1z M153.3,290.1l-1.6,1.6h-8.4v8.4l-5.9,6l5.9,6v8.4h8.4l5.9,6l5.9-6h8.4v-8.4l5.9-6l-5.9-5.9v-8.4   h-8.4l-5.9-6L153.3,290.1z"/>
	<path class="st0" d="M165.6,309.5l3.3-3.3l-3.3-3.3v-4.7h-4.7l-3.3-3.3l-3.3,3.3h-4.7v4.7l-3.3,3.3l3.3,3.3v4.7h4.7l3.3,3.3   l3.3-3.3h4.7V309.5z"/>
	<path class="st0" d="M142.6,341.9l9.4-35.8h11.3L142.6,341.9z"/>
	<path class="st0" d="M172.7,341.9l-9.4-35.8H152L172.7,341.9z"/>
	<path class="st0" d="M142.6,270.4l9.4,35.8h11.3L142.6,270.4z"/>
	<path class="st0" d="M172.7,270.4l-9.4,35.8H152L172.7,270.4z"/>
	<path class="st0" d="M121.9,291.1l35.8,9.4v11.3L121.9,291.1z"/>
	<path class="st0" d="M121.9,321.2l35.8-9.4v-11.3L121.9,321.2z"/>
	<path class="st0" d="M193.4,291.1l-35.8,9.4v11.3L193.4,291.1z"/>
	<path class="st0" d="M193.4,321.2l-35.8-9.4v-11.3L193.4,321.2z"/>
	<path class="st0" d="M342,326.1h-11.6l-8.3,8.3l-8.3-8.3h-11.7v-11.7l-8.3-8.3l8.3-8.3v-11.7h11.7l8.3-8.3l8.3,8.3H342v11.7   l8.3,8.3l-8.3,8.3V326.1z M317.7,290.1l-1.6,1.6h-8.4v8.4l-6,6l6,6v8.4h8.4l6,6l6-6h8.4v-8.4l6-6l-6-6v-8.4H328l-6-6L317.7,290.1z"/>
	<path class="st0" d="M330.1,309.5l3.3-3.3l-3.3-3.3v-4.7h-4.7l-3.3-3.3l-3.3,3.3h-4.7v4.7l-3.3,3.3l3.3,3.3v4.7h4.7l3.3,3.3   l3.3-3.3h4.7L330.1,309.5z"/>
	<path class="st0" d="M307,341.9l9.4-35.8h11.3L307,341.9z"/>
	<path class="st0" d="M337.1,341.9l-9.4-35.8h-11.3L337.1,341.9z"/>
	<path class="st0" d="M307,270.4l9.4,35.8h11.3L307,270.4z"/>
	<path class="st0" d="M337.1,270.4l-9.4,35.8h-11.3L337.1,270.4z"/>
	<path class="st0" d="M286.3,291.1l35.8,9.4v11.3L286.3,291.1z"/>
	<path class="st0" d="M286.3,321.2l35.8-9.4v-11.3L286.3,321.2z"/>
	<path class="st0" d="M357.8,291.1l-35.8,9.4v11.3L357.8,291.1z"/>
	<path class="st0" d="M357.8,321.2l-35.8-9.4v-11.3L357.8,321.2z"/>
	<path class="st1" d="M276.7,48.2c68.7,0,124.5,46.8,124.5,104.6s-55.7,104.6-124.5,104.6s-124.5-46.8-124.5-104.6   S207.9,48.2,276.7,48.2z"/>
	<path class="st1" d="M91.2,158.4c27.4,0,49.7,22.2,49.7,49.6c0,27.4-22.2,49.7-49.6,49.7S41.6,235.4,41.5,208c0,0,0,0,0,0   C41.6,180.6,63.8,158.4,91.2,158.4z"/>
	<path class="st1" d="M103.6,198h273.5c21.7,0,39.3,13.3,39.3,29.8s-17.6,29.8-39.3,29.8H103.6c-21.7,0-39.3-13.3-39.3-29.8   S81.9,198,103.6,198z"/>
	<path class="st1" d="M172.5,94.6c40.9,0,74,33.1,74,74s-33.1,74-74,74s-74-33.1-74-74C98.5,127.7,131.6,94.6,172.5,94.6L172.5,94.6   z"/>
	<path class="st1" d="M382.4,109.4c40.9,0,74,33.1,74,74s-33.1,74-74,74s-74-33.1-74-74S341.6,109.4,382.4,109.4L382.4,109.4z"/>
	
		<linearGradient id="SVGID_1_" gradientUnits="userSpaceOnUse" x1="282.29" y1="454.43" x2="282.29" y2="246.38" gradientTransform="matrix(1 0 0 -1 0 512)">
		<stop offset="0" style="stop-color:#E3E3E3"/>
		<stop offset="0.99" style="stop-color:#808081"/>
	</linearGradient>
	<path class="st2" d="M282.3,56.2c68.7,0,124.5,46.8,124.5,104.6S351,265.4,282.3,265.4s-124.5-46.8-124.5-104.6   S213.6,56.2,282.3,56.2z"/>
	
		<linearGradient id="SVGID_2_" gradientUnits="userSpaceOnUse" x1="96.83" y1="454.43" x2="96.83" y2="246.38" gradientTransform="matrix(1 0 0 -1 0 512)">
		<stop offset="0" style="stop-color:#E3E3E3"/>
		<stop offset="0.99" style="stop-color:#808081"/>
	</linearGradient>
	<path class="st3" d="M96.8,166.4c27.4,0,49.7,22.2,49.7,49.6s-22.2,49.7-49.6,49.7S47.2,243.4,47.2,216c0,0,0,0,0,0   C47.2,188.6,69.4,166.4,96.8,166.4z"/>
	
		<linearGradient id="SVGID_3_" gradientUnits="userSpaceOnUse" x1="245.985" y1="454.43" x2="245.985" y2="246.38" gradientTransform="matrix(1 0 0 -1 0 512)">
		<stop offset="0" style="stop-color:#E3E3E3"/>
		<stop offset="0.99" style="stop-color:#808081"/>
	</linearGradient>
	<path class="st4" d="M109.2,206h273.5c21.7,0,39.3,13.3,39.3,29.8s-17.6,29.8-39.3,29.8H109.2c-21.7,0-39.3-13.3-39.3-29.8   S87.5,206,109.2,206z"/>
	
		<linearGradient id="SVGID_4_" gradientUnits="userSpaceOnUse" x1="178.12" y1="454.43" x2="178.12" y2="246.38" gradientTransform="matrix(1 0 0 -1 0 512)">
		<stop offset="0" style="stop-color:#E3E3E3"/>
		<stop offset="0.99" style="stop-color:#808081"/>
	</linearGradient>
	<path class="st5" d="M178.1,102.6c40.9,0,74,33.1,74,74s-33.1,74-74,74s-74-33.1-74-74C104.1,135.7,137.3,102.6,178.1,102.6   L178.1,102.6z"/>
	
		<linearGradient id="SVGID_5_" gradientUnits="userSpaceOnUse" x1="388.05" y1="454.43" x2="388.05" y2="246.38" gradientTransform="matrix(1 0 0 -1 0 512)">
		<stop offset="0" style="stop-color:#E3E3E3"/>
		<stop offset="0.99" style="stop-color:#808081"/>
	</linearGradient>
	<path class="st6" d="M388,117.4c40.9,0,74,33.1,74,74s-33.1,74-74,74s-74-33.1-74-74S347.2,117.4,388,117.4L388,117.4z"/>
</g>
</svg>