<?xml version="1.0" encoding="UTF-8"?>
<!-- Generator: Adobe Illustrator 21.1.0, SVG Export Plug-In . SVG Version: 6.00 Build 0)  -->
<svg version="1.1" id="Layer_1" xmlns="http://www.w3.org/2000/svg" xmlns:xlink="http://www.w3.org/1999/xlink" x="0px" y="0px" viewBox="0 0 512.8 512.2" style="enable-background:new 0 0 512.8 512.2;" xml:space="preserve">
<style type="text/css">
	.st0{fill:url(#SVGID_1_);}
	.st1{fill:url(#SVGID_2_);}
	.st2{fill:url(#SVGID_3_);}
	.st3{fill:#EDEDED;}
	.st4{fill:url(#SVGID_4_);}
	.st5{fill:url(#SVGID_5_);}
	.st6{fill:url(#SVGID_6_);}
	.st7{fill:url(#SVGID_7_);}
	.st8{fill:url(#SVGID_8_);}
</style>
<g id="rain_day_-_light">
	<path d="M256.5,413c-3,8.4-12.3,12.8-20.7,9.7c-8.4-3-12.8-12.3-9.7-20.7c3-8.4,27.4-28.4,27.4-28.4S259.5,404.6,256.5,413z"/>
	<path d="M189,342.6c-5.8,15.5-23,23.5-38.5,17.9c-15.4-5.3-23.6-22.1-18.3-37.6c0-0.1,0.1-0.3,0.2-0.4c5.6-15.4,51-52,51-52   S194.7,327.2,189,342.6z"/>
	<path d="M369.1,342.6c-5.8,15.5-23,23.5-38.5,17.9c-15.4-5.3-23.6-22.1-18.3-37.6c0-0.1,0.1-0.3,0.2-0.4c5.6-15.4,51-52,51-52   S374.7,327.2,369.1,342.6z"/>
	<path d="M287.9,45.4c68.4,0,123.8,46.6,123.8,104s-55.4,104-123.8,104s-123.8-46.6-123.8-104S219.6,45.4,287.9,45.4z"/>
	<path d="M103.5,155c27.3,0,49.4,22.1,49.4,49.4s-22.1,49.4-49.4,49.4s-49.4-22.1-49.4-49.4l0,0C54.1,177.1,76.2,155,103.5,155z"/>
	<path d="M115.8,194.4h272c21.6,0,39.1,13.3,39.1,29.6s-17.5,29.6-39.1,29.6h-272c-21.6,0-39.1-13.3-39.1-29.6   S94.2,194.4,115.8,194.4z"/>
	<path d="M184.3,91.5c40.7,0,73.6,33,73.6,73.6s-33,73.6-73.6,73.6s-73.6-33-73.6-73.6l0,0C110.7,124.5,143.7,91.5,184.3,91.5z"/>
	<path d="M393.1,106.3c40.7,0,73.6,33,73.6,73.6s-33,73.6-73.6,73.6s-73.6-33-73.6-73.6S352.4,106.3,393.1,106.3   C393.1,106.3,393.1,106.3,393.1,106.3z"/>
	<path d="M293.5,53.4c68.4,0,123.8,46.6,123.8,104s-55.4,104-123.8,104s-123.8-46.6-123.8-104S225.1,53.4,293.5,53.4z"/>
	<path d="M109.1,162.9c27.3,0,49.4,22.1,49.4,49.4s-22.1,49.4-49.4,49.4s-49.4-22.1-49.4-49.4l0,0C59.7,185,81.8,162.9,109.1,162.9z   "/>
	<path d="M121.4,202.3h272c21.6,0,39.1,13.3,39.1,29.6s-17.5,29.6-39.2,29.6h-272c-21.6,0-39.1-13.3-39.1-29.6   S99.8,202.3,121.4,202.3z"/>
	<path d="M189.9,99.5c40.7,0,73.6,33,73.6,73.6s-33,73.6-73.6,73.6s-73.6-33-73.6-73.6C116.3,132.4,149.3,99.5,189.9,99.5   L189.9,99.5z"/>
	<path d="M398.7,114.2c40.7,0,73.6,33,73.6,73.6s-33,73.6-73.6,73.6s-73.6-33-73.6-73.6v0C325.1,147.2,358,114.2,398.7,114.2z"/>
	
		<linearGradient id="SVGID_1_" gradientUnits="userSpaceOnUse" x1="230.6123" y1="138.38" x2="230.6123" y2="88.2982" gradientTransform="matrix(1 0 0 -1 0 512)">
		<stop offset="0" style="stop-color:#DCF2FD"/>
		<stop offset="0.99" style="stop-color:#4F80C1"/>
	</linearGradient>
	<path class="st0" d="M245.9,413c-3,8.4-12.3,12.8-20.7,9.7c-8.4-3-12.8-12.3-9.7-20.7c3-8.4,27.4-28.4,27.4-28.4   S248.9,404.6,245.9,413z"/>
	
		<linearGradient id="SVGID_2_" gradientUnits="userSpaceOnUse" x1="146.1663" y1="241.47" x2="146.1663" y2="149.6887" gradientTransform="matrix(1 0 0 -1 0 512)">
		<stop offset="0" style="stop-color:#DCF2FD"/>
		<stop offset="0.99" style="stop-color:#4F80C1"/>
	</linearGradient>
	<path class="st1" d="M174.6,342.6c-5.8,15.5-23,23.5-38.5,17.9c-15.4-5.3-23.6-22.1-18.3-37.6c0-0.1,0.1-0.3,0.2-0.4   c5.6-15.4,51-52,51-52S180.2,327.2,174.6,342.6z"/>
	
		<linearGradient id="SVGID_3_" gradientUnits="userSpaceOnUse" x1="327.7682" y1="241.47" x2="327.7682" y2="149.6887" gradientTransform="matrix(1 0 0 -1 0 512)">
		<stop offset="0" style="stop-color:#DCF2FD"/>
		<stop offset="0.99" style="stop-color:#4F80C1"/>
	</linearGradient>
	<path class="st2" d="M356.2,342.6c-5.8,15.5-23,23.5-38.5,17.9c-15.4-5.3-23.6-22.1-18.3-37.6c0-0.1,0.1-0.3,0.2-0.4   c5.6-15.4,51-52,51-52S361.8,327.2,356.2,342.6z"/>
	<path class="st3" d="M273.1,45.4c68.4,0,123.8,46.6,123.8,104s-55.4,104-123.8,104s-123.8-46.6-123.8-104S204.7,45.4,273.1,45.4z"/>
	<path class="st3" d="M88.6,155c27.3,0,49.4,22.1,49.4,49.4s-22.1,49.4-49.4,49.4s-49.4-22.1-49.4-49.4l0,0   C39.3,177.1,61.4,155,88.6,155z"/>
	<path class="st3" d="M101,194.4h272c21.6,0,39.1,13.3,39.1,29.6s-17.5,29.6-39.1,29.6H101c-21.6,0-39.1-13.3-39.1-29.6   S79.4,194.4,101,194.4z"/>
	<path class="st3" d="M169.5,91.5c40.7,0,73.6,33,73.6,73.6s-33,73.6-73.6,73.6s-73.6-33-73.6-73.6l0,0   C95.9,124.5,128.8,91.5,169.5,91.5z"/>
	<path class="st3" d="M378.2,106.3c40.7,0,73.6,33,73.6,73.6s-33,73.6-73.6,73.6s-73.6-33-73.6-73.6S337.6,106.3,378.2,106.3   C378.2,106.3,378.2,106.3,378.2,106.3z"/>
	
		<linearGradient id="SVGID_4_" gradientUnits="userSpaceOnUse" x1="278.66" y1="457.25" x2="278.66" y2="250.37" gradientTransform="matrix(1 0 0 -1 0 512)">
		<stop offset="0" style="stop-color:#E3E3E3"/>
		<stop offset="1" style="stop-color:#808081"/>
	</linearGradient>
	<path class="st4" d="M278.7,53.4c68.4,0,123.8,46.6,123.8,104s-55.4,104-123.8,104s-123.8-46.6-123.8-104S210.3,53.4,278.7,53.4z"/>
	
		<linearGradient id="SVGID_5_" gradientUnits="userSpaceOnUse" x1="94.24" y1="457.25" x2="94.24" y2="250.37" gradientTransform="matrix(1 0 0 -1 0 512)">
		<stop offset="0" style="stop-color:#E3E3E3"/>
		<stop offset="1" style="stop-color:#808081"/>
	</linearGradient>
	<path class="st5" d="M94.2,162.9c27.3,0,49.4,22.1,49.4,49.4s-22.1,49.4-49.4,49.4s-49.4-22.1-49.4-49.4l0,0   C44.9,185,67,162.9,94.2,162.9z"/>
	
		<linearGradient id="SVGID_6_" gradientUnits="userSpaceOnUse" x1="242.58" y1="457.25" x2="242.58" y2="250.37" gradientTransform="matrix(1 0 0 -1 0 512)">
		<stop offset="0" style="stop-color:#E3E3E3"/>
		<stop offset="1" style="stop-color:#808081"/>
	</linearGradient>
	<path class="st6" d="M106.6,202.3h272c21.6,0,39.1,13.3,39.1,29.6s-17.5,29.6-39.1,29.6h-272c-21.6,0-39.1-13.3-39.1-29.6   S85,202.3,106.6,202.3z"/>
	
		<linearGradient id="SVGID_7_" gradientUnits="userSpaceOnUse" x1="175.08" y1="457.25" x2="175.08" y2="250.37" gradientTransform="matrix(1 0 0 -1 0 512)">
		<stop offset="0" style="stop-color:#E3E3E3"/>
		<stop offset="1" style="stop-color:#808081"/>
	</linearGradient>
	<path class="st7" d="M175.1,99.5c40.7,0,73.6,33,73.6,73.6s-33,73.6-73.6,73.6s-73.6-33-73.6-73.6   C101.5,132.4,134.4,99.5,175.1,99.5L175.1,99.5z"/>
	
		<linearGradient id="SVGID_8_" gradientUnits="userSpaceOnUse" x1="383.83" y1="457.25" x2="383.83" y2="250.37" gradientTransform="matrix(1 0 0 -1 0 512)">
		<stop offset="0" style="stop-color:#E3E3E3"/>
		<stop offset="1" style="stop-color:#808081"/>
	</linearGradient>
	<path class="st8" d="M383.8,114.2c40.7,0,73.6,33,73.6,73.6s-33,73.6-73.6,73.6s-73.6-33-73.6-73.6S343.2,114.2,383.8,114.2   C383.8,114.2,383.8,114.2,383.8,114.2z"/>
</g>
</svg>