<?xml version="1.0" encoding="UTF-8"?>
<!-- Generator: Adobe Illustrator 21.1.0, SVG Export Plug-In . SVG Version: 6.00 Build 0)  -->
<svg version="1.1" id="Layer_1" xmlns="http://www.w3.org/2000/svg" xmlns:xlink="http://www.w3.org/1999/xlink" x="0px" y="0px" viewBox="0 0 512.8 512.2" style="enable-background:new 0 0 512.8 512.2;" xml:space="preserve">
<style type="text/css">
	.st0{fill:url(#SVGID_1_);}
	.st1{fill:url(#SVGID_2_);}
	.st2{fill:url(#SVGID_3_);}
	.st3{fill:url(#SVGID_4_);}
	.st4{fill:url(#SVGID_5_);}
	.st5{fill:#EDEDED;}
	.st6{fill:url(#SVGID_6_);}
	.st7{fill:url(#SVGID_7_);}
	.st8{fill:url(#SVGID_8_);}
	.st9{fill:url(#SVGID_9_);}
	.st10{fill:url(#SVGID_10_);}
</style>
<g id="rain_day_-_medium">
	<path d="M206.9,413c-3,8.4-12.3,12.8-20.7,9.7c-8.4-3-12.8-12.3-9.7-20.7c3-8.4,27.4-28.4,27.4-28.4S209.9,404.6,206.9,413z"/>
	<path d="M333.9,413c-3,8.4-12.3,12.8-20.7,9.7c-8.4-3-12.8-12.3-9.7-20.7c3-8.4,27.4-28.4,27.4-28.4S336.9,404.6,333.9,413z"/>
	<path d="M172.6,342.6c-5.8,15.5-23,23.5-38.6,17.9c-15.4-5.3-23.6-22.1-18.3-37.6c0-0.1,0.1-0.3,0.2-0.4c5.6-15.4,51-52,51-52   S178.2,327.2,172.6,342.6z"/>
	<path d="M290.6,342.6c-5.8,15.5-23,23.5-38.5,17.9c-15.4-5.3-23.6-22.1-18.3-37.6c0-0.1,0.1-0.3,0.2-0.4c5.6-15.4,51-52,51-52   S296.2,327.2,290.6,342.6z"/>
	<path d="M408.7,342.6c-5.8,15.5-23,23.5-38.5,17.9c-15.4-5.3-23.6-22.1-18.3-37.6c0-0.1,0.1-0.3,0.2-0.4c5.6-15.4,51-52,51-52   S414.3,327.2,408.7,342.6z"/>
	<path d="M288.5,45.4c68.4,0,123.8,46.6,123.8,104s-55.4,104-123.8,104s-123.8-46.6-123.8-104S220.2,45.4,288.5,45.4z"/>
	<path d="M104.1,155c27.3,0,49.4,22.1,49.4,49.4s-22.1,49.4-49.4,49.4s-49.4-22.1-49.4-49.4l0,0C54.8,177.1,76.9,155,104.1,155z"/>
	<path d="M116.5,194.4h272c21.6,0,39.1,13.3,39.1,29.6s-17.6,29.6-39.2,29.6h-272c-21.6,0-39.1-13.3-39.1-29.6   S94.9,194.4,116.5,194.4z"/>
	<path d="M185,91.5c40.7,0,73.6,33,73.6,73.6s-33,73.6-73.6,73.6s-73.6-33-73.6-73.6l0,0C111.4,124.5,144.3,91.5,185,91.5z"/>
	<path d="M393.7,106.3c40.7,0,73.6,33,73.6,73.6s-33,73.6-73.6,73.6s-73.6-33-73.6-73.6S353.1,106.3,393.7,106.3   C393.7,106.3,393.7,106.3,393.7,106.3z"/>
	<path d="M294.1,53.4c68.4,0,123.8,46.6,123.8,104s-55.4,104-123.8,104s-123.8-46.6-123.8-104S225.8,53.4,294.1,53.4z"/>
	<path d="M109.7,162.9c27.3,0,49.4,22.1,49.4,49.4s-22.1,49.4-49.4,49.4s-49.4-22.1-49.4-49.4l0,0C60.4,185,82.5,162.9,109.7,162.9z   "/>
	<path d="M122.1,202.3H394c21.6,0,39.1,13.3,39.1,29.6s-17.5,29.6-39.1,29.6H122c-21.6,0-39.1-13.3-39.1-29.6   S100.5,202.3,122.1,202.3z"/>
	<path d="M190.6,99.5c40.7,0,73.6,33,73.6,73.6s-33,73.6-73.6,73.6s-73.6-33-73.6-73.6C116.9,132.4,149.9,99.5,190.6,99.5   L190.6,99.5z"/>
	<path d="M399.3,114.2c40.7,0,73.6,33,73.6,73.6s-33,73.6-73.6,73.6s-73.6-33-73.6-73.6v0C325.7,147.2,358.7,114.2,399.3,114.2z"/>
	
		<linearGradient id="SVGID_1_" gradientUnits="userSpaceOnUse" x1="176.7623" y1="138.38" x2="176.7623" y2="88.2982" gradientTransform="matrix(1 0 0 -1 0 512)">
		<stop offset="0" style="stop-color:#DCF2FD"/>
		<stop offset="0.99" style="stop-color:#4F80C1"/>
	</linearGradient>
	<path class="st0" d="M192.1,413c-3,8.4-12.3,12.8-20.7,9.7c-8.4-3-12.8-12.3-9.7-20.7c3-8.4,27.4-28.4,27.4-28.4   S195.1,404.6,192.1,413z"/>
	
		<linearGradient id="SVGID_2_" gradientUnits="userSpaceOnUse" x1="303.6985" y1="138.38" x2="303.6985" y2="88.2982" gradientTransform="matrix(1 0 0 -1 0 512)">
		<stop offset="0" style="stop-color:#DCF2FD"/>
		<stop offset="0.99" style="stop-color:#4F80C1"/>
	</linearGradient>
	<path class="st1" d="M319,413c-3,8.4-12.3,12.8-20.7,9.7c-8.4-3-12.8-12.3-9.7-20.7c3-8.4,27.4-28.4,27.4-28.4S322,404.6,319,413z"/>
	
		<linearGradient id="SVGID_3_" gradientUnits="userSpaceOnUse" x1="129.2582" y1="241.47" x2="129.2582" y2="149.6887" gradientTransform="matrix(1 0 0 -1 0 512)">
		<stop offset="0" style="stop-color:#DCF2FD"/>
		<stop offset="0.99" style="stop-color:#4F80C1"/>
	</linearGradient>
	<path class="st2" d="M157.7,342.6c-5.8,15.5-23,23.5-38.5,17.9c-15.4-5.3-23.6-22.1-18.3-37.6c0-0.1,0.1-0.3,0.2-0.4   c5.6-15.4,51-52,51-52S163.3,327.2,157.7,342.6z"/>
	
		<linearGradient id="SVGID_4_" gradientUnits="userSpaceOnUse" x1="247.3282" y1="241.47" x2="247.3282" y2="149.6887" gradientTransform="matrix(1 0 0 -1 0 512)">
		<stop offset="0" style="stop-color:#DCF2FD"/>
		<stop offset="0.99" style="stop-color:#4F80C1"/>
	</linearGradient>
	<path class="st3" d="M275.8,342.6c-5.8,15.5-23,23.5-38.5,17.9c-15.4-5.3-23.6-22.1-18.3-37.6c0-0.1,0.1-0.3,0.2-0.4   c5.6-15.4,51-52,51-52S281.4,327.2,275.8,342.6z"/>
	
		<linearGradient id="SVGID_5_" gradientUnits="userSpaceOnUse" x1="365.4063" y1="241.47" x2="365.4063" y2="149.6887" gradientTransform="matrix(1 0 0 -1 0 512)">
		<stop offset="0" style="stop-color:#DCF2FD"/>
		<stop offset="0.99" style="stop-color:#4F80C1"/>
	</linearGradient>
	<path class="st4" d="M393.9,342.6c-5.8,15.5-23,23.5-38.5,17.9c-15.4-5.3-23.6-22.1-18.3-37.6c0-0.1,0.1-0.3,0.2-0.4   c5.6-15.4,51-52,51-52S399.5,327.2,393.9,342.6z"/>
	<path class="st5" d="M273.7,45.4c68.4,0,123.8,46.6,123.8,104s-55.4,104-123.8,104s-123.8-46.6-123.8-104S205.3,45.4,273.7,45.4z"/>
	<path class="st5" d="M89.3,155c27.3,0,49.4,22.1,49.4,49.4s-22.1,49.4-49.4,49.4s-49.4-22.1-49.4-49.4l0,0   C39.9,177.1,62,155,89.3,155z"/>
	<path class="st5" d="M101.6,194.4h272c21.6,0,39.1,13.3,39.1,29.6s-17.5,29.6-39.1,29.6h-272c-21.6,0-39.1-13.3-39.1-29.6   S80,194.4,101.6,194.4z"/>
	<path class="st5" d="M170.1,91.5c40.7,0,73.6,33,73.6,73.6s-33,73.6-73.6,73.6s-73.6-33-73.6-73.6l0,0   C96.5,124.5,129.5,91.5,170.1,91.5z"/>
	<path class="st5" d="M378.9,106.3c40.7,0,73.6,33,73.6,73.6s-33,73.6-73.6,73.6s-73.6-33-73.6-73.6l0,0   C305.3,139.2,338.2,106.3,378.9,106.3z"/>
	
		<linearGradient id="SVGID_6_" gradientUnits="userSpaceOnUse" x1="279.3" y1="457.25" x2="279.3" y2="250.37" gradientTransform="matrix(1 0 0 -1 0 512)">
		<stop offset="0" style="stop-color:#E3E3E3"/>
		<stop offset="1" style="stop-color:#808081"/>
	</linearGradient>
	<path class="st6" d="M279.3,53.4c68.4,0,123.8,46.6,123.8,104s-55.4,104-123.8,104s-123.8-46.6-123.8-104S210.9,53.4,279.3,53.4z"/>
	
		<linearGradient id="SVGID_7_" gradientUnits="userSpaceOnUse" x1="94.87" y1="457.25" x2="94.87" y2="250.37" gradientTransform="matrix(1 0 0 -1 0 512)">
		<stop offset="0" style="stop-color:#E3E3E3"/>
		<stop offset="1" style="stop-color:#808081"/>
	</linearGradient>
	<path class="st7" d="M94.9,162.9c27.3,0,49.4,22.1,49.4,49.4s-22.1,49.4-49.4,49.4s-49.4-22.1-49.4-49.4l0,0   C45.5,185,67.6,162.9,94.9,162.9z"/>
	
		<linearGradient id="SVGID_8_" gradientUnits="userSpaceOnUse" x1="243.22" y1="457.25" x2="243.22" y2="250.37" gradientTransform="matrix(1 0 0 -1 0 512)">
		<stop offset="0" style="stop-color:#E3E3E3"/>
		<stop offset="1" style="stop-color:#808081"/>
	</linearGradient>
	<path class="st8" d="M107.2,202.3h272c21.6,0,39.1,13.3,39.1,29.6s-17.5,29.6-39.1,29.6h-272c-21.6,0-39.1-13.3-39.1-29.6   S85.6,202.3,107.2,202.3z"/>
	
		<linearGradient id="SVGID_9_" gradientUnits="userSpaceOnUse" x1="175.71" y1="457.25" x2="175.71" y2="250.37" gradientTransform="matrix(1 0 0 -1 0 512)">
		<stop offset="0" style="stop-color:#E3E3E3"/>
		<stop offset="1" style="stop-color:#808081"/>
	</linearGradient>
	<path class="st9" d="M175.7,99.5c40.7,0,73.6,33,73.6,73.6s-33,73.6-73.6,73.6s-73.6-33-73.6-73.6   C102.1,132.4,135.1,99.5,175.7,99.5C175.7,99.5,175.7,99.5,175.7,99.5z"/>
	
		<linearGradient id="SVGID_10_" gradientUnits="userSpaceOnUse" x1="384.47" y1="457.25" x2="384.47" y2="250.37" gradientTransform="matrix(1 0 0 -1 0 512)">
		<stop offset="0" style="stop-color:#E3E3E3"/>
		<stop offset="1" style="stop-color:#808081"/>
	</linearGradient>
	<path class="st10" d="M384.5,114.2c40.7,0,73.6,33,73.6,73.6s-33,73.6-73.6,73.6s-73.6-33-73.6-73.6S343.8,114.2,384.5,114.2   C384.5,114.2,384.5,114.2,384.5,114.2z"/>
</g>
</svg>