<?xml version="1.0" encoding="UTF-8"?>
<!-- Generator: Adobe Illustrator 21.1.0, SVG Export Plug-In . SVG Version: 6.00 Build 0)  -->
<svg version="1.1" id="clear_day" xmlns="http://www.w3.org/2000/svg" xmlns:xlink="http://www.w3.org/1999/xlink" x="0px" y="0px" viewBox="0 0 512.8 512.2" style="enable-background:new 0 0 512.8 512.2;" xml:space="preserve">
<style type="text/css">
	.st0{fill:url(#SVGID_1_);}
	.st1{fill:url(#SVGID_2_);}
	.st2{fill:url(#SVGID_3_);}
	.st3{fill:url(#SVGID_4_);}
	.st4{fill:url(#SVGID_5_);}
	.st5{fill:url(#SVGID_6_);}
	.st6{fill:url(#SVGID_7_);}
	.st7{fill:url(#SVGID_8_);}
	.st8{fill:url(#SVGID_9_);}
</style>
<path d="M268.4,100.5c73.2,0,132.6,59.4,132.6,132.6c0,73.2-59.4,132.6-132.6,132.6s-132.6-59.4-132.6-132.6c0,0,0,0,0,0  C135.7,159.8,195.1,100.5,268.4,100.5z"/>
<path d="M268.4,427.8l-25-43.2h49.9L268.4,427.8z"/>
<path d="M268.4,38.6l-25,43.2h49.9L268.4,38.6z"/>
<path d="M73.4,233.3l43.2-25v49.9L73.4,233.3z"/>
<path d="M463,233.3l-43.2-25v49.9L463,233.3z"/>
<path d="M408.6,366.8l-12.9-48.2l-35.3,35.3L408.6,366.8z"/>
<path d="M413.6,105.2l-48.2,12.9l35.3,35.3L413.6,105.2z"/>
<path d="M127.4,366.8l12.9-48.2l35.3,35.3L127.4,366.8z"/>
<path d="M122.4,105.2l48.2,12.9l-35.3,35.3L122.4,105.2z"/>
<radialGradient id="SVGID_1_" cx="255.17" cy="278.2" r="192.21" gradientTransform="matrix(1 0 0 -1 0 512)" gradientUnits="userSpaceOnUse">
	<stop offset="0" style="stop-color:#FBF49E"/>
	<stop offset="0.99" style="stop-color:#FAA61A"/>
</radialGradient>
<path class="st0" d="M254.8,100.4c73.2,0,132.6,59.4,132.6,132.6s-59.4,132.6-132.6,132.6c-73.2,0-132.6-59.4-132.6-132.6  C122.2,159.8,181.6,100.4,254.8,100.4C254.8,100.4,254.8,100.4,254.8,100.4z"/>
<radialGradient id="SVGID_2_" cx="255.17" cy="278.2" r="192.21" gradientTransform="matrix(1 0 0 -1 0 512)" gradientUnits="userSpaceOnUse">
	<stop offset="0" style="stop-color:#FBF49E"/>
	<stop offset="0.99" style="stop-color:#FAA61A"/>
</radialGradient>
<path class="st1" d="M254.8,427.7l-25-43.2h49.9L254.8,427.7z"/>
<radialGradient id="SVGID_3_" cx="255.17" cy="278.2" r="192.21" gradientTransform="matrix(1 0 0 -1 0 512)" gradientUnits="userSpaceOnUse">
	<stop offset="0" style="stop-color:#FBF49E"/>
	<stop offset="0.99" style="stop-color:#FAA61A"/>
</radialGradient>
<path class="st2" d="M254.8,38.5l-25,43.2h49.9L254.8,38.5z"/>
<radialGradient id="SVGID_4_" cx="255.17" cy="278.2" r="192.21" gradientTransform="matrix(1 0 0 -1 0 512)" gradientUnits="userSpaceOnUse">
	<stop offset="0" style="stop-color:#FBF49E"/>
	<stop offset="0.99" style="stop-color:#FAA61A"/>
</radialGradient>
<path class="st3" d="M59.9,233.2l43.2-25v49.9L59.9,233.2z"/>
<radialGradient id="SVGID_5_" cx="255.17" cy="278.2" r="192.21" gradientTransform="matrix(1 0 0 -1 0 512)" gradientUnits="userSpaceOnUse">
	<stop offset="0" style="stop-color:#FBF49E"/>
	<stop offset="0.99" style="stop-color:#FAA61A"/>
</radialGradient>
<path class="st4" d="M449.5,233.2l-43.2-25v49.9L449.5,233.2z"/>
<radialGradient id="SVGID_6_" cx="255.17" cy="278.2" r="192.21" gradientTransform="matrix(1 0 0 -1 0 512)" gradientUnits="userSpaceOnUse">
	<stop offset="0" style="stop-color:#FBF49E"/>
	<stop offset="0.99" style="stop-color:#FAA61A"/>
</radialGradient>
<path class="st5" d="M395,366.7l-12.9-48.2l-35.3,35.3L395,366.7z"/>
<radialGradient id="SVGID_7_" cx="255.17" cy="278.2" r="192.21" gradientTransform="matrix(1 0 0 -1 0 512)" gradientUnits="userSpaceOnUse">
	<stop offset="0" style="stop-color:#FBF49E"/>
	<stop offset="0.99" style="stop-color:#FAA61A"/>
</radialGradient>
<path class="st6" d="M400.1,105.1L351.9,118l35.3,35.3L400.1,105.1z"/>
<radialGradient id="SVGID_8_" cx="255.17" cy="278.2" r="192.21" gradientTransform="matrix(1 0 0 -1 0 512)" gradientUnits="userSpaceOnUse">
	<stop offset="0" style="stop-color:#FBF49E"/>
	<stop offset="0.99" style="stop-color:#FAA61A"/>
</radialGradient>
<path class="st7" d="M113.9,366.7l12.9-48.2l35.3,35.3L113.9,366.7z"/>
<radialGradient id="SVGID_9_" cx="255.17" cy="278.2" r="192.21" gradientTransform="matrix(1 0 0 -1 0 512)" gradientUnits="userSpaceOnUse">
	<stop offset="0" style="stop-color:#FBF49E"/>
	<stop offset="0.99" style="stop-color:#FAA61A"/>
</radialGradient>
<path class="st8" d="M108.8,105.1l48.2,12.9l-35.3,35.3L108.8,105.1z"/>
</svg>