<?xml version="1.0" encoding="UTF-8"?>
<!-- Generator: Adobe Illustrator 21.1.0, SVG Export Plug-In . SVG Version: 6.00 Build 0)  -->
<svg version="1.1" id="Layer_1" xmlns="http://www.w3.org/2000/svg" xmlns:xlink="http://www.w3.org/1999/xlink" x="0px" y="0px" viewBox="0 0 512.8 512.2" style="enable-background:new 0 0 512.8 512.2;" xml:space="preserve">
<style type="text/css">
	.st0{fill:#EFEFEF;}
	.st1{fill:url(#SVGID_1_);}
	.st2{fill:url(#SVGID_2_);}
	.st3{fill:url(#SVGID_3_);}
	.st4{fill:url(#SVGID_4_);}
	.st5{fill:url(#SVGID_5_);}
	.st6{fill:url(#SVGID_6_);}
	.st7{fill:url(#SVGID_7_);}
	.st8{fill:url(#SVGID_8_);}
	.st9{fill:url(#SVGID_9_);}
	.st10{fill:url(#SVGID_10_);}
	.st11{fill:url(#SVGID_11_);}
	.st12{fill:url(#SVGID_12_);}
	.st13{fill:url(#SVGID_13_);}
	.st14{fill:url(#SVGID_14_);}
	.st15{fill:#FFFFFF;}
</style>
<g id="blizzard_day">
	<path d="M293.7,47.6c68.6,0,124.1,46.7,124.1,104.3s-55.6,104.3-124.1,104.3s-124.1-46.7-124.1-104.3S225.1,47.6,293.7,47.6z"/>
	<path d="M108.7,157.4c27.3,0,49.5,22.2,49.5,49.5s-22.2,49.5-49.5,49.5s-49.5-22.2-49.5-49.5S81.4,157.4,108.7,157.4L108.7,157.4z"/>
	<path d="M121.1,197h272.7c21.7,0,39.2,13.3,39.2,29.7s-17.6,29.7-39.2,29.7H121.1c-21.7,0-39.2-13.3-39.2-29.7S99.4,197,121.1,197z   "/>
	<path d="M189.8,93.8c40.8,0,73.8,33,73.9,73.8s-33,73.8-73.8,73.9s-73.8-33-73.9-73.8c0,0,0,0,0,0C116,126.9,149,93.8,189.8,93.8z"/>
	<path d="M399.1,108.6c40.8,0,73.8,33.1,73.8,73.8s-33.1,73.8-73.8,73.8s-73.8-33.1-73.8-73.8S358.4,108.6,399.1,108.6L399.1,108.6z   "/>
	<path d="M299.3,55.6c68.6,0,124.1,46.7,124.1,104.3s-55.6,104.3-124.1,104.3s-124.1-46.7-124.1-104.3S230.7,55.6,299.3,55.6z"/>
	<path d="M114.3,165.4c27.3,0,49.5,22.2,49.5,49.5s-22.2,49.5-49.5,49.5s-49.5-22.2-49.5-49.5l0,0C64.8,187.6,87,165.4,114.3,165.4z   "/>
	<path d="M126.7,204.9h272.7c21.7,0,39.2,13.3,39.2,29.7s-17.6,29.7-39.2,29.7H126.7c-21.7,0-39.2-13.3-39.2-29.7   S105,204.9,126.7,204.9z"/>
	<path d="M195.4,101.8c40.8,0,73.8,33.1,73.8,73.8s-33.1,73.8-73.8,73.8s-73.8-33.1-73.8-73.8c0,0,0,0,0,0   C121.6,134.9,154.6,101.8,195.4,101.8z"/>
	<path d="M404.7,116.6c40.8,0,73.8,33.1,73.8,73.8s-33.1,73.8-73.8,73.8s-73.8-33.1-73.8-73.8S364,116.6,404.7,116.6L404.7,116.6z"/>
	<path d="M243.2,344.1H426c3.7,0,6.7,3,6.7,6.7c0,3.7-3,6.7-6.7,6.7H243.2c-3.7,0-6.7-3-6.7-6.7   C236.5,347.1,239.5,344.1,243.2,344.1z"/>
	<path d="M428.1,260.6c-15.4,0-29.9,7.4-38.9,20h18.5c5.9-4.3,13.1-6.7,20.4-6.6c19.4,0,35.1,15.7,35,35.1c0,19.3-15.7,35-35,35   c-0.6,0-1.1,0-1.7,0l0,0H395c8.9,8.6,20.8,13.4,33.1,13.4c26.7-0.4,48.1-22.4,47.7-49.1C475.5,282.2,454.3,261,428.1,260.6   L428.1,260.6z"/>
	<path d="M398,274c5,0,9,4,9.1,8.9c0,5-4,9-8.9,9.1s-9-4-9.1-8.9c0,0,0,0,0-0.1C389,278.1,393,274,398,274z"/>
	<path d="M201.8,297.6h142.7c2.8,0,5.1,1.8,5.1,4s-2.3,4-5.1,4H201.8c-2.8,0-5.1-1.8-5.1-4S198.9,297.6,201.8,297.6z"/>
	<path d="M348.6,247.8c-9.5,0-18.6,4.4-24.3,12h11.6c3.7-2.6,8.2-4,12.8-4c12,0,21.8,9.4,21.8,20.9s-9.7,20.9-21.8,20.9h-1l0,0   h-19.7c5.7,5.2,13,8,20.7,8c16.6,0,30-12.9,30-28.9S365.2,247.8,348.6,247.8z"/>
	<path d="M329.8,256.7c3.2,0.1,5.6,2.8,5.5,5.9c-0.1,3.2-2.8,5.6-5.9,5.5c-3.1-0.1-5.5-2.6-5.5-5.7   C323.9,259.2,326.5,256.6,329.8,256.7z"/>
	<path d="M239.6,398.8h167.6c3.3,0,6-2.2,6-4.8s-2.7-4.8-6-4.8H239.6c-3.3,0-6,2.2-6,4.8S236.3,398.8,239.6,398.8z"/>
	<path d="M411.3,389.2c-8.8,0-17.2,3.5-23.5,9.7h22.3l0,0c0.4,0,0.8,0,1.2,0c13.6,0,24.7,11.4,24.7,25.4s-11.1,25.4-24.7,25.4   c-5.2,0-10.3-1.7-14.5-4.8h-13.1c6.3,9.1,16.6,14.5,27.6,14.5c18.8,0,34.1-15.7,34.1-35.1S430.1,389.2,411.3,389.2z"/>
	<path d="M390,448.6c3.8,0.1,7-2.9,7.1-6.7c0.1-3.8-2.9-7-6.7-7.1c-3.8-0.1-7,2.9-7.1,6.7c0,0.1,0,0.1,0,0.2   C383.2,445.5,386.2,448.6,390,448.6z"/>
	<path d="M174.2,358.1h-19.9l-14.1,14.1l-14.1-14.1h-19.9v-19.9l-14.1-14.1l14.1-14.1v-19.9h19.9l14.1-14.1l14.1,14.1h19.9v19.9   l14.1,14.1l-14.1,14.1L174.2,358.1z M132.9,296.9l-2.8,2.8h-14.3V314l-10.1,10.1l10.1,10.1v14.3h14.3l10.1,10.1l10.1-10.1h14.3   v-14.3l10.1-10.1L164.7,314v-14.3h-14.3l-10.1-10.1L132.9,296.9z"/>
	<path d="M153.9,329.8l5.6-5.6l-5.6-5.6v-8h-8l-5.6-5.6l-5.6,5.6h-8v8l-5.6,5.6l5.6,5.6v8h8l5.6,5.6l5.6-5.6h8L153.9,329.8z"/>
	<path d="M114.6,385l16-60.9h19.2L114.6,385z"/>
	<path d="M165.9,385l-16-60.9h-19.2L165.9,385z"/>
	<path d="M114.6,263.3l16,60.9h19.2L114.6,263.3z"/>
	<path d="M165.9,263.3l-16,60.9h-19.2L165.9,263.3z"/>
	<path d="M79.4,298.5l60.9,16v19.2L79.4,298.5z"/>
	<path d="M79.4,349.8l60.9-16v-19.2L79.4,349.8z"/>
	<path d="M201.1,298.5l-60.9,16v19.2L201.1,298.5z"/>
	<path d="M201.1,349.8l-60.9-16v-19.2L201.1,349.8z"/>
	<path d="M187.3,440.7h-12.4l-8.8,8.8l-8.8-8.8h-12.4v-12.4l-8.8-8.8l8.8-8.8v-12.4h12.4l8.8-8.8l8.8,8.8h12.4v12.4l8.8,8.8   l-8.8,8.8V440.7z M161.5,402.5l-1.7,1.7h-8.9v8.9l-6.3,6.3l6.3,6.3v8.9h8.9l6.3,6.3l6.3-6.3h8.9v-8.9l6.3-6.3l-6.3-6.3v-8.9h-8.9   l-6.3-6.3L161.5,402.5z"/>
	<path d="M174.6,423l3.5-3.5l-3.5-3.5v-5h-5l-3.5-3.5l-3.5,3.5h-5v5l-3.5,3.5l3.5,3.5v5h5l3.5,3.5l3.5-3.5h5L174.6,423z"/>
	<path d="M150.1,457.4l10-37.9h12L150.1,457.4z"/>
	<path d="M182.1,457.4l-10-37.9h-12L182.1,457.4z"/>
	<path d="M150.1,381.6l10,37.9h12L150.1,381.6z"/>
	<path d="M182.1,381.6l-10,37.9h-12L182.1,381.6z"/>
	<path d="M128.2,403.5l37.9,10v12L128.2,403.5z"/>
	<path d="M128.2,435.5l37.9-10v-12L128.2,435.5z"/>
	<path d="M204,403.5l-37.9,10v12L204,403.5z"/>
	<path d="M204,435.5l-37.9-10v-12L204,435.5z"/>
	<path d="M267.9,393.8h-16.7l-11.8,11.8l-11.8-11.8h-16.7V377L199,365.2l11.8-11.8v-16.7h16.7l11.8-11.8l11.8,11.8h16.7v16.7   l11.8,11.8L267.9,377V393.8z M233.2,342.3l-2.4,2.4h-12v12l-8.5,8.5l8.5,8.5v12h12l8.5,8.5l8.5-8.5h12v-12l8.5-8.5l-8.5-8.5v-12   h-12l-8.5-8.5L233.2,342.3z"/>
	<path d="M250.8,369.9l4.7-4.7l-4.7-4.7v-6.7h-6.7l-4.7-4.7l-4.7,4.7h-6.7v6.7l-4.7,4.7l4.7,4.7v6.7h6.7l4.7,4.7l4.7-4.7h6.7V369.9z   "/>
	<path d="M217.8,416.4l13.5-51.1h16.1L217.8,416.4z"/>
	<path d="M260.9,416.4l-13.5-51.1h-16.1L260.9,416.4z"/>
	<path d="M217.8,314.1l13.5,51.1h16.1L217.8,314.1z"/>
	<path d="M260.9,314.1l-13.5,51.1h-16.1L260.9,314.1z"/>
	<path d="M188.2,343.7l51.1,13.5v16.1L188.2,343.7z"/>
	<path d="M188.2,386.7l51.1-13.5v-16.1L188.2,386.7z"/>
	<path d="M290.5,343.7l-51.1,13.5v16.1L290.5,343.7z"/>
	<path d="M290.5,386.7l-51.1-13.5v-16.1L290.5,386.7z"/>
	<path class="st0" d="M279.2,46.6c68.5,0,124.1,46.7,124.1,104.3s-55.6,104.3-124.1,104.3s-124.1-46.7-124.1-104.3   S210.6,46.6,279.2,46.6z"/>
	<path class="st0" d="M94.2,156.5c27.3,0,49.5,22.2,49.5,49.5s-22.2,49.5-49.5,49.5c-27.3,0-49.5-22.2-49.5-49.5   C44.7,178.7,66.9,156.5,94.2,156.5C94.2,156.5,94.2,156.5,94.2,156.5z"/>
	<path class="st0" d="M106.6,196h272.7c21.7,0,39.2,13.3,39.2,29.7s-17.6,29.7-39.2,29.7H106.6c-21.7,0-39.2-13.3-39.2-29.7   S85,196,106.6,196z"/>
	<path class="st0" d="M175.3,92.9c40.8,0,73.8,33.1,73.8,73.8s-33.1,73.8-73.8,73.8s-73.8-33.1-73.8-73.8c0,0,0,0,0,0   C101.5,125.9,134.5,92.9,175.3,92.9z"/>
	<path class="st0" d="M384.7,107.6c40.8,0,73.8,33.1,73.8,73.8s-33.1,73.8-73.8,73.8s-73.8-33.1-73.8-73.8S343.9,107.6,384.7,107.6   L384.7,107.6z"/>
	
		<linearGradient id="SVGID_1_" gradientUnits="userSpaceOnUse" x1="284.805" y1="456.03" x2="284.805" y2="248.57" gradientTransform="matrix(1 0 0 -1 0 512)">
		<stop offset="0" style="stop-color:#E3E3E3"/>
		<stop offset="0.99" style="stop-color:#808081"/>
	</linearGradient>
	<path class="st1" d="M284.8,54.6c68.5,0,124.1,46.7,124.1,104.3s-55.6,104.3-124.1,104.3s-124.1-46.7-124.1-104.3   S216.2,54.6,284.8,54.6z"/>
	
		<linearGradient id="SVGID_2_" gradientUnits="userSpaceOnUse" x1="99.86" y1="456.03" x2="99.86" y2="248.57" gradientTransform="matrix(1 0 0 -1 0 512)">
		<stop offset="0" style="stop-color:#E3E3E3"/>
		<stop offset="0.99" style="stop-color:#808081"/>
	</linearGradient>
	<path class="st2" d="M99.8,164.4c27.3,0,49.5,22.2,49.5,49.5s-22.2,49.5-49.5,49.5c-27.3,0-49.5-22.1-49.5-49.5   C50.3,186.7,72.5,164.5,99.8,164.4C99.8,164.5,99.8,164.4,99.8,164.4z"/>
	
		<linearGradient id="SVGID_3_" gradientUnits="userSpaceOnUse" x1="248.615" y1="456.03" x2="248.615" y2="248.57" gradientTransform="matrix(1 0 0 -1 0 512)">
		<stop offset="0" style="stop-color:#E3E3E3"/>
		<stop offset="0.99" style="stop-color:#808081"/>
	</linearGradient>
	<path class="st3" d="M112.2,204H385c21.7,0,39.2,13.3,39.2,29.7s-17.6,29.7-39.2,29.7H112.2c-21.7,0-39.2-13.3-39.2-29.7   S90.6,204,112.2,204z"/>
	
		<linearGradient id="SVGID_4_" gradientUnits="userSpaceOnUse" x1="180.92" y1="456.03" x2="180.92" y2="248.57" gradientTransform="matrix(1 0 0 -1 0 512)">
		<stop offset="0" style="stop-color:#E3E3E3"/>
		<stop offset="0.99" style="stop-color:#808081"/>
	</linearGradient>
	<path class="st4" d="M180.9,100.8c40.8,0,73.8,33.1,73.8,73.8s-33.1,73.8-73.8,73.8s-73.8-33.1-73.8-73.8   C107.1,133.9,140.2,100.8,180.9,100.8L180.9,100.8z"/>
	
		<linearGradient id="SVGID_5_" gradientUnits="userSpaceOnUse" x1="390.27" y1="456.03" x2="390.27" y2="248.57" gradientTransform="matrix(1 0 0 -1 0 512)">
		<stop offset="0" style="stop-color:#E3E3E3"/>
		<stop offset="0.99" style="stop-color:#808081"/>
	</linearGradient>
	<path class="st5" d="M390.3,115.6c40.8,0,73.8,33.1,73.8,73.8s-33.1,73.8-73.8,73.8s-73.8-33.1-73.8-73.8S349.5,115.6,390.3,115.6   L390.3,115.6z"/>
	
		<linearGradient id="SVGID_6_" gradientUnits="userSpaceOnUse" x1="201.6318" y1="78.4875" x2="342.1618" y2="177.6875" gradientTransform="matrix(1 0 0 -1 0 512)">
		<stop offset="0" style="stop-color:#7F7F7F"/>
		<stop offset="1" style="stop-color:#FFFFFF"/>
	</linearGradient>
	<path class="st6" d="M228.8,343.2h182.8c3.7,0,6.7,3,6.7,6.7c0,3.7-3,6.7-6.7,6.7H228.8c-3.7,0-6.7-3-6.7-6.7   C222.1,346.1,225.1,343.2,228.8,343.2z"/>
	
		<linearGradient id="SVGID_7_" gradientUnits="userSpaceOnUse" x1="249.1817" y1="88.0192" x2="362.7117" y2="168.1592" gradientTransform="matrix(1 0 0 -1 0 512)">
		<stop offset="0" style="stop-color:#7F7F7F"/>
		<stop offset="1" style="stop-color:#FFFFFF"/>
	</linearGradient>
	<path class="st7" d="M413.6,259.7c-15.4,0-29.9,7.4-38.9,20h18.5c5.9-4.4,13.1-6.7,20.4-6.7c19.4,0,35.1,15.7,35,35.1   c0,19.3-15.7,35-35,35c-0.6,0-1.1,0-1.7,0l0,0h-31.5c8.9,8.6,20.8,13.4,33.1,13.4c26.7-0.4,48.1-22.4,47.7-49.1   C461,281.2,439.8,260,413.6,259.7L413.6,259.7z"/>
	
		<linearGradient id="SVGID_8_" gradientUnits="userSpaceOnUse" x1="225.0468" y1="118.1145" x2="339.6468" y2="199.0145" gradientTransform="matrix(1 0 0 -1 0 512)">
		<stop offset="0" style="stop-color:#7F7F7F"/>
		<stop offset="1" style="stop-color:#FFFFFF"/>
	</linearGradient>
	<path class="st8" d="M383.5,273c5,0,9,4,9.1,8.9c0,5-4,9-8.9,9.1s-9-4-9.1-8.9c0,0,0,0,0-0.1C374.5,277.1,378.5,273,383.5,273z"/>
	
		<linearGradient id="SVGID_9_" gradientUnits="userSpaceOnUse" x1="82.4832" y1="87.0354" x2="311.6032" y2="248.7654" gradientTransform="matrix(1 0 0 -1 0 512)">
		<stop offset="0" style="stop-color:#7F7F7F"/>
		<stop offset="1" style="stop-color:#FFFFFF"/>
	</linearGradient>
	<path class="st9" d="M187.3,296.6H330c2.8,0,5.1,1.8,5.1,4s-2.3,4-5.1,4H187.3c-2.8,0-5.1-1.8-5.1-4S184.5,296.6,187.3,296.6z"/>
	
		<linearGradient id="SVGID_10_" gradientUnits="userSpaceOnUse" x1="211.7469" y1="149.8561" x2="325.0269" y2="229.8161" gradientTransform="matrix(1 0 0 -1 0 512)">
		<stop offset="0" style="stop-color:#7F7F7F"/>
		<stop offset="1" style="stop-color:#FFFFFF"/>
	</linearGradient>
	<path class="st10" d="M334.1,246.8c-9.5,0-18.6,4.4-24.3,12h11.6c3.7-2.6,8.2-4,12.8-4c12,0,21.8,9.4,21.8,20.9   s-9.7,20.9-21.8,20.9h-1l0,0h-19.7c5.7,5.2,13,8,20.7,8c16.6,0,30-12.9,30-28.9S350.7,246.8,334.1,246.8z"/>
	
		<linearGradient id="SVGID_11_" gradientUnits="userSpaceOnUse" x1="196.9742" y1="167.1391" x2="311.5842" y2="248.0391" gradientTransform="matrix(1 0 0 -1 0 512)">
		<stop offset="0" style="stop-color:#7F7F7F"/>
		<stop offset="1" style="stop-color:#FFFFFF"/>
	</linearGradient>
	<path class="st11" d="M315.3,255.8c3.2,0.1,5.6,2.8,5.5,5.9c-0.1,3.2-2.8,5.6-5.9,5.5c-3.1-0.1-5.5-2.6-5.5-5.7   C309.4,258.2,312.1,255.7,315.3,255.8z"/>
	
		<linearGradient id="SVGID_12_" gradientUnits="userSpaceOnUse" x1="209.2477" y1="48.5933" x2="394.7077" y2="179.5133" gradientTransform="matrix(1 0 0 -1 0 512)">
		<stop offset="0" style="stop-color:#7F7F7F"/>
		<stop offset="1" style="stop-color:#FFFFFF"/>
	</linearGradient>
	<path class="st12" d="M225.1,397.9h167.6c3.3,0,6-2.2,6-4.8s-2.7-4.8-6-4.8H225.1c-3.3,0-6,2.2-6,4.8S221.8,397.9,225.1,397.9z"/>
	
		<linearGradient id="SVGID_13_" gradientUnits="userSpaceOnUse" x1="314.2463" y1="30.4552" x2="428.8363" y2="111.3452" gradientTransform="matrix(1 0 0 -1 0 512)">
		<stop offset="0" style="stop-color:#7F7F7F"/>
		<stop offset="1" style="stop-color:#FFFFFF"/>
	</linearGradient>
	<path class="st13" d="M396.8,388.2c-8.8,0-17.3,3.5-23.5,9.7h22.3l0,0c0.4,0,0.8,0,1.2,0c13.6,0,24.7,11.4,24.7,25.4   s-11.1,25.4-24.7,25.4c-5.2,0-10.3-1.7-14.5-4.8h-13.1c6.3,9.1,16.6,14.5,27.6,14.5c18.8,0,34.1-15.7,34.1-35.1   S415.7,388.2,396.8,388.2z"/>
	
		<linearGradient id="SVGID_14_" gradientUnits="userSpaceOnUse" x1="315.4623" y1="28.7018" x2="430.0623" y2="109.5918" gradientTransform="matrix(1 0 0 -1 0 512)">
		<stop offset="0" style="stop-color:#7F7F7F"/>
		<stop offset="1" style="stop-color:#FFFFFF"/>
	</linearGradient>
	<path class="st14" d="M375.5,447.7c3.8,0.1,7-2.9,7.1-6.7c0.1-3.8-2.9-7-6.7-7.1c-3.8-0.1-7,2.9-7.1,6.7c0,0.1,0,0.1,0,0.2   C368.7,444.5,371.8,447.6,375.5,447.7z"/>
	<path class="st15" d="M159.8,357.2h-19.9l-14.1,14.1l-14.1-14.1H91.8v-19.9l-14.1-14.1l14.1-14.1v-19.9h19.9l14.1-14.1l14.1,14.1   h19.9v19.9l14.1,14.1l-14.1,14.1L159.8,357.2z M118.5,296l-2.8,2.8h-14.3v14.3l-10.1,10.1l10.1,10.1v14.3h14.3l10.1,10.1l10.1-10.1   h14.3v-14.3l10.1-10.1L150.2,313v-14.3h-14.3l-10.1-10.1L118.5,296z"/>
	<path class="st15" d="M139.4,328.8l5.6-5.6l-5.6-5.6v-8h-8l-5.6-5.5l-5.6,5.6h-8v8l-5.6,5.6l5.6,5.6v8h8l5.6,5.6l5.6-5.6h8   L139.4,328.8z"/>
	<path class="st15" d="M100.2,384l16-60.9h19.2L100.2,384z"/>
	<path class="st15" d="M151.4,384l-16-60.9h-19.2L151.4,384z"/>
	<path class="st15" d="M100.2,262.3l16,60.9h19.2L100.2,262.3z"/>
	<path class="st15" d="M151.4,262.3l-16,60.9h-19.2L151.4,262.3z"/>
	<path class="st15" d="M64.9,297.6l60.9,16v19.2L64.9,297.6z"/>
	<path class="st15" d="M64.9,348.8l60.9-16v-19.2L64.9,348.8z"/>
	<path class="st15" d="M186.6,297.6l-60.9,16v19.2L186.6,297.6z"/>
	<path class="st15" d="M186.6,348.8l-60.9-16v-19.2L186.6,348.8z"/>
	<path class="st15" d="M172.8,439.7h-12.4l-8.8,8.8l-8.8-8.8h-12.4v-12.4l-8.8-8.8l8.8-8.8v-12.4h12.4l8.8-8.8l8.8,8.8h12.4v12.4   l8.8,8.8l-8.8,8.8V439.7z M147.1,401.6l-1.7,1.7h-8.9v8.9l-6.3,6.3l6.3,6.3v8.9h8.9l6.3,6.3l6.3-6.3h8.9v-8.9l6.3-6.3l-6.3-6.3   v-8.9H158l-6.4-6.3L147.1,401.6z"/>
	<path class="st15" d="M160.1,422.1l3.5-3.5l-3.5-3.5v-5h-5l-3.5-3.5l-3.5,3.5h-5v5l-3.5,3.5l3.5,3.5v5h5l3.5,3.5l3.5-3.5h5V422.1z"/>
	<path class="st15" d="M135.7,456.5l10-37.9h12L135.7,456.5z"/>
	<path class="st15" d="M167.6,456.5l-10-37.9h-12L167.6,456.5z"/>
	<path class="st15" d="M135.7,380.6l10,37.9h12L135.7,380.6z"/>
	<path class="st15" d="M167.6,380.6l-10,37.9h-12L167.6,380.6z"/>
	<path class="st15" d="M113.7,402.6l37.9,10v12L113.7,402.6z"/>
	<path class="st15" d="M113.7,434.5l37.9-10v-12L113.7,434.5z"/>
	<path class="st15" d="M189.6,402.6l-37.9,10v12L189.6,402.6z"/>
	<path class="st15" d="M189.6,434.5l-37.9-10v-12L189.6,434.5z"/>
	<path class="st15" d="M253.4,392.8h-16.7l-11.8,11.8l-11.8-11.8h-16.7v-16.7l-11.8-11.8l11.8-11.8v-16.7h16.7l11.8-11.8l11.8,11.8   h16.7v16.7l11.8,11.8l-11.8,11.8L253.4,392.8z M218.7,341.4l-2.4,2.4h-12v12l-8.5,8.5l8.5,8.5v12h12l8.5,8.5l8.5-8.5h12v-12   l8.5-8.5l-8.5-8.5v-12h-12l-8.5-8.5L218.7,341.4z"/>
	<path class="st15" d="M236.3,369l4.7-4.7l-4.7-4.7v-6.7h-6.7l-4.7-4.7l-4.7,4.7h-6.7v6.7l-4.7,4.7l4.7,4.7v6.7h6.7l4.7,4.7l4.7-4.7   h6.7V369z"/>
	<path class="st15" d="M203.4,415.4l13.5-51.1H233L203.4,415.4z"/>
	<path class="st15" d="M246.4,415.4L233,364.2h-16.2L246.4,415.4z"/>
	<path class="st15" d="M203.4,313.1l13.5,51.1H233L203.4,313.1z"/>
	<path class="st15" d="M246.4,313.1L233,364.2h-16.2L246.4,313.1z"/>
	<path class="st15" d="M173.7,342.7l51.1,13.5v16.1L173.7,342.7z"/>
	<path class="st15" d="M173.7,385.8l51.1-13.5v-16.1L173.7,385.8z"/>
	<path class="st15" d="M276,342.7l-51.1,13.5v16.1L276,342.7z"/>
	<path class="st15" d="M276,385.8l-51.1-13.5v-16.1L276,385.8z"/>
</g>
</svg>