<?xml version="1.0" encoding="UTF-8"?>
<!-- Generator: Adobe Illustrator 21.1.0, SVG Export Plug-In . SVG Version: 6.00 Build 0)  -->
<svg version="1.1" id="Layer_1" xmlns="http://www.w3.org/2000/svg" xmlns:xlink="http://www.w3.org/1999/xlink" x="0px" y="0px" viewBox="0 0 512.8 512.2" style="enable-background:new 0 0 512.8 512.2;" xml:space="preserve">
<style type="text/css">
	.st0{fill:#EDEDED;}
	.st1{fill:url(#SVGID_1_);}
	.st2{fill:url(#SVGID_2_);}
	.st3{fill:url(#SVGID_3_);}
	.st4{fill:url(#SVGID_4_);}
	.st5{fill:url(#SVGID_5_);}
	.st6{fill:url(#SVGID_6_);}
	.st7{fill:url(#SVGID_7_);}
	.st8{fill:url(#SVGID_8_);}
	.st9{fill:url(#SVGID_9_);}
	.st10{fill:url(#SVGID_10_);}
	.st11{fill:url(#SVGID_11_);}
	.st12{fill:url(#SVGID_12_);}
	.st13{fill:url(#SVGID_13_);}
	.st14{fill:url(#SVGID_14_);}
	.st15{fill:url(#SVGID_15_);}
	.st16{fill:url(#SVGID_16_);}
	.st17{fill:url(#SVGID_17_);}
	.st18{fill:url(#SVGID_18_);}
	.st19{fill:url(#SVGID_19_);}
	.st20{fill:url(#SVGID_20_);}
	.st21{fill:url(#SVGID_21_);}
	.st22{fill:url(#SVGID_22_);}
	.st23{fill:url(#SVGID_23_);}
	.st24{fill:url(#SVGID_24_);}
	.st25{fill:url(#SVGID_25_);}
	.st26{fill:url(#SVGID_26_);}
	.st27{fill:url(#SVGID_27_);}
	.st28{fill:url(#SVGID_28_);}
	.st29{fill:url(#SVGID_29_);}
	.st30{fill:url(#SVGID_30_);}
	.st31{fill:url(#SVGID_31_);}
	.st32{fill:url(#SVGID_32_);}
	.st33{fill:url(#SVGID_33_);}
	.st34{fill:url(#SVGID_34_);}
	.st35{fill:url(#SVGID_35_);}
	.st36{fill:url(#SVGID_36_);}
	.st37{fill:url(#SVGID_37_);}
	.st38{fill:url(#SVGID_38_);}
	.st39{fill:url(#SVGID_39_);}
</style>
<g id="rain_day_-_heavy">
	<path d="M279.5,48.4c63.7,0,115.3,43,115.3,96.1s-51.6,96.1-115.3,96.1s-115.3-43-115.3-96.1S215.8,48.4,279.5,48.4z"/>
	<path d="M107.7,149.5c25.2,0.2,45.4,20.8,45.2,46c-0.2,25.2-20.8,45.4-46,45.2c-25-0.2-45.2-20.6-45.2-45.6   C61.8,169.8,82.4,149.4,107.7,149.5C107.7,149.5,107.7,149.5,107.7,149.5z"/>
	<path d="M119.2,185.9h253.3c20.1,0,36.4,12.2,36.4,27.4s-16.3,27.4-36.4,27.4H119.2c-20.1,0-36.4-12.2-36.4-27.4   S99.1,185.9,119.2,185.9z"/>
	<path d="M183,91c37.9,0,68.6,30.4,68.6,68s-30.7,68-68.6,68s-68.6-30.4-68.6-68S145.1,91,183,91z"/>
	<path d="M377.4,104.6c37.9,0,68.6,30.4,68.6,68s-30.7,68-68.5,68s-68.5-30.4-68.5-68S339.5,104.6,377.4,104.6z"/>
	<path d="M284.7,55.7c63.7,0,115.3,43,115.3,96.1s-51.6,96.1-115.3,96.1s-115.3-43-115.3-96.1S221,55.7,284.7,55.7z"/>
	<path d="M112.9,156.9c25.2,0.2,45.4,20.8,45.2,46s-20.8,45.4-46,45.2c-25-0.2-45.2-20.6-45.2-45.6C67,177.2,87.6,156.8,112.9,156.9   C112.9,156.9,112.9,156.9,112.9,156.9z"/>
	<path d="M124.4,193.3h253.2c20.1,0,36.4,12.2,36.4,27.4S397.8,248,377.7,248H124.4c-20.1,0-36.4-12.2-36.4-27.4   S104.3,193.3,124.4,193.3z"/>
	<path d="M188.2,98.3c37.9,0,68.6,30.4,68.6,68s-30.7,68-68.6,68s-68.6-30.4-68.6-68S150.4,98.3,188.2,98.3z"/>
	<path d="M382.6,111.9c37.9,0,68.5,30.4,68.5,68s-30.7,68-68.5,68s-68.5-30.4-68.5-68S344.8,111.9,382.6,111.9z"/>
	<path d="M340.3,109.3c53.4,0,96.7,35.4,96.7,79s-43.3,79-96.7,79s-96.7-35.4-96.7-79S286.9,109.3,340.3,109.3z"/>
	<path d="M196.2,192.4c21.3,0,38.6,16.8,38.6,37.5s-17.3,37.5-38.6,37.5s-38.6-16.8-38.6-37.5S174.9,192.4,196.2,192.4z"/>
	<path d="M205.8,222.4h212.6c16.9,0,30.6,10.1,30.6,22.5s-13.7,22.5-30.6,22.5H205.8c-16.9,0-30.6-10.1-30.6-22.5   S188.9,222.4,205.8,222.4z"/>
	<path d="M259.4,144.3c31.8,0,57.5,25,57.5,55.9S291.1,256,259.4,256s-57.5-25-57.5-55.9S227.6,144.3,259.4,144.3z"/>
	<path d="M424.5,161.3c30.1,0,54.6,23.7,54.6,53s-24.4,53-54.6,53s-54.5-23.7-54.5-53S394.4,161.3,424.5,161.3z"/>
	<path d="M345.2,116.2c48.9,0,88.6,33.1,88.6,73.8s-39.6,73.8-88.6,73.8s-88.6-33.1-88.6-73.9S296.3,116.2,345.2,116.2z"/>
	<path d="M213.3,193.9c19.3,0.2,34.9,15.9,34.7,35.3s-15.9,34.9-35.3,34.7c-19.2-0.2-34.7-15.7-34.7-34.9   C178.1,209.6,193.9,193.9,213.3,193.9z"/>
	<path d="M222.1,221.9h194.6c15.5,0,28,9.4,28,21s-12.5,21-28,21H222.1c-15.5,0-28-9.4-28-21S206.7,221.9,222.1,221.9z"/>
	<path d="M271.1,148.9c29.1,0,52.7,23.4,52.7,52.2s-23.6,52.2-52.7,52.2s-52.7-23.4-52.7-52.2S242,148.9,271.1,148.9z"/>
	<path d="M420.5,159.4c29.1,0,52.7,23.4,52.7,52.2s-23.6,52.2-52.7,52.2s-52.7-23.4-52.7-52.2S391.4,159.4,420.5,159.4z"/>
	<path d="M349.2,121.8c48.9,0,88.6,33,88.6,73.8s-39.6,73.8-88.6,73.8s-88.6-33.1-88.6-73.8S300.3,121.8,349.2,121.8z"/>
	<path d="M217.3,199.6c19.3,0.2,34.9,16,34.7,35.3s-16,34.9-35.3,34.7c-19.2-0.2-34.7-15.8-34.7-35   C182.1,215.2,197.9,199.5,217.3,199.6z"/>
	<path d="M226.1,227.6h194.6c15.5,0,28,9.4,28,21c0,11.6-12.5,21-28,21H226.1c-15.5,0-28-9.4-28-21S210.7,227.6,226.1,227.6z"/>
	<path d="M275.1,154.6c29.1,0,52.7,23.4,52.7,52.2s-23.6,52.2-52.7,52.2s-52.7-23.4-52.7-52.2S246,154.6,275.1,154.6z"/>
	<path d="M424.5,165c29.1,0,52.7,23.4,52.7,52.2s-23.6,52.3-52.7,52.3s-52.7-23.4-52.7-52.2S395.4,165,424.5,165z"/>
	<path d="M187.7,394.3c-26.2-4.4,11.7-56.1,11.7-56.1C200,340.4,203.3,396.9,187.7,394.3z"/>
	<path d="M218.6,333.1c-26.2-4.4,11.7-56.1,11.7-56.1C230.9,279.2,234.2,335.8,218.6,333.1z"/>
	<path d="M87.1,394.3c-26.2-4.4,11.7-56.1,11.7-56.1C99.4,340.4,102.7,396.9,87.1,394.3z"/>
	<path d="M117.9,333.1c-26.2-4.4,11.7-56.1,11.7-56.1C130.2,279.2,133.6,335.8,117.9,333.1z"/>
	<path d="M287.2,394.3c-26.2-4.4,11.7-56.1,11.7-56.1C299.5,340.4,302.8,396.9,287.2,394.3z"/>
	<path d="M318,333.1c-26.2-4.4,11.7-56.1,11.7-56.1C330.4,279.2,333.7,335.8,318,333.1z"/>
	<path d="M390.9,400c-26.2-4.4,11.7-56.1,11.7-56.1C403.2,346,406.5,402.6,390.9,400z"/>
	<path d="M421.8,333.1c-26.2-4.4,11.7-56.1,11.7-56.1C434.1,279.2,437.4,335.8,421.8,333.1z"/>
	<path d="M183.9,324.3c-1.7,8.9-10.3,14.8-19.2,13.1c-8.7-1.6-14.6-9.9-13.2-18.7c1.5-8.9,22.4-33.1,22.4-33.1   S185.5,315.4,183.9,324.3z"/>
	<path d="M155.3,395.8c-1.7,8.9-10.3,14.8-19.2,13.1c-8.7-1.6-14.6-9.9-13.2-18.7c1.5-8.9,22.4-33.1,22.4-33.1   S156.9,386.8,155.3,395.8z"/>
	<path d="M284,324.3c-1.7,8.9-10.3,14.8-19.2,13.1c-8.7-1.6-14.6-9.9-13.2-18.7c1.5-8.9,22.4-33.1,22.4-33.1S285.5,315.4,284,324.3z   "/>
	<path d="M255.4,395.8c-1.7,8.9-10.3,14.8-19.2,13.1c-8.7-1.6-14.6-9.9-13.2-18.7c1.5-8.9,22.4-33.1,22.4-33.1   S256.9,386.8,255.4,395.8z"/>
	<path d="M384,324.3c-1.7,8.9-10.3,14.8-19.2,13.1c-8.7-1.6-14.6-9.9-13.2-18.7c1.5-8.9,22.4-33.1,22.4-33.1S385.6,315.4,384,324.3z   "/>
	<path d="M355.5,395.8c-1.7,8.9-10.3,14.8-19.2,13.1c-8.7-1.6-14.6-9.9-13.2-18.7c1.5-8.9,22.4-33.1,22.4-33.1   S357,386.8,355.5,395.8z"/>
	<path d="M186.9,152.1c38.9,0,70.5,25.8,70.5,57.6s-31.6,57.6-70.5,57.6s-70.5-25.8-70.5-57.6S148,152.1,186.9,152.1z"/>
	<path d="M81.9,212.8c15.5,0,28.1,12.2,28.1,27.3s-12.6,27.3-28.1,27.3s-28.1-12.2-28.1-27.3S66.3,212.8,81.9,212.8z"/>
	<path d="M88.9,234.6h154.9c12.3,0,22.3,7.3,22.3,16.4s-10,16.4-22.3,16.4H88.9c-12.3,0-22.3-7.3-22.3-16.4S76.6,234.6,88.9,234.6z"/>
	<path d="M127.9,177.6c23.2,0,41.9,18.2,41.9,40.7s-18.8,40.7-41.9,40.7S86,240.9,86,218.4S104.8,177.6,127.9,177.6z"/>
	<path d="M248.3,190.1c22,0,39.8,17.3,39.8,38.6s-17.8,38.6-39.8,38.6s-39.8-17.3-39.8-38.6S226.4,190.1,248.3,190.1z"/>
	<path d="M177.6,156.7c36,0,65.2,24.4,65.2,54.4s-29.2,54.4-65.2,54.4s-65.2-24.4-65.2-54.4S141.5,156.7,177.6,156.7z"/>
	<path d="M80.3,214c14.3,0.1,25.7,11.7,25.6,26c-0.1,14.3-11.7,25.7-26,25.6c-14.2-0.1-25.6-11.6-25.6-25.8   C54.4,225.5,66,214,80.3,214z"/>
	<path d="M86.8,234.6h143.4c11.4,0,20.6,6.9,20.6,15.5s-9.2,15.5-20.6,15.5H86.8c-11.4,0-20.6-6.9-20.6-15.5S75.5,234.6,86.8,234.6z   "/>
	<path d="M123,180.8c21.3,0.2,38.3,17.6,38.2,38.8s-17.6,38.3-38.8,38.2c-21.1-0.2-38.2-17.4-38.2-38.5   C84.3,198,101.7,180.7,123,180.8C123,180.8,123,180.8,123,180.8z"/>
	<path d="M233,188.5c21.3,0.2,38.4,17.5,38.2,38.8s-17.5,38.4-38.8,38.2c-21.1-0.2-38.2-17.4-38.2-38.5   C194.3,205.7,211.7,188.4,233,188.5z"/>
	<path d="M180.5,160.9c36,0,65.2,24.4,65.2,54.4s-29.2,54.4-65.2,54.4s-65.2-24.4-65.2-54.4S144.5,160.9,180.5,160.9z"/>
	<path d="M83.3,218.1c14.3,0.1,25.7,11.7,25.6,26c-0.1,14.3-11.7,25.7-26,25.6c-14.2-0.1-25.6-11.6-25.6-25.8   C57.4,229.7,69,218.1,83.3,218.1z"/>
	<path d="M89.8,238.8h143.4c11.4,0,20.6,6.9,20.6,15.5s-9.2,15.5-20.6,15.5H89.8c-11.4,0-20.6-6.9-20.6-15.5S78.4,238.8,89.8,238.8z   "/>
	<path d="M125.9,185c21.3,0.2,38.3,17.6,38.2,38.8s-17.6,38.3-38.8,38.2c-21.1-0.2-38.2-17.4-38.2-38.5   C87.2,202.1,104.6,184.9,125.9,185C125.9,185,125.9,185,125.9,185z"/>
	<path d="M236,192.7c21.3,0.2,38.3,17.6,38.2,38.8s-17.6,38.3-38.8,38.2c-21.1-0.2-38.2-17.4-38.2-38.5   C197.3,209.8,214.7,192.6,236,192.7C236,192.7,236,192.7,236,192.7z"/>
	<path class="st0" d="M264.5,48.4c63.7,0,115.3,43,115.3,96.1s-51.6,96.1-115.3,96.1s-115.3-43-115.3-96.1S200.9,48.4,264.5,48.4z"/>
	<path class="st0" d="M92.8,149.5c25.2,0.2,45.4,20.8,45.2,46c-0.2,25.2-20.8,45.4-46,45.2c-25-0.2-45.2-20.6-45.2-45.6   C46.9,169.8,67.5,149.4,92.8,149.5C92.8,149.5,92.8,149.5,92.8,149.5z"/>
	<path class="st0" d="M104.3,185.9h253.3c20.1,0,36.4,12.2,36.4,27.4s-16.3,27.4-36.4,27.4H104.3c-20.1,0-36.4-12.2-36.4-27.4   S84.2,185.9,104.3,185.9z"/>
	<path class="st0" d="M168.1,91c37.9,0,68.6,30.4,68.6,68s-30.7,68-68.6,68s-68.6-30.4-68.6-68S130.2,91,168.1,91z"/>
	<path class="st0" d="M362.5,104.6c37.9,0,68.6,30.4,68.6,68s-30.7,68-68.5,68s-68.5-30.4-68.5-68S324.6,104.6,362.5,104.6z"/>
	
		<linearGradient id="SVGID_1_" gradientUnits="userSpaceOnUse" x1="269.74" y1="455.03" x2="269.74" y2="263.95" gradientTransform="matrix(1 0 0 -1 0 512)">
		<stop offset="0" style="stop-color:#E3E3E3"/>
		<stop offset="0.99" style="stop-color:#808081"/>
	</linearGradient>
	<path class="st1" d="M269.7,55.7c63.7,0,115.3,43,115.3,96.1s-51.6,96.1-115.3,96.1s-115.3-43-115.3-96.1S206.1,55.7,269.7,55.7z"/>
	
		<linearGradient id="SVGID_2_" gradientUnits="userSpaceOnUse" x1="97.6" y1="455.03" x2="97.6" y2="263.95" gradientTransform="matrix(1 0 0 -1 0 512)">
		<stop offset="0" style="stop-color:#E3E3E3"/>
		<stop offset="0.99" style="stop-color:#808081"/>
	</linearGradient>
	<path class="st2" d="M98,156.9c25.2,0.2,45.4,20.8,45.2,46s-20.8,45.4-46,45.2c-25-0.2-45.2-20.6-45.2-45.6   C52.1,177.2,72.7,156.8,98,156.9C98,156.9,98,156.9,98,156.9z"/>
	
		<linearGradient id="SVGID_3_" gradientUnits="userSpaceOnUse" x1="236.125" y1="455.03" x2="236.125" y2="263.95" gradientTransform="matrix(1 0 0 -1 0 512)">
		<stop offset="0" style="stop-color:#E3E3E3"/>
		<stop offset="0.99" style="stop-color:#808081"/>
	</linearGradient>
	<path class="st3" d="M109.5,193.3h253.2c20.1,0,36.4,12.2,36.4,27.4S382.9,248,362.8,248H109.5c-20.1,0-36.4-12.2-36.4-27.4   S89.4,193.3,109.5,193.3z"/>
	
		<linearGradient id="SVGID_4_" gradientUnits="userSpaceOnUse" x1="173.28" y1="455.03" x2="173.28" y2="263.95" gradientTransform="matrix(1 0 0 -1 0 512)">
		<stop offset="0" style="stop-color:#E3E3E3"/>
		<stop offset="0.99" style="stop-color:#808081"/>
	</linearGradient>
	<path class="st4" d="M173.3,98.3c37.9,0,68.6,30.4,68.6,68s-30.7,68-68.6,68s-68.6-30.4-68.6-68S135.4,98.3,173.3,98.3z"/>
	
		<linearGradient id="SVGID_5_" gradientUnits="userSpaceOnUse" x1="367.68" y1="455.03" x2="367.68" y2="263.95" gradientTransform="matrix(1 0 0 -1 0 512)">
		<stop offset="0" style="stop-color:#E3E3E3"/>
		<stop offset="0.99" style="stop-color:#808081"/>
	</linearGradient>
	<path class="st5" d="M367.7,111.9c37.9,0,68.5,30.4,68.5,68s-30.7,68-68.5,68s-68.5-30.4-68.5-68S329.8,111.9,367.7,111.9z"/>
	
		<radialGradient id="SVGID_6_" cx="328.09" cy="208.1832" r="165.23" gradientTransform="matrix(1 0 0 -0.94 0 435.78)" gradientUnits="userSpaceOnUse">
		<stop offset="0.37" style="stop-color:#646464"/>
		<stop offset="0.58" style="stop-color:#676767;stop-opacity:0.98"/>
		<stop offset="0.69" style="stop-color:#717171;stop-opacity:0.9"/>
		<stop offset="0.79" style="stop-color:#828282;stop-opacity:0.76"/>
		<stop offset="0.86" style="stop-color:#9B9B9B;stop-opacity:0.57"/>
		<stop offset="0.93" style="stop-color:#BBBBBB;stop-opacity:0.32"/>
		<stop offset="1" style="stop-color:#E1E1E1;stop-opacity:1.000000e-02"/>
		<stop offset="1" style="stop-color:#E3E3E3;stop-opacity:0"/>
	</radialGradient>
	<path class="st6" d="M325.4,109.3c53.4,0,96.7,35.4,96.7,79s-43.3,79-96.7,79s-96.7-35.4-96.7-79S272,109.3,325.4,109.3z"/>
	
		<radialGradient id="SVGID_7_" cx="328.09" cy="208.1832" r="165.23" gradientTransform="matrix(1 0 0 -0.94 0 435.78)" gradientUnits="userSpaceOnUse">
		<stop offset="0.37" style="stop-color:#646464"/>
		<stop offset="0.58" style="stop-color:#676767;stop-opacity:0.98"/>
		<stop offset="0.69" style="stop-color:#717171;stop-opacity:0.9"/>
		<stop offset="0.79" style="stop-color:#828282;stop-opacity:0.76"/>
		<stop offset="0.86" style="stop-color:#9B9B9B;stop-opacity:0.57"/>
		<stop offset="0.93" style="stop-color:#BBBBBB;stop-opacity:0.32"/>
		<stop offset="1" style="stop-color:#E1E1E1;stop-opacity:1.000000e-02"/>
		<stop offset="1" style="stop-color:#E3E3E3;stop-opacity:0"/>
	</radialGradient>
	<path class="st7" d="M181.2,192.4c21.3,0,38.6,16.8,38.6,37.5s-17.3,37.5-38.6,37.5s-38.6-16.8-38.6-37.5S159.9,192.4,181.2,192.4z   "/>
	
		<radialGradient id="SVGID_8_" cx="328.09" cy="208.1832" r="165.23" gradientTransform="matrix(1 0 0 -0.94 0 435.78)" gradientUnits="userSpaceOnUse">
		<stop offset="0.37" style="stop-color:#646464"/>
		<stop offset="0.58" style="stop-color:#676767;stop-opacity:0.98"/>
		<stop offset="0.69" style="stop-color:#717171;stop-opacity:0.9"/>
		<stop offset="0.79" style="stop-color:#828282;stop-opacity:0.76"/>
		<stop offset="0.86" style="stop-color:#9B9B9B;stop-opacity:0.57"/>
		<stop offset="0.93" style="stop-color:#BBBBBB;stop-opacity:0.32"/>
		<stop offset="1" style="stop-color:#E1E1E1;stop-opacity:1.000000e-02"/>
		<stop offset="1" style="stop-color:#E3E3E3;stop-opacity:0"/>
	</radialGradient>
	<path class="st8" d="M190.9,222.4h212.5c16.9,0,30.6,10.1,30.6,22.5s-13.7,22.5-30.6,22.5H190.9c-16.9,0-30.6-10.1-30.6-22.5   S174,222.4,190.9,222.4z"/>
	
		<radialGradient id="SVGID_9_" cx="328.09" cy="208.1832" r="165.23" gradientTransform="matrix(1 0 0 -0.94 0 435.78)" gradientUnits="userSpaceOnUse">
		<stop offset="0.37" style="stop-color:#646464"/>
		<stop offset="0.58" style="stop-color:#676767;stop-opacity:0.98"/>
		<stop offset="0.69" style="stop-color:#717171;stop-opacity:0.9"/>
		<stop offset="0.79" style="stop-color:#828282;stop-opacity:0.76"/>
		<stop offset="0.86" style="stop-color:#9B9B9B;stop-opacity:0.57"/>
		<stop offset="0.93" style="stop-color:#BBBBBB;stop-opacity:0.32"/>
		<stop offset="1" style="stop-color:#E1E1E1;stop-opacity:1.000000e-02"/>
		<stop offset="1" style="stop-color:#E3E3E3;stop-opacity:0"/>
	</radialGradient>
	<path class="st9" d="M244.4,144.3c31.8,0,57.5,25,57.5,55.9S276.2,256,244.4,256s-57.5-25-57.5-55.9S212.6,144.3,244.4,144.3z"/>
	
		<radialGradient id="SVGID_10_" cx="324.55" cy="200.45" r="186.93" gradientTransform="matrix(1 0 0 -1 0 512)" gradientUnits="userSpaceOnUse">
		<stop offset="0.37" style="stop-color:#646464"/>
		<stop offset="0.58" style="stop-color:#676767;stop-opacity:0.98"/>
		<stop offset="0.69" style="stop-color:#717171;stop-opacity:0.9"/>
		<stop offset="0.79" style="stop-color:#828282;stop-opacity:0.76"/>
		<stop offset="0.86" style="stop-color:#9B9B9B;stop-opacity:0.57"/>
		<stop offset="0.93" style="stop-color:#BBBBBB;stop-opacity:0.32"/>
		<stop offset="1" style="stop-color:#E1E1E1;stop-opacity:1.000000e-02"/>
		<stop offset="1" style="stop-color:#E3E3E3;stop-opacity:0"/>
	</radialGradient>
	<path class="st10" d="M409.6,161.3c30.1,0,54.6,23.7,54.6,53s-24.4,53-54.6,53s-54.6-23.7-54.6-53S379.5,161.3,409.6,161.3z"/>
	<path class="st0" d="M330.3,116.2c48.9,0,88.6,33.1,88.6,73.8s-39.6,73.8-88.6,73.8s-88.6-33.1-88.6-73.9S281.4,116.2,330.3,116.2z   "/>
	<path class="st0" d="M198.3,193.9c19.3,0.2,34.8,16,34.7,35.3s-16,34.8-35.3,34.7c-19.2-0.2-34.6-15.8-34.7-34.9   C163.1,209.6,178.9,193.9,198.3,193.9C198.3,193.9,198.3,193.9,198.3,193.9z"/>
	<path class="st0" d="M207.2,221.9h194.6c15.5,0,28,9.4,28,21s-12.5,21-28,21H207.2c-15.5,0-28-9.4-28-21S191.7,221.9,207.2,221.9z"/>
	<path class="st0" d="M256.2,148.9c29.1,0,52.7,23.4,52.7,52.2s-23.6,52.2-52.7,52.2s-52.7-23.4-52.7-52.2S227.1,148.9,256.2,148.9z   "/>
	<path class="st0" d="M405.6,159.4c29.1,0,52.7,23.4,52.7,52.2s-23.6,52.2-52.7,52.2s-52.7-23.4-52.7-52.2S376.5,159.4,405.6,159.4z   "/>
	
		<linearGradient id="SVGID_11_" gradientUnits="userSpaceOnUse" x1="334.31" y1="389.18" x2="334.31" y2="242.36" gradientTransform="matrix(1 0 0 -1 0 512)">
		<stop offset="0" style="stop-color:#E3E3E3"/>
		<stop offset="0.99" style="stop-color:#808081"/>
	</linearGradient>
	<path class="st11" d="M334.3,121.8c48.9,0,88.6,33,88.6,73.8s-39.6,73.8-88.6,73.8s-88.6-33.1-88.6-73.8S285.4,121.8,334.3,121.8z"/>
	
		<linearGradient id="SVGID_12_" gradientUnits="userSpaceOnUse" x1="202.03" y1="389.18" x2="202.03" y2="242.36" gradientTransform="matrix(1 0 0 -1 0 512)">
		<stop offset="0" style="stop-color:#E3E3E3"/>
		<stop offset="0.99" style="stop-color:#808081"/>
	</linearGradient>
	<path class="st12" d="M202.4,199.6c19.3,0.2,34.9,16,34.7,35.3c-0.2,19.3-16,34.9-35.3,34.7c-19.2-0.2-34.7-15.8-34.7-35   C167.1,215.2,182.9,199.5,202.4,199.6z"/>
	
		<linearGradient id="SVGID_13_" gradientUnits="userSpaceOnUse" x1="308.48" y1="389.18" x2="308.48" y2="242.36" gradientTransform="matrix(1 0 0 -1 0 512)">
		<stop offset="0" style="stop-color:#E3E3E3"/>
		<stop offset="0.99" style="stop-color:#808081"/>
	</linearGradient>
	<path class="st13" d="M211.2,227.6h194.6c15.5,0,28,9.4,28,21c0,11.6-12.5,21-28,21H211.2c-15.5,0-28-9.4-28-21   S195.7,227.6,211.2,227.6z"/>
	
		<linearGradient id="SVGID_14_" gradientUnits="userSpaceOnUse" x1="260.19" y1="389.18" x2="260.19" y2="242.36" gradientTransform="matrix(1 0 0 -1 0 512)">
		<stop offset="0" style="stop-color:#E3E3E3"/>
		<stop offset="0.99" style="stop-color:#808081"/>
	</linearGradient>
	<path class="st14" d="M260.2,154.6c29.1,0,52.7,23.4,52.7,52.2s-23.6,52.2-52.7,52.2s-52.7-23.4-52.7-52.2S231.1,154.6,260.2,154.6   z"/>
	
		<linearGradient id="SVGID_15_" gradientUnits="userSpaceOnUse" x1="409.56" y1="389.18" x2="409.56" y2="242.36" gradientTransform="matrix(1 0 0 -1 0 512)">
		<stop offset="0" style="stop-color:#E3E3E3"/>
		<stop offset="0.99" style="stop-color:#808081"/>
	</linearGradient>
	<path class="st15" d="M409.6,165c29.1,0,52.7,23.4,52.7,52.2s-23.6,52.2-52.7,52.2s-52.7-23.4-52.7-52.2S380.5,165,409.6,165z"/>
	
		<linearGradient id="SVGID_16_" gradientUnits="userSpaceOnUse" x1="166.6475" y1="155.9775" x2="190.5597" y2="132.0653" gradientTransform="matrix(1 0 0 -1 0 512)">
		<stop offset="0.21" style="stop-color:#C4EAFD"/>
		<stop offset="0.99" style="stop-color:#2180ED"/>
	</linearGradient>
	<path class="st16" d="M172.7,394.3c-26.2-4.4,11.7-56.1,11.7-56.1C185,340.4,188.4,396.9,172.7,394.3z"/>
	
		<linearGradient id="SVGID_17_" gradientUnits="userSpaceOnUse" x1="197.5275" y1="217.1375" x2="221.4419" y2="193.2231" gradientTransform="matrix(1 0 0 -1 0 512)">
		<stop offset="0.21" style="stop-color:#C4EAFD"/>
		<stop offset="0.99" style="stop-color:#2180ED"/>
	</linearGradient>
	<path class="st17" d="M203.6,333.1c-26.2-4.4,11.7-56.1,11.7-56.1C215.9,279.2,219.2,335.8,203.6,333.1z"/>
	
		<linearGradient id="SVGID_18_" gradientUnits="userSpaceOnUse" x1="66.0375" y1="155.9775" x2="89.9504" y2="132.0647" gradientTransform="matrix(1 0 0 -1 0 512)">
		<stop offset="0.21" style="stop-color:#C4EAFD"/>
		<stop offset="0.99" style="stop-color:#2180ED"/>
	</linearGradient>
	<path class="st18" d="M72.1,394.3c-26.2-4.4,11.7-56.1,11.7-56.1C84.4,340.4,87.8,396.9,72.1,394.3z"/>
	
		<linearGradient id="SVGID_19_" gradientUnits="userSpaceOnUse" x1="96.9175" y1="217.1375" x2="120.8319" y2="193.2231" gradientTransform="matrix(1 0 0 -1 0 512)">
		<stop offset="0.21" style="stop-color:#C4EAFD"/>
		<stop offset="0.99" style="stop-color:#2180ED"/>
	</linearGradient>
	<path class="st19" d="M103,333.1c-26.2-4.4,11.7-56.1,11.7-56.1C115.3,279.2,118.6,335.8,103,333.1z"/>
	
		<linearGradient id="SVGID_20_" gradientUnits="userSpaceOnUse" x1="266.178" y1="155.9705" x2="290.0747" y2="132.0837" gradientTransform="matrix(1 0 0 -1 0 512)">
		<stop offset="0.21" style="stop-color:#C4EAFD"/>
		<stop offset="0.99" style="stop-color:#2180ED"/>
	</linearGradient>
	<path class="st20" d="M272.2,394.3c-26.2-4.4,11.8-56.1,11.8-56.1C284.5,340.4,287.9,396.9,272.2,394.3z"/>
	
		<linearGradient id="SVGID_21_" gradientUnits="userSpaceOnUse" x1="297.0275" y1="217.1375" x2="320.9419" y2="193.2232" gradientTransform="matrix(1 0 0 -1 0 512)">
		<stop offset="0.21" style="stop-color:#C4EAFD"/>
		<stop offset="0.99" style="stop-color:#2180ED"/>
	</linearGradient>
	<path class="st21" d="M303.1,333.1c-26.2-4.4,11.7-56.1,11.7-56.1C315.4,279.2,318.7,335.8,303.1,333.1z"/>
	
		<linearGradient id="SVGID_22_" gradientUnits="userSpaceOnUse" x1="369.9175" y1="150.2875" x2="393.8275" y2="126.3775" gradientTransform="matrix(1 0 0 -1 0 512)">
		<stop offset="0.21" style="stop-color:#C4EAFD"/>
		<stop offset="0.99" style="stop-color:#2180ED"/>
	</linearGradient>
	<path class="st22" d="M376,400c-26.2-4.4,11.7-56.1,11.7-56.1C388.3,346,391.6,402.6,376,400z"/>
	
		<linearGradient id="SVGID_23_" gradientUnits="userSpaceOnUse" x1="400.7675" y1="217.1375" x2="424.6821" y2="193.2229" gradientTransform="matrix(1 0 0 -1 0 512)">
		<stop offset="0.21" style="stop-color:#C4EAFD"/>
		<stop offset="0.99" style="stop-color:#2180ED"/>
	</linearGradient>
	<path class="st23" d="M406.9,333.1c-26.2-4.4,11.7-56.1,11.7-56.1C419.2,279.2,422.5,335.8,406.9,333.1z"/>
	
		<linearGradient id="SVGID_24_" gradientUnits="userSpaceOnUse" x1="142.7573" y1="210.1835" x2="169.2273" y2="183.7035" gradientTransform="matrix(1 0 0 -1 0 512)">
		<stop offset="0.21" style="stop-color:#C4EAFD"/>
		<stop offset="0.99" style="stop-color:#2180ED"/>
	</linearGradient>
	<path class="st24" d="M169,324.3c-1.7,8.9-10.3,14.8-19.2,13.1c-8.7-1.6-14.6-9.9-13.2-18.7c1.5-8.9,22.4-33.1,22.4-33.1   S170.5,315.4,169,324.3z"/>
	
		<linearGradient id="SVGID_25_" gradientUnits="userSpaceOnUse" x1="114.1573" y1="138.7135" x2="140.6273" y2="112.2335" gradientTransform="matrix(1 0 0 -1 0 512)">
		<stop offset="0.21" style="stop-color:#C4EAFD"/>
		<stop offset="0.99" style="stop-color:#2180ED"/>
	</linearGradient>
	<path class="st25" d="M140.4,395.8c-1.7,8.9-10.3,14.8-19.2,13.1c-8.7-1.6-14.6-9.9-13.2-18.7c1.5-8.9,22.4-33.1,22.4-33.1   S141.9,386.8,140.4,395.8z"/>
	
		<linearGradient id="SVGID_26_" gradientUnits="userSpaceOnUse" x1="242.759" y1="210.179" x2="269.239" y2="183.699" gradientTransform="matrix(1 0 0 -1 0 512)">
		<stop offset="0.21" style="stop-color:#C4EAFD"/>
		<stop offset="0.99" style="stop-color:#2180ED"/>
	</linearGradient>
	<path class="st26" d="M269,324.3c-1.7,8.9-10.3,14.8-19.2,13.1c-8.7-1.6-14.6-9.9-13.2-18.7c1.5-8.9,22.4-33.1,22.4-33.1   S270.6,315.4,269,324.3z"/>
	
		<linearGradient id="SVGID_27_" gradientUnits="userSpaceOnUse" x1="214.2173" y1="138.7135" x2="240.6873" y2="112.2335" gradientTransform="matrix(1 0 0 -1 0 512)">
		<stop offset="0.21" style="stop-color:#C4EAFD"/>
		<stop offset="0.99" style="stop-color:#2180ED"/>
	</linearGradient>
	<path class="st27" d="M240.5,395.8c-1.7,8.9-10.3,14.8-19.2,13.1c-8.7-1.6-14.6-9.9-13.2-18.7c1.5-8.9,22.4-33.1,22.4-33.1   S242,386.8,240.5,395.8z"/>
	
		<linearGradient id="SVGID_28_" gradientUnits="userSpaceOnUse" x1="342.859" y1="210.179" x2="369.339" y2="183.699" gradientTransform="matrix(1 0 0 -1 0 512)">
		<stop offset="0.21" style="stop-color:#C4EAFD"/>
		<stop offset="0.99" style="stop-color:#2180ED"/>
	</linearGradient>
	<path class="st28" d="M369.1,324.3c-1.7,8.9-10.3,14.8-19.2,13.1c-8.7-1.6-14.6-9.9-13.2-18.7c1.5-8.9,22.4-33.1,22.4-33.1   S370.6,315.4,369.1,324.3z"/>
	
		<linearGradient id="SVGID_29_" gradientUnits="userSpaceOnUse" x1="314.279" y1="138.709" x2="340.7589" y2="112.229" gradientTransform="matrix(1 0 0 -1 0 512)">
		<stop offset="0.21" style="stop-color:#C4EAFD"/>
		<stop offset="0.99" style="stop-color:#2180ED"/>
	</linearGradient>
	<path class="st29" d="M340.5,395.8c-1.7,8.9-10.3,14.8-19.2,13.1c-8.7-1.6-14.6-9.9-13.2-18.7c1.5-8.9,22.4-33.1,22.4-33.1   S342,386.8,340.5,395.8z"/>
	
		<radialGradient id="SVGID_30_" cx="173.97" cy="188.75" r="120.44" gradientTransform="matrix(1 0 0 -1 0 512)" gradientUnits="userSpaceOnUse">
		<stop offset="0.37" style="stop-color:#646464"/>
		<stop offset="0.58" style="stop-color:#676767;stop-opacity:0.98"/>
		<stop offset="0.69" style="stop-color:#717171;stop-opacity:0.9"/>
		<stop offset="0.79" style="stop-color:#828282;stop-opacity:0.76"/>
		<stop offset="0.86" style="stop-color:#9B9B9B;stop-opacity:0.57"/>
		<stop offset="0.93" style="stop-color:#BBBBBB;stop-opacity:0.32"/>
		<stop offset="1" style="stop-color:#E1E1E1;stop-opacity:1.000000e-02"/>
		<stop offset="1" style="stop-color:#E3E3E3;stop-opacity:0"/>
	</radialGradient>
	<path class="st30" d="M172,152.1c38.9,0,70.5,25.8,70.5,57.6s-31.6,57.6-70.5,57.6s-70.5-25.8-70.5-57.6S133,152.1,172,152.1z"/>
	
		<radialGradient id="SVGID_31_" cx="173.97" cy="188.75" r="120.44" gradientTransform="matrix(1 0 0 -1 0 512)" gradientUnits="userSpaceOnUse">
		<stop offset="0.37" style="stop-color:#646464"/>
		<stop offset="0.58" style="stop-color:#676767;stop-opacity:0.98"/>
		<stop offset="0.69" style="stop-color:#717171;stop-opacity:0.9"/>
		<stop offset="0.79" style="stop-color:#828282;stop-opacity:0.76"/>
		<stop offset="0.86" style="stop-color:#9B9B9B;stop-opacity:0.57"/>
		<stop offset="0.93" style="stop-color:#BBBBBB;stop-opacity:0.32"/>
		<stop offset="1" style="stop-color:#E1E1E1;stop-opacity:1.000000e-02"/>
		<stop offset="1" style="stop-color:#E3E3E3;stop-opacity:0"/>
	</radialGradient>
	<path class="st31" d="M66.9,212.8c15.5,0,28.1,12.2,28.1,27.3s-12.6,27.3-28.1,27.3s-28.1-12.2-28.1-27.3S51.4,212.8,66.9,212.8z"/>
	
		<radialGradient id="SVGID_32_" cx="173.97" cy="188.75" r="120.44" gradientTransform="matrix(1 0 0 -1 0 512)" gradientUnits="userSpaceOnUse">
		<stop offset="0.37" style="stop-color:#646464"/>
		<stop offset="0.58" style="stop-color:#676767;stop-opacity:0.98"/>
		<stop offset="0.69" style="stop-color:#717171;stop-opacity:0.9"/>
		<stop offset="0.79" style="stop-color:#828282;stop-opacity:0.76"/>
		<stop offset="0.86" style="stop-color:#9B9B9B;stop-opacity:0.57"/>
		<stop offset="0.93" style="stop-color:#BBBBBB;stop-opacity:0.32"/>
		<stop offset="1" style="stop-color:#E1E1E1;stop-opacity:1.000000e-02"/>
		<stop offset="1" style="stop-color:#E3E3E3;stop-opacity:0"/>
	</radialGradient>
	<path class="st32" d="M74,234.6h154.9c12.3,0,22.3,7.3,22.3,16.4s-10,16.4-22.3,16.4H74c-12.3,0-22.3-7.3-22.3-16.4   S61.7,234.6,74,234.6z"/>
	
		<radialGradient id="SVGID_33_" cx="173.97" cy="188.75" r="120.44" gradientTransform="matrix(1 0 0 -1 0 512)" gradientUnits="userSpaceOnUse">
		<stop offset="0.37" style="stop-color:#646464"/>
		<stop offset="0.58" style="stop-color:#676767;stop-opacity:0.98"/>
		<stop offset="0.69" style="stop-color:#717171;stop-opacity:0.9"/>
		<stop offset="0.79" style="stop-color:#828282;stop-opacity:0.76"/>
		<stop offset="0.86" style="stop-color:#9B9B9B;stop-opacity:0.57"/>
		<stop offset="0.93" style="stop-color:#BBBBBB;stop-opacity:0.32"/>
		<stop offset="1" style="stop-color:#E1E1E1;stop-opacity:1.000000e-02"/>
		<stop offset="1" style="stop-color:#E3E3E3;stop-opacity:0"/>
	</radialGradient>
	<path class="st33" d="M113,177.6c23.2,0,41.9,18.2,41.9,40.7s-18.8,40.7-41.9,40.7s-42-18.2-42-40.7S89.8,177.6,113,177.6z"/>
	
		<radialGradient id="SVGID_34_" cx="171.4" cy="191.53" r="136.26" gradientTransform="matrix(1 0 0 -1 0 512)" gradientUnits="userSpaceOnUse">
		<stop offset="0.37" style="stop-color:#646464"/>
		<stop offset="0.58" style="stop-color:#676767;stop-opacity:0.98"/>
		<stop offset="0.69" style="stop-color:#717171;stop-opacity:0.9"/>
		<stop offset="0.79" style="stop-color:#828282;stop-opacity:0.76"/>
		<stop offset="0.86" style="stop-color:#9B9B9B;stop-opacity:0.57"/>
		<stop offset="0.93" style="stop-color:#BBBBBB;stop-opacity:0.32"/>
		<stop offset="1" style="stop-color:#E1E1E1;stop-opacity:1.000000e-02"/>
		<stop offset="1" style="stop-color:#E3E3E3;stop-opacity:0"/>
	</radialGradient>
	<path class="st34" d="M233.4,190.1c22,0,39.8,17.3,39.8,38.6s-17.8,38.6-39.8,38.6s-39.8-17.3-39.8-38.6S211.4,190.1,233.4,190.1z"/>
	<path class="st0" d="M162.6,156.7c36,0,65.2,24.4,65.2,54.4s-29.2,54.4-65.2,54.4s-65.3-24.3-65.3-54.4S126.6,156.7,162.6,156.7z"/>
	<path class="st0" d="M65.4,214c14.3,0.1,25.7,11.7,25.6,26c-0.1,14.3-11.7,25.7-26,25.6c-14.2-0.1-25.6-11.6-25.6-25.8   C39.5,225.5,51.1,214,65.4,214z"/>
	<path class="st0" d="M71.9,234.6h143.4c11.4,0,20.6,6.9,20.6,15.5s-9.2,15.5-20.6,15.5H71.9c-11.4,0-20.6-6.9-20.6-15.5   S60.5,234.6,71.9,234.6z"/>
	<path class="st0" d="M108,180.8c21.3,0.2,38.3,17.6,38.2,38.8s-17.6,38.3-38.8,38.2c-21.1-0.2-38.2-17.4-38.2-38.5   C69.3,198,86.7,180.7,108,180.8C108,180.8,108,180.8,108,180.8z"/>
	<path class="st0" d="M218.1,188.5c21.3,0.2,38.3,17.6,38.2,38.8s-17.6,38.3-38.8,38.2c-21.1-0.2-38.2-17.4-38.2-38.5   C179.4,205.7,196.7,188.4,218.1,188.5z"/>
	
		<linearGradient id="SVGID_35_" gradientUnits="userSpaceOnUse" x1="165.58" y1="350.42" x2="165.58" y2="242.24" gradientTransform="matrix(1 0 0 -1 0 512)">
		<stop offset="0" style="stop-color:#E3E3E3"/>
		<stop offset="0.99" style="stop-color:#808081"/>
	</linearGradient>
	<path class="st35" d="M165.6,160.9c36,0,65.2,24.4,65.2,54.4s-29.2,54.4-65.2,54.4s-65.2-24.4-65.2-54.4S129.6,160.9,165.6,160.9z"/>
	
		<linearGradient id="SVGID_36_" gradientUnits="userSpaceOnUse" x1="68.17" y1="350.42" x2="68.17" y2="242.24" gradientTransform="matrix(1 0 0 -1 0 512)">
		<stop offset="0" style="stop-color:#E3E3E3"/>
		<stop offset="0.99" style="stop-color:#808081"/>
	</linearGradient>
	<path class="st36" d="M68.3,218.1c14.3,0.1,25.7,11.7,25.6,26c-0.1,14.3-11.7,25.7-26,25.6c-14.2-0.1-25.6-11.6-25.6-25.8   C42.4,229.7,54,218.1,68.3,218.1z"/>
	
		<linearGradient id="SVGID_37_" gradientUnits="userSpaceOnUse" x1="146.55" y1="350.42" x2="146.55" y2="242.24" gradientTransform="matrix(1 0 0 -1 0 512)">
		<stop offset="0" style="stop-color:#E3E3E3"/>
		<stop offset="0.99" style="stop-color:#808081"/>
	</linearGradient>
	<path class="st37" d="M74.9,238.8h143.4c11.4,0,20.6,6.9,20.6,15.5s-9.2,15.5-20.6,15.5H74.9c-11.4,0-20.6-6.9-20.6-15.5   S63.5,238.8,74.9,238.8z"/>
	
		<linearGradient id="SVGID_38_" gradientUnits="userSpaceOnUse" x1="110.68" y1="350.42" x2="110.68" y2="242.24" gradientTransform="matrix(1 0 0 -1 0 512)">
		<stop offset="0" style="stop-color:#E3E3E3"/>
		<stop offset="0.99" style="stop-color:#808081"/>
	</linearGradient>
	<path class="st38" d="M111,185c21.3,0.2,38.3,17.6,38.2,38.8s-17.6,38.3-38.8,38.2c-21.1-0.2-38.2-17.4-38.2-38.5   C72.3,202.1,89.7,184.9,111,185C111,185,111,185,111,185z"/>
	
		<linearGradient id="SVGID_39_" gradientUnits="userSpaceOnUse" x1="220.68" y1="350.42" x2="220.68" y2="242.24" gradientTransform="matrix(1 0 0 -1 0 512)">
		<stop offset="0" style="stop-color:#E3E3E3"/>
		<stop offset="0.99" style="stop-color:#808081"/>
	</linearGradient>
	<path class="st39" d="M221,192.7c21.3,0.2,38.3,17.6,38.2,38.8s-17.6,38.3-38.8,38.2c-21.1-0.2-38.2-17.4-38.2-38.5   C182.3,209.8,199.7,192.6,221,192.7C221,192.7,221,192.7,221,192.7z"/>
</g>
</svg>