<?xml version="1.0" encoding="UTF-8"?>
<!-- Generator: Adobe Illustrator 21.1.0, SVG Export Plug-In . SVG Version: 6.00 Build 0)  -->
<svg version="1.1" id="Layer_1" xmlns="http://www.w3.org/2000/svg" xmlns:xlink="http://www.w3.org/1999/xlink" x="0px" y="0px" viewBox="0 0 512.8 512.2" style="enable-background:new 0 0 512.8 512.2;" xml:space="preserve">
<style type="text/css">
	.st0{fill:url(#SVGID_1_);}
	.st1{fill:url(#SVGID_2_);}
	.st2{fill:url(#SVGID_3_);}
	.st3{fill:url(#SVGID_4_);}
	.st4{fill:url(#SVGID_5_);}
	.st5{fill:url(#SVGID_6_);}
	.st6{fill:url(#SVGID_7_);}
	.st7{fill:url(#SVGID_8_);}
	.st8{fill:#FFFFFF;}
	.st9{fill:none;stroke:#848484;stroke-miterlimit:10;}
	.st10{fill:url(#SVGID_9_);}
	.st11{fill:url(#SVGID_10_);}
	.st12{fill:url(#SVGID_11_);}
	.st13{fill:url(#SVGID_12_);}
	.st14{fill:url(#SVGID_13_);}
	.st15{fill:url(#SVGID_14_);}
	.st16{fill:url(#SVGID_15_);}
	.st17{fill:#EDEDED;}
	.st18{fill:url(#SVGID_16_);}
	.st19{fill:url(#SVGID_17_);}
	.st20{fill:url(#SVGID_18_);}
	.st21{fill:url(#SVGID_19_);}
	.st22{fill:url(#SVGID_20_);}
</style>
<g id="isolated_storm_day">
	<path d="M209.4,87.1c58.2,0,105.4,47.2,105.4,105.4s-47.2,105.4-105.4,105.4c-58.2,0-105.4-47.2-105.4-105.4c0,0,0,0,0,0   C104,134.3,151.2,87.1,209.4,87.1z"/>
	<path d="M209.4,37.9l-19.9,34.4h39.7L209.4,37.9z"/>
	<path d="M54.4,192.7l34.4-19.9v39.7L54.4,192.7z"/>
	<path d="M364.1,192.7l-34.4-19.9v39.7L364.1,192.7z"/>
	<path d="M320.9,298.8l-10.3-38.3l-28.1,28.1L320.9,298.8z"/>
	<path d="M324.9,90.8l-38.3,10.3l28.1,28.1L324.9,90.8z"/>
	<path d="M97.4,298.8l10.3-38.3l28.1,28.1L97.4,298.8z"/>
	<path d="M93.3,90.8l38.3,10.3l-28.1,28.1L93.3,90.8z"/>
	
		<radialGradient id="SVGID_1_" cx="194.14" cy="318.85" r="152.79" gradientTransform="matrix(1 0 0 -1 0 512)" gradientUnits="userSpaceOnUse">
		<stop offset="0" style="stop-color:#FBF49E"/>
		<stop offset="0.99" style="stop-color:#FAA61A"/>
	</radialGradient>
	<path class="st0" d="M193.9,87.1c58.2,0,105.4,47.2,105.4,105.4c0,58.2-47.2,105.4-105.4,105.4S88.5,250.7,88.4,192.5c0,0,0,0,0,0   C88.4,134.3,135.6,87.1,193.9,87.1z"/>
	
		<radialGradient id="SVGID_2_" cx="194.14" cy="318.85" r="152.79" gradientTransform="matrix(1 0 0 -1 0 512)" gradientUnits="userSpaceOnUse">
		<stop offset="0" style="stop-color:#FBF49E"/>
		<stop offset="0.99" style="stop-color:#FAA61A"/>
	</radialGradient>
	<path class="st1" d="M193.9,37.9L174,72.2h39.7L193.9,37.9z"/>
	
		<radialGradient id="SVGID_3_" cx="194.14" cy="318.85" r="152.79" gradientTransform="matrix(1 0 0 -1 0 512)" gradientUnits="userSpaceOnUse">
		<stop offset="0" style="stop-color:#FBF49E"/>
		<stop offset="0.99" style="stop-color:#FAA61A"/>
	</radialGradient>
	<path class="st2" d="M38.9,192.7l34.4-19.9v39.7L38.9,192.7z"/>
	
		<radialGradient id="SVGID_4_" cx="194.14" cy="318.85" r="152.79" gradientTransform="matrix(1 0 0 -1 0 512)" gradientUnits="userSpaceOnUse">
		<stop offset="0" style="stop-color:#FBF49E"/>
		<stop offset="0.99" style="stop-color:#FAA61A"/>
	</radialGradient>
	<path class="st3" d="M348.6,192.7l-34.4-19.9v39.7L348.6,192.7z"/>
	
		<radialGradient id="SVGID_5_" cx="194.14" cy="318.85" r="152.79" gradientTransform="matrix(1 0 0 -1 0 512)" gradientUnits="userSpaceOnUse">
		<stop offset="0" style="stop-color:#FBF49E"/>
		<stop offset="0.99" style="stop-color:#FAA61A"/>
	</radialGradient>
	<path class="st4" d="M305.3,298.8l-10.3-38.3L267,288.5L305.3,298.8z"/>
	
		<radialGradient id="SVGID_6_" cx="194.14" cy="318.85" r="152.79" gradientTransform="matrix(1 0 0 -1 0 512)" gradientUnits="userSpaceOnUse">
		<stop offset="0" style="stop-color:#FBF49E"/>
		<stop offset="0.99" style="stop-color:#FAA61A"/>
	</radialGradient>
	<path class="st5" d="M309.4,90.8L271,101.1l28.1,28.1L309.4,90.8z"/>
	
		<radialGradient id="SVGID_7_" cx="194.14" cy="318.85" r="152.79" gradientTransform="matrix(1 0 0 -1 0 512)" gradientUnits="userSpaceOnUse">
		<stop offset="0" style="stop-color:#FBF49E"/>
		<stop offset="0.99" style="stop-color:#FAA61A"/>
	</radialGradient>
	<path class="st6" d="M81.8,298.8l10.3-38.3l28.1,28.1L81.8,298.8z"/>
	
		<radialGradient id="SVGID_8_" cx="194.14" cy="318.85" r="152.79" gradientTransform="matrix(1 0 0 -1 0 512)" gradientUnits="userSpaceOnUse">
		<stop offset="0" style="stop-color:#FBF49E"/>
		<stop offset="0.99" style="stop-color:#FAA61A"/>
	</radialGradient>
	<path class="st7" d="M77.8,90.8l38.3,10.3l-28.1,28.1L77.8,90.8z"/>
	<path d="M246.6,283.1l-21.9,65.8h43.9l-21.9,98.7l87.8-115.2H296l27.4-49.4"/>
	<path d="M305.5,133.9c53.2,0,96.3,36.2,96.3,80.9s-43.1,80.9-96.3,80.9s-96.3-36.2-96.3-80.9S252.3,133.9,305.5,133.9z"/>
	<path d="M162,219.1c21.2,0,38.4,17.2,38.4,38.4s-17.2,38.4-38.4,38.4c-21.2,0-38.4-17.2-38.4-38.4   C123.6,236.3,140.8,219.1,162,219.1z"/>
	<path d="M171.6,249.8h211.6c16.8,0,30.4,10.3,30.4,23s-13.6,23-30.4,23H171.6c-16.8,0-30.4-10.3-30.4-23S154.8,249.8,171.6,249.8z"/>
	<path d="M224.9,169.8c31.6,0,57.2,25.6,57.2,57.3s-25.6,57.2-57.3,57.2s-57.2-25.6-57.2-57.3c0,0,0,0,0,0   C167.7,195.4,193.3,169.8,224.9,169.8z"/>
	<path d="M387.3,181.2c31.6,0,57.2,25.7,57.2,57.3s-25.7,57.2-57.3,57.2c-31.6,0-57.2-25.6-57.2-57.2   C330,206.9,355.6,181.2,387.3,181.2C387.3,181.2,387.3,181.2,387.3,181.2z"/>
	<path d="M252,278.7l-22,65.8h43.9L252,443.2l87.8-115.2h-38.4l27.4-49.4"/>
	<path d="M164.2,432.3c-28-4.8,12.5-60.4,12.5-60.4C177.3,374.2,180.9,435.1,164.2,432.3z"/>
	<path d="M361.7,432.3c-28-4.8,12.5-60.4,12.5-60.4C374.8,374.2,378.4,435.1,361.7,432.3z"/>
	<path d="M158.7,366.5c-28-4.8,12.5-60.4,12.5-60.4C171.8,308.4,175.4,369.3,158.7,366.5z"/>
	<path d="M197.1,366.5c-28-4.8,12.5-60.4,12.5-60.4C210.2,308.4,213.8,369.3,197.1,366.5z"/>
	<path d="M356.2,366.5c-28-4.8,12.5-60.4,12.5-60.4C369.3,308.4,372.9,369.3,356.2,366.5z"/>
	<path d="M394.6,366.5c-28-4.8,12.5-60.4,12.5-60.4C407.7,308.4,411.3,369.3,394.6,366.5z"/>
	<path d="M303.4,129.2c53.5,0,96.9,36.5,96.9,81.5s-43.4,81.5-96.9,81.5s-96.9-36.5-96.9-81.5S249.9,129.2,303.4,129.2z"/>
	<path d="M159,215c21.4,0,38.7,17.3,38.7,38.7s-17.3,38.7-38.7,38.7s-38.7-17.3-38.7-38.7S137.6,215,159,215L159,215z"/>
	<path d="M168.7,245.8h213c16.9,0,30.6,10.4,30.6,23.2s-13.7,23.2-30.6,23.2h-213c-16.9,0-30.6-10.4-30.6-23.2   S151.7,245.8,168.7,245.8z"/>
	<path d="M222.3,165.3c31.8,0,57.6,25.8,57.6,57.7s-25.8,57.6-57.7,57.6c-31.8,0-57.6-25.8-57.6-57.6   C164.6,191.2,190.4,165.3,222.3,165.3C222.3,165.3,222.3,165.3,222.3,165.3z"/>
	<path d="M385.8,176.8c31.8,0,57.7,25.8,57.7,57.7s-25.8,57.6-57.7,57.6s-57.6-25.8-57.6-57.6l0,0   C328.1,202.6,354,176.8,385.8,176.8z"/>
	<path d="M307.8,135.4c53.5,0,96.9,36.5,96.9,81.5s-43.4,81.5-96.9,81.5s-96.9-36.5-96.9-81.5S254.3,135.4,307.8,135.4z"/>
	<path d="M163.4,221.2c21.4,0,38.7,17.3,38.7,38.7c0,21.4-17.3,38.7-38.7,38.7s-38.7-17.3-38.7-38.7l0,0   C124.7,238.5,142,221.2,163.4,221.2z"/>
	<path d="M173,252.1h213c16.9,0,30.6,10.4,30.6,23.2S403,298.5,386,298.5H173c-16.9,0-30.6-10.4-30.6-23.2S156.1,252.1,173,252.1z"/>
	<path d="M226.7,171.5c31.8,0,57.6,25.9,57.6,57.7s-25.9,57.6-57.7,57.6c-31.8,0-57.6-25.8-57.6-57.6   C169,197.3,194.8,171.5,226.7,171.5C226.7,171.5,226.7,171.5,226.7,171.5z"/>
	<path d="M390.2,183.1c31.8,0,57.7,25.8,57.7,57.7s-25.8,57.7-57.7,57.7s-57.6-25.8-57.6-57.7c0,0,0,0,0,0   C332.5,208.9,358.3,183.1,390.2,183.1z"/>
	<path class="st8" d="M235.3,283.1l-21.9,65.8h43.9l-21.9,98.7l87.8-115.2h-38.4l27.4-49.4"/>
	<path class="st9" d="M294.2,133.9c53.2,0,96.3,36.2,96.3,80.9s-43.1,80.9-96.3,80.9s-96.3-36.2-96.3-80.9S241,133.9,294.2,133.9z"/>
	<path class="st9" d="M150.7,219.1c21.2,0,38.4,17.2,38.4,38.4s-17.2,38.4-38.4,38.4c-21.2,0-38.4-17.2-38.4-38.4   C112.3,236.3,129.5,219.1,150.7,219.1z"/>
	<path class="st9" d="M160.4,249.8h211.5c16.8,0,30.4,10.3,30.4,23s-13.6,23-30.4,23H160.4c-16.8,0-30.4-10.3-30.4-23   S143.5,249.8,160.4,249.8z"/>
	<path class="st9" d="M213.6,169.8c31.6,0,57.2,25.6,57.2,57.3c0,31.6-25.6,57.2-57.3,57.2s-57.2-25.6-57.2-57.3c0,0,0,0,0,0   C156.4,195.4,182,169.8,213.6,169.8z"/>
	<path class="st9" d="M376,181.2c31.6,0,57.2,25.6,57.2,57.3s-25.6,57.2-57.3,57.2c-31.6,0-57.2-25.6-57.2-57.2   C318.7,206.9,344.4,181.2,376,181.2C376,181.2,376,181.2,376,181.2z"/>
	
		<radialGradient id="SVGID_9_" cx="274.26" cy="167.68" r="87.4" gradientTransform="matrix(1 0 0 -1 0 512)" gradientUnits="userSpaceOnUse">
		<stop offset="0" style="stop-color:#FFA800"/>
		<stop offset="1" style="stop-color:#FFE109"/>
	</radialGradient>
	<path class="st10" d="M240.7,278.7l-21.9,65.8h43.9l-21.9,98.7l87.8-115.2h-38.4l27.4-49.4"/>
	
		<linearGradient id="SVGID_10_" gradientUnits="userSpaceOnUse" x1="135.8209" y1="122.8515" x2="171.9209" y2="102.0015" gradientTransform="matrix(1 0 0 -1 0 512)">
		<stop offset="0" style="stop-color:#DCF2FD"/>
		<stop offset="0.47" style="stop-color:#D6EEFD"/>
		<stop offset="0.99" style="stop-color:#2180ED"/>
	</linearGradient>
	<path class="st11" d="M152.9,432.3c-28-4.8,12.5-60.4,12.5-60.4C166.1,374.2,169.6,435.1,152.9,432.3z"/>
	
		<linearGradient id="SVGID_11_" gradientUnits="userSpaceOnUse" x1="333.3194" y1="122.849" x2="369.4294" y2="101.999" gradientTransform="matrix(1 0 0 -1 0 512)">
		<stop offset="0" style="stop-color:#DCF2FD"/>
		<stop offset="0.47" style="stop-color:#D6EEFD"/>
		<stop offset="0.99" style="stop-color:#2180ED"/>
	</linearGradient>
	<path class="st12" d="M350.4,432.3c-28-4.8,12.5-60.4,12.5-60.4C363.5,374.2,367.1,435.1,350.4,432.3z"/>
	
		<linearGradient id="SVGID_12_" gradientUnits="userSpaceOnUse" x1="130.3294" y1="188.659" x2="166.4394" y2="167.809" gradientTransform="matrix(1 0 0 -1 0 512)">
		<stop offset="0" style="stop-color:#DCF2FD"/>
		<stop offset="0.47" style="stop-color:#D6EEFD"/>
		<stop offset="0.99" style="stop-color:#2180ED"/>
	</linearGradient>
	<path class="st13" d="M147.4,366.5c-28-4.8,12.5-60.4,12.5-60.4C160.6,308.4,164.1,369.3,147.4,366.5z"/>
	
		<linearGradient id="SVGID_13_" gradientUnits="userSpaceOnUse" x1="168.7409" y1="188.6615" x2="204.8409" y2="167.8115" gradientTransform="matrix(1 0 0 -1 0 512)">
		<stop offset="0" style="stop-color:#DCF2FD"/>
		<stop offset="0.47" style="stop-color:#D6EEFD"/>
		<stop offset="0.99" style="stop-color:#2180ED"/>
	</linearGradient>
	<path class="st14" d="M185.9,366.5c-28-4.8,12.5-60.4,12.5-60.4C199,308.4,202.5,369.3,185.9,366.5z"/>
	
		<linearGradient id="SVGID_14_" gradientUnits="userSpaceOnUse" x1="327.8419" y1="188.6806" x2="363.9519" y2="167.8306" gradientTransform="matrix(1 0 0 -1 0 512)">
		<stop offset="0" style="stop-color:#DCF2FD"/>
		<stop offset="0.47" style="stop-color:#D6EEFD"/>
		<stop offset="0.99" style="stop-color:#2180ED"/>
	</linearGradient>
	<path class="st15" d="M345,366.5c-28-4.8,12.5-60.4,12.5-60.4C358.1,308.4,361.6,369.3,345,366.5z"/>
	
		<linearGradient id="SVGID_15_" gradientUnits="userSpaceOnUse" x1="366.2408" y1="188.6615" x2="402.3409" y2="167.8115" gradientTransform="matrix(1 0 0 -1 0 512)">
		<stop offset="0" style="stop-color:#DCF2FD"/>
		<stop offset="0.47" style="stop-color:#D6EEFD"/>
		<stop offset="0.99" style="stop-color:#2180ED"/>
	</linearGradient>
	<path class="st16" d="M383.4,366.5c-28-4.8,12.5-60.4,12.5-60.4C396.5,308.4,400,369.3,383.4,366.5z"/>
	<path class="st17" d="M292.2,129.2c53.5,0,96.9,36.5,96.9,81.5s-43.4,81.5-96.9,81.5s-96.9-36.5-96.9-81.5S238.6,129.2,292.2,129.2   z"/>
	<path class="st17" d="M147.7,215c21.4,0,38.7,17.3,38.7,38.7s-17.3,38.7-38.7,38.7s-38.7-17.3-38.7-38.7S126.4,215,147.7,215   L147.7,215z"/>
	<path class="st17" d="M157.4,245.8h213c16.9,0,30.6,10.4,30.6,23.2s-13.7,23.2-30.6,23.2h-213c-16.9,0-30.6-10.4-30.6-23.2   S140.5,245.8,157.4,245.8z"/>
	<path class="st17" d="M211,165.3c31.8,0,57.7,25.8,57.7,57.6c0,31.8-25.8,57.7-57.6,57.7c-31.8,0-57.7-25.8-57.7-57.6   C153.4,191.2,179.2,165.3,211,165.3C211,165.3,211,165.3,211,165.3z"/>
	<path class="st17" d="M374.5,176.8c31.8,0,57.7,25.8,57.7,57.7s-25.8,57.6-57.7,57.6s-57.6-25.8-57.6-57.6l0,0   C316.9,202.6,342.7,176.8,374.5,176.8z"/>
	
		<linearGradient id="SVGID_16_" gradientUnits="userSpaceOnUse" x1="296.55" y1="375.51" x2="296.55" y2="213.49" gradientTransform="matrix(1 0 0 -1 0 512)">
		<stop offset="0" style="stop-color:#A5A5A5"/>
		<stop offset="0.99" style="stop-color:#4F4F50"/>
	</linearGradient>
	<path class="st18" d="M296.5,135.4c53.5,0,96.9,36.5,96.9,81.5s-43.4,81.5-96.9,81.5s-96.9-36.5-96.9-81.5S243,135.4,296.5,135.4z"/>
	
		<linearGradient id="SVGID_17_" gradientUnits="userSpaceOnUse" x1="152.11" y1="375.51" x2="152.11" y2="213.49" gradientTransform="matrix(1 0 0 -1 0 512)">
		<stop offset="0" style="stop-color:#A5A5A5"/>
		<stop offset="0.99" style="stop-color:#4F4F50"/>
	</linearGradient>
	<path class="st19" d="M152.1,221.2c21.4,0,38.7,17.3,38.7,38.7c0,21.4-17.3,38.7-38.7,38.7s-38.7-17.3-38.7-38.7l0,0   C113.5,238.5,130.8,221.2,152.1,221.2z"/>
	
		<linearGradient id="SVGID_18_" gradientUnits="userSpaceOnUse" x1="268.28" y1="375.51" x2="268.28" y2="213.49" gradientTransform="matrix(1 0 0 -1 0 512)">
		<stop offset="0" style="stop-color:#A5A5A5"/>
		<stop offset="0.99" style="stop-color:#4F4F50"/>
	</linearGradient>
	<path class="st20" d="M161.8,252.1h213c16.9,0,30.6,10.4,30.6,23.2s-13.7,23.2-30.6,23.2h-213c-16.9,0-30.6-10.4-30.6-23.2   S144.9,252.1,161.8,252.1z"/>
	
		<linearGradient id="SVGID_19_" gradientUnits="userSpaceOnUse" x1="215.42" y1="375.51" x2="215.42" y2="213.49" gradientTransform="matrix(1 0 0 -1 0 512)">
		<stop offset="0" style="stop-color:#A5A5A5"/>
		<stop offset="0.99" style="stop-color:#4F4F50"/>
	</linearGradient>
	<path class="st21" d="M215.4,171.5c31.8,0,57.7,25.8,57.7,57.7s-25.8,57.7-57.7,57.7s-57.7-25.8-57.7-57.7v0   C157.8,197.3,183.6,171.5,215.4,171.5z"/>
	
		<linearGradient id="SVGID_20_" gradientUnits="userSpaceOnUse" x1="378.91" y1="375.51" x2="378.91" y2="213.49" gradientTransform="matrix(1 0 0 -1 0 512)">
		<stop offset="0" style="stop-color:#A5A5A5"/>
		<stop offset="0.99" style="stop-color:#4F4F50"/>
	</linearGradient>
	<path class="st22" d="M378.9,183.1c31.8,0,57.7,25.8,57.7,57.7s-25.8,57.7-57.7,57.7s-57.6-25.8-57.6-57.7c0,0,0,0,0,0   C321.3,208.9,347.1,183.1,378.9,183.1z"/>
</g>
</svg>