<?xml version="1.0" encoding="UTF-8"?>
<!-- Generator: Adobe Illustrator 21.1.0, SVG Export Plug-In . SVG Version: 6.00 Build 0)  -->
<svg version="1.1" id="Layer_1" xmlns="http://www.w3.org/2000/svg" xmlns:xlink="http://www.w3.org/1999/xlink" x="0px" y="0px" viewBox="0 0 113.4 113.2" style="enable-background:new 0 0 113.4 113.2;" xml:space="preserve">
<style type="text/css">
	.st0{fill:#231F20;}
	.st1{fill:url(#SVGID_1_);}
	.st2{fill:url(#SVGID_2_);}
	.st3{fill:url(#SVGID_3_);}
	.st4{fill:url(#SVGID_4_);}
</style>
<g>
	<g>
		<path class="st0" d="M26.8,47.8c1.1-7.5,5.8-13.5,14.6-13.5c15.8,0,20.1,17.4,8.8,25.2L36.7,71.1h19.1v5.8H26.6v-4.7l19.6-17.3    h-0.1c6.6-4.7,5-14.6-4.8-14.6c-5.1,0-7.8,3.3-8.5,8L26.8,47.8z"/>
	</g>
	<g>
		<path class="st0" d="M78.8,34.7h4.7v26.9h3.4v5.8h-3.4v9.4h-6v-9.4H56.6v-4.2L78.8,34.7z M77.6,61.7V45.1L64.5,61.7H77.6z"/>
	</g>
</g>
<g>
	
		<linearGradient id="SVGID_1_" gradientUnits="userSpaceOnUse" x1="4319.6812" y1="4132.1377" x2="4376.4004" y2="4188.8574" gradientTransform="matrix(0.7071 0.7071 0.7071 -0.7071 -5959.6802 -32.4627)">
		<stop offset="0.1" style="stop-color:#D8005B"/>
		<stop offset="0.9" style="stop-color:#009CDE"/>
	</linearGradient>
	<path class="st1" d="M16.6,96.6l9.4-9.4c16.9,16.9,44.5,16.9,61.5,0l9.4,9.4C74.7,118.8,38.7,118.8,16.6,96.6z"/>
</g>
<g>
	
		<linearGradient id="SVGID_2_" gradientUnits="userSpaceOnUse" x1="4319.7319" y1="4250.5806" x2="4376.4521" y2="4193.8599" gradientTransform="matrix(0.7071 0.7071 0.7071 -0.7071 -5959.6802 -32.4627)">
		<stop offset="0.1" style="stop-color:#6FB055"/>
		<stop offset="0.9" style="stop-color:#009CDE"/>
	</linearGradient>
	<path class="st2" d="M96.8,96.6l-9.4-9.4c16.9-16.9,16.9-44.5,0-61.5l9.4-9.4C118.9,38.6,118.9,74.5,96.8,96.6z"/>
</g>
<g>
	
		<linearGradient id="SVGID_3_" gradientUnits="userSpaceOnUse" x1="4320.418" y1="4139.2842" x2="4255.7192" y2="4184.5869" gradientTransform="matrix(0.7071 0.7071 0.7071 -0.7071 -5959.6802 -32.4627)">
		<stop offset="0.1" style="stop-color:#D8005B"/>
		<stop offset="0.9" style="stop-color:#F59D21"/>
	</linearGradient>
	<path class="st3" d="M16.6,96.6c-22.1-22.1-22.1-58.1,0-80.2l9.4,9.4c-17,17-17,44.5,0,61.5L16.6,96.6z"/>
</g>
<g>
	
		<linearGradient id="SVGID_4_" gradientUnits="userSpaceOnUse" x1="4320.418" y1="4243.4307" x2="4255.7192" y2="4198.1284" gradientTransform="matrix(0.7071 0.7071 0.7071 -0.7071 -5959.6802 -32.4627)">
		<stop offset="0.1" style="stop-color:#6FB055"/>
		<stop offset="0.9" style="stop-color:#F59D21"/>
	</linearGradient>
	<path class="st4" d="M26,25.8l-9.4-9.4c22.1-22.1,58.1-22.1,80.2,0l-9.4,9.4C70.5,8.9,42.9,8.9,26,25.8z"/>
</g>
</svg>