<svg xmlns="http://www.w3.org/2000/svg" width="759.3517" height="358.3887" viewBox="0 0 759.3517 358.3887"><title>404</title><path d="M403.14,473.7744a6.1987,6.1987,0,0,1,4.4522-1.5957,6.3521,6.3521,0,0,1,4.4946,1.5957,5.2675,5.2675,0,0,1,1.7222,4.0322,5.01,5.01,0,0,1-1.7222,3.9492,6.565,6.565,0,0,1-4.4946,1.5117,6.4037,6.4037,0,0,1-4.4522-1.5117,5.06,5.06,0,0,1-1.68-3.9492A5.3233,5.3233,0,0,1,403.14,473.7744ZM412.38,491.248v46.2891h-9.5772V491.248Z" transform="translate(-311.7147 -201.1582)" style="fill:#f89925"/><path d="M452.2422,494.8183A17.5989,17.5989,0,0,1,458.249,505.95h-9.0732a9.7968,9.7968,0,0,0-3.2344-6.0909,10.2865,10.2865,0,0,0-7.0146-2.31,8.2349,8.2349,0,0,0-5.5865,1.7226,5.87,5.87,0,0,0-1.9741,4.6622,4.615,4.615,0,0,0,1.4282,3.5283,9.9563,9.9563,0,0,0,3.57,2.1006,61.2779,61.2779,0,0,0,6.09,1.68,61.0608,61.0608,0,0,1,8.4428,2.4366,13.6975,13.6975,0,0,1,5.545,3.99,11.1474,11.1474,0,0,1,2.31,7.4346,11.5865,11.5865,0,0,1-4.4106,9.4092q-4.41,3.6137-11.8872,3.6123-8.6537,0-13.9873-4.0323a16.592,16.592,0,0,1-6.4268-11.2568h9.3252a8.7923,8.7923,0,0,0,3.36,6.1318,11.9926,11.9926,0,0,0,7.7285,2.3526,7.722,7.722,0,0,0,5.4189-1.8057,5.94,5.94,0,0,0,1.9741-4.5791,5.0651,5.0651,0,0,0-1.5122-3.8642,10.5221,10.5221,0,0,0-3.78-2.2266,52.7953,52.7953,0,0,0-6.2168-1.6377,68.5034,68.5034,0,0,1-8.191-2.3525,12.7517,12.7517,0,0,1-5.3764-3.8223,10.7992,10.7992,0,0,1-2.2261-7.1826,11.7934,11.7934,0,0,1,4.41-9.5352q4.4106-3.6532,12.2231-3.6543Q447.3263,490.66,452.2422,494.8183Z" transform="translate(-311.7147 -201.1582)" style="fill:#f89925"/><path d="M552.8423,491.248l-12.8535,46.2891h-10.585L517.9785,501.749l-11.5932,35.7881h-10.501L483.0308,491.248h9.6611l8.8208,37.4678L513.106,491.248h10.081l11.7612,37.4678,8.8208-37.4678Z" transform="translate(-311.7147 -201.1582)" style="fill:#f89925"/><path d="M588.7129,493.7685a16.7356,16.7356,0,0,1,6.3,8.2334V491.248H604.59v46.2891h-9.5771v-10.753a16.7245,16.7245,0,0,1-6.3,8.2325A18.3067,18.3067,0,0,1,577.96,538.125a20.5119,20.5119,0,0,1-10.7949-2.8565,19.5042,19.5042,0,0,1-7.4346-8.2324,31.0742,31.0742,0,0,1,0-25.2871,19.5219,19.5219,0,0,1,7.4346-8.2324A20.5294,20.5294,0,0,1,577.96,490.66,18.32,18.32,0,0,1,588.7129,493.7685Zm-18.02,9.3672q-3.8239,4.0752-3.8223,11.2148,0,7.1412,3.8223,11.2149a13.3246,13.3246,0,0,0,10.207,4.0752,13.9141,13.9141,0,0,0,7.2246-1.8906,13.4228,13.4228,0,0,0,5.04-5.334,18.4289,18.4289,0,0,0,0-16.0879,13.3759,13.3759,0,0,0-5.04-5.377,13.9134,13.9134,0,0,0-7.2246-1.89A13.331,13.331,0,0,0,570.6929,503.1357Z" transform="translate(-311.7147 -201.1582)" style="fill:#f89925"/><path d="M621.5591,491.248,635.42,525.2714l12.8535-34.0234h10.6685l-27.9741,68.2988h-10.669l9.9971-23.1015-19.49-45.1973Z" transform="translate(-311.7147 -201.1582)" style="fill:#f89925"/><path d="M708.1709,529.2207v8.3164H702.29q-7.393,0-11.2148-3.57-3.8247-3.57-3.8232-11.8877V499.3974h-6.6368V491.248h6.6368V479.7392h9.6611V491.248h11.1738v8.1494H696.9131v22.85q0,3.9507,1.4707,5.461,1.4678,1.5117,5.166,1.5127Z" transform="translate(-311.7147 -201.1582)" style="fill:#f89925"/><path d="M750.4258,493.5166a20.52,20.52,0,0,1,8.4,8.2324,27.94,27.94,0,0,1,0,25.2871,20.5018,20.5018,0,0,1-8.4,8.2324,25.3736,25.3736,0,0,1-12.0977,2.8565,25.12,25.12,0,0,1-12.0556-2.8565,20.76,20.76,0,0,1-8.4-8.2744,27.5129,27.5129,0,0,1,0-25.2451,20.8465,20.8465,0,0,1,8.4-8.2324,25.142,25.142,0,0,1,12.0556-2.8565A25.3956,25.3956,0,0,1,750.4258,493.5166Zm-18.9024,7.1406a12.396,12.396,0,0,0-4.999,5.167,20.2783,20.2783,0,0,0,0,17.0957,12.4262,12.4262,0,0,0,4.999,5.124,14.6155,14.6155,0,0,0,13.6094,0,12.4236,12.4236,0,0,0,4.9981-5.124,20.2686,20.2686,0,0,0,0-17.0957,12.3935,12.3935,0,0,0-4.9981-5.167,14.6232,14.6232,0,0,0-13.6094,0Z" transform="translate(-311.7147 -201.1582)" style="fill:#f89925"/><path d="M804.3594,493.5166a20.52,20.52,0,0,1,8.4,8.2324,27.94,27.94,0,0,1,0,25.2871,20.5018,20.5018,0,0,1-8.4,8.2324,25.3736,25.3736,0,0,1-12.0977,2.8565,25.12,25.12,0,0,1-12.0556-2.8565,20.76,20.76,0,0,1-8.4-8.2744,27.5129,27.5129,0,0,1,0-25.2451,20.8465,20.8465,0,0,1,8.4-8.2324,25.142,25.142,0,0,1,12.0556-2.8565A25.3956,25.3956,0,0,1,804.3594,493.5166Zm-18.9024,7.1406a12.396,12.396,0,0,0-4.999,5.167,20.2783,20.2783,0,0,0,0,17.0957,12.4262,12.4262,0,0,0,4.999,5.124,14.6155,14.6155,0,0,0,13.6094,0,12.4236,12.4236,0,0,0,4.9981-5.124,20.2686,20.2686,0,0,0,0-17.0957,12.3935,12.3935,0,0,0-4.9981-5.167,14.6232,14.6232,0,0,0-13.6094,0Z" transform="translate(-311.7147 -201.1582)" style="fill:#f89925"/><path d="M883.4941,495.7011q4.8722,5.2091,4.8731,14.8692v26.9668H878.79v-25.959q0-6.2154-3.1923-9.6182a11.402,11.402,0,0,0-8.7373-3.4033,11.9869,11.9869,0,0,0-9.1563,3.6553q-3.4469,3.6532-3.4443,10.7109v24.6143h-9.5772v-62.166H854.26V501.413a15.5241,15.5241,0,0,1,6.2158-8.0644,18.01,18.01,0,0,1,10.081-2.8565Q878.6221,490.4921,883.4941,495.7011Z" transform="translate(-311.7147 -201.1582)" style="fill:#f89925"/><path d="M932.8076,493.5166a20.52,20.52,0,0,1,8.4,8.2324,27.94,27.94,0,0,1,0,25.2871,20.5018,20.5018,0,0,1-8.4,8.2324A25.3729,25.3729,0,0,1,920.71,538.125a25.12,25.12,0,0,1-12.0557-2.8565,20.7614,20.7614,0,0,1-8.4-8.2744,27.5129,27.5129,0,0,1,0-25.2451,20.8477,20.8477,0,0,1,8.4-8.2324A25.1422,25.1422,0,0,1,920.71,490.66,25.395,25.395,0,0,1,932.8076,493.5166Zm-18.9023,7.1406a12.3956,12.3956,0,0,0-4.9991,5.167,20.2783,20.2783,0,0,0,0,17.0957,12.4258,12.4258,0,0,0,4.9991,5.124,14.6153,14.6153,0,0,0,13.6093,0,12.4236,12.4236,0,0,0,4.9981-5.124,20.2686,20.2686,0,0,0,0-17.0957,12.3935,12.3935,0,0,0-4.9981-5.167,14.623,14.623,0,0,0-13.6093,0Z" transform="translate(-311.7147 -201.1582)" style="fill:#f89925"/><path d="M976.7441,529.2207v8.3164h-5.8808q-7.393,0-11.2149-3.57-3.8247-3.57-3.8232-11.8877V499.3974h-6.6367V491.248h6.6367V479.7392h9.6611V491.248H976.66v8.1494H965.4863v22.85q0,3.9507,1.4707,5.461,1.4678,1.5117,5.166,1.5127Z" transform="translate(-311.7147 -201.1582)" style="fill:#f89925"/><path d="M999.4258,526.9521v10.585H988.5049v-10.585Zm-.252-50.5732-1.2607,42.5927h-8.0645l-1.26-42.5927Z" transform="translate(-311.7147 -201.1582)" style="fill:#f89925"/><rect x="76.0194" y="78.4268" width="30.8967" height="6.4448" style="fill:#f89925"/><rect x="76.0194" y="99.8461" width="14.5954" height="6.4448" style="fill:#ffd229"/><rect x="76.0194" y="121.4548" width="30.8967" height="6.4448" style="fill:#f89925"/><rect x="76.0194" y="142.874" width="14.5954" height="6.4448" style="fill:#ffd229"/><rect x="76.0194" y="164.2933" width="30.8967" height="6.4448" style="fill:#f89925"/><path d="M469.0737,394.1582V365.3574l105.3-139.1992h36.6v138h29.7v30h-29.7v45.6h-34.5v-45.6Zm109.8-127.2-74.4,97.2h74.4Z" transform="translate(-311.7147 -201.1582)" style="fill:#39b6ce"/><path d="M659.8721,332.3574q0-50.3994,18-78.8994,18-28.4972,60-28.5,41.9985,0,60,28.65,18,28.6523,18,78.749,0,50.4009-18,79.2t-60,28.8q-42.0045,0-60-28.6494Q659.8721,383.063,659.8721,332.3574Zm121.8,0q0-36-9-55.35t-34.8-19.35q-26.0991,0-35.1,19.2t-9,55.499q0,36.605,9,56.1006,9,19.5043,35.1,19.5,25.7973,0,34.8-19.5Q781.6719,368.9594,781.6719,332.3574Z" transform="translate(-311.7147 -201.1582)" style="fill:#39b6ce"/><path d="M831.168,394.1582V365.3574l105.3-139.1992h36.6006v138h29.7v30h-29.7v45.6h-34.5v-45.6Zm109.8-127.2-74.3994,97.2h74.3994Z" transform="translate(-311.7147 -201.1582)" style="fill:#39b6ce"/><path d="M1061.7656,257.2578q-9.2988,9.1039-23.8994,9.1006a35.94,35.94,0,0,1-17.5-4.2,30.4186,30.4186,0,0,1-12-11.6006,32.7826,32.7826,0,0,1-4.3-16.8q0-14.3994,9.5-23.5,9.4966-9.0983,24.3-9.1,14.7978,0,24,9.1,9.1964,9.1039,9.2,23.7Q1071.0664,248.1611,1061.7656,257.2578Zm-38.8-9.3a20.7748,20.7748,0,0,0,14.9,5.6q8.7978,0,14.3-5.5a19.0877,19.0877,0,0,0,5.5-14.1q0-8.7979-5.6-14.4a19.257,19.257,0,0,0-14.2-5.6,20.7909,20.7909,0,0,0-14.9,5.6,20.04,20.04,0,0,0,0,28.4Z" transform="translate(-311.7147 -201.1582)" style="fill:#39b6ce"/><path d="M368.0209,394.0735V230.57a5.8751,5.8751,0,0,0-2.2158-4.5779c-6.0055-7.0012-37.2932-6.2229-42.2258,13.9267a5.6694,5.6694,0,0,0-.2669,2.833,5.06,5.06,0,0,0,.7235,2.1137,2.4174,2.4174,0,0,0,1.65,1.0082,8.0317,8.0317,0,0,0,1.3263.12,4.2614,4.2614,0,0,0,2.04-.456c1.4145-.7542,1.6814-2.1828,1.9387-3.5641a5.4061,5.4061,0,0,1,.9434-2.6193,5.6873,5.6873,0,0,1,3.5621-1.68c5.3764-.2434,5.8512-.7241,8.5267-5.0266l.6764-1.083a5.244,5.244,0,0,1,3.2759-2.44c1.6279-.4082,7.8169.7241,7.8169,5.7477l.4764-.4148V394.0735a17.2494,17.2494,0,1,0,11.752,0Z" transform="translate(-311.7147 -201.1582)" style="fill:#f89925"/><path d="M313.8737,239.606c-1.5554.63-2.4769,1.9288-2.0579,2.9009s2.0195,1.2493,3.5749.6193,4.2121-3.7735,4.2121-3.7735S315.43,238.976,313.8737,239.606Z" transform="translate(-311.7147 -201.1582)" style="fill:#f89925"/><path d="M316.9221,233.0745c-1.194-.5874-2.5873-.4266-3.1124.3585s.0167,1.8982,1.21,2.4859,4.7649.455,4.7649.455S318.1155,233.6622,316.9221,233.0745Z" transform="translate(-311.7147 -201.1582)" style="fill:#f89925"/><path d="M381.1,386.681V279.2058a19.0212,19.0212,0,0,0-13.079-18.0052v7.06a12.46,12.46,0,0,1,6.8237,11.1351V390.0929a23.7232,23.7232,0,0,1-12.7,43.9757,23.7216,23.7216,0,0,1-12.3208-43.9757V279.3953a12.5236,12.5236,0,0,1,6.4449-10.9487v-7.246A19.021,19.021,0,0,0,343.19,279.2058V386.681a30.2129,30.2129,0,0,0,18.955,53.8324A30.3166,30.3166,0,0,0,381.1,386.681Z" transform="translate(-311.7147 -201.1582)" style="fill:#39b7cf"/></svg>