<svg id="Capa_1" data-name="Capa 1" xmlns="http://www.w3.org/2000/svg" xmlns:xlink="http://www.w3.org/1999/xlink" width="512" height="512" viewBox="0 0 512 512"><defs><clipPath id="clip-path"><path d="M1547.08,414.48h-39.51a13.36,13.36,0,0,1,0-26.71h39.51a13.36,13.36,0,0,1,0,26.71Zm-82.89-2.67h-91.91a8.46,8.46,0,0,1,0-16.91h91.91a8.46,8.46,0,0,1,0,16.91Zm-139.59,2.67h-39.51a13.36,13.36,0,0,1,0-26.71h39.51a13.36,13.36,0,0,1,0,26.71ZM1306,288.18c11.8-34.49,21.29-45,40.48-45h143c19,0,29.66,11.74,40.43,44.87l21.63,45.4a64.14,64.14,0,0,0-23-4.21h-224a64.38,64.38,0,0,0-20.86,3.44Zm281.13,93.63a47.73,47.73,0,0,0-4.25-19.67c-.28-1.54-.6-3.09-1-4.65l-29.63-76.09-.2-.68c-10.37-32-25.12-61.59-62.53-61.59h-143c-38.33,0-51.88,30.34-62.47,61.41l-31,76.28a48.2,48.2,0,0,0-7,25v23.68a47.61,47.61,0,0,0,1.21,10.69,19.2,19.2,0,0,0-1.21,6.7V493.3c0,10.33,8.08,18.7,18,18.7h37.45c10,0,18-8.37,18-18.7V458.08h196.21V493.3c0,10.33,8.08,18.7,18,18.7h35.31c10,0,18-8.37,18-18.7V422.87a19.32,19.32,0,0,0-1.21-6.69,47.84,47.84,0,0,0,1.21-10.69V381.82h0Z" style="fill:none;clip-rule:evenodd"/></clipPath><clipPath id="clip-path-2"><path d="M1724,180.52c0,80.22-51.4,148.36-122.24,171.74V326.56c57.54-22.36,98.56-79.38,98.56-146,0-86.11-68.4-156.17-152.48-156.17s-152.48,70.06-152.48,156.17a160.15,160.15,0,0,0,2,25.37h-23.95a185.38,185.38,0,0,1-1.78-25.37C1371.68,81,1450.7.1,1547.84.1S1724,81,1724,180.52Zm-187.72,0a11.56,11.56,0,1,1,11.56,11.84A11.71,11.71,0,0,1,1536.28,180.52Zm34.68-2.85a24,24,0,0,0-4.61-11.64L1583.4,57.64a7.76,7.76,0,0,0-5.78-8.8l-.19,0a7.56,7.56,0,0,0-9,5.31l-31.06,105.07a24,24,0,0,0-13,21.34c0,13.22,10.49,24,23.4,24a22.59,22.59,0,0,0,6.86-1.17l64.9,34.54a7.71,7.71,0,0,0,10.16-2.74l.1-.15a8.13,8.13,0,0,0-1.69-10.62Z" style="fill:none;clip-rule:evenodd"/></clipPath><clipPath id="clip-path-3"><path d="M1881.86,247.74h190.45a179,179,0,0,1,19.5-25.23V210.58c0-6.84-7.22-12.38-16.15-12.38h-193.8c-8.93,0-16.15,5.55-16.15,12.38v24.77C1865.72,242.19,1872.94,247.74,1881.86,247.74Zm0,66.06h164.59A181.91,181.91,0,0,1,2063,264.26H1881.86c-8.93,0-16.15,5.55-16.15,12.38v24.78C1865.72,308.26,1872.94,313.81,1881.86,313.81Zm0-132.13h193.8c8.93,0,16.15-5.55,16.15-12.39V144.51c0-6.84-7.23-12.39-16.15-12.39h-193.8c-8.93,0-16.15,5.55-16.15,12.39v24.77C1865.72,176.13,1872.94,181.67,1881.86,181.67Zm242.25,0h23.34a172.06,172.06,0,0,1,147.12,0h23.34c8.93,0,16.15-5.55,16.15-12.39V144.51c0-6.84-7.22-12.39-16.15-12.39h-193.8c-8.93,0-16.15,5.55-16.15,12.39v24.77C2108,176.13,2115.18,181.67,2124.11,181.67Zm-242.25,198.2h164.59a184,184,0,0,1-3.09-33c0-5.58.31-11.06.82-16.51H1881.86c-8.93,0-16.15,5.55-16.15,12.39v24.77C1865.72,374.32,1872.94,379.87,1881.86,379.87Zm193.8,82.58h-193.8c-8.93,0-16.15,5.55-16.15,12.38v24.78c0,6.84,7.22,12.39,16.15,12.39h193.8c8.93,0,16.15-5.55,16.15-12.39V474.83C2091.81,468,2084.59,462.45,2075.66,462.45Zm-193.8-16.52h190.45a183.29,183.29,0,0,1-22.08-49.55H1881.86c-8.93,0-16.15,5.55-16.15,12.39v24.77C1865.72,440.38,1872.94,445.93,1881.86,445.93Zm242.25-330.32h193.8c8.93,0,16.15-5.55,16.15-12.39V78.45c0-6.84-7.22-12.39-16.15-12.39h-193.8c-8.93,0-16.15,5.55-16.15,12.39v24.77C2108,110.06,2115.18,115.61,2124.11,115.61Zm0-66.06h193.8c8.93,0,16.15-5.55,16.15-12.39V12.38c0-6.84-7.22-12.38-16.15-12.38h-193.8C2115.18,0,2108,5.55,2108,12.38V37.16C2108,44,2115.18,49.55,2124.11,49.55ZM2221,214.71c-71.25,0-129.2,59.26-129.2,132.13S2149.76,479,2221,479s129.2-59.26,129.2-132.13S2292.26,214.71,2221,214.71ZM2382.5,346.83C2382.5,438.06,2310.21,512,2221,512s-161.5-73.94-161.5-165.17,72.29-165.16,161.5-165.16S2382.5,255.61,2382.5,346.83Z" style="fill:none;clip-rule:evenodd"/></clipPath></defs><title>EMC</title><path d="M256,0,30.2,120.46v8.45C30.2,383.39,246.94,507,249.13,508.18L256,512l6.86-3.82C265.06,507,481.8,383.4,481.8,128.91v-8.45Zm0,479.3c-35.19-22.45-193.29-134.88-197.5-342L256,32l197.5,105.33C449.3,344.41,291.2,456.82,256,479.3Z" style="fill:#3aa935"/><path d="M72.89,145.65c7.57,185.14,139.3,287.85,183.12,317,43.82-29.15,175.55-131.82,183.12-317L256,48Zm182,240.12c-19.42,0-32.37-14-32.37-32.75,0-19.06,13.31-32.75,32.37-32.75s31.66,13.69,32,32.75C286.88,371.75,274.29,385.77,254.86,385.77Zm20.52-83.49h-41l-8.3-163H283.3Z" style="fill:#3aa935"/></svg>