<svg 
 xmlns="http://www.w3.org/2000/svg"
 xmlns:xlink="http://www.w3.org/1999/xlink"
 width="210px" height="283px">
<path fill-rule="evenodd"  fill="rgb(0, 174, 239)"
 d="M191.739,246.483 C191.739,256.526 183.522,264.742 173.478,264.742 C173.478,274.784 165.261,283.000 155.217,283.000 L18.261,283.000 C8.217,283.000 -0.000,274.784 -0.000,264.742 L-0.000,54.774 C-0.000,44.732 8.217,36.516 18.261,36.516 C18.261,26.474 26.478,18.258 36.522,18.258 C36.522,8.216 44.739,-0.000 54.783,-0.000 L146.087,-0.000 L146.087,54.774 C146.087,64.816 154.304,73.032 164.348,73.032 L210.000,73.032 L210.000,228.225 C210.000,238.268 201.783,246.483 191.739,246.483 ZM18.261,246.483 L18.261,45.645 C12.782,45.645 9.130,50.209 9.130,54.774 L9.130,264.742 C9.130,270.219 13.696,273.871 18.261,273.871 L155.217,273.871 C160.696,273.871 164.348,269.306 164.348,264.742 L36.522,264.742 C26.478,264.742 18.261,256.526 18.261,246.483 ZM54.783,246.483 C44.739,246.483 36.522,238.268 36.522,228.225 L36.522,27.387 C31.043,27.387 27.391,31.951 27.391,36.516 L27.391,246.483 C27.391,251.961 31.956,255.613 36.522,255.613 L173.478,255.613 C178.956,255.613 182.609,251.048 182.609,246.483 L54.783,246.483 ZM155.217,54.774 L155.217,-0.000 L210.000,63.903 L164.348,63.903 C159.783,63.903 155.217,60.251 155.217,54.774 Z"/>
<path fill-rule="evenodd"  fill="rgb(255, 255, 255)"
 d="M164.899,179.075 C164.682,180.143 164.023,181.116 163.107,181.705 C162.192,182.294 161.033,182.488 159.968,182.245 C158.903,182.003 157.940,181.326 157.362,180.397 C157.208,180.159 157.024,179.909 156.837,179.658 L132.455,193.675 C131.983,192.301 131.534,190.929 131.378,189.534 L153.943,176.562 C152.706,175.469 151.364,174.531 150.137,173.991 L132.677,184.028 C133.607,181.642 134.842,179.407 136.222,177.231 L144.393,172.533 C140.889,172.111 137.044,172.297 132.890,172.614 C126.421,173.106 119.295,173.902 112.044,171.830 L112.048,171.817 C102.975,170.179 96.159,161.976 96.276,152.747 C96.687,148.413 97.964,144.271 99.680,140.329 L99.681,140.328 C102.244,140.429 104.800,140.310 107.294,139.992 C107.851,139.984 108.413,139.970 108.979,139.953 C107.824,142.119 106.817,144.294 106.043,146.500 L117.754,139.767 C120.074,139.831 122.368,140.051 124.576,140.605 L104.669,152.049 C104.622,152.376 104.568,152.702 104.535,153.031 C104.540,154.194 104.793,155.365 105.229,156.487 L129.485,142.543 C129.628,142.624 129.773,142.706 129.914,142.791 C130.788,143.797 131.290,144.938 131.509,146.139 L107.362,160.021 C108.342,161.160 109.524,162.117 110.811,162.798 L131.064,151.155 C130.631,152.536 129.994,153.851 129.280,154.993 C128.783,155.957 128.251,156.901 127.714,157.841 L116.317,164.393 C121.084,165.282 126.461,164.838 132.212,164.400 C138.806,163.899 145.974,163.411 153.006,166.267 C158.004,168.298 161.852,172.203 164.276,175.951 C164.887,176.858 165.116,178.008 164.899,179.075 ZM143.773,153.590 C143.273,155.586 142.589,157.468 141.787,159.256 C138.653,159.135 135.482,159.273 132.326,159.477 C133.868,156.841 135.107,154.230 135.780,151.542 C135.821,151.372 135.874,151.206 135.936,151.043 C137.722,146.499 135.455,140.199 131.178,137.715 C122.402,133.787 111.722,135.086 100.652,135.432 C92.205,135.696 82.091,132.183 76.743,124.287 C76.083,123.346 75.836,122.123 76.090,121.007 C76.345,119.889 77.095,118.896 78.096,118.341 L78.097,118.341 C78.996,117.841 80.093,117.695 81.096,117.944 C82.098,118.193 82.995,118.835 83.562,119.699 C86.523,124.070 94.801,127.377 100.348,127.203 C110.865,126.829 123.988,125.404 135.060,130.452 C143.144,134.966 146.871,144.944 143.759,153.587 L143.773,153.590 ZM110.216,122.113 C110.410,121.808 110.618,121.491 110.807,121.190 C111.254,120.472 111.656,119.650 112.019,118.770 L105.983,122.240 C103.365,122.288 100.749,122.256 98.150,121.984 L113.563,113.123 C113.820,111.467 113.925,109.787 113.848,108.199 L92.340,120.564 C90.980,119.864 89.740,118.962 88.563,117.976 L113.065,103.890 C112.948,103.567 112.818,103.256 112.674,102.962 C112.205,102.042 112.104,100.942 112.389,99.953 C112.674,98.964 113.339,98.095 114.225,97.571 L114.225,97.571 C115.209,96.985 116.448,96.834 117.546,97.174 C118.644,97.512 119.585,98.337 120.074,99.377 C123.626,106.630 122.734,115.253 119.669,122.069 C116.528,121.934 113.370,122.022 110.216,122.113 ZM120.821,178.028 C124.003,178.098 127.206,177.822 130.406,177.550 C128.487,180.808 127.077,183.984 126.622,187.286 C126.235,190.099 127.279,194.467 128.565,196.953 C129.083,197.915 129.201,199.080 128.878,200.119 C128.557,201.159 127.799,202.066 126.830,202.561 C125.859,203.056 124.684,203.139 123.647,202.792 C122.610,202.445 121.725,201.672 121.242,200.692 C119.193,196.728 117.721,191.457 118.454,186.132 C118.856,183.214 119.709,180.536 120.821,178.028 Z"/>
</svg>