<?xml version="1.0" encoding="utf-8"?>
<!-- Generator: Adobe Illustrator 22.0.1, SVG Export Plug-In . SVG Version: 6.00 Build 0)  -->
<svg version="1.1" id="Layer_1" xmlns="http://www.w3.org/2000/svg" xmlns:xlink="http://www.w3.org/1999/xlink" x="0px" y="0px"
	 viewBox="0 0 200 200" style="enable-background:new 0 0 200 200;" xml:space="preserve">
<style type="text/css">
	.st0{fill:#1759CD;}
	.st1{fill:url(#SVGID_1_);}
	.st2{fill:url(#SVGID_2_);}
	.st3{fill:url(#SVGID_3_);}
	.st4{fill:url(#SVGID_4_);}
	.st5{fill:url(#SVGID_5_);}
	.st6{fill:url(#SVGID_6_);}
</style>
<path class="st0" d="M186.4,133.1c0,0-34.8,78.6-91.6,59.6c-51.9-17.4-72.1-82.2-76.3-91.1c-0.8-1.7-1.6-4.2-2.1-6
	C12.3,82.5-22.7-8.6,70.7,7.6C170.2,24.8,216.9,59.7,186.4,133.1z"/>
<g>
	<g>
		<linearGradient id="SVGID_1_" gradientUnits="userSpaceOnUse" x1="44.8817" y1="128.5039" x2="127.2677" y2="128.5039">
			<stop  offset="0" style="stop-color:#40CFE7"/>
			<stop  offset="1" style="stop-color:#6EDB55"/>
		</linearGradient>
		<path class="st1" d="M85.9,67.5c-22.1,0-38.1,16.5-40.7,34.2c-1.6,11.8,2.2,23.3,10.2,32c7,7.5,10.8,17.4,10.8,27.7l0,16.2
			c0,6.5,5.4,11.8,12.1,11.8h15.6c6.7,0,12.1-5.3,12.1-11.8l0-16.2c0-10.6,3.5-20.2,10.2-27.1c7.3-7.5,11.1-17.1,11.1-27.1
			C127.2,85.2,108.5,67.5,85.9,67.5L85.9,67.5z M99.9,177.7c0,3.1-2.5,5.6-5.7,5.6H78.6c-3.2,0-5.7-2.5-5.7-5.6v-7.2h27L99.9,177.7
			L99.9,177.7z M111.7,130.1c-7.9,8.1-12.1,19.3-12.1,31.4v2.8h-27v-2.8c0-11.5-4.8-23-12.7-31.7c-7-7.5-9.8-17.1-8.6-27.1
			c2.2-14.9,16.1-28.9,34.6-28.9c19.4,0,35,15.2,35,33.6C120.9,115.7,117.7,123.8,111.7,130.1z"/>
		<linearGradient id="SVGID_2_" gradientUnits="userSpaceOnUse" x1="82.7142" y1="50.7218" x2="89.0705" y2="50.7218">
			<stop  offset="0" style="stop-color:#40CFE7"/>
			<stop  offset="1" style="stop-color:#6EDB55"/>
		</linearGradient>
		<rect x="82.7" y="43.3" class="st2" width="6.4" height="14.9"/>
		<linearGradient id="SVGID_3_" gradientUnits="userSpaceOnUse" x1="124.4328" y1="69.0147" x2="139.7713" y2="69.0147">
			<stop  offset="0" style="stop-color:#40CFE7"/>
			<stop  offset="1" style="stop-color:#6EDB55"/>
		</linearGradient>
		<polygon class="st3" points="124.4,72 128.9,76.5 139.8,66 135.3,61.6 		"/>
		<linearGradient id="SVGID_4_" gradientUnits="userSpaceOnUse" x1="143.4419" y1="113.5831" x2="159.0192" y2="113.5831">
			<stop  offset="0" style="stop-color:#40CFE7"/>
			<stop  offset="1" style="stop-color:#6EDB55"/>
		</linearGradient>
		<rect x="143.4" y="110.5" class="st4" width="15.6" height="6.2"/>
		<linearGradient id="SVGID_5_" gradientUnits="userSpaceOnUse" x1="12.7954" y1="113.5831" x2="28.3727" y2="113.5831">
			<stop  offset="0" style="stop-color:#40CFE7"/>
			<stop  offset="1" style="stop-color:#6EDB55"/>
		</linearGradient>
		<rect x="12.8" y="110.5" class="st5" width="15.6" height="6.2"/>
		<linearGradient id="SVGID_6_" gradientUnits="userSpaceOnUse" x1="31.9238" y1="68.9848" x2="47.2624" y2="68.9848">
			<stop  offset="0" style="stop-color:#40CFE7"/>
			<stop  offset="1" style="stop-color:#6EDB55"/>
		</linearGradient>
		<polygon class="st6" points="36.4,61.5 31.9,66 42.8,76.4 47.3,72 		"/>
	</g>
</g>
</svg>
