<svg xmlns="http://www.w3.org/2000/svg" viewBox="0 0 32 32"><defs><style>.a{fill:#25477b;}.b{fill:#fdcd4c;}.c{fill:#ea1f56;}.d{fill:#2ebef9;}.e{fill:#9bc650;}</style></defs><title>about-the-marketplace-icon1</title><path class="a" d="M17.9749,13.1934l-2.2,7.6311a4.21,4.21,0,0,0-.1825.8586.3149.3149,0,0,0,.0967.22.2809.2809,0,0,0,.2039.1019.5559.5559,0,0,0,.365-.161,6.5675,6.5675,0,0,0,1.1591-1.4383l.3648.2146q-1.6207,2.823-3.4452,2.8228a1.5483,1.5483,0,0,1-1.1109-.3918,1.309,1.309,0,0,1-.4133-.9927,3.6782,3.6782,0,0,1,.1825-1.0089l1.4919-5.13a4.4366,4.4366,0,0,0,.2145-1.1162.55.55,0,0,0-.2039-.4186.8068.8068,0,0,0-.558-.1824q-.1611,0-.3864.0107l.1394-.4293,3.6384-.59ZM17.31,8.2564A1.5785,1.5785,0,0,1,18.4258,10.95a1.5767,1.5767,0,0,1-2.2271-2.2324A1.5032,1.5032,0,0,1,17.31,8.2564Z"/><path class="b" d="M16,5.56V1A15,15,0,0,0,1,16H5.56A10.44,10.44,0,0,1,16,5.56Z"/><path class="c" d="M16,1V5.56A10.44,10.44,0,0,1,26.44,16H31A15,15,0,0,0,16,1Z"/><path class="d" d="M16,26.44V31A15,15,0,0,0,31,16H26.44A10.44,10.44,0,0,1,16,26.44Z"/><path class="e" d="M5.56,16H1A15,15,0,0,0,16,31V26.44A10.44,10.44,0,0,1,5.56,16Z"/></svg>