<?xml version="1.0" encoding="UTF-8"?>
<!-- Generator: Adobe Illustrator 16.0.0, SVG Export Plug-In . SVG Version: 6.00 Build 0)  -->
<!DOCTYPE svg PUBLIC "-//W3C//DTD SVG 1.1//EN" "http://www.w3.org/Graphics/SVG/1.1/DTD/svg11.dtd">
<svg version="1.1" id="Layer_1" xmlns="http://www.w3.org/2000/svg" xmlns:xlink="http://www.w3.org/1999/xlink" x="0px" y="0px" width="500px" height="500px" viewBox="0 0 500 500" enable-background="new 0 0 500 500" xml:space="preserve">
<g>
	<g>
		<path fill="#B3B3B3" d="M354.44,331.507l-12.887-12.902c-3.212,4.289-6.664,8.457-10.563,12.356    c-3.899,3.931-8.091,7.375-12.394,10.602l12.901,12.887l-26.289,26.289l103.178,27.65l-27.649-103.178L354.44,331.507z"/>
		<g>
			<path fill="#B3B3B3" d="M165.929,166.006c22.487-22.487,52.377-34.867,84.165-34.858c31.799-0.019,61.67,12.378,84.15,34.843     c22.486,22.479,34.861,52.358,34.854,84.131c0.004,31.791-12.386,61.694-34.865,84.172     c-22.473,22.472-52.34,34.858-84.143,34.865c-65.607-0.015-119.004-53.412-119.004-119.034     C131.093,218.337,143.457,188.477,165.929,166.006z M326.59,326.636c20.439-20.44,31.698-47.596,31.69-76.515     c-0.007-28.889-11.251-56.046-31.687-76.481c-20.432-20.432-47.596-31.684-76.492-31.683c-28.912,0-56.075,11.25-76.524,31.698     c-20.432,20.432-31.675,47.573-31.675,76.456c0,59.66,48.549,108.225,108.186,108.231     C278.986,358.342,306.15,347.077,326.59,326.636z"/>
		</g>
	</g>
</g>
</svg>