<?xml version="1.0" encoding="UTF-8"?>
<!-- Generator: Adobe Illustrator 16.0.0, SVG Export Plug-In . SVG Version: 6.00 Build 0)  -->
<!DOCTYPE svg PUBLIC "-//W3C//DTD SVG 1.1//EN" "http://www.w3.org/Graphics/SVG/1.1/DTD/svg11.dtd">
<svg version="1.1" id="Layer_1" xmlns="http://www.w3.org/2000/svg" xmlns:xlink="http://www.w3.org/1999/xlink" x="0px" y="0px" width="500px" height="500px" viewBox="0 0 500 500" enable-background="new 0 0 500 500" xml:space="preserve">
<g>
	<g>
		<path fill="#B3B3B3" d="M168.484,354.444l12.902-12.887c-4.289-3.212-8.457-6.665-12.356-10.565    c-3.931-3.897-7.375-8.089-10.602-12.392l-12.886,12.901l-26.29-26.289L91.603,408.391l103.179-27.649L168.484,354.444z"/>
		<g>
			<path fill="#B3B3B3" d="M333.986,165.933c22.487,22.487,34.866,52.377,34.858,84.165c0.019,31.798-12.379,61.67-34.844,84.15     c-22.479,22.485-52.358,34.86-84.131,34.854c-31.792,0.005-61.694-12.386-84.172-34.866     c-22.472-22.473-34.858-52.338-34.864-84.143c0.014-65.606,53.411-119.003,119.033-119.003     C281.653,131.097,311.515,143.461,333.986,165.933z M173.355,326.594c20.439,20.44,47.596,31.698,76.515,31.69     c28.89-0.007,56.045-11.25,76.481-31.687c20.432-20.432,31.684-47.596,31.684-76.493c0-28.912-11.253-56.075-31.699-76.522     c-20.432-20.433-47.572-31.675-76.456-31.675c-59.66-0.001-108.225,48.549-108.231,108.186     C141.649,278.989,152.915,306.154,173.355,326.594z"/>
		</g>
	</g>
</g>
</svg>