<?xml version="1.0" encoding="UTF-8"?>
<!-- Generator: Adobe Illustrator 16.0.0, SVG Export Plug-In . SVG Version: 6.00 Build 0)  -->
<!DOCTYPE svg PUBLIC "-//W3C//DTD SVG 1.1//EN" "http://www.w3.org/Graphics/SVG/1.1/DTD/svg11.dtd">
<svg version="1.1" id="Layer_1" xmlns="http://www.w3.org/2000/svg" xmlns:xlink="http://www.w3.org/1999/xlink" x="0px" y="0px" width="500px" height="500px" viewBox="0 0 500 500" enable-background="new 0 0 500 500" xml:space="preserve">
<g>
	<g>
		<path fill="#B3B3B3" d="M118.494,196.604L25.996,249.99l92.498,53.417v-37.168l18.246-0.012    c-0.75-5.313-1.289-10.712-1.289-16.248c0-5.515,0.528-10.903,1.289-16.196l-18.246-0.011V196.604z"/>
		<g>
			<path fill="#B3B3B3" d="M130.791,250.054c0-31.802,12.383-61.69,34.865-84.162c22.472-22.499,52.361-34.854,84.141-34.865     c31.786-0.005,61.664,12.372,84.146,34.844c22.463,22.478,34.865,52.382,34.865,84.173c0,31.78-12.361,61.659-34.844,84.15     c-46.402,46.382-121.927,46.382-168.33-0.021C143.164,311.69,130.792,281.833,130.791,250.054z M357.989,250.032     c0-28.906-11.262-56.069-31.695-76.513c-20.433-20.423-47.606-31.676-76.497-31.675c-28.895,0-56.059,11.252-76.491,31.686     c-20.443,20.443-31.695,47.606-31.696,76.523c0,28.896,11.242,56.037,31.664,76.46c42.186,42.187,110.844,42.197,153.042,0.032     C346.749,306.112,357.989,278.938,357.989,250.032z"/>
		</g>
	</g>
</g>
</svg>