<?xml version="1.0" encoding="UTF-8"?>
<!-- Generator: Adobe Illustrator 16.0.0, SVG Export Plug-In . SVG Version: 6.00 Build 0)  -->
<!DOCTYPE svg PUBLIC "-//W3C//DTD SVG 1.1//EN" "http://www.w3.org/Graphics/SVG/1.1/DTD/svg11.dtd">
<svg version="1.1" id="Layer_1" xmlns="http://www.w3.org/2000/svg" xmlns:xlink="http://www.w3.org/1999/xlink" x="0px" y="0px" width="500px" height="500px" viewBox="0 0 500 500" enable-background="new 0 0 500 500" xml:space="preserve">
<g>
	<g>
		<path fill="#B3B3B3" d="M331.511,145.553l-12.903,12.888c4.289,3.212,8.457,6.664,12.356,10.563    c3.931,3.899,7.375,8.091,10.602,12.394l12.888-12.902l26.289,26.289l27.649-103.177l-103.178,27.648L331.511,145.553z"/>
		<g>
			<path fill="#B3B3B3" d="M166.008,334.065c-22.487-22.486-34.867-52.377-34.858-84.165c-0.019-31.799,12.378-61.67,34.843-84.15     c22.479-22.487,52.358-34.861,84.131-34.854c31.792-0.003,61.694,12.387,84.173,34.866c22.472,22.472,34.858,52.34,34.865,84.143     c-0.015,65.607-53.412,119.004-119.034,119.004C218.34,368.901,188.479,356.537,166.008,334.065z M326.639,173.404     c-20.439-20.44-47.596-31.699-76.515-31.691c-28.889,0.007-56.045,11.251-76.481,31.687     c-20.432,20.432-31.683,47.596-31.683,76.493c0,28.912,11.25,56.075,31.698,76.523c20.433,20.432,47.573,31.675,76.456,31.675     c59.66,0,108.225-48.549,108.232-108.187C358.345,221.007,347.079,193.844,326.639,173.404z"/>
		</g>
	</g>
</g>
</svg>