<?xml version="1.0" encoding="UTF-8"?>
<!-- Generator: Adobe Illustrator 16.0.0, SVG Export Plug-In . SVG Version: 6.00 Build 0)  -->
<!DOCTYPE svg PUBLIC "-//W3C//DTD SVG 1.1//EN" "http://www.w3.org/Graphics/SVG/1.1/DTD/svg11.dtd">
<svg version="1.1" id="Layer_1" xmlns="http://www.w3.org/2000/svg" xmlns:xlink="http://www.w3.org/1999/xlink" x="0px" y="0px" width="500px" height="500px" viewBox="0 0 500 500" enable-background="new 0 0 500 500" xml:space="preserve">
<g>
	<g>
		<path fill="#B3B3B3" d="M194.768,119.258L91.612,91.602l27.635,103.178l26.282-26.282l12.91,12.894    c3.226-4.286,6.663-8.485,10.578-12.4c3.899-3.899,8.083-7.336,12.364-10.541l-12.894-12.909L194.768,119.258z"/>
		<g>
			<path fill="#B3B3B3" d="M165.669,165.748c22.487-22.487,52.378-34.865,84.165-34.858c31.799-0.019,61.67,12.379,84.15,34.844     c22.479,22.472,34.854,52.351,34.861,84.139c-0.01,31.777-12.386,61.692-34.865,84.172     c-22.473,22.473-52.341,34.859-84.142,34.865c-65.608-0.015-119.012-53.419-119.012-119.041     C130.833,218.08,143.198,188.22,165.669,165.748z M326.337,326.387c20.44-20.44,31.685-47.61,31.691-76.515     c-0.007-28.89-11.265-56.062-31.694-76.489c-20.432-20.432-47.596-31.684-76.492-31.683c-28.911,0-56.075,11.252-76.522,31.698     c-20.432,20.433-31.675,47.573-31.676,76.455c0,59.66,48.541,108.217,108.194,108.239     C278.734,358.093,305.898,346.825,326.337,326.387z"/>
		</g>
	</g>
</g>
</svg>