<?xml version="1.0" encoding="UTF-8"?>
<!-- Generator: Adobe Illustrator 16.0.0, SVG Export Plug-In . SVG Version: 6.00 Build 0)  -->
<!DOCTYPE svg PUBLIC "-//W3C//DTD SVG 1.1//EN" "http://www.w3.org/Graphics/SVG/1.1/DTD/svg11.dtd">
<svg version="1.1" id="Layer_1" xmlns="http://www.w3.org/2000/svg" xmlns:xlink="http://www.w3.org/1999/xlink" x="0px" y="0px" width="500px" height="500px" viewBox="0 0 500 500" enable-background="new 0 0 500 500" xml:space="preserve">
<g>
	<g>
		<path fill="#B3B3B3" d="M233.781,118.508l-0.011,18.236c5.304-0.761,10.692-1.268,16.207-1.268    c5.536-0.021,10.936,0.507,16.26,1.268l-0.011-18.236h37.179L249.999,26l-53.407,92.508H233.781z"/>
		<g>
			<path fill="#B3B3B3" d="M250.052,368.834c-31.801,0-61.69-12.382-84.162-34.865c-22.499-22.472-34.854-52.361-34.865-84.141     c-0.005-31.796,12.372-61.674,34.844-84.136c22.478-22.482,52.383-34.865,84.173-34.865c31.78,0,61.658,12.361,84.151,34.845     c46.381,46.401,46.381,121.916-0.021,168.318C311.688,356.462,281.831,368.834,250.052,368.834z M250.03,141.646     c-28.906,0-56.069,11.241-76.513,31.695c-20.423,20.433-31.675,47.586-31.675,76.486c0,28.896,11.252,56.059,31.686,76.492     c20.443,20.444,47.606,31.696,76.523,31.696c28.896,0,56.037-11.241,76.46-31.664c42.187-42.187,42.197-110.855,0.032-153.031     C306.11,152.888,278.937,141.646,250.03,141.646z"/>
		</g>
	</g>
</g>
</svg>