<?xml version="1.0" encoding="UTF-8"?>
<!-- Generator: Adobe Illustrator 16.0.0, SVG Export Plug-In . SVG Version: 6.00 Build 0)  -->
<!DOCTYPE svg PUBLIC "-//W3C//DTD SVG 1.1//EN" "http://www.w3.org/Graphics/SVG/1.1/DTD/svg11.dtd">
<svg version="1.1" id="Layer_1" xmlns="http://www.w3.org/2000/svg" xmlns:xlink="http://www.w3.org/1999/xlink" x="0px" y="0px" width="500px" height="500px" viewBox="0 0 500 500" enable-background="new 0 0 500 500" xml:space="preserve">
<g>
	<g>
		<path fill="#B3B3B3" d="M266.211,381.493l0.012-18.235c-5.305,0.762-10.693,1.267-16.208,1.266    c-5.536,0.023-10.935-0.504-16.259-1.265l0.011,18.234l-37.179,0.001l53.406,92.509l53.407-92.51H266.211z"/>
		<g>
			<path fill="#B3B3B3" d="M249.941,131.168c31.802,0,61.69,12.382,84.163,34.864c22.497,22.472,34.854,52.361,34.864,84.142     c0.005,31.795-12.372,61.674-34.845,84.136c-22.476,22.483-52.382,34.866-84.172,34.864     c-31.781-0.001-61.657-12.359-84.151-34.845c-46.38-46.401-46.38-121.915,0.021-168.316     C188.303,143.54,218.161,131.168,249.941,131.168z M249.962,358.355c28.907,0.001,56.069-11.241,76.512-31.695     c20.424-20.434,31.675-47.585,31.675-76.486c0-28.895-11.251-56.06-31.685-76.493c-20.444-20.443-47.608-31.693-76.524-31.694     c-28.896-0.001-56.036,11.241-76.46,31.665c-42.187,42.185-42.197,110.855-0.032,153.029     C193.881,347.113,221.056,358.356,249.962,358.355z"/>
		</g>
	</g>
</g>
</svg>