<?xml version="1.0" encoding="UTF-8"?>
<!-- Generator: Adobe Illustrator 16.0.0, SVG Export Plug-In . SVG Version: 6.00 Build 0)  -->
<!DOCTYPE svg PUBLIC "-//W3C//DTD SVG 1.1//EN" "http://www.w3.org/Graphics/SVG/1.1/DTD/svg11.dtd">
<svg version="1.1" id="Layer_1" xmlns="http://www.w3.org/2000/svg" xmlns:xlink="http://www.w3.org/1999/xlink" x="0px" y="0px" width="500px" height="500px" viewBox="0 0 500 500" enable-background="new 0 0 500 500" xml:space="preserve">
<g>
	<g>
		<path fill="#B3B3B3" d="M381.487,233.783l-18.236-0.011c0.762,5.304,1.268,10.692,1.268,16.207    c0.022,5.537-0.506,10.936-1.267,16.26l18.235-0.011v37.179l92.509-53.406l-92.509-53.407V233.783z"/>
		<g>
			<path fill="#B3B3B3" d="M131.162,250.054c0-31.801,12.382-61.69,34.865-84.162c22.472-22.499,52.36-34.854,84.141-34.865     c31.795-0.006,61.673,12.372,84.135,34.844c22.482,22.478,34.866,52.383,34.865,84.173c0,31.78-12.361,61.658-34.845,84.151     c-46.401,46.381-121.916,46.38-168.318-0.021C143.533,311.69,131.161,281.833,131.162,250.054z M358.349,250.032     c0-28.906-11.241-56.07-31.695-76.513c-20.433-20.423-47.586-31.675-76.486-31.675c-28.895,0-56.059,11.251-76.491,31.685     c-20.444,20.443-31.696,47.606-31.696,76.524c0,28.896,11.242,56.037,31.665,76.46c42.186,42.186,110.856,42.197,153.031,0.032     C347.107,306.112,358.35,278.938,358.349,250.032z"/>
		</g>
	</g>
</g>
</svg>